<?xml version="1.0" encoding="utf-8"?>
<!-- Generator: Adobe Illustrator 27.2.0, SVG Export Plug-In . SVG Version: 6.00 Build 0)  -->
<svg version="1.1" id="Capa_1" xmlns="http://www.w3.org/2000/svg" xmlns:xlink="http://www.w3.org/1999/xlink" x="0px" y="0px"
	 viewBox="0 0 5775 2912.3" style="enable-background:new 0 0 5775 2912.3;" xml:space="preserve">
<style type="text/css">
	.st0{fill:#FEF4F2;}
	.st1{fill:#48AF94;}
	.st2{fill:#51BFA6;}
	.st3{fill:#58CCAA;}
	.st4{fill:#777777;}
	.st5{fill:#00847F;}
	.st6{fill:#EDDFA4;}
	.st7{fill:#FCEDB1;}
	.st8{fill:#EF7B41;}
	.st9{fill:#DD6C3A;}
	.st10{fill:#56C0EF;}
	.st11{fill:#F4E5A6;}
	.st12{fill:#A7ECF2;}
	.st13{fill:#EFEFEF;}
	.st14{fill:#F4E7B0;}
	.st15{fill:#FFFFFF;}
	.st16{fill:#732A09;}
	.st17{fill:#D13F3F;}
	.st18{fill:#F35454;}
	.st19{fill:#F05454;}
	.st20{fill:#DDDDDD;}
	.st21{fill:#F2F2F2;}
</style>
<g>
	<g>
		<rect x="1814.5" y="1859.9" class="st6" width="2146" height="44.8"/>
		<rect x="2119.8" y="1205.3" class="st7" width="1535.4" height="654.5"/>
		<rect x="524.9" y="1074.4" class="st8" width="4725.2" height="130.9"/>
		<rect x="524.9" y="1336.2" class="st8" width="4725.2" height="130.9"/>
		<rect x="524.9" y="1598.1" class="st8" width="4725.2" height="130.9"/>
		<g>
			<rect x="1509.2" y="1074.4" class="st9" width="610.6" height="130.9"/>
			<rect x="3655.2" y="1074.4" class="st9" width="610.6" height="130.9"/>
		</g>
		<rect x="2671.4" y="1741.9" class="st10" width="432.1" height="118"/>
		<rect x="2387.8" y="1741.9" class="st10" width="216.1" height="118"/>
		<rect x="3170.2" y="1741.9" class="st10" width="216.1" height="118"/>
		<g>
			<rect x="1509.2" y="1205.3" class="st11" width="610.6" height="654.5"/>
			<g>
				<g>
					<rect x="1551.9" y="1224.9" class="st12" width="239.1" height="239.1"/>
					<rect x="1837.9" y="1224.9" class="st12" width="239.1" height="239.1"/>
				</g>
				<g>
					<rect x="1551.9" y="1580.2" class="st12" width="239.1" height="166.5"/>
					<rect x="1837.9" y="1580.2" class="st12" width="239.1" height="166.5"/>
				</g>
				<g>
					<rect x="1551.9" y="1794.4" class="st13" width="239.1" height="65.5"/>
					<rect x="1837.9" y="1794.4" class="st13" width="239.1" height="65.5"/>
				</g>
			</g>
		</g>
		<g>
			<rect x="3655.2" y="1205.3" class="st11" width="610.6" height="654.5"/>
			<g>
				<g>
					<rect x="3697.9" y="1224.9" class="st12" width="239.1" height="239.1"/>
					<rect x="3983.9" y="1224.9" class="st12" width="239.1" height="239.1"/>
				</g>
				<g>
					<rect x="3697.9" y="1580.2" class="st12" width="239.1" height="166.5"/>
					<rect x="3983.9" y="1580.2" class="st12" width="239.1" height="166.5"/>
				</g>
				<g>
					<rect x="3697.9" y="1794.4" class="st13" width="239.1" height="65.5"/>
					<rect x="3983.9" y="1794.4" class="st13" width="239.1" height="65.5"/>
				</g>
			</g>
		</g>
		<g>
			<g>
				<rect x="589.2" y="1467.2" class="st7" width="920" height="130.9"/>
				<g>
					<rect x="704.7" y="1489.8" class="st12" width="315.9" height="85.6"/>
					<rect x="1077.7" y="1489.8" class="st12" width="315.9" height="85.6"/>
				</g>
			</g>
			<g>
				<rect x="589.2" y="1729" class="st7" width="920" height="130.9"/>
				<g>
					<rect x="704.7" y="1751.6" class="st12" width="315.9" height="85.6"/>
					<rect x="1077.7" y="1751.6" class="st12" width="315.9" height="85.6"/>
				</g>
			</g>
			<g>
				<rect x="589.2" y="1205.3" class="st7" width="920" height="130.9"/>
				<g>
					<rect x="704.7" y="1228" class="st12" width="315.9" height="85.6"/>
					<rect x="1077.7" y="1228" class="st12" width="315.9" height="85.6"/>
				</g>
			</g>
		</g>
		<g>
			<rect x="4265.8" y="1467.2" class="st7" width="920" height="130.9"/>
			<g>
				<rect x="4381.3" y="1489.8" class="st12" width="315.9" height="85.6"/>
				<rect x="4754.3" y="1489.8" class="st12" width="315.9" height="85.6"/>
			</g>
		</g>
		<g>
			<rect x="4265.8" y="1729" class="st7" width="920" height="130.9"/>
			<g>
				<rect x="4381.3" y="1751.6" class="st12" width="315.9" height="85.6"/>
				<rect x="4754.3" y="1751.6" class="st12" width="315.9" height="85.6"/>
			</g>
		</g>
		<g>
			<rect x="4265.8" y="1205.3" class="st7" width="920" height="130.9"/>
			<g>
				<rect x="4381.3" y="1228" class="st12" width="315.9" height="85.6"/>
				<rect x="4754.3" y="1228" class="st12" width="315.9" height="85.6"/>
			</g>
		</g>
		<g>
			<g>
				<g>
					<rect x="2174.6" y="1489.8" class="st12" width="315.9" height="85.6"/>
					<rect x="2547.6" y="1489.8" class="st12" width="315.9" height="85.6"/>
				</g>
				<g>
					<rect x="2174.6" y="1228" class="st12" width="315.9" height="85.6"/>
					<rect x="2547.6" y="1228" class="st12" width="315.9" height="85.6"/>
				</g>
			</g>
			<g>
				<g>
					<rect x="2911.5" y="1489.8" class="st12" width="315.9" height="85.6"/>
					<rect x="3284.5" y="1489.8" class="st12" width="315.9" height="85.6"/>
				</g>
				<g>
					<rect x="2911.5" y="1228" class="st12" width="315.9" height="85.6"/>
					<rect x="3284.5" y="1228" class="st12" width="315.9" height="85.6"/>
				</g>
			</g>
		</g>
		<g>
			<g>
				<g>
					<rect x="2181.4" y="1532.6" class="st14" width="206.5" height="352.8"/>
					
						<rect x="2456.8" y="1459.5" transform="matrix(4.490903e-11 -1 1 4.490903e-11 924.2097 4195.9204)" class="st14" width="206.5" height="352.8"/>
				</g>
			</g>
			<g>
				<g>
					
						<rect x="3387.1" y="1532.6" transform="matrix(-1 -4.487400e-11 4.487400e-11 -1 6980.6953 3418.0088)" class="st14" width="206.5" height="352.8"/>
					
						<rect x="3111.6" y="1459.5" transform="matrix(6.123234e-17 -1 1 6.123234e-17 1579.0298 4850.7407)" class="st14" width="206.5" height="352.8"/>
				</g>
			</g>
		</g>
	</g>
	<g>
		<rect x="3960.5" y="1862.1" class="st5" width="1225.3" height="42.6"/>
		<rect x="589.2" y="1862.1" class="st5" width="1225.3" height="42.6"/>
	</g>
</g>
</svg>
