<?xml version="1.0" encoding="utf-8"?>
<!-- Generator: Adobe Illustrator 27.2.0, SVG Export Plug-In . SVG Version: 6.00 Build 0)  -->
<svg version="1.1" id="Capa_1" xmlns="http://www.w3.org/2000/svg" xmlns:xlink="http://www.w3.org/1999/xlink" x="0px" y="0px"
	 viewBox="0 0 5775 2912.3" style="enable-background:new 0 0 5775 2912.3;" xml:space="preserve">
<style type="text/css">
	.st0{fill:#FEF4F2;}
	.st1{fill:#48AF94;}
	.st2{fill:#51BFA6;}
	.st3{fill:#58CCAA;}
	.st4{fill:#777777;}
	.st5{fill:#00847F;}
	.st6{fill:#EDDFA4;}
	.st7{fill:#FCEDB1;}
	.st8{fill:#EF7B41;}
	.st9{fill:#DD6C3A;}
	.st10{fill:#56C0EF;}
	.st11{fill:#F4E5A6;}
	.st12{fill:#A7ECF2;}
	.st13{fill:#EFEFEF;}
	.st14{fill:#F4E7B0;}
	.st15{fill:#FFFFFF;}
	.st16{fill:#732A09;}
	.st17{fill:#D13F3F;}
	.st18{fill:#F35454;}
	.st19{fill:#F05454;}
	.st20{fill:#DDDDDD;}
	.st21{fill:#F2F2F2;}
</style>
<g id="BACKGROUND_00000129926888951733566010000016730884984102217091_">
	<rect x="4067.9" y="-8763.9" class="st0" width="5749.2" height="2912.9"/>
</g>
<g>
	<path class="st1" d="M4067.9-7465.2c0,0,528.2-195.6,1060.7,67c0,0,361.8-583.9,962.8-111.3s1306,734.4,1728.7,594.7
		c422.7-139.8,927.6-1123.7,1412.5-976.3c0,0,192.4-349.8,608.1-218.8v1250.6H4067.9V-7465.2z"/>
	<path class="st2" d="M4065.8-6859.2c0,0,903.7-718.1,1895.3-391.1c991.6,327.1,1697,212.2,2182.2,29.5
		c485.1-182.6,1130.4-501.5,1683.5-501.5v863.1H4065.8z"/>
	<path class="st3" d="M4639.9-6995.9c71.1-101.1,499.7-108.8,405.7-31.9c-94,76.9,868.8,53.6,699.8-68
		c-169-121.6,998.6,106.8,1454.2,60.2c16.3-1.5,32.2-4.6,47.3-9.2c-362.2,11.2-787.9-41.6-1285.9-205.5
		c-991.6-327.1-1895.3,391.1-1895.3,391.1h740.1C4805.9-6859.2,4568.8-6894.8,4639.9-6995.9z"/>
	<path class="st3" d="M8146.4-7221c-154.7,58.4-318.9,103.3-488.8,133.8c0,0,348.4,23.1,838-181.3
		c489.6-204.4,922.5-234.5,742.2-110c-180.4,124.5-118.5,263.3,154.6,237.7s30.9,281.6-283.5,281.6h731.9v-863.1
		C9284.1-7722.3,8634.7-7403.7,8146.4-7221z"/>
</g>
<g>
	<rect x="4065.8" y="-6859.2" class="st4" width="5795" height="1008.2"/>
	<g>
		<path class="st5" d="M9840.8-6806.4c0,0-173,32.6-152.3,229.4c0,0-145.3-19.1-166.1,161.5c0,0-387.1-78.4-466.9,224.2
			c0,0-263.8-15.8-431.4,191.8c0,0-468.4-145.3-584.4,145.3h1801.1V-6806.4z"/>
		<path class="st5" d="M4074.3-6801.4c34.1-22,375.3-20.6,486.2,294.3c0,0,232.6-88.7,329.6,270.9c0,0,278.9-177.8,571.5,180.5
			c0,0,218.7-110.9,336.8,34.1c0,0,799.4-153.5,1106.9,170.6h-2831V-6801.4z"/>
	</g>
</g>
<g>
	<g>
		<rect x="5880.3" y="-6904.1" class="st6" width="2146" height="44.8"/>
		<rect x="6185.6" y="-7558.6" class="st7" width="1535.4" height="654.5"/>
		<rect x="4590.7" y="-7689.5" class="st8" width="4725.2" height="130.9"/>
		<rect x="4590.7" y="-7427.7" class="st8" width="4725.2" height="130.9"/>
		<rect x="4590.7" y="-7165.9" class="st8" width="4725.2" height="130.9"/>
		<g>
			<rect x="5575" y="-7689.5" class="st9" width="610.6" height="130.9"/>
			<rect x="7721" y="-7689.5" class="st9" width="610.6" height="130.9"/>
		</g>
		<rect x="6737.2" y="-7022.1" class="st10" width="432.1" height="118"/>
		<rect x="6453.7" y="-7022.1" class="st10" width="216.1" height="118"/>
		<rect x="7236" y="-7022.1" class="st10" width="216.1" height="118"/>
		<g>
			<rect x="5575" y="-7558.6" class="st11" width="610.6" height="654.5"/>
			<g>
				<g>
					<rect x="5617.7" y="-7539.1" class="st12" width="239.1" height="239.1"/>
					<rect x="5903.7" y="-7539.1" class="st12" width="239.1" height="239.1"/>
				</g>
				<g>
					<rect x="5617.7" y="-7183.7" class="st12" width="239.1" height="166.5"/>
					<rect x="5903.7" y="-7183.7" class="st12" width="239.1" height="166.5"/>
				</g>
				<g>
					<rect x="5617.7" y="-6969.5" class="st13" width="239.1" height="65.5"/>
					<rect x="5903.7" y="-6969.5" class="st13" width="239.1" height="65.5"/>
				</g>
			</g>
		</g>
		<g>
			<rect x="7721" y="-7558.6" class="st11" width="610.6" height="654.5"/>
			<g>
				<g>
					<rect x="7763.7" y="-7539.1" class="st12" width="239.1" height="239.1"/>
					<rect x="8049.7" y="-7539.1" class="st12" width="239.1" height="239.1"/>
				</g>
				<g>
					<rect x="7763.7" y="-7183.7" class="st12" width="239.1" height="166.5"/>
					<rect x="8049.7" y="-7183.7" class="st12" width="239.1" height="166.5"/>
				</g>
				<g>
					<rect x="7763.7" y="-6969.5" class="st13" width="239.1" height="65.5"/>
					<rect x="8049.7" y="-6969.5" class="st13" width="239.1" height="65.5"/>
				</g>
			</g>
		</g>
		<g>
			<g>
				<rect x="4655" y="-7296.8" class="st7" width="920" height="130.9"/>
				<g>
					<rect x="4770.5" y="-7274.1" class="st12" width="315.9" height="85.6"/>
					<rect x="5143.5" y="-7274.1" class="st12" width="315.9" height="85.6"/>
				</g>
			</g>
			<g>
				<rect x="4655" y="-7035" class="st7" width="920" height="130.9"/>
				<g>
					<rect x="4770.5" y="-7012.3" class="st12" width="315.9" height="85.6"/>
					<rect x="5143.5" y="-7012.3" class="st12" width="315.9" height="85.6"/>
				</g>
			</g>
			<g>
				<rect x="4655" y="-7558.6" class="st7" width="920" height="130.9"/>
				<g>
					<rect x="4770.5" y="-7535.9" class="st12" width="315.9" height="85.6"/>
					<rect x="5143.5" y="-7535.9" class="st12" width="315.9" height="85.6"/>
				</g>
			</g>
		</g>
		<g>
			<rect x="8331.6" y="-7296.8" class="st7" width="920" height="130.9"/>
			<g>
				<rect x="8447.1" y="-7274.1" class="st12" width="315.9" height="85.6"/>
				<rect x="8820.1" y="-7274.1" class="st12" width="315.9" height="85.6"/>
			</g>
		</g>
		<g>
			<rect x="8331.6" y="-7035" class="st7" width="920" height="130.9"/>
			<g>
				<rect x="8447.1" y="-7012.3" class="st12" width="315.9" height="85.6"/>
				<rect x="8820.1" y="-7012.3" class="st12" width="315.9" height="85.6"/>
			</g>
		</g>
		<g>
			<rect x="8331.6" y="-7558.6" class="st7" width="920" height="130.9"/>
			<g>
				<rect x="8447.1" y="-7535.9" class="st12" width="315.9" height="85.6"/>
				<rect x="8820.1" y="-7535.9" class="st12" width="315.9" height="85.6"/>
			</g>
		</g>
		<g>
			<g>
				<g>
					<rect x="6240.4" y="-7274.1" class="st12" width="315.9" height="85.6"/>
					<rect x="6613.4" y="-7274.1" class="st12" width="315.9" height="85.6"/>
				</g>
				<g>
					<rect x="6240.4" y="-7535.9" class="st12" width="315.9" height="85.6"/>
					<rect x="6613.4" y="-7535.9" class="st12" width="315.9" height="85.6"/>
				</g>
			</g>
			<g>
				<g>
					<rect x="6977.3" y="-7274.1" class="st12" width="315.9" height="85.6"/>
					<rect x="7350.3" y="-7274.1" class="st12" width="315.9" height="85.6"/>
				</g>
				<g>
					<rect x="6977.3" y="-7535.9" class="st12" width="315.9" height="85.6"/>
					<rect x="7350.3" y="-7535.9" class="st12" width="315.9" height="85.6"/>
				</g>
			</g>
		</g>
		<g>
			<g>
				<g>
					<rect x="6247.2" y="-7231.3" class="st14" width="206.5" height="352.8"/>
					
						<rect x="6522.6" y="-7304.5" transform="matrix(4.490903e-11 -1 1 4.490903e-11 13753.9541 -502.2148)" class="st14" width="206.5" height="352.8"/>
				</g>
			</g>
			<g>
				<g>
					
						<rect x="7452.9" y="-7231.3" transform="matrix(-1 -4.487400e-11 4.487400e-11 -1 15112.3047 -14109.8711)" class="st14" width="206.5" height="352.8"/>
					
						<rect x="7177.4" y="-7304.5" transform="matrix(6.123234e-17 -1 1 6.123234e-17 14408.7744 152.6053)" class="st14" width="206.5" height="352.8"/>
				</g>
			</g>
		</g>
	</g>
	<g>
		<rect x="8026.3" y="-6901.8" class="st5" width="1225.3" height="42.6"/>
		<rect x="4655" y="-6901.8" class="st5" width="1225.3" height="42.6"/>
	</g>
</g>
<g id="character_00000111880342159706315150000009491410904584738469_">
	<path class="st15" d="M5497.8-6545.5c-52.1,113.7-94.7,238.9-23.5,278.2c0,0-34.6,76.5-48.7,138.9
		c-11.8,52.1-35.1,136.5-42.5,163.2c-1.5,5.3,0.8,10.9,5.5,13.7c14.5,8.7,49.3,23.9,105.3,14.9c4.3-0.7,8-3.6,9.5-7.7
		c12.8-33.1,72.3-185.4,110.5-243.6c0,0,67.2,78.8,123.1,107.1v-154.7l-33.9-49.1c0,0,53.5-55,60.9-125
		c7.4-69.9-6.6-110.2-6.6-110.2L5497.8-6545.5L5497.8-6545.5z"/>
	<path class="st16" d="M5460.4-5931.8c-36.5,0-60.5-10.5-72.9-18c-5.5-3.3-8.2-9.9-6.4-16.1c7-25,30.7-110.8,42.5-163
		c12.8-56.8,42.9-125.8,48-137.6c-73.4-43-21.4-180.2,24.3-279.9c0.4-0.8,1.2-1.3,2.1-1.2l259.7,25.7c0.8,0.1,1.5,0.6,1.8,1.4
		c0.1,0.4,14,41.6,6.7,111.1c-6.8,64-52.3,116.3-60.3,124.9l32.9,47.7c0.3,0.3,0.4,0.8,0.4,1.2v154.7c0,0.7-0.4,1.4-1,1.8
		c-0.6,0.4-1.4,0.4-2.1,0.1c-50.5-25.5-110.7-92.7-121.9-105.5c-38.3,59.9-97.2,210.9-108.8,240.9c-1.8,4.7-6.1,8.2-11.2,9
		C5481.9-5932.7,5470.6-5931.8,5460.4-5931.8L5460.4-5931.8z M5499.1-6543.3c-93.9,205.5-58.6,254.8-23.8,274.1
		c1,0.5,1.3,1.7,0.9,2.7c-0.3,0.8-34.7,77-48.5,138.6c-11.8,52.4-35.5,138.2-42.5,163.2c-1.2,4.4,0.7,9,4.6,11.4
		c15.4,9.2,49.3,23.4,103.9,14.6c3.6-0.6,6.6-3,7.9-6.4c11.7-30.5,72.2-185.4,110.7-244c0.4-0.5,1-0.9,1.6-0.9s1.3,0.3,1.7,0.7
		c0.7,0.8,65.2,76,119.4,105v-150.6l-33.5-48.5c-0.6-0.8-0.5-1.9,0.2-2.6c0.5-0.5,53.1-55.4,60.3-123.7c6.5-61.8-3.9-100.7-6.1-108
		L5499.1-6543.3L5499.1-6543.3z"/>
	<path class="st16" d="M5474.2-6265.3c0,0-0.4,0-0.6-0.1c-1.1-0.3-1.8-1.5-1.4-2.6c0.3-1.2,34.2-118.4,90.6-198.9
		c0.7-1,2-1.2,2.9-0.5c1,0.7,1.2,2,0.5,2.9c-56,79.9-89.6,196.4-90,197.6C5476-6265.9,5475.2-6265.3,5474.2-6265.3L5474.2-6265.3z"
		/>
	<path class="st16" d="M5613.9-6185.8c-0.4,0-0.8-0.1-1.2-0.4c-1-0.7-1.2-2-0.5-2.9c15.7-22.1,38.2-44.4,58-64
		c12.9-12.8,24-23.8,31.3-32.8c0.7-0.9,2.1-1,2.9-0.3c0.9,0.7,1,2.1,0.3,2.9c-7.4,9.2-18.6,20.3-31.6,33.1
		c-19.7,19.5-42.1,41.7-57.6,63.5C5615.2-6186.1,5614.6-6185.8,5613.9-6185.8L5613.9-6185.8z"/>
	<path class="st15" d="M5481.9-6814.3c29.9,51.6,220.9,25.6,258.4,1.2c37.5-24.4,23.3-70.3,7.4-103.5
		c-13.9-29.1-38.9-51.3-70.2-98.6c-4.5-6.7-9-13.9-13.7-21.7c-10.8-18-20.5-32.7-30.3-44.6c-24.4-29.8-49-41.9-90.1-41.6
		c-28.4-10.1-47.8,3.8-62.3,26.3c-4.1,6.3-7.8,13.3-11.2,20.7c-8.5,18.3-7.2,30.6-5.6,43c1.3,10.4,2.7,20.9-1.2,35
		c-8.7,31.1,5,46.5,11.8,78.5S5451.9-6865.9,5481.9-6814.3L5481.9-6814.3z"/>
	<path class="st16" d="M5583-6782.4c-22.2,0-43.3-1.8-60.6-5.9c-21.6-5.1-35.8-13.6-42.4-24.9c-19.3-33.3-14.3-54.7-9.8-73.6
		c2.6-10.8,4.9-20.9,2.6-32.2c-2.1-9.9-4.8-18-7.4-25.9c-5.6-17-10.5-31.7-4.4-53.6c3.7-13.3,2.5-23.4,1.3-33.3l-0.1-0.9
		c-1.5-11.7-3.1-24.9,5.8-44.1c3.8-8.2,7.5-15,11.4-20.9c17.7-27.4,38.8-36.3,64.4-27.3c0.4,0,0.9,0,1.3,0c39.9,0,65.2,12,90,42.3
		c9.1,11.2,18.5,25,30.4,44.9c4.6,7.7,9.1,14.8,13.6,21.6c14.1,21.2,26.7,37.2,38,51.4c13.8,17.4,24.7,31.2,32.4,47.4
		c24.4,51.1,21.6,86.8-8.2,106.2C5719-6796.6,5646.3-6782.3,5583-6782.4L5583-6782.4z M5525.3-7124.3c-16.2,0-29.9,9.4-42.4,28.8
		c-3.8,5.8-7.4,12.4-11.1,20.4c-8.4,18.1-6.9,30.2-5.4,41.9l0.1,0.9c1.3,10.3,2.6,20.8-1.4,34.9c-5.8,20.8-1.3,34.2,4.3,51.2
		c2.5,7.6,5.4,16.2,7.5,26.3c2.6,12.2,0.1,22.8-2.6,34.1c-4.5,19-9.1,38.7,9.4,70.6l0,0c6,10.4,19.4,18.1,39.8,23
		c65.7,15.7,185.8-3.1,215.7-22.4c28.2-18.3,30.3-51.3,6.7-100.9c-7.5-15.8-18.3-29.4-31.9-46.6c-11.3-14.2-24-30.3-38.2-51.7
		c-4.6-6.9-9.1-14-13.7-21.8c-11.6-19.4-21.2-33.5-30-44.4c-24.6-30-48.5-41.2-88.4-40.8c-0.2-0.1-0.5,0-0.7-0.1
		C5536.6-7123.2,5530.9-7124.3,5525.3-7124.3L5525.3-7124.3z"/>
	<path class="st17" d="M5437.5-6831.3c0,0,29.2-61,82.8-83.9c53.6-22.9,174.4-15,203.7,37.2c29.3,52.2,74.3,268,77.9,300.2
		c3.6,32.2-28.6,44.3-28.6,44.3l-1.4,28.6c0,0-102.2,30.7-185.1,12.1c-82.9-18.6-122.9-34.3-122.9-34.3l18.6-215.8L5437.5-6831.3
		L5437.5-6831.3z"/>
	<path class="st15" d="M5379.4-6888.3l38.6-8.4l13,64.8c0,0,42.3-16.7,75.7-24.2c33.4-7.5,83.7-5.2,83.7-5.2l36.6,192.2l-16.2,9
		L5427-6775l-35.9-62.6L5379.4-6888.3L5379.4-6888.3z"/>
	<path class="st16" d="M5610.7-6658c-0.4,0-0.8-0.1-1.1-0.3l-183.8-114.9c-0.3-0.2-0.5-0.4-0.7-0.7l-35.9-62.6c0,0-0.2-0.4-0.2-0.6
		l-11.6-50.8c-0.1-0.5,0-1.1,0.3-1.6c0.3-0.5,0.8-0.8,1.3-0.9l38.6-8.4c0.5-0.1,1.1,0,1.6,0.3s0.8,0.8,0.9,1.3l12.5,62.3
		c9.3-3.6,45-16.9,73.7-23.4c33.3-7.4,83.8-5.3,84.3-5.2c1,0,1.8,0.8,2,1.7l36.6,192.2c0.2,0.9-0.3,1.8-1,2.2l-16.2,9
		C5611.5-6658.1,5611.2-6658,5610.7-6658L5610.7-6658z M5428.5-6776.4l182.3,113.9l13.8-7.7l-36-189.1c-9-0.3-52.2-1.4-81.6,5.2
		c-32.8,7.4-74.9,23.9-75.4,24.1c-0.6,0.3-1.2,0.2-1.8-0.1c-0.5-0.3-0.9-0.8-1-1.4l-12.6-62.7l-34.4,7.4l11.1,48.5l35.5,61.8
		V-6776.4z"/>
	<path class="st17" d="M5373.9-6888.3l33.9,73.2l19.7,9.8c0,0,85.2-32,151.2-28.3l35.3,197.6c0,0-92.3,25.2-150.1,11.7l-19.4-12.3
		l-46.5-156.3L5373.9-6888.3L5373.9-6888.3z"/>
	<path class="st16" d="M5503.6-6618.2c-14.2,0-28-1.1-40.3-4c-0.2,0-0.5-0.2-0.6-0.3l-19.4-12.3c-0.4-0.3-0.8-0.7-0.9-1.2
		l-46.4-156.3l-24-95.5c-0.3-1,0.3-2.1,1.3-2.5c1-0.4,2.1,0.1,2.6,1.1l33.5,72.6l18.2,9.1c9.2-3.3,89-31.6,151.2-28.1
		c1,0,1.8,0.8,1.9,1.7l35.3,197.6c0.2,1-0.5,2.1-1.5,2.4C5613.8-6633.8,5556.2-6618.3,5503.6-6618.2L5503.6-6618.2z M5464.6-6626.2
		c52.2,12.1,133.7-7.9,147-11.3l-34.6-194c-64.6-3.1-147.8,28-148.7,28.2c-0.5,0.2-1.1,0.2-1.7-0.1l-19.7-9.8c-0.4-0.2-0.8-0.5-1-1
		l-24.4-52.9l18.5,73.7l46.2,155.5L5464.6-6626.2L5464.6-6626.2z"/>
	<path class="st15" d="M5391.8-6789.9c-7.5-4.2-8-11.4-4.4-13.9c3.6-2.6,17.2-3.6,20.3,0c3.1,3.6,0.4,10.6-3.9,11.3
		C5399.6-6792,5391.8-6789.9,5391.8-6789.9L5391.8-6789.9z"/>
	<path class="st16" d="M5391.8-6787.9c-0.3,0-0.7-0.1-1-0.3c-4.6-2.6-7.4-6.5-7.6-10.7c-0.2-2.8,1-5.4,3-6.8c4-2.8,19-4.4,23.1,0.3
		c2,2.2,2.4,5.6,1.2,8.9c-1.2,3.2-3.6,5.4-6.4,5.8c-4.1,0.6-11.7,2.6-11.8,2.6C5392.2-6787.9,5392-6787.8,5391.8-6787.9
		L5391.8-6787.9z M5398.8-6804.2c-4,0-8.5,0.8-10.2,2c-0.9,0.6-1.3,1.8-1.3,3.2c0.1,2.5,1.9,5,4.8,6.8c2.2-0.6,7.9-2,11.4-2.5
		c1.2-0.2,2.4-1.4,3-3.1c0.5-1.4,0.7-3.4-0.4-4.7C5405.1-6803.6,5402.1-6804.1,5398.8-6804.2L5398.8-6804.2z"/>
	<path class="st15" d="M5396.4-6779.3c0,0-11.8-5.6-8.5-11.8s21.1-6.2,22.8-3.3s-1.3,10.6-6.9,11.3
		C5398.2-6782.6,5396.4-6779.3,5396.4-6779.3z"/>
	<path class="st16" d="M5396.4-6777.2c-0.3,0-0.6,0-0.9-0.2c-0.8-0.4-8.2-4-9.9-9.2c-0.6-1.9-0.5-3.8,0.4-5.5
		c2.9-5.6,12.8-6.2,15.7-6.3c2.7,0,9.1,0.1,10.7,2.9c1.2,2.1,0.9,5.3-0.6,8.4c-1.8,3.4-4.6,5.6-7.8,6c-4.3,0.5-5.7,2.8-5.8,2.8
		C5397.8-6777.6,5397.1-6777.2,5396.4-6777.2L5396.4-6777.2z M5402.6-6794.3c-1.8,0-3.9,0.2-6.1,0.6c-3.5,0.7-6,2-6.8,3.5
		c-0.4,0.8-0.4,1.5-0.2,2.3c0.8,2.4,4.1,4.7,6.3,6c1.3-1.3,3.7-2.9,7.7-3.3c2.5-0.3,4-2.7,4.5-3.7c1-2,1.1-3.8,0.8-4.4
		C5408.4-6793.7,5405.9-6794.2,5402.6-6794.3L5402.6-6794.3z"/>
	<path class="st15" d="M5398.5-6766.1c0,0-13.3-4.9-10.1-12.8c3.1-7.9,23-8.6,25.1-4.4c2.1,4.2,2.5,8.9-6.2,13L5398.5-6766.1
		L5398.5-6766.1z"/>
	<path class="st16" d="M5398.5-6764c-0.3,0-0.5,0-0.7-0.1c-0.3-0.1-8.7-3.2-11.3-8.9c-1-2.2-1-4.4-0.1-6.6c2.3-5.7,10.7-8,17.2-8.2
		c2.9-0.1,9.9,0,11.7,3.7c1,2,2.1,5,1,8.3c-1,3-3.7,5.4-8.2,7.5l-8.7,4.1C5399.1-6764.1,5398.8-6764,5398.5-6764z M5404.9-6783.7
		c-1,0-2,0-3.1,0.2c-5.9,0.6-10.3,2.8-11.4,5.4c-0.5,1.2-0.5,2.2,0,3.3c1.3,3,5.7,5.4,8.1,6.4l7.9-3.7c3.3-1.6,5.4-3.3,6-5.1
		c0.5-1.4,0.3-3-0.8-5.1C5411.2-6782.9,5408.7-6783.7,5404.9-6783.7z"/>
	<path class="st15" d="M5411.1-6748.5c0,0-17.2-7.5-18.1-15.5s11-12.6,18.1-10.3s2.8,8.7-4.9,9.5L5411.1-6748.5L5411.1-6748.5z"/>
	<path class="st16" d="M5411.1-6746.4c-0.3,0-0.6,0-0.8-0.2c-1.9-0.8-18.3-8.3-19.3-17.2c-0.4-3.4,1-6.7,4.1-9.2
		c4.4-3.6,11.6-5.1,16.7-3.4c5,1.6,5.2,4.8,5.1,6.1c-0.3,3.1-3.6,5.9-7.9,7l4.2,14.1c0.3,0.8,0,1.6-0.6,2.2
		C5412.1-6746.7,5411.6-6746.5,5411.1-6746.4L5411.1-6746.4z M5407-6772.8c-3.3,0-6.9,1.2-9.3,3.1c-1.3,1.1-2.9,2.9-2.6,5.4
		c0.5,3.9,6.9,8.6,12.7,11.7l-3.5-11.7c-0.2-0.6-0.1-1.3,0.3-1.8c0.3-0.5,0.9-0.8,1.5-0.9c4.2-0.5,6.5-2.6,6.6-3.7
		c0.1-0.7-1.1-1.3-2.2-1.7C5409.5-6772.7,5408.3-6772.8,5407-6772.8L5407-6772.8z"/>
	<polygon class="st18" points="5407.7,-6815.1 5444.4,-6636.6 5463.7,-6624.3 5427.5,-6805.2 	"/>
	<path class="st16" d="M5463.7-6622.2c-0.4,0-0.8-0.1-1.1-0.3l-19.4-12.3c-0.5-0.3-0.8-0.8-0.9-1.3l-36.6-178.5
		c-0.2-0.8,0.1-1.6,0.8-2.1c0.6-0.5,1.5-0.6,2.2-0.2l19.7,9.8c0.6,0.3,1,0.8,1.1,1.5l36.3,180.9c0.2,0.8-0.2,1.7-0.9,2.1
		C5464.6-6622.3,5464.2-6622.2,5463.7-6622.2L5463.7-6622.2z M5446.2-6637.9l14.5,9.2l-35.2-175.1l-14.9-7.4L5446.2-6637.9
		L5446.2-6637.9z"/>
	<path class="st15" d="M5578.7-6665.4c0,0-35.4-12.6-48.5-23.1c-13.1-10.5-24.9-49.9-35-48.6c-10.1,1.3,1.8,49.9,1.8,49.9
		s-20.6-2.6-33.3-11.8c-12.7-9.2-35-28.9-43.3-28c-8.3,0.9,26.7,37.6,26.7,37.6s-21.4-8.3-25.8-5.7c-4.4,2.6,19.7,18.4,19.7,18.4
		s-9.4-1.9-11.2,3.8c-1.8,5.7,14.7,12.9,14.7,12.9s-11.9,5,0.8,13.8c12.7,8.8,29,21,48.2,21.9c19.2,0.9,46.4-2,46.4-2l31.1,22.3
		C5570.9-6604,5573-6643.1,5578.7-6665.4L5578.7-6665.4z"/>
	<path class="st16" d="M5570.8-6601.9c-0.4,0-0.9-0.1-1.2-0.4l-30.4-21.8c-4.6,0.5-28.5,2.7-45.9,1.9c-18.5-0.8-34.1-11.7-46.7-20.4
		l-2.6-1.8c-4.8-3.3-7.1-6.7-6.7-10.1c0.2-2.2,1.5-3.9,2.8-5.1c-5.6-2.8-14.1-8.2-12.4-13.8c1-3.1,3.5-4.6,6.4-5.2
		c-7.4-5.2-15.6-11.8-15.5-15.4c0-1.1,0.6-2.1,1.5-2.6c3.3-2,12.3,0.3,19.5,2.6c-11.1-12.1-24.2-27.8-22.4-32.7
		c0.5-1.2,1.5-2,2.9-2.1c6.7-0.8,18.5,8.1,34.5,20.5c3.8,2.9,7.3,5.7,10.3,7.8c9.3,6.7,23.2,9.8,29.3,11c-2.3-10.1-8.3-39.3-3-47
		c1.2-1.7,2.7-2.3,3.7-2.4c6.9-0.9,12.7,10,20,23.9c5.4,10.1,10.9,20.6,16.6,25.1c12.7,10.2,47.6,22.6,47.9,22.8
		c1,0.4,1.6,1.4,1.3,2.5c-5.6,21.8-7.7,60.6-7.7,60.9c0,0.8-0.5,1.5-1.2,1.8c-0.3,0.1-0.6,0.2-0.9,0.2L5570.8-6601.9z
		 M5539.7-6628.5c0.4,0,0.9,0.1,1.2,0.4l28,20.1c0.7-10.1,2.8-37.7,7.2-56.1c-7.4-2.8-35.7-13.4-47.3-22.8
		c-6.3-5.1-12.1-15.9-17.7-26.4c-5.2-9.9-11.7-22.3-15.8-21.7c-0.1,0-0.4,0-0.8,0.6c-3.8,5.5,0.6,31.6,4.3,46.7
		c0.2,0.7,0,1.4-0.5,1.9c-0.5,0.5-1.1,0.8-1.8,0.7c-0.9-0.1-21.3-2.8-34.2-12.2c-3-2.2-6.6-5-10.4-8c-10.5-8.2-24.8-19.4-30.8-19.7
		c1.2,4.6,14.6,20.8,27.3,34.1c0.7,0.7,0.8,1.8,0.2,2.6s-1.6,1.1-2.5,0.8c-10-3.8-19.9-6.4-23.1-6.1c2,2.9,10.8,9.8,18.9,15.1
		c0.8,0.5,1.2,1.6,0.8,2.6c-0.4,0.9-1.4,1.5-2.3,1.3c-0.1,0-7.6-1.4-8.7,2.3c-0.7,2.2,6.6,7.3,13.5,10.3c0.8,0.3,1.3,1.1,1.3,1.9
		s-0.5,1.6-1.3,1.9c-0.9,0.4-3.6,2-3.8,3.9c-0.2,1.7,1.6,3.9,4.9,6.2l2.7,1.8c12.1,8.4,27.2,18.9,44.5,19.7
		c18.9,0.8,45.8-1.9,46.1-2C5539.7-6628.5,5539.7-6628.5,5539.7-6628.5L5539.7-6628.5z"/>
	<path class="st16" d="M5474.2-6670c0,0-0.3,0-0.5-0.1c-10.3-2.6-27.4-17.2-28.1-17.8c-0.9-0.8-1-2.1-0.3-3c0.8-0.9,2.1-1,2.9-0.2
		c0.2,0.1,17,14.5,26.4,16.9c1.1,0.3,1.8,1.4,1.5,2.6C5476-6670.6,5475.1-6670,5474.2-6670L5474.2-6670z"/>
	<path class="st16" d="M5476.2-6657.5c0,0-0.4,0-0.6-0.1c-0.9-0.3-21.6-6.9-35.9-17.5c-0.9-0.7-1.1-2-0.5-2.9c0.7-0.9,2-1.1,2.9-0.5
		c13.8,10.1,34.5,16.8,34.7,16.8c1.1,0.3,1.7,1.5,1.4,2.6C5477.9-6658,5477.1-6657.5,5476.2-6657.5L5476.2-6657.5z"/>
	<path class="st16" d="M5476.2-6642.4c-0.3,0-0.5,0-0.8-0.2c-0.8-0.3-19.2-7.9-32.1-15.7c-1-0.6-1.3-1.9-0.7-2.9s1.9-1.3,2.9-0.7
		c12.6,7.6,31.4,15.3,31.6,15.4c1.1,0.5,1.6,1.7,1.1,2.7C5477.8-6642.9,5477-6642.4,5476.2-6642.4L5476.2-6642.4z"/>
	<path class="st17" d="M5700.6-6659.6c0,0-116.2-21.4-121.9-5.9c0,0-8,43.9-7.8,61.3c0,0,0.7,16.5,10.8,22.5
		c10.1,6,93.7,43.1,175.9,48.1"/>
	<path class="st16" d="M5757.5-6531.4c0,0-0.1,0-0.1,0c-83.5-5.1-168.4-43.4-176.8-48.4c-11-6.5-11.8-23.4-11.8-24.2
		c-0.2-17.4,7.5-60,7.9-61.8c6.1-16.7,104.6,0.5,124.3,4.1c1.1,0.2,1.9,1.3,1.7,2.4c-0.2,1.1-1.3,1.9-2.4,1.7
		c-56.2-10.4-116.4-15.9-119.6-7.2c0,0.1-7.9,43.6-7.7,60.6c0,0.1,0.8,15.4,9.8,20.7c8.3,4.9,92.2,42.8,175,47.8
		c1.2,0.1,2.1,1,2,2.2C5759.6-6532.3,5758.6-6531.5,5757.5-6531.4L5757.5-6531.4z"/>
	<path class="st16" d="M5622-6667.5c-1,0-1.8-0.7-2.1-1.7l-37.4-182.9c-6.3-0.5-31.4-1.8-63.5,2.4c-37,4.9-92.2,27-92.7,27.2
		c-1.1,0.4-2.3-0.1-2.7-1.2c-0.4-1.1,0.1-2.3,1.2-2.7c0.5-0.2,56.2-22.5,93.7-27.5c37.6-5,65.7-2.3,66-2.3c0.9,0.1,1.7,0.8,1.8,1.7
		l37.7,184.4c0.3,1.1-0.5,2.3-1.6,2.5C5622.3-6667.6,5622.1-6667.6,5622-6667.5L5622-6667.5z"/>
	<path class="st16" d="M5422.1-6813c-0.9,0-1.8-0.6-2-1.5c-0.3-1.1,0.4-2.3,1.5-2.6c0.1,0,12.2-3.2,38.3-13.4
		c27.6-10.8,83.9-16.6,113.8-14.4c1.2,0.1,2,1.1,1.9,2.3c-0.1,1.1-1.1,2-2.3,1.9c-29.5-2.2-84.8,3.5-111.9,14.1
		c-26.4,10.3-38.3,13.4-38.8,13.6C5422.4-6813,5422.3-6813,5422.1-6813L5422.1-6813z"/>
	<path class="st16" d="M5411.1-6820.7c-0.9,0-1.7-0.6-2-1.5l-18.2-59c-0.3-1.1,0.3-2.3,1.4-2.6c1.1-0.3,2.3,0.3,2.6,1.4l18.2,59
		c0.3,1.1-0.3,2.3-1.4,2.6C5411.5-6820.7,5411.3-6820.7,5411.1-6820.7L5411.1-6820.7z"/>
	<path class="st16" d="M5417.2-6823c-1.1,0-2-0.8-2.1-1.8c-0.4-2.1-9.2-37-15.1-60c-0.3-1.1,0.4-2.3,1.5-2.6s2.3,0.4,2.6,1.5
		c15.3,59.8,15.3,60.5,15.3,60.8C5419.3-6824,5418.4-6823,5417.2-6823z"/>
	<path class="st16" d="M5423.1-6831c-1,0-1.8-0.7-2.1-1.6l-12-55.2c-0.3-1.1,0.5-2.3,1.6-2.5c1.1-0.3,2.3,0.5,2.5,1.6l12,55.2
		c0.3,1.1-0.5,2.3-1.6,2.5C5423.4-6831,5423.3-6831,5423.1-6831L5423.1-6831z"/>
	<path class="st16" d="M5703.2-6650.2c-0.8,0-1.7-0.5-2-1.4c-0.1-0.3-8.7-23.9-19.3-54.8c-9.2-26.8-42.9-159.4-17.2-180.7
		c0.9-0.8,2.2-0.6,2.9,0.3c0.8,0.9,0.6,2.2-0.3,2.9c-21.3,17.7,5.4,137.8,18.5,176.1c10.6,30.9,19.2,54.5,19.3,54.7
		c0.4,1.1-0.2,2.3-1.3,2.7C5703.6-6650.2,5703.4-6650.2,5703.2-6650.2L5703.2-6650.2z"/>
	<path class="st18" d="M5503.2-6896.7c-5.5,16-9.2,43.7-9.2,43.7"/>
	<path class="st16" d="M5493.9-6850.9c0,0-0.2,0-0.3,0c-1.1-0.2-2-1.2-1.8-2.3s3.8-28.2,9.3-44.1c0.4-1.1,1.5-1.7,2.7-1.3
		c1.1,0.4,1.7,1.5,1.3,2.7c-5.4,15.6-9.1,43.1-9.1,43.3C5495.9-6851.6,5495-6850.8,5493.9-6850.9L5493.9-6850.9z"/>
	<path class="st15" d="M5598.2-6974.6c5.7,28.5,14.9,61.1,14.9,61.1s-3,28.1-30.9,34.6c-27.9,6.5-32.3-17.4-33-22.4
		c-0.7-5,1-21.7,0.9-27.2S5598.2-6974.6,5598.2-6974.6L5598.2-6974.6z"/>
	<path class="st16" d="M5573.2-6875.6c-5.6,0-10.4-1.4-14.4-4.2c-8.8-6.1-11.1-16.8-11.7-21.2c-0.4-3.2,0-10.2,0.4-16.9
		c0.3-4.3,0.5-8.3,0.5-10.5c-0.1-5.6,30.5-32.4,48.8-47.9c0.6-0.5,1.3-0.6,2.1-0.4c0.7,0.3,1.2,0.8,1.4,1.5
		c5.6,28,14.8,60.6,14.9,61c0.1,0.3,0.1,0.5,0.1,0.8c0,0.3-3.5,29.7-32.5,36.5C5579.4-6876,5576.2-6875.6,5573.2-6875.6
		L5573.2-6875.6z M5596.8-6970.7c-21.7,18.5-43.7,38.8-44.7,42.5c0.1,2.1-0.2,6.2-0.5,10.6c-0.4,6.3-0.8,13.3-0.4,16.1
		c0.5,3.8,2.5,13.2,9.9,18.3c5.1,3.6,12.1,4.4,20.5,2.3c24.6-5.8,28.8-29,29.3-32.5C5609.9-6917.1,5602.1-6945.1,5596.8-6970.7
		L5596.8-6970.7z"/>
	<path class="st15" d="M5474.2-7042.6c0,0-18,77.5,15.5,104.9s109.2,13.9,126.4-38.3c0,0,17.2,15.8,28.2-3.9
		c11.1-19.8-7.7-37.9-27.6-26.4c0,0-9.9-19.5-49-28.5c-39.1-9-61.1-30.9-61.1-30.9S5501.1-7051.9,5474.2-7042.6L5474.2-7042.6z"/>
	<path class="st16" d="M5534.2-6921.7c-17.9,0-34.4-4.9-45.9-14.4c-34.1-27.9-16.9-103.7-16.2-107c0.2-0.7,0.7-1.3,1.3-1.5
		c25.5-8.8,31.1-21.8,31.1-21.9c0.3-0.6,0.8-1.1,1.5-1.3s1.4,0.1,1.9,0.5c0.2,0.2,22.1,21.6,60.1,30.3c33.1,7.6,45.8,22.5,49.3,27.7
		c9.5-4.7,19.7-3.6,26.3,3c6.9,6.8,7.8,17.5,2.3,27.2c-3.6,6.3-8.1,10-13.5,10.8c-6.4,1-12.4-2.2-15.6-4.4
		c-8.3,22.1-28,39-54.3,46.7C5553.2-6923.1,5543.5-6921.7,5534.2-6921.7L5534.2-6921.7z M5476-7041c-2,9.5-14.9,77.2,15,101.7
		c16.4,13.4,44.1,17.2,70.6,9.5c26.1-7.6,45.2-24.6,52.5-46.7c0.2-0.7,0.8-1.2,1.5-1.4c0.7-0.2,1.4,0,1.9,0.5
		c0.1,0,7.2,6.5,14.5,5.3c4.1-0.7,7.6-3.6,10.5-8.7c5.5-9.8,2.8-17.9-1.6-22.2c-5.7-5.6-14.7-6.2-23.1-1.3c-0.5,0.3-1.1,0.3-1.6,0.2
		c-0.5-0.2-1-0.5-1.3-1c-0.1-0.2-10.1-18.8-47.6-27.4c-33-7.6-53.8-24-60.1-29.5c-2.9,4.6-11.1,14.1-31.1,21.3L5476-7041z"/>
	<path class="st16" d="M5538.6-7015.6c8.1-5.7,19.5-6.4,28.2-1.8c1,0.6,1.4,1.9,0.8,2.9c-0.4,0.7-1,1.1-1.8,1.1
		c-4.6,0.2-8.7,0.1-12.9,0.3c-3.6,0.1-8.9,0.8-12.6,1.2C5538.2-7011.3,5536.8-7014.3,5538.6-7015.6L5538.6-7015.6L5538.6-7015.6z"/>
	<path class="st16" d="M5473-7020.5c10.3-3.6,21.8-2.8,31.6,1.8c2,0.9,1.2,4.1-0.9,4.1c-7.4,0-15.1-1-22.4-1.3l-7.3-0.4h-0.3
		C5471.5-7016.5,5471-7019.8,5473-7020.5L5473-7020.5L5473-7020.5z"/>
	<path class="st16" d="M5502.5-6970.4c-4.5,0-8-2.9-9.1-7.7c-0.6-2.7-0.2-5.3,1.3-7.3c2.6-3.6,7.7-4.9,10.5-5.3
		c-0.1-4-0.7-13.9-3.1-25.5c-0.3-1.1,0.5-2.3,1.6-2.5c1.1-0.3,2.2,0.5,2.5,1.6c3.2,15.4,3.2,27.7,3.2,28.2c0,1.1-0.8,2-1.9,2.1
		c-1.9,0.1-7.4,1.1-9.4,3.9c-0.8,1-1,2.3-0.6,3.9c1,4.5,4.3,4.6,6.1,4.4c3.7-0.5,7.4-3.9,7.2-8.1c-0.1-1.2,0.8-2.1,2-2.2
		c1.2,0,2.1,0.8,2.2,2c0.5,6.7-5.2,11.7-10.8,12.5C5503.6-6970.4,5503-6970.3,5502.5-6970.4L5502.5-6970.4z"/>
	<path class="st16" d="M5556.1-6996c-0.3,4.6-3.1,8.2-6.3,8c-3.2-0.2-5.6-4.1-5.3-8.7c0.1-1.4,0.4-2.7,0.9-3.9l5.3,3.3l-2.2-6.9
		c0.7-0.4,1.5-0.6,2.3-0.5C5554-7004.5,5556.4-7000.6,5556.1-6996L5556.1-6996z"/>
	<path class="st16" d="M5492.8-6999.6c-0.3,4.6-3.1,8.2-6.3,8c-3.2-0.2-5.6-4.1-5.3-8.7c0.1-1.4,0.4-2.7,0.9-3.9l5.3,3.3l-2.2-6.9
		c0.7-0.4,1.5-0.6,2.3-0.5C5490.6-7008.1,5493-7004.2,5492.8-6999.6L5492.8-6999.6z"/>
	<path class="st16" d="M5525.3-6949.1c-4.1,0-8.5-1.8-12.7-5.4c-0.9-0.8-1-2.1-0.3-2.9c0.8-0.9,2.1-1,2.9-0.3
		c4.4,3.7,8.9,5.1,12.5,4c3.1-1,5.6-3.8,6.7-7.8c0.3-1.1,1.5-1.8,2.6-1.4c1.1,0.3,1.8,1.5,1.4,2.6c-1.5,5.4-5,9.3-9.5,10.7
		C5527.8-6949.2,5526.5-6949,5525.3-6949.1L5525.3-6949.1z"/>
	<path class="st16" d="M5634-6988.3c-0.8,0-1.6-0.5-2-1.3c-1.1-2.8-2.7-4.6-4.9-5.5c-4.5-1.7-9.9,0.9-10,1c-1,0.5-2.3,0.1-2.8-0.9
		c-0.5-1-0.1-2.3,0.9-2.8c0.3-0.2,7.1-3.5,13.3-1.1c3.3,1.3,5.8,3.9,7.4,7.9c0.4,1.1-0.1,2.3-1.2,2.7
		C5634.5-6988.3,5634.2-6988.3,5634-6988.3L5634-6988.3z"/>
	<path class="st16" d="M5623.2-6976.1c-0.9,0-1.7-0.5-2-1.4c-0.4-1.1,0.2-2.3,1.3-2.6c1.8-0.6,3.1-2,4-4.1c1.7-4.2,0.8-9.9-0.2-11.7
		c-0.5-1-0.2-2.3,0.9-2.8c1-0.5,2.3-0.2,2.8,0.9c1.5,2.8,2.5,9.8,0.4,15.2c-1.3,3.2-3.5,5.5-6.5,6.5
		C5623.8-6976.1,5623.5-6976,5623.2-6976.1L5623.2-6976.1z"/>
	<path class="st17" d="M5498-5924.4l-11.9,90.6c-0.8,6.4-6.6,10.8-13,10l-167.4-20.7c-7-0.9-11.6-7.7-9.8-14.6l1-3.9
		c0,0,19.3-77.5,103.1-72.4C5400-5935.2,5439.7-5918.7,5498-5924.4L5498-5924.4z"/>
	<path class="st16" d="M5485.1-5839.2c0,0-0.2,0-0.3,0l-185.7-23c-1.1-0.1-2-1.2-1.8-2.3c0.1-1.1,1.2-1.9,2.3-1.8l185.7,23
		c1.1,0.1,2,1.2,1.8,2.3C5487-5840,5486.1-5839.2,5485.1-5839.2L5485.1-5839.2z"/>
	<path class="st16" d="M5440.3-5844.8c0,0-0.3,0-0.4,0c-1.1-0.2-1.9-1.3-1.6-2.5c0.1-0.4,8.8-41.3,54.5-38.1c1.2,0.1,2,1.1,1.9,2.3
		c-0.1,1.2-1.1,2.1-2.2,1.9c-42.1-3.1-50,34.4-50.1,34.8C5442.1-5845.4,5441.2-5844.8,5440.3-5844.8L5440.3-5844.8z"/>
	<path class="st16" d="M5398.9-5906.3c-0.6,0-1.1-0.3-1.5-0.7l-34.4-38.4c-0.8-0.9-0.7-2.2,0.2-3c0.8-0.8,2.2-0.7,3,0.2l34.4,38.4
		c0.8,0.9,0.7,2.2-0.2,3C5399.9-5906.5,5399.4-5906.3,5398.9-5906.3L5398.9-5906.3z"/>
	<path class="st16" d="M5378.9-5901.5c-0.6,0-1.1-0.3-1.5-0.7l-34.4-38.4c-0.8-0.9-0.7-2.2,0.2-3c0.9-0.8,2.2-0.7,3,0.2l34.4,38.4
		c0.8,0.9,0.7,2.2-0.2,3C5379.9-5901.6,5379.5-5901.5,5378.9-5901.5L5378.9-5901.5z"/>
</g>
<g>
	<g id="character_00000121247136012853302480000004674931350209797540_">
		<path class="st15" d="M8435.9-5879.2l9.7,26.6l-50.4-2.8l-49.1-21.6l-15.1-35.5l24.9-268.6l81.9,22.5c0,0-32.2,237.3-27.7,250.5
			C8414.7-5894.9,8435.9-5879.2,8435.9-5879.2L8435.9-5879.2z"/>
		<path class="st16" d="M8395.1-5853.7c-0.3,0-0.5-0.1-0.7-0.2l-49.1-21.6c-0.4-0.2-0.8-0.5-0.9-0.9l-15.1-35.5
			c-0.1-0.2-0.1-0.5-0.1-0.7l24.9-268.6c0.1-0.5,0.3-1,0.8-1.2s1-0.3,1.6-0.2l81.9,22.5c0.8,0.2,1.4,1,1.3,1.8
			c-8.9,65.9-31.4,239.3-27.7,249.8c4.3,12.5,24.8,27.9,25.1,28c0.2,0.2,0.5,0.5,0.6,0.8l9.7,26.6c0.2,0.5,0.1,1.1-0.3,1.5
			c-0.4,0.5-0.9,0.7-1.5,0.7L8395.1-5853.7L8395.1-5853.7z M8443-5854.4l-8.7-23.8c-3.1-2.4-21.5-16.7-25.9-29.3
			c-4.5-13,24.5-228.2,27.4-249.8l-78.2-21.5l-24.6,266.2l14.6,34.5l48,21.2L8443-5854.4L8443-5854.4z"/>
		<path class="st15" d="M8896.1-7117.5c5.3-2.2,11.4-5.9,17-12c4.1-4.4,5.9-9.5,6.5-14.4c1.5-11.5-4-22.3-4.4-23
			c1.9,1.6,61.7,51.1,84.8,70.1c23.7,19.6,89.1,68.2,109.9,83.5c4.2,3.1,6.2,8.3,4.9,13.1c-5.8,21.8-23.9,26.6-34.5,27.4
			c-4.6,0.4-9.2-1.5-12.1-4.9c-14.9-17.2-32.3-30.7-32.3-30.7s-41.4-18.3-43-19.1c-1.6-0.8-21.8-30.5-21.8-30.5l-89-56.3
			C8882.2-7114.2,8888.3-7114.2,8896.1-7117.5z"/>
		<path class="st16" d="M9078.4-6971.1c-4.4-0.2-8.5-2.2-11.4-5.6c-13.8-15.9-30-28.9-31.9-30.3c-5.2-2.3-41.3-18.2-42.8-19
			c-0.5-0.3-2-1-22.3-30.8l-88.7-56.1c-0.7-0.4-1-1.2-0.7-1.9c0.2-0.7,0.9-1.2,1.7-1.2c0,0,5.8-0.1,13.2-3.2
			c6.2-2.6,11.7-6.5,16.4-11.6c3.4-3.7,5.5-8.2,6.1-13.5c1.4-11.1-4-21.7-4.2-22.1c-0.4-0.7-0.1-1.6,0.6-2.1
			c0.7-0.5,1.6-0.4,2.3,0.1c1.8,1.5,61.1,50.6,84.8,70.1c25,20.6,95.9,73.2,109.8,83.5c4.8,3.6,7,9.4,5.6,14.8
			c-6.2,22.9-25.3,27.8-36.1,28.7C9079.8-6971,9079.1-6971,9078.4-6971.1L9078.4-6971.1z M8919.7-7161.1c1.4,4.5,2.8,10.8,1.9,17.4
			c-0.7,5.9-3.1,11-6.9,15.2c-5,5.5-11,9.7-17.7,12.5c-3.8,1.6-7.1,2.5-9.7,2.9l85.1,53.7c0.2,0.1,0.4,0.3,0.5,0.5
			c7.4,10.8,19.8,28.6,21.2,29.9c1.2,0.6,26.3,11.7,42.8,19c0.1,0,0.3,0.1,0.4,0.2c0.2,0.1,17.7,13.9,32.5,31
			c2.6,3,6.5,4.6,10.5,4.3c9.9-0.8,27.3-5.3,32.9-26.2c1.1-4.2-0.6-8.6-4.3-11.4c-14-10.3-84.9-62.9-110-83.6
			C8979.2-7111.8,8935.1-7148.3,8919.7-7161.1L8919.7-7161.1z"/>
		<path class="st16" d="M8886.4-7153.7c14.5-18.5,28.9-13.3,28.9-13.3l0,0c0.4,0.8,5.9,11.5,4.4,23l-17.3-11c0,0-18.3,21.4-6.3,37.4
			c-7.9,3.3-13.9,3.3-13.9,3.3S8871.9-7135.2,8886.4-7153.7z"/>
		<path class="st16" d="M8882.1-7112.4c-0.7,0-1.3-0.4-1.6-1c-0.5-0.9-10.6-22.1,4.4-41.2c15.1-19.3,30.3-14.1,31-13.9
			c0.3,0.1,0.5,0.3,0.7,0.5c0.1,0.1,0.2,0.2,0.3,0.4c0.6,1.2,6.1,12.1,4.6,24c-0.1,0.6-0.5,1.1-1.1,1.3c-0.6,0.2-1.3,0.2-1.8-0.2
			l-15.8-10.1c-3.5,4.7-14.7,21.5-5.2,34.1c0.3,0.4,0.4,0.9,0.3,1.4c-0.1,0.5-0.5,0.9-1,1.1c-8.1,3.4-14.4,3.5-14.7,3.5
			C8882.2-7112.5,8882.1-7112.5,8882.1-7112.4L8882.1-7112.4z M8893.4-7118.3c-10.2-16.5,6.8-36.8,7.6-37.7c0.6-0.7,1.7-0.9,2.5-0.3
			l14.6,9.3c0.3-8.6-3.1-16.4-4.1-18.6c-2.9-0.7-14.2-2.1-26.1,13c-11.9,15.1-6.2,32.3-4.5,36.7
			C8885.2-7116.1,8888.9-7116.7,8893.4-7118.3L8893.4-7118.3z"/>
		<path class="st15" d="M8891.7-6972.4l57.2,32.8l42.8-52.4c28.5-1.7,44.4-16.4,44.4-16.4c-8.7-12.7-64.8-49.5-64.8-49.5
			c4.7-33.1-4.8-36.6-11.9-31.7c-7.1,4.9-11.7,47.9-17.9,57.1C8935.2-7023.3,8891.7-6972.4,8891.7-6972.4L8891.7-6972.4z"/>
		<path class="st16" d="M8948.8-6937.9c-0.3,0-0.6-0.1-0.9-0.3l-57.2-32.8c-0.5-0.3-0.8-0.7-0.9-1.2c-0.1-0.5,0.1-0.9,0.4-1.3
			c0.4-0.5,43.5-50.9,49.6-59.9c2.7-3.9,5.2-15.3,7.7-26.3c3.9-17.6,6.6-28.5,10.7-31.3c3.3-2.3,6.9-2.8,9.7-1.2
			c6.1,3.3,7.8,14.6,5.2,33.5c7.5,5,56.2,37.3,64.4,49.5c0.4,0.7,0.3,1.5-0.3,2.1c-0.7,0.6-16.4,14.8-44.7,16.8l-42.3,51.8
			C8949.9-6938.1,8949.3-6937.9,8948.8-6937.9L8948.8-6937.9z M9033.6-7008.7c-10.7-13.3-62.9-47.5-63.4-47.9
			c-0.6-0.4-0.8-1-0.8-1.6c3.6-25.3-1.7-30.2-3.3-31.2c-2-1.1-4.4,0.2-5.6,1c-3.3,2.3-6.7,17.3-9.3,29.3
			c-2.6,11.8-5.1,22.9-8.1,27.4c-5.7,8.4-41.3,50.1-48.6,58.7l54,31l41.8-51.2c0.3-0.4,0.8-0.6,1.3-0.7
			C9014.8-6995.1,9029.6-7005.5,9033.6-7008.7L9033.6-7008.7z"/>
		<path class="st16" d="M8589.7-6964.8l-195.4,41c0,0-95.6-23.4-97.3-38.3s56.7-136.1,73.2-150.2c16.5-14.1,79.2-11.8,141.8,7.9
			c62.6,19.8,122.3,43.6,129.2,60.8C8648.1-7026.3,8589.7-6964.8,8589.7-6964.8L8589.7-6964.8z"/>
		<path class="st16" d="M8394.2-6922.1c-0.1,0-0.3,0-0.4,0c-0.3,0-24.2-5.9-48.1-13.6c-49.3-15.8-50.3-23.6-50.6-26.2
			c-1.9-15.7,57.4-137.6,73.7-151.6c17.8-15.2,82.2-11.8,143.7,7.6c45.2,14.2,122.1,41.2,130.4,61.8c7.1,17.7-45.8,74.1-51.9,80.5
			c-0.2,0.3-0.6,0.4-0.9,0.5l-195.4,41C8394.6-6922,8394.2-6922,8394.2-6922.1L8394.2-6922.1z M8588.8-6966.3
			c16.3-17.3,56.1-63.5,50.8-76.7c-5.6-14.1-52.3-35.8-128.1-59.8c-65.4-20.6-125.2-20.9-140-8.3c-15.3,13.1-74.4,134.2-72.6,148.8
			c1.2,10,59,27.8,95.5,36.7L8588.8-6966.3L8588.8-6966.3z"/>
		<path class="st15" d="M8530.1-7031.8c16.9,15.3,42.8,24.2,58,42.9c15.1,18.7,32.4,66.2,25.2,98.1c-7.2,31.8,2.7,57.6,2.7,57.6
			s-256.6,32.7-255.2-3.9c1.5-36.6,14.6-48.2,13.4-76.5c-1.1-28.3,2.5-54.9,7.1-79.4C8434.1-7049.5,8530.1-7031.8,8530.1-7031.8z"/>
		<path class="st16" d="M8409.5-6818.8c-22.2-1.2-39.3-4.3-46.5-10.3c-2.8-2.4-4.2-5.1-4-8.1c0.8-18.4,4.5-30.7,7.7-41.6
			c3.4-11.2,6.3-20.8,5.7-34.8c-1.2-30.5,3.2-58.6,7.2-79.7c0.1-0.3,0.2-0.6,0.4-0.8c52.8-56.6,149.5-39.5,150.4-39.3
			c0.4,0.1,0.7,0.2,0.9,0.5c7,6.3,15.4,11.5,24.4,16.9c12.2,7.4,24.8,15.1,33.7,26.2c15.3,18.9,32.9,67,25.6,99.4
			c-7,30.9,2.5,56.5,2.6,56.7c0.2,0.5,0.1,1-0.2,1.4s-0.7,0.7-1.3,0.8C8609.3-6830.7,8482.3-6814.7,8409.5-6818.8L8409.5-6818.8z
			 M8613.6-6834.7c-2.1-6.6-8.2-29.3-2.1-56.6c7.1-31.5-10.1-78.3-24.9-96.7c-8.5-10.6-20.9-18.1-32.8-25.3
			c-8.5-5.2-17.4-10.6-24.5-17c-7.7-1.3-96.7-14.6-146.1,38c-3.9,20.9-8.2,48.6-7,78.6c0.6,14.5-2.5,24.8-5.8,35.8
			c-3.2,10.7-6.9,22.8-7.6,40.9c-0.1,2.1,0.9,3.8,2.8,5.5C8393.3-6808.4,8590.8-6831.8,8613.6-6834.7L8613.6-6834.7z"/>
		<path class="st16" d="M8244.3-6619.3c6.1-11.2,11.9-22.4,17.1-33.2c-0.6,0.6-6.4,5.8-16,13.2l7.9-140.9
			c14.9-8.5,30.9-18.4,47.9-30.1c17.3-12,35.4-21,53.4-27.8c64.5-24.4,127.2-19.6,146.6-17.5c68.8,6.5,121.4,19.5,165.8,19.8
			c27.6,0.2,52.1-4.7,75.4-19.1c42.1-26.1,94.5-80.7,122.8-111.6c12.4-13.7,20.2-22.8,20.2-22.8l106,74.4c0,0-6.4,8.9-17.8,23
			c-32.1,40-103.6,121.7-179.6,160.4c-102.8,52.3-154.7,56.8-154.7,56.8s-71.8,267.5-113.5,511.7c-2.5,14.6-4.9,29.1-7.1,43.5
			c0,0-134.6-8.9-296.6-101.6L8244.3-6619.3z"/>
		<path class="st16" d="M8260-6653.7c0.6-0.6,1.6-0.6,2.3-0.2c0.7,0.4,1,1.3,0.7,2.1c-5.8,12-12.1,24.3-19,36.7l0.5-8.4
			c4-7.4,7.8-14.7,11.4-22c-2.8,2.4-6.4,5.3-10.7,8.5l0.3-4.8C8253.9-6648.2,8259.1-6652.9,8260-6653.7z"/>
		<path class="st16" d="M8222.1-6223.4c150.9,86.3,278.8,100.5,294.9,102c2.5-15.9,4.7-29.3,6.9-42
			c41.3-241.5,112.8-509.2,113.5-511.9c0.2-0.7,0.8-1.2,1.6-1.3c0.5,0,52.8-5.1,154-56.6c74.4-37.9,144.1-116.4,179-159.9
			c8.7-10.8,14.5-18.6,16.7-21.6l-103.2-72.4c-2.6,3-9.5,10.9-19.1,21.5c-27.8,30.6-80.9,85.7-123.1,111.9
			c-21.6,13.4-45.9,19.6-76.5,19.4c-25.1-0.2-52.5-4.3-84.3-9.1c-24.2-3.7-51.5-7.8-81.7-10.7c-23.2-2.5-84-6-145.7,17.4
			c-19.1,7.2-36.9,16.5-52.9,27.6c-17.4,12-33.8,22.1-49.1,30.8l0.2-4.1c14.6-8.3,30.2-18,46.7-29.4c16.3-11.3,34.4-20.7,53.8-28.1
			c62.5-23.6,124-20.2,147.5-17.6c30.2,2.9,57.6,7,81.9,10.7c31.6,4.8,58.9,9,83.7,9.1c30.1,0.2,53.1-5.6,74.4-18.8
			c41.9-26,94.7-80.9,122.4-111.3c12.3-13.5,20.1-22.7,20.1-22.7c0.6-0.7,1.7-0.8,2.5-0.3l106,74.4c0.8,0.6,0.9,1.5,0.4,2.3
			c0,0.1-6.6,9.1-17.8,23.1c-35.1,43.7-105.1,122.6-180.1,160.8c-93.2,47.4-145.4,55.8-154.1,56.9c-5.1,19.1-73.3,277-113.1,510.5
			c-2.2,13-4.5,26.9-7.1,43.5c-0.2,0.8-1,1.5-1.9,1.4l0,0c-0.6,0-61.4-4.3-148.9-34.4c-40.9-14.1-92-35.4-147.7-67.2L8222.1-6223.4z
			"/>
		<path class="st17" d="M8501.1-6855.7c68.8,6.5,121.4,19.5,165.8,19.8c-11.4,27.7-54.4,105.6-172,92.7
			c-105.4-11.6-133-66.9-140.3-95C8419-6862.6,8481.7-6857.8,8501.1-6855.7z"/>
		<path class="st16" d="M8507.6-6740.5c-4.2-0.2-8.6-0.6-13-1.1c-104.7-11.5-133.9-65.3-141.9-96.3c-0.2-0.8,0.2-1.6,1.1-1.9
			c62.5-23.6,124-20.2,147.5-17.6c30.2,2.9,57.6,7,81.9,10.7c31.6,4.8,58.9,9,83.7,9.1c0.6,0,1.2,0.3,1.5,0.7s0.4,1,0.2,1.6
			C8658.5-6810.9,8617.9-6734.3,8507.6-6740.5L8507.6-6740.5z M8582.6-6843.3c-24.2-3.7-51.5-7.8-81.7-10.7
			c-23.1-2.5-83.1-5.9-144.3,16.8c8.3,30.3,37.5,81.2,138.4,92.3c114.1,12.5,157.4-62.4,169.2-89.3
			C8639.8-6834.6,8613.2-6838.7,8582.6-6843.3z"/>
		<path class="st19" d="M8885.2-6989.4l106,74.4c0,0-6.4,8.9-17.8,23c-19.9-16.8-65.1-54.3-108.4-74.6
			C8877.5-6980.3,8885.2-6989.4,8885.2-6989.4z"/>
		<path class="st17" d="M8973.4-6890.3c-0.4,0-0.8-0.2-1.2-0.4c-15.6-13.2-63.3-53.3-108-74.4c-0.5-0.2-0.8-0.7-1-1.2s0-1,0.4-1.4
			c12.3-13.5,20.1-22.7,20.1-22.7c0.6-0.7,1.7-0.8,2.5-0.3l106,74.4c0.8,0.6,0.9,1.5,0.4,2.3c0,0.1-6.6,9.1-17.8,23.1
			c-0.3,0.4-0.8,0.6-1.3,0.7C8973.5-6890.3,8973.4-6890.3,8973.4-6890.3L8973.4-6890.3z M8885.6-6987.1c-2.4,2.8-8.8,10.1-17.6,19.9
			c43.2,20.8,88.4,58.5,105.3,72.6c8.1-10.1,13.5-17.3,15.6-20.2L8885.6-6987.1z"/>
		<path class="st15" d="M8270.8-6663.4c-0.2,0-0.4-0.1-0.6-0.1c-0.9-0.4-1.4-1.4-1-2.2c0.2-0.5,20.4-46.3,34.9-75.9
			c0.4-0.8,1.5-1.2,2.4-0.8c0.9,0.4,1.3,1.4,0.9,2.2c-14.5,29.6-34.7,75.3-34.9,75.8C8272.2-6663.8,8271.5-6663.4,8270.8-6663.4
			L8270.8-6663.4z"/>
		<path class="st15" d="M8639.2-6673.2c-0.1,0-0.3,0-0.4-0.1c-1-0.3-1.5-1.2-1.2-2.1c21.3-65.9,27-96.8,27-97.1
			c0.2-0.9,1-1.5,2.1-1.4c1,0.2,1.7,1,1.5,1.9c-0.1,0.3-5.7,31.3-27.1,97.5C8640.8-6673.6,8640-6673.1,8639.2-6673.2L8639.2-6673.2z
			"/>
		<path class="st19" d="M8225-6275.1c23,15.2,47.9,30,74.4,43c81.1,39.8,171.1,59.7,226.3,69c-2.5,14.6-4.9,29.1-7.1,43.5
			c0,0-134.6-8.9-296.6-101.6L8225-6275.1z"/>
		<path class="st17" d="M8222.1-6223.4c150.9,86.4,278.9,100.5,294.9,102c2.4-15.3,4.5-28.2,6.6-40.4l0,0
			c-59.6-10.1-146.4-30.2-225.1-68.8c-26.3-12.9-50.9-27.4-73.7-42.5l0.2-4c23.2,15.4,48.3,30.3,75.2,43.5
			c79,38.8,166.4,58.8,225.8,68.8c1,0.2,1.7,1,1.5,1.9c-2.2,13-4.5,26.9-7.1,43.5c-0.2,0.8-1,1.5-1.9,1.4l0,0
			c-1.8-0.1-136-10.3-296.6-101.6L8222.1-6223.4z"/>
		<path class="st17" d="M8530.2-7031.8l-18.7,1.2c-42.1,2.7-83,13.8-119.9,32.5l-10.1,5.1c0,0-23.2-22.9-19.8-30.6
			s26.3-30.7,75.3-42.2c49-11.4,90.9-8.8,96.4-1.4C8538.9-7059.8,8530.1-7031.8,8530.2-7031.8L8530.2-7031.8z"/>
		<path class="st16" d="M8381.4-6991.3c-0.5,0-0.9-0.2-1.3-0.5c-4-3.9-23.8-24.1-20.1-32.4c4-9.2,28.1-31.8,76.5-43.1
			c47.4-11.1,91.8-9.5,98.4-0.7c5.8,7.8-2,33.9-2.9,36.8c-0.2,0.7-0.8,1.1-1.6,1.2l-18.7,1.2c-41.6,2.7-82.8,13.8-119.2,32.3
			l-10.1,5.1C8382-6991.4,8381.7-6991.3,8381.4-6991.3L8381.4-6991.3z M8528.7-7033.4c2.5-8.3,7-27.6,3.1-32.9
			c-4.4-6-43.7-9.7-94.4,2.1c-46.6,10.9-70.4,32.8-74,41.2c-2,4.5,9.3,18.7,18.5,27.9l8.8-4.5c36.8-18.7,78.5-30,120.7-32.7
			L8528.7-7033.4L8528.7-7033.4z"/>
		<path class="st15" d="M8476.1-6905.4l46.9,29.3l4.8,37.1c0.7,4.1-1.3,8.1-5,10.3c-11.2,6.6-24.4,6.7-32.8,5.8
			c-5.1-0.6-9.2-4.3-9.8-9C8478.8-6842.3,8475.9-6877.3,8476.1-6905.4L8476.1-6905.4z"/>
		<path class="st16" d="M8489.8-6821.2c-6-0.7-10.7-5-11.4-10.5c-1.3-9.7-4.3-44.7-4.1-73.6c0-0.6,0.4-1.2,1-1.5s1.3-0.2,1.9,0.1
			l46.9,29.3c0.5,0.3,0.7,0.7,0.8,1.2l4.8,37.1c0.8,4.7-1.5,9.4-5.8,12c-9.9,5.9-21.2,6.9-30,6.4
			C8492.4-6821,8491-6821.1,8489.8-6821.2z M8521.2-6875.2l-43.4-27c0,28.1,2.8,60.7,4.1,70.1c0.5,4,3.9,7.1,8.2,7.5
			c8.6,1,21,0.8,31.6-5.5c3.2-1.9,4.8-5.2,4.2-8.7L8521.2-6875.2L8521.2-6875.2z"/>
		<path class="st15" d="M8496.6-7016.1c0,0-7.4,37.6-39.3,56.2c-31.9,18.6-38.3,41.7-38.3,41.7c4.3,17.8,45,62.2,94.3,45.3
			c49.3-16.9,38.1-71,38.1-71c13.8-4.4,21.3-32.3,6.4-41.1c-14.9-8.8-22.5,5.8-22.5,5.8C8513.2-6990.4,8496.6-7016.1,8496.6-7016.1z
			"/>
		<path class="st16" d="M8487.2-6867.6c-10.1-0.6-20.1-3.3-29.8-8.2c-21.1-10.7-37.3-30.2-40.2-42.1c0-0.2,0-0.5,0-0.8
			c0.3-1,6.9-24,39.1-42.7c30.9-18,38.4-54.7,38.5-55c0.1-0.7,0.7-1.2,1.5-1.3c0.7-0.1,1.5,0.2,1.9,0.8c0.2,0.2,15.8,24.2,36.5,35.4
			c1.5-2.2,4.9-6.1,10.2-7.5c4.4-1.1,9.1-0.3,14,2.6c6.8,4,10,11.7,8.8,21.3c-1.2,10.3-6.9,19.1-14.2,22.3
			c1.3,8.7,6.3,55.9-39.5,71.6C8505.2-6868.4,8496.2-6867.1,8487.2-6867.6L8487.2-6867.6z M8549.4-6986.2c-1.2-0.1-2.3,0-3.4,0.3
			c-5.8,1.5-8.9,7.2-8.9,7.3c-0.2,0.4-0.6,0.7-1.1,0.9c-0.4,0.1-1,0.1-1.4-0.1c-17.8-8.9-31.7-26.5-37.1-34
			c-2.9,10.3-12.8,37.9-39.1,53.3c-28.7,16.7-36.4,37.3-37.3,40.3c2.6,9.9,17.1,28.7,38.2,39.4c12.2,6.2,31.3,11.9,53.5,4.3
			c19.8-6.8,32.1-20.4,36.4-40.5c3.3-15.1,0.6-28.5,0.6-28.6c-0.2-0.8,0.3-1.6,1.2-1.9c6.5-2.1,12-10.5,13.2-20
			c1-8.3-1.6-14.8-7.1-18.1C8554.3-6985.2,8551.7-6986,8549.4-6986.2L8549.4-6986.2z"/>
		<path class="st16" d="M8469.9-6951.4L8469.9-6951.4c1.7,0.8,0.9,3.4-1.1,3.1c-2.3-0.3-4.9-0.3-7.2-0.1c-7.2,0.5-12,5.1-15.8,10.4
			c-0.4,0.5-1.1,0.8-1.9,0.6c-1-0.2-1.6-1.1-1.4-2c0.6-2.6,1.5-5.1,3.2-7.3C8450.8-6953.7,8462-6955.7,8469.9-6951.4L8469.9-6951.4z
			"/>
		<path class="st16" d="M8516.9-6978.6L8516.9-6978.6c1.5,0.9,0.4,3.2-1.3,2.9l-0.7-0.1c-4.7-0.7-9.9,1.5-13.7,4
			c-4.4,2.9-7.5,7-10.5,11.3c-0.4,0.6-1.2,0.8-1.9,0.7c-1-0.2-1.6-1.2-1.4-2.1C8489.5-6973.4,8504.3-6985.1,8516.9-6978.6
			L8516.9-6978.6z"/>
		<path class="st16" d="M8507.4-6922.2c-4.1-0.2-8.3-2.1-10.3-6c-0.4-0.8,0-1.9,0.9-2.2c0.9-0.4,2,0,2.5,0.8
			c2.1,3.9,7.4,4.9,11.1,3.6c1.6-0.5,5-2.3,3.5-6.9c-0.5-1.5-1.4-2.6-2.8-3.2c-3.4-1.4-9,0.3-10.8,1.2c-0.9,0.4-1.9,0.1-2.4-0.7
			c-0.3-0.4-6.6-10.7-11.7-25.1c-0.3-0.9,0.2-1.8,1.2-2.1c1-0.3,2,0.2,2.3,1.1c4,11.2,8.8,19.9,10.6,23.1c2.7-0.9,8.1-2.3,12.3-0.6
			c2.4,1,4,2.8,4.8,5.3c1.6,4.9-0.6,9.3-5.6,11C8511.2-6922.3,8509.3-6922.1,8507.4-6922.2L8507.4-6922.2z"/>
		<path class="st16" d="M8461.9-6929.1c-2.1-3.9-1.5-8.2,1.4-9.5c0.7-0.3,1.5-0.4,2.3-0.4l0.8,6.9l3.7-4.8c0.9,0.8,1.8,1.8,2.4,3
			c2.2,3.9,1.5,8.2-1.4,9.5C8468.3-6923.1,8464.1-6925.1,8461.9-6929.1L8461.9-6929.1z"/>
		<path class="st16" d="M8507-6955.6c-1.8-4.1-0.8-8.2,2.3-9.4c0.8-0.3,1.5-0.4,2.4-0.2l0.1,6.9l4.1-4.5c0.9,0.9,1.7,2,2.2,3.2
			c1.8,4.1,0.7,8.3-2.3,9.4C8512.8-6949.1,8508.8-6951.5,8507-6955.6L8507-6955.6z"/>
		<path class="st16" d="M8493.6-6895.8c-7.1-0.4-13.1-7.9-13.3-8.2c-0.6-0.7-0.4-1.8,0.4-2.3c0.8-0.6,2-0.4,2.5,0.4
			c1.4,1.8,6.1,6.6,10.6,6.8l0.1,0c2,0.1,3.8-0.7,5.4-2.5c0.7-0.7,1.8-0.8,2.6-0.2c0.8,0.6,0.9,1.7,0.2,2.4
			c-2.4,2.5-5.2,3.8-8.4,3.6C8493.7-6895.8,8493.6-6895.8,8493.6-6895.8L8493.6-6895.8z"/>
		<path class="st15" d="M8337.5-7059c4.2,9.7,13,19.7,31.5,35.7c18.4,16,28.3,25.7,28.3,25.7l5.6-3.9c-5.5-11.3-64.7-51.9-60.1-67.5
			C8335.4-7071.2,8337.5-7059,8337.5-7059z"/>
		<path class="st16" d="M8397.1-6995.9c-0.4,0-0.9-0.2-1.2-0.5c-0.1-0.1-10.1-9.8-28.2-25.6c-18.6-16.1-27.5-26.3-31.9-36.3
			c-0.1-0.1-0.1-0.2-0.1-0.4c-0.2-1.4-1.2-8.4,2.3-11.2c1-0.8,2.7-1.5,5.4-0.8c0.9,0.3,1.5,1.2,1.2,2.1c-2.6,9,20.7,29.5,37.8,44.5
			c11.2,9.8,19.9,17.5,22.1,21.9c0.4,0.7,0.1,1.6-0.6,2l-5.6,3.9C8398-6996,8397.6-6995.9,8397.1-6995.9L8397.1-6995.9z
			 M8400.4-7001.9c-2.9-4.2-11.5-11.8-20.6-19.7c-18.6-16.3-39.5-34.6-39.2-45.8c-0.2,0.1-0.3,0.1-0.3,0.2c-1.4,1.1-1.5,5.3-1.1,7.9
			c4.2,9.5,12.9,19.3,30.9,34.9c14.7,12.8,24.1,21.6,27.2,24.6L8400.4-7001.9L8400.4-7001.9z"/>
		<path class="st19" d="M8400.2-7009.2c0,0,10.4,9.6,13.9,15c3.5,5.4-3.1,14.9-8.3,10c-5.2-4.9-12.4-12.9-14.1-15.4
			C8390-7002,8393.5-7003.3,8400.2-7009.2L8400.2-7009.2z"/>
		<path class="st16" d="M8408.7-6981.1c-1.5-0.1-2.9-0.7-4.1-1.9c-5.3-5-12.5-13-14.4-15.6c-2.2-3.1,0.5-5.2,4.2-8.1
			c1.3-1,2.8-2.2,4.6-3.7c0.7-0.6,1.8-0.6,2.5,0c0.4,0.4,10.6,9.8,14.2,15.4c2.7,4.1,0.6,10.1-2.9,12.6
			C8411.5-6981.4,8410.1-6981,8408.7-6981.1L8408.7-6981.1z M8400.2-7006.8c-1.3,1-2.4,1.9-3.4,2.7c-3.4,2.6-3.9,3.2-3.6,3.7
			c1.7,2.4,8.8,10.3,13.9,15.1c0.7,0.6,1.8,1.4,3.4,0.3c2.3-1.6,3.7-5.6,2-8.2C8410-6997.4,8403-7004.1,8400.2-7006.8L8400.2-7006.8
			z"/>
		<path class="st15" d="M9045.8-7058.1c-17.3,14-26.1,33.2-16.3,36.4c9.8,3.2,37.1-20.5,32.2-34.9c-4.9-14.5-23.4-9.4-23.4-9.4
			L9045.8-7058.1z"/>
		<path class="st16" d="M9031-7019.8c-0.7,0-1.5-0.2-2.1-0.4c-2.8-0.9-4.5-2.8-5.1-5.6c-1.7-7.9,6.6-21.7,19.4-32.5l-6.4-6.8
			c-0.5-0.4-0.6-1-0.4-1.6c0.2-0.6,0.6-1,1.2-1.1c7-1.9,21.4-2.1,25.7,10.6c3.1,9.1-5.2,20.7-13.2,27.8
			C9044.5-7024.3,9036.8-7019.4,9031-7019.8L9031-7019.8z M9046.8-7065.3c-1.9-0.1-3.7,0-5.1,0.2l5.5,5.8c0.7,0.7,0.6,1.8-0.1,2.4
			c-13.8,11.1-20.9,24.5-19.6,30.5c0.3,1.6,1.2,2.5,2.7,3c3.4,1.1,10.8-2.4,17.6-8.4c7.9-7,14.7-17.3,12.3-24.4
			C9057.6-7063.1,9051.8-7065,9046.8-7065.3L9046.8-7065.3z"/>
		<path class="st15" d="M9034.5-7069.2c-17.3,14-26.1,33.2-16.3,36.4c9.8,3.2,37.1-20.5,32.2-34.9s-23.4-9.4-23.4-9.4L9034.5-7069.2
			z"/>
		<path class="st16" d="M9017.5-7031.3c-2.7-0.9-4.5-2.8-5.1-5.6c-1.7-7.9,6.6-21.7,19.4-32.5l-6.4-6.8c-0.5-0.4-0.6-1-0.4-1.6
			c0.2-0.6,0.6-1,1.2-1.1c7-1.9,21.4-2.1,25.7,10.6c3.1,9.1-5.2,20.7-13.2,27.8c-5.7,5-13.4,9.9-19.2,9.6
			C9018.9-7030.9,9018.2-7031.1,9017.5-7031.3z M9035.4-7076.4c-1.9-0.1-3.7,0-5.1,0.2l5.5,5.8c0.7,0.7,0.6,1.8-0.1,2.4
			c-13.8,11.1-20.9,24.5-19.6,30.5c0.3,1.6,1.2,2.5,2.7,3c3.4,1.1,10.8-2.4,17.6-8.4c7.9-7,14.7-17.3,12.3-24.4
			C9046.3-7074.2,9040.4-7076.1,9035.4-7076.4L9035.4-7076.4z"/>
		<path class="st15" d="M9022.1-7080.4c-17.3,14-26.1,33.2-16.3,36.4c9.8,3.2,37.1-20.5,32.2-34.9c-4.9-14.5-23.4-9.4-23.4-9.4
			L9022.1-7080.4z"/>
		<path class="st16" d="M9005.2-7042.4c-2.7-0.9-4.5-2.8-5.1-5.6c-1.7-7.9,6.6-21.7,19.4-32.5l-6.4-6.8c-0.5-0.4-0.6-1-0.4-1.6
			c0.2-0.6,0.6-1,1.2-1.1c7-1.9,21.4-2.1,25.7,10.6c3.1,9.1-5.2,20.7-13.2,27.8c-5.7,5-13.4,9.9-19.2,9.6
			C9006.6-7042.1,9005.8-7042.2,9005.2-7042.4z M9023-7087.6c-1.9-0.1-3.7,0-5.1,0.2l5.5,5.8c0.7,0.7,0.6,1.8-0.1,2.4
			c-13.8,11.1-20.9,24.5-19.6,30.5c0.3,1.6,1.2,2.5,2.7,3c3.4,1.1,10.8-2.4,17.6-8.4c7.9-7,14.7-17.3,12.3-24.4
			C9033.9-7085.4,9028.1-7087.3,9023-7087.6L9023-7087.6z"/>
		<path class="st15" d="M9007.6-7088.8c-17.3,14-26.1,33.2-16.3,36.4c9.8,3.2,37.1-20.5,32.2-34.9c-4.9-14.5-23.4-9.4-23.4-9.4
			L9007.6-7088.8z"/>
		<path class="st16" d="M8992.8-7050.5c-0.7,0-1.5-0.2-2.1-0.4c-2.7-0.9-4.5-2.8-5.1-5.6c-1.7-7.9,6.6-21.7,19.4-32.5l-6.3-6.8
			c-0.5-0.4-0.6-1-0.4-1.6c0.2-0.6,0.6-1,1.2-1.1c7-1.9,21.4-2.1,25.7,10.6c3.1,9.1-5.2,20.7-13.2,27.8
			C9006.3-7055,8998.6-7050.1,8992.8-7050.5L8992.8-7050.5z M9008.5-7096c-1.9-0.1-3.7,0-5.1,0.2l5.5,5.9c0.7,0.7,0.6,1.8-0.1,2.4
			c-13.8,11.1-20.9,24.5-19.6,30.5c0.3,1.6,1.2,2.5,2.7,3c3.4,1.1,10.8-2.4,17.6-8.4c7.9-7,14.7-17.2,12.3-24.4
			C9019.4-7093.8,9013.6-7095.7,9008.5-7096L9008.5-7096z"/>
		<path class="st19" d="M8902.4-7154.9l17.3,11c-0.6,4.9-2.5,9.9-6.5,14.4c-5.6,6.2-11.7,9.8-17,12
			C8884.1-7133.5,8902.4-7154.9,8902.4-7154.9z"/>
		<path class="st16" d="M8896-7115.9c-0.5,0-1.1-0.3-1.4-0.7c-12.6-16.8,5.6-38.5,6.4-39.4c0.6-0.7,1.7-0.9,2.5-0.3l17.3,11
			c0.6,0.4,0.9,1,0.8,1.6c-0.7,5.9-3.1,11-6.9,15.2c-5,5.5-11,9.7-17.7,12.5C8896.6-7115.9,8896.3-7115.8,8896-7115.9L8896-7115.9z
			 M8902.9-7152.6c-3.4,4.6-14,20.5-6.1,32.9c5.6-2.6,10.7-6.3,15-11c3.2-3.5,5.2-7.7,6-12.5L8902.9-7152.6z"/>
		<path class="st16" d="M8918.7-7142.5l-0.1-0.1c-0.8-0.6-0.9-1.6-0.3-2.3c0.6-0.7,1.8-0.8,2.6-0.3c0.8,0.5,0.9,1.6,0.3,2.3
			c-0.4,0.5-1,0.7-1.5,0.7C8919.3-7142.2,8919-7142.3,8918.7-7142.5z"/>
		<path class="st19" d="M8487.8-5806.3c-66.4-6.8-163.4-37.1-169.3-54.2c-8.3-24,12.6-52,12.6-52s52.4,37,70.7,37.9
			c18.3,0.9,18-18.3,39-9.6c11.1,4.6,39.8,17,64.2,31.5C8529.5-5838.1,8516.6-5803.4,8487.8-5806.3L8487.8-5806.3z"/>
		<path class="st17" d="M8489.3-5804.5c-0.5,0-1.1-0.1-1.6-0.1l0,0c-63.5-6.5-164.4-36.7-170.9-55.4c-8.5-24.5,12-52.3,12.8-53.5
			c0.3-0.4,0.7-0.6,1.2-0.7c0.5,0,1,0.1,1.4,0.3c0.5,0.4,52,36.5,69.6,37.5l0.1,0c7.2,0.4,11.2-2.7,15.4-5.9
			c5.6-4.3,11.4-8.8,24.4-3.5c11.2,4.6,39.8,17,64.5,31.7c13.5,8.1,15.8,21.8,12,31.8C8513.7-5810.6,8502.5-5803.7,8489.3-5804.5
			L8489.3-5804.5z M8487.8-5806.3L8487.8-5806.3L8487.8-5806.3z M8431.9-5884.8c-5.3-0.3-8.5,2.2-12.3,5.1
			c-4.3,3.3-9.2,7.1-17.9,6.7l-0.1,0c-17.1-1-60.9-30.8-70-37.1c-4,6-18.2,29.2-11.3,49.1c5.6,16,101.2,46.3,167.8,53l0,0
			c14.9,1.5,23.5-7.4,26.6-15.4c3.1-8.1,2.2-20.3-10.5-27.9c-24.4-14.5-52.9-26.8-64-31.4C8436.9-5884,8434.2-5884.6,8431.9-5884.8
			L8431.9-5884.8z"/>
	</g>
</g>
<g>
	<g>
		<rect x="6029.6" y="-6323.6" class="st20" width="107.2" height="672.9"/>
		<rect x="7865.9" y="-6323.6" class="st20" width="107.2" height="672.9"/>
	</g>
	<g>
		<path class="st21" d="M8248.3-6072.1h-2494c-38.1,0-69.2-31.1-69.2-69.2v-623.5c0-38.1,31.1-69.2,69.2-69.2h2494
			c38.1,0,69.2,31.1,69.2,69.2v623.5C8317.5-6103.3,8286.4-6072.1,8248.3-6072.1z"/>
		<g>
			<path class="st18" d="M5923.9-6730.8v313c0,25.6,5.6,45.9,16.9,60.8c11.2,14.9,29.4,22.4,54.5,22.4c25.1,0,43.7-7.5,55.7-22.4
				c12-14.9,18-35.2,18-60.8v-313h173.4v313c0,52.8-11,97.9-32.9,135.3c-22,37.4-52,65.5-90.2,84.3c-38.2,18.8-80.8,28.2-127.9,28.2
				c-47.1,0-88.8-9.4-125.1-28.2c-36.4-18.8-64.7-46.8-85.1-83.9c-20.4-37.1-30.6-82.4-30.6-135.7v-313H5923.9z"/>
			<path class="st18" d="M6830.7-6175.4h-174.1l-184.3-279.3v279.3h-174.1v-555.4h174.1l184.3,284v-284h174.1V-6175.4z"/>
			<path class="st18" d="M7063.7-6730.8v555.4h-174.1v-555.4H7063.7z"/>
			<path class="st18" d="M7463-6541c-6.8-11-16.5-19.5-29-25.5c-12.6-6-27.7-9-45.5-9c-33.5,0-59.4,10.9-77.7,32.6
				c-18.3,21.7-27.5,51.4-27.5,89c0,43.4,10.2,75.8,30.6,97.3c20.4,21.4,51.8,32.2,94.1,32.2c40.3,0,72.7-16.2,97.3-48.6h-138.8
				v-123.2h283.2v174.1c-24.1,41.3-57.3,76.8-99.6,106.3c-42.4,29.6-96,44.3-160.8,44.3c-57.5,0-107.6-11.9-150.2-35.7
				c-42.6-23.8-75.3-57.1-98.1-100c-22.7-42.9-34.1-91.8-34.1-146.7s11.4-103.8,34.1-146.7c22.8-42.9,55.3-76.2,97.7-100
				c42.4-23.8,92-35.7,149-35.7c72.7,0,131.9,17.5,177.7,52.6c45.8,35,72.8,82.6,81.2,142.8H7463z"/>
			<path class="st18" d="M8252.1-6730.8l-186.7,555.4h-225.1l-186.7-555.4h185.1l114.5,382l113.7-382H8252.1z"/>
		</g>
	</g>
</g>
<g>
	<rect x="0" y="-1730.2" class="st4" width="5795" height="1008.2"/>
	<g>
		<path class="st5" d="M5775-1677.3c0,0-173,32.6-152.3,229.4c0,0-145.3-19.1-166.1,161.5c0,0-387.1-78.4-466.9,224.2
			c0,0-263.8-15.8-431.4,191.8c0,0-468.4-145.3-584.4,145.3H5775V-1677.3z"/>
		<path class="st5" d="M8.5-1672.3c34.1-22,375.3-20.6,486.2,294.3c0,0,232.6-88.7,329.6,270.9c0,0,278.9-177.8,571.5,180.5
			c0,0,218.7-110.9,336.8,34.1c0,0,799.4-153.5,1106.9,170.6H8.5V-1672.3z"/>
	</g>
</g>
<g>
	<g>
		<rect x="1814.5" y="5494.8" class="st6" width="2146" height="44.8"/>
		<rect x="2119.8" y="4840.2" class="st7" width="1535.4" height="654.5"/>
		<rect x="524.9" y="4709.3" class="st8" width="4725.2" height="130.9"/>
		<rect x="524.9" y="4971.2" class="st8" width="4725.2" height="130.9"/>
		<rect x="524.9" y="5233" class="st8" width="4725.2" height="130.9"/>
		<g>
			<rect x="1509.2" y="4709.3" class="st9" width="610.6" height="130.9"/>
			<rect x="3655.2" y="4709.3" class="st9" width="610.6" height="130.9"/>
		</g>
		<rect x="2671.4" y="5376.8" class="st10" width="432.1" height="118"/>
		<rect x="2387.8" y="5376.8" class="st10" width="216.1" height="118"/>
		<rect x="3170.2" y="5376.8" class="st10" width="216.1" height="118"/>
		<g>
			<rect x="1509.2" y="4840.2" class="st11" width="610.6" height="654.5"/>
			<g>
				<g>
					<rect x="1551.9" y="4859.8" class="st12" width="239.1" height="239.1"/>
					<rect x="1837.9" y="4859.8" class="st12" width="239.1" height="239.1"/>
				</g>
				<g>
					<rect x="1551.9" y="5215.2" class="st12" width="239.1" height="166.5"/>
					<rect x="1837.9" y="5215.2" class="st12" width="239.1" height="166.5"/>
				</g>
				<g>
					<rect x="1551.9" y="5429.3" class="st13" width="239.1" height="65.5"/>
					<rect x="1837.9" y="5429.3" class="st13" width="239.1" height="65.5"/>
				</g>
			</g>
		</g>
		<g>
			<rect x="3655.2" y="4840.2" class="st11" width="610.6" height="654.5"/>
			<g>
				<g>
					<rect x="3697.9" y="4859.8" class="st12" width="239.1" height="239.1"/>
					<rect x="3983.9" y="4859.8" class="st12" width="239.1" height="239.1"/>
				</g>
				<g>
					<rect x="3697.9" y="5215.2" class="st12" width="239.1" height="166.5"/>
					<rect x="3983.9" y="5215.2" class="st12" width="239.1" height="166.5"/>
				</g>
				<g>
					<rect x="3697.9" y="5429.3" class="st13" width="239.1" height="65.5"/>
					<rect x="3983.9" y="5429.3" class="st13" width="239.1" height="65.5"/>
				</g>
			</g>
		</g>
		<g>
			<g>
				<rect x="589.2" y="5102.1" class="st7" width="920" height="130.9"/>
				<g>
					<rect x="704.7" y="5124.7" class="st12" width="315.9" height="85.6"/>
					<rect x="1077.7" y="5124.7" class="st12" width="315.9" height="85.6"/>
				</g>
			</g>
			<g>
				<rect x="589.2" y="5363.9" class="st7" width="920" height="130.9"/>
				<g>
					<rect x="704.7" y="5386.5" class="st12" width="315.9" height="85.6"/>
					<rect x="1077.7" y="5386.5" class="st12" width="315.9" height="85.6"/>
				</g>
			</g>
			<g>
				<rect x="589.2" y="4840.2" class="st7" width="920" height="130.9"/>
				<g>
					<rect x="704.7" y="4862.9" class="st12" width="315.9" height="85.6"/>
					<rect x="1077.7" y="4862.9" class="st12" width="315.9" height="85.6"/>
				</g>
			</g>
		</g>
		<g>
			<rect x="4265.8" y="5102.1" class="st7" width="920" height="130.9"/>
			<g>
				<rect x="4381.3" y="5124.7" class="st12" width="315.9" height="85.6"/>
				<rect x="4754.3" y="5124.7" class="st12" width="315.9" height="85.6"/>
			</g>
		</g>
		<g>
			<rect x="4265.8" y="5363.9" class="st7" width="920" height="130.9"/>
			<g>
				<rect x="4381.3" y="5386.5" class="st12" width="315.9" height="85.6"/>
				<rect x="4754.3" y="5386.5" class="st12" width="315.9" height="85.6"/>
			</g>
		</g>
		<g>
			<rect x="4265.8" y="4840.2" class="st7" width="920" height="130.9"/>
			<g>
				<rect x="4381.3" y="4862.9" class="st12" width="315.9" height="85.6"/>
				<rect x="4754.3" y="4862.9" class="st12" width="315.9" height="85.6"/>
			</g>
		</g>
		<g>
			<g>
				<g>
					<rect x="2174.6" y="5124.7" class="st12" width="315.9" height="85.6"/>
					<rect x="2547.6" y="5124.7" class="st12" width="315.9" height="85.6"/>
				</g>
				<g>
					<rect x="2174.6" y="4862.9" class="st12" width="315.9" height="85.6"/>
					<rect x="2547.6" y="4862.9" class="st12" width="315.9" height="85.6"/>
				</g>
			</g>
			<g>
				<g>
					<rect x="2911.5" y="5124.7" class="st12" width="315.9" height="85.6"/>
					<rect x="3284.5" y="5124.7" class="st12" width="315.9" height="85.6"/>
				</g>
				<g>
					<rect x="2911.5" y="4862.9" class="st12" width="315.9" height="85.6"/>
					<rect x="3284.5" y="4862.9" class="st12" width="315.9" height="85.6"/>
				</g>
			</g>
		</g>
		<g>
			<g>
				<g>
					<rect x="2181.4" y="5167.5" class="st14" width="206.5" height="352.8"/>
					
						<rect x="2456.8" y="5094.4" transform="matrix(4.490903e-11 -1 1 4.490903e-11 -2710.6938 7830.8237)" class="st14" width="206.5" height="352.8"/>
				</g>
			</g>
			<g>
				<g>
					
						<rect x="3387.1" y="5167.5" transform="matrix(-1 -4.487400e-11 4.487400e-11 -1 6980.6953 10687.8154)" class="st14" width="206.5" height="352.8"/>
					
						<rect x="3111.6" y="5094.4" transform="matrix(6.123234e-17 -1 1 6.123234e-17 -2055.8735 8485.6436)" class="st14" width="206.5" height="352.8"/>
				</g>
			</g>
		</g>
	</g>
	<g>
		<rect x="3960.5" y="5497" class="st5" width="1225.3" height="42.6"/>
		<rect x="589.2" y="5497" class="st5" width="1225.3" height="42.6"/>
	</g>
</g>
<g>
	<path class="st1" d="M7733.9,4857.7c0,0,528.2-195.6,1060.7,67c0,0,361.8-583.9,962.8-111.3c601.1,472.6,1306,734.4,1728.7,594.7
		c422.7-139.8,927.6-1123.7,1412.5-976.3c0,0,192.4-349.8,608.1-218.8v1250.6H7733.9V4857.7z"/>
	<path class="st2" d="M7731.8,5463.7c0,0,903.7-718.1,1895.3-391.1c991.6,327.1,1697,212.2,2182.2,29.5
		c485.1-182.6,1130.4-501.5,1683.5-501.5v863.1H7731.8z"/>
	<path class="st3" d="M8305.9,5327c71.1-101.1,499.7-108.8,405.7-31.9c-94,76.9,868.8,53.6,699.8-68
		c-169-121.6,998.6,106.8,1454.2,60.2c16.3-1.5,32.2-4.6,47.3-9.2c-362.2,11.2-787.9-41.6-1285.9-205.5
		c-991.6-327.1-1895.3,391.1-1895.3,391.1h740.1C8471.9,5463.7,8234.9,5428.1,8305.9,5327z"/>
	<path class="st3" d="M11812.4,5101.9c-154.7,58.4-318.9,103.3-488.8,133.8c0,0,348.4,23.1,838-181.3s922.5-234.5,742.2-110
		c-180.4,124.5-118.5,263.3,154.6,237.7c273.1-25.6,30.9,281.6-283.5,281.6h731.9v-863.1
		C12950.2,4600.6,12300.8,4919.2,11812.4,5101.9z"/>
</g>
<g>
	<g>
		<rect x="9695.6" y="-1194.6" class="st20" width="107.2" height="672.9"/>
		<rect x="11531.9" y="-1194.6" class="st20" width="107.2" height="672.9"/>
	</g>
	<g>
		<path class="st21" d="M11914.4-943.1h-2494c-38.1,0-69.2-31.1-69.2-69.2v-623.5c0-38.1,31.1-69.2,69.2-69.2h2494
			c38.1,0,69.2,31.1,69.2,69.2v623.5C11983.6-974.2,11952.4-943.1,11914.4-943.1z"/>
		<g>
			<path class="st18" d="M9589.9-1601.7v313c0,25.6,5.6,45.9,16.9,60.8c11.2,14.9,29.4,22.4,54.5,22.4c25.1,0,43.7-7.5,55.7-22.4
				c12-14.9,18-35.2,18-60.8v-313h173.4v313c0,52.8-11,97.9-32.9,135.3c-22,37.4-52,65.5-90.2,84.3c-38.2,18.8-80.8,28.2-127.9,28.2
				s-88.8-9.4-125.1-28.2c-36.4-18.8-64.7-46.8-85.1-83.9c-20.4-37.1-30.6-82.4-30.6-135.7v-313H9589.9z"/>
			<path class="st18" d="M10496.7-1046.4h-174.1l-184.3-279.3v279.3h-174.1v-555.4h174.1l184.3,284v-284h174.1V-1046.4z"/>
			<path class="st18" d="M10729.7-1601.7v555.4h-174.1v-555.4H10729.7z"/>
			<path class="st18" d="M11129-1411.9c-6.8-11-16.5-19.5-29-25.5c-12.6-6-27.7-9-45.5-9c-33.5,0-59.4,10.9-77.7,32.6
				c-18.3,21.7-27.5,51.4-27.5,89c0,43.4,10.2,75.8,30.6,97.3c20.4,21.4,51.8,32.2,94.1,32.2c40.3,0,72.7-16.2,97.3-48.6h-138.8
				v-123.2h283.2v174.1c-24.1,41.3-57.3,76.8-99.6,106.3c-42.4,29.6-96,44.3-160.8,44.3c-57.5,0-107.6-11.9-150.2-35.7
				c-42.6-23.8-75.3-57.1-98.1-100c-22.7-42.9-34.1-91.8-34.1-146.7s11.4-103.8,34.1-146.7c22.8-42.9,55.3-76.2,97.7-100
				c42.4-23.8,92-35.7,149-35.7c72.7,0,131.9,17.5,177.7,52.6c45.8,35,72.8,82.6,81.2,142.8H11129z"/>
			<path class="st18" d="M11918.1-1601.7l-186.7,555.4h-225.1l-186.7-555.4h185.1l114.5,382l113.7-382H11918.1z"/>
		</g>
	</g>
</g>
<g>
	<g id="character_00000122682218569689544210000001796201404139441075_">
		<path class="st15" d="M12101.9,2884.7l9.7,26.6l-50.4-2.8l-49.1-21.6l-15.1-35.5l24.9-268.6l81.9,22.5c0,0-32.2,237.3-27.7,250.5
			C12080.7,2869.1,12101.9,2884.7,12101.9,2884.7L12101.9,2884.7z"/>
		<path class="st16" d="M12061.1,2910.2c-0.3,0-0.5-0.1-0.7-0.2l-49.1-21.6c-0.4-0.2-0.8-0.5-0.9-0.9l-15.1-35.5
			c-0.1-0.2-0.1-0.5-0.1-0.7l24.9-268.6c0.1-0.5,0.3-1,0.8-1.2c0.5-0.3,1-0.3,1.6-0.2l81.9,22.5c0.8,0.2,1.4,1,1.3,1.8
			c-8.9,65.9-31.4,239.3-27.7,249.8c4.3,12.5,24.8,27.9,25.1,28c0.2,0.2,0.5,0.5,0.6,0.8l9.7,26.6c0.2,0.5,0.1,1.1-0.3,1.5
			s-0.9,0.7-1.5,0.7L12061.1,2910.2L12061.1,2910.2z M12109,2909.5l-8.7-23.8c-3.1-2.4-21.5-16.7-25.9-29.3
			c-4.5-13,24.5-228.2,27.4-249.8l-78.2-21.5l-24.6,266.2l14.6,34.5l48,21.2L12109,2909.5L12109,2909.5z"/>
		<path class="st15" d="M12562.1,1646.4c5.3-2.2,11.4-5.9,17-12c4.1-4.4,5.9-9.5,6.5-14.4c1.5-11.5-4-22.3-4.4-23
			c1.9,1.6,61.7,51.1,84.8,70.1c23.7,19.6,89.1,68.2,109.9,83.5c4.2,3.1,6.2,8.3,4.9,13.1c-5.8,21.8-23.9,26.6-34.5,27.4
			c-4.6,0.4-9.2-1.5-12.1-4.9c-14.9-17.2-32.3-30.7-32.3-30.7s-41.4-18.3-43-19.1c-1.6-0.8-21.8-30.5-21.8-30.5l-89-56.3
			C12548.2,1649.8,12554.3,1649.7,12562.1,1646.4z"/>
		<path class="st16" d="M12744.4,1792.9c-4.4-0.2-8.5-2.2-11.4-5.6c-13.8-15.9-30-28.9-31.9-30.3c-5.2-2.3-41.3-18.2-42.8-19
			c-0.5-0.3-2-1-22.3-30.8l-88.7-56.1c-0.7-0.4-1-1.2-0.7-1.9s0.9-1.2,1.7-1.2c0,0,5.8-0.1,13.2-3.2c6.2-2.6,11.7-6.5,16.4-11.6
			c3.4-3.7,5.5-8.2,6.1-13.5c1.4-11.1-4-21.7-4.2-22.1c-0.4-0.7-0.1-1.6,0.6-2.1c0.7-0.5,1.6-0.4,2.3,0.1
			c1.8,1.5,61.1,50.6,84.8,70.1c25,20.6,95.9,73.2,109.8,83.5c4.8,3.6,7,9.4,5.6,14.8c-6.2,22.9-25.3,27.8-36.1,28.7
			C12745.8,1792.9,12745.1,1793,12744.4,1792.9L12744.4,1792.9z M12585.7,1602.8c1.4,4.5,2.8,10.8,1.9,17.4
			c-0.7,5.9-3.1,11-6.9,15.2c-5,5.5-11,9.7-17.7,12.5c-3.8,1.6-7.2,2.5-9.7,2.9l85.1,53.7c0.2,0.1,0.4,0.3,0.5,0.5
			c7.4,10.8,19.8,28.6,21.2,29.9c1.2,0.6,26.3,11.7,42.8,19c0.1,0,0.3,0.1,0.4,0.2c0.2,0.1,17.7,13.9,32.5,31
			c2.6,3,6.5,4.6,10.5,4.3c9.9-0.8,27.3-5.3,32.9-26.2c1.1-4.2-0.6-8.6-4.3-11.4c-14-10.3-84.9-62.9-110-83.6
			C12645.2,1652.1,12601.2,1615.7,12585.7,1602.8L12585.7,1602.8z"/>
		<path class="st16" d="M12552.4,1610.3c14.5-18.5,28.9-13.3,28.9-13.3l0,0c0.4,0.8,5.9,11.5,4.4,23l-17.3-11
			c0,0-18.3,21.4-6.3,37.4c-7.9,3.3-13.9,3.3-13.9,3.3S12537.9,1628.8,12552.4,1610.3z"/>
		<path class="st16" d="M12548.1,1651.5c-0.7,0-1.3-0.4-1.6-1c-0.5-0.9-10.6-22.1,4.4-41.2c15.1-19.3,30.3-14.1,31-13.9
			c0.3,0.1,0.5,0.3,0.7,0.5c0.1,0.1,0.2,0.2,0.3,0.4c0.6,1.2,6.1,12.1,4.6,24c-0.1,0.6-0.5,1.1-1.1,1.3c-0.6,0.2-1.3,0.2-1.8-0.2
			l-15.8-10.1c-3.5,4.7-14.7,21.5-5.2,34.1c0.3,0.4,0.4,0.9,0.3,1.4c-0.1,0.5-0.5,0.9-1,1.1c-8.1,3.4-14.4,3.5-14.7,3.5
			C12548.2,1651.4,12548.1,1651.4,12548.1,1651.5L12548.1,1651.5z M12559.4,1645.6c-10.2-16.5,6.8-36.8,7.6-37.7
			c0.6-0.7,1.7-0.9,2.5-0.3l14.6,9.3c0.3-8.6-3.1-16.4-4.1-18.6c-2.9-0.7-14.2-2.1-26.1,13c-11.9,15.1-6.2,32.3-4.5,36.7
			C12551.3,1647.8,12555,1647.3,12559.4,1645.6L12559.4,1645.6z"/>
		<path class="st15" d="M12557.7,1791.5l57.2,32.8l42.8-52.4c28.5-1.7,44.4-16.4,44.4-16.4c-8.7-12.7-64.8-49.5-64.8-49.5
			c4.7-33.1-4.8-36.6-11.9-31.7s-11.7,47.9-17.9,57.1C12601.2,1740.7,12557.7,1791.5,12557.7,1791.5L12557.7,1791.5z"/>
		<path class="st16" d="M12614.8,1826.1c-0.3,0-0.6-0.1-0.9-0.3l-57.2-32.8c-0.5-0.3-0.8-0.7-0.9-1.2c-0.1-0.5,0.1-0.9,0.4-1.3
			c0.4-0.5,43.5-50.9,49.6-59.9c2.7-3.9,5.2-15.3,7.7-26.3c3.9-17.6,6.6-28.5,10.7-31.3c3.3-2.3,6.9-2.8,9.7-1.2
			c6.1,3.3,7.8,14.6,5.2,33.5c7.5,5,56.2,37.3,64.4,49.5c0.4,0.7,0.3,1.5-0.3,2.1c-0.7,0.6-16.4,14.8-44.7,16.8l-42.3,51.8
			C12616,1825.8,12615.4,1826.1,12614.8,1826.1L12614.8,1826.1z M12699.6,1755.3c-10.7-13.3-62.9-47.5-63.4-47.9
			c-0.6-0.4-0.8-1-0.8-1.6c3.6-25.3-1.7-30.2-3.3-31.2c-2-1.1-4.4,0.2-5.6,1c-3.3,2.3-6.7,17.3-9.3,29.3
			c-2.6,11.8-5.1,22.9-8.1,27.4c-5.7,8.4-41.3,50.1-48.6,58.7l54,31l41.8-51.2c0.3-0.4,0.8-0.6,1.3-0.7
			C12680.8,1768.8,12695.6,1758.5,12699.6,1755.3L12699.6,1755.3z"/>
		<path class="st16" d="M12255.8,1799.2l-195.4,41c0,0-95.6-23.4-97.3-38.3c-1.8-14.9,56.7-136.1,73.2-150.2s79.2-11.8,141.8,7.9
			c62.6,19.8,122.3,43.6,129.2,60.8C12314.2,1737.6,12255.7,1799.2,12255.8,1799.2L12255.8,1799.2z"/>
		<path class="st16" d="M12060.2,1841.9c-0.1,0-0.3,0-0.4,0c-0.3,0-24.2-5.9-48.1-13.6c-49.3-15.8-50.3-23.6-50.6-26.2
			c-1.9-15.7,57.4-137.6,73.7-151.6c17.8-15.2,82.2-11.8,143.7,7.6c45.2,14.2,122.1,41.2,130.4,61.8c7.1,17.7-45.8,74.1-51.9,80.5
			c-0.2,0.3-0.6,0.4-0.9,0.5l-195.4,41C12060.6,1841.9,12060.3,1841.9,12060.2,1841.9L12060.2,1841.9z M12254.8,1797.6
			c16.3-17.3,56.1-63.5,50.8-76.7c-5.6-14.1-52.3-35.8-128.1-59.8c-65.4-20.6-125.2-20.9-140-8.3c-15.3,13.1-74.4,134.2-72.6,148.8
			c1.2,10,59,27.8,95.5,36.7L12254.8,1797.6L12254.8,1797.6z"/>
		<path class="st15" d="M12196.2,1732.2c16.9,15.3,42.8,24.2,58,42.9c15.1,18.7,32.4,66.2,25.2,98.1c-7.2,31.8,2.7,57.6,2.7,57.6
			s-256.6,32.7-255.2-3.9s14.6-48.2,13.4-76.5c-1.1-28.3,2.5-54.9,7.1-79.4C12100.2,1714.4,12196.2,1732.2,12196.2,1732.2z"/>
		<path class="st16" d="M12075.5,1945.1c-22.2-1.2-39.3-4.3-46.5-10.3c-2.8-2.4-4.2-5.1-4-8.1c0.8-18.4,4.5-30.7,7.7-41.6
			c3.4-11.2,6.3-20.8,5.7-34.8c-1.2-30.5,3.2-58.6,7.2-79.7c0.1-0.3,0.2-0.6,0.4-0.8c52.8-56.6,149.5-39.5,150.4-39.3
			c0.4,0.1,0.7,0.2,0.9,0.5c7,6.3,15.4,11.5,24.4,16.9c12.2,7.4,24.8,15.1,33.7,26.2c15.3,18.9,32.9,67,25.6,99.4
			c-7,30.9,2.5,56.5,2.6,56.7c0.2,0.5,0.1,1-0.2,1.4c-0.3,0.4-0.7,0.7-1.3,0.8C12275.4,1933.3,12148.3,1949.3,12075.5,1945.1
			L12075.5,1945.1z M12279.7,1929.3c-2.1-6.6-8.2-29.3-2.1-56.6c7.1-31.5-10.1-78.3-24.9-96.7c-8.5-10.6-20.9-18.1-32.8-25.3
			c-8.5-5.2-17.4-10.6-24.5-17c-7.7-1.3-96.7-14.6-146.1,38c-3.9,20.9-8.2,48.6-7,78.6c0.6,14.5-2.5,24.8-5.8,35.8
			c-3.2,10.7-6.9,22.8-7.6,40.9c-0.1,2.1,0.9,3.8,2.8,5.5C12059.3,1955.6,12256.8,1932.1,12279.7,1929.3L12279.7,1929.3z"/>
		<path class="st16" d="M11910.3,2144.6c6.1-11.2,11.9-22.4,17.1-33.2c-0.6,0.6-6.4,5.8-16,13.2l7.9-140.9
			c14.9-8.5,30.9-18.4,47.9-30.1c17.3-12,35.4-21,53.4-27.8c64.5-24.4,127.2-19.6,146.6-17.5c68.8,6.5,121.4,19.5,165.8,19.8
			c27.6,0.2,52.1-4.7,75.4-19.1c42.1-26.1,94.5-80.7,122.8-111.6c12.4-13.7,20.2-22.8,20.2-22.8l106,74.4c0,0-6.4,8.9-17.8,23
			c-32.1,40-103.6,121.7-179.6,160.4c-102.8,52.3-154.7,56.8-154.7,56.8s-71.8,267.5-113.5,511.7c-2.5,14.6-4.9,29.1-7.1,43.5
			c0,0-134.6-8.9-296.6-101.6L11910.3,2144.6z"/>
		<path class="st16" d="M11926,2110.2c0.6-0.6,1.6-0.6,2.3-0.2c0.7,0.4,1,1.3,0.7,2.1c-5.8,12-12.1,24.3-19,36.7l0.5-8.4
			c4-7.4,7.8-14.7,11.4-22c-2.8,2.4-6.4,5.3-10.7,8.5l0.3-4.8C11919.9,2115.7,11925.1,2111.1,11926,2110.2z"/>
		<path class="st16" d="M11888.2,2540.6c150.9,86.3,278.8,100.5,294.9,102c2.5-15.9,4.7-29.3,6.9-42
			c41.3-241.5,112.8-509.2,113.5-511.9c0.2-0.7,0.8-1.2,1.6-1.3c0.5,0,52.8-5.1,154-56.6c74.4-37.9,144.1-116.4,179-159.9
			c8.7-10.8,14.5-18.6,16.7-21.6l-103.2-72.4c-2.6,3-9.5,10.9-19.1,21.5c-27.8,30.6-80.9,85.7-123.1,111.9
			c-21.6,13.4-45.9,19.6-76.5,19.4c-25.1-0.2-52.5-4.3-84.3-9.1c-24.2-3.7-51.5-7.8-81.7-10.7c-23.2-2.5-84-6-145.7,17.4
			c-19.1,7.2-36.9,16.5-52.9,27.6c-17.4,12-33.8,22.1-49.1,30.8l0.2-4.1c14.6-8.3,30.2-18,46.7-29.4c16.3-11.3,34.4-20.7,53.8-28.1
			c62.5-23.6,124-20.2,147.5-17.6c30.2,2.9,57.6,7,81.9,10.7c31.6,4.8,58.9,9,83.7,9.1c30.1,0.2,53.1-5.6,74.4-18.8
			c41.9-26,94.7-80.9,122.4-111.3c12.3-13.5,20.1-22.7,20.1-22.7c0.6-0.7,1.7-0.8,2.5-0.3l106,74.4c0.8,0.6,0.9,1.5,0.4,2.3
			c0,0.1-6.6,9.1-17.8,23.1c-35.1,43.7-105.1,122.6-180.1,160.8c-93.2,47.4-145.4,55.8-154.1,56.9c-5.1,19.1-73.3,277-113.1,510.5
			c-2.2,13-4.5,26.9-7.1,43.5c-0.2,0.8-1,1.5-1.9,1.4l0,0c-0.6,0-61.4-4.3-148.9-34.4c-40.9-14.1-92-35.4-147.7-67.2L11888.2,2540.6
			z"/>
		<path class="st17" d="M12167.1,1908.3c68.8,6.5,121.4,19.5,165.8,19.8c-11.4,27.7-54.4,105.6-172,92.7
			c-105.4-11.6-133-66.9-140.3-95C12085.1,1901.3,12147.7,1906.1,12167.1,1908.3z"/>
		<path class="st16" d="M12173.7,2023.5c-4.2-0.2-8.6-0.6-13-1.1c-104.7-11.5-133.9-65.3-141.9-96.3c-0.2-0.8,0.2-1.6,1.1-1.9
			c62.5-23.6,124-20.2,147.5-17.6c30.2,2.9,57.6,7,81.9,10.7c31.6,4.8,58.9,9,83.7,9.1c0.6,0,1.2,0.3,1.5,0.7c0.3,0.5,0.4,1,0.2,1.6
			C12324.5,1953,12283.9,2029.6,12173.7,2023.5L12173.7,2023.5z M12248.6,1920.6c-24.2-3.7-51.5-7.8-81.7-10.7
			c-23.1-2.5-83.1-5.9-144.3,16.8c8.3,30.3,37.5,81.2,138.4,92.3c114.1,12.5,157.4-62.4,169.2-89.3
			C12305.9,1929.3,12279.3,1925.3,12248.6,1920.6z"/>
		<path class="st19" d="M12551.2,1774.5l106,74.4c0,0-6.4,8.9-17.8,23c-19.9-16.8-65.1-54.3-108.4-74.6
			C12543.5,1783.6,12551.2,1774.5,12551.2,1774.5z"/>
		<path class="st17" d="M12639.4,1873.7c-0.4,0-0.8-0.2-1.2-0.4c-15.6-13.2-63.3-53.3-108-74.4c-0.5-0.2-0.8-0.7-1-1.2
			c-0.1-0.5,0-1,0.4-1.4c12.3-13.5,20.1-22.7,20.1-22.7c0.6-0.7,1.7-0.8,2.5-0.3l106,74.4c0.8,0.5,0.9,1.5,0.4,2.3
			c0,0.1-6.6,9.1-17.8,23.1c-0.3,0.4-0.8,0.6-1.3,0.7C12639.6,1873.6,12639.4,1873.6,12639.4,1873.7L12639.4,1873.7z
			 M12551.6,1776.9c-2.4,2.8-8.8,10.1-17.6,19.9c43.2,20.8,88.4,58.5,105.3,72.6c8.1-10.1,13.5-17.3,15.6-20.2L12551.6,1776.9z"/>
		<path class="st15" d="M11936.8,2100.5c-0.2,0-0.4-0.1-0.6-0.1c-0.9-0.4-1.4-1.4-1-2.2c0.2-0.5,20.4-46.3,34.9-75.9
			c0.4-0.8,1.5-1.2,2.4-0.8c0.9,0.4,1.3,1.4,0.9,2.2c-14.5,29.6-34.7,75.3-34.9,75.8C11938.3,2100.2,11937.5,2100.6,11936.8,2100.5
			L11936.8,2100.5z"/>
		<path class="st15" d="M12305.2,2090.8c-0.1,0-0.3-0.1-0.4-0.1c-1-0.3-1.5-1.2-1.2-2.1c21.3-65.9,27-96.8,27-97.1
			c0.2-0.9,1-1.5,2.1-1.4c1,0.2,1.7,1,1.5,1.9c-0.1,0.3-5.7,31.3-27.1,97.5C12306.8,2090.4,12306,2090.8,12305.2,2090.8
			L12305.2,2090.8z"/>
		<path class="st19" d="M11891,2488.9c23,15.2,47.9,30,74.4,43c81.1,39.8,171.1,59.7,226.3,69c-2.5,14.6-4.9,29.1-7.1,43.5
			c0,0-134.6-8.9-296.6-101.6L11891,2488.9z"/>
		<path class="st17" d="M11888.2,2540.6c150.9,86.4,278.9,100.5,294.9,102c2.4-15.3,4.5-28.2,6.6-40.4l0,0
			c-59.6-10.1-146.4-30.2-225.1-68.8c-26.3-12.9-50.9-27.4-73.7-42.5l0.2-4c23.2,15.4,48.3,30.3,75.2,43.5
			c79,38.8,166.4,58.8,225.8,68.8c1,0.2,1.7,1,1.5,1.9c-2.2,13-4.5,26.9-7.1,43.5c-0.2,0.8-1,1.5-1.9,1.4l0,0
			c-1.8-0.1-136-10.3-296.6-101.6L11888.2,2540.6z"/>
		<path class="st17" d="M12196.2,1732.2l-18.7,1.2c-42.1,2.7-83,13.8-119.9,32.5l-10.1,5.1c0,0-23.2-22.9-19.8-30.6
			s26.3-30.7,75.3-42.2c49-11.4,90.9-8.8,96.4-1.4C12204.9,1704.1,12196.2,1732.2,12196.2,1732.2L12196.2,1732.2z"/>
		<path class="st16" d="M12047.4,1772.6c-0.5,0-0.9-0.2-1.3-0.5c-4-3.9-23.8-24.1-20.1-32.4c4-9.2,28.1-31.8,76.5-43.1
			c47.4-11.1,91.8-9.5,98.4-0.7c5.8,7.8-2,33.9-2.9,36.8c-0.2,0.7-0.8,1.1-1.6,1.2l-18.7,1.2c-41.6,2.7-82.8,13.8-119.2,32.3
			l-10.1,5.1C12048,1772.5,12047.7,1772.6,12047.4,1772.6L12047.4,1772.6z M12194.7,1730.5c2.5-8.3,7-27.6,3.1-32.9
			c-4.4-6-43.7-9.7-94.4,2.1c-46.6,10.9-70.4,32.8-74,41.2c-2,4.5,9.3,18.7,18.5,27.9l8.8-4.5c36.8-18.7,78.5-30,120.7-32.7
			L12194.7,1730.5L12194.7,1730.5z"/>
		<path class="st15" d="M12142.1,1858.5l46.9,29.3l4.8,37.1c0.7,4.1-1.3,8.1-5,10.3c-11.2,6.6-24.4,6.7-32.8,5.8
			c-5.1-0.6-9.2-4.3-9.8-9C12144.8,1921.6,12141.9,1886.7,12142.1,1858.5L12142.1,1858.5z"/>
		<path class="st16" d="M12155.8,1942.7c-6-0.7-10.7-5-11.4-10.5c-1.3-9.7-4.3-44.7-4.1-73.6c0-0.6,0.4-1.2,1-1.5
			c0.6-0.3,1.3-0.2,1.9,0.1l46.9,29.3c0.5,0.3,0.7,0.7,0.8,1.2l4.8,37.1c0.8,4.7-1.5,9.4-5.8,12c-9.9,5.9-21.2,6.9-30,6.4
			C12158.4,1943,12157,1942.8,12155.8,1942.7z M12187.2,1888.7l-43.4-27c0,28.1,2.8,60.7,4.1,70.1c0.5,4,3.9,7.1,8.2,7.5
			c8.6,1,21,0.8,31.6-5.5c3.2-1.8,4.8-5.2,4.2-8.7L12187.2,1888.7L12187.2,1888.7z"/>
		<path class="st15" d="M12162.6,1747.8c0,0-7.4,37.6-39.3,56.2c-31.9,18.6-38.3,41.7-38.3,41.7c4.3,17.8,45,62.2,94.3,45.3
			c49.3-16.9,38.1-71,38.1-71c13.8-4.4,21.3-32.3,6.4-41.1s-22.5,5.8-22.5,5.8C12179.2,1773.6,12162.6,1747.8,12162.6,1747.8z"/>
		<path class="st16" d="M12153.2,1896.3c-10.1-0.6-20.1-3.3-29.8-8.2c-21.1-10.7-37.3-30.2-40.2-42.1c0-0.2,0-0.5,0-0.8
			c0.3-1,6.9-24,39.1-42.7c30.9-18,38.4-54.7,38.5-55c0.1-0.7,0.7-1.2,1.5-1.3c0.7-0.1,1.5,0.2,1.9,0.8c0.2,0.2,15.8,24.2,36.5,35.4
			c1.5-2.2,4.9-6.1,10.2-7.5c4.4-1.1,9.1-0.3,14,2.6c6.8,4,10,11.7,8.8,21.3c-1.2,10.3-6.9,19.1-14.2,22.3
			c1.3,8.7,6.3,55.9-39.5,71.6C12171.2,1895.6,12162.2,1896.8,12153.2,1896.3L12153.2,1896.3z M12215.4,1777.8
			c-1.2-0.1-2.3,0-3.4,0.3c-5.8,1.5-8.9,7.2-8.9,7.3c-0.2,0.4-0.6,0.7-1.1,0.9c-0.4,0.1-1,0.1-1.4-0.1c-17.8-8.9-31.7-26.5-37.1-34
			c-2.9,10.3-12.8,37.9-39.1,53.3c-28.7,16.7-36.4,37.3-37.3,40.3c2.6,9.9,17.1,28.7,38.2,39.4c12.2,6.2,31.3,11.9,53.5,4.3
			c19.8-6.8,32.1-20.4,36.4-40.5c3.3-15.1,0.6-28.5,0.6-28.6c-0.2-0.8,0.3-1.6,1.2-1.9c6.5-2.1,12-10.5,13.2-20
			c1-8.3-1.6-14.8-7.1-18.1C12220.3,1778.8,12217.8,1777.9,12215.4,1777.8L12215.4,1777.8z"/>
		<path class="st16" d="M12135.9,1812.6L12135.9,1812.6c1.7,0.8,0.9,3.4-1.1,3.1c-2.3-0.3-4.9-0.3-7.2-0.1
			c-7.2,0.5-12,5.1-15.8,10.4c-0.4,0.5-1.1,0.8-1.9,0.6c-1-0.2-1.6-1.1-1.4-2c0.6-2.6,1.5-5.2,3.2-7.3
			C12116.8,1810.3,12128,1808.3,12135.9,1812.6L12135.9,1812.6z"/>
		<path class="st16" d="M12183,1785.4L12183,1785.4c1.5,0.9,0.4,3.2-1.3,2.9l-0.7-0.1c-4.7-0.7-9.9,1.5-13.7,4
			c-4.4,2.9-7.5,7-10.5,11.3c-0.4,0.6-1.2,0.8-1.9,0.7c-1-0.2-1.6-1.2-1.4-2.1C12155.6,1790.6,12170.4,1778.8,12183,1785.4
			L12183,1785.4z"/>
		<path class="st16" d="M12173.4,1841.7c-4.1-0.2-8.3-2.1-10.3-6c-0.4-0.8,0-1.9,0.9-2.2s2,0,2.5,0.8c2.1,3.9,7.4,4.9,11.1,3.6
			c1.6-0.5,5-2.3,3.5-6.9c-0.5-1.5-1.4-2.6-2.8-3.2c-3.4-1.4-9,0.3-10.8,1.2c-0.9,0.4-1.9,0.1-2.4-0.7c-0.3-0.4-6.6-10.7-11.7-25.1
			c-0.3-0.9,0.2-1.8,1.2-2.1s2,0.2,2.3,1.1c4,11.2,8.8,19.9,10.6,23.1c2.7-0.9,8.1-2.3,12.3-0.6c2.4,1,4,2.8,4.8,5.3
			c1.6,4.9-0.6,9.3-5.6,11C12177.2,1841.6,12175.4,1841.9,12173.4,1841.7L12173.4,1841.7z"/>
		<path class="st16" d="M12128,1834.8c-2.1-3.9-1.5-8.2,1.4-9.5c0.7-0.3,1.5-0.4,2.3-0.4l0.8,6.9l3.7-4.8c0.9,0.8,1.8,1.8,2.4,3
			c2.2,3.9,1.5,8.2-1.4,9.5C12134.3,1840.9,12130.2,1838.8,12128,1834.8L12128,1834.8z"/>
		<path class="st16" d="M12173,1808.4c-1.8-4.1-0.8-8.2,2.3-9.4c0.8-0.3,1.5-0.4,2.4-0.2l0.1,6.9l4.1-4.5c0.9,0.9,1.7,2,2.2,3.2
			c1.8,4.1,0.7,8.3-2.3,9.4S12174.8,1812.5,12173,1808.4L12173,1808.4z"/>
		<path class="st16" d="M12159.6,1868.1c-7.1-0.4-13.1-7.9-13.3-8.2c-0.6-0.7-0.4-1.8,0.4-2.3c0.8-0.6,2-0.4,2.5,0.4
			c1.4,1.8,6.1,6.6,10.6,6.8l0.1,0c2,0.1,3.8-0.7,5.4-2.5c0.7-0.7,1.8-0.8,2.6-0.2c0.8,0.6,0.9,1.7,0.2,2.4
			c-2.4,2.5-5.2,3.8-8.4,3.6C12159.7,1868.1,12159.6,1868.1,12159.6,1868.1L12159.6,1868.1z"/>
		<path class="st15" d="M12003.5,1705c4.2,9.7,13,19.7,31.5,35.7c18.4,16,28.3,25.7,28.3,25.7l5.6-3.9
			c-5.5-11.3-64.7-51.9-60.1-67.5C12001.4,1692.8,12003.5,1705,12003.5,1705z"/>
		<path class="st16" d="M12063.1,1768.1c-0.4,0-0.9-0.2-1.2-0.5c-0.1-0.1-10.1-9.8-28.2-25.6c-18.6-16.1-27.5-26.3-31.9-36.3
			c-0.1-0.1-0.1-0.2-0.1-0.4c-0.2-1.4-1.2-8.4,2.3-11.2c1-0.8,2.7-1.5,5.4-0.8c0.9,0.3,1.5,1.2,1.2,2.1c-2.6,9,20.7,29.5,37.8,44.5
			c11.2,9.8,19.9,17.5,22.1,21.9c0.4,0.7,0.1,1.6-0.6,2l-5.6,3.9C12064,1768,12063.6,1768.1,12063.1,1768.1L12063.1,1768.1z
			 M12066.5,1762c-2.9-4.2-11.5-11.8-20.6-19.7c-18.6-16.3-39.5-34.6-39.2-45.8c-0.2,0.1-0.3,0.1-0.3,0.2c-1.4,1.1-1.5,5.3-1.1,7.9
			c4.2,9.5,12.9,19.3,30.9,34.9c14.7,12.8,24.1,21.6,27.2,24.6L12066.5,1762L12066.5,1762z"/>
		<path class="st19" d="M12066.3,1754.8c0,0,10.4,9.6,13.9,15c3.5,5.4-3.1,14.9-8.3,10c-5.2-4.9-12.4-12.9-14.1-15.4
			C12056,1762,12059.6,1760.6,12066.3,1754.8L12066.3,1754.8z"/>
		<path class="st16" d="M12074.8,1782.9c-1.5-0.1-2.9-0.7-4.1-1.9c-5.3-5-12.5-13-14.4-15.6c-2.2-3.1,0.5-5.2,4.2-8.1
			c1.3-1,2.8-2.2,4.6-3.7c0.7-0.6,1.8-0.6,2.5,0c0.4,0.4,10.6,9.8,14.2,15.4c2.7,4.1,0.6,10.1-2.9,12.6
			C12077.5,1782.5,12076.1,1782.9,12074.8,1782.9L12074.8,1782.9z M12066.2,1757.2c-1.3,1-2.4,1.9-3.4,2.7c-3.4,2.6-3.9,3.2-3.6,3.7
			c1.7,2.4,8.8,10.3,13.9,15.1c0.7,0.6,1.8,1.4,3.4,0.3c2.3-1.6,3.7-5.6,2-8.2C12076,1766.6,12069.1,1759.8,12066.2,1757.2
			L12066.2,1757.2z"/>
		<path class="st15" d="M12711.8,1705.8c-17.3,14-26.1,33.2-16.3,36.4c9.8,3.2,37.1-20.5,32.2-34.9s-23.4-9.4-23.4-9.4
			L12711.8,1705.8z"/>
		<path class="st16" d="M12697.1,1744.2c-0.7,0-1.5-0.2-2.1-0.4c-2.8-0.9-4.5-2.8-5.1-5.6c-1.7-7.9,6.6-21.7,19.4-32.5l-6.4-6.8
			c-0.5-0.4-0.6-1-0.4-1.6c0.2-0.6,0.6-1,1.2-1.1c7-1.9,21.4-2.1,25.7,10.6c3.1,9.1-5.2,20.7-13.2,27.8
			C12710.5,1739.7,12702.8,1744.5,12697.1,1744.2L12697.1,1744.2z M12712.8,1698.7c-1.9-0.1-3.7,0-5.1,0.2l5.5,5.8
			c0.7,0.7,0.6,1.8-0.1,2.4c-13.8,11.1-20.9,24.5-19.6,30.5c0.3,1.6,1.2,2.5,2.7,3c3.4,1.1,10.8-2.4,17.6-8.4
			c7.9-7,14.7-17.3,12.3-24.4C12723.6,1700.9,12717.8,1698.9,12712.8,1698.7L12712.8,1698.7z"/>
		<path class="st15" d="M12700.5,1694.7c-17.3,14-26.1,33.2-16.3,36.4c9.8,3.2,37.1-20.5,32.2-34.9s-23.4-9.4-23.4-9.4
			L12700.5,1694.7z"/>
		<path class="st16" d="M12683.6,1732.7c-2.7-0.9-4.5-2.8-5.1-5.6c-1.7-7.9,6.6-21.7,19.4-32.5l-6.4-6.8c-0.5-0.4-0.6-1-0.4-1.6
			c0.2-0.6,0.6-1,1.2-1.1c7-1.9,21.4-2.1,25.7,10.6c3.1,9.1-5.2,20.7-13.2,27.8c-5.7,5-13.4,9.9-19.2,9.6
			C12685,1733,12684.2,1732.9,12683.6,1732.7z M12701.4,1687.6c-1.9-0.1-3.7,0-5.1,0.2l5.5,5.8c0.7,0.7,0.6,1.8-0.1,2.4
			c-13.8,11.1-20.9,24.5-19.6,30.5c0.3,1.6,1.2,2.5,2.7,3c3.4,1.1,10.8-2.4,17.6-8.4c7.9-7,14.7-17.3,12.3-24.4
			C12712.3,1689.8,12706.5,1687.8,12701.4,1687.6L12701.4,1687.6z"/>
		<path class="st15" d="M12688.1,1683.5c-17.3,14-26.1,33.2-16.3,36.4s37.1-20.5,32.2-34.9s-23.4-9.4-23.4-9.4L12688.1,1683.5z"/>
		<path class="st16" d="M12671.2,1721.5c-2.7-0.9-4.5-2.8-5.1-5.6c-1.7-7.9,6.6-21.7,19.4-32.5l-6.4-6.8c-0.5-0.4-0.6-1-0.4-1.6
			s0.6-1,1.2-1.1c7-1.9,21.4-2.1,25.7,10.6c3.1,9.1-5.2,20.7-13.2,27.8c-5.7,5-13.4,9.9-19.2,9.6
			C12672.6,1721.8,12671.9,1721.7,12671.2,1721.5z M12689,1676.4c-1.9-0.1-3.7,0-5.1,0.2l5.5,5.8c0.7,0.7,0.6,1.8-0.1,2.4
			c-13.8,11.1-20.9,24.5-19.6,30.5c0.3,1.6,1.2,2.5,2.7,3c3.4,1.1,10.8-2.4,17.6-8.4c7.9-7,14.7-17.3,12.3-24.4
			C12699.9,1678.6,12694.1,1676.7,12689,1676.4L12689,1676.4z"/>
		<path class="st15" d="M12673.6,1675.1c-17.3,14-26.1,33.2-16.3,36.4c9.8,3.2,37.1-20.5,32.2-34.9c-4.9-14.5-23.4-9.4-23.4-9.4
			L12673.6,1675.1z"/>
		<path class="st16" d="M12658.8,1713.5c-0.7,0-1.5-0.2-2.1-0.4c-2.7-0.9-4.5-2.8-5.1-5.6c-1.7-7.9,6.6-21.7,19.4-32.5l-6.3-6.8
			c-0.5-0.4-0.6-1-0.4-1.6c0.2-0.6,0.6-1,1.2-1.1c7-1.9,21.4-2.1,25.7,10.6c3.1,9.1-5.2,20.7-13.2,27.8
			C12672.3,1709,12664.6,1713.8,12658.8,1713.5L12658.8,1713.5z M12674.6,1667.9c-1.9-0.1-3.7,0-5.1,0.2l5.5,5.9
			c0.7,0.7,0.6,1.8-0.1,2.4c-13.8,11.1-20.9,24.5-19.6,30.5c0.3,1.6,1.2,2.5,2.7,3c3.4,1.1,10.8-2.4,17.6-8.4
			c7.9-7,14.7-17.2,12.3-24.4C12685.5,1670.2,12679.6,1668.2,12674.6,1667.9L12674.6,1667.9z"/>
		<path class="st19" d="M12568.5,1609l17.3,11c-0.6,4.9-2.5,9.9-6.5,14.4c-5.6,6.2-11.7,9.8-17,12
			C12550.1,1630.5,12568.5,1609,12568.5,1609z"/>
		<path class="st16" d="M12562,1648.1c-0.5,0-1.1-0.3-1.4-0.7c-12.6-16.8,5.6-38.5,6.4-39.4c0.6-0.7,1.7-0.9,2.5-0.3l17.3,11
			c0.6,0.4,0.9,1,0.8,1.6c-0.7,5.9-3.1,11-6.9,15.2c-5,5.5-11,9.7-17.7,12.5C12562.6,1648.1,12562.3,1648.1,12562,1648.1
			L12562,1648.1z M12568.9,1611.3c-3.4,4.6-14,20.5-6.1,32.9c5.6-2.6,10.7-6.3,15-11c3.2-3.5,5.2-7.7,6-12.5L12568.9,1611.3z"/>
		<path class="st16" d="M12584.7,1621.4l-0.1-0.1c-0.8-0.6-0.9-1.6-0.3-2.3c0.6-0.7,1.8-0.8,2.6-0.3c0.8,0.5,0.9,1.6,0.3,2.3
			c-0.4,0.5-1,0.7-1.5,0.7C12585.4,1621.7,12585,1621.6,12584.7,1621.4z"/>
		<path class="st19" d="M12153.8,2957.7c-66.4-6.7-163.4-37.1-169.3-54.2c-8.3-24,12.6-52,12.6-52s52.4,37,70.7,37.9
			c18.3,0.9,18-18.3,39-9.6c11.1,4.6,39.8,17,64.2,31.5C12195.5,2925.8,12182.6,2960.6,12153.8,2957.7L12153.8,2957.7z"/>
		<path class="st17" d="M12155.3,2959.4c-0.5,0-1.1-0.1-1.6-0.1l0,0c-63.5-6.5-164.4-36.7-170.9-55.4c-8.5-24.5,12-52.3,12.8-53.5
			c0.3-0.4,0.7-0.6,1.2-0.7c0.5,0,1,0.1,1.4,0.3c0.5,0.4,52,36.5,69.6,37.5l0.1,0c7.2,0.4,11.2-2.7,15.4-5.9
			c5.6-4.3,11.4-8.8,24.4-3.5c11.2,4.6,39.8,17,64.5,31.7c13.5,8.1,15.8,21.8,12,31.8C12179.7,2953.4,12168.5,2960.2,12155.3,2959.4
			L12155.3,2959.4z M12153.8,2957.7L12153.8,2957.7L12153.8,2957.7z M12097.9,2879.1c-5.3-0.3-8.5,2.2-12.3,5.1
			c-4.3,3.3-9.2,7.1-17.9,6.7l-0.1,0c-17.1-1-60.9-30.8-70-37.1c-4,6-18.2,29.2-11.3,49.1c5.6,16,101.2,46.3,167.8,53l0,0
			c14.9,1.5,23.5-7.4,26.6-15.4c3.1-8.1,2.2-20.3-10.5-27.9c-24.4-14.5-52.9-26.8-64-31.4
			C12102.9,2880,12100.2,2879.3,12097.9,2879.1L12097.9,2879.1z"/>
	</g>
</g>
<g id="character_00000137128489058710741590000018385300357604953254_">
	<path class="st15" d="M1432,2218.4c-52.1,113.7-94.7,238.9-23.5,278.2c0,0-34.6,76.5-48.7,138.9c-11.8,52.1-35.1,136.5-42.5,163.2
		c-1.5,5.3,0.8,10.9,5.5,13.7c14.5,8.7,49.3,23.9,105.3,14.9c4.3-0.7,8-3.6,9.5-7.7c12.8-33.1,72.3-185.4,110.5-243.6
		c0,0,67.2,78.8,123.1,107.1v-154.7l-33.9-49.1c0,0,53.5-55,60.9-125c7.4-69.9-6.6-110.2-6.6-110.2L1432,2218.4L1432,2218.4z"/>
	<path class="st16" d="M1394.6,2832.1c-36.5,0-60.5-10.5-72.9-18c-5.5-3.3-8.2-9.9-6.4-16.1c7-25,30.7-110.8,42.5-163
		c12.8-56.8,42.9-125.8,48-137.6c-73.4-43-21.4-180.2,24.3-279.9c0.4-0.8,1.2-1.3,2.1-1.2l259.7,25.7c0.8,0.1,1.5,0.6,1.8,1.4
		c0.1,0.4,14,41.6,6.7,111.1c-6.8,64-52.3,116.3-60.3,124.9l32.9,47.7c0.3,0.3,0.4,0.8,0.4,1.2V2683c0,0.7-0.4,1.4-1,1.8
		c-0.6,0.4-1.4,0.4-2.1,0.1c-50.5-25.5-110.7-92.7-121.9-105.5c-38.3,59.9-97.2,210.9-108.8,240.9c-1.8,4.7-6.1,8.2-11.2,9
		C1416.1,2831.3,1404.8,2832.1,1394.6,2832.1L1394.6,2832.1z M1433.3,2220.6c-93.9,205.5-58.6,254.8-23.8,274.1
		c1,0.5,1.3,1.7,0.9,2.7c-0.3,0.8-34.7,77-48.5,138.6c-11.8,52.4-35.5,138.2-42.5,163.2c-1.2,4.4,0.7,9,4.6,11.4
		c15.4,9.2,49.3,23.4,103.9,14.6c3.6-0.6,6.6-3,7.9-6.4c11.7-30.5,72.2-185.4,110.7-244c0.4-0.5,1-0.9,1.6-0.9
		c0.7,0,1.3,0.3,1.7,0.7c0.7,0.8,65.2,76,119.4,105v-150.6l-33.5-48.5c-0.6-0.8-0.5-1.9,0.2-2.6c0.5-0.5,53.1-55.4,60.3-123.7
		c6.5-61.8-3.8-100.7-6.1-108L1433.3,2220.6L1433.3,2220.6z"/>
	<path class="st16" d="M1408.4,2498.7c0,0-0.4,0-0.6-0.1c-1.1-0.3-1.8-1.5-1.4-2.6c0.3-1.2,34.2-118.4,90.6-198.9
		c0.7-1,2-1.2,2.9-0.5c1,0.7,1.2,2,0.5,2.9c-56,79.9-89.6,196.4-90,197.6C1410.2,2498.1,1409.4,2498.7,1408.4,2498.7L1408.4,2498.7z
		"/>
	<path class="st16" d="M1548.1,2578.1c-0.4,0-0.8-0.1-1.2-0.4c-1-0.7-1.2-2-0.5-2.9c15.7-22.1,38.2-44.4,58-64
		c12.9-12.8,24-23.8,31.3-32.8c0.7-0.9,2.1-1,2.9-0.3c0.9,0.7,1,2.1,0.3,2.9c-7.4,9.2-18.6,20.3-31.6,33.1
		c-19.7,19.5-42.1,41.7-57.6,63.5C1549.4,2577.8,1548.8,2578.1,1548.1,2578.1L1548.1,2578.1z"/>
	<path class="st15" d="M1416.1,1949.7c29.9,51.6,220.9,25.6,258.4,1.2c37.5-24.4,23.3-70.3,7.4-103.5
		c-13.9-29.1-38.9-51.3-70.2-98.6c-4.5-6.7-9-13.9-13.7-21.7c-10.8-18-20.5-32.7-30.3-44.6c-24.4-29.8-49-41.9-90.1-41.6
		c-28.4-10.1-47.8,3.8-62.3,26.3c-4.1,6.3-7.8,13.3-11.2,20.7c-8.5,18.3-7.2,30.6-5.6,43c1.3,10.4,2.7,20.9-1.2,35
		c-8.7,31.1,5,46.5,11.8,78.5C1415.8,1876.4,1386.1,1898,1416.1,1949.7L1416.1,1949.7z"/>
	<path class="st16" d="M1517.2,1981.6c-22.2,0-43.3-1.8-60.6-5.9c-21.6-5.1-35.8-13.6-42.4-24.9c-19.3-33.3-14.3-54.7-9.8-73.6
		c2.6-10.8,4.9-20.9,2.6-32.2c-2.1-9.9-4.8-18-7.4-25.9c-5.6-17-10.5-31.7-4.4-53.6c3.7-13.3,2.5-23.4,1.3-33.3l-0.1-0.9
		c-1.5-11.7-3.1-24.9,5.8-44.1c3.8-8.2,7.5-15,11.4-20.9c17.7-27.4,38.8-36.3,64.4-27.3c0.4,0,0.9,0,1.3,0c39.9,0,65.2,12,90,42.3
		c9.1,11.2,18.5,25,30.4,44.9c4.6,7.7,9.1,14.8,13.6,21.6c14.1,21.2,26.7,37.2,38,51.4c13.8,17.5,24.7,31.2,32.4,47.4
		c24.4,51.1,21.6,86.8-8.2,106.2C1653.2,1967.3,1580.5,1981.6,1517.2,1981.6L1517.2,1981.6z M1459.5,1639.6
		c-16.2,0-29.9,9.4-42.4,28.8c-3.8,5.8-7.4,12.4-11.1,20.4c-8.4,18.1-6.9,30.2-5.4,41.9l0.1,0.9c1.3,10.3,2.6,20.8-1.4,34.9
		c-5.8,20.8-1.3,34.2,4.3,51.2c2.5,7.6,5.4,16.2,7.5,26.3c2.6,12.2,0.1,22.8-2.6,34.1c-4.5,19-9.1,38.7,9.4,70.6l0,0
		c6,10.4,19.4,18.1,39.8,23c65.7,15.7,185.8-3.1,215.7-22.4c28.2-18.3,30.3-51.3,6.7-100.9c-7.5-15.8-18.3-29.4-31.9-46.6
		c-11.3-14.2-24-30.3-38.2-51.7c-4.6-6.9-9.1-14-13.7-21.8c-11.6-19.4-21.2-33.5-30-44.4c-24.6-30-48.5-41.2-88.4-40.8
		c-0.2-0.1-0.5,0-0.7-0.1C1470.8,1640.8,1465.1,1639.6,1459.5,1639.6L1459.5,1639.6z"/>
	<path class="st17" d="M1371.7,1932.6c0,0,29.2-61,82.8-83.9c53.6-22.9,174.4-15,203.7,37.2c29.3,52.2,74.3,268,77.9,300.2
		c3.6,32.2-28.6,44.3-28.6,44.3l-1.4,28.6c0,0-102.2,30.7-185.1,12.1c-82.9-18.6-122.9-34.3-122.9-34.3l18.6-215.8L1371.7,1932.6
		L1371.7,1932.6z"/>
	<path class="st15" d="M1313.6,1875.6l38.6-8.4l13,64.8c0,0,42.3-16.7,75.7-24.2c33.4-7.5,83.7-5.2,83.7-5.2l36.6,192.2l-16.2,9
		L1361.2,1989l-35.9-62.6L1313.6,1875.6L1313.6,1875.6z"/>
	<path class="st16" d="M1544.9,2106c-0.4,0-0.8-0.1-1.1-0.3L1360,1990.8c-0.3-0.2-0.5-0.4-0.7-0.7l-35.9-62.6c0,0-0.2-0.4-0.2-0.6
		l-11.6-50.8c-0.1-0.5,0-1.1,0.3-1.6c0.3-0.5,0.8-0.8,1.3-0.9l38.6-8.4c0.5-0.1,1.1,0,1.6,0.3c0.5,0.3,0.8,0.8,0.9,1.3l12.5,62.3
		c9.3-3.6,45-16.9,73.7-23.4c33.3-7.4,83.8-5.3,84.3-5.2c1,0,1.8,0.8,2,1.7l36.6,192.2c0.2,0.9-0.3,1.8-1,2.2l-16.2,9
		C1545.7,2105.9,1545.4,2105.9,1544.9,2106L1544.9,2106z M1362.7,1987.6l182.3,113.9l13.8-7.7l-36-189.1c-9-0.3-52.2-1.4-81.6,5.2
		c-32.8,7.4-74.9,23.9-75.4,24.1c-0.6,0.3-1.2,0.2-1.8-0.1c-0.5-0.3-0.9-0.8-1-1.4l-12.6-62.7l-34.4,7.4l11.1,48.5l35.5,61.8
		L1362.7,1987.6z"/>
	<path class="st17" d="M1308.1,1875.6l33.9,73.2l19.7,9.8c0,0,85.2-32,151.2-28.3l35.3,197.6c0,0-92.3,25.2-150.1,11.7l-19.4-12.3
		l-46.4-156.3L1308.1,1875.6L1308.1,1875.6z"/>
	<path class="st16" d="M1437.8,2145.7c-14.2,0-28-1.1-40.3-4c-0.2,0-0.5-0.2-0.6-0.3l-19.4-12.3c-0.4-0.3-0.8-0.7-0.9-1.2
		l-46.4-156.3l-24-95.5c-0.3-1,0.3-2.1,1.3-2.5c1-0.4,2.1,0.1,2.6,1.1l33.5,72.6l18.2,9.1c9.2-3.3,89-31.6,151.2-28.1
		c1,0,1.8,0.8,1.9,1.7l35.3,197.6c0.2,1-0.5,2.1-1.5,2.4C1548,2130.1,1490.4,2145.6,1437.8,2145.7L1437.8,2145.7z M1398.8,2137.7
		c52.2,12.1,133.7-7.9,147-11.3l-34.6-194c-64.6-3.1-147.8,28-148.7,28.2c-0.5,0.2-1.1,0.2-1.7-0.1l-19.7-9.8c-0.4-0.2-0.8-0.5-1-1
		l-24.4-52.9l18.5,73.7l46.2,155.5L1398.8,2137.7L1398.8,2137.7z"/>
	<path class="st15" d="M1326,1974c-7.5-4.2-8-11.4-4.4-13.9s17.2-3.6,20.3,0c3.1,3.6,0.4,10.6-3.8,11.3
		C1333.8,1971.9,1326,1974,1326,1974L1326,1974z"/>
	<path class="st16" d="M1326,1976.1c-0.3,0-0.7-0.1-1-0.3c-4.6-2.6-7.4-6.5-7.6-10.7c-0.2-2.8,1-5.4,3-6.8c4-2.8,19-4.4,23.1,0.3
		c2,2.2,2.4,5.6,1.2,8.9c-1.2,3.2-3.6,5.4-6.4,5.8c-4.1,0.6-11.7,2.6-11.8,2.6C1326.4,1976.1,1326.2,1976.1,1326,1976.1L1326,1976.1
		z M1332.9,1959.8c-4,0-8.5,0.8-10.2,2c-0.9,0.6-1.3,1.8-1.3,3.2c0.1,2.5,1.9,5,4.8,6.8c2.2-0.6,7.9-2,11.4-2.5
		c1.2-0.2,2.4-1.4,3-3.1c0.5-1.4,0.7-3.4-0.4-4.7C1339.3,1960.3,1336.3,1959.8,1332.9,1959.8L1332.9,1959.8z"/>
	<path class="st15" d="M1330.6,1984.6c0,0-11.8-5.6-8.5-11.8c3.3-6.3,21.1-6.2,22.8-3.3c1.7,2.8-1.3,10.6-6.9,11.3
		C1332.4,1981.4,1330.6,1984.6,1330.6,1984.6z"/>
	<path class="st16" d="M1330.6,1986.7c-0.3,0-0.6,0-0.9-0.2c-0.8-0.4-8.2-4-9.9-9.2c-0.6-1.9-0.5-3.8,0.4-5.5
		c2.9-5.6,12.8-6.2,15.7-6.3c2.7,0,9.1,0.1,10.7,2.9c1.2,2.1,0.9,5.3-0.6,8.4c-1.8,3.4-4.6,5.6-7.8,6c-4.3,0.5-5.7,2.8-5.8,2.8
		C1332,1986.3,1331.3,1986.7,1330.6,1986.7L1330.6,1986.7z M1336.8,1969.7c-1.8,0-3.9,0.2-6.1,0.6c-3.5,0.7-6,2-6.8,3.5
		c-0.4,0.8-0.4,1.5-0.2,2.3c0.8,2.4,4.1,4.7,6.3,6c1.3-1.3,3.7-2.9,7.7-3.3c2.5-0.3,4-2.7,4.5-3.7c1-2,1.1-3.8,0.8-4.4
		C1342.6,1970.2,1340.1,1969.7,1336.8,1969.7L1336.8,1969.7z"/>
	<path class="st15" d="M1332.7,1997.8c0,0-13.3-4.9-10.1-12.8c3.1-7.9,23-8.6,25.1-4.4c2.1,4.2,2.5,8.9-6.2,13L1332.7,1997.8
		L1332.7,1997.8z"/>
	<path class="st16" d="M1332.7,1999.9c-0.3,0-0.5,0-0.7-0.1c-0.3-0.1-8.7-3.2-11.3-8.9c-1-2.2-1-4.4-0.1-6.6
		c2.3-5.7,10.7-8,17.2-8.2c2.9-0.1,9.9,0,11.7,3.7c1,2,2.1,5,1,8.3c-1,3-3.7,5.4-8.2,7.5l-8.7,4.1
		C1333.3,1999.9,1333,1999.9,1332.7,1999.9z M1339.1,1980.3c-1,0-2,0-3.1,0.2c-5.9,0.6-10.3,2.8-11.4,5.4c-0.5,1.2-0.5,2.2,0,3.3
		c1.3,3,5.7,5.4,8.1,6.4l7.9-3.7c3.3-1.6,5.4-3.3,6-5.1c0.5-1.4,0.3-3-0.8-5.1C1345.4,1981.1,1342.9,1980.3,1339.1,1980.3z"/>
	<path class="st15" d="M1345.3,2015.4c0,0-17.2-7.5-18.1-15.5c-1-8,11-12.6,18.1-10.3c7.2,2.3,2.8,8.7-4.9,9.5L1345.3,2015.4
		L1345.3,2015.4z"/>
	<path class="st16" d="M1345.3,2017.5c-0.3,0-0.6,0-0.8-0.2c-1.9-0.8-18.3-8.3-19.3-17.2c-0.4-3.4,1-6.7,4.1-9.2
		c4.4-3.6,11.6-5.1,16.7-3.4c5,1.6,5.2,4.8,5.1,6.1c-0.3,3.1-3.6,5.9-7.9,7l4.2,14.1c0.3,0.8,0,1.6-0.6,2.2
		C1346.3,2017.3,1345.8,2017.4,1345.3,2017.5L1345.3,2017.5z M1341.2,1991.1c-3.3,0-6.9,1.2-9.3,3.1c-1.3,1.1-2.9,2.9-2.6,5.4
		c0.5,3.9,6.9,8.6,12.7,11.7l-3.5-11.7c-0.2-0.6-0.1-1.3,0.3-1.8c0.3-0.5,0.9-0.8,1.5-0.9c4.2-0.5,6.5-2.6,6.6-3.7
		c0.1-0.7-1.1-1.3-2.2-1.7C1343.7,1991.3,1342.5,1991.1,1341.2,1991.1L1341.2,1991.1z"/>
	<polygon class="st18" points="1341.9,1948.8 1378.6,2127.3 1397.9,2139.7 1361.7,1958.7 	"/>
	<path class="st16" d="M1397.9,2141.8c-0.4,0-0.8-0.1-1.1-0.3l-19.4-12.3c-0.5-0.3-0.8-0.8-0.9-1.3l-36.6-178.5
		c-0.2-0.8,0.1-1.6,0.8-2.1c0.6-0.5,1.5-0.6,2.2-0.2l19.7,9.8c0.6,0.3,1,0.8,1.1,1.5l36.3,180.9c0.2,0.8-0.2,1.7-0.9,2.1
		C1398.8,2141.6,1398.4,2141.8,1397.9,2141.8L1397.9,2141.8z M1380.4,2126.1l14.5,9.2l-35.2-175.1l-14.9-7.4L1380.4,2126.1
		L1380.4,2126.1z"/>
	<path class="st15" d="M1512.8,2098.6c0,0-35.4-12.6-48.5-23.1c-13.1-10.5-24.9-49.9-35-48.6s1.8,49.9,1.8,49.9s-20.6-2.6-33.3-11.8
		c-12.7-9.2-35-28.9-43.3-28c-8.3,0.9,26.7,37.6,26.7,37.6s-21.4-8.3-25.8-5.7c-4.4,2.6,19.7,18.4,19.7,18.4s-9.4-1.9-11.2,3.8
		c-1.8,5.7,14.7,12.9,14.7,12.9s-11.9,5,0.8,13.8s29,21,48.2,21.9c19.2,0.9,46.4-2,46.4-2l31.1,22.3
		C1505.1,2160,1507.2,2120.8,1512.8,2098.6L1512.8,2098.6z"/>
	<path class="st16" d="M1505,2162c-0.4,0-0.9-0.1-1.2-0.4l-30.4-21.8c-4.6,0.5-28.5,2.7-45.9,1.9c-18.5-0.8-34.1-11.7-46.7-20.4
		l-2.6-1.8c-4.8-3.3-7.1-6.7-6.7-10.1c0.2-2.2,1.5-3.9,2.8-5.1c-5.6-2.8-14.1-8.2-12.4-13.8c1-3.1,3.5-4.6,6.4-5.2
		c-7.4-5.2-15.6-11.8-15.5-15.4c0-1.1,0.6-2.1,1.5-2.6c3.3-2,12.3,0.3,19.5,2.6c-11.1-12.1-24.2-27.8-22.4-32.7
		c0.5-1.2,1.5-2,2.9-2.1c6.7-0.8,18.5,8.1,34.5,20.5c3.8,2.9,7.3,5.7,10.3,7.8c9.3,6.7,23.2,9.8,29.3,11c-2.3-10.1-8.3-39.3-3-47
		c1.2-1.7,2.7-2.3,3.7-2.4c6.9-0.9,12.7,10,20,23.9c5.4,10.1,10.9,20.6,16.6,25.1c12.7,10.2,47.6,22.6,47.9,22.8
		c1,0.4,1.6,1.4,1.3,2.5c-5.6,21.8-7.7,60.6-7.7,60.9c0,0.8-0.5,1.5-1.2,1.8c-0.3,0.1-0.6,0.2-0.9,0.2L1505,2162z M1473.9,2135.5
		c0.4,0,0.9,0.1,1.2,0.4l28,20.1c0.7-10.1,2.8-37.7,7.2-56.1c-7.4-2.8-35.7-13.4-47.3-22.8c-6.3-5.1-12.1-15.9-17.7-26.4
		c-5.2-9.9-11.7-22.3-15.8-21.7c-0.1,0-0.4,0-0.8,0.6c-3.8,5.5,0.6,31.6,4.3,46.7c0.2,0.7,0,1.4-0.5,1.9c-0.5,0.5-1.1,0.8-1.8,0.7
		c-0.9-0.1-21.3-2.8-34.2-12.2c-3-2.2-6.6-5-10.4-8c-10.5-8.2-24.8-19.4-30.8-19.7c1.2,4.6,14.6,20.8,27.3,34.1
		c0.7,0.7,0.8,1.8,0.2,2.6c-0.5,0.8-1.6,1.1-2.5,0.8c-10-3.8-19.9-6.4-23.1-6.1c2,2.9,10.8,9.8,18.9,15.1c0.8,0.5,1.2,1.6,0.8,2.6
		s-1.4,1.5-2.3,1.3c-0.1,0-7.6-1.4-8.7,2.3c-0.7,2.2,6.6,7.3,13.5,10.3c0.8,0.3,1.3,1.1,1.3,1.9s-0.5,1.6-1.3,1.9
		c-0.9,0.4-3.6,2-3.8,3.9c-0.2,1.7,1.6,3.9,4.9,6.2l2.7,1.8c12.1,8.4,27.2,18.9,44.5,19.7c18.9,0.8,45.8-1.9,46.1-2
		C1473.9,2135.4,1473.9,2135.4,1473.9,2135.5L1473.9,2135.5z"/>
	<path class="st16" d="M1408.4,2094c0,0-0.3,0-0.5-0.1c-10.3-2.6-27.4-17.2-28.1-17.8c-0.9-0.8-1-2.1-0.3-3c0.8-0.9,2.1-1,2.9-0.2
		c0.2,0.1,17,14.5,26.4,16.9c1.1,0.3,1.8,1.4,1.5,2.6C1410.2,2093.3,1409.3,2094,1408.4,2094L1408.4,2094z"/>
	<path class="st16" d="M1410.4,2106.5c0,0-0.4,0-0.6-0.1c-0.9-0.3-21.6-6.9-35.9-17.5c-0.9-0.7-1.1-2-0.5-2.9s2-1.1,2.9-0.5
		c13.8,10.1,34.5,16.8,34.7,16.8c1.1,0.3,1.7,1.5,1.4,2.6C1412.1,2105.9,1411.3,2106.5,1410.4,2106.5L1410.4,2106.5z"/>
	<path class="st16" d="M1410.4,2121.5c-0.3,0-0.5,0-0.8-0.2c-0.8-0.3-19.2-7.9-32.1-15.7c-1-0.6-1.3-1.9-0.7-2.9
		c0.6-1,1.9-1.3,2.9-0.7c12.6,7.6,31.4,15.3,31.6,15.4c1.1,0.5,1.6,1.7,1.1,2.7C1412,2121,1411.2,2121.5,1410.4,2121.5
		L1410.4,2121.5z"/>
	<path class="st17" d="M1634.7,2104.4c0,0-116.2-21.4-121.9-5.9c0,0-8,43.9-7.8,61.3c0,0,0.7,16.5,10.8,22.5
		c10.1,6,93.7,43.1,175.9,48.1"/>
	<path class="st16" d="M1691.7,2232.5c0,0-0.1,0-0.1,0c-83.5-5.1-168.4-43.4-176.8-48.4c-11-6.5-11.8-23.4-11.8-24.2
		c-0.2-17.5,7.5-60,7.9-61.8c6.1-16.7,104.6,0.5,124.3,4.1c1.1,0.2,1.9,1.3,1.7,2.4c-0.2,1.1-1.3,1.9-2.4,1.7
		c-56.2-10.4-116.4-15.9-119.6-7.2c0,0.1-7.9,43.6-7.7,60.6c0,0.1,0.8,15.4,9.8,20.7c8.3,4.9,92.2,42.8,175,47.8
		c1.2,0.1,2.1,1,2,2.2C1693.7,2231.6,1692.8,2232.5,1691.7,2232.5L1691.7,2232.5z"/>
	<path class="st16" d="M1556.2,2096.4c-1,0-1.8-0.7-2.1-1.7l-37.4-182.9c-6.3-0.5-31.4-1.8-63.5,2.4c-37,4.9-92.2,27-92.7,27.2
		c-1.1,0.4-2.3-0.1-2.7-1.2c-0.4-1.1,0.1-2.3,1.2-2.7c0.5-0.2,56.2-22.5,93.7-27.5c37.6-5,65.7-2.3,66-2.3c0.9,0.1,1.7,0.8,1.8,1.7
		l37.7,184.4c0.3,1.1-0.5,2.3-1.6,2.5C1556.5,2096.3,1556.3,2096.3,1556.2,2096.4L1556.2,2096.4z"/>
	<path class="st16" d="M1356.3,1950.9c-0.9,0-1.8-0.6-2-1.5c-0.3-1.1,0.4-2.3,1.5-2.6c0.1,0,12.2-3.2,38.3-13.4
		c27.6-10.8,83.9-16.6,113.8-14.4c1.2,0.1,2,1.1,1.9,2.3c-0.1,1.1-1.1,2-2.3,1.9c-29.5-2.2-84.8,3.5-111.9,14.1
		c-26.4,10.3-38.3,13.4-38.8,13.6C1356.6,1950.9,1356.5,1951,1356.3,1950.9L1356.3,1950.9z"/>
	<path class="st16" d="M1345.3,1943.2c-0.9,0-1.7-0.6-2-1.5l-18.2-59c-0.3-1.1,0.3-2.3,1.4-2.6c1.1-0.3,2.3,0.3,2.6,1.4l18.2,59
		c0.3,1.1-0.3,2.3-1.4,2.6C1345.7,1943.2,1345.5,1943.2,1345.3,1943.2L1345.3,1943.2z"/>
	<path class="st16" d="M1351.4,1940.9c-1.1,0-2-0.8-2.1-1.8c-0.4-2.1-9.2-37-15.1-60c-0.3-1.1,0.4-2.3,1.5-2.6s2.3,0.4,2.6,1.5
		c15.3,59.8,15.3,60.5,15.3,60.8C1353.5,1940,1352.6,1940.9,1351.4,1940.9z"/>
	<path class="st16" d="M1357.3,1932.9c-1,0-1.8-0.7-2.1-1.6l-12-55.2c-0.3-1.1,0.5-2.3,1.6-2.5c1.1-0.3,2.3,0.5,2.5,1.6l12,55.2
		c0.3,1.1-0.5,2.3-1.6,2.5C1357.6,1932.9,1357.5,1932.9,1357.3,1932.9L1357.3,1932.9z"/>
	<path class="st16" d="M1637.4,2113.8c-0.8,0-1.7-0.5-2-1.4c-0.1-0.3-8.7-23.9-19.3-54.8c-9.2-26.8-42.9-159.4-17.2-180.7
		c0.9-0.8,2.2-0.6,2.9,0.3c0.8,0.9,0.6,2.2-0.3,2.9c-21.3,17.7,5.4,137.8,18.5,176.1c10.6,30.9,19.2,54.5,19.3,54.7
		c0.4,1.1-0.2,2.3-1.3,2.7C1637.8,2113.7,1637.5,2113.8,1637.4,2113.8L1637.4,2113.8z"/>
	<path class="st18" d="M1437.4,1867.2c-5.5,16-9.2,43.7-9.2,43.7"/>
	<path class="st16" d="M1428.1,1913.1c0,0-0.2,0-0.3,0c-1.1-0.2-2-1.2-1.8-2.3s3.8-28.2,9.3-44.1c0.4-1.1,1.5-1.7,2.7-1.3
		c1.1,0.4,1.7,1.5,1.3,2.7c-5.4,15.6-9.1,43.1-9.1,43.3C1430.1,1912.4,1429.2,1913.1,1428.1,1913.1L1428.1,1913.1z"/>
	<path class="st15" d="M1532.3,1789.3c5.7,28.5,14.9,61.1,14.9,61.1s-3,28.1-30.9,34.6c-27.9,6.5-32.3-17.4-33-22.4
		c-0.7-5,1-21.7,0.9-27.2C1484.1,1830.1,1532.3,1789.3,1532.3,1789.3L1532.3,1789.3z"/>
	<path class="st16" d="M1507.4,1888.3c-5.6,0-10.4-1.4-14.4-4.2c-8.8-6.1-11.1-16.8-11.7-21.2c-0.4-3.2,0-10.2,0.4-16.9
		c0.3-4.3,0.5-8.3,0.5-10.5c-0.1-5.6,30.5-32.4,48.8-47.9c0.6-0.5,1.3-0.6,2.1-0.4c0.7,0.3,1.2,0.8,1.4,1.5
		c5.6,28,14.8,60.6,14.9,61c0.1,0.3,0.1,0.5,0.1,0.8c0,0.3-3.5,29.7-32.5,36.5C1513.6,1888,1510.4,1888.3,1507.4,1888.3
		L1507.4,1888.3z M1531,1793.2c-21.7,18.5-43.7,38.8-44.7,42.5c0.1,2.1-0.2,6.2-0.5,10.6c-0.4,6.3-0.8,13.3-0.4,16.1
		c0.5,3.8,2.5,13.2,9.9,18.3c5.1,3.6,12.1,4.4,20.5,2.3c24.6-5.8,28.8-29,29.3-32.5C1544.1,1846.9,1536.3,1818.8,1531,1793.2
		L1531,1793.2z"/>
	<path class="st15" d="M1408.4,1721.4c0,0-18,77.5,15.5,104.9s109.2,13.9,126.4-38.3c0,0,17.2,15.8,28.2-3.9s-7.7-37.9-27.6-26.4
		c0,0-9.9-19.5-49-28.5s-61.1-30.9-61.1-30.9S1435.3,1712,1408.4,1721.4L1408.4,1721.4z"/>
	<path class="st16" d="M1468.4,1842.2c-17.9,0-34.4-4.9-45.9-14.4c-34.1-27.9-16.9-103.7-16.2-107c0.2-0.7,0.7-1.3,1.3-1.5
		c25.5-8.8,31.1-21.8,31.1-21.9c0.3-0.6,0.8-1.1,1.5-1.3c0.7-0.1,1.4,0.1,1.9,0.5c0.2,0.2,22.1,21.6,60.1,30.3
		c33.1,7.6,45.8,22.5,49.3,27.7c9.5-4.7,19.7-3.6,26.3,3c6.9,6.8,7.8,17.5,2.3,27.2c-3.6,6.3-8.1,10-13.5,10.8
		c-6.4,1-12.4-2.2-15.6-4.4c-8.3,22.1-28,39-54.3,46.7C1487.4,1840.9,1477.7,1842.3,1468.4,1842.2L1468.4,1842.2z M1410.2,1723
		c-2,9.5-14.9,77.2,15,101.7c16.4,13.4,44.1,17.2,70.6,9.5c26.1-7.6,45.2-24.6,52.5-46.7c0.2-0.7,0.8-1.2,1.5-1.4
		c0.7-0.2,1.4,0,1.9,0.5c0.1,0,7.2,6.5,14.5,5.3c4.1-0.7,7.6-3.6,10.5-8.7c5.5-9.8,2.8-17.9-1.6-22.2c-5.7-5.6-14.7-6.2-23.1-1.3
		c-0.5,0.3-1.1,0.3-1.6,0.2c-0.5-0.2-1-0.5-1.3-1c-0.1-0.2-10.1-18.8-47.6-27.4c-33-7.6-53.8-24-60.1-29.5
		c-2.9,4.6-11.1,14.1-31.1,21.3L1410.2,1723z"/>
	<path class="st16" d="M1472.8,1748.3c8.1-5.7,19.5-6.4,28.2-1.8c1,0.6,1.4,1.9,0.8,2.9c-0.4,0.7-1,1.1-1.8,1.1
		c-4.6,0.2-8.7,0.1-12.9,0.3c-3.6,0.1-8.9,0.8-12.6,1.2C1472.4,1752.6,1471,1749.7,1472.8,1748.3L1472.8,1748.3L1472.8,1748.3z"/>
	<path class="st16" d="M1407.2,1743.5c10.3-3.6,21.8-2.8,31.6,1.8c2,0.9,1.2,4.1-0.9,4.1c-7.4,0-15.1-1-22.4-1.3l-7.3-0.4h-0.3
		C1405.7,1747.5,1405.2,1744.2,1407.2,1743.5L1407.2,1743.5L1407.2,1743.5z"/>
	<path class="st16" d="M1436.7,1793.5c-4.5,0-8-2.9-9.1-7.7c-0.6-2.7-0.2-5.3,1.3-7.3c2.6-3.6,7.7-4.9,10.5-5.3
		c-0.1-4-0.7-13.9-3.1-25.5c-0.3-1.1,0.5-2.3,1.6-2.5c1.1-0.3,2.2,0.5,2.5,1.6c3.2,15.4,3.2,27.7,3.2,28.2c0,1.1-0.8,2-1.9,2.1
		c-1.9,0.1-7.4,1.1-9.4,3.9c-0.8,1-1,2.3-0.6,3.9c1,4.5,4.3,4.6,6.1,4.4c3.7-0.5,7.4-3.9,7.2-8.1c-0.1-1.2,0.8-2.1,2-2.2
		c1.2,0,2.1,0.8,2.2,2c0.5,6.7-5.2,11.7-10.8,12.5C1437.8,1793.6,1437.2,1793.6,1436.7,1793.5L1436.7,1793.5z"/>
	<path class="st16" d="M1490.3,1768c-0.3,4.6-3.1,8.2-6.3,8c-3.2-0.2-5.6-4.1-5.3-8.7c0.1-1.4,0.4-2.7,0.9-3.8l5.3,3.3l-2.2-6.9
		c0.7-0.4,1.5-0.6,2.3-0.5C1488.2,1759.4,1490.6,1763.3,1490.3,1768L1490.3,1768z"/>
	<path class="st16" d="M1427,1764.3c-0.3,4.6-3.1,8.2-6.3,8c-3.2-0.2-5.6-4.1-5.3-8.7c0.1-1.4,0.4-2.7,0.9-3.8l5.3,3.3l-2.2-6.9
		c0.7-0.4,1.5-0.6,2.3-0.5C1424.8,1755.8,1427.2,1759.7,1427,1764.3L1427,1764.3z"/>
	<path class="st16" d="M1459.4,1814.9c-4.1,0-8.5-1.8-12.7-5.4c-0.9-0.8-1-2.1-0.3-2.9c0.8-0.9,2.1-1,2.9-0.3
		c4.4,3.7,8.9,5.1,12.5,4c3.1-1,5.6-3.8,6.7-7.8c0.3-1.1,1.5-1.8,2.6-1.4c1.1,0.3,1.8,1.5,1.4,2.6c-1.5,5.4-5,9.3-9.5,10.7
		C1462,1814.8,1460.7,1814.9,1459.4,1814.9L1459.4,1814.9z"/>
	<path class="st16" d="M1568.2,1775.7c-0.8,0-1.6-0.5-2-1.3c-1.1-2.8-2.7-4.6-4.9-5.5c-4.5-1.7-9.9,0.9-10,1c-1,0.5-2.3,0.1-2.8-0.9
		c-0.5-1-0.1-2.3,0.9-2.8c0.3-0.2,7.1-3.5,13.3-1.1c3.3,1.3,5.8,3.9,7.4,7.9c0.4,1.1-0.1,2.3-1.2,2.7
		C1568.7,1775.6,1568.4,1775.7,1568.2,1775.7L1568.2,1775.7z"/>
	<path class="st16" d="M1557.4,1787.9c-0.9,0-1.7-0.5-2-1.4c-0.4-1.1,0.2-2.3,1.3-2.6c1.8-0.6,3.1-2,4-4.1c1.7-4.2,0.8-9.9-0.2-11.7
		c-0.5-1-0.2-2.3,0.9-2.8c1-0.5,2.3-0.2,2.8,0.9c1.5,2.8,2.5,9.8,0.4,15.2c-1.3,3.2-3.5,5.5-6.5,6.5
		C1558,1787.9,1557.7,1787.9,1557.4,1787.9L1557.4,1787.9z"/>
	<path class="st17" d="M1432.2,2839.5l-11.9,90.6c-0.8,6.4-6.6,10.8-13,10l-167.4-20.7c-7-0.9-11.6-7.7-9.8-14.6l1-3.9
		c0,0,19.3-77.5,103.1-72.4C1334.2,2828.7,1373.9,2845.2,1432.2,2839.5L1432.2,2839.5z"/>
	<path class="st16" d="M1419.3,2924.7c0,0-0.2,0-0.3,0l-185.7-23c-1.1-0.1-2-1.2-1.8-2.3c0.1-1.1,1.2-1.9,2.3-1.8l185.7,23
		c1.1,0.1,2,1.2,1.8,2.3C1421.2,2924,1420.3,2924.8,1419.3,2924.7L1419.3,2924.7z"/>
	<path class="st16" d="M1374.5,2919.1c0,0-0.3,0-0.4,0c-1.1-0.2-1.9-1.3-1.6-2.5c0.1-0.4,8.8-41.3,54.5-38.1c1.2,0.1,2,1.1,1.9,2.3
		c-0.1,1.2-1.1,2.1-2.2,1.9c-42.1-3.1-50,34.4-50.1,34.8C1376.3,2918.5,1375.4,2919.2,1374.5,2919.1L1374.5,2919.1z"/>
	<path class="st16" d="M1333.1,2857.6c-0.6,0-1.1-0.3-1.5-0.7l-34.4-38.4c-0.8-0.9-0.7-2.2,0.2-3c0.8-0.8,2.2-0.7,3,0.2l34.4,38.4
		c0.8,0.9,0.7,2.2-0.2,3C1334.1,2857.4,1333.6,2857.6,1333.1,2857.6L1333.1,2857.6z"/>
	<path class="st16" d="M1313.1,2862.5c-0.6,0-1.1-0.3-1.5-0.7l-34.4-38.4c-0.8-0.9-0.7-2.2,0.2-3c0.9-0.8,2.2-0.7,3,0.2l34.4,38.4
		c0.8,0.9,0.7,2.2-0.2,3C1314.1,2862.3,1313.7,2862.5,1313.1,2862.5L1313.1,2862.5z"/>
</g>
</svg>
