<?xml version="1.0" encoding="utf-8"?>
<!-- Generator: Adobe Illustrator 27.2.0, SVG Export Plug-In . SVG Version: 6.00 Build 0)  -->
<svg version="1.1" id="Capa_1" xmlns="http://www.w3.org/2000/svg" xmlns:xlink="http://www.w3.org/1999/xlink" x="0px" y="0px"
	 viewBox="0 0 5775 2912.3" style="enable-background:new 0 0 5775 2912.3;" xml:space="preserve">
<style type="text/css">
	.st0{fill:#FEF4F2;}
	.st1{fill:#48AF94;}
	.st2{fill:#51BFA6;}
	.st3{fill:#58CCAA;}
	.st4{fill:#777777;}
	.st5{fill:#00847F;}
	.st6{fill:#EDDFA4;}
	.st7{fill:#FCEDB1;}
	.st8{fill:#EF7B41;}
	.st9{fill:#DD6C3A;}
	.st10{fill:#56C0EF;}
	.st11{fill:#F4E5A6;}
	.st12{fill:#A7ECF2;}
	.st13{fill:#EFEFEF;}
	.st14{fill:#F4E7B0;}
	.st15{fill:#FFFFFF;}
	.st16{fill:#732A09;}
	.st17{fill:#D13F3F;}
	.st18{fill:#F35454;}
	.st19{fill:#F05454;}
	.st20{fill:#DDDDDD;}
	.st21{fill:#F2F2F2;}
</style>
<g>
	<path class="st1" d="M2.1,1298.8c0,0,528.2-195.6,1060.7,67c0,0,361.8-583.9,962.8-111.3s1306,734.4,1728.7,594.7
		S4682,725.4,5166.9,872.9c0,0,192.4-349.8,608.1-218.8v1250.6H2.1V1298.8z"/>
	<path class="st2" d="M0,1904.7c0,0,903.7-718.1,1895.3-391.1s1697,212.2,2182.2,29.5s1130.4-501.5,1683.5-501.5v863.1H0z"/>
	<path class="st3" d="M574.1,1768.1c71.1-101.1,499.7-108.8,405.7-31.9c-94,76.9,868.8,53.6,699.8-68
		c-169-121.6,998.6,106.8,1454.2,60.2c16.3-1.5,32.2-4.6,47.3-9.2c-362.2,11.2-787.9-41.6-1285.9-205.5
		C903.7,1186.6,0,1904.7,0,1904.7h740.1C740.1,1904.7,503,1869.2,574.1,1768.1z"/>
	<path class="st3" d="M4080.6,1542.9c-154.7,58.4-318.9,103.3-488.8,133.8c0,0,348.4,23.1,838-181.3s922.5-234.5,742.2-110
		s-118.5,263.3,154.6,237.7c273.1-25.6,30.9,281.6-283.5,281.6H5775v-863.1C5218.3,1041.6,4568.9,1360.3,4080.6,1542.9z"/>
</g>
</svg>
