<?xml version="1.0" encoding="utf-8"?>
<!-- Generator: Adobe Illustrator 27.2.0, SVG Export Plug-In . SVG Version: 6.00 Build 0)  -->
<svg version="1.1" id="Capa_1" xmlns="http://www.w3.org/2000/svg" xmlns:xlink="http://www.w3.org/1999/xlink" x="0px" y="0px"
	 viewBox="0 0 5775 2912.3" style="enable-background:new 0 0 5775 2912.3;" xml:space="preserve">
<style type="text/css">
	.st0{fill:#FEF4F2;}
	.st1{fill:#48AF94;}
	.st2{fill:#51BFA6;}
	.st3{fill:#58CCAA;}
	.st4{fill:#777777;}
	.st5{fill:#00847F;}
	.st6{fill:#EDDFA4;}
	.st7{fill:#FCEDB1;}
	.st8{fill:#EF7B41;}
	.st9{fill:#DD6C3A;}
	.st10{fill:#56C0EF;}
	.st11{fill:#F4E5A6;}
	.st12{fill:#A7ECF2;}
	.st13{fill:#EFEFEF;}
	.st14{fill:#F4E7B0;}
	.st15{fill:#FFFFFF;}
	.st16{fill:#732A09;}
	.st17{fill:#D13F3F;}
	.st18{fill:#F35454;}
	.st19{fill:#F05454;}
	.st20{fill:#DDDDDD;}
	.st21{fill:#F2F2F2;}
</style>
<g>
	<g>
		<rect x="1963.8" y="2440.3" class="st20" width="107.2" height="672.9"/>
		<rect x="3800.1" y="2440.3" class="st20" width="107.2" height="672.9"/>
	</g>
	<g>
		<path class="st21" d="M4182.5,2691.8h-2494c-38.1,0-69.2-31.1-69.2-69.2v-623.5c0-38.1,31.1-69.2,69.2-69.2h2494
			c38.1,0,69.2,31.1,69.2,69.2v623.5C4251.7,2660.7,4220.6,2691.8,4182.5,2691.8z"/>
		<g>
			<path class="st18" d="M1858.1,2033.2v313c0,25.6,5.6,45.9,16.9,60.8c11.2,14.9,29.4,22.4,54.5,22.4c25.1,0,43.7-7.5,55.7-22.4
				c12-14.9,18-35.2,18-60.8v-313h173.4v313c0,52.8-11,97.9-32.9,135.3c-22,37.4-52,65.5-90.2,84.3c-38.2,18.8-80.8,28.2-127.9,28.2
				c-47.1,0-88.8-9.4-125.1-28.2c-36.4-18.8-64.7-46.8-85.1-83.9c-20.4-37.1-30.6-82.4-30.6-135.7v-313H1858.1z"/>
			<path class="st18" d="M2764.9,2588.5h-174.1l-184.3-279.3v279.3h-174.1v-555.4h174.1l184.3,284v-284h174.1V2588.5z"/>
			<path class="st18" d="M2997.9,2033.2v555.4h-174.1v-555.4H2997.9z"/>
			<path class="st18" d="M3397.2,2223c-6.8-11-16.5-19.5-29-25.5c-12.6-6-27.7-9-45.5-9c-33.5,0-59.4,10.9-77.7,32.6
				c-18.3,21.7-27.5,51.4-27.5,89c0,43.4,10.2,75.8,30.6,97.3c20.4,21.4,51.8,32.2,94.1,32.2c40.3,0,72.7-16.2,97.3-48.6h-138.8
				v-123.2h283.2v174.1c-24.1,41.3-57.3,76.8-99.6,106.3c-42.4,29.6-96,44.3-160.8,44.3c-57.5,0-107.6-11.9-150.2-35.7
				c-42.6-23.8-75.3-57.1-98.1-100c-22.7-42.9-34.1-91.8-34.1-146.7s11.4-103.8,34.1-146.7c22.8-42.9,55.3-76.2,97.7-100
				c42.4-23.8,92-35.7,149-35.7c72.7,0,131.9,17.5,177.7,52.6c45.8,35,72.8,82.6,81.2,142.8H3397.2z"/>
			<path class="st18" d="M4186.3,2033.2l-186.7,555.4h-225.1l-186.7-555.4h185.1l114.5,382l113.7-382H4186.3z"/>
		</g>
	</g>
</g>
</svg>
