<?xml version="1.0" encoding="utf-8"?>
<!-- Generator: Adobe Illustrator 27.2.0, SVG Export Plug-In . SVG Version: 6.00 Build 0)  -->
<svg version="1.1" id="Capa_1" xmlns="http://www.w3.org/2000/svg" xmlns:xlink="http://www.w3.org/1999/xlink" x="0px" y="0px"
	 viewBox="0 0 5775 2912.3" style="enable-background:new 0 0 5775 2912.3;" xml:space="preserve">
<style type="text/css">
	.st0{fill:#FEF4F2;}
	.st1{fill:#48AF94;}
	.st2{fill:#51BFA6;}
	.st3{fill:#58CCAA;}
	.st4{fill:#777777;}
	.st5{fill:#00847F;}
	.st6{fill:#EDDFA4;}
	.st7{fill:#FCEDB1;}
	.st8{fill:#EF7B41;}
	.st9{fill:#DD6C3A;}
	.st10{fill:#56C0EF;}
	.st11{fill:#F4E5A6;}
	.st12{fill:#A7ECF2;}
	.st13{fill:#EFEFEF;}
	.st14{fill:#F4E7B0;}
	.st15{fill:#FFFFFF;}
	.st16{fill:#732A09;}
	.st17{fill:#D13F3F;}
	.st18{fill:#F35454;}
	.st19{fill:#F05454;}
	.st20{fill:#DDDDDD;}
	.st21{fill:#F2F2F2;}
</style>
<g id="character_00000137128489058710741590000018385300357604953254_">
	<path class="st15" d="M1432,2218.4c-52.1,113.7-94.7,238.9-23.5,278.2c0,0-34.6,76.5-48.7,138.9c-11.8,52.1-35.1,136.5-42.5,163.2
		c-1.5,5.3,0.8,10.9,5.5,13.7c14.5,8.7,49.3,23.9,105.3,14.9c4.3-0.7,8-3.6,9.5-7.7c12.8-33.1,72.3-185.4,110.5-243.6
		c0,0,67.2,78.8,123.1,107.1v-154.7l-33.9-49.1c0,0,53.5-55,60.9-125c7.4-69.9-6.6-110.2-6.6-110.2L1432,2218.4L1432,2218.4z"/>
	<path class="st16" d="M1394.6,2832.1c-36.5,0-60.5-10.5-72.9-18c-5.5-3.3-8.2-9.9-6.4-16.1c7-25,30.7-110.8,42.5-163
		c12.8-56.8,42.9-125.8,48-137.6c-73.4-43-21.4-180.2,24.3-279.9c0.4-0.8,1.2-1.3,2.1-1.2l259.7,25.7c0.8,0.1,1.5,0.6,1.8,1.4
		c0.1,0.4,14,41.6,6.7,111.1c-6.8,64-52.3,116.3-60.3,124.9l32.9,47.7c0.3,0.3,0.4,0.8,0.4,1.2V2683c0,0.7-0.4,1.4-1,1.8
		c-0.6,0.4-1.4,0.4-2.1,0.1c-50.5-25.5-110.7-92.7-121.9-105.5c-38.3,59.9-97.2,210.9-108.8,240.9c-1.8,4.7-6.1,8.2-11.2,9
		C1416.1,2831.3,1404.8,2832.1,1394.6,2832.1L1394.6,2832.1z M1433.3,2220.6c-93.9,205.5-58.6,254.8-23.8,274.1
		c1,0.5,1.3,1.7,0.9,2.7c-0.3,0.8-34.7,77-48.5,138.6c-11.8,52.4-35.5,138.2-42.5,163.2c-1.2,4.4,0.7,9,4.6,11.4
		c15.4,9.2,49.3,23.4,103.9,14.6c3.6-0.6,6.6-3,7.9-6.4c11.7-30.5,72.2-185.4,110.7-244c0.4-0.5,1-0.9,1.6-0.9
		c0.7,0,1.3,0.3,1.7,0.7c0.7,0.8,65.2,76,119.4,105v-150.6l-33.5-48.5c-0.6-0.8-0.5-1.9,0.2-2.6c0.5-0.5,53.1-55.4,60.3-123.7
		c6.5-61.8-3.8-100.7-6.1-108L1433.3,2220.6L1433.3,2220.6z"/>
	<path class="st16" d="M1408.4,2498.7c0,0-0.4,0-0.6-0.1c-1.1-0.3-1.8-1.5-1.4-2.6c0.3-1.2,34.2-118.4,90.6-198.9
		c0.7-1,2-1.2,2.9-0.5c1,0.7,1.2,2,0.5,2.9c-56,79.9-89.6,196.4-90,197.6C1410.2,2498.1,1409.4,2498.7,1408.4,2498.7L1408.4,2498.7z
		"/>
	<path class="st16" d="M1548.1,2578.1c-0.4,0-0.8-0.1-1.2-0.4c-1-0.7-1.2-2-0.5-2.9c15.7-22.1,38.2-44.4,58-64
		c12.9-12.8,24-23.8,31.3-32.8c0.7-0.9,2.1-1,2.9-0.3c0.9,0.7,1,2.1,0.3,2.9c-7.4,9.2-18.6,20.3-31.6,33.1
		c-19.7,19.5-42.1,41.7-57.6,63.5C1549.4,2577.8,1548.8,2578.1,1548.1,2578.1L1548.1,2578.1z"/>
	<path class="st15" d="M1416.1,1949.7c29.9,51.6,220.9,25.6,258.4,1.2c37.5-24.4,23.3-70.3,7.4-103.5
		c-13.9-29.1-38.9-51.3-70.2-98.6c-4.5-6.7-9-13.9-13.7-21.7c-10.8-18-20.5-32.7-30.3-44.6c-24.4-29.8-49-41.9-90.1-41.6
		c-28.4-10.1-47.8,3.8-62.3,26.3c-4.1,6.3-7.8,13.3-11.2,20.7c-8.5,18.3-7.2,30.6-5.6,43c1.3,10.4,2.7,20.9-1.2,35
		c-8.7,31.1,5,46.5,11.8,78.5C1415.8,1876.4,1386.1,1898,1416.1,1949.7L1416.1,1949.7z"/>
	<path class="st16" d="M1517.2,1981.6c-22.2,0-43.3-1.8-60.6-5.9c-21.6-5.1-35.8-13.6-42.4-24.9c-19.3-33.3-14.3-54.7-9.8-73.6
		c2.6-10.8,4.9-20.9,2.6-32.2c-2.1-9.9-4.8-18-7.4-25.9c-5.6-17-10.5-31.7-4.4-53.6c3.7-13.3,2.5-23.4,1.3-33.3l-0.1-0.9
		c-1.5-11.7-3.1-24.9,5.8-44.1c3.8-8.2,7.5-15,11.4-20.9c17.7-27.4,38.8-36.3,64.4-27.3c0.4,0,0.9,0,1.3,0c39.9,0,65.2,12,90,42.3
		c9.1,11.2,18.5,25,30.4,44.9c4.6,7.7,9.1,14.8,13.6,21.6c14.1,21.2,26.7,37.2,38,51.4c13.8,17.5,24.7,31.2,32.4,47.4
		c24.4,51.1,21.6,86.8-8.2,106.2C1653.2,1967.3,1580.5,1981.6,1517.2,1981.6L1517.2,1981.6z M1459.5,1639.6
		c-16.2,0-29.9,9.4-42.4,28.8c-3.8,5.8-7.4,12.4-11.1,20.4c-8.4,18.1-6.9,30.2-5.4,41.9l0.1,0.9c1.3,10.3,2.6,20.8-1.4,34.9
		c-5.8,20.8-1.3,34.2,4.3,51.2c2.5,7.6,5.4,16.2,7.5,26.3c2.6,12.2,0.1,22.8-2.6,34.1c-4.5,19-9.1,38.7,9.4,70.6l0,0
		c6,10.4,19.4,18.1,39.8,23c65.7,15.7,185.8-3.1,215.7-22.4c28.2-18.3,30.3-51.3,6.7-100.9c-7.5-15.8-18.3-29.4-31.9-46.6
		c-11.3-14.2-24-30.3-38.2-51.7c-4.6-6.9-9.1-14-13.7-21.8c-11.6-19.4-21.2-33.5-30-44.4c-24.6-30-48.5-41.2-88.4-40.8
		c-0.2-0.1-0.5,0-0.7-0.1C1470.8,1640.8,1465.1,1639.6,1459.5,1639.6L1459.5,1639.6z"/>
	<path class="st17" d="M1371.7,1932.6c0,0,29.2-61,82.8-83.9c53.6-22.9,174.4-15,203.7,37.2c29.3,52.2,74.3,268,77.9,300.2
		c3.6,32.2-28.6,44.3-28.6,44.3l-1.4,28.6c0,0-102.2,30.7-185.1,12.1c-82.9-18.6-122.9-34.3-122.9-34.3l18.6-215.8L1371.7,1932.6
		L1371.7,1932.6z"/>
	<path class="st15" d="M1313.6,1875.6l38.6-8.4l13,64.8c0,0,42.3-16.7,75.7-24.2c33.4-7.5,83.7-5.2,83.7-5.2l36.6,192.2l-16.2,9
		L1361.2,1989l-35.9-62.6L1313.6,1875.6L1313.6,1875.6z"/>
	<path class="st16" d="M1544.9,2106c-0.4,0-0.8-0.1-1.1-0.3L1360,1990.8c-0.3-0.2-0.5-0.4-0.7-0.7l-35.9-62.6c0,0-0.2-0.4-0.2-0.6
		l-11.6-50.8c-0.1-0.5,0-1.1,0.3-1.6c0.3-0.5,0.8-0.8,1.3-0.9l38.6-8.4c0.5-0.1,1.1,0,1.6,0.3c0.5,0.3,0.8,0.8,0.9,1.3l12.5,62.3
		c9.3-3.6,45-16.9,73.7-23.4c33.3-7.4,83.8-5.3,84.3-5.2c1,0,1.8,0.8,2,1.7l36.6,192.2c0.2,0.9-0.3,1.8-1,2.2l-16.2,9
		C1545.7,2105.9,1545.4,2105.9,1544.9,2106L1544.9,2106z M1362.7,1987.6l182.3,113.9l13.8-7.7l-36-189.1c-9-0.3-52.2-1.4-81.6,5.2
		c-32.8,7.4-74.9,23.9-75.4,24.1c-0.6,0.3-1.2,0.2-1.8-0.1c-0.5-0.3-0.9-0.8-1-1.4l-12.6-62.7l-34.4,7.4l11.1,48.5l35.5,61.8
		L1362.7,1987.6z"/>
	<path class="st17" d="M1308.1,1875.6l33.9,73.2l19.7,9.8c0,0,85.2-32,151.2-28.3l35.3,197.6c0,0-92.3,25.2-150.1,11.7l-19.4-12.3
		l-46.4-156.3L1308.1,1875.6L1308.1,1875.6z"/>
	<path class="st16" d="M1437.8,2145.7c-14.2,0-28-1.1-40.3-4c-0.2,0-0.5-0.2-0.6-0.3l-19.4-12.3c-0.4-0.3-0.8-0.7-0.9-1.2
		l-46.4-156.3l-24-95.5c-0.3-1,0.3-2.1,1.3-2.5c1-0.4,2.1,0.1,2.6,1.1l33.5,72.6l18.2,9.1c9.2-3.3,89-31.6,151.2-28.1
		c1,0,1.8,0.8,1.9,1.7l35.3,197.6c0.2,1-0.5,2.1-1.5,2.4C1548,2130.1,1490.4,2145.6,1437.8,2145.7L1437.8,2145.7z M1398.8,2137.7
		c52.2,12.1,133.7-7.9,147-11.3l-34.6-194c-64.6-3.1-147.8,28-148.7,28.2c-0.5,0.2-1.1,0.2-1.7-0.1l-19.7-9.8c-0.4-0.2-0.8-0.5-1-1
		l-24.4-52.9l18.5,73.7l46.2,155.5L1398.8,2137.7L1398.8,2137.7z"/>
	<path class="st15" d="M1326,1974c-7.5-4.2-8-11.4-4.4-13.9s17.2-3.6,20.3,0c3.1,3.6,0.4,10.6-3.8,11.3
		C1333.8,1971.9,1326,1974,1326,1974L1326,1974z"/>
	<path class="st16" d="M1326,1976.1c-0.3,0-0.7-0.1-1-0.3c-4.6-2.6-7.4-6.5-7.6-10.7c-0.2-2.8,1-5.4,3-6.8c4-2.8,19-4.4,23.1,0.3
		c2,2.2,2.4,5.6,1.2,8.9c-1.2,3.2-3.6,5.4-6.4,5.8c-4.1,0.6-11.7,2.6-11.8,2.6C1326.4,1976.1,1326.2,1976.1,1326,1976.1L1326,1976.1
		z M1332.9,1959.8c-4,0-8.5,0.8-10.2,2c-0.9,0.6-1.3,1.8-1.3,3.2c0.1,2.5,1.9,5,4.8,6.8c2.2-0.6,7.9-2,11.4-2.5
		c1.2-0.2,2.4-1.4,3-3.1c0.5-1.4,0.7-3.4-0.4-4.7C1339.3,1960.3,1336.3,1959.8,1332.9,1959.8L1332.9,1959.8z"/>
	<path class="st15" d="M1330.6,1984.6c0,0-11.8-5.6-8.5-11.8c3.3-6.3,21.1-6.2,22.8-3.3c1.7,2.8-1.3,10.6-6.9,11.3
		C1332.4,1981.4,1330.6,1984.6,1330.6,1984.6z"/>
	<path class="st16" d="M1330.6,1986.7c-0.3,0-0.6,0-0.9-0.2c-0.8-0.4-8.2-4-9.9-9.2c-0.6-1.9-0.5-3.8,0.4-5.5
		c2.9-5.6,12.8-6.2,15.7-6.3c2.7,0,9.1,0.1,10.7,2.9c1.2,2.1,0.9,5.3-0.6,8.4c-1.8,3.4-4.6,5.6-7.8,6c-4.3,0.5-5.7,2.8-5.8,2.8
		C1332,1986.3,1331.3,1986.7,1330.6,1986.7L1330.6,1986.7z M1336.8,1969.7c-1.8,0-3.9,0.2-6.1,0.6c-3.5,0.7-6,2-6.8,3.5
		c-0.4,0.8-0.4,1.5-0.2,2.3c0.8,2.4,4.1,4.7,6.3,6c1.3-1.3,3.7-2.9,7.7-3.3c2.5-0.3,4-2.7,4.5-3.7c1-2,1.1-3.8,0.8-4.4
		C1342.6,1970.2,1340.1,1969.7,1336.8,1969.7L1336.8,1969.7z"/>
	<path class="st15" d="M1332.7,1997.8c0,0-13.3-4.9-10.1-12.8c3.1-7.9,23-8.6,25.1-4.4c2.1,4.2,2.5,8.9-6.2,13L1332.7,1997.8
		L1332.7,1997.8z"/>
	<path class="st16" d="M1332.7,1999.9c-0.3,0-0.5,0-0.7-0.1c-0.3-0.1-8.7-3.2-11.3-8.9c-1-2.2-1-4.4-0.1-6.6
		c2.3-5.7,10.7-8,17.2-8.2c2.9-0.1,9.9,0,11.7,3.7c1,2,2.1,5,1,8.3c-1,3-3.7,5.4-8.2,7.5l-8.7,4.1
		C1333.3,1999.9,1333,1999.9,1332.7,1999.9z M1339.1,1980.3c-1,0-2,0-3.1,0.2c-5.9,0.6-10.3,2.8-11.4,5.4c-0.5,1.2-0.5,2.2,0,3.3
		c1.3,3,5.7,5.4,8.1,6.4l7.9-3.7c3.3-1.6,5.4-3.3,6-5.1c0.5-1.4,0.3-3-0.8-5.1C1345.4,1981.1,1342.9,1980.3,1339.1,1980.3z"/>
	<path class="st15" d="M1345.3,2015.4c0,0-17.2-7.5-18.1-15.5c-1-8,11-12.6,18.1-10.3c7.2,2.3,2.8,8.7-4.9,9.5L1345.3,2015.4
		L1345.3,2015.4z"/>
	<path class="st16" d="M1345.3,2017.5c-0.3,0-0.6,0-0.8-0.2c-1.9-0.8-18.3-8.3-19.3-17.2c-0.4-3.4,1-6.7,4.1-9.2
		c4.4-3.6,11.6-5.1,16.7-3.4c5,1.6,5.2,4.8,5.1,6.1c-0.3,3.1-3.6,5.9-7.9,7l4.2,14.1c0.3,0.8,0,1.6-0.6,2.2
		C1346.3,2017.3,1345.8,2017.4,1345.3,2017.5L1345.3,2017.5z M1341.2,1991.1c-3.3,0-6.9,1.2-9.3,3.1c-1.3,1.1-2.9,2.9-2.6,5.4
		c0.5,3.9,6.9,8.6,12.7,11.7l-3.5-11.7c-0.2-0.6-0.1-1.3,0.3-1.8c0.3-0.5,0.9-0.8,1.5-0.9c4.2-0.5,6.5-2.6,6.6-3.7
		c0.1-0.7-1.1-1.3-2.2-1.7C1343.7,1991.3,1342.5,1991.1,1341.2,1991.1L1341.2,1991.1z"/>
	<polygon class="st18" points="1341.9,1948.8 1378.6,2127.3 1397.9,2139.7 1361.7,1958.7 	"/>
	<path class="st16" d="M1397.9,2141.8c-0.4,0-0.8-0.1-1.1-0.3l-19.4-12.3c-0.5-0.3-0.8-0.8-0.9-1.3l-36.6-178.5
		c-0.2-0.8,0.1-1.6,0.8-2.1c0.6-0.5,1.5-0.6,2.2-0.2l19.7,9.8c0.6,0.3,1,0.8,1.1,1.5l36.3,180.9c0.2,0.8-0.2,1.7-0.9,2.1
		C1398.8,2141.6,1398.4,2141.8,1397.9,2141.8L1397.9,2141.8z M1380.4,2126.1l14.5,9.2l-35.2-175.1l-14.9-7.4L1380.4,2126.1
		L1380.4,2126.1z"/>
	<path class="st15" d="M1512.8,2098.6c0,0-35.4-12.6-48.5-23.1c-13.1-10.5-24.9-49.9-35-48.6s1.8,49.9,1.8,49.9s-20.6-2.6-33.3-11.8
		c-12.7-9.2-35-28.9-43.3-28c-8.3,0.9,26.7,37.6,26.7,37.6s-21.4-8.3-25.8-5.7c-4.4,2.6,19.7,18.4,19.7,18.4s-9.4-1.9-11.2,3.8
		c-1.8,5.7,14.7,12.9,14.7,12.9s-11.9,5,0.8,13.8s29,21,48.2,21.9c19.2,0.9,46.4-2,46.4-2l31.1,22.3
		C1505.1,2160,1507.2,2120.8,1512.8,2098.6L1512.8,2098.6z"/>
	<path class="st16" d="M1505,2162c-0.4,0-0.9-0.1-1.2-0.4l-30.4-21.8c-4.6,0.5-28.5,2.7-45.9,1.9c-18.5-0.8-34.1-11.7-46.7-20.4
		l-2.6-1.8c-4.8-3.3-7.1-6.7-6.7-10.1c0.2-2.2,1.5-3.9,2.8-5.1c-5.6-2.8-14.1-8.2-12.4-13.8c1-3.1,3.5-4.6,6.4-5.2
		c-7.4-5.2-15.6-11.8-15.5-15.4c0-1.1,0.6-2.1,1.5-2.6c3.3-2,12.3,0.3,19.5,2.6c-11.1-12.1-24.2-27.8-22.4-32.7
		c0.5-1.2,1.5-2,2.9-2.1c6.7-0.8,18.5,8.1,34.5,20.5c3.8,2.9,7.3,5.7,10.3,7.8c9.3,6.7,23.2,9.8,29.3,11c-2.3-10.1-8.3-39.3-3-47
		c1.2-1.7,2.7-2.3,3.7-2.4c6.9-0.9,12.7,10,20,23.9c5.4,10.1,10.9,20.6,16.6,25.1c12.7,10.2,47.6,22.6,47.9,22.8
		c1,0.4,1.6,1.4,1.3,2.5c-5.6,21.8-7.7,60.6-7.7,60.9c0,0.8-0.5,1.5-1.2,1.8c-0.3,0.1-0.6,0.2-0.9,0.2L1505,2162z M1473.9,2135.5
		c0.4,0,0.9,0.1,1.2,0.4l28,20.1c0.7-10.1,2.8-37.7,7.2-56.1c-7.4-2.8-35.7-13.4-47.3-22.8c-6.3-5.1-12.1-15.9-17.7-26.4
		c-5.2-9.9-11.7-22.3-15.8-21.7c-0.1,0-0.4,0-0.8,0.6c-3.8,5.5,0.6,31.6,4.3,46.7c0.2,0.7,0,1.4-0.5,1.9c-0.5,0.5-1.1,0.8-1.8,0.7
		c-0.9-0.1-21.3-2.8-34.2-12.2c-3-2.2-6.6-5-10.4-8c-10.5-8.2-24.8-19.4-30.8-19.7c1.2,4.6,14.6,20.8,27.3,34.1
		c0.7,0.7,0.8,1.8,0.2,2.6c-0.5,0.8-1.6,1.1-2.5,0.8c-10-3.8-19.9-6.4-23.1-6.1c2,2.9,10.8,9.8,18.9,15.1c0.8,0.5,1.2,1.6,0.8,2.6
		s-1.4,1.5-2.3,1.3c-0.1,0-7.6-1.4-8.7,2.3c-0.7,2.2,6.6,7.3,13.5,10.3c0.8,0.3,1.3,1.1,1.3,1.9s-0.5,1.6-1.3,1.9
		c-0.9,0.4-3.6,2-3.8,3.9c-0.2,1.7,1.6,3.9,4.9,6.2l2.7,1.8c12.1,8.4,27.2,18.9,44.5,19.7c18.9,0.8,45.8-1.9,46.1-2
		C1473.9,2135.4,1473.9,2135.4,1473.9,2135.5L1473.9,2135.5z"/>
	<path class="st16" d="M1408.4,2094c0,0-0.3,0-0.5-0.1c-10.3-2.6-27.4-17.2-28.1-17.8c-0.9-0.8-1-2.1-0.3-3c0.8-0.9,2.1-1,2.9-0.2
		c0.2,0.1,17,14.5,26.4,16.9c1.1,0.3,1.8,1.4,1.5,2.6C1410.2,2093.3,1409.3,2094,1408.4,2094L1408.4,2094z"/>
	<path class="st16" d="M1410.4,2106.5c0,0-0.4,0-0.6-0.1c-0.9-0.3-21.6-6.9-35.9-17.5c-0.9-0.7-1.1-2-0.5-2.9s2-1.1,2.9-0.5
		c13.8,10.1,34.5,16.8,34.7,16.8c1.1,0.3,1.7,1.5,1.4,2.6C1412.1,2105.9,1411.3,2106.5,1410.4,2106.5L1410.4,2106.5z"/>
	<path class="st16" d="M1410.4,2121.5c-0.3,0-0.5,0-0.8-0.2c-0.8-0.3-19.2-7.9-32.1-15.7c-1-0.6-1.3-1.9-0.7-2.9
		c0.6-1,1.9-1.3,2.9-0.7c12.6,7.6,31.4,15.3,31.6,15.4c1.1,0.5,1.6,1.7,1.1,2.7C1412,2121,1411.2,2121.5,1410.4,2121.5
		L1410.4,2121.5z"/>
	<path class="st17" d="M1634.7,2104.4c0,0-116.2-21.4-121.9-5.9c0,0-8,43.9-7.8,61.3c0,0,0.7,16.5,10.8,22.5
		c10.1,6,93.7,43.1,175.9,48.1"/>
	<path class="st16" d="M1691.7,2232.5c0,0-0.1,0-0.1,0c-83.5-5.1-168.4-43.4-176.8-48.4c-11-6.5-11.8-23.4-11.8-24.2
		c-0.2-17.5,7.5-60,7.9-61.8c6.1-16.7,104.6,0.5,124.3,4.1c1.1,0.2,1.9,1.3,1.7,2.4c-0.2,1.1-1.3,1.9-2.4,1.7
		c-56.2-10.4-116.4-15.9-119.6-7.2c0,0.1-7.9,43.6-7.7,60.6c0,0.1,0.8,15.4,9.8,20.7c8.3,4.9,92.2,42.8,175,47.8
		c1.2,0.1,2.1,1,2,2.2C1693.7,2231.6,1692.8,2232.5,1691.7,2232.5L1691.7,2232.5z"/>
	<path class="st16" d="M1556.2,2096.4c-1,0-1.8-0.7-2.1-1.7l-37.4-182.9c-6.3-0.5-31.4-1.8-63.5,2.4c-37,4.9-92.2,27-92.7,27.2
		c-1.1,0.4-2.3-0.1-2.7-1.2c-0.4-1.1,0.1-2.3,1.2-2.7c0.5-0.2,56.2-22.5,93.7-27.5c37.6-5,65.7-2.3,66-2.3c0.9,0.1,1.7,0.8,1.8,1.7
		l37.7,184.4c0.3,1.1-0.5,2.3-1.6,2.5C1556.5,2096.3,1556.3,2096.3,1556.2,2096.4L1556.2,2096.4z"/>
	<path class="st16" d="M1356.3,1950.9c-0.9,0-1.8-0.6-2-1.5c-0.3-1.1,0.4-2.3,1.5-2.6c0.1,0,12.2-3.2,38.3-13.4
		c27.6-10.8,83.9-16.6,113.8-14.4c1.2,0.1,2,1.1,1.9,2.3c-0.1,1.1-1.1,2-2.3,1.9c-29.5-2.2-84.8,3.5-111.9,14.1
		c-26.4,10.3-38.3,13.4-38.8,13.6C1356.6,1950.9,1356.5,1951,1356.3,1950.9L1356.3,1950.9z"/>
	<path class="st16" d="M1345.3,1943.2c-0.9,0-1.7-0.6-2-1.5l-18.2-59c-0.3-1.1,0.3-2.3,1.4-2.6c1.1-0.3,2.3,0.3,2.6,1.4l18.2,59
		c0.3,1.1-0.3,2.3-1.4,2.6C1345.7,1943.2,1345.5,1943.2,1345.3,1943.2L1345.3,1943.2z"/>
	<path class="st16" d="M1351.4,1940.9c-1.1,0-2-0.8-2.1-1.8c-0.4-2.1-9.2-37-15.1-60c-0.3-1.1,0.4-2.3,1.5-2.6s2.3,0.4,2.6,1.5
		c15.3,59.8,15.3,60.5,15.3,60.8C1353.5,1940,1352.6,1940.9,1351.4,1940.9z"/>
	<path class="st16" d="M1357.3,1932.9c-1,0-1.8-0.7-2.1-1.6l-12-55.2c-0.3-1.1,0.5-2.3,1.6-2.5c1.1-0.3,2.3,0.5,2.5,1.6l12,55.2
		c0.3,1.1-0.5,2.3-1.6,2.5C1357.6,1932.9,1357.5,1932.9,1357.3,1932.9L1357.3,1932.9z"/>
	<path class="st16" d="M1637.4,2113.8c-0.8,0-1.7-0.5-2-1.4c-0.1-0.3-8.7-23.9-19.3-54.8c-9.2-26.8-42.9-159.4-17.2-180.7
		c0.9-0.8,2.2-0.6,2.9,0.3c0.8,0.9,0.6,2.2-0.3,2.9c-21.3,17.7,5.4,137.8,18.5,176.1c10.6,30.9,19.2,54.5,19.3,54.7
		c0.4,1.1-0.2,2.3-1.3,2.7C1637.8,2113.7,1637.5,2113.8,1637.4,2113.8L1637.4,2113.8z"/>
	<path class="st18" d="M1437.4,1867.2c-5.5,16-9.2,43.7-9.2,43.7"/>
	<path class="st16" d="M1428.1,1913.1c0,0-0.2,0-0.3,0c-1.1-0.2-2-1.2-1.8-2.3s3.8-28.2,9.3-44.1c0.4-1.1,1.5-1.7,2.7-1.3
		c1.1,0.4,1.7,1.5,1.3,2.7c-5.4,15.6-9.1,43.1-9.1,43.3C1430.1,1912.4,1429.2,1913.1,1428.1,1913.1L1428.1,1913.1z"/>
	<path class="st15" d="M1532.3,1789.3c5.7,28.5,14.9,61.1,14.9,61.1s-3,28.1-30.9,34.6c-27.9,6.5-32.3-17.4-33-22.4
		c-0.7-5,1-21.7,0.9-27.2C1484.1,1830.1,1532.3,1789.3,1532.3,1789.3L1532.3,1789.3z"/>
	<path class="st16" d="M1507.4,1888.3c-5.6,0-10.4-1.4-14.4-4.2c-8.8-6.1-11.1-16.8-11.7-21.2c-0.4-3.2,0-10.2,0.4-16.9
		c0.3-4.3,0.5-8.3,0.5-10.5c-0.1-5.6,30.5-32.4,48.8-47.9c0.6-0.5,1.3-0.6,2.1-0.4c0.7,0.3,1.2,0.8,1.4,1.5
		c5.6,28,14.8,60.6,14.9,61c0.1,0.3,0.1,0.5,0.1,0.8c0,0.3-3.5,29.7-32.5,36.5C1513.6,1888,1510.4,1888.3,1507.4,1888.3
		L1507.4,1888.3z M1531,1793.2c-21.7,18.5-43.7,38.8-44.7,42.5c0.1,2.1-0.2,6.2-0.5,10.6c-0.4,6.3-0.8,13.3-0.4,16.1
		c0.5,3.8,2.5,13.2,9.9,18.3c5.1,3.6,12.1,4.4,20.5,2.3c24.6-5.8,28.8-29,29.3-32.5C1544.1,1846.9,1536.3,1818.8,1531,1793.2
		L1531,1793.2z"/>
	<path class="st15" d="M1408.4,1721.4c0,0-18,77.5,15.5,104.9s109.2,13.9,126.4-38.3c0,0,17.2,15.8,28.2-3.9s-7.7-37.9-27.6-26.4
		c0,0-9.9-19.5-49-28.5s-61.1-30.9-61.1-30.9S1435.3,1712,1408.4,1721.4L1408.4,1721.4z"/>
	<path class="st16" d="M1468.4,1842.2c-17.9,0-34.4-4.9-45.9-14.4c-34.1-27.9-16.9-103.7-16.2-107c0.2-0.7,0.7-1.3,1.3-1.5
		c25.5-8.8,31.1-21.8,31.1-21.9c0.3-0.6,0.8-1.1,1.5-1.3c0.7-0.1,1.4,0.1,1.9,0.5c0.2,0.2,22.1,21.6,60.1,30.3
		c33.1,7.6,45.8,22.5,49.3,27.7c9.5-4.7,19.7-3.6,26.3,3c6.9,6.8,7.8,17.5,2.3,27.2c-3.6,6.3-8.1,10-13.5,10.8
		c-6.4,1-12.4-2.2-15.6-4.4c-8.3,22.1-28,39-54.3,46.7C1487.4,1840.9,1477.7,1842.3,1468.4,1842.2L1468.4,1842.2z M1410.2,1723
		c-2,9.5-14.9,77.2,15,101.7c16.4,13.4,44.1,17.2,70.6,9.5c26.1-7.6,45.2-24.6,52.5-46.7c0.2-0.7,0.8-1.2,1.5-1.4
		c0.7-0.2,1.4,0,1.9,0.5c0.1,0,7.2,6.5,14.5,5.3c4.1-0.7,7.6-3.6,10.5-8.7c5.5-9.8,2.8-17.9-1.6-22.2c-5.7-5.6-14.7-6.2-23.1-1.3
		c-0.5,0.3-1.1,0.3-1.6,0.2c-0.5-0.2-1-0.5-1.3-1c-0.1-0.2-10.1-18.8-47.6-27.4c-33-7.6-53.8-24-60.1-29.5
		c-2.9,4.6-11.1,14.1-31.1,21.3L1410.2,1723z"/>
	<path class="st16" d="M1472.8,1748.3c8.1-5.7,19.5-6.4,28.2-1.8c1,0.6,1.4,1.9,0.8,2.9c-0.4,0.7-1,1.1-1.8,1.1
		c-4.6,0.2-8.7,0.1-12.9,0.3c-3.6,0.1-8.9,0.8-12.6,1.2C1472.4,1752.6,1471,1749.7,1472.8,1748.3L1472.8,1748.3L1472.8,1748.3z"/>
	<path class="st16" d="M1407.2,1743.5c10.3-3.6,21.8-2.8,31.6,1.8c2,0.9,1.2,4.1-0.9,4.1c-7.4,0-15.1-1-22.4-1.3l-7.3-0.4h-0.3
		C1405.7,1747.5,1405.2,1744.2,1407.2,1743.5L1407.2,1743.5L1407.2,1743.5z"/>
	<path class="st16" d="M1436.7,1793.5c-4.5,0-8-2.9-9.1-7.7c-0.6-2.7-0.2-5.3,1.3-7.3c2.6-3.6,7.7-4.9,10.5-5.3
		c-0.1-4-0.7-13.9-3.1-25.5c-0.3-1.1,0.5-2.3,1.6-2.5c1.1-0.3,2.2,0.5,2.5,1.6c3.2,15.4,3.2,27.7,3.2,28.2c0,1.1-0.8,2-1.9,2.1
		c-1.9,0.1-7.4,1.1-9.4,3.9c-0.8,1-1,2.3-0.6,3.9c1,4.5,4.3,4.6,6.1,4.4c3.7-0.5,7.4-3.9,7.2-8.1c-0.1-1.2,0.8-2.1,2-2.2
		c1.2,0,2.1,0.8,2.2,2c0.5,6.7-5.2,11.7-10.8,12.5C1437.8,1793.6,1437.2,1793.6,1436.7,1793.5L1436.7,1793.5z"/>
	<path class="st16" d="M1490.3,1768c-0.3,4.6-3.1,8.2-6.3,8c-3.2-0.2-5.6-4.1-5.3-8.7c0.1-1.4,0.4-2.7,0.9-3.8l5.3,3.3l-2.2-6.9
		c0.7-0.4,1.5-0.6,2.3-0.5C1488.2,1759.4,1490.6,1763.3,1490.3,1768L1490.3,1768z"/>
	<path class="st16" d="M1427,1764.3c-0.3,4.6-3.1,8.2-6.3,8c-3.2-0.2-5.6-4.1-5.3-8.7c0.1-1.4,0.4-2.7,0.9-3.8l5.3,3.3l-2.2-6.9
		c0.7-0.4,1.5-0.6,2.3-0.5C1424.8,1755.8,1427.2,1759.7,1427,1764.3L1427,1764.3z"/>
	<path class="st16" d="M1459.4,1814.9c-4.1,0-8.5-1.8-12.7-5.4c-0.9-0.8-1-2.1-0.3-2.9c0.8-0.9,2.1-1,2.9-0.3
		c4.4,3.7,8.9,5.1,12.5,4c3.1-1,5.6-3.8,6.7-7.8c0.3-1.1,1.5-1.8,2.6-1.4c1.1,0.3,1.8,1.5,1.4,2.6c-1.5,5.4-5,9.3-9.5,10.7
		C1462,1814.8,1460.7,1814.9,1459.4,1814.9L1459.4,1814.9z"/>
	<path class="st16" d="M1568.2,1775.7c-0.8,0-1.6-0.5-2-1.3c-1.1-2.8-2.7-4.6-4.9-5.5c-4.5-1.7-9.9,0.9-10,1c-1,0.5-2.3,0.1-2.8-0.9
		c-0.5-1-0.1-2.3,0.9-2.8c0.3-0.2,7.1-3.5,13.3-1.1c3.3,1.3,5.8,3.9,7.4,7.9c0.4,1.1-0.1,2.3-1.2,2.7
		C1568.7,1775.6,1568.4,1775.7,1568.2,1775.7L1568.2,1775.7z"/>
	<path class="st16" d="M1557.4,1787.9c-0.9,0-1.7-0.5-2-1.4c-0.4-1.1,0.2-2.3,1.3-2.6c1.8-0.6,3.1-2,4-4.1c1.7-4.2,0.8-9.9-0.2-11.7
		c-0.5-1-0.2-2.3,0.9-2.8c1-0.5,2.3-0.2,2.8,0.9c1.5,2.8,2.5,9.8,0.4,15.2c-1.3,3.2-3.5,5.5-6.5,6.5
		C1558,1787.9,1557.7,1787.9,1557.4,1787.9L1557.4,1787.9z"/>
	<path class="st17" d="M1432.2,2839.5l-11.9,90.6c-0.8,6.4-6.6,10.8-13,10l-167.4-20.7c-7-0.9-11.6-7.7-9.8-14.6l1-3.9
		c0,0,19.3-77.5,103.1-72.4C1334.2,2828.7,1373.9,2845.2,1432.2,2839.5L1432.2,2839.5z"/>
	<path class="st16" d="M1419.3,2924.7c0,0-0.2,0-0.3,0l-185.7-23c-1.1-0.1-2-1.2-1.8-2.3c0.1-1.1,1.2-1.9,2.3-1.8l185.7,23
		c1.1,0.1,2,1.2,1.8,2.3C1421.2,2924,1420.3,2924.8,1419.3,2924.7L1419.3,2924.7z"/>
	<path class="st16" d="M1374.5,2919.1c0,0-0.3,0-0.4,0c-1.1-0.2-1.9-1.3-1.6-2.5c0.1-0.4,8.8-41.3,54.5-38.1c1.2,0.1,2,1.1,1.9,2.3
		c-0.1,1.2-1.1,2.1-2.2,1.9c-42.1-3.1-50,34.4-50.1,34.8C1376.3,2918.5,1375.4,2919.2,1374.5,2919.1L1374.5,2919.1z"/>
	<path class="st16" d="M1333.1,2857.6c-0.6,0-1.1-0.3-1.5-0.7l-34.4-38.4c-0.8-0.9-0.7-2.2,0.2-3c0.8-0.8,2.2-0.7,3,0.2l34.4,38.4
		c0.8,0.9,0.7,2.2-0.2,3C1334.1,2857.4,1333.6,2857.6,1333.1,2857.6L1333.1,2857.6z"/>
	<path class="st16" d="M1313.1,2862.5c-0.6,0-1.1-0.3-1.5-0.7l-34.4-38.4c-0.8-0.9-0.7-2.2,0.2-3c0.9-0.8,2.2-0.7,3,0.2l34.4,38.4
		c0.8,0.9,0.7,2.2-0.2,3C1314.1,2862.3,1313.7,2862.5,1313.1,2862.5L1313.1,2862.5z"/>
</g>
</svg>
