<?xml version="1.0" encoding="utf-8"?>
<!-- Generator: Adobe Illustrator 27.2.0, SVG Export Plug-In . SVG Version: 6.00 Build 0)  -->
<svg version="1.1" id="Capa_1" xmlns="http://www.w3.org/2000/svg" xmlns:xlink="http://www.w3.org/1999/xlink" x="0px" y="0px"
	 viewBox="0 0 5775 2912.3" style="enable-background:new 0 0 5775 2912.3;" xml:space="preserve">
<style type="text/css">
	.st0{fill:#FEF4F2;}
	.st1{fill:#48AF94;}
	.st2{fill:#51BFA6;}
	.st3{fill:#58CCAA;}
	.st4{fill:#777777;}
	.st5{fill:#00847F;}
	.st6{fill:#EDDFA4;}
	.st7{fill:#FCEDB1;}
	.st8{fill:#EF7B41;}
	.st9{fill:#DD6C3A;}
	.st10{fill:#56C0EF;}
	.st11{fill:#F4E5A6;}
	.st12{fill:#A7ECF2;}
	.st13{fill:#EFEFEF;}
	.st14{fill:#F4E7B0;}
	.st15{fill:#FFFFFF;}
	.st16{fill:#732A09;}
	.st17{fill:#D13F3F;}
	.st18{fill:#F35454;}
	.st19{fill:#F05454;}
	.st20{fill:#DDDDDD;}
	.st21{fill:#F2F2F2;}
</style>
<g>
	<rect x="0" y="1904.7" class="st4" width="5795" height="1008.2"/>
	<g>
		<path class="st5" d="M5775,1957.6c0,0-173,32.6-152.3,229.4c0,0-145.3-19.1-166.1,161.5c0,0-387.1-78.4-466.9,224.2
			c0,0-263.8-15.8-431.4,191.8c0,0-468.4-145.3-584.4,145.3H5775V1957.6z"/>
		<path class="st5" d="M8.5,1962.6c34.1-22,375.3-20.6,486.2,294.3c0,0,232.6-88.7,329.6,270.9c0,0,278.9-177.8,571.5,180.5
			c0,0,218.7-110.9,336.8,34.1c0,0,799.4-153.5,1106.9,170.6H8.5V1962.6z"/>
	</g>
</g>
</svg>
