<?xml version="1.0" encoding="utf-8"?>
<!-- Generator: Adobe Illustrator 27.2.0, SVG Export Plug-In . SVG Version: 6.00 Build 0)  -->
<svg version="1.1" id="Capa_1" xmlns="http://www.w3.org/2000/svg" xmlns:xlink="http://www.w3.org/1999/xlink" x="0px" y="0px"
	 viewBox="0 0 5775 2912.3" style="enable-background:new 0 0 5775 2912.3;" xml:space="preserve">
<style type="text/css">
	.st0{fill:#FEF4F2;}
	.st1{fill:#48AF94;}
	.st2{fill:#51BFA6;}
	.st3{fill:#58CCAA;}
	.st4{fill:#777777;}
	.st5{fill:#FFFFFF;}
	.st6{fill:#732A09;}
	.st7{fill:#D13F3F;}
	.st8{fill:#F35454;}
	.st9{fill:#F05454;}
	.st10{fill:#FCEDB1;}
	.st11{fill:#EF7B41;}
	.st12{fill:#DD6C3A;}
	.st13{fill:#56C0EF;}
	.st14{fill:#F4E5A6;}
	.st15{fill:#A7ECF2;}
	.st16{fill:#EFEFEF;}
	.st17{fill:#F4E7B0;}
	.st18{fill:#EDDFA4;}
	.st19{fill:#00847F;}
</style>
<g>
	<path class="st19" d="M5781.6,1957.3c0,0-173.9,32.6-153,229.4c0,0-146.1-19.1-167,161.5c0,0-389.2-78.4-469.4,224.2
		c0,0-265.2-15.8-433.6,191.8c0,0-470.8-145.3-587.4,145.3h1810.4V1957.3z"/>
	<path class="st19" d="M-17.3,1962.3c34.4-22,378.4-20.6,490.2,294.3c0,0,234.5-88.7,332.3,270.9c0,0,281.2-177.8,576.1,180.5
		c0,0,220.5-110.9,339.6,34.1c0,0,805.9-153.5,1116,170.6H-17.3V1962.3z"/>
</g>
</svg>
