<?xml version="1.0" encoding="utf-8"?>
<!-- Generator: Adobe Illustrator 27.2.0, SVG Export Plug-In . SVG Version: 6.00 Build 0)  -->
<svg version="1.1" id="Capa_1" xmlns="http://www.w3.org/2000/svg" xmlns:xlink="http://www.w3.org/1999/xlink" x="0px" y="0px"
	 viewBox="0 0 5775 2912.3" style="enable-background:new 0 0 5775 2912.3;" xml:space="preserve">
<style type="text/css">
	.st0{fill:#FEF4F2;}
	.st1{fill:#48AF94;}
	.st2{fill:#51BFA6;}
	.st3{fill:#58CCAA;}
	.st4{fill:#777777;}
	.st5{fill:#FFFFFF;}
	.st6{fill:#732A09;}
	.st7{fill:#D13F3F;}
	.st8{fill:#F35454;}
	.st9{fill:#F05454;}
	.st10{fill:#FCEDB1;}
	.st11{fill:#EF7B41;}
	.st12{fill:#DD6C3A;}
	.st13{fill:#56C0EF;}
	.st14{fill:#F4E5A6;}
	.st15{fill:#A7ECF2;}
	.st16{fill:#EFEFEF;}
	.st17{fill:#F4E7B0;}
	.st18{fill:#EDDFA4;}
	.st19{fill:#00847F;}
</style>
<g>
	<path class="st1" d="M-17.3,1652.6c0,0,531.5-195.6,1067.5,67c0,0,364.1-583.9,969-111.3s1314.3,734.4,1739.7,594.7
		c425.4-139.8,933.5-1123.7,1421.5-976.3c0,0,193.7-349.8,611.9-218.8v1250.6H-17.3V1652.6z"/>
	<path class="st2" d="M-2.6,2259.5c0,0,906.7-718.1,1901.6-391.1s1702.7,212.2,2189.5,29.5s1134.2-501.5,1689.1-501.5v863.1H-2.6z"
		/>
	<path class="st3" d="M573.4,2122.8c71.4-101.1,501.4-108.8,407.1-31.9c-94.3,76.9,871.7,53.6,702.2-68
		c-169.6-121.6,1001.9,106.8,1459.1,60.2c16.4-1.5,32.3-4.6,47.5-9.2c-363.4,11.2-790.5-41.6-1290.2-205.5
		C904.1,1541.3-2.6,2259.5-2.6,2259.5h742.6C739.9,2259.5,502.1,2223.9,573.4,2122.8z"/>
	<path class="st3" d="M4061.1,1900.8c-155.2,57.9-319.9,102.4-490.5,132.6c0,0,349.6,22.9,840.8-179.8
		c491.2-202.7,925.6-232.5,744.6-109s-118.9,261,155.1,235.7c274-25.4,31,279.1-284.4,279.1h734.3v-855.5
		C5202.6,1403.9,4551.1,1719.8,4061.1,1900.8z"/>
</g>
</svg>
