<?xml version="1.0" encoding="utf-8"?>
<!-- Generator: Adobe Illustrator 27.2.0, SVG Export Plug-In . SVG Version: 6.00 Build 0)  -->
<svg version="1.1" id="Capa_1" xmlns="http://www.w3.org/2000/svg" xmlns:xlink="http://www.w3.org/1999/xlink" x="0px" y="0px"
	 viewBox="0 0 5775 2912.3" style="enable-background:new 0 0 5775 2912.3;" xml:space="preserve">
<style type="text/css">
	.st0{fill:#FEF4F2;}
	.st1{fill:#48AF94;}
	.st2{fill:#51BFA6;}
	.st3{fill:#58CCAA;}
	.st4{fill:#777777;}
	.st5{fill:#FFFFFF;}
	.st6{fill:#732A09;}
	.st7{fill:#D13F3F;}
	.st8{fill:#F35454;}
	.st9{fill:#F05454;}
	.st10{display:none;}
	.st11{display:inline;}
	.st12{fill:#FCEDB1;}
	.st13{fill:#EF7B41;}
	.st14{fill:#DD6C3A;}
	.st15{fill:#56C0EF;}
	.st16{fill:#F4E5A6;}
	.st17{fill:#A7ECF2;}
	.st18{fill:#EFEFEF;}
	.st19{fill:#F4E7B0;}
	.st20{fill:#EDDFA4;}
	.st21{fill:#00847F;}
	.st22{opacity:0.2;}
	.st23{fill:#C45727;}
</style>
<g>
	<g>
		<g>
			<rect x="2273.4" y="1723" class="st12" width="1228.1" height="523.5"/>
			<rect x="997.8" y="1618.4" class="st13" width="787.2" height="104.7"/>
			<rect x="2273.4" y="1618.4" class="st13" width="1228.1" height="104.7"/>
			<rect x="3989.9" y="1618.4" class="st13" width="787.3" height="104.7"/>
			<rect x="997.8" y="1827.8" class="st13" width="3779.3" height="104.7"/>
			<rect x="997.8" y="2037.2" class="st13" width="3779.3" height="104.7"/>
			<g>
				<rect x="3501.5" y="1623.4" class="st14" width="488.4" height="96.4"/>
			</g>
			<g>
				<rect x="1785.1" y="1623.4" class="st14" width="488.4" height="96.4"/>
			</g>
			<rect x="2714.7" y="2152.2" class="st15" width="345.6" height="94.4"/>
			<rect x="2487.9" y="2152.2" class="st15" width="172.8" height="94.4"/>
			<rect x="3113.6" y="2152.2" class="st15" width="172.8" height="94.4"/>
			<rect x="2273.4" y="2141.9" class="st22" width="1228.1" height="38.6"/>
			<g>
				<rect x="1785.1" y="1719.8" class="st16" width="488.4" height="526.7"/>
				<g>
					<g>
						<rect x="1819.3" y="1738.7" class="st17" width="191.2" height="191.2"/>
						<rect x="2048" y="1738.7" class="st17" width="191.2" height="191.2"/>
					</g>
					<g>
						<rect x="1819.3" y="2022.9" class="st17" width="191.2" height="133.2"/>
						<rect x="2048" y="2022.9" class="st17" width="191.2" height="133.2"/>
					</g>
					<g>
						<rect x="1819.3" y="2194.2" class="st18" width="191.2" height="52.4"/>
						<rect x="2048" y="2194.2" class="st18" width="191.2" height="52.4"/>
					</g>
				</g>
			</g>
			<g>
				<rect x="3501.5" y="1719.8" class="st16" width="488.4" height="526.7"/>
				<g>
					<g>
						<rect x="3535.7" y="1738.7" class="st17" width="191.2" height="191.2"/>
						<rect x="3764.4" y="1738.7" class="st17" width="191.2" height="191.2"/>
					</g>
					<g>
						<rect x="3535.7" y="2022.9" class="st17" width="191.2" height="133.2"/>
						<rect x="3764.4" y="2022.9" class="st17" width="191.2" height="133.2"/>
					</g>
					<g>
						<rect x="3535.7" y="2194.2" class="st18" width="191.2" height="52.4"/>
						<rect x="3764.4" y="2194.2" class="st18" width="191.2" height="52.4"/>
					</g>
				</g>
			</g>
			<g>
				<g>
					<rect x="1049.2" y="1932.5" class="st12" width="735.8" height="104.7"/>
					<g>
						<rect x="1141.6" y="1950.6" class="st17" width="252.7" height="68.4"/>
						<rect x="1440" y="1950.6" class="st17" width="252.7" height="68.4"/>
					</g>
				</g>
				<g>
					<rect x="1049.2" y="2141.9" class="st12" width="735.8" height="104.7"/>
					<g>
						<rect x="1141.6" y="2160" class="st17" width="252.7" height="68.4"/>
						<rect x="1440" y="2160" class="st17" width="252.7" height="68.4"/>
					</g>
				</g>
				<g>
					<rect x="1049.2" y="1723.1" class="st12" width="735.8" height="104.7"/>
					<g>
						<rect x="1141.6" y="1741.2" class="st17" width="252.7" height="68.4"/>
						<rect x="1440" y="1741.2" class="st17" width="252.7" height="68.4"/>
					</g>
				</g>
			</g>
			<g>
				<rect x="3989.9" y="1932.5" class="st12" width="735.8" height="104.7"/>
				<g>
					<rect x="4082.3" y="1950.6" class="st17" width="252.7" height="68.4"/>
					<rect x="4380.6" y="1950.6" class="st17" width="252.7" height="68.4"/>
				</g>
			</g>
			<g>
				<rect x="3989.9" y="2141.9" class="st12" width="735.8" height="104.7"/>
				<g>
					<rect x="4082.3" y="2160" class="st17" width="252.7" height="68.4"/>
					<rect x="4380.6" y="2160" class="st17" width="252.7" height="68.4"/>
				</g>
			</g>
			<g>
				<rect x="3989.9" y="1723" class="st12" width="735.8" height="104.7"/>
				<g>
					<rect x="4082.3" y="1741.2" class="st17" width="252.7" height="68.4"/>
					<rect x="4380.6" y="1741.2" class="st17" width="252.7" height="68.4"/>
				</g>
			</g>
			<g>
				<g>
					<g>
						<rect x="2317.3" y="1950.6" class="st17" width="252.7" height="68.4"/>
						<rect x="2615.6" y="1950.6" class="st17" width="252.7" height="68.4"/>
					</g>
					<g>
						<rect x="2317.3" y="1741.2" class="st17" width="252.7" height="68.4"/>
						<rect x="2615.6" y="1741.2" class="st17" width="252.7" height="68.4"/>
					</g>
				</g>
				<g>
					<g>
						<rect x="2906.7" y="1950.6" class="st17" width="252.7" height="68.4"/>
						<rect x="3205" y="1950.6" class="st17" width="252.7" height="68.4"/>
					</g>
					<g>
						<rect x="2906.7" y="1741.2" class="st17" width="252.7" height="68.4"/>
						<rect x="3205" y="1741.2" class="st17" width="252.7" height="68.4"/>
					</g>
				</g>
			</g>
			<g>
				<g>
					<g>
						<rect x="2322.7" y="1984.8" class="st19" width="165.2" height="282.2"/>
						
							<rect x="2543" y="1926.3" transform="matrix(4.490370e-11 -1 1 4.490370e-11 558.222 4692.9873)" class="st19" width="165.2" height="282.2"/>
					</g>
				</g>
				<g>
					<g>
						
							<rect x="3287.1" y="1984.8" transform="matrix(-1 -4.488155e-11 4.488155e-11 -1 6739.3335 4251.7783)" class="st19" width="165.2" height="282.2"/>
						
							<rect x="3066.8" y="1926.3" transform="matrix(6.123234e-17 -1 1 6.123234e-17 1081.9626 5216.728)" class="st19" width="165.2" height="282.2"/>
					</g>
				</g>
			</g>
			<rect x="2029.3" y="2246.6" class="st20" width="1716.4" height="35.9"/>
		</g>
		<g>
			<g>
				<g>
					<path class="st23" d="M1174.6,1657.2v28.8c0,2.9,0.7,5.1,2.1,6.7c1.4,1.6,3.5,2.3,6.2,2.3c2.7,0,4.9-0.8,6.3-2.3
						c1.5-1.6,2.2-3.8,2.2-6.7v-28.8h11.7v28.8c0,4.3-0.9,7.9-2.7,10.9c-1.8,3-4.3,5.2-7.4,6.7c-3.1,1.5-6.5,2.3-10.3,2.3
						c-3.8,0-7.2-0.7-10.2-2.2c-3-1.5-5.4-3.7-7.1-6.7c-1.7-3-2.6-6.6-2.6-11v-28.8H1174.6z"/>
					<path class="st23" d="M1254.6,1705.4h-11.7l-19.6-29.7v29.7h-11.7v-48.2h11.7l19.6,29.9v-29.9h11.7V1705.4z"/>
					<path class="st23" d="M1274.9,1657.2v48.2h-11.7v-48.2H1274.9z"/>
					<path class="st23" d="M1328.6,1657.2l-17.1,48.2h-14.7l-17.1-48.2h12.5l11.9,36.4l12-36.4H1328.6z"/>
					<path class="st23" d="M1345.2,1666.6v9.8h15.7v9.1h-15.7v10.6h17.8v9.4h-29.5v-48.2h29.5v9.4H1345.2z"/>
					<path class="st23" d="M1395.2,1705.4l-10-18.2h-2.8v18.2h-11.7v-48.2h19.7c3.8,0,7,0.7,9.7,2c2.7,1.3,4.7,3.1,6,5.5
						c1.3,2.3,2,4.9,2,7.7c0,3.2-0.9,6.1-2.7,8.6c-1.8,2.5-4.5,4.3-8,5.4l11.1,19.1H1395.2z M1382.4,1678.9h7.3
						c2.2,0,3.8-0.5,4.8-1.6c1.1-1.1,1.6-2.5,1.6-4.5c0-1.8-0.5-3.3-1.6-4.3c-1.1-1.1-2.7-1.6-4.8-1.6h-7.3V1678.9z"/>
					<path class="st23" d="M1423.4,1704.2c-2.8-1.1-5-2.8-6.7-5.1c-1.7-2.2-2.6-4.9-2.6-8.1h12.5c0.2,1.8,0.8,3.1,1.9,4.1
						c1.1,0.9,2.4,1.4,4.1,1.4c1.7,0,3.1-0.4,4.1-1.2c1-0.8,1.5-1.9,1.5-3.3c0-1.2-0.4-2.2-1.2-3c-0.8-0.8-1.8-1.4-3-1.9
						c-1.2-0.5-2.8-1.1-5-1.7c-3.1-1-5.7-1.9-7.6-2.9c-2-1-3.7-2.4-5.1-4.3c-1.4-1.9-2.1-4.3-2.1-7.3c0-4.5,1.6-8,4.9-10.5
						c3.3-2.5,7.5-3.8,12.7-3.8c5.3,0,9.6,1.3,12.8,3.8c3.3,2.5,5,6.1,5.2,10.6h-12.7c-0.1-1.6-0.7-2.8-1.7-3.7
						c-1.1-0.9-2.4-1.3-4.1-1.3c-1.4,0-2.6,0.4-3.4,1.1c-0.9,0.8-1.3,1.8-1.3,3.3c0,1.6,0.7,2.8,2.2,3.6c1.5,0.9,3.8,1.8,6.9,2.8
						c3.1,1.1,5.6,2.1,7.6,3c1.9,1,3.6,2.4,5,4.2c1.4,1.8,2.1,4.2,2.1,7.1c0,2.7-0.7,5.2-2.1,7.5c-1.4,2.2-3.4,4-6.1,5.4
						c-2.7,1.3-5.8,2-9.4,2C1429.3,1705.9,1426.2,1705.3,1423.4,1704.2z"/>
					<path class="st23" d="M1469.4,1657.2v48.2h-11.7v-48.2H1469.4z"/>
					<path class="st23" d="M1509.3,1660.2c3.8,2,6.7,4.8,8.8,8.5c2.1,3.6,3.1,7.8,3.1,12.6c0,4.7-1,8.9-3.1,12.6
						c-2.1,3.7-5,6.5-8.9,8.5c-3.8,2-8.3,3-13.3,3h-18.1v-48.2h18.1C1501,1657.2,1505.5,1658.2,1509.3,1660.2z M1505.6,1691.6
						c2.5-2.4,3.7-5.9,3.7-10.3c0-4.4-1.2-7.9-3.7-10.4c-2.5-2.5-5.9-3.7-10.4-3.7h-5.6v28h5.6
						C1499.6,1695.2,1503.1,1694,1505.6,1691.6z"/>
					<path class="st23" d="M1557.8,1696.9h-18l-2.9,8.5h-12.3l17.4-48.2h13.6l17.4,48.2h-12.4L1557.8,1696.9z M1554.8,1687.8
						l-6-17.6l-5.9,17.6H1554.8z"/>
					<path class="st23" d="M1609.8,1660.2c3.8,2,6.7,4.8,8.8,8.5c2.1,3.6,3.1,7.8,3.1,12.6c0,4.7-1,8.9-3.1,12.6
						c-2.1,3.7-5,6.5-8.9,8.5c-3.8,2-8.3,3-13.3,3h-18.1v-48.2h18.1C1601.6,1657.2,1606,1658.2,1609.8,1660.2z M1606.1,1691.6
						c2.5-2.4,3.7-5.9,3.7-10.3c0-4.4-1.2-7.9-3.7-10.4c-2.5-2.5-5.9-3.7-10.4-3.7h-5.6v28h5.6
						C1600.2,1695.2,1603.6,1694,1606.1,1691.6z"/>
				</g>
				<g>
					<path class="st5" d="M1174.6,1649.4v28.8c0,2.9,0.7,5.1,2.1,6.7c1.4,1.6,3.5,2.3,6.2,2.3c2.7,0,4.9-0.8,6.3-2.3
						c1.5-1.6,2.2-3.8,2.2-6.7v-28.8h11.7v28.8c0,4.3-0.9,7.9-2.7,10.9c-1.8,3-4.3,5.2-7.4,6.7c-3.1,1.5-6.5,2.3-10.3,2.3
						c-3.8,0-7.2-0.7-10.2-2.2c-3-1.5-5.4-3.7-7.1-6.7c-1.7-3-2.6-6.6-2.6-11v-28.8H1174.6z"/>
					<path class="st5" d="M1254.6,1697.6h-11.7l-19.6-29.7v29.7h-11.7v-48.2h11.7l19.6,29.9v-29.9h11.7V1697.6z"/>
					<path class="st5" d="M1274.9,1649.4v48.2h-11.7v-48.2H1274.9z"/>
					<path class="st5" d="M1328.6,1649.4l-17.1,48.2h-14.7l-17.1-48.2h12.5l11.9,36.4l12-36.4H1328.6z"/>
					<path class="st5" d="M1345.2,1658.8v9.8h15.7v9.1h-15.7v10.6h17.8v9.4h-29.5v-48.2h29.5v9.4H1345.2z"/>
					<path class="st5" d="M1395.2,1697.6l-10-18.2h-2.8v18.2h-11.7v-48.2h19.7c3.8,0,7,0.7,9.7,2c2.7,1.3,4.7,3.1,6,5.5
						c1.3,2.3,2,4.9,2,7.7c0,3.2-0.9,6.1-2.7,8.6c-1.8,2.5-4.5,4.3-8,5.4l11.1,19.1H1395.2z M1382.4,1671.1h7.3
						c2.2,0,3.8-0.5,4.8-1.6c1.1-1.1,1.6-2.5,1.6-4.5c0-1.8-0.5-3.3-1.6-4.3c-1.1-1.1-2.7-1.6-4.8-1.6h-7.3V1671.1z"/>
					<path class="st5" d="M1423.4,1696.4c-2.8-1.1-5-2.8-6.7-5.1c-1.7-2.2-2.6-4.9-2.6-8.1h12.5c0.2,1.8,0.8,3.1,1.9,4.1
						c1.1,0.9,2.4,1.4,4.1,1.4c1.7,0,3.1-0.4,4.1-1.2c1-0.8,1.5-1.9,1.5-3.3c0-1.2-0.4-2.2-1.2-3c-0.8-0.8-1.8-1.4-3-1.9
						c-1.2-0.5-2.8-1.1-5-1.7c-3.1-1-5.7-1.9-7.6-2.9c-2-1-3.7-2.4-5.1-4.3c-1.4-1.9-2.1-4.3-2.1-7.3c0-4.5,1.6-8,4.9-10.5
						c3.3-2.5,7.5-3.8,12.7-3.8c5.3,0,9.6,1.3,12.8,3.8c3.3,2.5,5,6.1,5.2,10.6h-12.7c-0.1-1.6-0.7-2.8-1.7-3.7
						c-1.1-0.9-2.4-1.3-4.1-1.3c-1.4,0-2.6,0.4-3.4,1.1c-0.9,0.8-1.3,1.8-1.3,3.3c0,1.6,0.7,2.8,2.2,3.6c1.5,0.9,3.8,1.8,6.9,2.8
						c3.1,1.1,5.6,2.1,7.6,3c1.9,1,3.6,2.4,5,4.2c1.4,1.8,2.1,4.2,2.1,7.1c0,2.7-0.7,5.2-2.1,7.5c-1.4,2.2-3.4,4-6.1,5.4
						c-2.7,1.3-5.8,2-9.4,2C1429.3,1698.1,1426.2,1697.6,1423.4,1696.4z"/>
					<path class="st5" d="M1469.4,1649.4v48.2h-11.7v-48.2H1469.4z"/>
					<path class="st5" d="M1509.3,1652.5c3.8,2,6.7,4.8,8.8,8.5c2.1,3.6,3.1,7.8,3.1,12.6c0,4.7-1,8.9-3.1,12.6
						c-2.1,3.7-5,6.5-8.9,8.5c-3.8,2-8.3,3-13.3,3h-18.1v-48.2h18.1C1501,1649.4,1505.5,1650.4,1509.3,1652.5z M1505.6,1683.8
						c2.5-2.4,3.7-5.9,3.7-10.3c0-4.4-1.2-7.9-3.7-10.4c-2.5-2.5-5.9-3.7-10.4-3.7h-5.6v28h5.6
						C1499.6,1687.5,1503.1,1686.3,1505.6,1683.8z"/>
					<path class="st5" d="M1557.8,1689.1h-18l-2.9,8.5h-12.3l17.4-48.2h13.6l17.4,48.2h-12.4L1557.8,1689.1z M1554.8,1680.1l-6-17.6
						l-5.9,17.6H1554.8z"/>
					<path class="st5" d="M1609.8,1652.5c3.8,2,6.7,4.8,8.8,8.5c2.1,3.6,3.1,7.8,3.1,12.6c0,4.7-1,8.9-3.1,12.6
						c-2.1,3.7-5,6.5-8.9,8.5c-3.8,2-8.3,3-13.3,3h-18.1v-48.2h18.1C1601.6,1649.4,1606,1650.4,1609.8,1652.5z M1606.1,1683.8
						c2.5-2.4,3.7-5.9,3.7-10.3c0-4.4-1.2-7.9-3.7-10.4c-2.5-2.5-5.9-3.7-10.4-3.7h-5.6v28h5.6
						C1600.2,1687.5,1603.6,1686.3,1606.1,1683.8z"/>
				</g>
			</g>
			<g>
				<g>
					<g>
						<path class="st23" d="M2717.2,1672.4c-0.9-1.6-2.1-2.8-3.7-3.7c-1.6-0.8-3.5-1.3-5.7-1.3c-3.8,0-6.8,1.2-9.1,3.7
							c-2.3,2.5-3.4,5.8-3.4,10c0,4.4,1.2,7.9,3.6,10.4c2.4,2.5,5.7,3.7,9.9,3.7c2.9,0,5.3-0.7,7.3-2.2c2-1.5,3.4-3.6,4.4-6.3h-14.9
							v-8.7h25.5v10.9c-0.9,2.9-2.3,5.7-4.4,8.2c-2.1,2.5-4.7,4.6-7.9,6.1c-3.2,1.6-6.8,2.3-10.9,2.3c-4.8,0-9-1-12.7-3.1
							c-3.7-2.1-6.6-5-8.7-8.7c-2.1-3.7-3.1-7.9-3.1-12.7c0-4.8,1-9,3.1-12.7c2.1-3.7,5-6.6,8.7-8.7c3.7-2.1,7.9-3.1,12.7-3.1
							c5.8,0,10.6,1.4,14.6,4.2c4,2.8,6.6,6.7,7.9,11.6H2717.2z"/>
						<path class="st23" d="M2749.1,1657.2v28.8c0,2.9,0.7,5.1,2.1,6.7c1.4,1.6,3.5,2.3,6.2,2.3c2.7,0,4.9-0.8,6.3-2.3
							c1.5-1.6,2.2-3.8,2.2-6.7v-28.8h11.7v28.8c0,4.3-0.9,7.9-2.7,10.9c-1.8,3-4.3,5.2-7.4,6.7c-3.1,1.5-6.5,2.3-10.3,2.3
							s-7.2-0.7-10.2-2.2c-3-1.5-5.4-3.7-7.1-6.7s-2.6-6.6-2.6-11v-28.8H2749.1z"/>
						<path class="st23" d="M2816,1696.8h-18l-2.9,8.5h-12.3l17.4-48.2h13.6l17.4,48.2h-12.4L2816,1696.8z M2812.9,1687.8l-6-17.6
							l-5.9,17.6H2812.9z"/>
						<path class="st23" d="M2867.9,1660.2c3.8,2,6.7,4.8,8.8,8.5c2.1,3.6,3.1,7.8,3.1,12.6c0,4.7-1,8.9-3.1,12.6
							c-2.1,3.7-5,6.5-8.9,8.5c-3.8,2-8.3,3-13.3,3h-18.1v-48.2h18.1C2859.7,1657.2,2864.1,1658.2,2867.9,1660.2z M2864.2,1691.6
							c2.5-2.4,3.7-5.9,3.7-10.3c0-4.4-1.2-7.9-3.7-10.4c-2.5-2.5-5.9-3.7-10.4-3.7h-5.6v28h5.6
							C2858.3,1695.2,2861.8,1694,2864.2,1691.6z"/>
						<path class="st23" d="M2916.5,1696.8h-18l-2.9,8.5h-12.3l17.4-48.2h13.6l17.4,48.2h-12.4L2916.5,1696.8z M2913.5,1687.8
							l-6-17.6l-5.9,17.6H2913.5z"/>
						<path class="st23" d="M2948.8,1696.3h15.4v9.1h-27.1v-48.2h11.7V1696.3z"/>
						<path class="st23" d="M2981.4,1657.2v28.8c0,2.9,0.7,5.1,2.1,6.7c1.4,1.6,3.5,2.3,6.2,2.3c2.7,0,4.9-0.8,6.3-2.3
							c1.5-1.6,2.2-3.8,2.2-6.7v-28.8h11.7v28.8c0,4.3-0.9,7.9-2.7,10.9c-1.8,3-4.3,5.2-7.4,6.7c-3.1,1.5-6.5,2.3-10.3,2.3
							s-7.2-0.7-10.2-2.2c-3-1.5-5.4-3.7-7.1-6.7s-2.6-6.6-2.6-11v-28.8H2981.4z"/>
						<path class="st23" d="M3053.1,1680.3c-1.3,2.3-3.3,4.2-5.9,5.6c-2.7,1.4-5.9,2.1-9.9,2.1h-7.3v17.3h-11.7v-48.2h19
							c3.8,0,7.1,0.7,9.7,2c2.7,1.3,4.6,3.2,6,5.5c1.3,2.3,2,5,2,8C3055,1675.5,3054.3,1678,3053.1,1680.3z M3041.4,1677.1
							c1.1-1.1,1.6-2.5,1.6-4.5c0-1.9-0.5-3.4-1.6-4.5c-1.1-1.1-2.8-1.6-5-1.6h-6.4v12.1h6.4
							C3038.6,1678.7,3040.3,1678.2,3041.4,1677.1z"/>
						<path class="st23" d="M3072.8,1666.6v9.8h15.7v9.1h-15.7v10.6h17.8v9.4h-29.5v-48.2h29.5v9.4H3072.8z"/>
					</g>
				</g>
				<g>
					<path class="st5" d="M2717.2,1666.2c-0.9-1.6-2.1-2.8-3.7-3.7c-1.6-0.8-3.5-1.3-5.7-1.3c-3.8,0-6.8,1.2-9.1,3.7
						c-2.3,2.5-3.4,5.8-3.4,10c0,4.4,1.2,7.9,3.6,10.4c2.4,2.5,5.7,3.7,9.9,3.7c2.9,0,5.3-0.7,7.3-2.2c2-1.5,3.4-3.6,4.4-6.3h-14.9
						v-8.7h25.5v10.9c-0.9,2.9-2.3,5.7-4.4,8.2c-2.1,2.5-4.7,4.6-7.9,6.1c-3.2,1.6-6.8,2.3-10.9,2.3c-4.8,0-9-1-12.7-3.1
						c-3.7-2.1-6.6-5-8.7-8.7c-2.1-3.7-3.1-7.9-3.1-12.7c0-4.8,1-9,3.1-12.7c2.1-3.7,5-6.6,8.7-8.7c3.7-2.1,7.9-3.1,12.7-3.1
						c5.8,0,10.6,1.4,14.6,4.2c4,2.8,6.6,6.7,7.9,11.6H2717.2z"/>
					<path class="st5" d="M2749.1,1650.9v28.8c0,2.9,0.7,5.1,2.1,6.7s3.5,2.3,6.2,2.3c2.8,0,4.9-0.8,6.3-2.3
						c1.5-1.6,2.2-3.8,2.2-6.7v-28.8h11.7v28.8c0,4.3-0.9,7.9-2.7,10.9c-1.8,3-4.3,5.2-7.4,6.7c-3.1,1.5-6.5,2.3-10.3,2.3
						s-7.2-0.7-10.2-2.2c-3-1.5-5.4-3.7-7.1-6.7c-1.7-3-2.6-6.6-2.6-11v-28.8H2749.1z"/>
					<path class="st5" d="M2816,1690.6h-18l-2.9,8.5h-12.3l17.4-48.2h13.6l17.4,48.2h-12.4L2816,1690.6z M2812.9,1681.5l-6-17.6
						l-5.9,17.6H2812.9z"/>
					<path class="st5" d="M2867.9,1653.9c3.8,2,6.7,4.8,8.8,8.5c2.1,3.6,3.1,7.8,3.1,12.6c0,4.7-1,8.9-3.1,12.6
						c-2.1,3.7-5,6.5-8.9,8.5c-3.8,2-8.3,3-13.3,3h-18.1v-48.2h18.1C2859.7,1650.9,2864.1,1651.9,2867.9,1653.9z M2864.2,1685.3
						c2.5-2.4,3.7-5.9,3.7-10.3c0-4.4-1.2-7.9-3.7-10.4c-2.5-2.5-5.9-3.7-10.4-3.7h-5.6v28h5.6
						C2858.3,1688.9,2861.8,1687.7,2864.2,1685.3z"/>
					<path class="st5" d="M2916.5,1690.6h-18l-2.9,8.5h-12.3l17.4-48.2h13.6l17.4,48.2h-12.4L2916.5,1690.6z M2913.5,1681.5l-6-17.6
						l-5.9,17.6H2913.5z"/>
					<path class="st5" d="M2948.8,1690h15.4v9.1h-27.1v-48.2h11.7V1690z"/>
					<path class="st5" d="M2981.4,1650.9v28.8c0,2.9,0.7,5.1,2.1,6.7s3.5,2.3,6.2,2.3c2.8,0,4.9-0.8,6.3-2.3
						c1.5-1.6,2.2-3.8,2.2-6.7v-28.8h11.7v28.8c0,4.3-0.9,7.9-2.7,10.9c-1.8,3-4.3,5.2-7.4,6.7c-3.1,1.5-6.5,2.3-10.3,2.3
						s-7.2-0.7-10.2-2.2c-3-1.5-5.4-3.7-7.1-6.7c-1.7-3-2.6-6.6-2.6-11v-28.8H2981.4z"/>
					<path class="st5" d="M3053.1,1674.1c-1.3,2.3-3.3,4.2-5.9,5.6c-2.7,1.4-6,2.1-9.9,2.1h-7.3v17.3h-11.7v-48.2h19
						c3.8,0,7.1,0.7,9.7,2c2.7,1.3,4.6,3.2,6,5.5c1.3,2.3,2,5,2,8C3055,1669.2,3054.3,1671.8,3053.1,1674.1z M3041.4,1670.9
						c1.1-1.1,1.6-2.5,1.6-4.5s-0.5-3.4-1.6-4.5c-1.1-1.1-2.8-1.6-5-1.6h-6.4v12.1h6.4C3038.6,1672.5,3040.3,1671.9,3041.4,1670.9z"
						/>
					<path class="st5" d="M3072.8,1660.3v9.8h15.7v9.1h-15.7v10.6h17.8v9.4h-29.5v-48.2h29.5v9.4H3072.8z"/>
				</g>
			</g>
			<g>
				<g>
					<g>
						<path class="st23" d="M4266.6,1657.4l-17.1,48.2h-14.7l-17.1-48.2h12.5l11.9,36.4l12-36.4H4266.6z"/>
						<path class="st23" d="M4283.2,1657.4v48.2h-11.7v-48.2H4283.2z"/>
						<path class="st23" d="M4292.8,1668.7c2.1-3.7,4.9-6.6,8.6-8.7c3.7-2.1,7.9-3.1,12.5-3.1c5.7,0,10.6,1.5,14.7,4.5
							c4.1,3,6.8,7.1,8.2,12.4h-12.9c-1-2-2.3-3.5-4.1-4.6c-1.8-1.1-3.8-1.6-6-1.6c-3.6,0-6.5,1.3-8.8,3.8
							c-2.2,2.5-3.4,5.9-3.4,10.1c0,4.2,1.1,7.6,3.4,10.1c2.2,2.5,5.2,3.8,8.8,3.8c2.2,0,4.2-0.5,6-1.6c1.8-1.1,3.1-2.6,4.1-4.6
							h12.9c-1.4,5.2-4.1,9.3-8.2,12.3c-4.1,3-9,4.5-14.7,4.5c-4.7,0-8.8-1-12.5-3.1c-3.7-2.1-6.6-5-8.6-8.7
							c-2.1-3.7-3.1-7.9-3.1-12.7C4289.7,1676.6,4290.7,1672.4,4292.8,1668.7z"/>
						<path class="st23" d="M4378.7,1657.4v9.4h-12.8v38.8h-11.7v-38.8h-12.8v-9.4H4378.7z"/>
						<path class="st23" d="M4394.9,1702.9c-3.8-2.1-6.8-5-9-8.8c-2.2-3.8-3.3-8-3.3-12.7c0-4.7,1.1-8.9,3.3-12.7
							c2.2-3.8,5.2-6.7,9-8.8c3.8-2.1,7.9-3.2,12.5-3.2c4.5,0,8.7,1.1,12.5,3.2c3.8,2.1,6.8,5,8.9,8.8c2.2,3.8,3.3,8,3.3,12.7
							c0,4.7-1.1,9-3.3,12.7c-2.2,3.8-5.2,6.7-8.9,8.8c-3.8,2.1-7.9,3.2-12.4,3.2C4402.9,1706.1,4398.7,1705,4394.9,1702.9z
							 M4416.6,1691.5c2.3-2.6,3.5-6,3.5-10.2c0-4.3-1.2-7.7-3.5-10.2c-2.3-2.5-5.4-3.8-9.2-3.8c-3.9,0-7,1.3-9.3,3.8
							s-3.5,5.9-3.5,10.2c0,4.3,1.2,7.7,3.5,10.2s5.4,3.8,9.3,3.8C4411.3,1695.3,4414.3,1694.1,4416.6,1691.5z"/>
						<path class="st23" d="M4463.2,1705.6l-10-18.2h-2.8v18.2h-11.7v-48.2h19.7c3.8,0,7,0.7,9.7,2c2.7,1.3,4.7,3.1,6,5.5
							c1.3,2.3,2,4.9,2,7.7c0,3.2-0.9,6.1-2.7,8.6c-1.8,2.5-4.5,4.3-8,5.4l11.1,19.1H4463.2z M4450.3,1679.1h7.3
							c2.2,0,3.8-0.5,4.8-1.6s1.6-2.5,1.6-4.5c0-1.8-0.5-3.3-1.6-4.3s-2.7-1.6-4.8-1.6h-7.3V1679.1z"/>
						<path class="st23" d="M4495.1,1657.4v48.2h-11.7v-48.2H4495.1z"/>
						<path class="st23" d="M4533.6,1697.1h-18l-2.9,8.5h-12.3l17.4-48.2h13.6l17.4,48.2h-12.4L4533.6,1697.1z M4530.6,1688l-6-17.6
							l-5.9,17.6H4530.6z"/>
					</g>
				</g>
				<g>
					<path class="st5" d="M4266.6,1650.9l-17.1,48.2h-14.7l-17.1-48.2h12.5l11.9,36.4l12-36.4H4266.6z"/>
					<path class="st5" d="M4283.2,1650.9v48.2h-11.7v-48.2H4283.2z"/>
					<path class="st5" d="M4292.8,1662.2c2.1-3.7,4.9-6.6,8.6-8.7c3.7-2.1,7.9-3.1,12.5-3.1c5.7,0,10.6,1.5,14.7,4.5
						c4.1,3,6.8,7.1,8.2,12.4h-12.9c-1-2-2.3-3.5-4.1-4.6c-1.8-1.1-3.8-1.6-6-1.6c-3.6,0-6.5,1.3-8.8,3.8c-2.2,2.5-3.4,5.9-3.4,10.1
						c0,4.2,1.1,7.6,3.4,10.1c2.2,2.5,5.2,3.8,8.8,3.8c2.2,0,4.2-0.5,6-1.6c1.8-1.1,3.1-2.6,4.1-4.6h12.9c-1.4,5.2-4.1,9.3-8.2,12.3
						c-4.1,3-9,4.5-14.7,4.5c-4.7,0-8.8-1-12.5-3.1c-3.7-2.1-6.6-5-8.6-8.7c-2.1-3.7-3.1-7.9-3.1-12.7
						C4289.7,1670.2,4290.7,1665.9,4292.8,1662.2z"/>
					<path class="st5" d="M4378.7,1650.9v9.4h-12.8v38.8h-11.7v-38.8h-12.8v-9.4H4378.7z"/>
					<path class="st5" d="M4394.9,1696.4c-3.8-2.1-6.8-5-9-8.8c-2.2-3.8-3.3-8-3.3-12.7c0-4.7,1.1-8.9,3.3-12.7
						c2.2-3.8,5.2-6.7,9-8.8c3.8-2.1,7.9-3.2,12.5-3.2c4.5,0,8.7,1.1,12.5,3.2c3.8,2.1,6.8,5,8.9,8.8c2.2,3.8,3.3,8,3.3,12.7
						c0,4.7-1.1,9-3.3,12.7c-2.2,3.8-5.2,6.7-8.9,8.8c-3.8,2.1-7.9,3.2-12.4,3.2C4402.9,1699.6,4398.7,1698.5,4394.9,1696.4z
						 M4416.6,1685c2.3-2.6,3.5-6,3.5-10.2c0-4.3-1.2-7.7-3.5-10.2c-2.3-2.5-5.4-3.8-9.2-3.8c-3.9,0-7,1.3-9.3,3.8
						s-3.5,5.9-3.5,10.2c0,4.3,1.2,7.7,3.5,10.2s5.4,3.8,9.3,3.8C4411.3,1688.9,4414.3,1687.6,4416.6,1685z"/>
					<path class="st5" d="M4463.2,1699.1l-10-18.2h-2.8v18.2h-11.7v-48.2h19.7c3.8,0,7,0.7,9.7,2c2.7,1.3,4.7,3.1,6,5.5
						c1.3,2.3,2,4.9,2,7.7c0,3.2-0.9,6.1-2.7,8.6c-1.8,2.5-4.5,4.3-8,5.4l11.1,19.1H4463.2z M4450.3,1672.6h7.3
						c2.2,0,3.8-0.5,4.8-1.6s1.6-2.5,1.6-4.5c0-1.8-0.5-3.3-1.6-4.3s-2.7-1.6-4.8-1.6h-7.3V1672.6z"/>
					<path class="st5" d="M4495.1,1650.9v48.2h-11.7v-48.2H4495.1z"/>
					<path class="st5" d="M4533.6,1690.6h-18l-2.9,8.5h-12.3l17.4-48.2h13.6l17.4,48.2h-12.4L4533.6,1690.6z M4530.6,1681.5l-6-17.6
						l-5.9,17.6H4530.6z"/>
				</g>
			</g>
		</g>
		<rect x="1049.2" y="1723.1" class="st22" width="735.8" height="38.6"/>
		<rect x="1049.2" y="2141.9" class="st22" width="735.8" height="38.6"/>
		<rect x="1049.2" y="1932.5" class="st22" width="735.8" height="38.6"/>
		<rect x="2273.4" y="1723.1" class="st22" width="1228.1" height="38.6"/>
		<rect x="3989.9" y="1723.1" class="st22" width="735.8" height="38.6"/>
		<rect x="3989.9" y="1932.5" class="st22" width="735.8" height="38.6"/>
		<rect x="3989.9" y="2141.9" class="st22" width="735.8" height="38.6"/>
		<rect x="3501.5" y="1719.8" class="st22" width="488.4" height="30.8"/>
		<rect x="1785.1" y="1719.8" class="st22" width="488.4" height="30.8"/>
		<rect x="2273.4" y="1932.5" class="st22" width="1228.1" height="38.6"/>
	</g>
	<polygon class="st21" points="4755.3,2268.6 3745.7,2268.6 3745.7,2246.6 4725.7,2246.6 	"/>
	<polygon class="st21" points="1019.7,2268.6 2029.3,2268.6 2029.3,2246.6 1049.2,2246.6 	"/>
</g>
</svg>
