<?xml version="1.0" encoding="utf-8"?>
<!-- Generator: Adobe Illustrator 27.2.0, SVG Export Plug-In . SVG Version: 6.00 Build 0)  -->
<svg version="1.1" id="Capa_1" xmlns="http://www.w3.org/2000/svg" xmlns:xlink="http://www.w3.org/1999/xlink" x="0px" y="0px"
	 viewBox="0 0 5775 2912.3" style="enable-background:new 0 0 5775 2912.3;" xml:space="preserve">
<style type="text/css">
	.st0{fill:#FEF4F2;}
	.st1{fill:#48AF94;}
	.st2{fill:#51BFA6;}
	.st3{fill:#58CCAA;}
	.st4{fill:#777777;}
	.st5{fill:#FFFFFF;}
	.st6{fill:#732A09;}
	.st7{fill:#D13F3F;}
	.st8{fill:#F35454;}
	.st9{fill:#F05454;}
	.st10{display:none;}
	.st11{display:inline;}
	.st12{fill:#FCEDB1;}
	.st13{fill:#EF7B41;}
	.st14{fill:#DD6C3A;}
	.st15{fill:#56C0EF;}
	.st16{fill:#F4E5A6;}
	.st17{fill:#A7ECF2;}
	.st18{fill:#EFEFEF;}
	.st19{fill:#F4E7B0;}
	.st20{fill:#EDDFA4;}
	.st21{fill:#00847F;}
	.st22{opacity:0.2;}
	.st23{fill:#C45727;}
	.st24{display:inline;fill:#FFFFFF;}
	.st25{display:inline;fill:#732A09;}
	.st26{display:inline;fill:#D13F3F;}
	.st27{display:inline;fill:#F35454;}
</style>
<g id="character_00000160886637279344742600000010887272835256753842_">
	<g>
		<path class="st5" d="M1136.5,2085.7l-60.7-67.3l-26.2-38c0,0,41.4-42.6,47.2-96.8c5.7-54.2-5.1-85.3-5.1-85.3l-201.1-19.9
			c-40.3,88-73.3,185-18.2,215.4c0,0-26.8,59.2-37.7,107.6c-9.1,40.3-27.2,105.7-32.9,126.4c-1.1,4.1,0.6,8.5,4.3,10.6
			c11.2,6.7,38.1,18.5,81.6,11.5c3.3-0.6,6.2-2.8,7.4-5.9c9.9-25.7,56-143.6,85.6-188.6c0,0,52,61.1,95.3,82.9l49.9,19.9
			c2.2,0.2,6.8-1.1,7.5-3.8c4-13.7,5.1-36.6,6.2-55.9C1139.7,2094.1,1138.3,2092,1136.5,2085.7z"/>
	</g>
	<path class="st6" d="M1136,2148.8c-1.4,8.4-10.4,13.3-18.3,9.9c-17.6-7.5-44.3-19.5-46.4-20.7c-38-21.4-81.2-69.6-89.5-79.1
		c-29.7,46.4-75.3,163.3-84.2,186.5c-1.4,3.7-4.7,6.3-8.7,7c-9.5,1.5-18.3,2.2-26.2,2.2l0.1,0c-28.3,0-46.9-8.1-56.5-13.9
		c-4.3-2.6-6.3-7.7-5-12.5c5.4-19.4,23.8-85.8,32.9-126.3c9.9-44,33.2-97.4,37.2-106.6c-56.9-33.3-16.6-139.5,18.8-216.8
		c0.3-0.6,0.9-1,1.6-0.9l201.1,19.9c0.6,0.1,1.2,0.5,1.4,1.1c0.1,0.3,10.9,32.2,5.2,86c-5.2,49.6-40.5,90-46.7,96.7l25.5,36.9
		c0.1,0.2,34,35,52.2,56.7c7.6,9.1,11.4,20.8,10.6,32.6C1140.1,2121.2,1138.4,2134.9,1136,2148.8z M892.7,1781.2
		c-72.8,159.1-45.4,197.4-18.4,212.3c0.7,0.4,1,1.3,0.7,2.1c-0.3,0.6-26.9,59.6-37.6,107.3c-9.1,40.5-27.5,107-32.9,126.4
		c-0.9,3.4,0.5,7,3.5,8.8c11.9,7.1,38.2,18.1,80.5,11.3c2.8-0.5,5.1-2.3,6.1-4.9c9.1-23.6,55.9-143.6,85.7-188.9
		c0.3-0.4,0.7-0.7,1.3-0.7c0.5,0,1,0.2,1.3,0.6c0.5,0.6,50.5,58.8,92.5,81.3l44.6,19c5,2.1,10.7-0.6,12.1-5.8
		c3.2-11.9,4.8-23,6-40.9c0.8-11.5,0.1-21.8-9.8-32.1c-14.6-15.3-33.2-36.9-52.9-56.8l-26-37.6c-0.5-0.6-0.4-1.5,0.2-2
		c0.4-0.4,41.1-42.9,46.7-95.8c5.1-47.9-3-78-4.7-83.7L892.7,1781.2L892.7,1781.2z"/>
	<path class="st6" d="M873.4,1996.5c0,0-0.3,0-0.5-0.1c-0.9-0.3-1.4-1.1-1.1-2c0.3-0.9,26.5-91.7,70.2-154c0.5-0.7,1.5-0.9,2.3-0.4
		c0.7,0.5,0.9,1.5,0.4,2.3c-43.4,61.9-69.4,152.1-69.7,153C874.8,1996,874.2,1996.5,873.4,1996.5L873.4,1996.5z"/>
	<path class="st6" d="M981.6,2058c-0.3,0-0.6-0.1-0.9-0.3c-0.7-0.5-0.9-1.5-0.4-2.3c12.2-17.1,29.6-34.4,44.9-49.6
		c10-9.9,18.6-18.4,24.2-25.4c0.6-0.7,1.6-0.8,2.3-0.2c0.7,0.6,0.8,1.6,0.2,2.3c-5.7,7.1-14.4,15.7-24.5,25.6
		c-15.3,15.1-32.6,32.3-44.6,49.2C982.6,2057.8,982.1,2058,981.6,2058L981.6,2058z"/>
	<path class="st5" d="M879.3,1571.3c23.1,40,171,19.8,200.1,0.9c29-18.9,18-54.5,5.7-80.2c-10.7-22.5-30.1-39.7-54.4-76.3
		c-3.5-5.2-7-10.8-10.6-16.8c-8.3-13.9-15.9-25.3-23.4-34.5c-18.9-23.1-37.9-32.4-69.7-32.2c-22-7.8-37,2.9-48.3,20.4
		c-3.2,4.9-6.1,10.3-8.7,16c-6.6,14.2-5.5,23.7-4.3,33.3c1,8.1,2.1,16.2-0.9,27.1c-6.7,24,3.9,36,9.1,60.8
		C879.1,1514.6,856.2,1531.3,879.3,1571.3L879.3,1571.3z"/>
	<path class="st6" d="M957.7,1596c-17.2,0-33.5-1.4-46.9-4.6c-16.7-4-27.7-10.5-32.8-19.3c-15-25.8-11.1-42.4-7.6-57
		c2-8.3,3.8-16.2,2-25c-1.6-7.6-3.7-13.9-5.7-20c-4.4-13.2-8.1-24.5-3.4-41.5c2.9-10.3,1.9-18.1,1-25.8l-0.1-0.7
		c-1.1-9-2.4-19.3,4.5-34.2c2.9-6.3,5.8-11.6,8.8-16.2c13.7-21.2,30-28.1,49.9-21.1c0.3,0,0.7,0,1,0c30.9,0,50.5,9.3,69.7,32.8
		c7.1,8.7,14.3,19.4,23.6,34.7c3.6,6,7,11.4,10.6,16.8c10.9,16.4,20.7,28.8,29.4,39.8c10.7,13.5,19.2,24.2,25.1,36.7
		c18.9,39.6,16.8,67.2-6.3,82.2C1063,1585,1006.7,1596.1,957.7,1596L957.7,1596z M913,1331.2c-12.5,0-23.2,7.3-32.8,22.3
		c-2.9,4.5-5.7,9.6-8.6,15.8c-6.5,14-5.3,23.4-4.2,32.4l0.1,0.7c1,7.9,2,16.1-1.1,27c-4.5,16.1-1,26.5,3.3,39.7
		c1.9,5.9,4.2,12.5,5.8,20.4c2,9.5,0.1,17.7-2,26.4c-3.5,14.7-7.1,29.9,7.3,54.6l0,0c4.7,8,15,14,30.8,17.8
		c50.8,12.2,143.9-2.4,167-17.4c21.8-14.2,23.5-39.7,5.2-78.1c-5.8-12.2-14.2-22.7-24.7-36.1c-8.7-11-18.6-23.5-29.6-40
		c-3.5-5.3-7-10.9-10.6-16.9c-9-15-16.4-26-23.3-34.4c-19-23.3-37.6-31.9-68.5-31.6c-0.1-0.1-0.4,0-0.6-0.1
		C921.8,1332.1,917.3,1331.2,913,1331.2L913,1331.2z"/>
	<path class="st7" d="M845,1558.1c0,0,22.6-47.2,64.1-65c41.5-17.7,135-11.6,157.8,28.8c22.7,40.4,57.6,207.6,60.3,232.4
		c2.8,24.9-22.1,34.3-22.1,34.3l-1.1,22.1c0,0-79.1,23.8-143.4,9.4c-64.2-14.4-95.2-26.6-95.2-26.6l14.4-167.2L845,1558.1
		L845,1558.1z"/>
	<path class="st5" d="M800,1514l29.9-6.5l10,50.2c0,0,32.8-12.9,58.6-18.7c25.9-5.8,64.8-4,64.8-4l28.3,148.9l-12.5,6.9l-142.4-89
		l-27.8-48.4L800,1514L800,1514z"/>
	<path class="st6" d="M979.1,1692.4c-0.3,0-0.6-0.1-0.9-0.3l-142.4-89c-0.2-0.1-0.4-0.3-0.6-0.6l-27.8-48.4c0,0-0.1-0.3-0.2-0.5
		l-9-39.4c-0.1-0.4,0-0.9,0.2-1.2c0.2-0.4,0.6-0.6,1-0.7l29.9-6.5c0.4-0.1,0.9,0,1.2,0.2c0.4,0.2,0.6,0.6,0.7,1l9.7,48.3
		c7.2-2.8,34.8-13.1,57.1-18.1c25.8-5.8,64.9-4.1,65.3-4.1c0.7,0,1.4,0.6,1.5,1.3l28.3,148.9c0.1,0.7-0.2,1.4-0.8,1.7l-12.5,6.9
		C979.7,1692.3,979.5,1692.3,979.1,1692.4L979.1,1692.4z M838,1600.7l141.2,88.2l10.7-5.9L962,1536.5c-6.9-0.2-40.4-1.1-63.2,4
		c-25.4,5.7-58,18.5-58.4,18.6c-0.5,0.2-0.9,0.1-1.4-0.1c-0.4-0.2-0.7-0.6-0.8-1.1l-9.7-48.5l-26.7,5.8l8.6,37.6L838,1600.7
		L838,1600.7z"/>
	<path class="st7" d="M795.7,1514l26.2,56.7l15.3,7.6c0,0,65.9-24.8,117.1-21.9l27.3,153c0,0-71.5,19.5-116.3,9l-15-9.5l-36-121.1
		L795.7,1514L795.7,1514z"/>
	<path class="st6" d="M896.2,1723.1c-11,0-21.7-0.9-31.2-3.1c-0.2,0-0.4-0.1-0.5-0.2l-15-9.5c-0.3-0.2-0.6-0.5-0.7-0.9l-36-121.1
		l-18.6-74c-0.2-0.8,0.2-1.7,1-1.9c0.8-0.3,1.7,0.1,2,0.8l26,56.2l14.1,7.1c7.1-2.6,68.9-24.5,117.1-21.8c0.7,0,1.4,0.6,1.5,1.3
		l27.3,153c0.2,0.8-0.4,1.6-1.2,1.8C981.5,1711.1,936.9,1723.1,896.2,1723.1L896.2,1723.1z M866,1716.9
		c40.4,9.3,103.5-6.1,113.8-8.7L952.9,1558c-50-2.4-114.5,21.6-115.1,21.9c-0.4,0.2-0.9,0.1-1.3-0.1l-15.3-7.6
		c-0.3-0.2-0.6-0.4-0.7-0.8l-18.9-41l14.4,57.1l35.8,120.4L866,1716.9L866,1716.9z"/>
	<path class="st5" d="M809.6,1590.2c-5.8-3.2-6.2-8.8-3.4-10.8c2.8-2,13.3-2.8,15.7,0c2.4,2.8,0.3,8.2-3,8.7
		C815.7,1588.6,809.6,1590.2,809.6,1590.2L809.6,1590.2z"/>
	<path class="st6" d="M809.6,1591.8c-0.3,0-0.6-0.1-0.8-0.2c-3.5-2-5.7-5.1-5.9-8.3c-0.1-2.2,0.7-4.1,2.3-5.2
		c3.1-2.2,14.7-3.4,17.9,0.3c1.5,1.7,1.9,4.4,0.9,6.9c-0.9,2.5-2.8,4.2-4.9,4.5c-3.1,0.5-9.1,2-9.1,2
		C809.9,1591.8,809.7,1591.8,809.6,1591.8L809.6,1591.8z M815,1579.1c-3.1,0-6.6,0.6-7.9,1.5c-0.7,0.5-1,1.4-1,2.5
		c0.1,1.9,1.5,3.9,3.7,5.3c1.7-0.5,6.1-1.6,8.8-1.9c0.9-0.1,1.8-1.1,2.3-2.4c0.4-1.1,0.6-2.7-0.3-3.6
		C819.9,1579.6,817.6,1579.2,815,1579.1L815,1579.1z"/>
	<path class="st5" d="M813.2,1598.4c0,0-9.1-4.3-6.6-9.2c2.5-4.9,16.3-4.8,17.6-2.6c1.3,2.2-1,8.2-5.3,8.7
		C814.6,1595.9,813.2,1598.4,813.2,1598.4z"/>
	<path class="st6" d="M813.2,1600c-0.2,0-0.5,0-0.7-0.2c-0.6-0.3-6.3-3.1-7.7-7.1c-0.5-1.5-0.4-2.9,0.3-4.3
		c2.2-4.3,9.9-4.8,12.2-4.9c2.1,0,7.1,0.1,8.3,2.3c0.9,1.6,0.7,4.1-0.5,6.5c-1.4,2.7-3.6,4.3-6.1,4.6c-3.3,0.4-4.4,2.1-4.5,2.2
		C814.3,1599.7,813.7,1600,813.2,1600L813.2,1600z M818,1586.8c-1.4,0-3,0.1-4.7,0.5c-2.7,0.6-4.7,1.5-5.2,2.7
		c-0.3,0.6-0.3,1.1-0.1,1.8c0.6,1.8,3.2,3.7,4.9,4.6c1-1,2.9-2.3,5.9-2.6c1.9-0.2,3.1-2.1,3.5-2.9c0.8-1.5,0.8-3,0.6-3.4
		C822.5,1587.3,820.6,1586.9,818,1586.8L818,1586.8z"/>
	<path class="st5" d="M814.8,1608.6c0,0-10.3-3.8-7.8-9.9s17.8-6.6,19.4-3.4c1.6,3.3,1.9,6.9-4.8,10.1L814.8,1608.6L814.8,1608.6z"
		/>
	<path class="st6" d="M814.8,1610.3c-0.2,0-0.4,0-0.6-0.1c-0.3-0.1-6.7-2.5-8.7-6.9c-0.7-1.7-0.8-3.4-0.1-5.1
		c1.7-4.4,8.3-6.2,13.3-6.4c2.3-0.1,7.7,0,9.1,2.9c0.7,1.6,1.7,3.9,0.7,6.4c-0.8,2.3-2.9,4.2-6.4,5.8l-6.7,3.2
		C815.3,1610.2,815,1610.3,814.8,1610.3z M819.7,1595c-0.7,0-1.6,0-2.4,0.1c-4.5,0.5-8,2.1-8.8,4.2c-0.4,0.9-0.4,1.7,0,2.6
		c1,2.3,4.4,4.1,6.3,4.9l6.1-2.9c2.6-1.2,4.2-2.6,4.7-4c0.4-1.1,0.2-2.3-0.6-3.9C824.6,1595.6,822.7,1595,819.7,1595z"/>
	<path class="st5" d="M824.5,1622.2c0,0-13.3-5.8-14-12c-0.7-6.2,8.5-9.8,14-8c5.5,1.8,2.2,6.7-3.8,7.3L824.5,1622.2L824.5,1622.2z"
		/>
	<path class="st6" d="M824.5,1623.9c-0.2,0-0.5,0-0.6-0.1c-1.5-0.6-14.2-6.4-15-13.3c-0.3-2.7,0.8-5.2,3.1-7.1c3.4-2.8,9-3.9,13-2.6
		c3.9,1.3,4,3.7,3.9,4.7c-0.3,2.4-2.8,4.5-6.1,5.4l3.2,10.9c0.2,0.6,0,1.3-0.5,1.7C825.3,1623.7,824.9,1623.8,824.5,1623.9
		L824.5,1623.9z M821.4,1603.4c-2.5,0-5.3,0.9-7.2,2.4c-1,0.8-2.2,2.3-2,4.2c0.4,3,5.3,6.6,9.8,9.1l-2.7-9.1c-0.1-0.5-0.1-1,0.2-1.4
		c0.3-0.4,0.7-0.6,1.2-0.7c3.2-0.4,5-2,5.1-2.9c0.1-0.5-0.8-1-1.7-1.3C823.3,1603.6,822.4,1603.4,821.4,1603.4L821.4,1603.4z"/>
	<polygon class="st8" points="821.9,1570.7 850.3,1708.9 865.3,1718.5 837.2,1578.3 	"/>
	<path class="st6" d="M865.3,1720.1c-0.3,0-0.6-0.1-0.9-0.3l-15-9.5c-0.4-0.2-0.6-0.6-0.7-1L820.4,1571c-0.1-0.6,0.1-1.2,0.6-1.6
		c0.5-0.4,1.2-0.5,1.7-0.2l15.3,7.6c0.5,0.2,0.8,0.6,0.9,1.1l28.1,140.1c0.1,0.6-0.1,1.3-0.7,1.7
		C866,1720,865.7,1720.1,865.3,1720.1L865.3,1720.1z M851.7,1707.9l11.2,7.1l-27.2-135.6l-11.6-5.8L851.7,1707.9L851.7,1707.9z"/>
	<path class="st5" d="M954.3,1686.6c0,0-27.4-9.8-37.6-17.9s-19.3-38.6-27.1-37.6c-7.8,1,1.4,38.6,1.4,38.6s-15.9-2-25.8-9.1
		c-9.8-7.1-27.1-22.4-33.5-21.7c-6.4,0.7,20.7,29.1,20.7,29.1s-16.6-6.4-20-4.4c-3.4,2,15.3,14.2,15.3,14.2s-7.3-1.5-8.7,2.9
		c-1.4,4.4,11.4,10,11.4,10s-9.2,3.9,0.6,10.7c9.9,6.8,22.5,16.3,37.4,16.9s35.9-1.5,35.9-1.5l24.1,17.3
		C948.3,1734.2,949.9,1703.9,954.3,1686.6L954.3,1686.6z"/>
	<path class="st6" d="M948.2,1735.8c-0.3,0-0.7-0.1-0.9-0.3l-23.6-16.9c-3.6,0.4-22.1,2.1-35.5,1.5c-14.4-0.6-26.4-9-36.2-15.8
		l-2-1.4c-3.7-2.6-5.5-5.2-5.2-7.8c0.2-1.7,1.2-3,2.2-4c-4.3-2.2-10.9-6.4-9.6-10.7c0.7-2.4,2.7-3.6,4.9-4.1c-5.7-4-12.1-9.1-12-12
		c0-0.8,0.5-1.6,1.2-2c2.6-1.5,9.6,0.2,15.1,2c-8.6-9.3-18.8-21.6-17.4-25.3c0.4-0.9,1.2-1.6,2.3-1.7c5.2-0.6,14.3,6.3,26.7,15.9
		c2.9,2.3,5.6,4.4,7.9,6.1c7.2,5.2,18,7.6,22.7,8.5c-1.8-7.8-6.4-30.4-2.3-36.4c0.9-1.3,2.1-1.8,2.9-1.8c5.3-0.7,9.8,7.8,15.5,18.5
		c4.1,7.8,8.5,16,12.8,19.5c9.9,7.9,36.8,17.5,37.1,17.6c0.8,0.3,1.2,1.1,1,1.9c-4.3,16.9-6,46.9-6,47.2c0,0.6-0.4,1.1-0.9,1.4
		C948.8,1735.7,948.6,1735.8,948.2,1735.8L948.2,1735.8z M924.2,1715.2c0.3,0,0.7,0.1,0.9,0.3l21.7,15.6c0.5-7.8,2.1-29.2,5.6-43.5
		c-5.8-2.1-27.6-10.4-36.7-17.7c-4.9-3.9-9.4-12.3-13.7-20.5c-4.1-7.6-9.1-17.3-12.2-16.8c-0.1,0-0.3,0-0.6,0.5
		c-2.9,4.3,0.5,24.5,3.3,36.2c0.1,0.5,0,1.1-0.4,1.5c-0.4,0.4-0.9,0.6-1.4,0.5c-0.7-0.1-16.5-2.2-26.5-9.4c-2.3-1.7-5.1-3.9-8-6.2
		c-8.2-6.4-19.2-15-23.9-15.3c0.9,3.6,11.3,16.1,21.2,26.4c0.5,0.6,0.6,1.4,0.2,2s-1.2,0.9-1.9,0.6c-7.7-3-15.4-5-17.9-4.7
		c1.5,2.2,8.4,7.6,14.6,11.7c0.6,0.4,0.9,1.3,0.6,2c-0.3,0.7-1.1,1.1-1.8,1c-0.1,0-5.9-1.1-6.8,1.8c-0.5,1.7,5.1,5.7,10.5,8
		c0.6,0.3,1,0.8,1,1.5c0,0.6-0.4,1.2-1,1.5c-0.7,0.3-2.8,1.5-2.9,3c-0.1,1.3,1.2,3,3.8,4.8l2.1,1.4c9.4,6.5,21,14.6,34.4,15.2
		C903,1717.4,923.8,1715.2,924.2,1715.2C924.1,1715.2,924.2,1715.2,924.2,1715.2L924.2,1715.2z"/>
	<path class="st6" d="M873.4,1683.1c0,0-0.3,0-0.4-0.1c-8-2-21.2-13.3-21.8-13.8c-0.7-0.6-0.7-1.6-0.2-2.3c0.6-0.7,1.6-0.8,2.3-0.2
		c0.1,0.1,13.2,11.2,20.4,13.1c0.9,0.2,1.4,1.1,1.2,2C874.8,1682.6,874.1,1683.1,873.4,1683.1L873.4,1683.1z"/>
	<path class="st6" d="M875,1692.8c0,0-0.3,0-0.5-0.1c-0.7-0.2-16.7-5.3-27.8-13.5c-0.7-0.5-0.9-1.6-0.4-2.3c0.5-0.7,1.6-0.9,2.3-0.4
		c10.7,7.8,26.7,13,26.9,13c0.8,0.3,1.3,1.2,1.1,2C876.3,1692.3,875.7,1692.8,875,1692.8L875,1692.8z"/>
	<path class="st6" d="M875,1704.4c-0.2,0-0.4,0-0.6-0.1c-0.6-0.3-14.9-6.1-24.9-12.2c-0.8-0.5-1-1.5-0.6-2.2c0.5-0.8,1.5-1,2.2-0.6
		c9.8,5.9,24.3,11.9,24.4,11.9c0.8,0.4,1.2,1.3,0.9,2.1C876.2,1704,875.6,1704.4,875,1704.4L875,1704.4z"/>
	<path class="st7" d="M1048.7,1691.1c0,0-90-16.6-94.4-4.5c0,0-6.2,34-6.1,47.5c0,0,0.5,12.8,8.4,17.4c7.8,4.6,72.6,33.3,136.2,37.2
		"/>
	<path class="st6" d="M1092.8,1790.4C1092.8,1790.4,1092.7,1790.4,1092.8,1790.4c-64.8-3.9-130.5-33.6-137-37.5
		c-8.5-5-9.1-18.1-9.1-18.7c-0.2-13.5,5.8-46.5,6.1-47.9c4.7-13,81,0.4,96.3,3.2c0.9,0.2,1.5,1,1.3,1.9c-0.2,0.9-1,1.5-1.9,1.3
		c-43.6-8-90.1-12.3-92.6-5.5c0,0.1-6.1,33.8-6,46.9c0,0.1,0.6,11.9,7.6,16c6.4,3.8,71.4,33.1,135.5,37c0.9,0.1,1.6,0.8,1.5,1.7
		C1094.4,1789.7,1093.7,1790.3,1092.8,1790.4L1092.8,1790.4z"/>
	<path class="st6" d="M987.9,1685c-0.7,0-1.4-0.5-1.6-1.3l-29-141.6c-4.9-0.4-24.3-1.4-49.2,1.9c-28.7,3.8-71.4,20.9-71.8,21.1
		c-0.8,0.3-1.8-0.1-2.1-0.9c-0.3-0.8,0.1-1.8,0.9-2.1c0.4-0.2,43.5-17.4,72.6-21.3c29.1-3.9,50.9-1.8,51.1-1.8
		c0.7,0.1,1.3,0.6,1.4,1.3l29.2,142.8c0.2,0.9-0.4,1.7-1.3,1.9C988.1,1684.9,988,1684.9,987.9,1685L987.9,1685z"/>
	<path class="st6" d="M833,1572.3c-0.7,0-1.4-0.5-1.6-1.2c-0.2-0.9,0.3-1.7,1.2-2c0.1,0,9.4-2.5,29.7-10.4
		c21.4-8.4,64.9-12.9,88.1-11.1c0.9,0.1,1.6,0.8,1.5,1.7c-0.1,0.9-0.8,1.6-1.7,1.5c-22.8-1.7-65.7,2.7-86.7,10.9
		c-20.4,8-29.7,10.4-30,10.5C833.3,1572.3,833.2,1572.3,833,1572.3L833,1572.3z"/>
	<path class="st6" d="M824.6,1566.3c-0.7,0-1.3-0.5-1.6-1.1l-14.1-45.7c-0.3-0.8,0.2-1.7,1.1-2c0.8-0.3,1.7,0.2,2,1.1l14.1,45.7
		c0.3,0.8-0.2,1.7-1.1,2C824.9,1566.3,824.7,1566.3,824.6,1566.3L824.6,1566.3z"/>
	<path class="st6" d="M829.3,1564.5c-0.8,0-1.5-0.6-1.6-1.4c-0.3-1.7-7.2-28.6-11.7-46.5c-0.2-0.9,0.3-1.8,1.2-2
		c0.9-0.2,1.7,0.3,2,1.2c11.8,46.3,11.8,46.8,11.8,47.1C830.9,1563.8,830.2,1564.5,829.3,1564.5z"/>
	<path class="st6" d="M833.9,1558.4c-0.7,0-1.4-0.5-1.6-1.3l-9.3-42.8c-0.2-0.9,0.4-1.7,1.2-1.9c0.9-0.2,1.7,0.4,1.9,1.2l9.3,42.8
		c0.2,0.9-0.4,1.7-1.2,1.9C834.1,1558.3,834,1558.4,833.9,1558.4L833.9,1558.4z"/>
	<path class="st6" d="M1050.7,1698.4c-0.6,0-1.3-0.4-1.5-1.1c-0.1-0.2-6.7-18.5-15-42.5c-7.1-20.8-33.2-123.4-13.4-139.9
		c0.7-0.6,1.7-0.5,2.3,0.2c0.6,0.7,0.5,1.7-0.2,2.3c-16.5,13.7,4.2,106.7,14.3,136.4c8.2,23.9,14.9,42.2,14.9,42.4
		c0.3,0.8-0.1,1.8-1,2.1C1051,1698.4,1050.9,1698.4,1050.7,1698.4L1050.7,1698.4z"/>
	<path class="st8" d="M895.8,1507.5c-4.2,12.4-7.1,33.9-7.1,33.9"/>
	<path class="st6" d="M888.7,1543c0,0-0.1,0-0.2,0c-0.9-0.1-1.5-0.9-1.4-1.8s2.9-21.8,7.2-34.2c0.3-0.8,1.2-1.3,2.1-1
		c0.8,0.3,1.3,1.2,1,2.1c-4.1,12.1-7,33.3-7.1,33.5C890.2,1542.4,889.5,1543,888.7,1543L888.7,1543z"/>
	<path class="st5" d="M969.4,1447.2c4.4,22,11.6,47.3,11.6,47.3s-2.3,21.8-23.9,26.8c-21.6,5.1-25-13.5-25.6-17.3
		c-0.5-3.9,0.8-16.8,0.7-21C932.1,1478.7,969.4,1447.2,969.4,1447.2L969.4,1447.2z"/>
	<path class="st6" d="M950.1,1523.8c-4.3,0-8-1.1-11.1-3.2c-6.8-4.7-8.6-13-9-16.4c-0.3-2.5,0-7.9,0.3-13.1c0.2-3.3,0.4-6.4,0.4-8.1
		c-0.1-4.4,23.7-25.1,37.8-37.1c0.5-0.4,1-0.5,1.6-0.3c0.6,0.2,0.9,0.6,1.1,1.2c4.3,21.7,11.5,47,11.5,47.2c0.1,0.2,0.1,0.4,0.1,0.6
		c0,0.2-2.7,23-25.2,28.3C954.9,1523.5,952.4,1523.8,950.1,1523.8L950.1,1523.8z M968.4,1450.2c-16.8,14.3-33.9,30.1-34.6,32.9
		c0.1,1.6-0.1,4.8-0.4,8.2c-0.3,4.9-0.6,10.3-0.3,12.5c0.4,2.9,1.9,10.2,7.7,14.2c4,2.8,9.3,3.4,15.9,1.8
		c19.1-4.5,22.3-22.5,22.7-25.1C978.5,1491.7,972.5,1470,968.4,1450.2L968.4,1450.2z"/>
	<path class="st5" d="M873.4,1394.5c0,0-13.9,60,12,81.2c25.9,21.2,84.6,10.8,97.9-29.7c0,0,13.3,12.2,21.9-3
		c8.6-15.3-6-29.3-21.4-20.4c0,0-7.7-15.1-38-22.1c-30.3-6.9-47.3-23.9-47.3-23.9S894.2,1387.3,873.4,1394.5L873.4,1394.5z"/>
	<path class="st6" d="M919.9,1488.1c-13.8,0-26.6-3.8-35.5-11.1c-26.4-21.6-13.1-80.3-12.5-82.8c0.1-0.6,0.5-1,1-1.2
		c19.7-6.8,24-16.9,24.1-16.9c0.2-0.5,0.6-0.9,1.2-1c0.5-0.1,1.1,0.1,1.5,0.4c0.2,0.2,17.1,16.7,46.6,23.5
		c25.6,5.9,35.5,17.4,38.2,21.5c7.4-3.6,15.2-2.8,20.4,2.3c5.3,5.3,6.1,13.5,1.8,21.1c-2.8,4.9-6.3,7.7-10.4,8.4
		c-5,0.8-9.6-1.7-12.1-3.4c-6.4,17.1-21.6,30.2-42,36.2C934.6,1487.1,927.1,1488.2,919.9,1488.1L919.9,1488.1z M874.8,1395.8
		c-1.6,7.4-11.5,59.8,11.6,78.7c12.7,10.4,34.2,13.3,54.7,7.3c20.2-5.9,35-19.1,40.6-36.2c0.2-0.5,0.6-0.9,1.1-1.1
		c0.6-0.1,1.1,0,1.5,0.4c0.1,0,5.6,5.1,11.2,4.1c3.1-0.5,5.9-2.8,8.1-6.7c4.2-7.6,2.1-13.8-1.3-17.2c-4.4-4.3-11.4-4.8-17.9-1
		c-0.4,0.2-0.8,0.3-1.3,0.2c-0.4-0.1-0.8-0.4-1-0.8c-0.1-0.1-7.8-14.6-36.9-21.2c-25.6-5.9-41.7-18.6-46.6-22.9
		C896.6,1382.9,890.3,1390.3,874.8,1395.8L874.8,1395.8z"/>
	<path class="st6" d="M923.3,1415.4c6.3-4.4,15.1-5,21.9-1.4c0.8,0.5,1.1,1.5,0.6,2.3c-0.3,0.5-0.8,0.8-1.4,0.8
		c-3.5,0.2-6.7,0.1-10,0.3c-2.8,0.1-6.9,0.6-9.8,0.9C923,1418.7,921.9,1416.4,923.3,1415.4L923.3,1415.4L923.3,1415.4z"/>
	<path class="st6" d="M872.5,1411.6c7.9-2.8,16.9-2.1,24.5,1.4c1.6,0.7,0.9,3.2-0.7,3.1c-5.8,0-11.7-0.7-17.4-1l-5.7-0.3H873
		C871.3,1414.8,870.9,1412.2,872.5,1411.6L872.5,1411.6L872.5,1411.6z"/>
	<path class="st6" d="M895.3,1450.4c-3.5,0-6.2-2.2-7.1-6c-0.5-2.1-0.1-4.1,1-5.7c2-2.8,5.9-3.8,8.1-4.1c-0.1-3.1-0.6-10.8-2.4-19.7
		c-0.2-0.9,0.4-1.8,1.3-1.9c0.9-0.2,1.7,0.4,1.9,1.3c2.5,12,2.5,21.4,2.5,21.8c0,0.8-0.6,1.6-1.5,1.6c-1.5,0.1-5.7,0.9-7.3,3
		c-0.6,0.8-0.8,1.8-0.5,3c0.8,3.5,3.3,3.6,4.7,3.4c2.9-0.4,5.8-3,5.6-6.3c-0.1-0.9,0.6-1.7,1.5-1.7c0.9,0,1.7,0.6,1.7,1.5
		c0.4,5.2-4.1,9-8.3,9.7C896.2,1450.4,895.7,1450.5,895.3,1450.4L895.3,1450.4z"/>
	<path class="st6" d="M936.9,1430.6c-0.2,3.6-2.4,6.4-4.9,6.2c-2.5-0.1-4.3-3.1-4.1-6.7c0.1-1.1,0.3-2.1,0.7-3l4.1,2.5l-1.7-5.3
		c0.6-0.3,1.1-0.5,1.7-0.4C935.2,1424,937.1,1427,936.9,1430.6L936.9,1430.6z"/>
	<path class="st6" d="M887.8,1427.8c-0.2,3.6-2.4,6.4-4.9,6.2c-2.5-0.1-4.3-3.1-4.1-6.7c0.1-1.1,0.3-2.1,0.7-3l4.1,2.5l-1.7-5.3
		c0.6-0.3,1.1-0.5,1.7-0.4C886.1,1421.2,888,1424.2,887.8,1427.8L887.8,1427.8z"/>
	<path class="st6" d="M912.9,1466.9c-3.1,0-6.5-1.4-9.8-4.1c-0.7-0.6-0.8-1.6-0.2-2.3s1.6-0.8,2.3-0.2c3.4,2.9,6.9,4,9.7,3.1
		c2.4-0.7,4.3-2.9,5.2-6.1c0.3-0.9,1.1-1.4,2-1.1c0.9,0.3,1.4,1.1,1.1,2c-1.2,4.2-3.9,7.2-7.4,8.3
		C914.9,1466.9,913.9,1467,912.9,1466.9L912.9,1466.9z"/>
	<path class="st6" d="M997.1,1436.6c-0.6,0-1.3-0.4-1.5-1c-0.8-2.2-2.1-3.6-3.8-4.2c-3.5-1.3-7.7,0.7-7.7,0.7
		c-0.8,0.4-1.8,0.1-2.2-0.7c-0.4-0.8-0.1-1.8,0.7-2.2c0.2-0.1,5.5-2.7,10.3-0.9c2.6,1,4.5,3,5.7,6.1c0.3,0.8-0.1,1.8-0.9,2.1
		C997.5,1436.6,997.3,1436.6,997.1,1436.6L997.1,1436.6z"/>
	<path class="st6" d="M988.8,1446c-0.7,0-1.3-0.4-1.5-1.1c-0.3-0.8,0.2-1.8,1-2c1.4-0.5,2.4-1.5,3.1-3.1c1.3-3.2,0.6-7.7-0.2-9
		c-0.4-0.8-0.1-1.8,0.7-2.2c0.8-0.4,1.8-0.1,2.2,0.7c1.2,2.2,1.9,7.6,0.3,11.8c-1,2.5-2.7,4.2-5,5C989.2,1446,989,1446.1,988.8,1446
		L988.8,1446z"/>
	<path class="st7" d="M891.8,2260.4l-9.2,70.2c-0.6,4.9-5.1,8.4-10,7.8l-129.7-16c-5.4-0.7-9-6-7.6-11.3l0.8-3c0,0,14.9-60,79.8-56
		C816,2252.1,846.7,2264.9,891.8,2260.4L891.8,2260.4z"/>
	<path class="st6" d="M881.8,2326.4c0,0-0.1,0-0.2,0l-143.8-17.8c-0.9-0.1-1.5-0.9-1.4-1.8c0.1-0.9,0.9-1.5,1.8-1.4l143.8,17.8
		c0.9,0.1,1.5,0.9,1.4,1.8C883.4,2325.8,882.6,2326.4,881.8,2326.4L881.8,2326.4z"/>
	<path class="st6" d="M847.1,2322.1c0,0-0.2,0-0.3,0c-0.9-0.2-1.5-1-1.3-1.9c0.1-0.3,6.8-32,42.2-29.5c0.9,0.1,1.6,0.8,1.5,1.8
		c-0.1,0.9-0.8,1.6-1.7,1.5c-32.6-2.4-38.8,26.6-38.8,26.9C848.6,2321.6,847.9,2322.1,847.1,2322.1L847.1,2322.1z"/>
	<path class="st6" d="M815.1,2274.4c-0.5,0-0.9-0.2-1.2-0.6l-26.6-29.7c-0.6-0.7-0.6-1.7,0.1-2.3c0.6-0.6,1.7-0.6,2.3,0.1l26.6,29.7
		c0.6,0.7,0.6,1.7-0.1,2.3C815.9,2274.3,815.5,2274.4,815.1,2274.4L815.1,2274.4z"/>
	<path class="st6" d="M799.6,2278.2c-0.5,0-0.9-0.2-1.2-0.6l-26.6-29.7c-0.6-0.7-0.6-1.7,0.1-2.3c0.7-0.6,1.7-0.6,2.3,0.1l26.6,29.7
		c0.6,0.7,0.6,1.7-0.1,2.3C800.4,2278.1,800,2278.2,799.6,2278.2L799.6,2278.2z"/>
	<g>
		<path class="st7" d="M1143.7,2093.4l69.9,11c4.9,0.8,8.3,5.3,7.5,10.2l-19.3,129.2c-0.8,5.4-6.2,8.9-11.5,7.3l-3-0.9
			c0,0-59.7-16.5-54-81.2C1133.4,2169,1147,2138.6,1143.7,2093.4L1143.7,2093.4z"/>
		<path class="st6" d="M1209.4,2105c0,0,0,0.1,0,0.2l-21.4,143.3c-0.1,0.9-0.9,1.5-1.8,1.3c-0.9-0.1-1.5-1-1.3-1.8l21.4-143.3
			c0.1-0.9,0.9-1.5,1.8-1.3C1208.8,2103.5,1209.4,2104.2,1209.4,2105L1209.4,2105z"/>
		<path class="st6" d="M1204.2,2139.6c0,0,0,0.2,0,0.3c-0.2,0.9-1.1,1.4-1.9,1.2c-0.3-0.1-31.8-7.6-28.4-43c0.1-0.9,0.9-1.5,1.8-1.4
			c0.9,0.1,1.6,0.9,1.4,1.8c-3.3,32.6,25.6,39.4,25.9,39.5C1203.7,2138.2,1204.2,2138.9,1204.2,2139.6L1204.2,2139.6z"/>
		<path class="st6" d="M1155.7,2170.4c0,0.5-0.2,0.9-0.6,1.2l-30.4,25.9c-0.7,0.6-1.7,0.5-2.3-0.2c-0.6-0.7-0.5-1.7,0.2-2.3
			l30.4-25.9c0.7-0.6,1.7-0.5,2.3,0.2C1155.6,2169.7,1155.7,2170,1155.7,2170.4L1155.7,2170.4z"/>
		<path class="st6" d="M1159.1,2186c0,0.5-0.2,0.9-0.6,1.2l-30.4,25.9c-0.7,0.6-1.7,0.5-2.3-0.2c-0.6-0.7-0.5-1.7,0.2-2.3l30.4-25.9
			c0.7-0.6,1.7-0.5,2.3,0.2C1159,2185.2,1159.1,2185.6,1159.1,2186L1159.1,2186z"/>
	</g>
</g>
</svg>
