<?xml version="1.0" encoding="utf-8"?>
<!-- Generator: Adobe Illustrator 27.2.0, SVG Export Plug-In . SVG Version: 6.00 Build 0)  -->
<svg version="1.1" id="Capa_1" xmlns="http://www.w3.org/2000/svg" xmlns:xlink="http://www.w3.org/1999/xlink" x="0px" y="0px"
	 viewBox="0 0 5775 2912.3" style="enable-background:new 0 0 5775 2912.3;" xml:space="preserve">
<style type="text/css">
	.st0{fill:#FEF4F2;}
	.st1{fill:#48AF94;}
	.st2{fill:#51BFA6;}
	.st3{fill:#58CCAA;}
	.st4{fill:#777777;}
	.st5{fill:#FFFFFF;}
	.st6{fill:#732A09;}
	.st7{fill:#D13F3F;}
	.st8{fill:#F35454;}
	.st9{fill:#F05454;}
	.st10{display:none;}
	.st11{display:inline;}
	.st12{fill:#FCEDB1;}
	.st13{fill:#EF7B41;}
	.st14{fill:#DD6C3A;}
	.st15{fill:#56C0EF;}
	.st16{fill:#F4E5A6;}
	.st17{fill:#A7ECF2;}
	.st18{fill:#EFEFEF;}
	.st19{fill:#F4E7B0;}
	.st20{fill:#EDDFA4;}
	.st21{fill:#00847F;}
	.st22{display:inline;fill:#00847F;}
	.st23{opacity:0.2;}
	.st24{fill:#C45727;}
	.st25{display:inline;fill:#FFFFFF;}
	.st26{display:inline;fill:#732A09;}
	.st27{display:inline;fill:#D13F3F;}
	.st28{display:inline;fill:#F35454;}
	.st29{fill:#12936C;}
	.st30{fill:#00734D;}
	.st31{fill:#0C3325;}
	.st32{fill:none;stroke:#005534;stroke-width:4.3524;stroke-linecap:round;stroke-linejoin:round;stroke-miterlimit:10;}
	.st33{fill:none;stroke:#005534;stroke-width:4.5813;stroke-linecap:round;stroke-linejoin:round;stroke-miterlimit:10;}
	.st34{fill:none;stroke:#255B3A;stroke-width:3.7424;stroke-linecap:round;stroke-linejoin:round;stroke-miterlimit:10;}
	.st35{fill:none;stroke:#005534;stroke-width:3.6788;stroke-linecap:round;stroke-linejoin:round;stroke-miterlimit:10;}
	.st36{fill:none;stroke:#255B3A;stroke-width:2.9082;stroke-linecap:round;stroke-linejoin:round;stroke-miterlimit:10;}
</style>
<g class="st10">
	<path class="st22" d="M5781.6,1957.3c0,0-173.9,32.6-153,229.4c0,0-146.1-19.1-167,161.5c0,0-389.2-78.4-469.4,224.2
		c0,0-265.2-15.8-433.6,191.8c0,0-470.8-145.3-587.4,145.3h1810.4V1957.3z"/>
	<path class="st22" d="M-17.3,1962.3c34.4-22,378.4-20.6,490.2,294.3c0,0,234.5-88.7,332.3,270.9c0,0,281.2-177.8,576.1,180.5
		c0,0,220.5-110.9,339.6,34.1c0,0,805.9-153.5,1116,170.6H-17.3V1962.3z"/>
</g>
<g>
	<path class="st29" d="M3559.3,2915.2c0-64,72.9-115.9,162.8-115.9c20.4,0,39.8,2.8,57.8,7.6c16.1-30.2,57-51.8,105.1-51.8
		c0.1,0,0.1,0,0.2,0c1.8-54,55.3-98.8,126.7-110.2c0-0.9-0.2-1.8-0.2-2.7c0-54.1,61.7-98,137.8-98c62.9,0,115.9,30.1,132.4,71.1
		c17.8-12.9,42.6-20.9,70-20.9c18.6,0,36,3.8,50.8,10.2c13.7-36.1,59.9-62.8,115.1-62.8c7.3,0,14.4,0.5,21.4,1.4
		c0-0.5-0.1-1-0.1-1.4c0-46.9,53.4-84.9,119.3-84.9c49.1,0,91.2,21.1,109.5,51.3c27-16.7,61.7-27.1,99.9-28.3
		c11.7-55.9,79.1-98.8,160.9-98.8c43.7,0,83.4,12.3,112.6,32.3c14.7-20.8,39.9-37.2,70.6-45.6c-1.8-6.2-2.8-12.7-2.8-19.3
		c0-52,59.3-94.2,132.4-94.2c57.5,0,106.4,26.2,124.6,62.7c23.8-16.3,56.1-26.5,91.8-26.5c4.9,0,9.7,0.2,14.4,0.6
		c-0.1-1.9-0.2-3.8-0.2-5.8c0-80.5,91.7-145.8,204.9-145.8c113.1,0,204.9,65.3,204.9,145.8v745.6l-2417.5,9.1l-0.5-97.9l0.1-0.1
		C3561,2933.3,3559.3,2924.4,3559.3,2915.2z"/>
	<path class="st29" d="M2394.7,3042.7c0-64-81-115.9-180.9-115.9c-22.6,0-44.2,2.8-64.2,7.6c-17.8-30.2-63.3-51.8-116.7-51.8
		c-0.1,0-0.1,0-0.2,0c-2-54-61.4-98.8-140.7-110.2c0-0.9,0.2-1.8,0.2-2.7c0-54.1-68.5-98-153-98c-69.9,0-128.7,30.1-147,71.1
		c-19.8-12.9-47.3-20.9-77.8-20.9c-20.7,0-40,3.8-56.5,10.2c-15.2-36.1-66.6-62.8-127.8-62.8c-8.1,0-16,0.5-23.8,1.4
		c0-0.5,0.1-1,0.1-1.4c0-46.9-59.3-84.9-132.5-84.9c-54.5,0-101.3,21.1-121.7,51.3c-30-16.7-68.6-27.1-111-28.3
		c-13-55.9-87.9-98.8-178.7-98.8c-48.6,0-92.6,12.3-125.1,32.3c-16.3-20.8-44.3-37.2-78.5-45.6c2-6.2,3.1-12.7,3.1-19.3
		c0-52-65.8-94.2-147-94.2c-63.9,0-118.1,26.2-138.4,62.7c-26.4-16.3-62.4-26.5-102-26.5c-5.4,0-10.7,0.2-16,0.6
		c0.1-1.9,0.2-3.8,0.2-5.8c0-80.5-101.9-145.8-227.6-145.8c-125.7,0-227.6,65.3-227.6,145.8v745.6l2685.5,9.1l0.6-97.9l-0.1-0.1
		C2392.8,3060.8,2394.7,3051.9,2394.7,3042.7z"/>
	<g>
		<g>
			<path class="st30" d="M5330.4,2171.7c0,0,18.8-91.4-143-66C5187.4,2105.7,5258.3,2256.3,5330.4,2171.7z"/>
			<path class="st31" d="M5447.4,2232.3c0,0,90.5-37.8-3.1-133.4l-20.7,53.2C5423.6,2152.1,5387.6,2222.2,5447.4,2232.3z"/>
			<path class="st30" d="M5444.3,2372.8c0,0-16.7-91.8-134.7-49.1l-63.8,22c0,0,29.2,64.2,113.6,59.8
				C5359.4,2405.4,5416.9,2406.9,5444.3,2372.8z"/>
			<path class="st31" d="M5559.1,2443.9c0,0-107.9-39.4,5.5-184.2l44.7-50c0,0,41.9,65.3,30.1,148.3
				C5639.4,2358,5627.9,2426.8,5559.1,2443.9z"/>
			<path class="st31" d="M5539.5,2566.8c0,0-3.8-100.2-128.4-95.7l-104.3,16c0,0,20.7,73.8,82.4,112.9
				C5389.1,2600,5462.7,2669.6,5539.5,2566.8z"/>
			<path class="st32" d="M5241.2,2132.3c0,0,154.8,35.1,236.2,215.5c0,0,76,243.5,162.7,294.1c0,0,142,77.2,151.2,179.3"/>
			<path class="st32" d="M5444.7,2190.7c0,0,5.7,46-5.2,81.6"/>
			<path class="st32" d="M5317.2,2355.9c0,0,144.2,25.9,169,18.1"/>
			<path class="st32" d="M5593.6,2304.7c0,0-24.9,137-57.3,193.1"/>
			<path class="st32" d="M5380.3,2524.7c0,0,163.5,52.2,194.2,44.1"/>
			<path class="st30" d="M5687.2,2580.1c0,0-113.5-41.5,5.8-193.9l47.1-52.6c0,0,44.1,68.8,31.7,156.1
				C5771.8,2489.7,5759.7,2562.2,5687.2,2580.1z"/>
			<path class="st30" d="M5702.7,2722.5c0,0-35.3-78.6-133.2-34.8l-78,46.4c0,0,40.3,52.2,102.1,63.4
				C5593.6,2797.5,5674.7,2829.3,5702.7,2722.5z"/>
			<path class="st33" d="M5723.6,2433.6c0,0-31.9,156.4-66,215.5"/>
			<path class="st34" d="M5562.3,2740.3c0,0,147.1-11.2,169-27.5"/>
		</g>
		<g>
			<path class="st31" d="M4945.2,2392.3c0,0-78-11.4-11.2-132.6C4934,2259.7,5033.3,2359.5,4945.2,2392.3z"/>
			<path class="st30" d="M4959.6,2502.8c0,0-56.1,61-105.1-40.9l48.3-1.1C4902.8,2460.8,4968.9,2452.4,4959.6,2502.8z"/>
			<path class="st30" d="M5072.2,2540.8c0,0-68.2-39.7-0.2-121.2l35.9-44.4c0,0,42.6,41.7,14.8,107.5
				C5122.6,2482.8,5107.2,2528.9,5072.2,2540.8z"/>
			<path class="st31" d="M5095.6,2652.6c0,0-0.2-97.1-148-48.7L4895,2625c0,0,39.8,52.1,109.2,66.7
				C5004.2,2691.6,5062.2,2702.3,5095.6,2652.6z"/>
			<path class="st31" d="M5198.9,2672.4c0,0-78.5-31.9-39-129.6l42.8-78.3c0,0,52.7,37.7,65.9,98
				C5268.6,2562.5,5302.8,2641,5198.9,2672.4z"/>
			<path class="st35" d="M4939.6,2310.2c0,0-16.7,133.1,103.1,249.8c0,0,171.6,130.6,186.8,214.1c0,0,20.4,135.1,98.9,171.8"/>
			<path class="st35" d="M4927.3,2488.7c0,0,34.9,17.8,66.3,19.4"/>
			<path class="st35" d="M5095.4,2435c0,0-21,122.1-34.3,139.5"/>
			<path class="st35" d="M4975,2639.9c0,0,116,19.7,169.9,10.1"/>
			<path class="st35" d="M5211.3,2533.8c0,0-5.7,144.9-20.9,167.1"/>
			<path class="st30" d="M5183.7,2834.2c0,0-0.2-97.1-148-48.7l-52.6,21.1c0,0,39.8,52.1,109.2,66.7
				C5092.3,2873.3,5150.3,2883.9,5183.7,2834.2z"/>
			<path class="st30" d="M5276.2,2854.5c0,0-48.1-46.6,9.9-106.6l54.6-44.7c0,0,27.4,43.3,19.2,91.4
				C5359.9,2794.6,5361.6,2862.3,5276.2,2854.5z"/>
			<path class="st35" d="M5063.2,2821.5c0,0,126.8,18.8,180.7,9.2"/>
			<path class="st36" d="M5326.4,2756.6c0,0-47.1,104.5-64.9,116.2"/>
		</g>
	</g>
	<g>
		<g>
			<path class="st30" d="M560.2,2264.3c0,0-18.8-91.4,143-66C703.2,2198.3,632.3,2349,560.2,2264.3z"/>
			<path class="st31" d="M443.2,2324.9c0,0-90.5-37.8,3.1-133.4l20.7,53.2C467,2244.7,503,2314.8,443.2,2324.9z"/>
			<path class="st30" d="M446.3,2465.4c0,0,16.7-91.8,134.7-49.1l63.8,22c0,0-29.2,64.2-113.6,59.8
				C531.2,2498.1,473.7,2499.6,446.3,2465.4z"/>
			<path class="st31" d="M331.5,2536.5c0,0,107.9-39.4-5.5-184.2l-44.7-50c0,0-41.9,65.3-30.1,148.3
				C251.2,2450.6,262.7,2519.5,331.5,2536.5z"/>
			<path class="st31" d="M351.1,2659.5c0,0,3.8-100.2,128.4-95.7l104.3,16c0,0-20.7,73.8-82.4,112.9
				C501.5,2692.6,427.9,2762.3,351.1,2659.5z"/>
			<path class="st32" d="M649.4,2224.9c0,0-154.8,35.1-236.2,215.5c0,0-76,243.5-162.7,294.1c0,0-142,77.2-151.2,179.3"/>
			<path class="st32" d="M445.9,2283.3c0,0-5.7,46,5.2,81.6"/>
			<path class="st32" d="M573.4,2448.6c0,0-144.2,25.9-169,18.1"/>
			<path class="st32" d="M296.9,2397.3c0,0,24.9,137,57.3,193.1"/>
			<path class="st32" d="M510.3,2617.3c0,0-163.5,52.2-194.2,44.1"/>
			<path class="st30" d="M203.4,2672.7c0,0,113.5-41.5-5.8-193.9l-47.1-52.6c0,0-44.1,68.8-31.7,156.1
				C118.8,2582.4,130.9,2654.8,203.4,2672.7z"/>
			<path class="st30" d="M187.9,2815.2c0,0,35.3-78.6,133.2-34.8l78,46.4c0,0-40.3,52.2-102.1,63.4
				C297,2890.1,215.9,2921.9,187.9,2815.2z"/>
			<path class="st33" d="M167,2526.2c0,0,31.9,156.4,66,215.5"/>
			<path class="st34" d="M328.3,2832.9c0,0-147.1-11.2-169-27.5"/>
		</g>
		<g>
			<path class="st31" d="M945.4,2485c0,0,78-11.4,11.2-132.6C956.6,2352.3,857.3,2452.1,945.4,2485z"/>
			<path class="st30" d="M931,2595.4c0,0,56.1,61,105.1-40.9l-48.3-1.1C987.8,2553.4,921.7,2545,931,2595.4z"/>
			<path class="st30" d="M818.4,2633.5c0,0,68.2-39.7,0.2-121.2l-35.9-44.4c0,0-42.6,41.7-14.8,107.5
				C768,2575.4,783.4,2621.5,818.4,2633.5z"/>
			<path class="st31" d="M795,2745.2c0,0,0.2-97.1,148-48.7l52.6,21.1c0,0-39.8,52.1-109.2,66.7C886.4,2784.3,828.4,2795,795,2745.2
				z"/>
			<path class="st31" d="M691.7,2765c0,0,78.5-31.9,39-129.6l-42.8-78.3c0,0-52.7,37.7-65.9,98C622,2655.2,587.8,2733.7,691.7,2765z
				"/>
			<path class="st35" d="M951,2402.8c0,0,16.7,133.1-103.1,249.8c0,0-171.6,130.6-186.8,214.1c0,0-20.4,135.1-98.9,171.8"/>
			<path class="st35" d="M963.2,2581.3c0,0-34.9,17.8-66.3,19.4"/>
			<path class="st35" d="M795.2,2527.7c0,0,21,122.1,34.3,139.5"/>
			<path class="st35" d="M915.6,2732.5c0,0-116,19.7-169.9,10.1"/>
			<path class="st35" d="M679.3,2626.5c0,0,5.7,144.9,20.9,167.1"/>
			<path class="st30" d="M706.9,2926.8c0,0,0.2-97.1,148-48.7l52.6,21.1c0,0-39.8,52.1-109.2,66.7
				C798.3,2965.9,740.3,2976.6,706.9,2926.8z"/>
			<path class="st30" d="M614.4,2947.1c0,0,48.1-46.6-9.9-106.6l-54.6-44.7c0,0-27.4,43.3-19.2,91.4
				C530.7,2887.2,529,2954.9,614.4,2947.1z"/>
			<path class="st35" d="M827.4,2914.1c0,0-126.8,18.8-180.7,9.2"/>
			<path class="st36" d="M564.2,2849.2c0,0,47.1,104.5,64.9,116.2"/>
		</g>
	</g>
</g>
</svg>
