<?xml version="1.0" encoding="utf-8"?>
<!-- Generator: Adobe Illustrator 27.2.0, SVG Export Plug-In . SVG Version: 6.00 Build 0)  -->
<svg version="1.1" id="Capa_1" xmlns="http://www.w3.org/2000/svg" xmlns:xlink="http://www.w3.org/1999/xlink" x="0px" y="0px"
	 viewBox="0 0 5775 2912.3" style="enable-background:new 0 0 5775 2912.3;" xml:space="preserve">
<style type="text/css">
	.st0{fill:#FEF4F2;}
	.st1{fill:#48AF94;}
	.st2{fill:#51BFA6;}
	.st3{fill:#58CCAA;}
	.st4{fill:#777777;}
	.st5{fill:#FFFFFF;}
	.st6{fill:#732A09;}
	.st7{fill:#D13F3F;}
	.st8{fill:#F35454;}
	.st9{fill:#F05454;}
	.st10{display:none;}
	.st11{display:inline;}
	.st12{fill:#FCEDB1;}
	.st13{fill:#EF7B41;}
	.st14{fill:#DD6C3A;}
	.st15{fill:#56C0EF;}
	.st16{fill:#F4E5A6;}
	.st17{fill:#A7ECF2;}
	.st18{fill:#EFEFEF;}
	.st19{fill:#F4E7B0;}
	.st20{fill:#EDDFA4;}
	.st21{fill:#00847F;}
	.st22{opacity:0.2;}
	.st23{fill:#C45727;}
	.st24{display:inline;fill:#FFFFFF;}
	.st25{display:inline;fill:#732A09;}
	.st26{display:inline;fill:#D13F3F;}
	.st27{display:inline;fill:#F35454;}
</style>
<g>
	<g id="character_00000018930379264162850830000002897966593416426169_">
		<path class="st5" d="M4556.3,2100.3l-22.7-10.8l-17.3-29.6l24.3-45.2L4657,1910l40.9,39.3c0,0-112.7,86.9-126.7,104.5
			C4557.1,2071.3,4556.3,2100.3,4556.3,2100.3L4556.3,2100.3z"/>
		<path class="st6" d="M4556.1,2101.6c-0.2,0-0.3-0.1-0.5-0.1l-22.7-10.8c-0.2-0.1-0.4-0.3-0.6-0.5l-17.3-29.6
			c-0.2-0.4-0.2-0.9,0-1.3l24.3-45.2c0.1-0.1,0.3-0.4,0.3-0.4l116.4-104.7c0.5-0.5,1.3-0.5,1.8,0l40.9,39.3c0.3,0.3,0.4,0.6,0.4,1
			c0,0.4-0.2,0.7-0.5,1c-1.1,0.8-112.7,87-126.5,104.2c-13.6,17-14.5,45.4-14.5,45.7c0,0.5-0.3,0.9-0.6,1.1
			C4556.7,2101.6,4556.4,2101.6,4556.1,2101.6L4556.1,2101.6z M4695.8,1949.2l-38.9-37.4l-115.3,103.6l-23.9,44.4l16.7,28.7
			l20.6,9.7c0.5-7,2.9-30.1,15-45.3C4583.5,2036.2,4683,1959.1,4695.8,1949.2L4695.8,1949.2z"/>
		<path class="st5" d="M4868.7,2253.3l6.5,21.1l-36.5-2.9l-35.1-17.7l-10.2-28.2l23.9-211.5l59,18.8c0,0-28.5,186.7-25.5,197.2
			C4853.7,2240.7,4868.7,2253.3,4868.7,2253.3L4868.7,2253.3z"/>
		<path class="st6" d="M4838.6,2273c-0.2,0-0.3-0.1-0.5-0.1l-35.1-17.7c-0.3-0.2-0.6-0.4-0.7-0.7l-10.2-28.2
			c-0.1-0.2-0.1-0.4-0.1-0.6l23.9-211.5c0.1-0.4,0.3-0.8,0.6-1c0.3-0.2,0.7-0.3,1.1-0.2l59,18.8c0.6,0.2,1,0.8,0.9,1.5
			c-7.9,51.9-27.9,188.3-25.5,196.6c2.8,9.9,17.4,22.3,17.6,22.4c0.2,0.1,0.3,0.4,0.4,0.6l6.5,21.1c0.1,0.4,0,0.9-0.2,1.2
			s-0.7,0.5-1.1,0.5L4838.6,2273L4838.6,2273z M4873.3,2273l-5.8-18.9c-2.2-1.9-15.3-13.5-18.1-23.5c-3-10.3,22.7-179.6,25.3-196.6
			l-56.3-18l-23.6,209.6l9.9,27.4l34.4,17.3L4873.3,2273L4873.3,2273z"/>
		<path class="st5" d="M5229.5,1282.9c3.9-1.7,8.4-4.5,12.6-9.3c3-3.4,4.5-7.4,5-11.2c1.3-9-2.4-17.6-2.7-18.2
			c1.3,1.3,43.7,41.1,60,56.4c16.8,15.8,63.2,54.9,78,67.3c3,2.5,4.3,6.6,3.3,10.4c-4.7,17.1-17.9,20.7-25.6,21.2
			c-3.4,0.2-6.6-1.3-8.7-4c-10.4-13.8-22.8-24.7-22.8-24.7s-29.7-14.9-30.8-15.6c-1.1-0.6-15.2-24.3-15.2-24.3l-63.4-45.5
			C5219.3,1285.4,5223.7,1285.5,5229.5,1282.9z"/>
		<path class="st6" d="M5358.6,1400.8c-3.2-0.3-6.1-1.9-8.2-4.5c-9.7-12.7-21.1-23.1-22.5-24.3c-3.7-1.9-29.6-14.9-30.7-15.6
			c-0.3-0.2-1.4-0.8-15.5-24.5l-63.2-45.4c-0.5-0.3-0.7-0.9-0.5-1.5c0.2-0.5,0.7-0.9,1.3-0.9c0,0,4.2,0,9.6-2.3
			c4.6-2,8.7-5,12.2-8.9c2.5-2.9,4.1-6.4,4.7-10.5c1.3-8.8-2.4-17.1-2.6-17.5c-0.2-0.6-0.1-1.3,0.4-1.6s1.2-0.3,1.7,0.1
			c1.2,1.2,43.2,40.7,60,56.4c17.7,16.6,68,58.9,77.9,67.3c3.4,2.9,4.9,7.5,3.7,11.8c-5,18-18.9,21.6-26.8,22.2
			C5359.6,1400.9,5359.1,1400.9,5358.6,1400.8L5358.6,1400.8z M5247.5,1248.9c0.9,3.6,1.8,8.6,1,13.8c-0.7,4.6-2.5,8.6-5.4,11.9
			c-3.8,4.3-8.2,7.5-13.1,9.6c-2.8,1.2-5.2,1.9-7.1,2.2l60.6,43.5c0.2,0.1,0.3,0.2,0.4,0.4c5.2,8.7,13.7,22.8,14.7,23.8
			c0.9,0.5,18.8,9.6,30.7,15.5c0.1,0,0.2,0.1,0.3,0.2c0.1,0.1,12.6,11.2,22.9,24.9c1.8,2.4,4.6,3.7,7.5,3.5
			c7.2-0.5,19.9-3.8,24.4-20.2c0.9-3.3-0.2-6.8-2.9-9c-9.9-8.3-60.3-50.7-78-67.4C5289.6,1288.5,5258.4,1259.2,5247.5,1248.9
			L5247.5,1248.9z"/>
		<path class="st6" d="M5223.2,1254.3c10.9-14.4,21.2-10.1,21.2-10.1l0,0c0.3,0.6,4,9.2,2.7,18.2l-12.3-8.9c0,0-13.7,16.7-5.4,29.4
			c-5.8,2.5-10.2,2.5-10.2,2.5S5212.2,1268.7,5223.2,1254.3z"/>
		<path class="st6" d="M5219.2,1286.8c-0.5,0-0.9-0.3-1.1-0.8c-0.3-0.7-7.2-17.6,4-32.4c11.4-15.1,22.3-10.8,22.8-10.6
			c0.2,0.1,0.4,0.2,0.5,0.4c0.1,0.1,0.1,0.2,0.2,0.3c0.4,0.9,4.2,9.6,2.8,19c-0.1,0.4-0.4,0.9-0.8,1c-0.4,0.2-0.9,0.1-1.3-0.2
			l-11.2-8.1c-2.7,3.7-11.1,16.8-4.5,26.8c0.2,0.3,0.3,0.7,0.2,1.1c-0.1,0.4-0.4,0.7-0.7,0.8
			C5224,1286.8,5219.4,1286.7,5219.2,1286.8C5219.2,1286.7,5219.2,1286.7,5219.2,1286.8L5219.2,1286.8z M5227.5,1282.3
			c-7-13.2,5.8-28.9,6.3-29.6c0.4-0.6,1.3-0.6,1.8-0.2l10.4,7.5c0.4-6.8-1.9-13-2.6-14.7c-2.1-0.6-10.3-1.9-19.2,9.9
			c-8.9,11.8-5.2,25.4-4,28.9C5221.5,1283.9,5224.2,1283.5,5227.5,1282.3L5227.5,1282.3z"/>
		<path class="st5" d="M5223.1,1397.3l40.8,26.6l32.2-40.7c20.7-1,32.6-12.3,32.6-12.3c-6-10.1-46-39.9-46-39.9
			c4.1-26.1-2.7-28.9-7.9-25.2c-5.3,3.7-9.5,37.6-14.2,44.8C5255.8,1357.8,5223.1,1397.3,5223.1,1397.3L5223.1,1397.3z"/>
		<path class="st6" d="M5263.8,1425.3c-0.2,0-0.4-0.1-0.6-0.2l-40.8-26.6c-0.3-0.2-0.5-0.5-0.6-0.9s0.1-0.7,0.3-1
			c0.3-0.4,32.7-39.5,37.3-46.6c2-3.1,4.1-12,6.1-20.6c3.2-13.8,5.4-22.4,8.4-24.5c2.5-1.8,5-2.1,7.1-0.8c4.3,2.7,5.4,11.6,3.1,26.5
			c5.4,4,40,30.2,45.7,39.8c0.3,0.5,0.2,1.2-0.2,1.6c-0.5,0.5-12.2,11.5-32.8,12.6l-31.8,40.3
			C5264.7,1425.1,5264.2,1425.3,5263.8,1425.3L5263.8,1425.3z M5326.9,1370.6c-7.5-10.6-44.6-38.3-45-38.6c-0.4-0.3-0.6-0.8-0.5-1.3
			c3.1-19.9-0.5-23.9-1.7-24.6c-1.5-0.9-3.2,0.1-4.1,0.7c-2.5,1.8-5.2,13.5-7.4,23c-2.2,9.3-4.2,18-6.5,21.5
			c-4.3,6.6-31,39-36.6,45.7l38.5,25.2l31.4-39.8c0.2-0.3,0.6-0.5,1-0.5C5312.9,1381,5323.9,1373.1,5326.9,1370.6L5326.9,1370.6z"/>
		<path class="st5" d="M4615.2,1551.8l43.6,27.7c0,0,31.1-68.2,37.3-76.4c6.2-8.2,28.4-21.8,31.6-32.3c3.1-10.5-7.9-14.3-7.9-14.3
			s0.3-3.7-1.5-7.3c-1.7-3.6-9.7-5.4-9.7-5.4s1-5.4-3.1-8.6c-4.1-3.2-11.6-3.8-11.6-3.8s-5.7-8.6-11.3-7.9s-12.9,17.1-12.9,17.1
			c-9.9,3.6-13.6,5.5-15.9,23.7C4651.6,1482.5,4628,1527.9,4615.2,1551.8L4615.2,1551.8z"/>
		<path class="st6" d="M4658.7,1580.8c-0.2,0-0.4-0.1-0.6-0.2l-43.6-27.7c-0.6-0.4-0.8-1.1-0.4-1.7c23.6-44,36.9-74.1,38.6-87.1
			c2.3-18.5,6.5-21.1,16.2-24.6c1.7-3.7,8-16.6,13.7-17.4c5.5-0.7,10.8,5.9,12.2,7.9c2,0.2,8,1.1,11.7,4c3.4,2.7,3.8,6.7,3.7,8.7
			c2.5,0.7,7.9,2.5,9.5,5.8c1.4,2.8,1.6,5.6,1.6,7c4.3,1.9,10.4,7,7.8,15.6c-2.1,6.8-11.4,14.6-19.7,21.5c-5,4.2-9.8,8.1-12,11.2
			c-6,8-36.8,75.5-37.1,76.1c-0.2,0.4-0.5,0.6-0.8,0.7C4659,1580.8,4658.9,1580.8,4658.7,1580.8L4658.7,1580.8z M4683.7,1424.8
			c-0.3,0-0.6,0-0.8,0c-3.5,0.5-9.1,10.2-11.9,16.3c-0.1,0.3-0.4,0.6-0.8,0.7c-9.3,3.4-12.7,4.6-15,22.6
			c-1.7,13.4-14.6,42.6-38.3,86.9l41.3,26.2c4.6-10,31-67.6,36.8-75.3c2.5-3.3,7.3-7.3,12.5-11.6c8-6.7,17.1-14.2,18.9-20.3
			c2.7-9.1-6.6-12.5-7-12.6c-0.6-0.2-0.9-0.7-0.9-1.4c0,0,0.2-3.4-1.3-6.6c-1.1-2.2-6-4-8.8-4.7c-0.7-0.2-1.2-0.8-1-1.5
			c0-0.2,0.8-4.7-2.6-7.4c-3.7-2.9-10.8-3.5-10.9-3.5c-0.4,0-0.8-0.2-1-0.6C4691.5,1430,4687.4,1425.1,4683.7,1424.8L4683.7,1424.8z
			"/>
		<path class="st6" d="M4663.2,1457.5c-0.2,0-0.3,0-0.4-0.1c-0.7-0.3-1-1.1-0.7-1.7l6.5-15.6c0.3-0.7,1.1-1,1.7-0.7
			c0.7,0.3,1,1.1,0.7,1.7l-6.5,15.6C4664.3,1457.2,4663.7,1457.5,4663.2,1457.5L4663.2,1457.5z"/>
		<path class="st6" d="M5003.8,1399.4l-142.7,29.8c0,0-68.9-19.7-69.8-31.5s44.1-106.6,56.4-117.5c12.3-10.9,57.8-8.3,102.8,8.1
			c45,16.4,87.8,36,92.5,49.6C5047.5,1351.6,5003.8,1399.4,5003.8,1399.4L5003.8,1399.4z"/>
		<path class="st6" d="M4861,1430.5c-0.1,0-0.2,0-0.3,0c-0.2,0-17.5-5-34.6-11.4c-35.4-13.1-36-19.3-36.1-21.3
			c-1-12.4,44.6-107.8,56.8-118.6c13.2-11.7,59.9-8.2,104.1,7.9c32.5,11.8,87.7,34.1,93.3,50.5c4.7,14-34.8,57.9-39.4,62.8
			c-0.2,0.2-0.4,0.3-0.7,0.4l-142.7,29.8C4861.2,1430.6,4861,1430.5,4861,1430.5L4861,1430.5z M5003.1,1398.2
			c12.2-13.4,42.1-49.3,38.5-59.8c-3.8-11.2-37.2-29-91.7-48.8c-47.1-17.1-90.4-18.1-101.4-8.3c-11.4,10.1-56.9,104.8-55.9,116.4
			c0.7,7.9,42.2,22.7,68.5,30.2L5003.1,1398.2L5003.1,1398.2z"/>
		<path class="st5" d="M4962,1345.8c12,12.3,30.6,19.6,41.1,34.6c10.6,14.9,22.1,52.7,16.2,77.6s0.7,45.5,0.7,45.5
			s-187,22.5-185.1-6.4c1.9-28.8,11.6-37.8,11.4-60.2c-0.2-22.4,3-43.2,6.9-62.5C4892.7,1330.5,4962,1345.8,4962,1345.8z"/>
		<path class="st6" d="M4869.8,1512.1c-16.1-1.3-28.4-3.9-33.5-8.7c-2-1.9-2.9-4-2.7-6.5c1-14.5,3.9-24.2,6.5-32.7
			c2.7-8.8,5-16.3,4.9-27.3c-0.2-24.1,3.6-46.2,6.9-62.8c0-0.2,0.2-0.5,0.3-0.6c39.5-43.9,109.4-29.2,110-29c0.3,0,0.5,0.2,0.7,0.4
			c4.9,5.1,11,9.2,17.3,13.7c8.7,6,17.7,12.2,23.9,21.1c10.7,15.1,22.4,53.3,16.4,78.7c-5.7,24.3,0.6,44.6,0.7,44.8
			c0.1,0.4,0.1,0.8-0.1,1.1c-0.2,0.3-0.5,0.5-1,0.6C5015.1,1505.4,4922.5,1516.3,4869.8,1512.1L4869.8,1512.1z M5018.3,1502.3
			c-1.4-5.3-5.3-23.2-0.3-44.6c5.8-24.7-5.6-61.9-16-76.6c-6-8.4-14.8-14.5-23.3-20.4c-6.1-4.2-12.4-8.6-17.4-13.7
			c-5.6-1.1-69.8-12.8-106.9,28c-3.3,16.4-7,38.2-6.8,61.9c0.1,11.4-2.4,19.6-5,28.2c-2.6,8.4-5.5,17.9-6.4,32.1
			c-0.1,1.6,0.5,3,1.9,4.4C4857.8,1520.2,5001.7,1504.2,5018.3,1502.3L5018.3,1502.3z"/>
		<path class="st6" d="M4601.3,1681.3c-52.8-33.1-19.2-108,0.9-143.5c6.7-11.9,12-19.3,12-19.3l72.9,53.9c0,0,44.9-12.5,103.9-55
			c12.8-9.2,26.2-16.1,39.3-21.3c47.4-18.4,92.7-13.8,106.8-11.9c49.8,6,87.7,17,119.9,17.8c20.1,0.5,37.9-3,55.1-14.1
			c31.1-20,70.3-62.4,91.5-86.4c9.3-10.6,15.1-17.7,15.1-17.7l75.3,60c0,0-4.9,7-13.4,17.9c-24.2,31.1-77.8,94.6-133.8,124.1
			c-75.7,39.9-113.5,42.8-113.5,42.8s-57.9,210-93.4,402c-2.1,11.5-4.2,22.9-6.1,34.2c0,0-174.2-15.7-333.1-184.9
			c0,0,10.3-12.7,26-33.3c35.1-46.1,97.2-132,131.8-205.4C4756.5,1643.4,4670.8,1724.8,4601.3,1681.3L4601.3,1681.3z"/>
		<path class="st6" d="M4933.8,2066.3L4933.8,2066.3c-0.4,0-44.5-4.2-107.3-29.1c-58-22.9-144.4-68.6-226.6-156.3
			c-0.4-0.5-0.5-1.2,0-1.7c0.1-0.1,10.5-12.9,26-33.3c33.3-43.8,93.5-126.8,128.8-199.1c-8.7,7.5-26.6,21.8-49.2,33
			c-39.7,19.7-75.9,20.6-104.7,2.6l0,0c-54.5-34.2-17.9-113,0.4-145.3c6.7-11.8,12-19.3,12-19.4c0.2-0.3,0.5-0.5,0.9-0.5
			c0.4-0.1,0.7,0,1,0.2l72.3,53.5c5.6-1.7,48.4-15.4,102.9-54.6c12.1-8.7,25.4-15.9,39.6-21.4c45.9-17.8,90.4-14.3,107.4-11.9
			c21.9,2.7,41.7,6.3,59.2,9.5c22.9,4.2,42.6,7.8,60.6,8.3c21.9,0.5,38.6-3.8,54.4-13.9c31-20,70.4-62.6,91.2-86.2
			c9.2-10.5,15-17.6,15.1-17.7c0.5-0.6,1.3-0.6,1.9-0.2l75.3,60c0.6,0.4,0.7,1.2,0.3,1.8c0,0.1-5,7.1-13.4,18
			c-26.4,34-79,95.3-134.2,124.5c-68.7,36.2-106.7,42.1-113.1,42.8c-4.1,15-59.2,217.5-93.1,401.1c-1.9,10.3-3.9,21.1-6.1,34.2
			C4935.1,2065.8,4934.5,2066.3,4933.8,2066.3L4933.8,2066.3z M5292.3,1444.2l-73.3-58.4c-1.9,2.3-7.1,8.5-14.3,16.7
			c-20.9,23.7-60.5,66.5-91.8,86.7c-16,10.3-33.8,14.8-55.9,14.3c-18.2-0.4-38-4.1-61-8.3c-17.5-3.2-37.2-6.8-59.1-9.5
			c-16.8-2.3-60.8-5.8-106.1,11.8c-14,5.5-27.1,12.6-39,21.1c-58.6,42.1-103.9,55.1-104.4,55.2c-0.4,0.1-0.8,0-1.2-0.2l-71.8-53.1
			c-1.7,2.5-6,9-11.1,18.1c-10.3,18.1-23.4,45.4-27.6,72.2c-5,32.1,3.8,55.4,26.3,69.5l0,0c67.5,42.3,152.1-36.4,155.7-39.8
			c0.5-0.4,1.2-0.5,1.7-0.1s0.7,1.1,0.4,1.6c-34.9,73.9-97.7,160.6-132,205.7c-13.2,17.3-22.7,29.2-25.3,32.5
			c149.6,158.8,314.4,181.6,330.2,183.5c2.2-12.5,4.1-23.1,5.9-33c35.2-189.9,92.9-400.1,93.4-402.1c0.1-0.5,0.6-0.9,1.2-1
			c0.4,0,38.4-3.3,113-42.6c54.8-28.9,107.1-89.9,133.4-123.7C5286.2,1452.5,5290.7,1446.4,5292.3,1444.2L5292.3,1444.2z"/>
		<path class="st9" d="M4937.1,1484.2c49.8,6,87.7,17,119.9,17.8c-8.9,21.7-41.8,82.5-126.9,70.8c-76.2-10.5-95.1-54.5-99.8-76.7
			C4877.7,1477.7,4923.1,1482.3,4937.1,1484.2z"/>
		<path class="st6" d="M4939.4,1575.2c-3-0.2-6.2-0.6-9.4-1c-75.8-10.5-95.8-53.2-100.9-77.8c-0.1-0.6,0.2-1.3,0.8-1.5
			c45.9-17.8,90.4-14.3,107.4-11.9c21.9,2.7,41.7,6.3,59.2,9.5c22.8,4.2,42.6,7.8,60.6,8.3c0.4,0,0.8,0.2,1.1,0.6
			c0.2,0.4,0.3,0.8,0.1,1.2C5050.4,1521.6,5019.2,1581.5,4939.4,1575.2L4939.4,1575.2z M4996,1495.1c-17.5-3.2-37.2-6.8-59.1-9.5
			c-16.7-2.3-60.2-5.8-105.1,11.4c5.4,24,25.4,64.5,98.4,74.6c82.5,11.4,115.6-47.1,124.7-68.2
			C5037.4,1502.7,5018.1,1499.1,4996,1495.1z"/>
		<path class="st9" d="M5218.8,1383.8l75.3,60c0,0-4.9,7-13.4,17.9c-14.1-13.5-46.1-43.6-77.1-60.3
			C5213,1390.9,5218.8,1383.8,5218.8,1383.8z"/>
		<path class="st6" d="M5280.6,1463.1c-0.3,0-0.6-0.2-0.8-0.4c-11.1-10.6-44.8-42.9-76.8-60.1c-0.4-0.2-0.6-0.5-0.7-0.9
			s0-0.8,0.3-1.1c9.2-10.5,15-17.6,15.1-17.7c0.5-0.6,1.3-0.6,1.9-0.2l75.3,60c0.6,0.4,0.7,1.2,0.3,1.8c0,0.1-5,7.1-13.4,18
			c-0.2,0.3-0.6,0.5-0.9,0.5C5280.8,1463.1,5280.6,1463.1,5280.6,1463.1L5280.6,1463.1z M5219,1385.7c-1.8,2.2-6.6,7.9-13.2,15.5
			c30.9,17,62.9,47.3,74.8,58.7c6.1-7.8,10.1-13.5,11.7-15.7C5292.3,1444.1,5219,1385.7,5219,1385.7z"/>
		<path class="st9" d="M4614.2,1518.4l72.9,53.9l-24.9,11.8l-60-46.4C4609,1525.9,4614.2,1518.4,4614.2,1518.4z"/>
		<path class="st6" d="M4662.1,1585.5c-0.2,0-0.5-0.1-0.7-0.3l-60-46.4c-0.5-0.4-0.7-1.1-0.3-1.7c6.7-11.8,12-19.3,12-19.4
			c0.2-0.3,0.5-0.5,0.9-0.5c0.4-0.1,0.7,0,1,0.2l72.9,53.9c0.4,0.3,0.6,0.7,0.5,1.2c0,0.5-0.3,0.9-0.8,1.1l-24.9,11.8
			C4662.5,1585.4,4662.3,1585.5,4662.1,1585.5L4662.1,1585.5z M4684.5,1572.1l-70-51.8c-1.6,2.4-5.7,8.5-10.6,17.1l58.4,45.2
			L4684.5,1572.1L4684.5,1572.1z"/>
		<path class="st5" d="M4765.8,1632.8c-0.1,0-0.3,0-0.4-0.1c-0.7-0.3-1-1.1-0.7-1.8c0.2-0.4,15.8-36.2,27-59.4
			c0.3-0.6,1.1-0.9,1.8-0.6c0.6,0.3,0.9,1.1,0.6,1.8c-11.2,23.1-26.8,58.9-27,59.3C4766.9,1632.6,4766.3,1632.9,4765.8,1632.8
			L4765.8,1632.8z"/>
		<path class="st5" d="M5033.4,1630c-0.1,0-0.2,0-0.3-0.1c-0.7-0.2-1.1-1-0.9-1.7c16.9-51.7,21.7-75.9,21.7-76.2
			c0.1-0.7,0.8-1.2,1.6-1.1c0.7,0.1,1.2,0.8,1.1,1.6c0,0.2-4.8,24.6-21.7,76.5C5034.5,1629.7,5034,1630,5033.4,1630L5033.4,1630z"/>
		<path class="st9" d="M4600.8,1880c0,0,10.3-12.7,26-33.3c18.6,21.9,75.8,84.9,150.4,126.7c58,32.5,122.9,49.3,162.8,57.3
			c-2.1,11.5-4.2,22.9-6.1,34.2C4933.9,2064.9,4759.7,2049.3,4600.8,1880L4600.8,1880z"/>
		<path class="st6" d="M4933.8,2066.3L4933.8,2066.3c-1.7-0.2-176.5-17.6-333.9-185.3c-0.4-0.5-0.5-1.2,0-1.7
			c0.1-0.1,10.5-12.9,26-33.3c0.2-0.3,0.6-0.5,1-0.5c0.4,0,0.8,0.1,1.1,0.5c20.6,24.3,76.5,85.2,150,126.4
			c56.5,31.6,119.5,48.6,162.4,57.2c0.7,0.1,1.2,0.8,1.1,1.6c-1.9,10.3-3.9,21.1-6.1,34.2
			C4935.1,2065.8,4934.5,2066.3,4933.8,2066.3L4933.8,2066.3z M4938.5,2031.8c-43-8.7-105.6-25.7-161.9-57.2
			c-72.7-40.7-128.2-100.5-149.7-125.7c-12.7,16.6-21.8,28-24.3,31.1c149.6,158.8,314.4,181.6,330.2,183.5
			C4934.9,2051.5,4936.7,2041.3,4938.5,2031.8L4938.5,2031.8z"/>
		<path class="st9" d="M4962,1345.8l-13.6,0.7c-30.6,1.6-60.6,9.8-87.7,24l-7.4,3.9c0,0-16.3-18.4-13.7-24.4
			c2.6-6,19.8-23.9,55.5-32.3c35.8-8.4,66.2-5.8,70,0.1S4962,1345.8,4962,1345.8L4962,1345.8z"/>
		<path class="st6" d="M4853.1,1375.7c-0.3,0-0.7-0.2-0.9-0.4c-2.8-3.2-16.8-19.3-13.9-25.8c3.1-7.2,21.1-24.7,56.5-33
			c34.7-8.1,66.9-6.3,71.4,0.7c4.1,6.2-2.2,26.7-2.9,29c-0.1,0.5-0.6,0.9-1.2,0.9l-13.6,0.7c-30.2,1.6-60.4,9.8-87.2,23.9l-7.4,3.9
			C4853.6,1375.7,4853.3,1375.7,4853.1,1375.7L4853.1,1375.7z M4961,1344.5c2-6.5,5.7-21.7,3-25.9c-3.1-4.8-31.5-8.2-68.6,0.4
			c-34.1,8-51.8,25-54.6,31.5c-1.5,3.5,6.4,14.8,12.8,22.2l6.5-3.4c27.1-14.2,57.7-22.6,88.3-24.2L4961,1344.5L4961,1344.5z"/>
		<path class="st5" d="M4920,1444.7l33.4,23.7l2.7,29.4c0.4,3.2-1.1,6.3-3.9,8c-8.3,5.1-17.8,5-23.9,4.1c-3.7-0.5-6.6-3.5-6.9-7.2
			C4920.6,1494.5,4919.3,1466.9,4920,1444.7L4920,1444.7z"/>
		<path class="st6" d="M4928.2,1511.3c-4.3-0.6-7.7-4.1-8.1-8.5c-0.7-7.7-2.1-35.3-1.4-58.1c0-0.5,0.3-0.9,0.7-1.1
			c0.4-0.2,0.9-0.2,1.4,0.1l33.4,23.7c0.3,0.2,0.5,0.6,0.6,1l2.7,29.3c0.5,3.7-1.3,7.4-4.5,9.4c-7.3,4.5-15.5,5.1-21.9,4.6
			C4930,1511.5,4929,1511.4,4928.2,1511.3z M4952.1,1469.1l-30.9-21.9c-0.6,22.2,0.8,47.9,1.5,55.3c0.3,3.1,2.7,5.6,5.8,6.1
			c6.2,0.9,15.2,0.9,23.1-3.9c2.3-1.4,3.6-4.1,3.2-6.8L4952.1,1469.1L4952.1,1469.1z"/>
		<path class="st5" d="M4937.3,1357.7c0,0-6.2,29.5-29.7,43.8c-23.6,14.2-28.7,32.4-28.7,32.4c2.7,14.1,31.3,49.6,67.5,37
			c36.2-12.7,29.2-55.5,29.2-55.5c10.1-3.3,16.2-25.2,5.5-32.3c-10.6-7.1-16.4,4.3-16.4,4.3
			C4948.8,1378.2,4937.3,1357.7,4937.3,1357.7z"/>
		<path class="st6" d="M4927.2,1474.7c-7.3-0.6-14.5-2.9-21.5-6.9c-15.1-8.7-26.4-24.3-28.2-33.7c0-0.2,0-0.4,0-0.6
			c0.2-0.8,5.5-18.8,29.3-33.2c22.8-13.8,29.1-42.6,29.1-42.9c0.1-0.5,0.6-0.9,1.1-1c0.5-0.1,1.1,0.2,1.4,0.7
			c0.1,0.2,10.9,19.3,25.8,28.4c1.1-1.7,3.7-4.8,7.6-5.8c3.2-0.8,6.6-0.1,10.1,2.2c4.8,3.2,7,9.4,5.9,16.9
			c-1.1,8.1-5.5,15-10.8,17.4c0.8,6.8,3.3,44.2-30.2,55.9C4940.4,1474.3,4933.8,1475.2,4927.2,1474.7L4927.2,1474.7z M4975,1382
			c-0.8-0.1-1.7,0-2.5,0.2c-4.2,1.1-6.6,5.6-6.6,5.6c-0.2,0.3-0.4,0.6-0.8,0.7c-0.3,0.1-0.7,0.1-1-0.1
			c-12.7-7.2-22.5-21.3-26.2-27.3c-2.3,8.1-10.1,29.7-29.6,41.5c-21.2,12.8-27.2,28.9-28,31.3c1.7,7.8,11.8,22.9,26.9,31.6
			c8.7,5,22.5,9.8,38.8,4.1c14.5-5.1,23.7-15.7,27.3-31.5c2.7-11.9,1-22.5,1-22.6c-0.1-0.6,0.3-1.3,0.9-1.5c4.8-1.5,8.9-8.1,10-15.6
			c0.9-6.5-0.8-11.7-4.8-14.3C4978.5,1382.8,4976.7,1382.1,4975,1382L4975,1382z"/>
		<path class="st6" d="M4916.5,1408.4L4916.5,1408.4c1.2,0.6,0.6,2.7-0.8,2.5c-1.7-0.2-3.6-0.3-5.2-0.1c-5.2,0.3-8.8,3.8-11.7,8
			c-0.3,0.4-0.8,0.6-1.4,0.5c-0.7-0.2-1.2-0.9-1-1.6c0.5-2,1.2-4,2.5-5.7C4902.7,1406.3,4910.9,1404.9,4916.5,1408.4L4916.5,1408.4z
			"/>
		<path class="st6" d="M4951.3,1387.5L4951.3,1387.5c1,0.7,0.2,2.5-1,2.2l-0.5-0.1c-3.4-0.6-7.2,1-10,3c-3.3,2.3-5.6,5.5-7.9,8.8
			c-0.3,0.4-0.9,0.7-1.4,0.5c-0.7-0.2-1.1-0.9-0.9-1.6C4931.3,1391.3,4942.3,1382.2,4951.3,1387.5L4951.3,1387.5z"/>
		<path class="st6" d="M4943.1,1431.9c-3-0.2-6-1.8-7.4-4.8c-0.3-0.7,0-1.5,0.7-1.8s1.5,0,1.8,0.7c1.4,3.1,5.3,4,8,3
			c1.2-0.4,3.7-1.7,2.7-5.4c-0.3-1.2-1-2.1-2-2.5c-2.4-1.2-6.5,0.2-7.9,0.8c-0.6,0.3-1.4,0-1.7-0.6c-0.2-0.3-4.5-8.5-8-19.9
			c-0.2-0.7,0.2-1.5,0.9-1.7c0.7-0.2,1.5,0.2,1.7,0.9c2.6,8.9,5.9,15.8,7.2,18.4c1.9-0.7,5.9-1.7,8.9-0.3c1.7,0.8,2.9,2.2,3.4,4.2
			c1.1,3.9-0.7,7.3-4.3,8.6C4945.9,1431.8,4944.5,1432,4943.1,1431.9L4943.1,1431.9z"/>
		<path class="st6" d="M4910.3,1425.8c-1.5-3.1-0.9-6.4,1.3-7.5c0.5-0.3,1.1-0.3,1.7-0.3l0.4,5.4l2.8-3.8c0.7,0.6,1.3,1.5,1.7,2.4
			c1.5,3.1,0.9,6.5-1.2,7.5C4914.7,1430.7,4911.8,1429,4910.3,1425.8L4910.3,1425.8z"/>
		<path class="st6" d="M4943.6,1405.6c-1.2-3.2-0.4-6.5,1.9-7.4c0.6-0.2,1.1-0.3,1.7-0.1l-0.1,5.4l3.1-3.5c0.6,0.7,1.2,1.6,1.5,2.5
			c1.2,3.2,0.4,6.5-1.9,7.4C4947.6,1410.8,4944.8,1408.8,4943.6,1405.6L4943.6,1405.6z"/>
		<path class="st6" d="M4932.5,1452.5c-5.1-0.4-9.3-6.4-9.5-6.7c-0.4-0.6-0.3-1.4,0.3-1.8c0.6-0.4,1.4-0.3,1.8,0.3
			c1,1.5,4.3,5.3,7.5,5.5l0.1,0c1.5,0.1,2.8-0.5,4-1.9c0.5-0.5,1.3-0.6,1.9-0.1s0.6,1.3,0.1,1.9
			C4936.9,1451.7,4934.9,1452.7,4932.5,1452.5C4932.6,1452.5,4932.5,1452.5,4932.5,1452.5L4932.5,1452.5z"/>
		<path class="st5" d="M4822.7,1321.8c2.9,7.7,9,15.7,22.1,28.6c13,12.8,20,20.6,20,20.6l4.2-3c-3.8-9-45.8-41.8-42.1-54
			C4821.5,1312.2,4822.7,1321.8,4822.7,1321.8z"/>
		<path class="st6" d="M4864.7,1372.3c-0.3,0-0.6-0.2-0.9-0.4c0-0.1-7.1-7.9-19.9-20.5c-13.1-13-19.4-21.1-22.4-29
			c0-0.1-0.1-0.2-0.1-0.3c-0.1-1.1-0.7-6.6,1.9-8.8c0.7-0.6,2-1.2,3.9-0.5c0.7,0.2,1.1,1,0.9,1.6c-2.1,7,14.4,23.5,26.5,35.6
			c7.9,7.9,14.1,14.1,15.6,17.6c0.2,0.6,0.1,1.2-0.4,1.6l-4.2,3C4865.3,1372.3,4865,1372.4,4864.7,1372.3L4864.7,1372.3z
			 M4867.2,1367.6c-2-3.3-8.1-9.4-14.5-15.8c-13.1-13.1-27.9-27.8-27.4-36.6c-0.1,0-0.2,0.1-0.3,0.1c-1.1,0.9-1.2,4.2-0.9,6.2
			c2.8,7.5,8.9,15.4,21.7,27.9c10.4,10.3,17,17.4,19.2,19.8L4867.2,1367.6L4867.2,1367.6z"/>
		<path class="st9" d="M4867.2,1361.9c0,0,7.4,7.7,9.8,12c2.4,4.3-2.6,11.7-6.2,7.8s-8.7-10.3-9.9-12.3S4862.2,1366.4,4867.2,1361.9
			L4867.2,1361.9z"/>
		<path class="st6" d="M4872.8,1384.2c-1.1-0.1-2.1-0.6-2.9-1.5c-3.8-4-8.8-10.4-10.1-12.5c-1.5-2.4,0.5-4.1,3.2-6.3
			c1-0.8,2.1-1.7,3.4-2.9c0.5-0.5,1.3-0.5,1.8,0.1c0.3,0.3,7.5,7.9,10,12.3c1.8,3.3,0.3,7.9-2.4,9.9
			C4874.8,1383.9,4873.8,1384.2,4872.8,1384.2L4872.8,1384.2z M4867.2,1363.8c-0.9,0.8-1.8,1.5-2.5,2.1c-2.5,2-2.9,2.5-2.7,2.9
			c1.2,1.9,6.2,8.3,9.8,12.1c0.5,0.5,1.3,1.1,2.5,0.2c1.7-1.2,2.8-4.4,1.7-6.5C4874,1371.3,4869.1,1365.9,4867.2,1363.8
			L4867.2,1363.8z"/>
		<path class="st5" d="M5336.8,1331.8c-12.9,10.8-19.7,25.8-12.6,28.5c7.1,2.6,27.4-15.7,24.1-27.1c-3.2-11.5-16.8-7.8-16.8-7.8
			L5336.8,1331.8z"/>
		<path class="st6" d="M5325.3,1361.8c-0.5,0-1.1-0.2-1.5-0.3c-2-0.7-3.2-2.3-3.6-4.4c-1.1-6.2,5.2-17,14.8-25.4l-4.5-5.4
			c-0.3-0.3-0.4-0.8-0.2-1.2c0.1-0.4,0.5-0.8,0.9-0.9c5.1-1.4,15.6-1.4,18.4,8.7c2,7.2-4.2,16.2-10.2,21.8
			C5335.2,1358.4,5329.4,1362.1,5325.3,1361.8L5325.3,1361.8z M5337.7,1326.1c-1.4-0.1-2.7,0-3.7,0.1l3.9,4.7
			c0.5,0.5,0.4,1.4-0.1,1.9c-10.3,8.6-15.7,19.1-14.9,23.8c0.2,1.2,0.8,2,1.9,2.4c2.5,0.9,7.9-1.8,12.9-6.4
			c5.9-5.4,11.1-13.4,9.5-19.1C5345.5,1328,5341.3,1326.4,5337.7,1326.1L5337.7,1326.1z"/>
		<path class="st5" d="M5328.9,1322.8c-12.9,10.8-19.7,25.8-12.6,28.5c7.1,2.6,27.4-15.7,24.1-27.1c-3.2-11.5-16.8-7.8-16.8-7.8
			L5328.9,1322.8z"/>
		<path class="st6" d="M5315.7,1352.5c-2-0.7-3.2-2.3-3.6-4.4c-1.1-6.2,5.2-17,14.8-25.4l-4.5-5.4c-0.3-0.3-0.4-0.8-0.2-1.2
			c0.1-0.4,0.5-0.8,0.9-0.9c5.1-1.4,15.6-1.4,18.4,8.7c2,7.2-4.2,16.2-10.2,21.8c-4.3,3.9-10,7.6-14.2,7.3
			C5316.7,1352.8,5316.2,1352.7,5315.7,1352.5z M5329.7,1317.2c-1.4-0.1-2.7,0-3.7,0.1l3.9,4.7c0.5,0.5,0.4,1.4-0.1,1.9
			c-10.3,8.6-15.7,19.1-14.9,23.8c0.2,1.2,0.8,2,1.9,2.4c2.5,0.9,7.9-1.8,12.9-6.4c5.9-5.4,11.1-13.4,9.5-19.1
			C5337.5,1319.1,5333.3,1317.5,5329.7,1317.2L5329.7,1317.2z"/>
		<path class="st5" d="M5320.1,1313.9c-12.9,10.8-19.7,25.8-12.6,28.5c7,2.6,27.4-15.7,24.1-27.1s-16.8-7.8-16.8-7.8L5320.1,1313.9z
			"/>
		<path class="st6" d="M5307,1343.6c-2-0.7-3.2-2.3-3.6-4.4c-1.1-6.2,5.2-17,14.8-25.4l-4.5-5.4c-0.3-0.3-0.4-0.8-0.2-1.2
			c0.1-0.4,0.5-0.8,0.9-0.9c5.1-1.4,15.6-1.4,18.4,8.7c2,7.2-4.2,16.2-10.2,21.8c-4.3,3.9-10,7.6-14.2,7.3
			C5308,1343.9,5307.5,1343.7,5307,1343.6z M5320.9,1308.2c-1.4-0.1-2.7,0-3.7,0.1l3.9,4.7c0.5,0.5,0.4,1.4-0.1,1.9
			c-10.3,8.6-15.7,19.1-14.9,23.8c0.2,1.2,0.8,2,1.9,2.4c2.5,0.9,7.9-1.8,12.9-6.4c5.9-5.4,11.1-13.4,9.5-19.1
			C5328.8,1310.1,5324.6,1308.5,5320.9,1308.2L5320.9,1308.2z"/>
		<path class="st5" d="M5309.8,1307.1c-12.9,10.8-19.7,25.8-12.6,28.5c7.1,2.6,27.4-15.7,24.1-27.1s-16.8-7.8-16.8-7.8
			L5309.8,1307.1z"/>
		<path class="st6" d="M5298.2,1337.1c-0.5,0-1.1-0.2-1.5-0.3c-2-0.7-3.2-2.3-3.6-4.4c-1.1-6.2,5.2-17,14.8-25.4l-4.5-5.4
			c-0.3-0.3-0.4-0.8-0.2-1.2s0.5-0.8,0.9-0.9c5.1-1.4,15.6-1.4,18.4,8.7c2,7.2-4.2,16.2-10.2,21.8
			C5308.1,1333.7,5302.4,1337.4,5298.2,1337.1L5298.2,1337.1z M5310.6,1301.4c-1.4-0.1-2.7,0-3.7,0.1l3.9,4.7
			c0.5,0.5,0.4,1.4-0.1,1.9c-10.3,8.6-15.7,19-14.9,23.8c0.2,1.2,0.8,2,1.9,2.4c2.5,0.9,7.9-1.8,12.9-6.4
			c5.9-5.4,11.1-13.4,9.5-19.1C5318.4,1303.3,5314.3,1301.7,5310.6,1301.4L5310.6,1301.4z"/>
		<path class="st9" d="M5234.8,1253.5l12.3,8.9c-0.5,3.9-2,7.8-5,11.2c-4.2,4.8-8.7,7.6-12.6,9.3
			C5221.1,1270.2,5234.8,1253.5,5234.8,1253.5z"/>
		<path class="st6" d="M5229.4,1284.2c-0.4,0-0.8-0.2-1-0.6c-8.8-13.4,4.9-30.3,5.5-31c0.4-0.6,1.3-0.6,1.8-0.2l12.3,8.9
			c0.4,0.3,0.6,0.8,0.5,1.3c-0.7,4.6-2.5,8.6-5.4,11.9c-3.8,4.3-8.2,7.5-13.1,9.6C5229.8,1284.3,5229.6,1284.3,5229.4,1284.2
			L5229.4,1284.2z M5235.1,1255.4c-2.6,3.6-10.6,15.9-5.1,25.9c4.1-2,7.9-4.8,11.1-8.5c2.4-2.7,3.9-6,4.6-9.7
			C5245.7,1263,5235.1,1255.4,5235.1,1255.4z"/>
		<path class="st6" d="M5246.4,1263.5L5246.4,1263.5c-0.7-0.5-0.7-1.3-0.3-1.9c0.5-0.5,1.3-0.6,1.9-0.2c0.6,0.4,0.6,1.3,0.2,1.9
			c-0.3,0.4-0.7,0.5-1.1,0.5C5246.8,1263.8,5246.6,1263.7,5246.4,1263.5z"/>
		<path class="st9" d="M4904.8,2311.6c-48-6.2-117.8-31.4-121.7-45c-5.5-19.1,10.3-40.9,10.3-40.9s37.3,29.9,50.5,30.8
			c13.2,0.9,13.5-14.2,28.5-7c7.9,3.7,28.5,13.9,45.9,25.7C4935.7,2287,4925.6,2314.3,4904.8,2311.6L4904.8,2311.6z"/>
		<path class="st6" d="M4905.9,2313c-0.4,0-0.8-0.1-1.2-0.1l0,0c-46-5.9-118.6-31.1-122.9-45.9c-5.6-19.4,9.8-41.1,10.5-42
			c0.2-0.3,0.5-0.5,0.9-0.5c0.4,0,0.7,0.1,1,0.3c0.4,0.3,36.9,29.5,49.7,30.5l0.1,0c5.3,0.4,8.2-2,11.3-4.5
			c4.2-3.4,8.5-6.8,17.7-2.4c8,3.8,28.5,13.9,46.1,25.8c9.7,6.5,11,17.4,8,25.3C4923.7,2308.5,4915.4,2313.8,4905.9,2313
			L4905.9,2313z M4904.8,2311.6L4904.8,2311.6L4904.8,2311.6z M4865.9,2248.9c-3.8-0.3-6.2,1.6-9,3.9c-3.2,2.6-6.9,5.5-13.2,5.1
			l-0.1,0c-12.4-1-43.6-25.1-50-30.2c-3.1,4.7-13.9,22.8-9.3,38.5c3.7,12.7,72.5,37.8,120.6,44l0,0c10.8,1.4,17.2-5.5,19.6-11.8
			c2.4-6.4,2-16-7-22.1c-17.4-11.8-37.8-21.8-45.7-25.6C4869.5,2249.6,4867.6,2249.1,4865.9,2248.9L4865.9,2248.9z"/>
		<path class="st9" d="M4530.4,2154.9c-21.4-43.5-38.8-115.5-29.7-126.3c12.8-15.1,39.7-14,39.7-14s-4.3,47.6,2.2,59.1
			c6.5,11.5,19.3,3.4,21.6,19.9c1.2,8.7,4.1,31.5,3.9,52.5C4568,2167.2,4539.7,2173.8,4530.4,2154.9L4530.4,2154.9z"/>
		<path class="st6" d="M4546.2,2167.3c-7.2-0.6-13.5-4.8-16.9-11.8l0,0c-20.4-41.6-39.5-116-29.5-127.8
			c13.1-15.4,39.7-14.5,40.8-14.4c0.4,0,0.7,0.2,1,0.4c0.2,0.3,0.4,0.6,0.3,1c0,0.5-4.2,47.3,2,58.4c2.6,4.6,6.2,5.7,10,6.9
			c5.1,1.7,10.4,3.3,11.8,13.5c1.3,8.8,4.1,31.4,3.9,52.7c-0.1,11.7-8.4,18.8-16.6,20.6C4550.7,2167.3,4548.4,2167.5,4546.2,2167.3
			L4546.2,2167.3z M4539.1,2015.9c-5.6,0-26.7,1-37.3,13.5c-8.6,10.1,8.5,81.3,29.9,124.9l0,0c4.8,9.7,14.1,11.4,20.7,9.9
			c6.7-1.5,14.5-7.2,14.6-18.1c0.2-21.1-2.6-43.6-3.9-52.3c-1.2-8.5-5.1-9.7-10-11.3c-3.9-1.2-8.4-2.7-11.5-8.2
			C4535.5,2063.6,4538.4,2024.2,4539.1,2015.9L4539.1,2015.9z"/>
	</g>
</g>
</svg>
