<?xml version="1.0" encoding="utf-8"?>
<!-- Generator: Adobe Illustrator 27.2.0, SVG Export Plug-In . SVG Version: 6.00 Build 0)  -->
<svg version="1.1" xmlns="http://www.w3.org/2000/svg" xmlns:xlink="http://www.w3.org/1999/xlink" x="0px" y="0px"
	 viewBox="0 0 500 500" style="enable-background:new 0 0 500 500;" xml:space="preserve">
<style type="text/css">
	.st0{fill:#FFE5B8;}
	.st1{fill:#FFFFFF;}
	.st2{fill:#732A09;}
	.st3{fill:none;}
	.st4{fill:#F75454;}
	.st5{fill:#DC3545;}
</style>
<g id="Capa_2">
	<rect class="st0" width="500" height="500"/>
</g>
<g id="Capa_1">
	<path class="st1" d="M384.9,256.6H115.2c-11.3,0-20.5,9.2-20.5,20.5v117.6c0,11.3,9.2,20.5,20.5,20.5h269.7
		c11.3,0,20.5-9.2,20.5-20.5V277.1C405.4,265.8,396.2,256.6,384.9,256.6z"/>
	<path class="st1" d="M385,415.5H115c-11.5,0-20.9-9.4-20.9-20.9V277c0-11.5,9.3-20.9,20.9-20.9h270c11.5,0,20.9,9.4,20.9,20.9
		v117.6C405.9,406.1,396.6,415.5,385,415.5z M115,257.1c-11,0-19.9,8.9-19.9,19.9v117.6c0,11,8.9,19.9,19.9,19.9h270
		c11,0,19.9-8.9,19.9-19.9V277c0-11-8.9-19.9-19.9-19.9L115,257.1L115,257.1z"/>
	<path class="st2" d="M385,415.5H115c-11.5,0-20.9-9.4-20.9-20.9V277c0-11.5,9.3-20.9,20.9-20.9h270c11.5,0,20.9,9.4,20.9,20.9
		v117.6C405.9,406.1,396.6,415.5,385,415.5z M115,257.1c-11,0-19.9,8.9-19.9,19.9v117.6c0,11,8.9,19.9,19.9,19.9h270
		c11,0,19.9-8.9,19.9-19.9V277c0-11-8.9-19.9-19.9-19.9L115,257.1L115,257.1z"/>
	<path class="st3" d="M385,415.5H115c-11.5,0-20.9-9.4-20.9-20.9V277c0-11.5,9.3-20.9,20.9-20.9h270c11.5,0,20.9,9.4,20.9,20.9
		v117.6C405.9,406.1,396.6,415.5,385,415.5z M115,257.1c-11,0-19.9,8.9-19.9,19.9v117.6c0,11,8.9,19.9,19.9,19.9h270
		c11,0,19.9-8.9,19.9-19.9V277c0-11-8.9-19.9-19.9-19.9L115,257.1L115,257.1z"/>
	<g id="character_00000000934673677424763860000009293907839562986883_">
		<path class="st4" d="M304.8,193.9c-7.8-2.2-11.8,4.3-14,14.3s-2,9.8-2,9.8s-2-43.1-56.6-46.5c-34.5-2.1-63.6,14.8-69.6,28.6
			s-17,51-17,51v6.1l181-0.6c0,0,4.5-27.6,6.1-38.6s-6.9-18.3-13.1-19.7S304.8,193.9,304.8,193.9z"/>
		<path class="st1" d="M175.9,256.6c-2.5-3.5-13.6-6.1-16-7s-3-5.9-9.9-6.6s-17.2-0.3-20.7,3.9c-2.3,3-4.3,6.2-5.9,9.7h5.2
			c0,0-3.2,6.5,2.3,6.3c0,0,2.1,2.8,6.7,1.8c0,0,5.4,4.4,10.3-0.5c0,0,2.7,3.5,6.7,2.3s3.7-9.9,3.7-9.9L175.9,256.6z"/>
		<path class="st2" d="M152.9,267.2c-1.9-0.1-3.8-0.9-5.1-2.3c-4.5,4.1-9.4,1.1-10.4,0.3c-4.1,0.8-6.2-1.2-6.8-1.8
			c-1.2,0.1-2.3-0.4-3-1.3c-1-1.5-0.3-3.8,0.2-5h-4.4c-0.2,0-0.3-0.1-0.4-0.2c-0.1-0.2-0.1-0.3,0-0.5c1.6-3.5,3.6-6.8,6-9.8
			c3.4-4.1,13.1-4.8,21.1-4.1c3.3,0.2,6.3,2,8.1,4.7c0.5,0.8,1.1,1.4,1.9,1.9c0.5,0.2,1.3,0.4,2.4,0.7c4.4,1.3,11.8,3.5,13.9,6.5
			c0.1,0.2,0.1,0.4,0,0.5c-0.1,0.2-0.3,0.3-0.4,0.3h-17.1c0,2-0.3,8.8-4.1,9.9C154.1,267.1,153.5,267.2,152.9,267.2z M147.8,263.7
			L147.8,263.7c0.1,0,0.3,0.1,0.4,0.2c0.1,0.1,2.6,3.2,6.2,2.1c3-0.9,3.4-7.1,3.4-9.4c0-0.3,0.2-0.5,0.5-0.5l0,0h16.4
			c-2.6-2.3-9-4.2-12.6-5.3c-1.1-0.3-1.9-0.6-2.4-0.8c-1-0.5-1.8-1.3-2.4-2.2c-1.6-2.6-4.4-4.2-7.4-4.4c-7.7-0.7-17.1-0.1-20.2,3.7
			c-2.2,2.7-4,5.7-5.5,8.9h4.4c0.2,0,0.3,0.1,0.4,0.2c0.1,0.2,0.1,0.3,0,0.5c-0.4,0.9-1.4,3.5-0.6,4.7c0.6,0.7,1.5,1,2.4,0.8
			c0.2,0,0.3,0.1,0.4,0.2c0.1,0.1,1.9,2.6,6.2,1.6c0.1,0,0.3,0,0.4,0.1c0.2,0.2,5.1,4,9.7-0.5C147.5,263.7,147.7,263.7,147.8,263.7
			L147.8,263.7z"/>
		<path class="st2" d="M130.8,263.4c-0.1,0-0.2,0-0.2-0.1c-0.2-0.1-0.3-0.4-0.2-0.7c1.3-2.3,4.4-8.9,3.7-11.5
			c-0.1-0.3,0.1-0.6,0.4-0.6c0.3-0.1,0.6,0.1,0.6,0.4c1,3.5-3.6,11.9-3.8,12.3C131.1,263.3,131,263.4,130.8,263.4z"/>
		<path class="st2" d="M137.5,265.2c-0.1,0-0.2,0-0.3-0.1c-0.2-0.2-0.3-0.5-0.1-0.7l0,0c0-0.1,5.6-8,5.2-13.4c0-0.3,0.2-0.5,0.5-0.5
			s0.5,0.2,0.5,0.5c0.4,5.7-5.1,13.7-5.4,14C137.8,265.1,137.7,265.2,137.5,265.2z"/>
		<path class="st2" d="M147.8,264.7c-0.1,0-0.1,0-0.2,0c-0.3-0.1-0.4-0.4-0.3-0.6l0,0c1.3-3.3,2.6-10.2,1.7-13.8
			c-0.1-0.3,0.1-0.5,0.4-0.6l0,0c0.3-0.1,0.5,0.1,0.6,0.4l0,0c0.9,3.7-0.5,11-1.8,14.4C148.2,264.6,148,264.7,147.8,264.7z"/>
		<path class="st2" d="M158.3,257.1c-0.3,0-0.5-0.2-0.5-0.5c-0.1-2.1-0.4-4.3-0.9-6.4c-0.1-0.3,0.1-0.5,0.3-0.6
			c0.3-0.1,0.5,0.1,0.6,0.3c0.5,2.2,0.9,4.4,0.9,6.6C158.8,256.8,158.6,257.1,158.3,257.1L158.3,257.1L158.3,257.1z"/>
		<path class="st1" d="M128.5,256.6c0.6-1.6,0.4-3.3-0.5-4.7"/>
		<path class="st2" d="M128.5,257.1h-0.1c-0.3-0.1-0.4-0.3-0.3-0.6l0,0c0.5-1.4,0.4-3-0.4-4.3c-0.2-0.2-0.1-0.5,0.1-0.7l0,0
			c0.2-0.2,0.5-0.1,0.7,0.1c1,1.5,1.2,3.5,0.5,5.2C128.9,257,128.7,257.1,128.5,257.1z"/>
		<path class="st2" d="M286.8,252.1L286.8,252.1c-0.3,0-0.5-0.2-0.5-0.5c0-0.2,0.2-25.4,3.9-44.2c0.1-0.3,0.3-0.4,0.6-0.4
			c0.3,0.1,0.4,0.3,0.4,0.6l0,0c-3.7,18.7-3.9,43.8-3.9,44C287.3,251.8,287.1,252.1,286.8,252.1L286.8,252.1z"/>
		<path class="st2" d="M171.1,247.4L171.1,247.4c-0.3,0-0.5-0.3-0.5-0.6c0-0.1,1.6-11.1,5.6-45.1c0-0.3,0.3-0.5,0.6-0.4
			c0.3,0,0.5,0.3,0.4,0.5l0,0c-4.1,34-5.6,45-5.6,45.1C171.6,247.2,171.4,247.4,171.1,247.4z"/>
		<path class="st1" d="M207.2,106.8c-4.4,8.9-17.6,30.2-17.6,30.2c-3.6,1.5-7.6,2.1-11.4,1.6c-3.5-0.5-6.8-2.1-9.3-4.6
			c-9.1-8.6-9.9-33.1,11.7-45.3c16.5-9.3,25.8,0.9,27.4,10.2C208.6,101.5,208.3,104.3,207.2,106.8z"/>
		<path class="st2" d="M181.1,139.3c-1,0-2-0.1-3-0.2c-3.6-0.5-7-2.2-9.6-4.7c-4.6-4.4-6.9-12.5-5.9-20.7
			c0.8-6.2,4.1-17.7,17.8-25.4c9-5.1,15.2-4.1,18.9-2.3c5.6,2.7,8.4,8.4,9.2,12.9c0.6,2.8,0.3,5.7-0.9,8.2l0,0
			c-4.3,8.8-17.4,30-17.6,30.3c-0.1,0.1-0.1,0.1-0.2,0.2C187.1,138.7,184.1,139.3,181.1,139.3z M192.7,85.5
			c-4.2,0.2-8.3,1.4-11.8,3.6c-13.3,7.5-16.5,18.7-17.3,24.6c-1,7.9,1.2,15.7,5.6,19.9c2.5,2.4,5.7,4,9.1,4.5c3.7,0.5,7.5,0,11-1.5
			c1.1-1.8,13.3-21.6,17.4-30l0,0c1-2.4,1.3-5.1,0.8-7.6c-0.7-4.2-3.4-9.6-8.6-12.1C197,86,194.9,85.5,192.7,85.5L192.7,85.5z
			 M189.6,137L189.6,137z"/>
		<path class="st4" d="M207.2,106.8c-4.4,8.9-17.6,30.2-17.6,30.2c-3.6,1.5-7.6,2.1-11.4,1.6c0.2-16.5,12.4-36.8,29.8-39.7
			C208.6,101.5,208.3,104.3,207.2,106.8z"/>
		<path class="st2" d="M181.1,139.3c-1,0-2-0.1-3-0.2c-0.2,0-0.4-0.2-0.4-0.5c0.2-16.7,12.7-37.3,30.2-40.2c0.3-0.1,0.5,0.1,0.6,0.4
			l0,0c0.6,2.8,0.3,5.7-0.9,8.2c-4.3,8.8-17.4,30-17.6,30.3c-0.1,0.1-0.1,0.1-0.2,0.2C187.1,138.7,184.1,139.3,181.1,139.3z
			 M178.7,138.2c3.6,0.4,7.2-0.1,10.6-1.5c1.1-1.8,13.3-21.6,17.4-30l0,0c1-2.2,1.3-4.7,0.8-7.1
			C190.9,102.6,179.1,122.1,178.7,138.2z M189.6,137L189.6,137z"/>
		<path class="st1" d="M213,168.7c-45-6-29.1-40.6-18.2-56S229.7,98,229.7,98c4.8-5.5,15.5-6.1,22.1,6.2c4,7.4,5.1,15.9,3.2,24.1
			L213,168.7z"/>
		<path class="st2" d="M213,169.2L213,169.2c-15.2-2-24.9-7.4-28.7-16.2c-6.6-15,6-34.9,10.1-40.7c5.7-8.1,15-11.8,21.8-13.4
			c4.3-1,8.8-1.6,13.3-1.6c2.5-2.8,6.3-4.1,10-3.7c5,0.6,9.6,4.1,12.9,10.1c4,7.5,5.1,16.2,3.2,24.4c0,0.1-0.1,0.2-0.1,0.2l-42,40.5
			C213.3,169.1,213.2,169.2,213,169.2z M229.3,98.4c-3.3,0-24.3,0.6-34,14.5c-4,5.6-16.4,25.1-10,39.7c3.7,8.3,12.9,13.6,27.6,15.6
			l41.7-40.3c1.8-8,0.7-16.3-3.2-23.6c-3.1-5.7-7.4-9.1-12.1-9.6c-3.5-0.4-6.9,0.9-9.2,3.5c-0.1,0.1-0.2,0.2-0.4,0.2H229.3z"/>
		<path class="st1" d="M210.3,155.1c1.1,10.9,1.4,23.8,1.4,23.8s4.2,9.8,15.1,9.1s9.8-9.9,9.4-11.8s-2.8-7.7-3.3-9.7
			S210.3,155.1,210.3,155.1z"/>
		<path class="st2" d="M225.6,188.5c-10.2,0-14.3-9.3-14.4-9.4c0-0.1,0-0.1,0-0.2c0-0.1-0.3-13-1.4-23.8c0-0.3,0.2-0.5,0.4-0.5
			c0.1,0,0.2,0,0.2,0c5.2,2.2,22.3,9.6,22.9,11.6c0.2,0.8,0.8,2.2,1.4,3.8c0.8,2,1.5,4,2,6c0.3,1.6,0.6,5.7-1.8,8.7
			c-1.7,2.2-4.4,3.4-8.1,3.6C226.4,188.5,226,188.5,225.6,188.5z M212.2,178.7c0.5,1,4.6,9.4,14.5,8.7c3.4-0.2,5.9-1.3,7.4-3.3
			c2.2-2.8,1.8-6.5,1.6-7.9c-0.5-2-1.2-3.9-2-5.8c-0.6-1.5-1.1-3-1.4-3.8c-0.5-1.1-11.2-6.3-21.5-10.7
			C211.9,166,212.2,177.5,212.2,178.7L212.2,178.7z"/>
		<path class="st1" d="M249.7,116.6c0,0,15.2,26,6.1,39.7s-37.9,17.3-50,0.3c0,0-4.4,7.6-10.7,1.8s-1.4-14.6,7-12.7
			c0,0,1.4-8.2,14.5-15.8s18.7-18,18.7-18S238.9,116.2,249.7,116.6z"/>
		<path class="st2" d="M230.1,168.5c-10.2,0-18.9-4-24.2-11c-0.8,1.1-2.6,3.2-5.2,3.6c-2,0.3-3.9-0.5-5.9-2.3
			c-3-2.8-3.8-6.6-2.1-9.8s5.2-4.6,9.1-3.8c0.5-1.9,3.2-9,14.7-15.7c12.9-7.5,18.4-17.7,18.5-17.8c0.1-0.1,0.2-0.2,0.4-0.3
			c0.2,0,0.3,0.1,0.4,0.2c0,0,3.5,4.2,13.9,4.5c0.2,0,0.3,0.1,0.4,0.2c2.6,4.7,4.8,9.7,6.5,14.8c3.5,10.9,3.4,19.7-0.4,25.4
			c-4.7,7.1-14.7,11.7-25.5,11.9L230.1,168.5z M205.9,156.1c0.2,0,0.3,0.1,0.4,0.2c5.2,7.3,14.1,11.4,24.5,11.2s20.2-4.7,24.7-11.5
			c8.3-12.6-4.6-36.3-6-38.9c-8.6-0.3-12.6-3.2-13.9-4.4c-4.7,7.3-11,13.3-18.5,17.6c-12.8,7.4-14.3,15.4-14.3,15.5
			s-0.1,0.3-0.2,0.3c-0.1,0.1-0.2,0.1-0.4,0.1c-3.7-0.8-7,0.4-8.5,3.2c-1.1,2.2-1.2,5.5,1.9,8.6c1.7,1.6,3.4,2.3,5,2.1
			c2.9-0.4,4.9-3.7,4.9-3.7C205.6,156.2,205.7,156.1,205.9,156.1z"/>
		<path class="st2" d="M227,134.8c-0.8,0.1-1.6,0.2-2.4,0.3c-0.8,0.1-1.6,0.3-2.4,0.5c-1.6,0.4-3.2,1-4.7,1.6l0,0
			c-0.3,0.1-0.5,0-0.6-0.3l0,0c-0.1-0.2,0-0.4,0.1-0.6c0.7-0.6,1.4-1.1,2.3-1.5c0.8-0.4,1.7-0.7,2.6-0.9c0.9-0.2,1.8-0.3,2.7-0.4
			c0.9,0,1.8,0.1,2.7,0.3c0.3,0.1,0.4,0.3,0.4,0.6C227.5,134.7,227.3,134.8,227,134.8L227,134.8z"/>
		<path class="st2" d="M250.5,125.7c-0.9,0.2-1.8,0.5-2.7,0.8s-1.8,0.6-2.7,1s-1.8,0.7-2.6,1.1c-0.8,0.4-1.8,0.8-2.7,1.1l0,0
			c-0.3,0.1-0.5,0-0.6-0.3l0,0c-0.1-0.2,0-0.4,0.1-0.6c0.8-0.6,1.6-1.2,2.5-1.7s1.8-0.9,2.7-1.3s1.9-0.7,2.9-0.9c1-0.2,2-0.3,3-0.3
			c0.3,0,0.5,0.2,0.6,0.4S250.8,125.7,250.5,125.7L250.5,125.7z"/>
		<path class="st2" d="M244,145.8c-2,0.1-3.8-1.2-4.3-3.1c-0.1-0.3,0.1-0.5,0.4-0.6c0.3-0.1,0.5,0.1,0.6,0.4l0,0
			c0.5,1.6,2.2,2.6,3.8,2.3c1.2-0.1,2.1-1.2,2-2.4c0-0.1,0-0.1,0-0.2c0-0.6-0.3-1.2-0.8-1.5c-1.4-1-4-0.4-4.1-0.4
			c-0.3,0.1-0.5-0.1-0.6-0.3c-1-3.4-1.7-6.9-2-10.5c0-0.3,0.2-0.5,0.4-0.5c0.3,0,0.5,0.2,0.6,0.4c0.3,3.3,0.9,6.6,1.8,9.9
			c0.9-0.2,3.1-0.3,4.4,0.7c0.7,0.5,1.2,1.4,1.2,2.3c0.3,1.7-0.9,3.4-2.7,3.6h-0.1C244.5,145.7,244.3,145.8,244,145.8z"/>
		<path class="st2" d="M223.1,142.6c0.6,1.6,2,2.6,3.2,2.2c1.2-0.4,1.6-2.1,1-3.7c-0.2-0.5-0.4-0.9-0.8-1.3l-1.6,1.8v-2.8
			c-0.3-0.1-0.6,0-0.9,0.1C222.9,139.3,222.5,141,223.1,142.6z"/>
		<path class="st2" d="M245.6,134.2c0.6,1.6,2,2.6,3.2,2.2c1.2-0.4,1.6-2.1,0.9-3.7c-0.2-0.5-0.4-0.9-0.8-1.3l-1.6,1.8v-2.8
			c-0.3-0.1-0.6,0-0.9,0.1C245.4,130.9,245,132.6,245.6,134.2z"/>
		<path class="st2" d="M237.7,157.3c-2.8-0.1-5.3-1.7-6.6-4.1c-0.1-0.2-0.1-0.3,0-0.5s0.2-0.3,0.4-0.3l13.7-1.2
			c0.2,0,0.4,0.1,0.5,0.2c0.1,0.2,0.1,0.4,0,0.5C243.4,155.4,240.6,157.2,237.7,157.3L237.7,157.3z M232.4,153.3
			c1.2,1.7,3.2,2.8,5.3,2.9l0,0c2.3,0,4.5-1.4,6.4-4L232.4,153.3z"/>
		<path class="st2" d="M195.5,153.9L195.5,153.9c-0.3,0-0.5-0.2-0.5-0.5l0,0c0-1.3,0.6-2.6,1.7-3.5c1.4-0.9,3.1-1.3,4.7-1
			c0.3,0,0.5,0.3,0.4,0.6s-0.3,0.5-0.6,0.4c-1.4-0.2-2.8,0.1-3.9,0.8c-0.8,0.7-1.3,1.7-1.3,2.7C196,153.7,195.8,153.9,195.5,153.9z"
			/>
		<path class="st2" d="M200.8,157.1L200.8,157.1c-1.1,0-2.2-0.6-2.9-1.5c-1.1-1.5-1.7-3.4-1.5-5.3c0.1-0.3,0.3-0.4,0.6-0.4
			c0.3,0.1,0.4,0.3,0.4,0.6c-0.1,1.6,0.3,3.2,1.3,4.5c0.5,0.7,1.3,1.1,2.1,1.1c0.3,0,0.5,0.2,0.5,0.5l0,0
			C201.3,156.9,201.1,157.1,200.8,157.1L200.8,157.1z"/>
		<path class="st1" d="M323.5,164.6l-1.5,13.6c-0.2,1.7,0.1,3.4,0.8,5c0.5,1.1,1,2.2,1.6,3.1l0.1,0.3c0.7,1.4,0.1,3.2-1.4,3.9
			c-0.5,0.2-1.1,0.3-1.6,0.3l-9.2-1c-1.6-0.2-2.8-1.6-2.6-3.2c0-0.1,0-0.2,0.1-0.4c0.4-1.5,1-3,1.7-4.4c2.4-4.1,3-18.9,3-18.9
			L323.5,164.6z"/>
		<path class="st2" d="M321.9,191.2h-0.4l-9.2-1c-1.9-0.2-3.2-1.9-3-3.8c0-0.1,0-0.3,0.1-0.4c0.4-1.6,1-3.1,1.8-4.5
			c2.3-4,2.9-18.5,3-18.7c0-0.1,0.1-0.3,0.2-0.4c0.1-0.1,0.3-0.1,0.4-0.1l9,1.7c0.3,0,0.4,0.3,0.4,0.5l-1.5,13.6
			c-0.2,1.6,0.1,3.2,0.8,4.7c0.6,1.3,1.1,2.3,1.5,3.1c0.1,0.1,0.1,0.2,0.2,0.3c0.5,1.1,0.4,2.4-0.3,3.4
			C324.1,190.7,323,191.3,321.9,191.2z M315,163.5c-0.1,2.8-0.9,14.8-3,18.5c-0.8,1.3-1.3,2.7-1.7,4.2c-0.2,0.7,0,1.4,0.4,1.9
			c0.4,0.6,1,0.9,1.7,1l9.2,1c0.9,0.1,1.7-0.3,2.3-1c0.5-0.7,0.6-1.6,0.2-2.4c0-0.1-0.1-0.2-0.1-0.3c-0.5-0.8-1-1.9-1.6-3.2
			c-0.8-1.6-1-3.5-0.8-5.3l1.5-13.1L315,163.5z"/>
		<path class="st4" d="M309.9,158.2c1.5,8.2,1.9,8.5,4.5,8.8l8.5,0.9c0.8,0.1,1.5-0.2,2-0.8c0.8-0.9,1.2-2.1,1.1-3.4
			C325.8,161.3,309.9,158.2,309.9,158.2z"/>
		<path class="st2" d="M323.1,168.5h-0.3l-8.5-0.9c-3.1-0.4-3.5-1.1-5-9.2c0-0.2,0-0.3,0.1-0.4c0.1-0.1,0.3-0.2,0.5-0.1
			c15,2.9,16.5,5.3,16.5,6c0.1,1.4-0.4,2.7-1.2,3.7C324.8,168.1,324,168.5,323.1,168.5z M310.5,158.8c1.3,7.4,1.7,7.4,4,7.7l8.5,0.9
			c0.6,0.1,1.2-0.2,1.6-0.6c0.7-0.8,1.1-1.9,1-3C325.4,162.6,317.8,160.3,310.5,158.8z"/>
		<path class="st4" d="M290.5,133.8l13.4,1.5c0.9,0.1,1.6,0.9,1.5,1.9l0,0l-1.6,14.6c-0.1,0.9-0.9,1.6-1.9,1.5l0,0l-13.4-1.5
			c-2.8-0.3-4.9-2.9-4.6-5.7l0.8-7.6C285.1,135.5,287.6,133.5,290.5,133.8L290.5,133.8z"/>
		<path class="st2" d="M302.1,153.7h-0.2l-13.4-1.5c-3.1-0.4-5.3-3.2-5-6.3l0.8-7.6c0.4-3.1,3.2-5.3,6.3-5l13.4,1.5
			c0.6,0.1,1.1,0.4,1.5,0.8c0.4,0.4,0.5,1,0.5,1.6l-1.6,14.6C304.2,152.9,303.2,153.7,302.1,153.7z M289.9,134.3
			c-2.4,0-4.4,1.8-4.6,4.2l-0.9,7.6c-0.3,2.6,1.6,4.9,4.1,5.2l0,0l13.4,1.5c0.6,0.1,1.2-0.4,1.3-1l0,0l1.6-14.6
			c0.1-0.6-0.4-1.2-1-1.3l-13.4-1.5C290.2,134.3,290.1,134.3,289.9,134.3z"/>
		<path class="st1" d="M377,152.4l-4.6,30.2c0,0-47.2-18.6-56.4-21.4s-23.1-1.4-21.3-17.8s15-12.1,24.7-12.8s59.8-8.6,59.8-8.6
			L377,152.4z"/>
		<path class="st2" d="M372.4,183.1c-0.1,0-0.1,0-0.2,0c-0.5-0.2-47.2-18.7-56.4-21.4c-1.8-0.5-3.7-0.9-5.7-1.3
			c-8.2-1.6-17.4-3.4-15.9-17.1s10.9-13.4,19.2-13.2c2.1,0.1,4,0.1,5.9,0c9.5-0.7,59.2-8.5,59.7-8.6c0.1,0,0.3,0,0.4,0.1
			s0.2,0.2,0.2,0.4l-2,30.4l0,0l-4.6,30.1c0,0.2-0.1,0.3-0.2,0.4C372.6,183.1,372.5,183.1,372.4,183.1z M309.9,131
			c-7.1,0-13.6,1.3-14.8,12.4c-1.4,12.8,7,14.4,15.1,16c2,0.4,4,0.8,5.8,1.3c8.6,2.6,50.4,19.1,55.9,21.2l4.6-29.5l2-29.8
			c-5.8,0.9-50.2,7.9-59.2,8.5c-1.9,0.1-4,0.1-6,0C312.2,131,311.1,131,309.9,131z M377,152.4L377,152.4z"/>
		<path class="st1" d="M388.9,153.8c-1.9,16.9-8.6,29.9-15.2,29.2c-0.5,0-0.9-0.2-1.4-0.4c6-1.1,12-13.5,13.7-29.1s-1.4-29-7-31.4
			c0.5-0.1,0.9-0.1,1.4-0.1C387,122.6,390.8,136.9,388.9,153.8z"/>
		<path class="st2" d="M374.3,183.5h-0.6c-0.5-0.1-1-0.2-1.5-0.4c-0.2-0.1-0.3-0.3-0.3-0.5s0.2-0.4,0.4-0.4
			c5.8-1.1,11.7-13.7,13.4-28.7s-1.3-28.6-6.8-30.9c-0.2-0.1-0.3-0.3-0.3-0.5s0.2-0.4,0.4-0.4c0.5-0.1,1-0.1,1.6-0.1
			c6.9,0.8,10.8,15,8.9,32.4l0,0C387.5,170.7,381,183.5,374.3,183.5z M374.2,182.5L374.2,182.5c6.2,0,12.4-12.7,14.2-28.8
			s-1.6-30-7.6-31.2c4.9,4.1,7.4,16.8,5.8,31S379.9,179.6,374.2,182.5z M388.9,153.8L388.9,153.8z"/>
		<path class="st4" d="M386.1,153.4c-1.7,15.6-7.7,28-13.7,29.1c-3-1.3-5.2-5.5-6.4-11.4c-1.2-6.6-1.4-13.3-0.6-20
			c0.7-6.7,2.3-13.2,5-19.4l0,0c2.5-5.6,5.6-9.2,8.8-9.8C384.8,124.4,387.9,137.8,386.1,153.4z"/>
		<path class="st2" d="M372.4,183.1c-0.1,0-0.1,0-0.2,0c-3-1.3-5.4-5.5-6.7-11.8c-1.2-6.6-1.4-13.4-0.6-20.2
			c0.7-6.7,2.4-13.3,5-19.5v-0.1c2.7-5.8,5.9-9.4,9.1-10c0.1,0,0.2,0,0.3,0c5.9,2.5,9.1,16.3,7.4,32l0,0
			C384.9,169.2,378.8,182,372.4,183.1L372.4,183.1z M370.7,132c-2.6,6.1-4.2,12.6-4.9,19.2c-0.8,6.6-0.6,13.3,0.6,19.9
			c1.2,5.9,3.4,9.8,6,11c5.8-1.3,11.5-13.8,13.2-28.7s-1.3-28.4-6.6-30.9C376.2,123.1,373.2,126.5,370.7,132L370.7,132z
			 M386.1,153.4L386.1,153.4z"/>
		<path class="st4" d="M387,153.5c-0.6,5.5-2.8,9.8-5,9.6l-0.2-0.1c-2-0.6-3.1-5.1-2.5-10.4s2.7-9.5,4.7-9.6h0.2
			C386.4,143.3,387.7,148,387,153.5z"/>
		<path class="st2" d="M382.2,163.6H382l-0.3-0.1c-2.3-0.6-3.5-5.3-2.9-10.9s2.9-9.9,5.2-10h0.3c1.3,0.1,2.3,1.4,2.9,3.6
			c0.6,2.4,0.7,4.9,0.4,7.4l0,0C386.9,159.4,384.6,163.6,382.2,163.6z M384,143.6c-1.5,0.1-3.6,3.8-4.2,9.1s0.6,9.4,2.1,9.9h0.2
			c1.6,0.2,3.7-3.5,4.4-9.1l0,0c0.3-2.3,0.2-4.7-0.3-7c-0.5-1.7-1.2-2.8-2-2.9H384z M387,153.6L387,153.6z"/>
		<path class="st1" d="M381.8,163.1c-1.2-0.2-6.4-1-9.9,0.6c-4,1.9-6,7.4-6,7.4c-1.2-6.6-1.4-13.3-0.6-20c0.7-6.7,2.3-13.2,5-19.4
			l0,0c0,0,0.8,5.8,4.2,8.6c3,2.4,8.3,2.7,9.5,2.8c-2,0.1-4.1,4.3-4.7,9.6S379.8,162.5,381.8,163.1z"/>
		<path class="st2" d="M365.9,171.6L365.9,171.6c-0.2,0-0.4-0.2-0.5-0.4c-1.2-6.6-1.4-13.4-0.6-20.2c0.7-6.7,2.4-13.3,5-19.5
			c0.1-0.3,0.4-0.4,0.6-0.3c0.2,0.1,0.4,0.3,0.4,0.5c0,0,0.8,5.7,4,8.2c3,2.3,8.2,2.6,9.2,2.7c0.3,0,0.5,0.2,0.5,0.5
			s-0.2,0.5-0.5,0.5c-1.6,0.1-3.7,3.8-4.2,9.1s0.6,9.4,2.1,9.9c0.3,0.1,0.5,0.3,0.4,0.6s-0.3,0.5-0.6,0.4l0,0c-1-0.2-6.2-1-9.6,0.6
			c-3.7,1.8-5.7,7.1-5.8,7.1C366.3,171.6,366.1,171.7,365.9,171.6z M370.1,133.4c-4.4,11.5-5.8,23.9-4,36.1c0.9-1.8,2.8-4.9,5.6-6.2
			c2.7-1.3,6.2-1.2,8.4-0.9c-1.2-1.9-1.8-5.5-1.4-9.7s1.8-7.6,3.5-9.2c-2.2-0.2-5.7-0.9-8-2.8S370.6,135.4,370.1,133.4z"/>
		<path class="st1" d="M303,205.3c3-10.9,1.2-24,2.6-29s6.8-10.8,8.8-9.3s-1.8,11.6-1.8,11.6s-4.5,9.3,1.4,11.3l6.9,0.8
			c0,0,2.4-0.1,3-0.7c0,0-8.2-4.8-5.1-7.4c0,0-1.6-2.4,0-3.9c0,0-1.4-2.3,0.2-3.8c0,0-0.8-4.6,1.5-4.9s7.9,1.3,10.4,2.7
			s0.9,4.8,0.9,4.8s1.6,3.1-0.2,4c0,0,1.2,2.2-0.5,3c0,0,0,5-2.1,7.2s-5.6,5.8-7,8.5s-1,9.5-1,9.5S310.9,208.9,303,205.3z"/>
		<path class="st2" d="M321.1,210L321.1,210c-0.1,0-10.3-0.6-18.2-4.3c-0.2-0.1-0.3-0.3-0.3-0.6c1.7-6.4,1.8-13.6,1.9-19.4
			c0-4,0.1-7.5,0.7-9.6c1.2-4,4.9-8.9,7.6-9.8c0.6-0.3,1.4-0.2,2,0.2c2.2,1.7-0.9,10.4-1.6,12.1c0,0.1-2.5,5.4-1.2,8.6
			c0.4,1,1.2,1.7,2.2,2l6.8,0.8c0.6,0,1.3-0.1,1.9-0.3c-1.6-1-5.1-3.5-5.3-5.8c-0.1-0.6,0.2-1.2,0.6-1.7c-0.5-1-1-2.7,0-3.9
			c-0.7-1.2-0.5-2.7,0.3-3.8c-0.1-0.8-0.3-3.1,0.6-4.4c0.3-0.5,0.8-0.8,1.4-0.9c2.5-0.4,8.2,1.4,10.7,2.7c2.1,1.2,1.8,3.8,1.2,5.2
			c0.5,1,0.7,2.2,0.5,3.3c-0.1,0.3-0.3,0.6-0.6,0.9c0.3,0.7,0.4,1.4,0.2,2.1c-0.1,0.4-0.4,0.8-0.8,1c0,1.1-0.3,5.2-2.2,7.2l-0.6,0.7
			c-2,2.1-5.1,5.3-6.3,7.7c-1.3,2.6-1,9.2-1,9.2c0,0.1,0,0.3-0.1,0.4C321.4,209.9,321.2,210,321.1,210z M303.6,205
			c6.6,2.9,14.8,3.8,16.9,4c0-1.7-0.1-6.8,1.1-9.2c1.3-2.5,4.4-5.8,6.5-7.9l0.6-0.7c1.9-2,1.9-6.8,1.9-6.8c0-0.2,0.1-0.4,0.3-0.4
			c0.3-0.1,0.5-0.3,0.6-0.6c0.1-0.6,0-1.2-0.3-1.7c-0.1-0.2,0-0.5,0.2-0.7l0,0c0.2-0.1,0.4-0.3,0.4-0.6c0.1-0.9-0.1-1.9-0.5-2.7
			c-0.1-0.1-0.1-0.3,0-0.4c0.1-0.1,1.4-3-0.6-4.1c-2.5-1.4-7.9-2.9-10-2.6c-0.3,0-0.6,0.2-0.7,0.4c-0.7,1-0.5,3.1-0.4,3.9
			c0,0.2,0,0.3-0.1,0.4c-1.2,1.2-0.2,3.1-0.1,3.1c0.1,0.2,0.1,0.5-0.1,0.6c-1.3,1.1,0,3.2,0.1,3.2c0.1,0.2,0.1,0.5-0.1,0.7
			c-0.4,0.3-0.6,0.7-0.5,1.1c0.2,1.9,4.1,4.6,5.5,5.5c0.1,0.1,0.2,0.2,0.2,0.3s0,0.3-0.1,0.4c-0.6,0.8-2.7,0.9-3.3,0.9l-7-0.8h-0.2
			c-1.3-0.4-2.4-1.4-2.9-2.6c-1.5-3.6,1.1-9.1,1.2-9.4c1.5-4,3.1-10,1.9-10.9c-0.3-0.2-0.7-0.2-1-0.1c-2.2,0.7-5.8,5.1-7,9.1
			c-0.6,2-0.6,5.4-0.6,9.4C305.4,191.5,305.3,198.6,303.6,205L303.6,205z"/>
		<path class="st1" d="M330.6,176.7c-4-1.9-11.5-1.9-11.5-1.9"/>
		<path class="st2" d="M330.6,177.2c-0.1,0-0.1,0-0.2-0.1c-3.9-1.9-11.2-1.8-11.3-1.8l0,0c-0.3,0-0.5-0.2-0.5-0.5s0.2-0.5,0.5-0.5
			l0,0c0.3,0,7.6,0,11.7,1.9c0.3,0.1,0.5,0.3,0.4,0.6S330.8,177.3,330.6,177.2L330.6,177.2z"/>
		<path class="st1" d="M318.9,178.6c3.8,0.2,7.6,0.9,11.3,2"/>
		<path class="st2" d="M330.1,181.1h-0.2c-3.6-1.1-7.4-1.7-11.1-1.9c-0.3,0-0.5-0.2-0.5-0.5l0,0c0-0.3,0.2-0.5,0.5-0.5l0,0
			c3.9,0.2,7.7,0.9,11.4,2c0.3,0,0.5,0.3,0.4,0.6C330.7,181,330.4,181.2,330.1,181.1L330.1,181.1z"/>
		<path class="st1" d="M318.8,182.5c3.5,0,7,0.5,10.4,1.4"/>
		<path class="st2" d="M329.2,184.4h-0.1c-3.3-0.9-6.7-1.4-10.1-1.4l0,0c-0.3,0-0.5-0.2-0.5-0.5s0.2-0.5,0.5-0.5l0,0
			c3.5,0,7,0.5,10.4,1.4c0.3,0,0.5,0.3,0.4,0.6S329.5,184.4,329.2,184.4z"/>
		<path class="st1" d="M323.9,192.4c1.3-1,0-2.5,0-2.5"/>
		<path class="st2" d="M323.9,192.9c-0.2,0-0.3-0.1-0.4-0.2c-0.2-0.2-0.1-0.5,0.1-0.7c0.2-0.1,0.4-0.4,0.4-0.6
			c0-0.4-0.2-0.8-0.4-1.1c-0.2-0.2-0.2-0.5,0.1-0.7c0.2-0.2,0.5-0.2,0.7,0.1c0.5,0.5,0.7,1.2,0.7,1.9c-0.1,0.5-0.4,1-0.8,1.3
			C324.1,192.9,324,192.9,323.9,192.9z"/>
	</g>
	<g>
		<path class="st4" d="M112.2,311.3c0.9-1.7,2.2-3,3.9-4c1.7-0.9,3.6-1.4,5.7-1.4c2.6,0,4.8,0.7,6.7,2.1c1.9,1.4,3.1,3.2,3.7,5.6
			h-5.9c-0.4-0.9-1.1-1.6-1.9-2.1c-0.8-0.5-1.7-0.7-2.7-0.7c-1.6,0-3,0.6-4,1.7c-1,1.1-1.5,2.7-1.5,4.6s0.5,3.4,1.5,4.6
			c1,1.1,2.4,1.7,4,1.7c1,0,1.9-0.2,2.7-0.7c0.8-0.5,1.4-1.2,1.9-2.1h5.9c-0.6,2.4-1.9,4.2-3.7,5.6c-1.9,1.4-4.1,2-6.7,2
			c-2.1,0-4-0.5-5.7-1.4c-1.7-0.9-3-2.3-3.9-4c-0.9-1.7-1.4-3.6-1.4-5.8C110.8,314.9,111.2,313,112.2,311.3z"/>
		<path class="st4" d="M140.2,326.8c-1.7-1-3.1-2.3-4.1-4c-1-1.7-1.5-3.6-1.5-5.8c0-2.1,0.5-4.1,1.5-5.8c1-1.7,2.4-3,4.1-4
			c1.7-1,3.6-1.4,5.7-1.4s4,0.5,5.7,1.4c1.7,1,3.1,2.3,4.1,4c1,1.7,1.5,3.6,1.5,5.8c0,2.1-0.5,4.1-1.5,5.8c-1,1.7-2.4,3.1-4.1,4
			c-1.7,1-3.6,1.4-5.7,1.4S141.9,327.8,140.2,326.8z M150,321.6c1.1-1.2,1.6-2.7,1.6-4.6c0-1.9-0.5-3.5-1.6-4.6s-2.5-1.7-4.2-1.7
			c-1.8,0-3.2,0.6-4.2,1.7c-1.1,1.1-1.6,2.7-1.6,4.7c0,1.9,0.5,3.5,1.6,4.6c1.1,1.2,2.5,1.7,4.2,1.7
			C147.6,323.4,149,322.8,150,321.6z"/>
		<path class="st4" d="M179.6,328h-5.3l-8.9-13.5V328H160v-21.9h5.3l8.9,13.6v-13.6h5.3V328z"/>
		<path class="st4" d="M204.1,306.1l-7.8,21.9h-6.7l-7.8-21.9h5.7l5.4,16.6l5.5-16.6H204.1z"/>
		<path class="st4" d="M211,326.8c-1.7-1-3.1-2.3-4.1-4c-1-1.7-1.5-3.6-1.5-5.8c0-2.1,0.5-4.1,1.5-5.8c1-1.7,2.4-3,4.1-4
			c1.7-1,3.6-1.4,5.7-1.4s4,0.5,5.7,1.4c1.7,1,3.1,2.3,4.1,4c1,1.7,1.5,3.6,1.5,5.8c0,2.1-0.5,4.1-1.5,5.8c-1,1.7-2.4,3.1-4.1,4
			c-1.7,1-3.6,1.4-5.7,1.4S212.7,327.8,211,326.8z M220.9,321.6c1.1-1.2,1.6-2.7,1.6-4.6c0-1.9-0.5-3.5-1.6-4.6s-2.5-1.7-4.2-1.7
			c-1.8,0-3.2,0.6-4.2,1.7c-1.1,1.1-1.6,2.7-1.6,4.7c0,1.9,0.5,3.5,1.6,4.6c1.1,1.2,2.5,1.7,4.2,1.7
			C218.4,323.4,219.8,322.8,220.9,321.6z"/>
		<path class="st4" d="M231.4,311.3c0.9-1.7,2.2-3,3.9-4c1.7-0.9,3.6-1.4,5.7-1.4c2.6,0,4.8,0.7,6.7,2.1c1.9,1.4,3.1,3.2,3.7,5.6
			h-5.9c-0.4-0.9-1.1-1.6-1.9-2.1c-0.8-0.5-1.7-0.7-2.7-0.7c-1.6,0-3,0.6-4,1.7c-1,1.1-1.5,2.7-1.5,4.6s0.5,3.4,1.5,4.6
			c1,1.1,2.4,1.7,4,1.7c1,0,1.9-0.2,2.7-0.7c0.8-0.5,1.4-1.2,1.9-2.1h5.9c-0.6,2.4-1.9,4.2-3.7,5.6c-1.9,1.4-4.1,2-6.7,2
			c-2.1,0-4-0.5-5.7-1.4c-1.7-0.9-3-2.3-3.9-4c-0.9-1.7-1.4-3.6-1.4-5.8C230,314.9,230.4,313,231.4,311.3z"/>
		<path class="st4" d="M268.3,324.2h-8.2l-1.3,3.9h-5.6l7.9-21.9h6.2l7.9,21.9h-5.7L268.3,324.2z M266.9,320.1l-2.7-8l-2.7,8H266.9z
			"/>
		<path class="st4" d="M293.5,306.1v4.3h-5.8V328h-5.3v-17.6h-5.8v-4.3H293.5z"/>
		<path class="st4" d="M300.9,326.8c-1.7-1-3.1-2.3-4.1-4c-1-1.7-1.5-3.6-1.5-5.8c0-2.1,0.5-4.1,1.5-5.8c1-1.7,2.4-3,4.1-4
			c1.7-1,3.6-1.4,5.7-1.4c2.1,0,4,0.5,5.7,1.4c1.7,1,3.1,2.3,4.1,4c1,1.7,1.5,3.6,1.5,5.8c0,2.1-0.5,4.1-1.5,5.8
			c-1,1.7-2.4,3.1-4.1,4c-1.7,1-3.6,1.4-5.7,1.4C304.5,328.3,302.6,327.8,300.9,326.8z M310.7,321.6c1.1-1.2,1.6-2.7,1.6-4.6
			c0-1.9-0.5-3.5-1.6-4.6s-2.5-1.7-4.2-1.7c-1.8,0-3.2,0.6-4.2,1.7c-1.1,1.1-1.6,2.7-1.6,4.7c0,1.9,0.5,3.5,1.6,4.6
			c1.1,1.2,2.5,1.7,4.2,1.7C308.3,323.4,309.7,322.8,310.7,321.6z"/>
		<path class="st4" d="M331.9,328l-4.6-8.3H326v8.3h-5.3v-21.9h9c1.7,0,3.2,0.3,4.4,0.9c1.2,0.6,2.1,1.4,2.7,2.5
			c0.6,1.1,0.9,2.2,0.9,3.5c0,1.5-0.4,2.8-1.2,3.9c-0.8,1.1-2,2-3.6,2.4l5.1,8.7H331.9z M326,316h3.3c1,0,1.7-0.2,2.2-0.7
			c0.5-0.5,0.7-1.2,0.7-2c0-0.8-0.2-1.5-0.7-2c-0.5-0.5-1.2-0.7-2.2-0.7H326V316z"/>
		<path class="st4" d="M346.4,306.1V328h-5.3v-21.9H346.4z"/>
		<path class="st4" d="M363.9,324.2h-8.2l-1.3,3.9h-5.6l7.9-21.9h6.2l7.9,21.9h-5.7L363.9,324.2z M362.6,320.1l-2.7-8l-2.7,8H362.6z
			"/>
		<path class="st4" d="M376.9,327.5c-1.3-0.5-2.3-1.3-3-2.3c-0.8-1-1.2-2.2-1.2-3.7h5.7c0.1,0.8,0.4,1.4,0.8,1.9
			c0.5,0.4,1.1,0.6,1.9,0.6c0.8,0,1.4-0.2,1.9-0.5c0.5-0.4,0.7-0.9,0.7-1.5c0-0.5-0.2-1-0.5-1.3c-0.4-0.4-0.8-0.6-1.3-0.9
			c-0.5-0.2-1.3-0.5-2.3-0.8c-1.4-0.4-2.6-0.9-3.5-1.3c-0.9-0.4-1.7-1.1-2.3-1.9c-0.6-0.9-1-2-1-3.3c0-2,0.7-3.6,2.2-4.8
			c1.5-1.2,3.4-1.7,5.8-1.7c2.4,0,4.4,0.6,5.8,1.7c1.5,1.2,2.3,2.8,2.4,4.8h-5.8c0-0.7-0.3-1.3-0.8-1.7c-0.5-0.4-1.1-0.6-1.8-0.6
			c-0.6,0-1.2,0.2-1.6,0.5c-0.4,0.3-0.6,0.8-0.6,1.5c0,0.7,0.3,1.3,1,1.7c0.7,0.4,1.7,0.8,3.1,1.3c1.4,0.5,2.6,0.9,3.5,1.4
			c0.9,0.4,1.6,1.1,2.3,1.9c0.6,0.8,1,1.9,1,3.2c0,1.2-0.3,2.4-1,3.4c-0.6,1-1.6,1.8-2.8,2.4c-1.2,0.6-2.6,0.9-4.3,0.9
			C379.6,328.3,378.2,328,376.9,327.5z"/>
		<path class="st4" d="M190.4,361.7h-8.2l-1.3,3.9h-5.6l7.9-21.9h6.2l7.9,21.9h-5.7L190.4,361.7z M189,357.5l-2.7-8l-2.7,8H189z"/>
		<path class="st4" d="M216.1,356.2c0.8,1,1.2,2.1,1.2,3.4c0,1.8-0.6,3.3-1.9,4.4c-1.3,1.1-3.1,1.6-5.4,1.6h-10.2v-21.9h9.9
			c2.2,0,4,0.5,5.2,1.5c1.3,1,1.9,2.4,1.9,4.2c0,1.3-0.3,2.4-1,3.2c-0.7,0.9-1.6,1.4-2.7,1.8C214.3,354.6,215.3,355.2,216.1,356.2z
			 M205.1,352.5h3.5c0.9,0,1.5-0.2,2-0.6s0.7-1,0.7-1.7c0-0.7-0.2-1.3-0.7-1.7c-0.5-0.4-1.1-0.6-2-0.6h-3.5V352.5z M211.1,360.6
			c0.5-0.4,0.7-1,0.7-1.8c0-0.8-0.3-1.4-0.8-1.8c-0.5-0.4-1.2-0.7-2.1-0.7h-3.9v4.8h3.9C209.9,361.2,210.6,361,211.1,360.6z"/>
		<path class="st4" d="M225.7,343.6v21.9h-5.3v-21.9H225.7z"/>
		<path class="st4" d="M234.9,347.9v4.4h7.2v4.1h-7.2v4.8h8.1v4.3h-13.4v-21.9H243v4.3H234.9z"/>
		<path class="st4" d="M257.6,365.5l-4.6-8.3h-1.3v8.3h-5.3v-21.9h9c1.7,0,3.2,0.3,4.4,0.9c1.2,0.6,2.1,1.4,2.7,2.5
			c0.6,1.1,0.9,2.2,0.9,3.5c0,1.5-0.4,2.8-1.2,3.9c-0.8,1.1-2,2-3.6,2.4l5.1,8.7H257.6z M251.8,353.5h3.3c1,0,1.7-0.2,2.2-0.7
			c0.5-0.5,0.7-1.2,0.7-2c0-0.8-0.2-1.5-0.7-2c-0.5-0.5-1.2-0.7-2.2-0.7h-3.3V353.5z"/>
		<path class="st4" d="M282.6,343.6v4.3h-5.8v17.6h-5.3v-17.6h-5.8v-4.3H282.6z"/>
		<path class="st4" d="M298.9,361.7h-8.2l-1.3,3.9h-5.6l7.9-21.9h6.2l7.9,21.9h-5.7L298.9,361.7z M297.5,357.5l-2.7-8l-2.7,8H297.5z
			"/>
		<path class="st4" d="M311.9,365c-1.3-0.5-2.3-1.3-3-2.3c-0.8-1-1.2-2.2-1.2-3.7h5.7c0.1,0.8,0.4,1.4,0.8,1.9
			c0.5,0.4,1.1,0.6,1.9,0.6c0.8,0,1.4-0.2,1.9-0.5c0.5-0.4,0.7-0.9,0.7-1.5c0-0.5-0.2-1-0.5-1.3c-0.4-0.4-0.8-0.6-1.3-0.9
			c-0.5-0.2-1.3-0.5-2.3-0.8c-1.4-0.4-2.6-0.9-3.5-1.3c-0.9-0.4-1.7-1.1-2.3-1.9c-0.6-0.9-1-2-1-3.3c0-2,0.7-3.6,2.2-4.8
			c1.5-1.2,3.4-1.7,5.8-1.7c2.4,0,4.4,0.6,5.8,1.7c1.5,1.2,2.3,2.8,2.4,4.8h-5.8c0-0.7-0.3-1.3-0.8-1.7c-0.5-0.4-1.1-0.6-1.8-0.6
			c-0.6,0-1.2,0.2-1.6,0.5c-0.4,0.3-0.6,0.8-0.6,1.5c0,0.7,0.3,1.3,1,1.7c0.7,0.4,1.7,0.8,3.1,1.3c1.4,0.5,2.6,0.9,3.5,1.4
			c0.9,0.4,1.7,1.1,2.3,1.9c0.6,0.8,1,1.9,1,3.2c0,1.2-0.3,2.4-1,3.4c-0.6,1-1.6,1.8-2.8,2.4c-1.2,0.6-2.6,0.9-4.3,0.9
			C314.6,365.8,313.2,365.5,311.9,365z"/>
	</g>
	<g>
		<path class="st5" d="M305.4,149.4l-2.1-4.5l-1.9-0.2L301,149l-1-0.1l0.9-10.1l3,0.3c1.1,0.1,2,0.4,2.5,1c0.5,0.6,0.8,1.3,0.7,2.2
			c-0.1,0.7-0.3,1.3-0.8,1.8c-0.5,0.5-1.1,0.8-2,0.8l2.2,4.5L305.4,149.4z M301.5,143.9l2,0.2c0.8,0.1,1.4-0.1,1.8-0.4
			c0.4-0.4,0.7-0.9,0.7-1.5c0.1-0.7-0.1-1.2-0.4-1.6c-0.4-0.4-0.9-0.6-1.8-0.7l-2-0.2L301.5,143.9z"/>
		<path class="st5" d="M310.4,140.4l-0.3,3.8l3.8,0.3l-0.1,0.8l-3.8-0.3l-0.3,3.8l4.3,0.4l-0.1,0.8l-5.3-0.5l0.9-10.1l5.3,0.5
			l-0.1,0.8L310.4,140.4z"/>
		<path class="st5" d="M322.5,141.3c0.8,0.5,1.3,1.1,1.7,1.9c0.4,0.8,0.5,1.7,0.4,2.8c-0.1,1-0.4,1.9-0.9,2.6
			c-0.5,0.7-1.2,1.2-2,1.6c-0.8,0.3-1.8,0.4-2.9,0.3l-3-0.3l0.9-10.1l3,0.3C320.8,140.5,321.8,140.8,322.5,141.3z M322.2,148.9
			c0.8-0.7,1.3-1.7,1.4-3c0.1-1.3-0.2-2.4-0.8-3.2c-0.7-0.8-1.7-1.3-3.1-1.4l-2-0.2l-0.7,8.5l2,0.2
			C320.3,149.8,321.4,149.6,322.2,148.9z"/>
		<path class="st5" d="M329.1,141.2l-0.5,6.1c-0.1,0.6,0.1,1.1,0.3,1.4c0.3,0.4,0.7,0.6,1.3,0.6c0.6,0.1,1-0.1,1.4-0.4
			c0.3-0.3,0.5-0.8,0.6-1.4l0.5-6.1l2.5,0.2l-0.5,6.1c-0.1,0.9-0.3,1.7-0.8,2.3c-0.4,0.6-1,1-1.7,1.3c-0.7,0.3-1.4,0.4-2.2,0.3
			c-0.8-0.1-1.5-0.3-2.1-0.7c-0.6-0.4-1.1-0.9-1.4-1.6c-0.3-0.7-0.4-1.5-0.3-2.4l0.5-6.1L329.1,141.2z"/>
		<path class="st5" d="M343.4,145.7c-0.2-0.4-0.4-0.6-0.7-0.8c-0.3-0.2-0.7-0.3-1.2-0.4c-0.8-0.1-1.5,0.1-2,0.6
			c-0.5,0.5-0.8,1.2-0.9,2c-0.1,0.9,0.1,1.7,0.6,2.3c0.5,0.6,1.1,0.9,2,1c0.6,0.1,1.1-0.1,1.6-0.3c0.4-0.3,0.8-0.7,1-1.3l-3.1-0.3
			l0.2-1.8l5.4,0.5l-0.2,2.3c-0.2,0.6-0.6,1.2-1.1,1.6c-0.5,0.5-1.1,0.9-1.8,1.1c-0.7,0.3-1.5,0.4-2.3,0.3c-1-0.1-1.9-0.4-2.6-0.9
			c-0.7-0.5-1.3-1.2-1.7-2c-0.4-0.8-0.5-1.7-0.4-2.7c0.1-1,0.4-1.9,0.9-2.6c0.5-0.7,1.2-1.3,2-1.7c0.8-0.4,1.7-0.5,2.7-0.4
			c1.2,0.1,2.2,0.5,3,1.2c0.8,0.7,1.3,1.5,1.4,2.6L343.4,145.7z"/>
		<path class="st5" d="M357.5,143.7l-4.5,9.9l-3.1-0.3l-2.7-10.5l2.6,0.2l1.9,7.9l3.2-7.5L357.5,143.7z"/>
		<path class="st5" d="M361,144l-0.9,10.2l-2.5-0.2l0.9-10.2L361,144z"/>
	</g>
</g>
</svg>
