<?xml version="1.0" encoding="utf-8"?>
<!-- Generator: Adobe Illustrator 27.2.0, SVG Export Plug-In . SVG Version: 6.00 Build 0)  -->
<svg version="1.1" id="Capa_1" xmlns="http://www.w3.org/2000/svg" xmlns:xlink="http://www.w3.org/1999/xlink" x="0px" y="0px"
	 viewBox="0 0 1366 768" style="enable-background:new 0 0 1366 768;" xml:space="preserve">
<style type="text/css">
	.st0{fill:#DC3545;}
	.st1{fill:#FFFFFF;}
	.st2{fill:#732A09;}
	.st3{fill:#ED5454;}
	.st4{fill:none;}
	.st5{fill:#F75454;}
</style>
<g id="Capa_2_00000168801468338420799220000012091643167899164808_">
	<rect class="st0" width="1366" height="768"/>
</g>
<g id="Capa_1_00000136407475430931549370000014879903589282816945_">
	<g>
		<g id="window_00000111149452305806081680000010643291563468528517_">
			<rect x="952" y="347" class="st1" width="264.2" height="264.6"/>
			<path class="st2" d="M1216.2,612.4H952c-0.4,0-0.7-0.3-0.7-0.7V347c0-0.4,0.3-0.7,0.7-0.7h264.2c0.4,0,0.7,0.3,0.7,0.7v264.6
				C1216.8,612.1,1216.5,612.4,1216.2,612.4z M952.6,611h262.8V347.7H952.6V611z"/>
			<rect x="1092.4" y="363.3" class="st2" width="107.6" height="107.6"/>
			<path class="st2" d="M1199.9,471.5h-107.6c-0.4,0-0.7-0.3-0.7-0.7V363.3c0-0.4,0.3-0.7,0.7-0.7h107.6c0.4,0,0.7,0.3,0.7,0.7
				v107.5C1200.6,471.2,1200.3,471.5,1199.9,471.5z M1093.1,470.1h106.2V364h-106.2V470.1z"/>
			<rect x="968.2" y="363.3" class="st2" width="107.6" height="107.6"/>
			<path class="st2" d="M1075.7,471.5H968.2c-0.4,0-0.7-0.3-0.7-0.7V363.3c0-0.4,0.3-0.7,0.7-0.7h107.6c0.4,0,0.7,0.3,0.7,0.7v107.5
				C1076.4,471.2,1076.1,471.5,1075.7,471.5z M968.9,470.1H1075V364H968.9V470.1z"/>
			<rect x="1092.4" y="487.9" class="st2" width="107.6" height="107.6"/>
			<path class="st2" d="M1199.9,596.1h-107.6c-0.4,0-0.7-0.3-0.7-0.7V487.9c0-0.4,0.3-0.7,0.7-0.7h107.6c0.4,0,0.7,0.3,0.7,0.7
				v107.6C1200.6,595.8,1200.3,596.1,1199.9,596.1z M1093.1,594.7h106.2V488.6h-106.2V594.7z"/>
			<rect x="968.2" y="487.9" class="st2" width="107.6" height="107.6"/>
			<path class="st2" d="M1075.7,596.1H968.2c-0.4,0-0.7-0.3-0.7-0.7V487.9c0-0.4,0.3-0.7,0.7-0.7h107.6c0.4,0,0.7,0.3,0.7,0.7v107.6
				C1076.4,595.8,1076.1,596.1,1075.7,596.1z M968.9,594.7H1075V488.6H968.9V594.7z"/>
		</g>
		<g id="table_00000143619341562880136410000014136651220838978437_">
			<rect x="903.8" y="659" class="st1" width="304.6" height="113.6"/>
			<path class="st2" d="M1208.4,773.3H903.8c-0.4,0-0.7-0.3-0.7-0.7V659c0-0.4,0.3-0.7,0.7-0.7h304.6c0.4,0,0.7,0.3,0.7,0.7v113.6
				C1209.1,773,1208.8,773.3,1208.4,773.3z M904.4,772h303.3V659.7H904.4V772L904.4,772z"/>
			<rect x="1208.4" y="659" class="st3" width="80.7" height="113.6"/>
			<path class="st2" d="M1289.1,773.3h-80.7c-0.4,0-0.7-0.3-0.7-0.7V659c0-0.4,0.3-0.7,0.7-0.7h80.7c0.4,0,0.7,0.3,0.7,0.7v113.6
				C1289.8,773,1289.5,773.3,1289.1,773.3z M1209.1,772h79.3V659.7h-79.3V772L1209.1,772z"/>
			<rect x="918.5" y="682" class="st2" width="261.1" height="90.6"/>
			<path class="st2" d="M1179.6,773.3H918.5c-0.4,0-0.7-0.3-0.7-0.7V682c0-0.4,0.3-0.7,0.7-0.7h261.1c0.4,0,0.7,0.3,0.7,0.7v90.6
				C1180.3,773,1180,773.3,1179.6,773.3z M919.2,772h259.7v-89.3H919.2V772z"/>
		</g>
		<g id="character_00000080180533691589522410000005559567933306006454_">
			<path class="st1" d="M1075.7,579.1l41.6-54.4l-7.7-11.3l-85.4,20.8c0,0-11.9-23.3-27.1-25.5c-15.3-2.2-30.7,1.1-39.8-3.8
				c-9.1-4.8-10.6-8.6-10.6-8.6L910.8,524l44.5,87.2l44.8,18l47.1-20.9L1075.7,579.1z"/>
			<path class="st2" d="M1000,629.8c-0.1,0-0.2,0-0.3-0.1l-44.8-18c-0.2-0.1-0.3-0.2-0.4-0.3L910,524.2c-0.2-0.3-0.1-0.7,0.2-0.8
				l35.9-27.7c0.2-0.1,0.4-0.2,0.6-0.1c0.2,0.1,0.4,0.2,0.5,0.4c0,0,1.6,3.7,10.3,8.3c5.3,2.8,12.8,2.8,21.5,2.8
				c5.9,0,11.9,0,18.1,0.9c14.4,2,25.5,21.9,27.4,25.4l84.9-20.7c0.3-0.1,0.6,0,0.7,0.3l7.7,11.3c0.2,0.2,0.2,0.6,0,0.8l-41.6,54.4
				c0,0,0,0-0.1,0.1l-28.5,29.1c0,0-0.1,0.1-0.2,0.2l-47.1,20.9C1000.2,629.8,1000.1,629.8,1000,629.8L1000,629.8z M955.7,610.6
				l44.3,17.8l46.8-20.8l28.4-29l41.3-54l-7.2-10.5l-85,20.7c-0.3,0.1-0.6-0.1-0.8-0.4c-0.1-0.2-11.9-23-26.6-25.1
				c-6.1-0.9-12.1-0.9-17.9-0.9c-8.9,0-16.5,0-22.2-3c-7-3.7-9.6-6.8-10.5-8.2L911.5,524L955.7,610.6L955.7,610.6z M1075.7,579.1
				L1075.7,579.1L1075.7,579.1z"/>
			<line class="st4" x1="1039.7" y1="596.5" x2="1111.9" y2="516.7"/>
			<path class="st2" d="M1039.7,597.2c-0.2,0-0.3-0.1-0.5-0.2c-0.3-0.3-0.3-0.7-0.1-1l72.2-79.8c0.3-0.3,0.7-0.3,1-0.1
				c0.3,0.3,0.3,0.7,0.1,1l-72.2,79.8C1040.1,597.1,1039.9,597.2,1039.7,597.2L1039.7,597.2z"/>
			<line class="st4" x1="1114.4" y1="520.4" x2="1041.7" y2="604.7"/>
			<path class="st2" d="M1041.7,605.4c-0.2,0-0.3-0.1-0.5-0.2c-0.3-0.2-0.3-0.7-0.1-1l72.7-84.3c0.2-0.3,0.7-0.3,1-0.1
				s0.3,0.7,0.1,1l-72.7,84.3C1042.1,605.3,1041.9,605.4,1041.7,605.4L1041.7,605.4z"/>
			<polygon class="st3" points="1109.6,513.3 1020.3,608.3 1009.2,602.8 1091,517.9 			"/>
			<path class="st2" d="M1020.3,609c-0.1,0-0.2,0-0.3-0.1l-11.1-5.5c-0.2-0.1-0.3-0.3-0.4-0.5c0-0.2,0-0.4,0.2-0.6l81.9-85
				c0.1-0.1,0.2-0.2,0.3-0.2l18.5-4.5c0.3-0.1,0.6,0.1,0.8,0.3c0.2,0.3,0.1,0.6-0.1,0.8l-89.3,95
				C1020.7,608.9,1020.5,609,1020.3,609L1020.3,609z M1010.3,602.6l9.8,4.8l87.3-92.9l-16.1,3.9L1010.3,602.6L1010.3,602.6z"/>
			<path class="st1" d="M1024.1,534.2c0,0,11.3-13.6,23.8-19.2c12.5-5.6,25.9-1.7,33.8-1.9s17.5-2.4,17.5-2.4l-85.3,95.3l-35.4,6.2
				l-4.9-25.1L1024.1,534.2L1024.1,534.2z"/>
			<path class="st2" d="M978.6,612.8c-0.3,0-0.6-0.2-0.7-0.5l-4.9-25.1c0-0.2,0-0.4,0.2-0.6l50.5-52.8c0.5-0.6,11.8-13.8,24-19.4
				c9.2-4.2,18.9-3.2,26.7-2.5c2.9,0.3,5.3,0.5,7.4,0.5c7.7-0.2,17.3-2.3,17.4-2.4c0.3-0.1,0.6,0.1,0.7,0.3c0.2,0.3,0.1,0.6-0.1,0.8
				l-85.3,95.3c-0.1,0.1-0.2,0.2-0.4,0.2L978.6,612.8C978.7,612.8,978.6,612.8,978.6,612.8L978.6,612.8z M974.4,587.2l4.7,24.1
				l34.5-6l83.7-93.6c-3.3,0.7-9.9,1.8-15.6,2c-2.2,0.1-4.7-0.2-7.6-0.5c-7.6-0.7-17.1-1.7-26,2.3c-12.2,5.5-23.4,18.9-23.6,19l0,0
				L974.4,587.2L974.4,587.2z M1024.1,534.2L1024.1,534.2L1024.1,534.2z"/>
			<path class="st1" d="M1053.4,593.7c0.8-1.9,5.2-10.5,8.2-15c2.9-4.5,5-12.7,9.3-13.4s4.8,10,4.8,13.7c0,3.8,0.6,6.4,0.6,6.4
				s5-5.6,7.2-9.1s3.5-11.7,3.5-11.7l6.5-8.8c0,0,1.6,15.1-0.6,27.6s-10.2,23.4-15.6,27.5s-16.1,7.2-16.1,7.2L1053.4,593.7
				L1053.4,593.7z"/>
			<path class="st2" d="M1061.1,618.8c-0.3,0-0.6-0.2-0.7-0.5l-7.7-24.4c-0.1-0.2,0-0.3,0-0.5c0.8-1.8,5.2-10.5,8.2-15.1
				c0.9-1.4,1.7-3.1,2.5-4.9c1.9-4.1,3.9-8.3,7.2-8.8c0.9-0.1,1.7,0.1,2.4,0.7c2.8,2.4,3.1,10.4,3.1,13.7c0,2,0.2,3.7,0.3,4.8
				c1.5-1.8,4.6-5.4,6.1-7.9c2.1-3.4,3.4-11.4,3.4-11.5s0.1-0.2,0.1-0.3l6.5-8.8c0.2-0.2,0.5-0.3,0.7-0.2c0.3,0.1,0.5,0.3,0.5,0.6
				c0,0.2,1.6,15.3-0.6,27.8c-2.3,13.3-10.9,24.2-15.8,27.9c-5.4,4.1-15.9,7.1-16.4,7.3C1061.2,618.8,1061.2,618.8,1061.1,618.8
				L1061.1,618.8z M1054.1,593.8l7.4,23.5c2.4-0.7,10.8-3.5,15.3-6.9c4.7-3.6,13.1-14.2,15.3-27.1c1.7-9.8,1.1-21.3,0.7-25.6
				l-5.3,7.2c-0.2,1.2-1.5,8.4-3.6,11.8c-2.2,3.5-7,9-7.2,9.2s-0.4,0.3-0.7,0.2c-0.2-0.1-0.4-0.3-0.5-0.5c0-0.1-0.6-2.7-0.6-6.5
				c0-5-0.7-11-2.6-12.7c-0.4-0.3-0.8-0.5-1.3-0.4c-2.6,0.4-4.5,4.3-6.2,8.1c-0.8,1.8-1.7,3.6-2.6,5
				C1059.3,583.5,1055.1,591.5,1054.1,593.8L1054.1,593.8z"/>
			<path class="st3" d="M927.8,676.4v-53.3c0,0,34.4,31.6,58.7,33.1c21.2,1.2,65.4-21.8,76.4-27.9c1.7-0.9,2.7-2.6,2.8-4.5
				c0.3-7-0.2-24.3-11.5-32c-1.2-0.8-2.7-1.1-4.1-0.7l-67.2,15c0,0-23.7-53.9-42.5-68.2s-55.6-34.4-91.1-24.9
				c-35.5,9.5-47.8,37.7-52.3,58.4s25,117.8,25,117.8l69.6,5.7L927.8,676.4L927.8,676.4z"/>
			<path class="st1" d="M927.8,676.4c0,0,43.3,8.1,58,28.3s14.2,68,14.2,68H855.6l-56.2-35.8l51.2-60.4L927.8,676.4L927.8,676.4z"/>
			<path class="st2" d="M1000,773.3H855.6c-0.1,0-0.3,0-0.4-0.1L799,737.4c-0.2-0.1-0.3-0.3-0.3-0.5s0-0.4,0.2-0.5l51.2-60.4
				c0.1-0.2,0.3-0.2,0.5-0.2h77.2h0.1c1.8,0.3,43.7,8.4,58.4,28.6c6.2,8.5,10.4,22.6,12.8,41.9c1.7,14.3,1.6,26.4,1.6,26.5
				C1000.7,773,1000.3,773.3,1000,773.3L1000,773.3z M855.8,772h143.5c0-5.9-0.7-48.4-14.1-66.9c-14.1-19.4-55.6-27.6-57.5-28h-76.8
				l-50.5,59.6L855.8,772L855.8,772z"/>
			<path class="st2" d="M927,616.1c-0.2,0-0.3,0-0.4-0.2c-20.9-16.3-27.4-44.1-21.4-54.1c0.2-0.3,0.6-0.4,0.9-0.2
				c0.3,0.2,0.4,0.6,0.2,0.9c-5.2,8.6,0.1,36,21.1,52.3c0.3,0.2,0.4,0.7,0.1,1C927.4,616,927.2,616.1,927,616.1L927,616.1z"/>
			<path class="st2" d="M846.9,772.7H729.5c-7.2,0-13-5.8-13-13l0,0c0-7.2,5.8-13,13-13h117.4V772.7L846.9,772.7L846.9,772.7z"/>
			<path class="st2" d="M846.9,773.3H729.5c-7.5,0-13.7-6.1-13.7-13.7c0-7.5,6.1-13.7,13.7-13.7h117.4c0.4,0,0.7,0.3,0.7,0.7v26
				C847.6,773,847.3,773.3,846.9,773.3L846.9,773.3z M729.5,747.4c-6.8,0-12.3,5.5-12.3,12.3s5.5,12.3,12.3,12.3h116.7v-24.6H729.5
				L729.5,747.4z"/>
			<path class="st3" d="M939,772.7h-94.8c-7.2,0-13-5.8-13-13l0,0c0-7.2,5.8-13,13-13H939c7.2,0,13,5.8,13,13l0,0
				C952,766.9,946.2,772.7,939,772.7z"/>
			<path class="st2" d="M939,773.3h-94.8c-7.5,0-13.7-6.1-13.7-13.7c0-7.5,6.1-13.7,13.7-13.7H939c7.5,0,13.7,6.1,13.7,13.7
				C952.6,767.2,946.5,773.3,939,773.3z M844.2,747.4c-6.8,0-12.3,5.5-12.3,12.3s5.5,12.3,12.3,12.3H939c6.8,0,12.3-5.5,12.3-12.3
				s-5.5-12.3-12.3-12.3H844.2z"/>
			<path class="st1" d="M927,746.7c0,0,12.2-56.5,10.2-67.9s-79-10.1-79-10.1v-10c0,0,63.2-3.9,84.8,10.6c12.7,8.5-4,77.4-4,77.4
				H927z"/>
			<path class="st2" d="M939,747.4h-12c-0.2,0-0.4-0.1-0.5-0.3s-0.2-0.4-0.1-0.6c0.1-0.6,12.1-56.5,10.2-67.7
				c-0.4-2.5-6.1-6.9-39.6-8.8c-19.3-1.1-38.5-0.8-38.7-0.8s-0.4-0.1-0.5-0.2c-0.1-0.1-0.2-0.3-0.2-0.5v-10c0-0.4,0.3-0.7,0.6-0.7
				c0.2,0,16.1-1,34.4-0.1c24.7,1.1,41.8,4.8,50.8,10.8c5.5,3.7,6.5,18,3.1,42.6c-2.6,18.1-6.7,35.4-6.8,35.6
				C939.6,747.2,939.3,747.4,939,747.4L939,747.4z M927.8,746h10.6c0.7-3,4.3-18.7,6.6-34.9c3.3-23.7,2.5-37.9-2.5-41.2
				c-19.9-13.4-77-10.8-83.7-10.5v8.6c10.6-0.2,77.1-0.6,79,10.7C939.7,689.5,929.4,738.7,927.8,746L927.8,746z"/>
			<path class="st1" d="M944.4,451.1c4.4-0.8,13.1-8.9,4.3-20.9s-14.9-19.4-33.9-18.5s-31,14.3-44.6,19.5
				c-13.6,5.1-24.1,11.1-26.6,22s-2.6,20.4-10.3,27.2c-7.7,6.8-14,25.5-10.4,38.8c3.7,13.4-6.5,20.5-8.5,33.3s63.9,43.3,81.3,19.5
				c17.4-23.8,3.7-31.5,12.4-38.1s13.7-16.3,10.9-23.8C916.3,502.7,944.4,451.1,944.4,451.1L944.4,451.1z"/>
			<path class="st2" d="M873.8,581.5c-10.7,0-22.8-3.2-33-7.4c-14.2-5.9-28-15.2-27-21.7c0.8-5.2,2.9-9.4,4.9-13.4
				c3-6,5.8-11.7,3.6-19.6c-3.7-13.7,2.6-32.5,10.6-39.5c5.9-5.2,7.2-12.1,8.7-20.1c0.4-2.2,0.8-4.4,1.4-6.7
				c2.7-11.8,14.6-17.8,27-22.5c4.8-1.8,9.3-4.6,14.2-7.6c9-5.6,18.2-11.3,30.7-11.9c19.2-1,25.6,6.5,34.5,18.7
				c4.8,6.6,4.3,11.8,3,14.9c-1.5,3.8-4.9,6.4-7.4,7c-7.9,14.5-27.3,52.3-25.1,58.2c2.8,7.4-1.8,17.5-11.1,24.5
				c-3.3,2.5-3.1,5-2.9,9.1c0.4,5.8,1,14.6-9.4,28.9C891.5,579,883.2,581.5,873.8,581.5L873.8,581.5z M918,412.3c-1,0-2,0-3.1,0.1
				c-12.1,0.6-21.2,6.2-30,11.7c-4.9,3-9.5,5.9-14.4,7.7c-12.1,4.6-23.6,10.3-26.2,21.5c-0.5,2.3-0.9,4.5-1.4,6.6
				c-1.6,8.2-2.9,15.4-9.1,20.9c-7.5,6.6-13.7,25.1-10.2,38.1c2.3,8.4-0.6,14.3-3.7,20.6c-2,4-4,8.1-4.7,13
				c-0.8,4.9,10.7,13.8,26.1,20.2c18.8,7.8,44.2,12.1,53.9-1.2c10.1-13.8,9.6-22,9.2-28c-0.3-4.1-0.5-7.4,3.4-10.3
				c8.8-6.7,13.2-16.1,10.7-23c-2.8-7.5,22.5-54.3,25.3-59.6c0.1-0.2,0.3-0.3,0.5-0.3c2.2-0.4,5.3-2.7,6.7-6.2
				c1.1-2.8,1.6-7.5-2.8-13.6C939.9,419.1,934.1,412.3,918,412.3L918,412.3z"/>
			<path class="st1" d="M950.7,481.6c-1,4.8-6.3,4.2-8.7,1.2c-3.1,11.2-7.9,24.3-22.8,27.3c0,0-8.8-20-5.3-31.6
				c3.5-11.7,14.8-13,17.1-16.2c2.3-3.1,1.6-14.7,1.6-14.7l14-3.9c0,0-0.1,8.9-1.2,16.4c-1.7,8.8-1.6,15.8-1.6,15.8
				S951.8,476.3,950.7,481.6L950.7,481.6z"/>
			<path class="st2" d="M919.1,510.8c-0.3,0-0.5-0.2-0.6-0.4c-0.4-0.8-8.9-20.3-5.3-32.1c2.5-8.3,9-11.7,13.3-13.8
				c1.8-0.9,3.4-1.7,4-2.6c1.8-2.4,1.7-11.1,1.5-14.3c0-0.3,0.2-0.6,0.5-0.7l14-3.9c0.2-0.1,0.4,0,0.6,0.1c0.2,0.1,0.3,0.3,0.3,0.5
				c0,0.1-0.1,9-1.2,16.5c-1.4,7.2-1.5,13.2-1.6,15.1c1.4,0.2,4.6,0.8,6.1,2.8c0.8,1,1.1,2.3,0.7,3.7l0,0c-0.5,2.1-1.7,3.5-3.5,3.9
				c-1.8,0.5-4-0.2-5.5-1.5c-3.5,12.3-8.9,23.8-23,26.6C919.2,510.8,919.2,510.8,919.1,510.8L919.1,510.8z M933.3,448.1
				c0.1,2.4,0.4,11.7-1.8,14.6c-0.8,1.1-2.4,1.9-4.5,3c-4.3,2.2-10.2,5.2-12.6,13c-3.1,10.2,3.7,27.5,5,30.6
				c13.4-2.9,18.4-14.5,21.8-26.7c0.1-0.2,0.3-0.4,0.5-0.5s0.5,0,0.7,0.2c1.3,1.5,3.4,2.3,5,1.9c1.3-0.3,2.2-1.3,2.5-2.9l0,0
				c0.2-1,0.1-1.9-0.5-2.6c-1.6-2.1-5.7-2.3-5.7-2.3c-0.4,0-0.6-0.3-0.6-0.7c0-0.1-0.1-7.2,1.6-15.9c0.9-6,1.1-12.9,1.2-15.3
				L933.3,448.1L933.3,448.1z M950.7,481.6L950.7,481.6L950.7,481.6z"/>
			<path class="st2" d="M941.4,458.4c-3.2-3.9-5.6-3.8-8.6-0.2c-0.5,0.6-1.5,0-1.2-0.7c1.4-4,5.8-6,9.1-2.7c0.9,0.8,1.5,1.9,1.9,3
				c0.1,0.4-0.1,0.8-0.4,0.9C941.9,458.8,941.6,458.7,941.4,458.4L941.4,458.4z"/>
			<path class="st2" d="M932.9,466c-0.3,2.6,0.9,4.8,2.7,5s3.5-1.7,3.8-4.3c0.1-0.8,0-1.5-0.1-2.2l-3.3,1.3l1.9-3.6
				c-0.4-0.3-0.7-0.5-1.2-0.5C934.9,461.5,933.2,463.5,932.9,466L932.9,466z"/>
			<path class="st2" d="M941.9,483.6c-0.2,0-0.4-0.1-0.5-0.2c-1-1.2-1.4-2.6-1.4-4c0-0.4,0.3-0.7,0.7-0.6c0.4,0,0.7,0.3,0.6,0.7
				c-0.1,1.4,0.5,2.4,1.1,3.1c0.2,0.3,0.2,0.7-0.1,1C942.2,483.5,942.1,483.6,941.9,483.6L941.9,483.6z"/>
			<path class="st2" d="M929.1,490.6c-1.2,0-2.3-0.3-3.3-0.8c-2.6-1.4-4.2-4.4-4.3-8c0-0.4,0.3-0.7,0.7-0.7s0.7,0.3,0.7,0.7
				c0.1,3.1,1.5,5.7,3.6,6.8c2,1.1,4.6,0.8,7.3-0.8c0.3-0.2,0.7-0.1,0.9,0.2c0.2,0.3,0.1,0.7-0.2,0.9
				C932.7,490,930.8,490.6,929.1,490.6L929.1,490.6z"/>
			<path class="st5" d="M860.7,435.3c0,0,11,11.3,37.3,6.1c26.2-5.3,28.2-29,28.2-29S898,410.8,860.7,435.3L860.7,435.3z"/>
			<path class="st2" d="M884.6,443.5c-16.7,0-24.1-7.3-24.4-7.7c-0.1-0.2-0.2-0.3-0.2-0.5s0.1-0.4,0.3-0.5
				c19.3-12.7,36.2-18.3,46.9-20.7c11.7-2.6,18.7-2.3,19-2.3c0.2,0,0.4,0.1,0.5,0.2s0.2,0.3,0.2,0.5s-2.3,24.3-28.7,29.6
				C893.1,443.1,888.6,443.5,884.6,443.5L884.6,443.5z M861.8,435.4c2.7,2.2,13.9,9.8,36,5.3c22.9-4.6,27-23.7,27.6-27.6
				c-0.1,0-0.1,0-0.2,0C920.2,413,894.4,414.2,861.8,435.4z"/>
			<path class="st1" d="M872.7,391.2c23.4-4.6,40.4-6.2,48.7,8s-12.3,35.2-31.2,38s-37.9-6.2-38.1-17.9
				C851.8,407.4,856.9,393.8,872.7,391.2L872.7,391.2z"/>
			<path class="st2" d="M883.4,438.3c-10,0-19.9-3-26.1-8.2c-3.8-3.2-5.8-7-5.9-10.9c-0.3-12.1,5.1-26.1,21.2-28.7
				c22.7-4.4,40.7-6.6,49.4,8.3c2.7,4.7,2.6,10.3-0.2,16.3c-5.3,11.1-18.9,20.9-31.5,22.7C888,438.1,885.7,438.3,883.4,438.3
				L883.4,438.3z M898.1,388.6c-7.4,0-15.9,1.4-25.2,3.3l0,0c-15.2,2.5-20.3,15.8-20.1,27.3c0.1,3.5,2,6.9,5.5,9.9
				c7.3,6.1,20.1,9.1,31.9,7.4c12-1.7,25.4-11.4,30.4-22c1.9-3.9,3.4-9.6,0.3-15C916.1,391.3,908.2,388.6,898.1,388.6L898.1,388.6z
				 M872.7,391.2L872.7,391.2L872.7,391.2z"/>
			<path class="st3" d="M711.3,714.6c4.3,23.9,19.1,32,62.5,32c16,0,29.5,0.3,40.6-0.3c26.6-1.5,39.5-8.1,41.1-36.4
				c2.2-38.9,14.9-146.1-31-159.9h-0.1c-1.4-0.4-2.8-0.8-4.3-1c-51.1-8.1-96.9,0-105.5,31S707,690.8,711.3,714.6z"/>
			<path class="st2" d="M795.3,747.4c-3.2,0-6.4,0-9.9,0c-3.7,0-7.6,0-11.6,0c-43.4,0-58.8-7.9-63.2-32.6
				c-4.2-23.3-5.3-103.7,3.4-135c7.9-28.6,48.6-40.7,106.3-31.5c1.5,0.2,3,0.6,4.4,1l0,0h0.1c42,12.6,35.7,100.4,32.4,147.6
				c-0.3,4.9-0.7,9.3-0.9,13c-1.7,29.3-16,35.7-41.8,37.1C808.7,747.3,802.4,747.4,795.3,747.4L795.3,747.4z M784.3,546.5
				c-43.3,0-64.1,16.1-69,33.6c-8.6,31.1-7.5,111.2-3.3,134.4l0,0c4.3,23.8,19.3,31.4,61.9,31.4c4,0,7.9,0,11.6,0
				c11.1,0.1,20.7,0.1,29-0.4c25.6-1.4,38.9-7.3,40.5-35.8c0.2-3.8,0.5-8.2,0.9-13c3.3-46.8,9.5-133.9-31.4-146.2c0,0,0,0-0.1,0l0,0
				c-1.4-0.4-2.8-0.7-4.2-1C806.7,547.5,794.8,546.6,784.3,546.5L784.3,546.5z"/>
			<path class="st2" d="M814.4,746.3c26.6-1.5,39.5-8.1,41.1-36.4c2.2-38.9,14.9-146.1-31-159.9c32.6,13.4,27.6,132.8,23.3,161.8
				S814.4,746.3,814.4,746.3z"/>
			<path class="st2" d="M814.4,747c-0.3,0-0.6-0.3-0.7-0.6c0-0.4,0.2-0.7,0.5-0.8s28.6-5.8,32.9-34c5.2-34.4,8.1-148.4-22.9-161.1
				c-0.3-0.1-0.5-0.5-0.4-0.9c0.1-0.3,0.5-0.5,0.8-0.4c42,12.6,35.7,100.4,32.4,147.6c-0.3,4.9-0.7,9.3-0.9,13
				C854.6,739.2,840.3,745.6,814.4,747C814.5,747,814.4,747,814.4,747L814.4,747z M831,553.5c13.1,12.6,18,44.9,19.7,71.5
				c2.3,34.7,0.1,71.7-2.2,86.9c-3.2,21-19.2,29.9-28.1,33.3c21.6-2.1,33-9.2,34.4-35.4c0.2-3.8,0.5-8.2,0.9-13
				C858.9,652.7,864.6,572.9,831,553.5L831,553.5z"/>
			<path class="st2" d="M993.3,536.3c-0.2,0-0.4-0.1-0.6-0.3c-4.8-7.3-12.9-12.4-21.5-13.5c-2.4-0.3-4.9-0.3-7.3-0.4
				c-2.5,0-5,0-7.5-0.4c-6.1-0.8-10.7-3.6-12.8-7.6c-0.2-0.3,0-0.8,0.3-0.9c0.3-0.2,0.8,0,0.9,0.3c2.6,5.2,9.1,6.6,11.8,6.9
				c2.4,0.3,4.9,0.3,7.4,0.4c2.4,0,5,0,7.5,0.4c9,1.2,17.4,6.4,22.5,14.1c0.2,0.3,0.1,0.7-0.2,0.9
				C993.5,536.3,993.4,536.3,993.3,536.3L993.3,536.3z"/>
			<path class="st2" d="M983.1,545.6c-0.2,0-0.4-0.1-0.6-0.3c-3.9-5.8-10.3-10-17.2-11.3c-1.2-0.2-2.4-0.3-3.6-0.5
				c-1-0.1-2.1-0.2-3.1-0.4c-2.6-0.4-5.2-1.1-7.7-1.9c-6.7-2.1-14.1-5-17.6-11.4c-0.2-0.3-0.1-0.8,0.3-0.9c0.3-0.2,0.8-0.1,0.9,0.3
				c3.3,5.9,10.3,8.8,16.8,10.7c2.4,0.7,4.9,1.5,7.5,1.9c1,0.2,2,0.3,3,0.4c1.2,0.1,2.5,0.3,3.7,0.5c7.3,1.3,14,5.7,18.1,11.8
				c0.2,0.3,0.1,0.7-0.2,0.9C983.4,545.6,983.3,545.6,983.1,545.6L983.1,545.6z"/>
			<path class="st2" d="M971.1,553.1c-0.2,0-0.5-0.1-0.6-0.3c-1.8-3-5-4.7-7.4-5.6c-2.2-0.8-4.5-1.3-6.7-1.9
				c-0.9-0.2-1.9-0.4-2.8-0.7c-0.4-0.1-0.6-0.5-0.5-0.8c0.1-0.4,0.5-0.6,0.8-0.5c0.9,0.2,1.8,0.4,2.7,0.6c2.3,0.5,4.6,1.1,6.9,1.9
				c3.7,1.4,6.5,3.5,8.1,6.1c0.2,0.3,0.1,0.7-0.2,0.9C971.4,553,971.2,553.1,971.1,553.1L971.1,553.1z"/>
			<path class="st2" d="M1028.6,540.1c-0.2,0-0.4-0.1-0.5-0.2c-0.2-0.3-0.2-0.7,0.1-1c7-5.8,13.7-8.9,20.3-9.7
				c2.3-0.3,4.7-0.2,7-0.2c3.7,0.1,7.1,0.1,10.5-0.9c0.4-0.1,0.7,0.1,0.9,0.5c0.1,0.4-0.1,0.7-0.5,0.9c-3.5,1.1-7.3,1.1-10.9,1
				c-2.3,0-4.6-0.1-6.8,0.2c-6.4,0.7-12.8,3.8-19.6,9.4C1028.9,540.1,1028.7,540.1,1028.6,540.1L1028.6,540.1z"/>
			<path class="st2" d="M1016.5,554.8c-0.2,0-0.5-0.1-0.6-0.3c-0.2-0.3-0.1-0.7,0.2-0.9c5.2-3.2,11-6.7,17.5-7.8
				c2.7-0.5,5.5-0.5,8.2-0.5c4.9,0,9.6-0.1,13.5-2.4c0.3-0.2,0.7-0.1,0.9,0.2s0.1,0.7-0.2,0.9c-4.3,2.5-9.3,2.5-14.2,2.6
				c-2.7,0-5.4,0-8,0.5c-6.2,1-11.9,4.5-17,7.6C1016.8,554.7,1016.7,554.7,1016.5,554.8L1016.5,554.8z"/>
			<path class="st2" d="M1007.5,568.6c-0.3,0-0.5-0.2-0.6-0.5c-0.1-0.4,0.1-0.7,0.4-0.9c2.1-0.7,4-1.9,5.9-3c2-1.2,4.2-2.5,6.5-3.2
				c3.1-1,6.5-0.9,9.7-0.8c4.2,0.1,8.1,0.2,11.5-1.8c0.3-0.2,0.7-0.1,0.9,0.2s0.1,0.7-0.2,0.9c-3.7,2.2-8,2.1-12.2,2
				c-3.1-0.1-6.4-0.2-9.3,0.7c-2.2,0.7-4.1,1.8-6.2,3.1c-1.9,1.2-3.9,2.4-6.1,3.1C1007.7,568.5,1007.6,568.6,1007.5,568.6
				L1007.5,568.6z"/>
		</g>
		<g id="book_00000055670858277061125390000002731283088133165246_">
			<path class="st5" d="M1161,659h-70.5c-6.8,0-12.4-5.5-12.4-12.4l0,0c0-6.8,5.5-12.4,12.4-12.4h70.5"/>
			<path class="st2" d="M1161,659.7h-70.5c-7.2,0-13-5.9-13-13s5.9-13,13-13h70.5c0.4,0,0.7,0.3,0.7,0.7s-0.3,0.7-0.7,0.7h-70.5
				c-6.4,0-11.7,5.2-11.7,11.7s5.2,11.7,11.7,11.7h70.5c0.4,0,0.7,0.3,0.7,0.7C1161.6,659.4,1161.3,659.7,1161,659.7z"/>
			<path class="st1" d="M1148.5,646.7c0,6.8,5.5,12.4,12.4,12.4h65.9l4.5-4.5h-5.5l5.5-5.5h-5.3l5.5-5.5h-5l4.9-4.9h-4.3l4.5-4.5
				h-70.5c-3.4,0-6.5,1.4-8.8,3.6C1149.9,640.2,1148.5,643.3,1148.5,646.7L1148.5,646.7z"/>
			<path class="st2" d="M1226.7,659.7h-65.9c-7.2,0-13.1-5.8-13.1-13c0-3.5,1.4-6.8,3.8-9.2c2.5-2.5,5.7-3.8,9.2-3.8h70.5
				c0.3,0,0.5,0.2,0.6,0.4c0.1,0.3,0,0.5-0.2,0.7l-3.3,3.3h2.7c0.3,0,0.5,0.2,0.6,0.4c0.1,0.3,0,0.5-0.2,0.7l-3.7,3.7h3.3
				c0.3,0,0.5,0.2,0.6,0.4c0.1,0.3,0,0.5-0.2,0.7l-4.3,4.3h3.6c0.3,0,0.5,0.2,0.6,0.4c0.1,0.3,0,0.5-0.2,0.7l-4.3,4.3h3.8
				c0.3,0,0.5,0.2,0.6,0.4c0.1,0.3,0,0.5-0.2,0.7l-4.5,4.5C1227.1,659.6,1226.9,659.7,1226.7,659.7L1226.7,659.7z M1160.8,635
				c-3.1,0-6.1,1.2-8.3,3.4c-2.2,2.2-3.4,5.2-3.4,8.3c0,6.4,5.2,11.7,11.7,11.7h65.6l3.1-3.1h-3.8c-0.3,0-0.5-0.2-0.6-0.4
				c-0.1-0.3,0-0.5,0.2-0.7l4.3-4.3h-3.6c-0.3,0-0.5-0.2-0.6-0.4c-0.1-0.3,0-0.5,0.2-0.7l4.3-4.3h-3.3c-0.3,0-0.5-0.2-0.6-0.4
				c-0.1-0.3,0-0.5,0.2-0.7l3.7-3.7h-2.7c-0.3,0-0.5-0.2-0.6-0.4c-0.1-0.3,0-0.5,0.2-0.7l3.3-3.3L1160.8,635L1160.8,635z"/>
			<path class="st2" d="M1225.7,655.3H1162c-2.3,0-4.5-0.9-6.1-2.5s-2.5-3.8-2.5-6.1c0-4.7,3.9-8.6,8.6-8.6h64.9
				c0.4,0,0.7,0.3,0.7,0.7s-0.3,0.7-0.7,0.7H1162c-4,0-7.2,3.2-7.2,7.2c0,1.9,0.8,3.7,2.1,5.1c1.4,1.4,3.2,2.1,5.1,2.1h63.8
				c0.4,0,0.7,0.3,0.7,0.7C1226.4,655,1226.1,655.3,1225.7,655.3L1225.7,655.3z"/>
			<path class="st2" d="M1225.9,649.8h-68.2c-0.4,0-0.7-0.3-0.7-0.7s0.3-0.7,0.7-0.7h68.2c0.4,0,0.7,0.3,0.7,0.7
				S1226.3,649.8,1225.9,649.8z"/>
			<path class="st2" d="M1226.4,644.3h-68.7c-0.4,0-0.7-0.3-0.7-0.7s0.3-0.7,0.7-0.7h68.7c0.4,0,0.7,0.3,0.7,0.7
				S1226.8,644.3,1226.4,644.3z"/>
			<path class="st5" d="M1176.8,634.3h-70.5c-6.8,0-12.4-5.5-12.4-12.4l0,0c0-6.8,5.5-12.4,12.4-12.4h70.5"/>
			<path class="st2" d="M1176.8,635h-70.5c-7.2,0-13-5.9-13-13c0-7.2,5.9-13,13-13h70.5c0.4,0,0.7,0.3,0.7,0.7s-0.3,0.7-0.7,0.7
				h-70.5c-6.4,0-11.7,5.2-11.7,11.7c0,6.4,5.2,11.7,11.7,11.7h70.5c0.4,0,0.7,0.3,0.7,0.7C1177.5,634.7,1177.2,635,1176.8,635z"/>
			<path class="st1" d="M1164.4,622c0,6.8,5.5,12.4,12.4,12.4h65.9l4.5-4.5h-5.5l5.5-5.5h-5.3l5.5-5.5h-5l4.9-4.9h-4.3l4.5-4.5H1177
				c-3.4,0-6.5,1.4-8.8,3.6C1165.8,615.5,1164.4,618.6,1164.4,622L1164.4,622z"/>
			<path class="st2" d="M1242.6,635h-65.9c-7.2,0-13.1-5.8-13.1-13c0-3.5,1.4-6.8,3.8-9.2c2.5-2.5,5.7-3.8,9.2-3.8h70.5
				c0.3,0,0.5,0.2,0.6,0.4c0.1,0.3,0,0.5-0.2,0.7l-3.3,3.3h2.7c0.3,0,0.5,0.2,0.6,0.4c0.1,0.3,0,0.5-0.2,0.7l-3.7,3.7h3.3
				c0.3,0,0.5,0.2,0.6,0.4c0.1,0.3,0,0.5-0.2,0.7l-4.3,4.3h3.6c0.3,0,0.5,0.2,0.6,0.4c0.1,0.3,0,0.5-0.2,0.7l-4.3,4.3h3.8
				c0.3,0,0.5,0.2,0.6,0.4c0.1,0.3,0,0.5-0.2,0.7l-4.5,4.5C1242.9,634.9,1242.8,635,1242.6,635L1242.6,635z M1176.7,610.3
				c-3.1,0-6.1,1.2-8.3,3.4c-2.2,2.2-3.4,5.2-3.4,8.3c0,6.4,5.2,11.7,11.7,11.7h65.6l3.1-3.1h-3.8c-0.3,0-0.5-0.2-0.6-0.4
				c-0.1-0.3,0-0.5,0.2-0.7l4.3-4.3h-3.6c-0.3,0-0.5-0.2-0.6-0.4c-0.1-0.3,0-0.5,0.2-0.7l4.3-4.3h-3.3c-0.3,0-0.5-0.2-0.6-0.4
				c-0.1-0.3,0-0.5,0.2-0.7l3.7-3.7h-2.7c-0.3,0-0.5-0.2-0.6-0.4c-0.1-0.3,0-0.5,0.2-0.7l3.3-3.3L1176.7,610.3L1176.7,610.3z"/>
			<path class="st2" d="M1241.6,630.6h-63.8c-2.3,0-4.5-0.9-6.1-2.5s-2.5-3.8-2.5-6.1c0-4.7,3.9-8.6,8.6-8.6h64.9
				c0.4,0,0.7,0.3,0.7,0.7s-0.3,0.7-0.7,0.7h-64.9c-4,0-7.2,3.2-7.2,7.2c0,1.9,0.8,3.7,2.1,5.1c1.4,1.4,3.2,2.1,5.1,2.1h63.8
				c0.4,0,0.7,0.3,0.7,0.7C1242.3,630.3,1242,630.6,1241.6,630.6L1241.6,630.6z"/>
			<path class="st2" d="M1241.8,625.1h-68.2c-0.4,0-0.7-0.3-0.7-0.7s0.3-0.7,0.7-0.7h68.2c0.4,0,0.7,0.3,0.7,0.7
				S1242.2,625.1,1241.8,625.1z"/>
			<path class="st2" d="M1242.3,619.6h-68.7c-0.4,0-0.7-0.3-0.7-0.7s0.3-0.7,0.7-0.7h68.7c0.4,0,0.7,0.3,0.7,0.7
				C1242.9,619.3,1242.6,619.6,1242.3,619.6z"/>
			<path class="st5" d="M1161,609.6h-70.5c-6.8,0-12.4-5.5-12.4-12.4l0,0c0-6.8,5.5-12.4,12.4-12.4h70.5"/>
			<path class="st2" d="M1161,610.3h-70.5c-7.2,0-13-5.9-13-13s5.9-13,13-13h70.5c0.4,0,0.7,0.3,0.7,0.7s-0.3,0.7-0.7,0.7h-70.5
				c-6.4,0-11.7,5.2-11.7,11.7s5.2,11.7,11.7,11.7h70.5c0.4,0,0.7,0.3,0.7,0.7C1161.6,610,1161.3,610.3,1161,610.3z"/>
			<path class="st1" d="M1148.5,597.2c0,6.8,5.5,12.4,12.4,12.4h65.9l4.5-4.5h-5.5l5.5-5.5h-5.3l5.5-5.5h-5l4.9-4.9h-4.3l4.5-4.5
				h-70.5c-3.4,0-6.5,1.4-8.8,3.6C1149.9,590.7,1148.5,593.8,1148.5,597.2L1148.5,597.2z"/>
			<path class="st2" d="M1226.7,610.3h-65.9c-7.2,0-13.1-5.8-13.1-13c0-3.5,1.4-6.8,3.8-9.2c2.5-2.5,5.7-3.8,9.2-3.8h70.5
				c0.3,0,0.5,0.2,0.6,0.4c0.1,0.3,0,0.5-0.2,0.7l-3.3,3.3h2.7c0.3,0,0.5,0.2,0.6,0.4c0.1,0.3,0,0.5-0.2,0.7l-3.7,3.7h3.3
				c0.3,0,0.5,0.2,0.6,0.4c0.1,0.3,0,0.5-0.2,0.7l-4.3,4.3h3.6c0.3,0,0.5,0.2,0.6,0.4c0.1,0.3,0,0.5-0.2,0.7l-4.3,4.3h3.8
				c0.3,0,0.5,0.2,0.6,0.4c0.1,0.3,0,0.5-0.2,0.7l-4.5,4.5C1227.1,610.2,1226.9,610.3,1226.7,610.3L1226.7,610.3z M1160.8,585.5
				c-3.1,0-6.1,1.2-8.3,3.4c-2.2,2.2-3.4,5.2-3.4,8.3c0,6.4,5.2,11.7,11.7,11.7h65.6l3.1-3.1h-3.8c-0.3,0-0.5-0.2-0.6-0.4
				c-0.1-0.3,0-0.5,0.2-0.7l4.3-4.3h-3.6c-0.3,0-0.5-0.2-0.6-0.4c-0.1-0.3,0-0.5,0.2-0.7l4.3-4.3h-3.3c-0.3,0-0.5-0.2-0.6-0.4
				c-0.1-0.3,0-0.5,0.2-0.7l3.7-3.7h-2.7c-0.3,0-0.5-0.2-0.6-0.4c-0.1-0.3,0-0.5,0.2-0.7l3.3-3.3L1160.8,585.5L1160.8,585.5z"/>
			<path class="st2" d="M1225.7,605.8H1162c-2.3,0-4.5-0.9-6.1-2.5s-2.5-3.8-2.5-6.1c0-4.7,3.9-8.6,8.6-8.6h64.9
				c0.4,0,0.7,0.3,0.7,0.7s-0.3,0.7-0.7,0.7H1162c-4,0-7.2,3.2-7.2,7.2c0,1.9,0.8,3.7,2.1,5.1c1.4,1.4,3.2,2.1,5.1,2.1h63.8
				c0.4,0,0.7,0.3,0.7,0.7S1226.1,605.8,1225.7,605.8L1225.7,605.8z"/>
			<path class="st2" d="M1225.9,600.4h-68.2c-0.4,0-0.7-0.3-0.7-0.7s0.3-0.7,0.7-0.7h68.2c0.4,0,0.7,0.3,0.7,0.7
				S1226.3,600.4,1225.9,600.4z"/>
			<path class="st2" d="M1226.4,594.9h-68.7c-0.4,0-0.7-0.3-0.7-0.7s0.3-0.7,0.7-0.7h68.7c0.4,0,0.7,0.3,0.7,0.7
				S1226.8,594.9,1226.4,594.9z"/>
		</g>
		<g id="plant_00000145774428806702821050000017437081022591978909_">
			<path class="st5" d="M1158.5,543.1c1.8-47.8,9.8-78.5,22.9-77.5s-8.4,58.1-17.7,78.3L1158.5,543.1L1158.5,543.1z"/>
			<path class="st2" d="M1163.7,544.6L1163.7,544.6l-5.3-0.8c-0.3-0.1-0.6-0.4-0.6-0.7c1.5-40.5,7.4-67.3,16.5-75.5
				c2.2-2,4.6-2.9,7.1-2.7c1.5,0.1,2.7,0.9,3.5,2.2c6.3,10.7-12.9,60.2-20.6,77C1164.2,544.4,1163.9,544.6,1163.7,544.6
				L1163.7,544.6z M1159.2,542.5l4.1,0.6c9.7-21.3,25.9-66,20.4-75.3c-0.6-1-1.4-1.5-2.4-1.5c-2.1-0.2-4.2,0.6-6.1,2.3
				C1166.4,476.4,1160.7,502.7,1159.2,542.5L1159.2,542.5z"/>
			<path class="st1" d="M1155.3,542.7c-6.5-41.8-14.4-77.7-4.4-81.5s15.5,23.2,13.8,48.8s-3.3,32.7-3.3,32.7H1155.3L1155.3,542.7z"
				/>
			<path class="st2" d="M1155.3,543.4c-0.3,0-0.6-0.2-0.7-0.6c-1-6.6-2.1-13.1-3.1-19.4c-5.7-34.5-9.7-59.5-0.8-62.9
				c2-0.7,3.8-0.5,5.5,0.8c7.4,5.5,10.5,29.1,9.2,48.7c-1.7,25.4-3.3,32.5-3.3,32.8c-0.1,0.3-0.3,0.5-0.7,0.5L1155.3,543.4
				L1155.3,543.4L1155.3,543.4z M1152.8,461.5c-0.5,0-1.1,0.1-1.6,0.3c-7.9,3-3.4,30.1,1.7,61.4c1,6.1,2,12.4,3,18.8h4.9
				c0.4-2.1,1.7-10.5,3.2-32c1.5-21.9-2.3-42.8-8.6-47.5C1154.6,461.8,1153.7,461.5,1152.8,461.5L1152.8,461.5z"/>
			<path class="st5" d="M1150.2,542.7c-2.7-18.3-9.4-42-18.9-50.3c-9.4-8.4-11.4,13.6-4,26.3c7.4,12.7,17.2,24.1,17.2,24.1
				L1150.2,542.7L1150.2,542.7z"/>
			<path class="st2" d="M1144.5,543.4c-0.2,0-0.4-0.1-0.5-0.2c-0.1-0.1-10-11.6-17.3-24.2c-5.3-9.2-6.1-24.5-1.5-28.3
				c1.3-1,3.4-1.6,6.6,1.2c9.3,8.3,16.3,31.4,19.1,50.7c0,0.2,0,0.4-0.2,0.5c-0.1,0.2-0.3,0.2-0.5,0.2L1144.5,543.4L1144.5,543.4
				L1144.5,543.4z M1127.6,491.2c-0.5,0-1,0.2-1.5,0.5c-3.8,3.1-3.5,17.4,1.8,26.6c6.6,11.5,15.5,22,16.9,23.7h4.6
				c-2.9-18.9-9.6-41.2-18.5-49.1C1129.7,491.8,1128.5,491.2,1127.6,491.2L1127.6,491.2z"/>
			<path class="st1" d="M1158.7,584.9c-38.3,0.2-35.4-35.6-32.9-41c2.4-5.4,16.7-4.8,16.7-4.8l32-0.2c0,0,14.3-0.8,16.7,4.6
				C1193.6,548.9,1196.9,584.7,1158.7,584.9z"/>
			<path class="st2" d="M1158.3,585.5c-13.6,0-23.4-4.5-29.2-13.3c-7-10.7-5.7-24.9-4.1-28.7c2.6-5.8,16.7-5.2,17.3-5.2l32-0.2
				c0.6,0,14.7-0.8,17.4,5c1.7,3.8,3.2,17.9-3.7,28.7c-5.7,8.9-15.6,13.5-29.4,13.6C1158.6,585.5,1158.5,585.5,1158.3,585.5
				L1158.3,585.5z M1158.7,584.2v0.7V584.2c13.3-0.1,22.8-4.4,28.2-13c6.5-10.2,5.2-23.9,3.7-27.4c-1.9-4.1-12.2-4.4-16.1-4.2
				l-32.1,0.2c-3.9-0.2-14.2,0.3-16.1,4.4c-1.6,3.5-2.7,17.2,3.9,27.4c5.5,8.4,14.9,12.7,28,12.7
				C1158.5,584.2,1158.6,584.2,1158.7,584.2L1158.7,584.2z"/>
			<line class="st4" x1="1192.5" y1="550.5" x2="1130.4" y2="550.8"/>
			<path class="st2" d="M1130.4,551.5c-0.4,0-0.7-0.3-0.7-0.7s0.3-0.7,0.7-0.7l62-0.3l0,0c0.4,0,0.7,0.3,0.7,0.7s-0.3,0.7-0.7,0.7
				L1130.4,551.5L1130.4,551.5z"/>
		</g>
	</g>
</g>
</svg>
