<?xml version="1.0" encoding="utf-8"?>
<!-- Generator: Adobe Illustrator 27.2.0, SVG Export Plug-In . SVG Version: 6.00 Build 0)  -->
<svg version="1.1" id="Capa_1" xmlns="http://www.w3.org/2000/svg" xmlns:xlink="http://www.w3.org/1999/xlink" x="0px" y="0px"
	 viewBox="0 0 600 500" style="enable-background:new 0 0 600 500;" xml:space="preserve">
<style type="text/css">
	.st0{fill:#FFFDF8;}
	.st1{fill:#F75454;}
	.st2{fill:#732A09;}
	.st3{fill:#FFFFFF;}
	.st4{clip-path:url(#SVGID_00000122686948677137020010000012829124291096668840_);}
	.st5{clip-path:url(#SVGID_00000080201944680251885670000006963825906026754477_);}
</style>
<rect class="st0" width="600" height="500"/>
<g>
	<g id="hand-phone_00000116953336046927113810000011453180203261359274_">
		<path class="st1" d="M252.5,79.5h100.8c6.2,0,11.3,5.1,11.3,11.3v188.1c0,6.2-5.1,11.3-11.3,11.3H252.5c-6.2,0-11.3-5.1-11.3-11.3
			V90.8C241.3,84.5,246.3,79.5,252.5,79.5z"/>
		<path class="st2" d="M353.3,290.6H252.5c-6.5,0-11.8-5.3-11.8-11.8v-188c0-6.5,5.3-11.8,11.8-11.8h100.8c6.5,0,11.8,5.3,11.8,11.8
			v188.1C365.1,285.4,359.8,290.6,353.3,290.6z M252.5,80.1c-5.9,0-10.7,4.7-10.7,10.7v188.1c0,5.9,4.7,10.7,10.7,10.7h100.8
			c5.9,0,10.7-4.7,10.7-10.7V90.8c0-5.9-4.7-10.7-10.7-10.7H252.5z"/>
		<path class="st3" d="M255.9,95.5H350c2.8,0,5.1,2.3,5.1,5.1V269c0,2.8-2.3,5.1-5.1,5.1h-94.1c-2.8,0-5.1-2.3-5.1-5.1V100.5
			C250.8,97.8,253.1,95.5,255.9,95.5z"/>
		<path class="st2" d="M350,274.7h-94.1c-3.2,0-5.6-2.5-5.6-5.6V100.5c0-3.2,2.5-5.6,5.6-5.6H350c3.2,0,5.6,2.5,5.6,5.6v168.4
			C355.6,272.1,353,274.7,350,274.7z M255.8,96.1c-2.5,0-4.5,2-4.5,4.5V269c0,2.5,2,4.5,4.5,4.5h94.1c2.5,0,4.5-2,4.5-4.5V100.5
			c0-2.5-2-4.5-4.5-4.5L255.8,96.1z"/>
		<circle class="st1" cx="297.3" cy="87.7" r="2.1"/>
		<path class="st2" d="M297.3,90.4c-1.5,0-2.7-1.2-2.7-2.7c0-1.5,1.2-2.7,2.7-2.7c1.5,0,2.7,1.2,2.7,2.7l0,0
			C300.1,89.2,298.9,90.4,297.3,90.4z M297.3,86.2c-0.9,0-1.6,0.7-1.6,1.6s0.7,1.6,1.6,1.6c0.9,0,1.6-0.7,1.6-1.6l0,0
			C299,86.8,298.2,86.2,297.3,86.2z"/>
		<path class="st1" d="M305.1,85.6H319c1.2,0,2.1,1,2.1,2.1l0,0l0,0c0,1.2-1,2.1-2.1,2.1l0,0h-13.9c-1.2,0-2.1-1-2.1-2.1l0,0
			C302.9,86.5,303.8,85.6,305.1,85.6z"/>
		<path class="st2" d="M319,90.4h-13.9c-1.5,0-2.7-1.2-2.7-2.7c0-1.5,1.2-2.7,2.7-2.7H319c1.5,0,2.7,1.2,2.7,2.7
			C321.7,89.2,320.5,90.4,319,90.4z M305.1,86.2c-0.9,0-1.6,0.7-1.6,1.6s0.7,1.6,1.6,1.6H319c0.9,0,1.6-0.7,1.6-1.6
			s-0.7-1.6-1.6-1.6l0,0H305.1z"/>
		<rect x="253.4" y="233.8" class="st3" width="94.4" height="26.6"/>
		<path class="st2" d="M347.8,260.9h-94.4c-0.3,0-0.6-0.2-0.6-0.6v-26.6c0-0.3,0.2-0.6,0.6-0.6h94.4c0.3,0,0.6,0.2,0.6,0.6v26.6
			C348.4,260.7,348.2,260.9,347.8,260.9z M254,259.8h93.3v-25.5H254V259.8z"/>
		<path class="st1" d="M405.9,345.9c9.5,0.3,15.5,4.6,23.7,23.2s22.9,54.9,22.9,54.9S351.9,448.2,351.2,447
			c-0.7-1.2-7.3-77.5-7.3-77.5s-1.5-8.9,7.3-12.4C360,353.5,384.4,344.9,405.9,345.9z"/>
		<path class="st3" d="M405.9,345.9c0,0-32.4,0.7-54.7,11.2l-8.8-44c0,0-11.1-13.2-15.1-23.1h28.1c2,0,3.9-0.7,5.4-2
			c-19-26.1-27.8-58.6-22.1-61.6c4.9-2.6,15.6,4.6,25.3,14.4v-43.4c11.5,10,31.1,51.1,31.1,64.6c0,14.6-5.3,28.2-2.4,43.5
			C395.7,320.8,405.9,345.9,405.9,345.9z"/>
		<path class="st2" d="M351.2,357.6c-0.1,0-0.2,0-0.2,0c-0.1-0.1-0.2-0.2-0.3-0.5l-8.7-43.9c-1.1-1.4-11.3-13.8-15.1-23.2
			c-0.1-0.2,0-0.3,0-0.6c0.1-0.1,0.2-0.2,0.5-0.2h28.1c1.7,0,3.3-0.6,4.6-1.6c-7.7-10.7-13.9-22.3-18.5-34.7
			c-4.1-10.8-5.9-20.1-4.9-24.6c0.1-1.1,0.8-2.1,1.7-2.7c5.4-2.9,16.2,5,24.9,13.5v-42c0-0.3,0.2-0.6,0.6-0.6c0.1,0,0.2,0,0.3,0.1
			c11.4,9.9,31.4,51.3,31.4,65.1c-0.1,5.6-0.7,11.3-1.7,16.9c-1.2,8.5-2.6,17.3-0.8,26.5c2.8,15.1,13,40.1,13.1,40.3
			c0.1,0.1,0.1,0.3,0,0.6c-0.1,0.1-0.2,0.2-0.5,0.2c-0.3,0-32.5,0.9-54.5,11.2C351.4,357.6,351.3,357.6,351.2,357.6z M328.2,290.5
			c4.2,9.6,14.6,22.1,14.7,22.2c0.1,0.1,0.1,0.1,0.1,0.2l8.6,43.3c20.2-9.1,48.4-10.7,53.5-10.9c-1.7-4.3-10.3-26.1-12.9-39.7
			c-1.8-9.4-0.5-18.3,0.8-26.9c0.9-5.5,1.5-11.2,1.7-16.8c0-13.2-18.6-52.2-30-63.4v42.1c0,0.3-0.2,0.6-0.6,0.6
			c-0.1,0-0.3-0.1-0.5-0.2c-10.6-10.8-20.4-16.6-24.6-14.3c-0.7,0.5-1,1.2-1.1,2c-1.8,8.1,6.7,35.7,23.5,58.8
			c0.2,0.2,0.1,0.6-0.1,0.8c-1.6,1.4-3.7,2.1-5.8,2.1h-27.3V290.5z"/>
		<path class="st2" d="M376.3,253.6c-0.1,0-0.3-0.1-0.5-0.2c-6.4-7-12.1-12.2-12.2-12.3c-0.2-0.2-0.2-0.6,0-0.8
			c0.2-0.2,0.6-0.2,0.8,0l0,0c0,0,5.8,5.3,12.3,12.3c0.2,0.2,0.2,0.6,0,0.8C376.6,253.6,376.4,253.6,376.3,253.6z"/>
		<path class="st2" d="M365.5,295.1c-0.2,0-0.3-0.1-0.5-0.2l-4.5-6.7c-0.1-0.2,0-0.6,0.2-0.8c0.2-0.1,0.6-0.1,0.7,0.1l4.5,6.7
			c0.2,0.2,0.1,0.6-0.1,0.8l0,0C365.8,295.1,365.7,295.1,365.5,295.1z"/>
		<path class="st1" d="M199,345.9c-9.5,0.3-15.5,4.6-23.7,23.2s-22.9,54.9-22.9,54.9s100.8,24.1,101.3,22.9
			c0.6-1.2,7.3-77.5,7.3-77.5s1.5-8.9-7.3-12.4C244.9,353.5,220.6,344.9,199,345.9z"/>
		<path class="st3" d="M199,345.9c0,0,32.4,0.7,54.7,11.2l8.8-44c0,0,11.1-13.2,15.1-23.1h-28.1c-2,0-3.9-0.7-5.4-2
			c19-26.1,27.9-58.6,22.1-61.6c-4.9-2.6-15.6,4.6-25.3,14.4v-43.4c-11.5,10-31.1,51.1-31.1,64.6c0,14.6,5.3,28.2,2.4,43.5
			C209.3,320.8,199,345.9,199,345.9z"/>
		<path class="st2" d="M253.7,357.6c-0.1,0-0.1,0-0.2,0c-22-10.3-54.2-11.2-54.5-11.2c-0.2,0-0.3-0.1-0.5-0.2
			c-0.1-0.1-0.1-0.3,0-0.6c0.1-0.2,10.2-25.2,13.1-40.3c1.8-9.3,0.5-17.9-0.8-26.5c-1-5.6-1.5-11.3-1.7-16.9
			c0-13.8,20-55.2,31.4-65.1c0.2-0.2,0.6-0.1,0.8,0.1c0.1,0.1,0.1,0.2,0.1,0.3v42.1c8.7-8.7,19.5-16.5,24.9-13.5
			c0.9,0.7,1.6,1.6,1.7,2.7c1,4.5-0.8,13.7-4.9,24.6c-4.6,12.3-10.8,24-18.5,34.7c1.4,1,2.9,1.6,4.6,1.6h28.1c0.2,0,0.3,0.1,0.5,0.2
			c0.1,0.1,0.1,0.3,0,0.6c-3.8,9.4-14,21.9-15.1,23.2l-8.7,43.9c0,0.1-0.1,0.3-0.3,0.5C253.9,357.6,253.7,357.6,253.7,357.6z
			 M199.8,345.3c5.1,0.2,33.3,1.7,53.5,10.9l8.6-43.3c0-0.1,0.1-0.2,0.1-0.2c0.1-0.1,10.5-12.6,14.7-22.2h-27.3
			c-2.1,0-4.2-0.8-5.8-2.1c-0.2-0.2-0.2-0.6-0.1-0.8c16.9-23.2,25.3-50.8,23.5-58.8c-0.1-0.8-0.5-1.6-1.1-2
			c-4.2-2.3-14,3.5-24.6,14.3c-0.2,0.2-0.6,0.2-0.8,0c-0.1-0.1-0.2-0.2-0.2-0.5v-42.2c-11.4,11.2-30,50.1-30,63.4
			c0.1,5.6,0.7,11.3,1.6,16.8c1.2,8.6,2.6,17.5,0.8,26.9C210.1,319.2,201.5,341,199.8,345.3L199.8,345.3z"/>
		<path class="st2" d="M228.7,253.6c-0.1,0-0.2,0-0.3-0.1c-0.2-0.2-0.2-0.6,0-0.8c6.5-7,12.2-12.3,12.3-12.3c0.2-0.2,0.6-0.2,0.8,0
			l0,0c0.2,0.2,0.2,0.6,0,0.8c-0.1,0-5.8,5.3-12.2,12.3C229,253.5,228.8,253.6,228.7,253.6z"/>
		<path class="st2" d="M239.4,295.1c-0.1,0-0.2,0-0.3-0.1c-0.2-0.1-0.3-0.6-0.1-0.8l0,0l4.5-6.7c0.2-0.2,0.6-0.2,0.8,0
			c0.2,0.2,0.2,0.5,0.1,0.7l-4.5,6.7C239.8,295,239.6,295.1,239.4,295.1z"/>
		<rect x="288.5" y="110.8" class="st1" width="57.2" height="14.2"/>
		<rect x="263.7" y="159.8" class="st1" width="48.3" height="14.2"/>
		<rect x="263.7" y="181.4" class="st1" width="70.4" height="27.5"/>
		<rect x="263.7" y="130.8" class="st1" width="81.9" height="20.9"/>
	</g>
	<g id="character-2_00000127747213306846801940000006361469074860111794_">
		<path class="st3" d="M340.5,151.6h135.2c2.5,0,4.4-1.9,4.4-4.4l0,0V58c0-2.5-1.9-4.4-4.4-4.4H353.3c-2.5,0-4.4,2-4.4,4.4l0,0l0,0
			v68.9c0,2.5-0.9,5-2.5,6.9l-9.1,11.2c-1.5,1.7-1.2,4.3,0.5,5.8C338.5,151.4,339.5,151.7,340.5,151.6L340.5,151.6z"/>
		<path class="st2" d="M340.4,152.2c-2.6,0-4.6-2.1-4.6-4.7c0-1,0.3-2.1,1-2.9l9.1-11.2c1.5-1.8,2.4-4.2,2.4-6.5V58c0-2.7,2.3-5,5-5
			h122.4c2.7,0,5,2.3,5,5v89.2c0,2.7-2.3,5-5,5l0,0H340.4L340.4,152.2z M353.3,54.1c-2.1,0-3.8,1.7-3.8,3.8l0,0v68.9
			c0,2.6-0.9,5.2-2.6,7.2l-9.1,11.2c-1.2,1.5-1,3.7,0.5,5c0.7,0.6,1.5,0.8,2.3,0.8h135.3c2.1,0,3.8-1.7,3.8-3.8V58
			c0-2.1-1.7-3.8-3.8-3.8l0,0H353.3z"/>
		<g id="character_1_00000131330484575870379310000008773384799384533390_">
			<g>
				<g>
					<defs>
						<circle id="SVGID_1_" cx="387" cy="91.3" r="29.7"/>
					</defs>
					<clipPath id="SVGID_00000132796887419216227120000008738860281193430438_">
						<use xlink:href="#SVGID_1_"  style="overflow:visible;"/>
					</clipPath>
					<g style="clip-path:url(#SVGID_00000132796887419216227120000008738860281193430438_);">
						<path class="st1" d="M409.3,209.8l1.1,14.1c0.1,1,0.9,1.7,1.9,1.7l26.1-1.9c1-0.1,1.7-0.9,1.7-1.9l0,0c0-0.1,0-0.2,0-0.2
							L440,221c0,0-2.4-12.2-15.5-12C419.6,210.4,414.4,210.6,409.3,209.8z"/>
						<path class="st2" d="M410.8,223.4c-0.3,0-0.6-0.2-0.6-0.6c0-0.3,0.2-0.6,0.6-0.6l28.9-2.1c0.3,0,0.6,0.2,0.6,0.6
							s-0.2,0.6-0.6,0.6L410.8,223.4L410.8,223.4z"/>
						<path class="st2" d="M417.7,222.8c-0.2,0-0.6-0.2-0.6-0.5c-0.6-3.4-3.7-5.9-7.2-5.5c-0.3,0-0.6-0.2-0.6-0.6l0,0
							c0-0.3,0.2-0.6,0.6-0.6l0,0c4.1-0.3,7.7,2.5,8.5,6.5C418.4,222.4,418.1,222.7,417.7,222.8L417.7,222.8z"/>
						<path class="st2" d="M427.6,214.6c-0.1,0-0.3-0.1-0.5-0.1c-0.2-0.2-0.2-0.6,0-0.8l0,0l5.6-5.6c0.2-0.2,0.6-0.2,0.8,0
							c0.2,0.2,0.2,0.6,0,0.8l0,0l-5.6,5.6C427.9,214.4,427.7,214.6,427.6,214.6z"/>
						<path class="st2" d="M424.6,213.6c-0.1,0-0.3-0.1-0.5-0.1c-0.2-0.2-0.2-0.6,0-0.8l0,0l5.6-5.6c0.2-0.2,0.6-0.2,0.8,0
							c0.2,0.2,0.2,0.6,0,0.8l-5.6,5.6C424.9,213.5,424.7,213.6,424.6,213.6z"/>
						<path class="st1" d="M365.1,226.7l1.5,14.1c0.1,1-0.6,1.9-1.6,2l0,0l-25.9,2.9c-1,0.1-1.9-0.6-2-1.6l0,0c0-0.1,0-0.2,0-0.2
							v-0.6c0,0,0.1-12.4,13-14.6C355.1,229.1,360.2,228.5,365.1,226.7z"/>
						<path class="st2" d="M337.3,243.4c-0.3,0-0.6-0.2-0.6-0.6s0.2-0.6,0.6-0.6l28.8-3.2c0.3,0,0.6,0.2,0.7,0.5l0,0
							c0,0.3-0.2,0.6-0.5,0.7L337.3,243.4L337.3,243.4z"/>
						<path class="st2" d="M359.2,241.1c-0.3,0-0.6-0.2-0.6-0.6c0-4.1,3-7.4,7.1-7.9c0.3,0,0.6,0.2,0.6,0.5c0,0.3-0.2,0.6-0.5,0.6
							l0,0c-3.5,0.3-6.1,3.3-6.1,6.8C359.8,240.8,359.5,241.1,359.2,241.1L359.2,241.1z"/>
						<path class="st2" d="M347.9,234.7c-0.1,0-0.2,0-0.3-0.1l-6.5-4.5c-0.2-0.2-0.3-0.6-0.1-0.8c0.2-0.2,0.6-0.3,0.8-0.1l6.5,4.5
							c0.2,0.2,0.3,0.6,0.1,0.8C348.3,234.6,348.2,234.7,347.9,234.7z"/>
						<path class="st2" d="M350.8,233.3c-0.1,0-0.2,0-0.3-0.1l-6.5-4.5c-0.2-0.2-0.3-0.6-0.1-0.8c0.2-0.2,0.6-0.3,0.8-0.1l0,0
							l6.5,4.5c0.2,0.2,0.3,0.6,0.1,0.8C351.1,233.2,351,233.3,350.8,233.3z"/>
						<path class="st2" d="M358.7,226.1c-3,0-6.1-0.5-9-1.4c-2-0.7-3.2-2.8-2.5-4.9l21.4-65.7c0.1-0.3,0.5-0.5,0.7-0.3
							c0.3,0.1,0.5,0.5,0.5,0.7l-21.4,65.5c-0.5,1.5,0.2,2.9,1.7,3.4h0.1c3.8,1.2,8,1.6,12.1,1.1l1.2-0.1c1-0.1,1.9-0.7,2.3-1.7
							l27.3-64.3c0.1-0.1,0.2-0.2,0.3-0.3c0.1,0,0.3,0,0.5,0.1l15,10c2.4,1.6,3.7,4.4,3.4,7.3l-2.7,25.2c-0.1,1.1,0.5,2.3,1.6,2.7
							c4.7,2.1,10,2,14.7-0.2l0.2-0.1c0.8-0.3,1.4-1.1,1.5-2l3.8-30.9c0.6-4.6-1.5-9.3-5.3-11.8l-14-9.7c-0.2-0.2-0.2-0.6,0-0.8
							c0.2-0.2,0.5-0.2,0.7-0.1l14,9.7c4.2,2.9,6.4,7.9,5.9,13l-3.8,30.9c-0.1,1.2-0.9,2.4-2.1,2.9l-0.2,0.1
							c-4.9,2.4-10.6,2.5-15.6,0.3c-1.6-0.7-2.5-2.3-2.3-3.9l2.7-25c0.3-2.5-0.8-4.9-2.9-6.2l-14.7-9.7l-27.1,63.6
							c-0.6,1.2-1.8,2.1-3.2,2.4l-1.2,0.1C360.9,225.9,359.8,226.1,358.7,226.1z"/>
						<path class="st3" d="M447.5,123.4c4.4,0.5,5.5-0.2,7.2-1.1c1.7-0.9,2.4-2.5,3-2.3l-5.3,17c-1.8-0.6-3.3-1.6-4.5-3
							c-1.2-1.5-2.7-2.5-4.5-3L447.5,123.4z"/>
						<path class="st2" d="M452.5,137.6h-0.1c-1.9-0.6-3.5-1.7-4.7-3.2c-1.1-1.4-2.6-2.4-4.3-2.9c-0.1,0-0.3-0.2-0.3-0.3
							c-0.1-0.1-0.1-0.3,0-0.5l4.1-7.7c0.1-0.2,0.3-0.3,0.6-0.3c4.3,0.5,5.3-0.2,6.9-1c0.7-0.3,1.2-0.8,1.7-1.4
							c0.6-0.6,1-1.1,1.7-0.9c0.1,0,0.3,0.1,0.3,0.2c0.1,0.1,0.1,0.3,0,0.5l-5.3,17c0,0.1-0.1,0.2-0.2,0.3
							C452.6,137.6,452.5,137.6,452.5,137.6z M444.3,130.7c1.6,0.7,3,1.7,4.2,3c1,1.1,2.3,2.1,3.7,2.7l4.6-15
							c-0.6,0.6-1.1,1-1.7,1.4c-1.8,1-3,1.6-7.2,1.2L444.3,130.7z"/>
						<path class="st3" d="M457.2,133.5c0.9,0.8,1.1,2.3,0.3,3.2c-0.5,0.6-1.1,0.9-1.9,0.8c-2.1-0.2-4.9-0.7-4.9-1.7
							c0-1,1.2-1.1,2.5-1c1.2,0.1,2.4,0.1,3.6,0C456.9,134.6,457.2,133.5,457.2,133.5z"/>
						<path class="st2" d="M455.7,138.1h-0.2c-2.8-0.3-5.3-0.8-5.4-2.3c0-0.5,0.1-0.8,0.5-1.1c0.8-0.6,1.8-0.7,2.7-0.6
							c1.1,0.1,2.1,0.1,3.3,0c0.1-0.2,0.1-0.6,0.2-0.8c0-0.2,0.1-0.3,0.3-0.5c0.2-0.1,0.5,0,0.6,0.1c1.2,1,1.4,2.8,0.3,3.9
							C457.3,137.7,456.5,138.1,455.7,138.1z M452.4,135.2c-0.7,0-1,0.1-1.1,0.2c-0.1,0.1-0.1,0.1-0.1,0.2s0.3,0.7,4.4,1.2
							c0.9,0,1.8-0.7,1.8-1.7c0-0.1,0-0.3,0-0.5c-0.1,0.1-0.1,0.2-0.2,0.3c-0.1,0.1-0.2,0.1-0.2,0.1c-1.2,0.1-2.5,0.1-3.7,0
							L452.4,135.2z M456.7,134.8L456.7,134.8z"/>
						<path class="st3" d="M458.5,130.4c1.1,1,1.4,2.7,0.3,3.9c-0.6,0.7-1.5,1-2.3,1c-2.5-0.3-5.9-0.8-6-2.1s1.5-1.4,3-1.2
							c1.5,0.2,2.9,0.2,4.4,0C458.4,131.7,458.5,130.4,458.5,130.4z"/>
						<path class="st2" d="M456.7,135.9h-0.2c-3.8-0.5-6.3-1.1-6.4-2.6c-0.1-0.5,0.1-0.9,0.5-1.2c0.6-0.7,1.7-0.7,3.2-0.7
							c1.4,0.1,2.7,0.1,4.1,0c0.1-0.3,0.2-0.7,0.2-1c0-0.2,0.1-0.3,0.3-0.5c0.2-0.1,0.5,0,0.6,0.1c0.7,0.6,1,1.4,1.1,2.3
							c0.1,1.8-1.2,3.4-3,3.6C456.9,135.8,456.8,135.8,456.7,135.9L456.7,135.9z M452.9,132.5c-0.6-0.1-1,0-1.6,0.3
							c-0.1,0.1-0.1,0.2-0.1,0.3c0,0.3,0.8,1,5.4,1.6c0.7,0,1.4-0.2,1.8-0.8c0.3-0.5,0.6-1,0.6-1.6c0-0.2-0.1-0.5-0.1-0.6
							c-0.1,0.2-0.2,0.5-0.5,0.7c-0.1,0-0.1,0.1-0.2,0.1c-1.5,0.2-3,0.2-4.5,0C453.4,132.5,453.1,132.4,452.9,132.5L452.9,132.5z
							 M458.1,132L458.1,132z"/>
						<path class="st3" d="M459.1,127.9c1.1,1,1.4,2.7,0.3,3.9c-0.6,0.7-1.4,1-2.3,1c-2.6-0.3-5.9-0.8-6-2.1c-0.1-1.4,1.5-1.4,3-1.2
							c1.5,0.2,2.9,0.2,4.4,0C458.9,129.1,459.1,127.9,459.1,127.9z"/>
						<path class="st2" d="M457.3,133.3H457c-3.9-0.5-6.4-1.1-6.4-2.7c0-0.5,0.1-0.9,0.5-1.2c0.7-0.7,1.9-0.7,3.2-0.7
							c1.4,0.1,2.7,0.1,4.1,0c0.1-0.3,0.2-0.7,0.2-1c0-0.2,0.1-0.3,0.3-0.5c0.2-0.1,0.5,0,0.6,0.1c1.4,1.1,1.6,3.3,0.5,4.6
							C459.2,132.9,458.3,133.3,457.3,133.3L457.3,133.3z M453.3,129.9c-0.6-0.1-1.1,0-1.6,0.3c-0.1,0.1-0.1,0.2-0.1,0.3
							c0,0.3,0.8,1,5.4,1.6c0.7,0,1.4-0.2,1.8-0.8c0.6-0.7,0.7-1.5,0.3-2.3c-0.1,0.2-0.2,0.5-0.5,0.7c-0.1,0-0.1,0.1-0.2,0.1
							c-1.5,0.2-3,0.2-4.5,0L453.3,129.9z M458.5,129.5L458.5,129.5z"/>
						<path class="st3" d="M459.4,125.4c1.1,1,1.2,2.7,0.3,3.9c-0.6,0.7-1.4,1-2.3,0.9c-2.6-0.3-5.9-0.8-6-2.1
							c-0.1-1.4,1.5-1.4,3-1.2c1.5,0.2,2.9,0.2,4.4,0C459.3,126.7,459.4,125.4,459.4,125.4z"/>
						<path class="st2" d="M457.6,130.8h-0.2c-3.8-0.5-6.4-1.1-6.4-2.6c0-0.5,0.1-0.9,0.5-1.2c0.7-0.7,1.9-0.7,3.2-0.7
							c1.4,0.1,2.7,0.1,4.1,0c0.1-0.3,0.2-0.7,0.2-1c0-0.2,0.1-0.3,0.3-0.5c0.2-0.1,0.5,0,0.6,0.1c0.7,0.6,1,1.4,1.1,2.3
							c0.1,0.9-0.2,1.8-0.8,2.4C459.5,130.4,458.6,130.8,457.6,130.8z M453.8,127.5c-0.6,0-1,0-1.6,0.3c-0.1,0.1-0.1,0.2-0.1,0.3
							c0,0.2,0.6,1,5.4,1.6c0.7,0,1.4-0.2,1.7-0.8c0.3-0.5,0.6-1,0.6-1.6c0-0.2,0-0.5-0.1-0.7c-0.1,0.2-0.2,0.5-0.5,0.7
							c-0.1,0-0.1,0.1-0.2,0.1c-1.5,0.2-3,0.2-4.5,0L453.8,127.5z M459,126.9L459,126.9z"/>
						<path class="st1" d="M443.4,130.9c-0.1,0.2-0.2,0.3-0.5,0.6c-2.3,2.4-8.7-1.2-15.5-4.6c-7.2-3.6-18.1-8-18.1-8l3.5,26.4
							c0,0-4.7,3.6-20.6,5.2s-24.3,0.7-24.3,0.7l-1.5-14.7c0,0-15.2,15.1-24,17.6c0,0-4.1-4.2-5.1-8c-1-3.8,0-4.3,0-4.3
							s15.3-8.8,17.9-12.7c2.6-3.9,6.7-30.7,33.2-30.5c26.5,0.2,58.6,22.2,58.6,22.2s1.1,0.2,0.5,2.5
							C446.9,125.5,443.4,130.9,443.4,130.9z"/>
						<path class="st3" d="M338.6,143.4c-2.5,0.3-5.8-1.1-9.1-2.8s-4.5,0.5-2.7,2.4c1.8,1.9,3.2,2.5,3,3.7c0,0.6-0.1,1.1-0.3,1.6
							l12.2,0.2C341.6,148.5,341.3,144.6,338.6,143.4z"/>
						<path class="st2" d="M341.6,149.1L341.6,149.1l-12.2-0.2c-0.2,0-0.3-0.1-0.5-0.2c-0.1-0.2-0.1-0.3,0-0.6
							c0.2-0.5,0.3-0.9,0.3-1.4c0-0.7-0.3-1-1.4-1.9c-0.5-0.5-0.9-0.9-1.5-1.4c-1-1.1-1.4-2.4-0.7-3.2c0.2-0.3,1.4-1.5,4.1-0.1
							c3.4,1.7,6.4,3,8.8,2.7c0.1,0,0.2,0,0.3,0c3,1.4,3.4,5.5,3.4,5.6c0,0.1,0,0.3-0.1,0.5C342,149,341.9,149.1,341.6,149.1z
							 M330.2,147.8L341,148c-0.2-1.7-1.1-3.2-2.5-4.1c-2.6,0.2-5.8-1.1-9.3-2.9c-1.5-0.7-2.4-0.7-2.6-0.2s-0.1,1,0.6,1.8
							c0.6,0.6,1,1,1.5,1.4c1.1,1,1.8,1.7,1.7,2.8C330.3,147.1,330.3,147.4,330.2,147.8z"/>
						<path class="st1" d="M321.3,150.7c2.5-1.6,5.3-2.4,8.2-2.4l0.2,2.8c0,0-4.5-0.3-7.6,1.8L321.3,150.7z"/>
						<path class="st2" d="M322.2,153.5h-0.1c-0.1,0-0.3-0.1-0.3-0.3l-0.9-2.3c-0.1-0.2,0-0.6,0.2-0.7c2.6-1.7,5.5-2.5,8.6-2.5
							c0.3,0,0.6,0.2,0.6,0.5l0.2,2.8c0,0.1,0,0.3-0.1,0.5c-0.1,0.1-0.3,0.2-0.5,0.1c0,0-4.4-0.3-7.1,1.8
							C322.5,153.4,322.3,153.5,322.2,153.5z M322,150.9l0.5,1.2c2-1.1,4.3-1.7,6.7-1.6L329,149C326.5,148.9,324.1,149.6,322,150.9z
							"/>
						<path class="st1" d="M340.2,149.7c7.8,2.1,34.1,13.4,39.8,15.8c0.7,0.2,0.9,0.9,0.7,1.6l0,0c-0.2,0.7-0.9,1.1-1.6,0.9l0,0
							l-0.2-0.1c-5.6-2.7-27.6-12.9-41.7-16.4L340.2,149.7z"/>
						<path class="st2" d="M379.5,168.6c-0.2,0-0.3,0-0.6-0.1l-0.3-0.1c-2.7-1.2-26.6-12.6-41.6-16.2c-0.2,0-0.3-0.2-0.5-0.5
							c0-0.2,0.1-0.5,0.2-0.6l3-1.8c0.1-0.1,0.3-0.1,0.5,0c7.2,2,29.7,11.5,38.1,15.1l1.8,0.8c1,0.5,1.4,1.6,1,2.5
							C380.9,168.2,380.2,168.6,379.5,168.6L379.5,168.6z M338.6,151.4c15.1,3.9,37.9,14.8,40.6,16h0.1c0.3,0.1,0.8-0.1,0.9-0.5l0,0
							c0.1-0.3,0-0.8-0.5-0.9l-1.8-0.8c-7.6-3.2-30.3-12.9-37.7-14.9L338.6,151.4z"/>
						<path class="st3" d="M334.3,146.6c1.9,0.1,1.6,2.5,0.8,5.2s-1.9,4.7-3,4.3C330.9,155.7,333.1,146.5,334.3,146.6z"/>
						<path class="st2" d="M332.4,156.8c-0.2,0-0.5,0-0.6-0.1c-1.4-0.6-0.2-5.1,0.1-6.5c1.1-4.2,2-4.1,2.4-4.1
							c0.6,0,1.1,0.3,1.5,0.8c0.7,1,0.5,2.7-0.2,5.2c-0.5,1.5-1.2,3.9-2.6,4.6C332.8,156.8,332.6,156.8,332.4,156.8z M332.4,155.7
							c0.1,0,0.1,0,0.2,0c0.6-0.2,1.4-1.6,2-3.9c0.3-1.1,0.9-3.4,0.3-4.2c-0.1-0.2-0.3-0.3-0.6-0.3
							C333.4,147.9,331.9,154.5,332.4,155.7L332.4,155.7z"/>
						<path class="st3" d="M337.3,146.6c1.9,0.1,1.5,2.5,0.8,5.2s-1.8,4.9-3,4.3C333.8,155.5,336.1,146.5,337.3,146.6z"/>
						<path class="st2" d="M335.4,156.8c-0.2,0-0.5,0-0.6-0.1c-1.2-0.6-0.6-4.1,0-6.1c1.2-4.6,2.3-4.6,2.6-4.5
							c0.6,0,1.1,0.3,1.5,0.8c0.7,1,0.5,2.7-0.2,5.2c-0.5,1.8-1.4,4.1-2.6,4.6C335.9,156.8,335.7,156.8,335.4,156.8z M335.3,155.7
							c0.1,0,0.1,0,0.2,0c0.6-0.2,1.2-1.4,2-3.9c0.3-1.1,0.9-3.4,0.3-4.2c-0.1-0.2-0.3-0.3-0.6-0.2c-0.8,1.4-1.4,2.9-1.7,4.5
							C335.3,153.1,335.3,154.3,335.3,155.7L335.3,155.7z"/>
						<path class="st3" d="M340.6,147.5c1.7,0.1,1.4,2.1,0.7,4.5s-1.6,4.2-2.6,3.7C337.7,155.3,339.6,147.5,340.6,147.5z"/>
						<path class="st2" d="M339,156.4c-0.2,0-0.3,0-0.6-0.1c-0.8-0.3-0.9-2-0.1-5c0.8-2.9,1.5-4.4,2.4-4.4l0,0c0.6,0,1,0.2,1.4,0.7
							c0.7,0.9,0.5,2.4-0.1,4.5c-0.5,1.6-1.1,3.5-2.3,4.1C339.4,156.3,339.1,156.4,339,156.4z M339,155.3h0.1
							c0.5-0.2,1.1-1.1,1.7-3.4c0.2-0.9,0.8-2.9,0.3-3.6c-0.1-0.1-0.2-0.2-0.5-0.2C339.9,148.9,338.6,154.3,339,155.3L339,155.3z"/>
						<path class="st3" d="M331.3,146.4c1.9,0.1,1.6,2.5,0.8,5.2c-0.8,2.7-1.8,4.9-3,4.3C327.8,155.3,330,146.3,331.3,146.4z"/>
						<path class="st2" d="M329.3,156.6c-0.2,0-0.5,0-0.6-0.1c-1.1-0.5-0.7-3.4-0.1-5.8c0.8-3.3,1.7-5,2.6-4.9l0,0
							c0.6,0,1.1,0.3,1.5,0.8c0.7,1,0.5,2.7-0.2,5.1c-0.5,1.8-1.4,4.1-2.6,4.6C329.8,156.6,329.6,156.6,329.3,156.6z M329.2,155.4
							c0.1,0,0.1,0,0.2,0c0.5-0.2,1.2-1.4,2-3.9c0.2-1,0.9-3.4,0.3-4.2c-0.1-0.2-0.3-0.3-0.6-0.3c-0.8,1.4-1.4,2.9-1.7,4.5
							C329.2,152.8,329.1,154.1,329.2,155.4L329.2,155.4z"/>
						<path class="st2" d="M367.8,133.5c-0.1,0-0.1,0-0.2,0c-0.3-0.1-0.5-0.5-0.3-0.7l0,0l0.6-1.5c3.6-9,7.8-19.3,3.9-21.7
							c-0.2-0.2-0.3-0.6-0.1-0.8c0.1-0.2,0.5-0.3,0.8-0.1c4.6,2.9,0.5,13.1-3.5,23l-0.6,1.5C368.3,133.4,368,133.5,367.8,133.5z"/>
						<path class="st2" d="M409.3,116.5c-0.2,0-0.5-0.2-0.6-0.5c-1.7-8.2-2.1-10.9-2.1-10.9c0-0.3,0.1-0.6,0.5-0.7
							c0.3,0,0.6,0.1,0.7,0.5c0,0,0.5,2.6,2.1,10.9c0.1,0.3-0.1,0.6-0.5,0.7l0,0L409.3,116.5z"/>
						<path class="st3" d="M385.6,94.8c0.1,2.1,0,4.4-0.3,6.5c-0.1,1,0.6,1.9,1.5,2.1l0,0h0.2l4.4,0.2c1,0,1.9-0.8,1.9-1.8l0,0v-0.1
							l-0.6-9.3L385.6,94.8z"/>
						<path class="st2" d="M391.5,104.3L391.5,104.3l-4.4-0.2c-0.1,0-0.2,0-0.3,0c-0.7-0.1-1.2-0.5-1.6-0.9
							c-0.3-0.6-0.6-1.1-0.5-1.8c0.3-2.1,0.5-4.3,0.3-6.4c0-0.2,0.1-0.5,0.3-0.6l7.1-2.4c0.1,0,0.3,0,0.5,0.1
							c0.1,0.1,0.2,0.2,0.2,0.5l0.6,9.3v0.2C393.9,103.3,392.7,104.3,391.5,104.3z M386.2,95.3c0.1,2.1-0.1,4.2-0.5,6.2
							c0,0.3,0,0.7,0.2,0.9c0.2,0.2,0.5,0.5,0.8,0.6h0.1l4.4,0.2c0.7,0,1.2-0.6,1.4-1.2v-0.1l-0.5-8.6L386.2,95.3z"/>
						<path class="st1" d="M398,91.3c4.4-7.3-2.4-9-2.4-9s1.6-3.3-0.9-5.5c-2.5-2.3-5.4-1.5-7.9-4.2c-2.5-2.7-8.1-3-10.5,2.7
							c-2.4,5.8-0.2,7.7-0.2,7.7l9.9,7.7l7.9,2.1L398,91.3z"/>
						<path class="st2" d="M394.2,93.4h-0.1l-7.9-2.1c-0.1,0-0.1,0-0.2-0.1l-9.9-7.7c-0.1-0.1-2.4-2.3,0-8.3
							c0.8-2.4,2.8-4.2,5.3-4.7c2.3-0.5,4.5,0.3,6.1,1.9c1.1,1.1,2.5,1.8,4.1,2.1c1.5,0.3,2.8,1,3.9,2c1.5,1.5,1.9,3.7,1.2,5.6
							c1.5,0.6,2.6,1.6,3.3,3c0.8,1.8,0.3,4.1-1.2,6.7c-0.1,0.1-0.2,0.2-0.3,0.2l-3.9,1.5C394.3,93.4,394.2,93.4,394.2,93.4z
							 M386.5,90.1l7.7,2l3.5-1.4c1.2-2.1,1.7-4.1,1-5.4c-0.7-1.2-1.8-2.1-3.2-2.6c-0.1,0-0.3-0.1-0.3-0.3c-0.1-0.1-0.1-0.3,0-0.5
							c0-0.1,1.4-2.9-0.8-4.9c-1-0.9-2.1-1.5-3.5-1.8c-1.7-0.3-3.3-1.2-4.4-2.5c-1.4-1.4-3.3-1.9-5.1-1.6c-2.1,0.5-3.8,2-4.4,4.1
							c-2.1,5.2-0.3,7-0.3,7L386.5,90.1z M398,91.3L398,91.3z"/>
						<path class="st3" d="M377.8,79.1c0,0-7.2,14.3,1.2,17.3c5.1,1.7,10.7,0.7,14.9-2.8c2.8,1.6,5.4-0.8,3.9-2.1s-3.3,0.6-3.3,0.6
							s-3-2.5-1.5-7.6c0,0-4.3,0.7-5.8-2.9c0,0-9-0.1-10.8-4.4"/>
						<path class="st2" d="M384.2,97.8c-1.8,0-3.5-0.3-5.2-0.9c-1.8-0.6-3.3-1.9-3.9-3.6c-2-5,1.5-12.6,2.1-14.2
							c-0.5-0.5-0.9-1-1.1-1.6c-0.1-0.3,0-0.6,0.3-0.8c0.3-0.1,0.6,0,0.8,0.3c1.7,3.8,10.3,4.1,10.4,4.1c0.2,0,0.5,0.1,0.6,0.3
							c1.2,3.2,5.1,2.6,5.2,2.6c0.3-0.1,0.6,0.1,0.7,0.5c0,0.1,0,0.2,0,0.2c-1.1,3.6,0.2,5.8,1,6.5c0.6-0.6,1.4-0.8,2-0.9
							c0.6,0,1.2,0.2,1.7,0.7c0.7,0.7,0.8,1.7,0.1,2.5c-1.1,1.2-3,1.6-4.5,0.8C391.3,96.5,387.8,97.8,384.2,97.8z M378.1,79.8
							c-0.9,1.9-3.7,8.8-2,13c0.6,1.5,1.8,2.6,3.3,3c5,1.7,10.4,0.7,14.4-2.7c0.2-0.1,0.5-0.1,0.7,0c1,0.8,2.5,0.7,3.4-0.2
							c0.2-0.2,0.3-0.7,0-0.9l0,0c-0.2-0.2-0.5-0.3-0.8-0.3c-0.7,0.1-1.2,0.5-1.7,0.9c-0.2,0.2-0.6,0.2-0.8,0
							c-0.1-0.1-2.9-2.5-1.9-7.3c-2.3,0.1-4.4-1-5.4-2.9C385.7,82.2,381,81.9,378.1,79.8z"/>
						<path class="st2" d="M395.2,93.3c-0.1,0-0.2,0-0.2-0.1c-0.2-0.1-0.2-0.5-0.1-0.6c0.6-0.9,1.8-1.2,2.7-0.8
							c0.2,0.1,0.2,0.3,0.1,0.6c-0.1,0.2-0.3,0.2-0.6,0.1l0,0c-0.8-0.5-1.6,0.6-1.6,0.6C395.4,93.2,395.3,93.3,395.2,93.3z"/>
						<path class="st2" d="M386,85.5c0.6-0.3,1.2-0.5,1.9-0.3c0.7,0.1,1.2,0.3,1.7,0.8c0.1,0.1,0.1,0.3,0,0.5s-0.1,0.1-0.2,0.1l0,0
							c-0.3,0-0.6-0.1-0.8-0.1l-0.8-0.1c-0.6-0.1-1-0.1-1.6-0.2l0,0c-0.2,0-0.3-0.2-0.3-0.3l0,0C385.7,85.7,385.9,85.6,386,85.5z"/>
						<path class="st2" d="M377.7,83.3c0.7-0.1,1.5-0.1,2.1,0.1c0.3,0.1,0.7,0.2,1,0.3c0.3,0.1,0.6,0.3,0.9,0.6
							c0.1,0.1,0.1,0.3,0,0.5l0,0c-0.1,0.1-0.2,0.1-0.3,0.1l0,0c-0.7-0.1-1.2-0.2-1.9-0.5c-0.6-0.2-1.2-0.3-1.8-0.5l0,0
							c-0.2-0.1-0.2-0.2-0.2-0.5C377.6,83.5,377.6,83.5,377.7,83.3z"/>
						<path class="st2" d="M380.7,90.8L380.7,90.8c-0.8,0-1.5-0.7-1.5-1.5l0,0c0-0.5,0.1-0.8,0.5-1.1c0.3-0.3,0.9-0.5,1.4-0.5
							c0.1-1,0.2-2,0.1-3c0-0.3,0.2-0.6,0.6-0.6c0.3,0,0.6,0.2,0.6,0.6c0,1.2,0,2.5-0.2,3.7c0,0.1,0,0.1-0.1,0.2h0.1
							c0.3,0,0.6,0.3,0.6,0.6l0,0C382.5,90.1,381.7,90.8,380.7,90.8z M381.2,88.8c-0.3,0-0.6,0-0.9,0.2c-0.1,0.1-0.1,0.1-0.1,0.2
							c0,0.2,0.1,0.5,0.5,0.5c0.3,0,0.7-0.2,0.7-0.6c0-0.1,0-0.2,0.1-0.2L381.2,88.8L381.2,88.8z"/>
						<path class="st2" d="M387.8,88.4c-0.1,0.6-0.6,0.9-1,0.9c-0.5,0-0.6-0.7-0.5-1.2c0-0.1,0.1-0.3,0.2-0.5l0.6,0.6l-0.1-0.9
							c0.1,0,0.2,0,0.3,0C387.7,87.3,387.9,87.9,387.8,88.4z"/>
						<path class="st2" d="M379.8,86.5c-0.1,0.6-0.6,1-1,0.9c-0.5-0.1-0.6-0.7-0.5-1.2c0-0.1,0.1-0.3,0.2-0.5l0.6,0.6l-0.1-0.9
							c0.1,0,0.2,0,0.3,0C379.8,85.4,380,85.9,379.8,86.5z"/>
						<path class="st2" d="M383,93.9c-0.8,0-1.6-0.5-2-1.1c-0.2-0.2-0.2-0.6,0-0.8s0.6-0.2,0.8,0l0.1,0.1c0.2,0.5,0.7,0.7,1.2,0.7
							c0.3-0.1,0.7-0.3,0.8-0.7c0.1-0.2,0.5-0.5,0.8-0.2c0.2,0.1,0.5,0.5,0.2,0.8c-0.3,0.7-0.9,1.1-1.7,1.4L383,93.9z"/>
						<path class="st3" d="M380.3,71.3c2.6,1.1,4.6,2.7,8,5.5c0.7,0.5,1.4,0.9,2,1.5l9.4,9.4c0.8-2.7,1.4-5.5,1.4-8.3
							c0-4.2-0.6-6.3-2.9-8.8C391.2,63.8,383.5,67.7,380.3,71.3z"/>
						<path class="st2" d="M399.6,88.2c-0.1,0-0.3-0.1-0.5-0.2l-9.4-9.4c-0.6-0.5-1.2-0.9-1.9-1.4c-3.6-2.9-5.5-4.4-7.9-5.4
							c-0.1-0.1-0.3-0.2-0.3-0.3c0-0.2,0-0.3,0.1-0.5c2.4-2.7,5.8-4.3,9.4-4.6c3.5-0.1,6.9,1.2,9.3,3.7c2.4,2.5,3.2,4.7,3.2,9.3
							c-0.1,2.9-0.6,5.8-1.4,8.5c-0.1,0.2-0.2,0.3-0.5,0.3H399.6z M381.2,71c2.7,1.5,5.2,3.2,7.3,5.2c0.7,0.5,1.5,1,2,1.6l8.7,8.7
							c0.7-2.4,1-4.9,1.1-7.2c0-4.2-0.7-6.1-2.8-8.3c-2.3-2.3-5.3-3.5-8.5-3.4C386.3,67.7,383.4,68.9,381.2,71z"/>
						<path class="st3" d="M376.5,75.3c4.9-0.6,9.7,0.5,13.9,2.9l-2.3-2c0,0-4.7-5.1-7.3-6.1c-1.2-0.3-2.6-0.6-3.8-0.7
							C371.8,68.9,376.5,75.3,376.5,75.3z"/>
						<path class="st2" d="M390.4,78.7c-0.1,0-0.2,0-0.2-0.1c-4.1-2.4-8.8-3.3-13.5-2.8c-0.2,0-0.5-0.1-0.6-0.2
							c-0.5-0.7-2.8-4.1-1.8-5.9c0.5-0.8,1.4-1,2.7-0.9c1.4,0.1,2.7,0.3,3.9,0.7c2.7,1.1,7.4,6.1,7.7,6.3l2.3,1.9
							c0.2,0.2,0.2,0.6,0.1,0.8C390.7,78.7,390.5,78.8,390.4,78.7z M379,74.7c2.8,0,5.6,0.5,8.2,1.5c-1.2-1.4-4.7-4.6-6.7-5.4
							c-1.2-0.3-2.5-0.6-3.7-0.7c-0.6-0.1-1.4-0.1-1.7,0.3c-0.5,0.8,0.6,2.9,1.6,4.4C377.5,74.7,378.2,74.7,379,74.7z"/>
						<path class="st2" d="M388.3,77.4c-0.1,0-0.2,0-0.2-0.1c-0.2-0.1-0.3-0.5-0.2-0.8c0.1-0.2,3.8-6.9,8.3-7.1
							c0.3,0,0.6,0.2,0.6,0.6s-0.2,0.6-0.6,0.6l0,0c-3.8,0.2-7.4,6.5-7.4,6.5C388.7,77.2,388.5,77.4,388.3,77.4z"/>
						<path class="st2" d="M420.9,225.5c-0.3,0-0.6-0.2-0.6-0.6s0.2-0.6,0.6-0.6l16.6-1.2c1.1-0.1,1.7-0.3,2-0.8
							c0.6-1-0.6-3.4-1.4-5.1c-1.6-2.8-3.9-5.2-6.9-6.7c-0.2-0.1-0.3-0.5-0.2-0.8c0.1-0.2,0.5-0.3,0.8-0.2c3,1.7,5.6,4.2,7.3,7.1
							c1.6,3.3,2,5,1.4,6.2c-0.7,0.9-1.7,1.4-2.8,1.4L420.9,225.5L420.9,225.5z"/>
					</g>
				</g>
			</g>
			<path class="st2" d="M387,121.7c-16.7,0-30.2-13.5-30.2-30.2s13.5-30.2,30.2-30.2c16.7,0,30.2,13.5,30.2,30.2
				C417.2,108,403.7,121.7,387,121.7z M387,62.2c-16.1,0-29.1,13.1-29.1,29.1c0,16.1,13.1,29.1,29.1,29.1
				c16.1,0,29.1-13.1,29.1-29.1l0,0C416.1,75.2,403,62.2,387,62.2z"/>
		</g>
		<path class="st2" d="M467.5,83.7h-42.6c-0.3,0-0.6-0.2-0.6-0.6s0.2-0.6,0.6-0.6h42.6c0.3,0,0.6,0.2,0.6,0.6S467.9,83.7,467.5,83.7
			z"/>
		<path class="st2" d="M467.5,100.8h-42.6c-0.3,0-0.6-0.2-0.6-0.6s0.2-0.6,0.6-0.6h42.6c0.3,0,0.6,0.2,0.6,0.6
			S467.9,100.8,467.5,100.8z"/>
		<path class="st2" d="M467.5,117.9h-54.9c-0.3,0-0.6-0.2-0.6-0.6s0.2-0.6,0.6-0.6h54.9c0.3,0,0.6,0.2,0.6,0.6
			S467.9,117.9,467.5,117.9z"/>
		<path class="st2" d="M467.5,134.9H361.4c-0.3,0-0.6-0.2-0.6-0.6s0.2-0.6,0.6-0.6h106.2c0.3,0,0.6,0.2,0.6,0.6
			S467.9,134.9,467.5,134.9z"/>
	</g>
	<g id="character-1_00000113324336925319654820000005893916197612511138_">
		<path class="st3" d="M259.5,208.8H124.3c-2.5,0-4.4-1.9-4.4-4.4v-89.2c0-2.5,1.9-4.4,4.4-4.4h122.4c2.5,0,4.4,2,4.4,4.4l0,0l0,0
			v68.9c0,2.5,0.9,5,2.5,6.9l9.1,11.2c1.5,1.8,1.2,4.3-0.6,5.8C261.4,208.5,260.5,208.8,259.5,208.8L259.5,208.8z"/>
		<path class="st2" d="M259.6,209.4H124.3c-2.7,0-5-2.3-5-5v-89.2c0-2.7,2.3-5,5-5l0,0h122.4c2.7,0,5,2.3,5,5v68.9
			c0,2.4,0.8,4.7,2.4,6.5l9.1,11.2c1.6,2,1.4,5-0.7,6.5C261.6,209,260.6,209.4,259.6,209.4L259.6,209.4z M124.3,111.3
			c-2.1,0-3.8,1.7-3.8,3.8v89.2c0,2.1,1.7,3.8,3.8,3.8h135.2c0.8,0,1.6-0.2,2.3-0.8c1.5-1.2,1.7-3.5,0.5-5l0,0l-9.1-11.2
			c-1.7-2-2.6-4.6-2.6-7.2v-68.9c0-2.1-1.7-3.8-3.8-3.8l0,0L124.3,111.3z"/>
		<path class="st2" d="M237.7,141h-42.6c-0.3,0-0.6-0.2-0.6-0.6s0.2-0.6,0.6-0.6h42.6c0.3,0,0.6,0.2,0.6,0.6S238.1,141,237.7,141z"
			/>
		<path class="st2" d="M237.7,158h-42.6c-0.3,0-0.6-0.2-0.6-0.6s0.2-0.6,0.6-0.6h42.6c0.3,0,0.6,0.2,0.6,0.6S238.1,158,237.7,158z"
			/>
		<path class="st2" d="M237.7,175.1h-54.9c-0.3,0-0.6-0.2-0.6-0.6s0.2-0.6,0.6-0.6h54.9c0.3,0,0.6,0.2,0.6,0.6
			S238.1,175.1,237.7,175.1z"/>
		<path class="st2" d="M237.7,192.1H131.6c-0.3,0-0.6-0.2-0.6-0.6s0.2-0.6,0.6-0.6h106.2c0.3,0,0.6,0.2,0.6,0.6
			S238.1,192.1,237.7,192.1z"/>
		<g id="character_3_00000085230125672564257150000010251534241924226215_">
			<g>
				<g>
					<defs>
						<circle id="SVGID_00000155125962255050484340000002283845500262777472_" cx="158.3" cy="148.5" r="29.7"/>
					</defs>
					<clipPath id="SVGID_00000132086232773564949280000017459120604615626894_">
						<use xlink:href="#SVGID_00000155125962255050484340000002283845500262777472_"  style="overflow:visible;"/>
					</clipPath>
					<g style="clip-path:url(#SVGID_00000132086232773564949280000017459120604615626894_);">
						<path class="st3" d="M173.1,146.3l-19.6-6.1c0,0-3.4-0.1-4.5,1.8c-1.1,1.9-1.1,2.5-1.6,2.6c-0.5,0.1-3.6,0.1-4.9,2.9
							c-0.7,1.4-1,2.8-1.1,4.3c-0.1,0.7-3.5,2.5-3.9,6.4c-0.3,2.1,0.3,4.3,1.9,5.8l31-2.8c5.6,1,7.9-2.3,8.5-5.6
							c0.6-3.4-2.7-4.6-3-5.2S175.7,147.2,173.1,146.3"/>
						<path class="st2" d="M139.3,164.7c-0.1,0-0.3-0.1-0.3-0.1c-1.7-1.6-2.5-3.9-2-6.3c0.3-2.4,1.6-4.5,3.5-6
							c0.2-0.2,0.5-0.5,0.6-0.6c0.1-1.5,0.5-3,1.1-4.4c1-1.9,2.8-3.2,5-3.3h0.2c0.1-0.2,0.2-0.3,0.3-0.6c0.2-0.5,0.5-0.9,0.9-1.7
							c1.2-2.3,4.9-2.1,5-2.1h0.1l19.4,6c0.1,0,0.1,0,0.2,0c1.6,0.7,2.7,2.3,2.9,3.9c0,0.2,0.1,0.5,0.1,0.5l0.5,0.3
							c1,0.7,3.2,2.3,2.6,5.2c-0.2,2-1.4,3.9-2.9,5.2c-1.8,1.1-4.1,1.5-6.1,0.9L139.3,164.7L139.3,164.7z M153.3,140.9
							c-0.6,0-3,0.1-3.8,1.6c-0.5,0.7-0.7,1.2-0.9,1.6c-0.3,0.7-0.6,1.1-1,1.2h-0.3c-1.7,0-3.3,1-4.2,2.6c-0.7,1.2-1,2.7-1.1,4.1
							c-0.1,0.5-0.3,0.7-0.9,1.1c-1.7,1.4-2.8,3.3-3.2,5.3c-0.3,1.8,0.2,3.7,1.5,5.1l30.8-2.8h0.1c1.8,0.5,3.7,0.2,5.3-0.8
							c1.4-1.1,2.3-2.7,2.5-4.4c0.3-2.3-1.1-3.4-2.1-4.1c-0.3-0.2-0.6-0.5-0.8-0.7c-0.1-0.2-0.2-0.6-0.2-0.8c-0.1-1.4-0.9-2.5-2-3
							h-0.1L153.3,140.9L153.3,140.9z"/>
						<path class="st1" d="M206.5,173.4c-4.6,1.7-9.3,2.8-14.1,3.6c-4.7,0.7-9.6,0.3-14.2-1.1c0.3,2.3,0,9.5-0.5,15.3
							c-0.2,2.5-0.3,4.7-0.5,6.3c-0.1,1.1-0.1,1.8-0.1,1.8l-2.5,1.7l-0.2,0.1l-1.1,0.8l-1.7,1.1l-1.4,0.9l-0.2,0.1l-1.4,0.9
							l-3.4,2.4l-1.8,0.1l-2.4,0.2c-2-0.8-4.2-1.6-6.2-2.1c-1-0.3-2.1-0.6-3.2-0.9c-3.7-1-7.8-2-11.7-3.2c-0.8-1.9-1.4-3.9-1.7-6.1
							c-0.6-5.1-0.5-22.1,0.8-27.9c0.1-0.5,0.2-0.9,0.5-1.4c2.4-5.3,11.2-10.8,17.4-12.2c1.6-0.5,8.9-1,14.2,1.5
							s17.4,10.2,17.4,10.2l14.7-0.9c0,0,2.5,0.1,3.4,3.7l0,0c0.1,0.2,0.1,0.5,0.1,0.7l0,0C207.4,172.1,206.5,173.4,206.5,173.4z"/>
						<path class="st3" d="M206.8,165.5c0.9-1.6,1.5-1.5,2.6-3c0.5-0.7,0.8-1.5,0.8-2.3c0-0.3,0.2-0.6,0.6-0.6l0,0h0.1
							c0.7,0.1,1.1,0.8,1,1.5l0,0l0,0c-0.1,1-0.3,2-0.9,2.9c1.9-0.6,3.9-1.1,6-1.5c1.8-0.2,2.3,0.7,0.7,1.5c-1.5,0.6-2.9,1-4.4,1.5
							c0,0,3.6,0.2,5.1,0.6c1.5,0.3,1.9,1.5,0,1.4c-1.9-0.1-4.7,0.1-4.7,0.1l0.1,0.7c1.5,0.3,2.9,0.8,4.3,1.4
							c1.6,0.8,0.3,1.8-1.6,1.2c-1.1-0.3-2.3-0.6-3.4-0.8c0.8,0.9,1.4,1.8,1.9,2.8c0.5,1.4-1.2,0.9-1.9-0.2
							c-0.5-0.6-0.9-1.1-1.6-1.5c0,0-2.7,1-4.3-1.1C207,170.1,206,166.7,206.8,165.5z"/>
						<path class="st2" d="M214.6,174.3c-0.8-0.1-1.6-0.6-2-1.2c-0.3-0.5-0.7-0.9-1.2-1.2c-1.7,0.6-3.5,0-4.6-1.5c0,0,0,0,0-0.1
							c0,0-1.4-3.6-0.3-5.1c0.3-0.7,0.8-1.2,1.4-1.7c0.5-0.5,0.9-0.9,1.2-1.4c0.5-0.6,0.7-1.2,0.7-1.9c0-0.7,0.5-1.1,1.1-1.1
							c0.1,0,0.2,0,0.2,0c1,0.2,1.7,1.2,1.5,2.1l0,0c-0.1,0.7-0.2,1.4-0.5,1.9c1.6-0.5,3.3-0.8,4.9-1.1c1.8-0.2,2.1,0.6,2.3,0.8
							c0.1,0.2,0.1,1-1.4,1.7c-0.6,0.2-1.1,0.5-1.7,0.7c0.9,0.1,1.7,0.2,2.3,0.2c1.1,0.2,1.8,0.8,1.7,1.5c0,0.3-0.2,1-1.8,1
							c-0.9,0-2,0-2.9,0c0.9,0.2,1.9,0.6,2.8,1c1.2,0.7,1,1.4,1,1.6c-0.3,0.8-1.6,1-2.9,0.7c-0.6-0.1-1.2-0.3-1.8-0.5
							c0.3,0.6,0.7,1.1,1,1.8c0.5,1-0.1,1.4-0.3,1.5C214.9,174.2,214.7,174.3,214.6,174.3z M211.3,170.7c0.1,0,0.2,0,0.2,0.1
							c0.7,0.5,1.4,1,1.8,1.7c0.2,0.3,0.6,0.6,0.9,0.7l0,0c-0.5-1-1-1.9-1.8-2.7c-0.1-0.2-0.2-0.5-0.1-0.7c0.1-0.2,0.3-0.3,0.6-0.2
							c1.1,0.2,2.4,0.5,3.5,0.8c0.5,0.1,1,0.1,1.5,0c-0.1-0.1-0.2-0.1-0.3-0.2c-1.4-0.6-2.7-1-4.2-1.4c-0.2,0-0.3-0.2-0.5-0.5
							l-0.1-0.7c-0.1-0.3,0.1-0.6,0.5-0.7h0.1c0.1,0,2.9-0.2,4.9-0.1c0.1,0,0.3,0,0.5,0c-0.2-0.1-0.5-0.2-0.7-0.2
							c-1.5-0.2-5-0.5-5.1-0.5c-0.2,0-0.5-0.2-0.6-0.5c0-0.2,0.1-0.6,0.5-0.6c1.5-0.3,2.9-0.9,4.3-1.5c0.2-0.1,0.5-0.2,0.6-0.3
							c-0.3-0.1-0.7-0.1-0.9,0c-2,0.3-3.9,0.8-5.9,1.5c-0.2,0.1-0.5,0-0.6-0.2c-0.1-0.2-0.1-0.5,0-0.7c0.5-0.8,0.7-1.7,0.8-2.6
							c0.1-0.5-0.1-0.8-0.6-0.9l0,0c0,0.9-0.3,1.8-0.9,2.6c-0.3,0.6-0.8,1-1.4,1.6c-0.5,0.5-0.9,0.9-1.1,1.5l0,0
							c-0.6,0.8,0.1,3.4,0.3,3.9C209,171.5,211.2,170.7,211.3,170.7L211.3,170.7z M206.8,165.5L206.8,165.5z"/>
						<path class="st2" d="M212.7,170.9c-0.3,0-0.6-0.2-0.6-0.6c0-0.1,0-0.2,0.1-0.3c1-1.6,1-3.7-0.1-5.2c-0.2-0.2-0.1-0.6,0.1-0.8
							c0.2-0.2,0.6-0.1,0.8,0.1c1.5,1.9,1.5,4.5,0.1,6.5C213,170.8,212.8,170.9,212.7,170.9z"/>
						<path class="st2" d="M211.4,167.1L211.4,167.1c-0.3,0-0.6-0.3-0.6-0.7c0.1-0.7-0.1-1.4-0.5-2c-0.2-0.2-0.1-0.6,0.1-0.8
							c0.2-0.2,0.6-0.1,0.8,0.1l0,0c0.6,0.8,0.8,1.8,0.7,2.7C212,166.8,211.8,167.1,211.4,167.1z"/>
						<path class="st2" d="M178,173.3c-0.2,0-0.6-0.2-0.6-0.5c0-0.1-1.1-7.7-3.3-10.5c-0.2-0.2-0.1-0.6,0.1-0.8
							c0.2-0.2,0.6-0.1,0.8,0.1c2.4,3,3.5,10.7,3.5,11.1C178.6,172.9,178.5,173.1,178,173.3C178.2,173.3,178.2,173.3,178,173.3
							L178,173.3z"/>
						<path class="st2" d="M164.4,195.6c-0.2,0-0.5-0.1-0.5-0.3c-0.3-0.7-0.8-1.2-1.5-1.7c-1.2-0.8-11.2-7.6-11.6-7.9
							c-0.1-0.1-0.2-0.2-0.2-0.5c-0.2-4.7-1.5-17.5-4.5-19.7c-0.2-0.1-0.3-0.6-0.2-0.8c0.1-0.2,0.6-0.3,0.8-0.2c0,0,0.1,0,0.1,0.1
							c3.7,2.9,4.7,17.9,4.9,20.3c1.5,1,10.3,7,11.3,7.7c0.8,0.6,1.5,1.2,1.9,2.1c0.1,0.2,0,0.6-0.2,0.8l0,0
							C164.5,195.6,164.4,195.6,164.4,195.6z"/>
						<path class="st2" d="M158.7,202h-0.1c-2.4-0.5-16.2-8.5-17.6-10.6c-0.7-1.1-1.4-2.3-1.9-3.5c-0.1-0.2-0.1-0.6,0.2-0.8
							c0.2-0.1,0.6-0.1,0.8,0.2v0.1c0.6,1.1,1.1,2.3,1.8,3.3c1.1,1.8,14.6,9.7,16.9,10.2c0.3,0,0.6,0.3,0.5,0.7
							C159.3,201.9,159.1,202.1,158.7,202L158.7,202z"/>
						<path class="st3" d="M149.6,140.9c0,0-4.1,1.1-6.4-2.1c-2.4-3.3-1.4-11.1,6.2-13.8c7.6-2.7,9.3,4.6,7.4,7.2
							C155,134.8,149.6,140.9,149.6,140.9z"/>
						<path class="st2" d="M147.9,141.7c-2,0.1-3.9-0.9-5.2-2.5c-1.4-2.1-1.7-4.9-0.8-7.2c1.1-3.5,3.8-6.2,7.2-7.3
							c4.5-1.6,6.8,0.2,7.7,1.5c1.5,1.9,1.6,4.5,0.3,6.5c-1.9,2.6-7,8.3-7.2,8.7c-0.1,0.1-0.1,0.1-0.2,0.1
							C149.2,141.6,148.6,141.7,147.9,141.7z M149.6,140.9L149.6,140.9z M152.4,125.1c-1,0-1.9,0.2-2.8,0.6c-3.2,1-5.6,3.5-6.5,6.5
							c-0.8,2-0.6,4.4,0.7,6.3c1.4,1.7,3.5,2.5,5.6,1.9c0.8-0.9,5.4-6.1,7.1-8.5c0.9-1.7,0.8-3.7-0.3-5.2
							C155.1,125.6,153.8,125,152.4,125.1L152.4,125.1z"/>
						<path class="st3" d="M150.2,144.7c-1.7-2-1.9-7,2.4-11.3c4.3-4.3,11.8-2.7,11.8-2.7c1.8-1.5,5.2-1.1,6.7,3.2
							c0.8,2.6,0.7,5.3-0.3,7.8L150.2,144.7z"/>
						<path class="st2" d="M150.2,145.3c-0.1,0-0.3-0.1-0.5-0.2c-1.8-2.1-2.3-7.4,2.5-12.1c4.1-4.1,10.7-3.2,12.1-2.9
							c1-0.8,2.4-1,3.6-0.6c1.9,0.7,3.3,2.3,3.7,4.2c0.9,2.7,0.8,5.6-0.3,8.2c-0.1,0.2-0.2,0.3-0.5,0.3L150.2,145.3L150.2,145.3z
							 M161.3,131.1c-2.5,0-6,0.5-8.3,2.8c-3.8,3.8-3.9,8.2-2.5,10.3l20-2.9c0.9-2.3,0.9-4.7,0.2-7.1c-0.3-1.6-1.5-2.9-3-3.5
							c-0.9-0.3-2-0.1-2.7,0.6c-0.1,0.1-0.3,0.1-0.5,0.1C163.4,131.1,162.4,131.1,161.3,131.1z"/>
						<path class="st3" d="M156.4,148.1c-0.3,3.5-1,7.6-1,7.6c0.5,2,2.1,3.5,4.2,3.8c1.6,0.3,3.3-0.6,3.6-2.3l0,0
							c0.1-0.3,0.1-0.6,0.1-0.9c0-0.6-0.3-2.6-0.5-3.3C162.7,152.4,156.4,148.1,156.4,148.1z"/>
						<path class="st2" d="M160.2,160.2c-0.3,0-0.6,0-0.9-0.1c-2.3-0.3-4.1-2-4.6-4.2c0-0.1,0-0.1,0-0.2c0,0,0.7-4.1,1-7.6
							c0-0.2,0.1-0.3,0.3-0.5c0.2-0.1,0.3-0.1,0.6,0c6.5,4.5,6.7,5.1,6.7,5.4s0.1,0.8,0.2,1.2c0.1,0.7,0.2,1.4,0.2,2
							c0,0.3,0,0.7-0.1,1C163.4,159,161.9,160.2,160.2,160.2z M155.9,155.7c0.5,1.7,1.9,3,3.7,3.3c1.4,0.3,2.7-0.5,3-1.8l0,0
							c0-0.2,0-0.5,0-0.8c0-0.7-0.1-1.2-0.2-1.9c-0.1-0.5-0.1-1-0.2-1.2c-1.7-1.5-3.5-2.9-5.4-4.2C156.5,152,156,155.1,155.9,155.7z
							"/>
						<path class="st3" d="M169.8,137.7c0,0,3.4,9-0.2,12.9c-3.6,3.8-13,3.4-15.9-2.7c0,0-1.8,2.1-3.5,0c-1.7-2.1,0.3-4.7,2.9-3.6
							c0,0,0.9-2.5,5.4-4.2c2.7-0.9,5.1-2.6,6.9-4.6C165.5,135.5,166.4,137,169.8,137.7z"/>
						<path class="st2" d="M162.8,153.6c-0.7,0-1.4,0-1.9-0.1c-3-0.3-5.8-2-7.4-4.6c-0.5,0.3-1.1,0.6-1.7,0.7
							c-0.8-0.1-1.6-0.5-2-1.2c-1-1.1-1-3,0.2-4.1c0.8-0.7,1.9-0.9,2.9-0.6c0.6-0.9,2-2.7,5.5-4.1c2.6-0.9,4.9-2.5,6.7-4.5
							c0.1-0.1,0.3-0.2,0.5-0.2c0.2,0,0.3,0.1,0.5,0.2c0,0,0.9,1.4,3.9,2c0.2,0,0.3,0.2,0.5,0.3c0.1,0.3,3.5,9.4-0.3,13.5
							C168,152.8,165.4,153.9,162.8,153.6z M153.7,147.4h0.1c0.2,0,0.3,0.1,0.5,0.3c1.4,2.6,3.9,4.4,6.9,4.7c3.2,0.5,6.3-0.3,8-2.1
							c3-3.3,0.8-10.5,0.2-12.1c-1.5-0.2-2.8-0.9-3.8-1.9c-1.8,1.9-4.2,3.5-6.7,4.4c-4.3,1.6-5.1,3.8-5.2,3.8
							c-0.1,0.1-0.1,0.2-0.3,0.3c-0.1,0-0.3,0-0.5,0c-0.8-0.5-1.8-0.2-2.4,0.5c-0.5,0.7-0.5,1.7,0.1,2.4c0.2,0.5,0.7,0.7,1.1,0.8
							c0.6,0,1.1-0.3,1.5-0.8C153.3,147.5,153.6,147.4,153.7,147.4L153.7,147.4z"/>
						<path class="st2" d="M161.5,142.3c-0.5,0.1-1,0-1.5,0.1c-0.2,0-0.5,0-0.8,0.1h-0.8c-0.2,0-0.3-0.1-0.3-0.3
							c0-0.1,0-0.2,0.1-0.2c0.5-0.3,1.1-0.6,1.7-0.7c0.7,0,1.2,0.1,1.8,0.5c0.1,0.1,0.2,0.3,0.1,0.5
							C161.8,142.2,161.7,142.3,161.5,142.3L161.5,142.3z"/>
						<path class="st2" d="M169.5,140.9c-0.6,0.1-1.1,0.2-1.7,0.3c-0.6,0.1-1.2,0.2-1.8,0.3l0,0c-0.2,0-0.3-0.1-0.3-0.3
							c0-0.1,0-0.2,0.1-0.2c0.2-0.2,0.6-0.3,0.9-0.5s0.7-0.2,0.9-0.2c0.7-0.1,1.4-0.1,2,0.1c0.2,0.1,0.2,0.2,0.2,0.5
							C169.7,140.7,169.7,140.8,169.5,140.9L169.5,140.9z"/>
						<path class="st2" d="M166.1,147.3L166.1,147.3c-0.9,0-1.5-0.6-1.5-1.4l0,0c0-0.3,0.2-0.6,0.6-0.6s0.6,0.2,0.6,0.6
							c0,0.1,0,0.2,0.3,0.2c0.5,0,0.8-0.2,0.8-0.7c0-0.1,0-0.2,0-0.2c-0.3-0.2-0.7-0.2-0.9-0.2c-0.3,0-0.6-0.2-0.6-0.5
							c-0.1-1.1-0.1-2.4,0-3.5c0-0.3,0.3-0.6,0.7-0.5c0.3,0,0.6,0.3,0.5,0.7c-0.1,0.9-0.1,1.8,0,2.8c0.5,0,0.9,0.2,1.2,0.6
							s0.5,0.7,0.3,1.1C168,146.7,167.1,147.4,166.1,147.3z"/>
						<path class="st2" d="M160.8,144.3c0.1,0.6,0.5,0.9,0.9,0.9c0.5,0,0.6-0.6,0.5-1.1c0-0.1-0.1-0.3-0.2-0.5l-0.6,0.5l0.1-0.9
							c-0.1,0-0.2,0-0.2,0C160.9,143.1,160.7,143.7,160.8,144.3z"/>
						<path class="st2" d="M167.4,143c0.1,0.6,0.5,0.9,0.9,0.9s0.6-0.6,0.5-1.1c0-0.1-0.1-0.3-0.2-0.5l-0.6,0.5l0.1-0.9
							c-0.1,0-0.2,0-0.2,0C167.5,142,167.4,142.6,167.4,143z"/>
						<path class="st2" d="M164.2,150h-0.3c-0.7-0.1-1.4-0.7-1.6-1.4c-0.1-0.3,0-0.6,0.3-0.8c0.3-0.1,0.6,0,0.8,0.3
							c0.1,0.3,0.3,0.6,0.7,0.7c0.5,0,0.9-0.2,1.1-0.6c0.2-0.2,0.6-0.2,0.8,0c0.2,0.2,0.2,0.6,0,0.8l0,0
							C165.5,149.7,164.8,150,164.2,150z"/>
						<path class="st2" d="M150.6,147h-0.2c-0.3-0.1-0.5-0.3-0.5-0.7c0.1-0.6,0.5-1,0.9-1.2c0.6-0.2,1.2-0.3,1.9-0.1
							c0.3,0.1,0.5,0.5,0.3,0.7l0,0c-0.1,0.3-0.5,0.5-0.7,0.3l0,0c-0.3-0.1-0.7-0.1-1,0c-0.2,0.1-0.3,0.3-0.3,0.6
							S150.8,147,150.6,147z"/>
						<path class="st2" d="M152.1,148.2L152.1,148.2c-0.6-0.1-1-0.5-1.2-0.8c-0.3-0.7-0.5-1.4-0.2-2.1c0.1-0.3,0.5-0.5,0.8-0.3
							c0.3,0.1,0.5,0.5,0.3,0.7c-0.1,0.3,0,0.8,0.1,1.1c0.1,0.1,0.2,0.2,0.3,0.2c0.3,0,0.5,0.3,0.5,0.7l0,0
							C152.5,148.1,152.3,148.2,152.1,148.2z"/>
					</g>
				</g>
			</g>
			<path class="st2" d="M158.3,178.9c-16.7,0-30.2-13.5-30.2-30.2s13.5-30.2,30.2-30.2s30.2,13.5,30.2,30.2l0,0
				C188.5,165.2,175,178.9,158.3,178.9z M158.3,119.4c-16.1,0-29.1,13.1-29.1,29.1c0,16.1,13.1,29.1,29.1,29.1s29.1-13.1,29.1-29.1
				l0,0C187.4,132.5,174.4,119.4,158.3,119.4L158.3,119.4z"/>
		</g>
	</g>
</g>
<g>
	<path class="st3" d="M300.1,113.7v5c0,0.5,0.1,0.9,0.4,1.2c0.2,0.3,0.6,0.4,1.1,0.4c0.5,0,0.8-0.1,1.1-0.4c0.3-0.3,0.4-0.7,0.4-1.2
		v-5h2.1v5c0,0.8-0.2,1.4-0.5,1.9c-0.3,0.5-0.8,0.9-1.3,1.2s-1.1,0.4-1.8,0.4c-0.7,0-1.3-0.1-1.8-0.4c-0.5-0.3-0.9-0.7-1.2-1.2
		s-0.5-1.2-0.5-1.9v-5H300.1z"/>
	<path class="st3" d="M314.1,122.1H312l-3.4-5.2v5.2h-2.1v-8.4h2.1l3.4,5.2v-5.2h2.1V122.1z"/>
	<path class="st3" d="M317.6,113.7v8.4h-2.1v-8.4H317.6z"/>
	<path class="st3" d="M324.7,116.3c-0.2-0.3-0.4-0.5-0.7-0.6s-0.6-0.2-1-0.2c-0.7,0-1.2,0.2-1.6,0.7c-0.4,0.4-0.6,1-0.6,1.7
		c0,0.8,0.2,1.4,0.6,1.8s1,0.7,1.7,0.7c0.5,0,0.9-0.1,1.3-0.4c0.3-0.3,0.6-0.6,0.8-1.1h-2.6v-1.5h4.5v1.9c-0.2,0.5-0.4,1-0.8,1.4
		c-0.4,0.4-0.8,0.8-1.4,1.1s-1.2,0.4-1.9,0.4c-0.8,0-1.6-0.2-2.2-0.5c-0.7-0.4-1.2-0.9-1.5-1.5c-0.4-0.6-0.5-1.4-0.5-2.2
		s0.2-1.6,0.5-2.2c0.4-0.7,0.9-1.2,1.5-1.5c0.6-0.4,1.4-0.5,2.2-0.5c1,0,1.9,0.2,2.6,0.7c0.7,0.5,1.1,1.2,1.4,2H324.7z"/>
	<path class="st3" d="M336.1,113.7l-3,8.4h-2.6l-3-8.4h2.2l2.1,6.4l2.1-6.4H336.1z"/>
</g>
</svg>
