<?xml version="1.0" encoding="utf-8"?>
<!-- Generator: Adobe Illustrator 27.2.0, SVG Export Plug-In . SVG Version: 6.00 Build 0)  -->
<svg version="1.1" id="Capa_1" xmlns="http://www.w3.org/2000/svg" xmlns:xlink="http://www.w3.org/1999/xlink" x="0px" y="0px"
	 viewBox="0 0 600 500" style="enable-background:new 0 0 600 500;" xml:space="preserve">
<style type="text/css">
	.st0{fill:#FFFDF8;}
	.st1{clip-path:url(#SVGID_00000182493376060532008770000009682376560145922475_);fill:#A3191F;}
	.st2{clip-path:url(#SVGID_00000180351802864654340990000004621052905194245259_);}
	.st3{fill:#F0D2E6;}
	.st4{fill:#6C1415;}
	.st5{fill:#EB6418;}
	.st6{fill:#FFFAF7;}
	.st7{fill:#F6A73D;}
	.st8{clip-path:url(#SVGID_00000019679092402880975490000004884915311660777122_);fill:none;}
	.st9{clip-path:url(#SVGID_00000089538262001178752030000013762250930741186736_);}
	.st10{fill:#FFFFFF;}
	.st11{clip-path:url(#SVGID_00000169528093355594737180000001406158043300493205_);fill:none;}
	.st12{fill:#F75454;}
	.st13{fill:#732A09;}
	.st14{clip-path:url(#SVGID_00000134941946221268860320000004277071431826563503_);}
	.st15{clip-path:url(#SVGID_00000098209621769294413180000008104737642127099778_);}
</style>
<g>
	<g>
		<defs>
			<rect id="SVGID_1_" width="600" height="500"/>
		</defs>
		<clipPath id="SVGID_00000041288225212037362710000012166591565159227327_">
			<use xlink:href="#SVGID_1_"  style="overflow:visible;"/>
		</clipPath>
		
			<rect y="-10" style="clip-path:url(#SVGID_00000041288225212037362710000012166591565159227327_);fill:#A3191F;" width="600" height="517.9"/>
	</g>
	<g>
		<defs>
			<rect id="SVGID_00000044863964565862683870000015347054211111578549_" width="600" height="500"/>
		</defs>
		<clipPath id="SVGID_00000094594404741624604990000007705560710616833980_">
			<use xlink:href="#SVGID_00000044863964565862683870000015347054211111578549_"  style="overflow:visible;"/>
		</clipPath>
		<g style="clip-path:url(#SVGID_00000094594404741624604990000007705560710616833980_);">
			<path class="st3" d="M485.8,290.9h-2.5v-21.7c-101.9-26.7-175.6-71.1-187.1-159.6c-11.1,84.9-79.3,126.9-174.9,156.2v25.1h-2.5
				c-36.4,0-65.8,29.4-65.8,65.8s29.5,65.8,65.8,65.8h3.6c9.6,90.9,86.5,161.7,180,161.7s170.4-70.8,180-161.7h3.6
				c36.4,0,65.8-29.4,65.8-65.8S522.1,290.9,485.8,290.9z"/>
			<g>
				<path class="st4" d="M486,288.1v-18.9c0-1.3-0.9-2.4-2.1-2.7c-116.2-30.5-175-80.4-185-157.3c-0.2-1.4-1.4-2.4-2.8-2.4
					s-2.6,1-2.8,2.4c-9.6,73.6-61.3,119.7-172.9,153.9c-1.2,0.4-2,1.4-2,2.7v22.3C80.7,288.2,50,318.9,50,356.6
					c0,37.8,30.8,68.6,68.6,68.6h1.1c11,92.3,89,161.7,182.4,161.7c93.5,0,171.4-69.3,182.4-161.7h1.1c37.8,0,68.6-30.8,68.6-68.6
					C554.4,318.9,523.8,288.3,486,288.1z M118.7,419.6c-34.8,0-63-28.3-63-63c0-34.6,28.1-62.8,62.8-63v109.6c0,3,0.1,6,0.2,9
					c0,1,0.1,2,0.2,3c0.1,1.5,0.2,2.9,0.3,4.4H118.7z M302.2,581.3c-91.4,0-167.6-68.4-177.2-159.2c-0.7-6.3-1-12.7-1-18.9V290.9
					v-23c104.7-32.4,157.3-75.5,172.1-142.2c15.9,70.1,75,116.6,184.3,145.7v19.5v112.4c0,6.2-0.3,12.5-1,18.9
					C469.9,512.9,393.7,581.3,302.2,581.3z M485.8,419.6h-0.5c0.1-1.5,0.2-2.9,0.3-4.4c0.1-1,0.2-2,0.2-3c0.2-3,0.2-6,0.2-9V293.7
					c34.6,0.1,62.8,28.3,62.8,63S520.5,419.6,485.8,419.6z"/>
				<path class="st4" d="M220.3,348.3c-9.2,0-16.7,7.5-16.7,16.7s7.5,16.7,16.7,16.7S237,374.2,237,365
					C237.1,355.8,229.5,348.3,220.3,348.3z"/>
				<path class="st4" d="M387.1,348.3c-9.2,0-16.7,7.5-16.7,16.7s7.5,16.7,16.7,16.7s16.7-7.5,16.7-16.7
					C403.9,355.8,396.3,348.3,387.1,348.3z"/>
				<path class="st4" d="M516,344.7L501.5,355c-1.3,0.9-2,2.3-2.1,3.9s0.6,3,1.8,4l12.7,10.6c0.5,0.4,1.2,0.6,1.8,0.6
					c0.8,0,1.6-0.3,2.1-1c1-1.2,0.8-2.9-0.4-3.9l-12.2-10.1l13.9-9.9c1.3-0.9,1.5-2.6,0.6-3.9C519,344,517.2,343.8,516,344.7z"/>
				<path class="st4" d="M100.8,355l-14.4-10.3c-1.3-0.9-3-0.6-3.9,0.6s-0.6,3,0.6,3.9l13.9,9.9l-12.2,10.1c-1.2,1-1.4,2.7-0.4,3.9
					c0.6,0.7,1.3,1,2.1,1c0.6,0,1.3-0.2,1.8-0.6l12.7-10.6c1.2-1,1.9-2.5,1.8-4C102.9,357.4,102.1,355.9,100.8,355z"/>
				<path class="st4" d="M253.2,244.5c-5.8-5.1-19.2-9-35.4-5.5c-16.1,3.6-26.8,12.9-30.1,20c-3.6,7.3-0.7,12,3.8,12.9
					c4.8,0.9,10.4-0.9,15.8-2.3c5.5-1.6,11-3,15.9-4.1s10.5-2.1,16.1-3c5.6-1,11.4-1.7,15.4-4.6
					C258.6,255.2,259.4,249.7,253.2,244.5z"/>
				<path class="st4" d="M382,239.8c-16.4-1.8-29.4,3.5-34.6,9.1c-5.6,5.8-4.3,11.2-0.2,13.4c4.2,2.4,10.1,2.6,15.7,3
					c5.7,0.3,11.4,0.8,16.4,1.3c5,0.6,10.6,1.4,16.3,2.4c5.6,0.9,11.4,2.1,16,0.7c4.5-1.3,6.8-6.3,2.5-13.2
					C410,249.9,398.4,241.7,382,239.8z"/>
				<path class="st4" d="M316.7,349.9c-5.9,0-10.7-4.8-10.7-10.7v-64.5c0-1.5-1.2-2.8-2.8-2.8c-1.5,0-2.8,1.2-2.8,2.8v64.5
					c0,9,7.3,16.2,16.5,16.2c7.5,0,13.6,6.1,13.6,13.9c0,17.5-14.2,31.7-31.7,31.7h-16.6c-1.5,0-2.8,1.2-2.8,2.8
					c0,1.5,1.3,2.8,2.8,2.8H299c20.5,0,37.3-16.7,37.3-37.5C336.2,358.5,327.6,349.9,316.7,349.9z"/>
			</g>
			<path class="st5" d="M407.3,289.7c-34.5,0-63.1,25.9-67.2,59.3c-33.6-25-64.2-6.3-72.3-0.4c-4.3-33.2-32.8-59-67.2-59
				c-37.4,0-67.8,30.4-67.8,67.8s30.4,67.8,67.8,67.8s67.8-30.4,67.8-67.8c0-0.6-0.1-1.2-0.1-1.7c0.5-0.1,1-0.3,1.5-0.7
				c1.3-1.1,32.5-27.7,68,0.1c0.5,0.4,1.2,0.6,1.8,0.7c0,0.6-0.1,1.1-0.1,1.7c0,37.4,30.4,67.8,67.8,67.8s67.8-30.4,67.8-67.8
				C475.2,320.1,444.7,289.7,407.3,289.7z M200.6,419c-33.9,0-61.5-27.6-61.5-61.5s27.6-61.5,61.5-61.5s61.5,27.6,61.5,61.5
				S234.5,419,200.6,419z M407.3,419c-33.9,0-61.5-27.6-61.5-61.5s27.6-61.5,61.5-61.5s61.5,27.6,61.5,61.5S441.3,419,407.3,419z"/>
			<path class="st6" d="M147,385.1l-151.8,9.8L5.3,397l9.1,1.9l16.4,3.5l16.4,3.5l218.5,46.4c3.1,1.2,6.3,2.3,9.5,3.2
				c2.1,0.6,4.2,1.1,6.4,1.6c1.7,0.4,3.5,0.7,5.2,0.9c0.9,0.2,1.8,0.3,2.7,0.4c1.2,0.2,2.4,0.3,3.7,0.4
				C261.8,410.1,206.1,381.4,147,385.1z"/>
			<g>
				<polygon class="st7" points="264.6,452.4 264.6,858.9 -20.2,806.9 -21.4,391.6 				"/>
				<polygon class="st7" points="339.9,451.4 339.9,857.9 624.6,805.9 625.8,390.6 				"/>
				<path class="st5" d="M264.6,452.4L264.6,452.4V859l0,0c23.9,6.4,49,6.4,72.9,0l0,0V452.4l0,0C314.1,461.6,288,461.6,264.6,452.4
					z"/>
				<path class="st6" d="M454.5,385.1c-59.1-3.8-114.9,25-146.2,73.9c1.2-0.1,2.4-0.2,3.6-0.3c0.8-0.1,1.7-0.2,2.5-0.3
					c1.7-0.2,3.4-0.5,5-0.8c2-0.4,4-0.8,6-1.3c4.1-1,8.2-2.3,12.1-3.9l219-46.5l16.4-3.5l0,0l16.4-3.5l0,0h0.1l18.2-3.9L454.5,385.1
					z"/>
			</g>
			<path class="st4" d="M626.4,389.5c-0.7-0.5-1.5-0.7-2.3-0.6l-15.4,3.3l-152.8-9.8c-59.2-3.9-115.9,25.3-147.9,74
				c-4.4,0.3-8.8,0.2-13.3-0.1c-32-48.6-88.7-77.7-147.8-73.9l-151.4,9.7l-15-3.2c-0.8-0.2-1.7,0-2.3,0.6c-0.7,0.5-1,1.3-1,2.2
				l1.2,415.2c0,1.3,1,2.5,2.3,2.7l284.7,52c12.1,3.3,24.6,4.9,37.1,4.9s24.9-1.6,37.1-4.9l284.7-52c1.3-0.2,2.3-1.4,2.3-2.7
				l1.2-415.2C627.4,390.8,627,390,626.4,389.5z M445.5,387.6c3.3,0,6.7,0.1,10,0.3l132.9,8.5l-14.7,3.1l-118.9,5
				c-43.6,0.6-101.8,21.2-135.4,50.4c-1.4,0.3-2.8,0.5-4.2,0.7C344.6,413.6,393.5,387.6,445.5,387.6z M338.1,449.6
				c-0.1,0-0.3,0.1-0.4,0.1l0,0c-1.7,0.7-3.3,1.3-5,1.8c31.8-23.3,80.1-40.8,122.3-41.4l86-3.6L338.1,449.6z M147.2,387.9
				c55.5-3.5,108.8,22.8,140.1,67.4c-1.5-0.2-3-0.5-4.6-0.8c-33.7-29-91.5-49.3-134.8-50l-116.8-4.9l-15.5-3.3L147.2,387.9z
				 M266.8,449.8L266.8,449.8c-0.2-0.1-0.3-0.1-0.4-0.1L64,406.7l83.9,3.5c41.3,0.6,88.7,17.5,120.4,40.2
				C267.8,450.1,267.3,450,266.8,449.8z M-17.4,395.1L263,454.6v401l-279.2-51L-17.4,395.1z M268.6,856.8V456.4
				c21.9,7.7,45.5,7.7,67.3,0v400.4C313.8,862.4,290.6,862.4,268.6,856.8z M620.7,804.6l-279.2,51v-401l280.3-59.5L620.7,804.6z"/>
		</g>
	</g>
	<g>
		<defs>
			<rect id="SVGID_00000168806062134487943780000012439631557368602256_" width="600" height="500"/>
		</defs>
		<clipPath id="SVGID_00000005233932501092170940000015435660975119786883_">
			<use xlink:href="#SVGID_00000168806062134487943780000012439631557368602256_"  style="overflow:visible;"/>
		</clipPath>
		
			<rect x="35.9" y="-162.6" style="clip-path:url(#SVGID_00000005233932501092170940000015435660975119786883_);fill:none;" width="532.6" height="752.5"/>
	</g>
	<g>
		<defs>
			<rect id="SVGID_00000027571772956595902670000014476384077600704933_" width="600" height="500"/>
		</defs>
		<clipPath id="SVGID_00000054245224044996165560000005455460528720645008_">
			<use xlink:href="#SVGID_00000027571772956595902670000014476384077600704933_"  style="overflow:visible;"/>
		</clipPath>
		<g style="clip-path:url(#SVGID_00000054245224044996165560000005455460528720645008_);">
			<path class="st10" d="M196.8,66.3l-6.3-11.4h-1.8v11.4h-7.3V36.1h12.3c2.4,0,4.4,0.4,6.1,1.2c1.7,0.8,2.9,2,3.8,3.4
				c0.8,1.4,1.2,3.1,1.2,4.8c0,2-0.6,3.8-1.7,5.4c-1.1,1.6-2.8,2.7-5,3.4l7,11.9L196.8,66.3L196.8,66.3z M188.8,49.7h4.6
				c1.3,0,2.4-0.3,3-1c0.7-0.7,1-1.6,1-2.8c0-1.1-0.3-2-1-2.7s-1.7-1-3-1h-4.6V49.7z"/>
			<path class="st10" d="M216.8,42v6.1h9.8v5.7h-9.8v6.6h11.1v5.9h-18.5V36.1h18.5V42H216.8z"/>
			<path class="st10" d="M261,36.1l-10.7,30.2h-9.2l-10.7-30.2h7.8l7.5,22.8l7.5-22.8C253.2,36.1,261,36.1,261,36.1z"/>
			<path class="st10" d="M271.4,36.1v30.2h-7.3V36.1H271.4z"/>
			<path class="st10" d="M281.8,65.5c-1.7-0.7-3.1-1.8-4.2-3.2c-1-1.4-1.6-3.1-1.7-5.1h7.8c0.1,1.1,0.5,2,1.2,2.6s1.5,0.9,2.6,0.9
				s1.9-0.3,2.6-0.8c0.6-0.5,0.9-1.2,0.9-2.1c0-0.7-0.3-1.4-0.8-1.8c-0.5-0.5-1.1-0.9-1.8-1.2c-0.7-0.3-1.8-0.7-3.1-1.1
				c-1.9-0.6-3.5-1.2-4.8-1.8c-1.2-0.6-2.3-1.5-3.2-2.7c-0.9-1.2-1.3-2.7-1.3-4.6c0-2.8,1-5,3.1-6.6c2-1.6,4.7-2.4,8-2.4
				s6,0.8,8,2.4c2,1.6,3.1,3.8,3.3,6.6h-8c-0.1-1-0.4-1.7-1.1-2.3s-1.5-0.8-2.5-0.8c-0.9,0-1.6,0.2-2.1,0.7s-0.8,1.2-0.8,2
				c0,1,0.5,1.7,1.4,2.3s2.3,1.1,4.3,1.8c1.9,0.7,3.5,1.3,4.7,1.9c1.2,0.6,2.3,1.5,3.2,2.6c0.9,1.1,1.3,2.6,1.3,4.4
				c0,1.7-0.4,3.3-1.3,4.7s-2.1,2.5-3.8,3.4c-1.7,0.8-3.6,1.2-5.9,1.2C285.5,66.6,283.5,66.2,281.8,65.5z"/>
			<path class="st10" d="M324.9,36.1V42h-8v24.3h-7.4V42h-8v-5.9H324.9z"/>
			<path class="st10" d="M347.4,60.9h-11.3l-1.8,5.3h-7.7L337.5,36h8.5l11,30.3h-7.8L347.4,60.9z M345.5,55.3l-3.7-11l-3.7,11H345.5
				z"/>
			<path class="st10" d="M389,38c2.4,1.3,4.2,3,5.5,5.3s2,4.9,2,7.9s-0.7,5.6-2,7.9c-1.3,2.3-3.2,4.1-5.5,5.3
				c-2.4,1.3-5.2,1.9-8.3,1.9h-11.3V36.1h11.3C383.9,36.1,386.7,36.7,389,38z M386.7,57.6c1.5-1.5,2.3-3.7,2.3-6.4
				c0-2.8-0.8-4.9-2.3-6.5c-1.5-1.5-3.7-2.3-6.5-2.3h-3.5v17.5h3.5C383,59.9,385.2,59.1,386.7,57.6z"/>
			<path class="st10" d="M408,42v6.1h9.8v5.7H408v6.6h11.1v5.9h-18.5V36.1h18.5V42H408z"/>
			<path class="st10" d="M171.3,81c2.4,1.3,4.2,3,5.5,5.3s2,4.9,2,7.9s-0.7,5.6-2,7.9s-3.2,4.1-5.5,5.3c-2.4,1.3-5.2,1.9-8.3,1.9
				h-11.3V79.1H163C166.1,79.1,168.9,79.7,171.3,81z M169,100.6c1.5-1.5,2.3-3.7,2.3-6.4c0-2.8-0.8-4.9-2.3-6.5
				c-1.5-1.5-3.7-2.3-6.5-2.3H159v17.5h3.5C165.2,102.9,167.4,102.1,169,100.6z"/>
			<path class="st10" d="M190.2,79.1v30.2h-7.3V79.1H190.2z"/>
			<path class="st10" d="M223.9,79.1l-10.7,30.2H204l-10.7-30.2h7.8l7.5,22.8l7.5-22.8C216.1,79.1,223.9,79.1,223.9,79.1z"/>
			<path class="st10" d="M234.2,79.1v18.1c0,1.8,0.4,3.2,1.3,4.2c0.9,1,2.2,1.5,3.9,1.5s3-0.5,4-1.5c0.9-1,1.4-2.4,1.4-4.2V79.1h7.3
				v18c0,2.7-0.6,5-1.7,6.8c-1.1,1.9-2.7,3.3-4.6,4.2c-1.9,0.9-4.1,1.4-6.5,1.4s-4.5-0.5-6.4-1.4s-3.4-2.3-4.4-4.2
				c-1.1-1.9-1.6-4.2-1.6-6.9V79L234.2,79.1L234.2,79.1z"/>
			<path class="st10" d="M264.6,103.6h9.6v5.7h-17V79.1h7.3v24.5H264.6z"/>
			<path class="st10" d="M297.8,88.6c-0.5-1-1.3-1.8-2.3-2.3s-2.2-0.8-3.6-0.8c-2.4,0-4.3,0.8-5.7,2.3c-1.4,1.6-2.1,3.6-2.1,6.3
				c0,2.8,0.8,5,2.3,6.5c1.5,1.6,3.6,2.3,6.2,2.3c1.8,0,3.3-0.5,4.6-1.4c1.2-0.9,2.2-2.2,2.7-4h-9.3v-5.4h16v6.8
				c-0.5,1.8-1.5,3.5-2.8,5.1s-3,2.9-5,3.8c-2,1-4.3,1.5-6.8,1.5c-3,0-5.6-0.7-8-2c-2.3-1.3-4.2-3.1-5.5-5.4s-2-5-2-8s0.7-5.6,2-8
				c1.3-2.3,3.1-4.2,5.4-5.5s5-2,8-2c3.6,0,6.7,0.9,9.1,2.6c2.5,1.7,4.1,4.2,4.9,7.3h-8.1V88.6z"/>
			<path class="st10" d="M329.3,103.9H318l-1.8,5.3h-7.7L319.4,79h8.5l10.9,30.2H331L329.3,103.9z M327.4,98.2l-3.7-11l-3.7,11
				H327.4z"/>
			<path class="st10" d="M342.8,86.1c1.3-2.3,3.1-4.2,5.4-5.5s4.9-2,7.8-2c3.6,0,6.6,0.9,9.2,2.8c2.5,1.9,4.3,4.5,5.1,7.7h-8.1
				c-0.6-1.3-1.5-2.2-2.6-2.9c-1.1-0.7-2.4-1-3.8-1c-2.3,0-4.1,0.8-5.5,2.4s-2.1,3.7-2.1,6.3c0,2.6,0.7,4.7,2.1,6.3
				c1.4,1.6,3.2,2.4,5.5,2.4c1.4,0,2.7-0.3,3.8-1c1.1-0.7,2-1.6,2.6-2.9h8.1c-0.9,3.3-2.6,5.8-5.1,7.7c-2.6,1.9-5.6,2.8-9.2,2.8
				c-2.9,0-5.5-0.7-7.8-2s-4.1-3.1-5.4-5.4s-1.9-5-1.9-8C340.9,91.1,341.6,88.5,342.8,86.1z"/>
			<path class="st10" d="M382.3,79.1v30.2H375V79.1H382.3z"/>
			<path class="st10" d="M394.1,107.6c-2.4-1.3-4.2-3.2-5.6-5.5c-1.4-2.4-2.1-5-2.1-8s0.7-5.6,2.1-8c1.4-2.3,3.3-4.2,5.6-5.5
				c2.4-1.3,5-2,7.8-2s5.4,0.7,7.8,2s4.2,3.2,5.6,5.5s2,5,2,8s-0.7,5.6-2.1,8s-3.2,4.2-5.6,5.5s-4.9,2-7.8,2
				C399,109.5,396.4,108.9,394.1,107.6z M407.6,100.4c1.4-1.6,2.2-3.7,2.2-6.4c0-2.7-0.7-4.8-2.2-6.4c-1.4-1.6-3.4-2.4-5.8-2.4
				s-4.4,0.8-5.8,2.4s-2.2,3.7-2.2,6.4c0,2.7,0.7,4.8,2.2,6.4c1.4,1.6,3.4,2.4,5.8,2.4C404.3,102.8,406.2,102,407.6,100.4z
				 M406.8,73l-10.4,4.3v-5.1l10.4-5V73z"/>
			<path class="st10" d="M448.4,109.2H441l-12.3-18.6v18.6h-7.3V79.1h7.3L441,97.8V79.1h7.3v30.1H448.4z"/>
		</g>
	</g>
	<g>
		<defs>
			<rect id="SVGID_00000162312243184851461770000009442101565106885007_" width="600" height="500"/>
		</defs>
		<clipPath id="SVGID_00000134963388151996855880000003381330077756404921_">
			<use xlink:href="#SVGID_00000162312243184851461770000009442101565106885007_"  style="overflow:visible;"/>
		</clipPath>
		
			<rect x="50" style="clip-path:url(#SVGID_00000134963388151996855880000003381330077756404921_);fill:none;" width="500" height="500"/>
	</g>
</g>
</svg>
