<?xml version="1.0" encoding="utf-8"?>
<!-- Generator: Adobe Illustrator 27.2.0, SVG Export Plug-In . SVG Version: 6.00 Build 0)  -->
<svg version="1.1" id="Capa_1" xmlns="http://www.w3.org/2000/svg" xmlns:xlink="http://www.w3.org/1999/xlink" x="0px" y="0px"
	 viewBox="0 0 600 500" style="enable-background:new 0 0 600 500;" xml:space="preserve">
<style type="text/css">
	.st0{fill:#F6A73D;}
	.st1{fill:#D1862C;}
	.st2{fill:#732A09;}
	.st3{fill:#F75454;}
	.st4{fill:#FFFFFF;}
	.st5{fill:#FFFFFF;stroke:#732A09;stroke-linecap:round;stroke-linejoin:round;}
	.st6{fill:#EE5454;}
</style>
<rect class="st0" width="600" height="500"/>
<rect x="-0.4" y="316.9" class="st1" width="600" height="185.2"/>
<g>
	<g id="plant_00000108271938804035562930000017568139255130626437_">
		<path class="st2" d="M505.4,301.5c-0.3,0-0.5-0.2-0.5-0.5v-70.5c0-0.3,0.2-0.5,0.5-0.5s0.5,0.2,0.5,0.5V301
			C505.9,301.3,505.7,301.5,505.4,301.5z"/>
		<path class="st3" d="M505.4,285c5.8-14.2,16-18.2,18.8-17.5C527,268.1,520.1,282.7,505.4,285z"/>
		<path class="st2" d="M505.4,285.5c-0.1,0-0.3-0.1-0.4-0.2s-0.1-0.3-0.1-0.5c5.9-14.3,16.2-18.6,19.4-17.8c0.3,0.1,1,0.4,1,1.7
			C525.2,272.6,518,283.5,505.4,285.5C505.5,285.5,505.5,285.5,505.4,285.5z M523.5,267.9c-3.4,0-12,4.4-17.2,16.5
			c11.6-2.3,18-12.5,18.1-15.7c0-0.1,0-0.6-0.2-0.7C523.9,267.9,523.7,267.9,523.5,267.9L523.5,267.9z"/>
		<path class="st4" d="M505.4,265.3c5-12.3,13.8-15.7,16.2-15.1C524,250.8,518,263.3,505.4,265.3z"/>
		<path class="st2" d="M505.4,265.8c-0.1,0-0.3-0.1-0.4-0.2s-0.1-0.3-0.1-0.5c5.1-12.4,14-16,16.8-15.4c0.3,0.1,0.9,0.4,0.9,1.5
			C522.5,254.7,516.3,264.1,505.4,265.8C505.5,265.8,505.5,265.8,505.4,265.8z M521.1,250.7c-2.4,0-10,3-14.8,14
			c9.8-2,15.3-10.7,15.4-13.4c0-0.3,0-0.5-0.1-0.5C521.4,250.7,521.2,250.7,521.1,250.7L521.1,250.7z"/>
		<path class="st3" d="M505.4,245.7c3.5-8.5,9.6-10.9,11.3-10.5C518.3,235.5,514.2,244.3,505.4,245.7z"/>
		<path class="st2" d="M505.4,246.2c-0.1,0-0.3-0.1-0.4-0.2c-0.1-0.1-0.1-0.3-0.1-0.5c3.6-8.7,9.9-11.3,11.9-10.8
			c0.2,0,0.8,0.3,0.7,1.2C517.5,238.3,513.1,245,505.4,246.2C505.5,246.2,505.5,246.2,505.4,246.2L505.4,246.2z M516.3,235.6
			c-1.5,0-6.7,2-10,9.4c5.5-1.2,8.7-5.3,9.8-7.6c0.5-1.2,0.5-1.7,0.4-1.8C516.5,235.6,516.4,235.6,516.3,235.6L516.3,235.6z"/>
		<path class="st4" d="M505.4,290.7c-5.8-14.2-16-18.2-18.8-17.5C483.9,273.8,490.8,288.4,505.4,290.7z"/>
		<path class="st2" d="M505.4,291.2L505.4,291.2c-12.6-2-19.7-12.8-19.9-16.8c0-1.3,0.7-1.6,1-1.7c3.1-0.7,13.5,3.5,19.4,17.8
			c0.1,0.2,0,0.4-0.1,0.5C505.7,291.1,505.6,291.2,505.4,291.2z M487.4,273.6c-0.2,0-0.4,0-0.6,0.1c-0.2,0-0.2,0.5-0.2,0.7
			c0.1,3.2,6.5,13.5,18.1,15.7C499.3,278,490.7,273.6,487.4,273.6L487.4,273.6z"/>
		<path class="st3" d="M505.4,271c-5-12.3-13.8-15.7-16.2-15.1C486.9,256.5,492.8,269.1,505.4,271z"/>
		<path class="st2" d="M505.4,271.5L505.4,271.5c-10.9-1.7-17.1-11.1-17.2-14.6c0-1.2,0.6-1.5,0.9-1.5c2.7-0.6,11.7,3,16.8,15.4
			c0.1,0.2,0,0.4-0.1,0.5C505.7,271.5,505.6,271.5,505.4,271.5z M489.8,256.4c-0.2,0-0.3,0-0.4,0s-0.1,0.2-0.1,0.5
			c0.1,2.8,5.5,11.5,15.4,13.5C499.8,259.4,492.1,256.4,489.8,256.4z"/>
		<path class="st4" d="M505.4,251.4c-3.5-8.5-9.6-10.9-11.3-10.5S496.6,250,505.4,251.4z"/>
		<path class="st2" d="M505.4,251.9L505.4,251.9c-7.7-1.2-12-7.8-12.1-10.3c0-1,0.6-1.2,0.7-1.2c1.9-0.4,8.3,2.1,11.9,10.8
			c0.1,0.2,0,0.4-0.1,0.5C505.7,251.8,505.6,251.9,505.4,251.9z M494.5,241.3c-0.1,0-0.2,0-0.3,0c0,0,0,0.6,0.5,1.7
			c1.1,2.3,4.4,6.4,9.8,7.6C501.3,243.3,496.1,241.3,494.5,241.3L494.5,241.3z"/>
		<path class="st4" d="M485.2,292.3h40.5v24.5c0,8.8-7.2,16-16,16h-8.6c-8.8,0-16-7.1-16-16L485.2,292.3L485.2,292.3L485.2,292.3z"
			/>
		<path class="st2" d="M509.7,333.3h-8.6c-9.1,0-16.5-7.4-16.5-16.5v-24.5c0-0.3,0.2-0.5,0.5-0.5h40.5c0.3,0,0.5,0.2,0.5,0.5v24.5
			C526.2,325.9,518.8,333.3,509.7,333.3L509.7,333.3z M485.7,292.8v24c0,8.5,6.9,15.5,15.5,15.5h8.6c8.5,0,15.5-6.9,15.5-15.5v-24
			H485.7L485.7,292.8z"/>
		<path class="st2" d="M525.7,300.8h-31c-0.3,0-0.5-0.2-0.5-0.5s0.2-0.5,0.5-0.5h31c0.3,0,0.5,0.2,0.5,0.5S525.9,300.8,525.7,300.8z
			"/>
	</g>
	<g id="character-1_00000018225085134035968240000013852551822780981914_">
		<path class="st2" d="M446.1,209.1l12,117.6c0,0-12.4,12.9-25,4l-14.8-81.8l-8.4-9.6l-14.8,94.6c0,0-18.9,3.4-25-11.1l9.4-112.6
			L446.1,209.1L446.1,209.1z"/>
		<path class="st2" d="M390.6,334.6c-6.1,0-16.6-1.6-21-11.8c0-0.1,0-0.2,0-0.2L379,210c0-0.3,0.2-0.4,0.5-0.5l66.6-1l0,0
			c0.3,0,0.5,0.2,0.5,0.4l12,117.6c0,0.1,0,0.3-0.1,0.4s-12.9,13.1-25.7,4c-0.1-0.1-0.2-0.2-0.2-0.3L417.8,249l-7.5-8.7l-14.6,93.5
			c0,0.2-0.2,0.4-0.4,0.4C395.1,334.3,393.3,334.6,390.6,334.6L390.6,334.6z M370.6,322.6c5.6,12.8,21.5,11.1,24.1,10.8l14.7-94.2
			c0-0.2,0.2-0.4,0.4-0.4c0.2-0.1,0.4,0,0.5,0.1l8.4,9.6c0.1,0.1,0.1,0.1,0.1,0.2l14.7,81.6c11.3,7.9,22.6-2.4,24.1-3.9l-11.9-116.9
			l-65.7,1L370.6,322.6L370.6,322.6z"/>
		<path class="st5" d="M468.1,159.3c-7.4-14.5-36.8-28.4-36.8-28.4l-8.5-3.5c-6.8-1.2-9.8-2.1-17.4-1.3c-7.6,0.8-18.4,8.2-18.4,8.2
			s-10.5,6.9-19.9,16.2c-9.5,9.3-20.1,22.1-15.8,33.6c4.4,11.6,23.6,18.2,23.6,18.2c-0.5,4.9,2.3,9.4,2.3,9.4
			c24.9,9.6,73.4-1.3,73.4-1.3s1.2-2.9-0.4-8.1c-1.6-5.2-1-5.6-1-5.6s8.9-4,14.9-9.3C470,182.2,475.4,173.8,468.1,159.3L468.1,159.3
			z M377.2,178.3c0,0-4.5-6-4.9-7.6c-0.5-1.6,5.7-7.6,5.7-7.6L377.2,178.3z M447.3,174.8l-0.6-13.2l6.1,7.4L447.3,174.8z"/>
		<path class="st4" d="M424.5,129.7c0,0-5.8,11.8-15.8,10.1c-10-1.6-12.9-9-12.9-9s2.1-1.8,7.8-3.2c0-1.9-0.1-4.1-0.3-6.5
			c0,0,12.4-6,12-1.3c-0.2,2.1,0,4.8,0.3,7.2L424.5,129.7L424.5,129.7z"/>
		<path class="st2" d="M410.6,140.5c-0.6,0-1.3-0.1-1.9-0.2c-10.1-1.6-13.2-9-13.3-9.3c-0.1-0.2,0-0.4,0.1-0.6
			c0.1-0.1,2.2-1.8,7.6-3.2c0-2-0.1-4-0.3-6.1c0-0.2,0.1-0.4,0.3-0.5c1-0.5,9.4-4.5,11.9-2.7c0.4,0.3,0.9,0.8,0.8,1.9
			c-0.2,2.1,0,4.8,0.3,6.8l8.6,2.5c0.1,0,0.3,0.1,0.3,0.3c0.1,0.1,0.1,0.3,0,0.4C424.9,130,419.6,140.5,410.6,140.5L410.6,140.5z
			 M396.4,131c0.7,1.5,4,7,12.4,8.3c8.3,1.3,13.7-7.1,15-9.3l-8.3-2.4c-0.2-0.1-0.3-0.2-0.4-0.4c-0.3-2.1-0.5-5-0.3-7.3
			c0.1-0.6-0.2-0.9-0.3-1c-1.5-1-7.2,1-10.6,2.6c0.2,2.1,0.2,4.2,0.2,6.2c0,0.2-0.2,0.4-0.4,0.5C399.4,129.2,397.2,130.5,396.4,131
			L396.4,131z"/>
		<path class="st2" d="M446.7,162.1c-0.1,0-0.2-0.1-0.4-0.1c-4.7-4.5-8-11.5-7.8-16.4c0.1-1.7,0.6-3,1.6-3.8
			c0.2-0.2,0.5-0.1,0.7,0.1s0.1,0.5-0.1,0.7c-0.7,0.6-1.1,1.6-1.2,3c-0.2,4,2.6,10.9,7.5,15.6c0.2,0.2,0.2,0.5,0,0.7
			C446.9,162,446.8,162.1,446.7,162.1L446.7,162.1z"/>
		<path class="st2" d="M378,163.7c-0.1,0-0.3-0.1-0.4-0.2c-0.2-0.2-0.1-0.5,0.1-0.7c4.1-3.4,6.8-13,5.1-15.6
			c-0.1-0.2-0.1-0.5,0.1-0.7c0.2-0.1,0.5-0.1,0.7,0.1c2,3-0.8,13.1-5.3,16.9C378.2,163.6,378.1,163.7,378,163.7L378,163.7z"/>
		<path class="st2" d="M380.9,203h-3.7c-0.3,0-0.5-0.2-0.5-0.5s0.2-0.5,0.5-0.5h3.6c6.8-3.6,2.6-17.4,2-19.3c-0.9-0.4-4.6-2.1-6-4.1
			c-0.1-0.2-0.1-0.5,0.1-0.7c0.2-0.1,0.5-0.1,0.7,0.1c1.4,2,5.7,3.8,5.8,3.8c0.1,0.1,0.2,0.2,0.3,0.3c0.2,0.7,5.6,16.6-2.6,20.8
			C381,203,381,203,380.9,203L380.9,203z"/>
		<path class="st2" d="M445.8,197.6c-2.2,0-3.2-0.5-3.2-0.6l-0.1-0.1c-5.2-5.4-4.6-17.2-4.5-17.7c0-0.2,0.1-0.4,0.3-0.4
			c0,0,4.7-1.7,8.7-4.4c0.2-0.2,0.5-0.1,0.7,0.1c0.1,0.2,0.1,0.5-0.1,0.7c-3.5,2.4-7.5,4-8.6,4.4c-0.1,1.9-0.1,12,4.2,16.6
			c0.3,0.1,2.1,0.8,5.9,0.1c0.3-0.1,0.5,0.1,0.6,0.4s-0.1,0.5-0.4,0.6C447.9,197.5,446.7,197.5,445.8,197.6L445.8,197.6z"/>
		<path class="st3" d="M436.4,336.3c4.9,4.2,18.7-0.1,20.7-5.6c0,0,12.2,10.7,14.9,16.8c2.7,6.1-5.1,15.3-17.6,8.6
			c-9.8-5.3-15.1-9.5-16.9-11c-0.5-0.4-0.8-1-0.8-1.6L436.4,336.3z"/>
		<path class="st2" d="M462.3,354.9c-8.8,0-21.2-10.3-24.9-13.5c-0.2-0.2-0.2-0.5,0-0.7s0.5-0.2,0.7,0c3.7,3.2,16.4,13.7,24.8,13.2
			c5-0.3,7.3-1.8,8.3-3c0.2-0.2,0.5-0.2,0.7-0.1c0.2,0.2,0.2,0.5,0.1,0.7c-1.1,1.4-3.6,3.1-9,3.4
			C462.6,354.9,462.5,354.9,462.3,354.9L462.3,354.9z"/>
		<path class="st2" d="M440.9,344.2c-0.1,0-0.2,0-0.2-0.1c-0.2-0.1-0.3-0.4-0.2-0.7c0.9-1.7,0.3-4.1,0.3-4.1
			c-0.1-0.3,0.1-0.5,0.4-0.6s0.5,0.1,0.6,0.4c0,0.1,0.8,2.8-0.4,4.9C441.3,344.1,441.1,344.2,440.9,344.2L440.9,344.2z"/>
		<path class="st2" d="M453.9,340.5c-0.1,0-0.3,0-0.4-0.2c-0.2-0.2-0.2-0.5,0-0.7c4.4-4.1,11.3-5.7,11.6-5.8
			c0.3-0.1,0.5,0.1,0.6,0.4s-0.1,0.5-0.4,0.6c-0.1,0-6.9,1.7-11.1,5.6C454.1,340.4,454,340.5,453.9,340.5L453.9,340.5z"/>
		<path class="st2" d="M457.2,343.7c-0.1,0-0.3,0-0.4-0.2c-0.2-0.2-0.2-0.5,0-0.7c4.4-4.1,11.3-5.7,11.6-5.8
			c0.3-0.1,0.5,0.1,0.6,0.4s-0.1,0.5-0.4,0.6c-0.1,0-6.9,1.7-11.1,5.6C457.4,343.6,457.3,343.7,457.2,343.7L457.2,343.7z"/>
		<path class="st3" d="M393.2,336.3c-4.9,4.2-18.7-0.1-20.7-5.6c0,0-12.2,10.7-14.9,16.8c-2.7,6.1,5.1,15.3,17.6,8.6
			c9.8-5.3,15.1-9.5,16.9-11c0.5-0.4,0.8-1,0.8-1.6L393.2,336.3z"/>
		<path class="st2" d="M367.3,354.9c-0.2,0-0.4,0-0.6,0c-5.4-0.3-7.8-2-9-3.4c-0.2-0.2-0.1-0.5,0.1-0.7s0.5-0.1,0.7,0.1
			c1,1.2,3.3,2.7,8.3,3c8.4,0.5,21.1-10,24.8-13.2c0.2-0.2,0.5-0.2,0.7,0s0.2,0.5,0,0.7C388.5,344.6,376.1,354.9,367.3,354.9
			L367.3,354.9z"/>
		<path class="st2" d="M388.7,344.2c-0.2,0-0.4-0.1-0.4-0.3c-1.1-2.1-0.4-4.8-0.4-4.9c0.1-0.3,0.4-0.4,0.6-0.4s0.4,0.4,0.4,0.6
			c0,0-0.6,2.4,0.3,4.1c0.1,0.2,0,0.5-0.2,0.7C388.9,344.2,388.8,344.2,388.7,344.2L388.7,344.2z"/>
		<path class="st2" d="M375.8,340.5c-0.1,0-0.2,0-0.3-0.1c-4.2-3.9-11-5.5-11.1-5.6c-0.3-0.1-0.4-0.3-0.4-0.6
			c0.1-0.3,0.3-0.4,0.6-0.4c0.3,0.1,7.2,1.7,11.6,5.8c0.2,0.2,0.2,0.5,0,0.7C376,340.4,375.9,340.5,375.8,340.5L375.8,340.5z"/>
		<path class="st2" d="M372.4,343.7c-0.1,0-0.2,0-0.3-0.1c-4.2-3.9-11-5.5-11.1-5.6c-0.3-0.1-0.4-0.3-0.4-0.6
			c0.1-0.3,0.3-0.4,0.6-0.4c0.3,0.1,7.2,1.7,11.6,5.8c0.2,0.2,0.2,0.5,0,0.7C372.7,343.6,372.6,343.7,372.4,343.7L372.4,343.7z"/>
		<path class="st4" d="M409.9,239.7c-0.1,0-0.3-0.1-0.4-0.2l-9.2-10.5c-0.2-0.2-0.2-0.5,0-0.7s0.5-0.2,0.7,0.1l9.2,10.5
			c0.2,0.2,0.2,0.5,0,0.7C410.1,239.7,410,239.7,409.9,239.7z"/>
		<path class="st4" d="M421.5,124.8c0.7,6.7,0.6,24.5,9.1,31.3c8.6,6.7,24.9-1.1,20.2-15.2s-27.6-18.7-27.6-18.7L421.5,124.8
			L421.5,124.8z"/>
		<path class="st2" d="M438.1,159c-2.8,0-5.6-0.9-7.8-2.5c-7.5-5.9-8.5-19.8-9.1-28.2c-0.1-1.3-0.2-2.5-0.3-3.4c0-0.1,0-0.2,0.1-0.3
			l1.7-2.6c0.1-0.2,0.3-0.2,0.5-0.2c0.1,0,5.8,1.2,12.1,4.1c8.4,3.9,13.8,9,15.8,14.9c2.1,6.2,0.4,12-4.6,15.5
			C444.1,158.1,441.1,159,438.1,159L438.1,159z M422.1,124.9c0.1,0.9,0.2,2,0.2,3.3c0.6,8.2,1.5,21.8,8.7,27.4
			c4.1,3.2,10.4,3.1,15.1-0.2c4.6-3.3,6.2-8.6,4.3-14.4c-4.3-12.8-24.1-17.6-26.9-18.3L422.1,124.9L422.1,124.9z"/>
		<path class="st3" d="M420.4,126.7c-0.4,1.8,2.7,3.8,6.1,2.2c3.4-1.6,5.9-5.8,1.6-7.4C423.7,119.9,420.4,126.7,420.4,126.7
			L420.4,126.7z"/>
		<path class="st2" d="M424,130c-1.3,0-2.4-0.5-3.1-1c-0.8-0.7-1.2-1.6-1-2.4v-0.1c0.1-0.3,3.6-7.2,8.3-5.5c2.1,0.8,2.6,2,2.6,3
			c0.1,2.2-2,4.3-4.2,5.4C425.7,129.8,424.8,130,424,130L424,130z M420.9,126.9c-0.1,0.4,0.2,0.9,0.7,1.3c1,0.8,2.8,1.2,4.7,0.2
			c2.1-1,3.7-2.9,3.6-4.4c0-0.9-0.7-1.6-2-2.1C424.2,120.6,421.2,126.3,420.9,126.9z"/>
		<path class="st4" d="M405.5,82.2c-9.5-7.4-21.5,6.2-18.4,21.6c3.1,15.5,27.7,21,27.7,21l7.2,2.4c0,0,5.7-1.1,7-4.3
			s0.2-11.8,0.1-19.7C428.9,95.3,425.7,81.7,405.5,82.2z"/>
		<path class="st2" d="M421.9,127.7c0,0-0.1,0-0.2,0l-7.2-2.4c0,0-6.2-1.4-12.8-4.7c-8.7-4.4-14-10.2-15.3-16.6
			c-2.1-10.4,2.4-19.3,7.9-22.7c3.7-2.3,7.7-2.1,11.2,0.5c7.8-0.2,13.8,1.7,17.8,5.6c4.9,4.7,6,11.2,6.1,15.9c0,2.4,0.2,4.8,0.3,7.2
			c0.3,5.6,0.6,10.4-0.4,12.7C428,126.5,422.3,127.7,421.9,127.7C422,127.7,422,127.7,421.9,127.7L421.9,127.7z M399.8,80.6
			c-1.6,0-3.2,0.5-4.8,1.5c-6.8,4.2-8.9,14.3-7.4,21.7c3,15,27.1,20.5,27.3,20.6l7.1,2.4c0.8-0.2,5.4-1.3,6.5-4
			c0.9-2.1,0.6-7,0.3-12.2c-0.1-2.4-0.3-4.8-0.3-7.2c-0.1-4.5-1.1-10.8-5.8-15.2c-3.9-3.7-9.7-5.5-17.3-5.3c-0.1,0-0.2,0-0.3-0.1
			C403.5,81.3,401.6,80.7,399.8,80.6L399.8,80.6z"/>
		<path class="st4" d="M392.4,98c0,0-6.4,15.9-0.1,22.9c6.2,6.9,22.9,6.6,28.2-4c0,0,3.1,3.9,6.2,0.1c3-3.8-0.4-8.3-5-6.5
			c0,0-1.5-4.5-9.5-7.7s-12-8.6-12-8.6S398.5,96.9,392.4,98L392.4,98z"/>
		<path class="st2" d="M404.6,126c-5.1,0-9.9-1.8-12.6-4.8c-6.4-7.1-0.2-22.7,0-23.4c0.1-0.2,0.2-0.3,0.4-0.3c5.7-1,7.3-3.6,7.3-3.6
			c0.1-0.1,0.2-0.2,0.4-0.2c0.2,0,0.3,0.1,0.4,0.2c0,0.1,4,5.3,11.8,8.4c6.8,2.7,9,6.3,9.6,7.5c2.2-0.7,4.3-0.1,5.5,1.5
			c1.3,1.7,1.1,4-0.4,5.9c-1,1.2-2.1,1.9-3.3,1.9l0,0c-1.4,0-2.5-0.8-3.1-1.4c-2.5,4.4-7.3,7.4-13.1,8.2
			C406.5,126,405.5,126.1,404.6,126L404.6,126z M392.8,98.4c-0.8,2.1-5.7,15.9-0.1,22.1c3,3.4,8.8,5.1,14.7,4.3
			c5.8-0.8,10.4-3.8,12.7-8.2c0.1-0.2,0.2-0.2,0.4-0.3c0.2,0,0.3,0.1,0.4,0.2c0,0,1.3,1.6,2.9,1.6l0,0c0.9,0,1.7-0.5,2.5-1.5
			c1.5-1.9,1.2-3.7,0.4-4.7c-1-1.4-2.9-1.8-4.8-1c-0.1,0.1-0.3,0.1-0.4,0s-0.2-0.2-0.3-0.3c0,0-1.5-4.3-9.2-7.4
			c-6.7-2.7-10.6-6.8-11.8-8.2C399.3,95.8,397.2,97.6,392.8,98.4L392.8,98.4z"/>
		<path class="st2" d="M406.3,105.7c1.4-1.9,4.5-2,6-0.2c0.3,0.4,0.9,1.1,0.3,1.4c-0.2,0.1-0.4,0.1-0.5,0c-0.8-0.5-1.6-0.9-2.5-1
			s-1.8,0.2-2.7,0.5C406.4,106.7,406,106.1,406.3,105.7L406.3,105.7z"/>
		<path class="st2" d="M392.3,102.7c1.9-2.5,6-1.1,7.3,1.3c0.1,0.2,0.1,0.6-0.2,0.7c-0.2,0.1-0.4,0.1-0.5,0c-1-0.6-1.9-1.2-2.9-1.5
			c-0.9-0.2-2-0.3-2.8,0l-0.4,0.1C392.4,103.4,392.1,103,392.3,102.7L392.3,102.7L392.3,102.7z"/>
		<path class="st2" d="M397.7,114.2L397.7,114.2c-1.2,0-2-0.8-2.1-2c0-0.6,0.1-1.2,0.5-1.6c0.7-0.7,1.8-0.8,2.4-0.8
			c0.1-0.9,0.3-3,0.2-5.5c0-0.3,0.2-0.5,0.5-0.5s0.5,0.2,0.5,0.5c0.2,3.4-0.2,6-0.2,6.1c0,0.3-0.3,0.4-0.5,0.4c-0.4,0-1.6,0-2.1,0.5
			c-0.2,0.2-0.3,0.4-0.2,0.8c0.1,0.9,0.7,1.1,1.1,1.1l0,0c0.8,0,1.7-0.6,1.7-1.4c0-0.3,0.3-0.5,0.5-0.5c0.3,0,0.5,0.3,0.5,0.5
			C400.3,113.3,398.9,114.2,397.7,114.2L397.7,114.2z"/>
		<path class="st2" d="M408,109.6c0.2,1-0.2,1.9-0.9,2s-1.4-0.6-1.6-1.5c-0.1-0.3-0.1-0.6,0-0.8l1.3,0.4l-0.8-1.3
			c0.1-0.1,0.3-0.2,0.4-0.2C407.1,108,407.8,108.7,408,109.6L408,109.6z"/>
		<path class="st2" d="M394.8,106.1c0.3,1,0,1.9-0.7,2.1s-1.4-0.4-1.7-1.4c-0.1-0.3-0.1-0.6-0.1-0.8l1.3,0.3l-1-1.2
			c0.1-0.1,0.2-0.2,0.4-0.3C393.8,104.6,394.6,105.2,394.8,106.1L394.8,106.1z"/>
		<path class="st2" d="M426,114.7c-0.2,0-0.4-0.2-0.5-0.4c-0.1-0.6-0.4-1.1-0.9-1.3c-0.9-0.5-2.1-0.1-2.1-0.1
			c-0.3,0.1-0.5-0.1-0.6-0.3s0.1-0.5,0.3-0.6c0.1,0,1.7-0.5,2.9,0.2c0.7,0.4,1.1,1.1,1.3,1.9C426.5,114.4,426.3,114.6,426,114.7
			C426.1,114.7,426.1,114.7,426,114.7L426,114.7z"/>
		<path class="st2" d="M423.3,116.9c-0.2,0-0.5-0.2-0.5-0.4c0-0.3,0.1-0.5,0.4-0.6c0.4-0.1,0.7-0.3,0.9-0.7c0.5-0.8,0.5-2.1,0.3-2.5
			c-0.1-0.3,0-0.6,0.3-0.6s0.5,0.1,0.6,0.3c0.2,0.7,0.2,2.2-0.4,3.3C424.5,116.4,423.9,116.8,423.3,116.9
			C423.4,116.9,423.4,116.9,423.3,116.9L423.3,116.9z"/>
		<path class="st2" d="M401.3,119.5c-1.4,0-3.1-0.8-4.2-2.8c-0.1-0.2-0.1-0.4,0-0.5c0.1-0.2,0.3-0.2,0.5-0.2l6.1,0.7
			c0.1,0,0.3,0.1,0.4,0.2s0.1,0.3,0.1,0.4c-0.3,1.3-1.2,2.1-2.4,2.3C401.6,119.5,401.5,119.5,401.3,119.5L401.3,119.5z M398.6,117.1
			c0.9,1.2,2.2,1.6,3.1,1.5c0.6-0.1,1.1-0.4,1.4-1L398.6,117.1z"/>
		<path class="st6" d="M416.9,138.1l10.3,75.5c0,0-24.1,2.5-30.3,2l7-77.1C404,138.4,410.8,141.5,416.9,138.1L416.9,138.1z"/>
		<path class="st2" d="M399.3,216.1c-0.9,0-1.7,0-2.4-0.1c-0.3,0-0.5-0.3-0.5-0.5l7-77.1c0-0.2,0.1-0.3,0.2-0.4
			c0.1-0.1,0.3-0.1,0.5,0c0.1,0,6.7,2.9,12.5-0.3c0.1-0.1,0.3-0.1,0.5,0c0.1,0.1,0.2,0.2,0.3,0.4l10.3,75.5c0,0.1,0,0.3-0.1,0.4
			s-0.2,0.2-0.3,0.2C426.4,214.2,407.6,216.1,399.3,216.1L399.3,216.1z M397.5,215.1c6.2,0.3,25.8-1.6,29.2-2l-10.2-74.2
			c-5,2.4-10.3,0.9-12.1,0.3L397.5,215.1L397.5,215.1z"/>
	</g>
	<g id="character-2_00000026866546780806011980000007928016091008955807_">
		<path class="st4" d="M142.9,341.9l7.8-101.5l27-1.5L170.5,346C170.5,346,153.6,346.8,142.9,341.9L142.9,341.9z"/>
		<path class="st2" d="M168,346.6c-5.1,0-17.1-0.4-25.3-4.2c-0.2-0.1-0.3-0.3-0.3-0.5l7.8-101.5c0-0.2,0.2-0.4,0.5-0.5l27-1.5
			c0.2,0,0.3,0,0.4,0.1c0.1,0.1,0.1,0.2,0.1,0.4L171,346.1c0,0.2-0.2,0.5-0.5,0.5C170.4,346.5,169.5,346.6,168,346.6L168,346.6z
			 M143.4,341.6c9.5,4.2,23.9,4,26.6,3.9l7.1-106.1l-26,1.5L143.4,341.6L143.4,341.6z"/>
		<path class="st3" d="M143.2,346.6l-0.3,18.4c0,1.3,1,2.4,2.3,2.4l34,0.8c1.4,0,2.6-1.2,2.4-2.6l-0.1-0.8c0,0-1.6-16-18.4-17.5
			C163.1,347.3,154.7,349.4,143.2,346.6L143.2,346.6z"/>
		<path class="st2" d="M181,364.9L181,364.9l-37.7-0.9c-0.3,0-0.5-0.2-0.5-0.5s0.2-0.5,0.5-0.5l37.7,0.9c0.3,0,0.5,0.2,0.5,0.5
			C181.5,364.7,181.3,364.9,181,364.9L181,364.9z"/>
		<path class="st2" d="M152.4,364.2c-0.3,0-0.5-0.2-0.5-0.5s-0.5-7.7-8.9-8.3c-0.3,0-0.5-0.3-0.5-0.5c0-0.3,0.3-0.5,0.5-0.5
			c9.3,0.7,9.8,9.2,9.8,9.3C152.9,364,152.7,364.2,152.4,364.2C152.5,364.2,152.4,364.2,152.4,364.2L152.4,364.2z"/>
		<path class="st2" d="M162.5,353.2c-0.1,0-0.3-0.1-0.4-0.2c-0.2-0.2-0.2-0.5,0.1-0.7l8-6.6c0.2-0.2,0.5-0.1,0.7,0.1
			s0.2,0.5-0.1,0.7l-8,6.6C162.7,353.1,162.6,353.2,162.5,353.2z"/>
		<path class="st2" d="M166.3,354.7c-0.1,0-0.3-0.1-0.4-0.2c-0.2-0.2-0.2-0.5,0.1-0.7l8-6.6c0.2-0.2,0.5-0.1,0.7,0.1
			s0.2,0.5-0.1,0.7l-8,6.6C166.6,354.7,166.4,354.7,166.3,354.7z"/>
		<path class="st6" d="M262.8,171.1c-3.2-3.6-9.9-1.1-18.1,0c-8.2,1.1-16.5-1.9-20.4-4.5s-10.1-6.8-10.1-6.8l-11,16
			c0,0,11.8,11.9,25.9,14.9c14.1,3,33.7-3.9,33.7-3.9V171.1L262.8,171.1z"/>
		<path class="st6" d="M151.2,251.4c0,0-5.1,2.4-9.7-3.4s-11.8-28.1-10.1-47.4s9.9-35.9,17.4-41.7c7.5-5.9,31.9-17,47.4-9.2
			s-7.5,78.2-7.5,78.2L151.2,251.4L151.2,251.4z"/>
		<path class="st4" d="M159.3,139.6c-0.1,8.3,0.5,14.4,0.9,17.5c0.2,1.4,1.3,2.5,2.7,2.7c2.3,0.3,5.9,0.2,9-1.8
			c1-0.7,1.6-1.9,1.4-3.1l-1.1-6.8L159.3,139.6L159.3,139.6z"/>
		<path class="st2" d="M164.8,160.4c-0.7,0-1.4-0.1-2-0.1c-1.6-0.2-2.9-1.5-3.1-3.1c-0.4-2.9-0.9-9.1-0.9-17.6
			c0-0.2,0.1-0.4,0.3-0.4c0.2-0.1,0.4-0.1,0.5,0l12.8,8.6c0.1,0.1,0.2,0.2,0.2,0.3l1.1,6.8c0.2,1.4-0.4,2.8-1.6,3.6
			C169.7,159.9,167.1,160.4,164.8,160.4L164.8,160.4z M159.8,140.5c0,7.9,0.5,13.7,0.9,16.5c0.1,1.2,1.1,2.1,2.2,2.2
			c2.3,0.3,5.7,0.2,8.6-1.7c0.9-0.6,1.3-1.6,1.2-2.6l-1.1-6.5L159.8,140.5L159.8,140.5z"/>
		<path class="st2" d="M165.4,106.8c-10.8-0.8-17.8,6.1-19.3,14.2s2.8,15.7,2.8,15.7l10.4,6.1L185,125c0,0,3.9-2.3,1.1-7.9
			S171.1,98.2,165.4,106.8z"/>
		<path class="st2" d="M159.3,143.3c-0.1,0-0.2,0-0.2-0.1l-10.4-6.1c-0.1,0-0.1-0.1-0.2-0.2c-0.2-0.3-4.5-7.9-2.9-16.1
			c1.5-7.8,8.1-15.3,19.6-14.7c1.4-2,3.2-2.9,5.5-2.8c6.2,0.4,13.6,8.8,15.9,13.3c3.1,6-1.2,8.6-1.2,8.6L159.7,143
			C159.5,143.2,159.4,143.3,159.3,143.3L159.3,143.3z M149.3,136.3l9.9,5.8l25.5-17.7c0.2-0.1,3.5-2.1,0.9-7.3
			c-2.1-4.2-9.3-12.4-15-12.8c-1.9-0.1-3.6,0.8-4.8,2.6c-0.1,0.2-0.3,0.2-0.4,0.2c-11-0.8-17.3,6.4-18.8,13.8
			C145.2,128.4,148.8,135.4,149.3,136.3z"/>
		<path class="st4" d="M147.4,137.4c1,5.8,7,4,7,4s11.6,13.2,24.3,8.4c11-4.2,10.5-15.6,5.3-27.5c-4.6-2.6-12.4-6-12.4-6
			s-3.5,10.6-8.9,13.5c-5.5,2.9-7.8,3.6-7.8,4.8s2.1,4.1,2.1,4.1l-2.4,0.7l-4.3-6.7C150.2,132.7,146.7,133.4,147.4,137.4
			L147.4,137.4z"/>
		<path class="st2" d="M173,151.4c-9.5,0-17.4-7.9-18.8-9.4c-0.8,0.2-3.1,0.5-4.9-0.6c-1.2-0.8-2.1-2.1-2.4-3.9l0,0
			c-0.8-4.4,3.2-5.3,3.2-5.3c0.2,0,0.4,0,0.5,0.2l4.1,6.4l1.4-0.4c-0.6-1-1.7-2.8-1.8-3.8c0-1.2,1.2-1.8,4.2-3.3
			c1.1-0.5,2.3-1.2,3.8-1.9c5.2-2.8,8.6-13.1,8.7-13.2c0-0.1,0.1-0.2,0.3-0.3c0.1-0.1,0.3-0.1,0.4,0c0.1,0,7.9,3.4,12.4,6
			c0.1,0.1,0.2,0.1,0.2,0.2c3.7,8.6,4.6,15.8,2.4,20.9c-1.4,3.4-4.1,5.8-8,7.3C176.9,151.1,174.9,151.4,173,151.4L173,151.4z
			 M154.4,140.9c0.1,0,0.3,0.1,0.4,0.2c0.1,0.1,11.5,12.9,23.8,8.3c3.6-1.4,6.2-3.6,7.5-6.8c2-4.8,1.2-11.7-2.4-19.9
			c-3.9-2.2-9.9-4.9-11.7-5.6c-0.8,2.2-4.1,10.7-9,13.3c-1.5,0.8-2.8,1.4-3.9,2c-2.3,1.1-3.6,1.8-3.6,2.4c0,0.8,1.2,2.8,2,3.8
			c0.1,0.1,0.1,0.3,0.1,0.5c-0.1,0.1-0.2,0.3-0.3,0.3l-2.4,0.7c-0.2,0.1-0.4,0-0.6-0.2l-4.1-6.4c-0.8,0.3-2.6,1.3-2.1,4.1l0,0
			c0.3,1.5,0.9,2.6,1.9,3.2c1.9,1.1,4.4,0.4,4.4,0.4C154.3,140.9,154.3,140.9,154.4,140.9L154.4,140.9z"/>
		<path class="st2" d="M170.1,131c-1.5-0.1-3,0.2-4.1,1.3c-0.4,0.4-0.7,0.8-1.1,1.3c-0.3,0.4-1,0.1-0.9-0.4c0.2-2.1,2.3-3.9,4.4-3.7
			c0.6,0.1,2.6,0.3,2.1,1.3C170.5,130.9,170.3,131,170.1,131L170.1,131z"/>
		<path class="st2" d="M180.7,124c-2.4,0-4.1,1.9-5.5,3.8c-0.3,0.5-1,0.1-0.9-0.4c0.4-2.9,4-6,6.9-4.3c0.3,0.2,0.1,0.8-0.3,0.8
			L180.7,124L180.7,124L180.7,124z"/>
		<path class="st2" d="M179.2,137.5c-1,0-2.1-0.5-2.6-1.5c-0.1-0.2,0-0.6,0.2-0.7c0.2-0.1,0.6,0,0.7,0.2c0.4,0.9,1.6,1.2,2.5,0.8
			c0.4-0.2,1.1-0.6,0.8-1.6c-0.1-0.4-0.3-0.6-0.6-0.7c-0.8-0.3-2,0.1-2.4,0.3c-0.2,0.1-0.5,0-0.6-0.2c-0.1-0.1-1.5-2.7-2.7-6.2
			c-0.1-0.3,0.1-0.5,0.3-0.6c0.3-0.1,0.5,0.1,0.6,0.3c0.9,2.7,1.9,4.8,2.4,5.7c0.6-0.2,1.8-0.6,2.8-0.1c0.6,0.2,1,0.7,1.1,1.4
			c0.4,1.3-0.1,2.4-1.4,2.9C179.9,137.4,179.5,137.4,179.2,137.5L179.2,137.5z"/>
		<path class="st2" d="M168.6,135.7c0.5,1,1.4,1.5,2.1,1.1c0.7-0.3,0.8-1.4,0.3-2.4c-0.1-0.3-0.3-0.6-0.6-0.8l-0.8,1.2l-0.2-1.7
			c-0.2,0-0.4,0-0.5,0.1C168.2,133.7,168.1,134.8,168.6,135.7L168.6,135.7z"/>
		<path class="st2" d="M178.9,129c0.4,1,1.3,1.6,2,1.3s0.9-1.3,0.5-2.4c-0.1-0.3-0.3-0.6-0.5-0.8l-0.9,1.1v-1.7
			c-0.2,0-0.4,0-0.5,0.1C178.7,127,178.5,128,178.9,129L178.9,129z"/>
		<path class="st2" d="M172.6,144.9c-0.2,0-0.4,0-0.6-0.1c-1.4-0.2-2.4-1.2-2.7-2.7c0-0.1,0-0.3,0.1-0.4s0.2-0.2,0.4-0.2l7.3-0.6
			c0.2,0,0.4,0.1,0.5,0.2c0.1,0.2,0.1,0.4,0,0.5C176.2,143.9,174.2,144.8,172.6,144.9L172.6,144.9z M170.4,142.5
			c0.3,0.8,0.9,1.2,1.7,1.4c1.1,0.2,2.7-0.3,3.9-1.8L170.4,142.5L170.4,142.5z"/>
		<path class="st2" d="M188.4,114.9c4.3,0.9,10.6-0.9,10.6-0.9c-1.4-0.4-2.8-0.7-4.2-0.6c-1.9,0-3.9,0.5-6.3,1.4
			C188.5,114.9,188.5,114.9,188.4,114.9z"/>
		<path class="st2" d="M191.2,115.7c-1,0-2-0.1-2.9-0.3c-0.2,0-0.4-0.2-0.4-0.4s0.1-0.4,0.2-0.5c0.1-0.1,0.2-0.1,0.3-0.1
			c2.3-0.9,4.4-1.4,6.4-1.5c1.4,0,2.9,0.2,4.3,0.7c0.2,0.1,0.4,0.3,0.4,0.5s-0.1,0.4-0.4,0.5S195,115.7,191.2,115.7L191.2,115.7z
			 M190.5,114.7c2.2,0.1,4.6-0.3,6.3-0.6c-0.7-0.1-1.3-0.1-2-0.1C193.5,114,192.1,114.2,190.5,114.7z"/>
		<path class="st3" d="M146.4,130.7c0,0,4.2-4,12.1-7.9c2.4-1.2,5.1-2.4,8.1-3.4c12.9-4.6,17.4-5.8,17.4-5.8s-6.5-15-21.3-11.1
			C147.8,106.4,143.5,116.8,146.4,130.7L146.4,130.7z"/>
		<path class="st2" d="M146.4,131.2c-0.1,0-0.1,0-0.1,0c-0.2-0.1-0.3-0.2-0.3-0.4c-3.1-15.4,2.5-25,16.6-28.8
			c15.1-4,21.9,11.2,21.9,11.4c0.1,0.1,0.1,0.3,0,0.4s-0.2,0.2-0.3,0.3c-0.1,0-4.7,1.3-17.4,5.8c-2.8,1-5.5,2.1-8,3.4
			c-7.6,3.8-11.9,7.8-11.9,7.8C146.6,131.2,146.5,131.2,146.4,131.2L146.4,131.2z M167.5,102.3c-1.5,0-3.1,0.2-4.8,0.7
			c-13.3,3.5-18.7,12.5-16.1,26.8c1.5-1.3,5.4-4.3,11.5-7.4c2.6-1.3,5.4-2.5,8.2-3.5c10.3-3.6,15.3-5.2,16.9-5.6
			c-0.6-1.1-2.1-3.9-4.8-6.4C175.3,103.8,171.6,102.3,167.5,102.3z"/>
		<path class="st4" d="M157.9,122.9c0,0,12.7,2.4,21.9-3.3c3.4-2.1,6.1-3.6,8.6-4.6c0.1,0,0.1-0.1,0.2-0.1c2.4-0.9,4.4-1.4,6.3-1.4
			h-9.4C185.4,113.4,177.5,110.9,157.9,122.9L157.9,122.9z"/>
		<path class="st2" d="M164.4,123.9c-3.7,0-6.3-0.5-6.5-0.5s-0.4-0.2-0.4-0.4c0-0.2,0.1-0.4,0.2-0.5c18.7-11.5,26.9-9.8,27.8-9.5
			h9.3c0.3,0,0.5,0.2,0.5,0.5s-0.2,0.5-0.5,0.5c-1.8,0-3.8,0.5-6.1,1.4c0,0-0.1,0.1-0.2,0.1c-2.3,0.9-5,2.4-8.5,4.6
			C175,123.2,168.9,123.9,164.4,123.9z M159.4,122.6c3.5,0.4,13,1,20.2-3.5c3.5-2.2,6.2-3.7,8.6-4.6c0,0,0.1-0.1,0.2-0.1
			c0.4-0.2,0.8-0.3,1.2-0.5h-4.2c-0.1,0-0.1,0-0.1,0C185.2,113.9,177.5,111.7,159.4,122.6L159.4,122.6z"/>
		<path class="st2" d="M157.9,123.4c-0.2,0-0.4-0.1-0.5-0.4c-4.4-15.6,2.8-20.2,3.1-20.4c0.2-0.1,0.5-0.1,0.7,0.2
			c0.1,0.2,0.1,0.5-0.2,0.7c-0.1,0.1-6.9,4.5-2.7,19.3c0.1,0.3-0.1,0.5-0.3,0.6C158,123.4,158,123.4,157.9,123.4L157.9,123.4z"/>
		<path class="st2" d="M155.2,197.4L155.2,197.4c-0.3,0-0.5-0.2-0.5-0.5c0-0.2,0-22.6-6.3-31.7c-0.2-0.2-0.1-0.5,0.1-0.7
			c0.2-0.2,0.5-0.1,0.7,0.1c6.5,9.4,6.5,31.4,6.5,32.3C155.7,197.2,155.5,197.4,155.2,197.4L155.2,197.4z"/>
	</g>
	<g id="character-3_00000029728878482004864160000009187933388206856087_">
		<path class="st4" d="M343.1,240.4l12,117.6c0,0-12.4,12.9-25,4l-14.8-81.8l-8.4-9.6l-14.8,94.6c0,0-18.9,3.4-25.1-11.1l9.4-112.6
			L343.1,240.4L343.1,240.4z"/>
		<path class="st2" d="M287.6,366c-6.1,0-16.6-1.6-21-11.8c0-0.1,0-0.2,0-0.2l9.4-112.6c0-0.3,0.2-0.4,0.5-0.5l66.6-1l0,0
			c0.3,0,0.5,0.2,0.5,0.4l12,117.6c0,0.1,0,0.3-0.1,0.4s-12.9,13.1-25.7,4c-0.1-0.1-0.2-0.2-0.2-0.3l-14.8-81.6l-7.5-8.7l-14.6,93.5
			c0,0.2-0.2,0.4-0.4,0.4C292.2,365.7,290.3,366,287.6,366L287.6,366z M267.6,353.9c5.6,12.8,21.5,11.1,24.1,10.8l14.7-94.2
			c0-0.2,0.2-0.4,0.4-0.4c0.2-0.1,0.4,0,0.5,0.1l8.3,9.6c0.1,0.1,0.1,0.1,0.1,0.2l14.7,81.5c11.3,7.9,22.6-2.4,24.1-3.9l-11.9-116.9
			l-65.7,1L267.6,353.9L267.6,353.9z"/>
		<path class="st6" d="M365.1,190.6c-7.4-14.5-36.8-28.4-36.8-28.4s-1-1.9-3.1-3.5s-5-0.8-5-0.8s-4.8-1.6-9.5-1.6
			c0,0-11.2,1.2-15.8,1.4c-4.6,0.2-4.2,3.2-4.2,3.2s-3.5-1.4-5.4-0.5s-1.3,5.4-1.3,5.4s-10.5,6.9-19.9,16.2s-20.1,22.1-15.7,33.6
			c4.4,11.6,23.6,18.2,23.6,18.2c-0.5,4.9,2.3,9.4,2.3,9.4c24.9,9.6,73.4-1.3,73.4-1.3s1.2-2.9-0.4-8.1c-1.6-5.2-1-5.6-1-5.6
			s8.9-4,14.9-9.3C367,213.6,372.5,205.2,365.1,190.6L365.1,190.6z M274.2,209.7c0,0-4.5-6-4.9-7.6c-0.5-1.6,5.7-7.6,5.7-7.6
			L274.2,209.7z M344.3,206.1l-0.6-13.2l6.1,7.4L344.3,206.1z"/>
		<path class="st4" d="M321.5,161c0,0-5.8,11.8-15.8,10.1c-10-1.6-12.9-9-12.9-9s2.1-1.8,7.8-3.2c0-1.9-0.1-4.1-0.3-6.5
			c0,0,12.4-6,12-1.3c-0.2,2.1,0,4.9,0.3,7.2L321.5,161L321.5,161z"/>
		<path class="st2" d="M307.6,171.8c-0.6,0-1.3-0.1-1.9-0.2c-10.1-1.6-13.2-9-13.3-9.3c-0.1-0.2,0-0.4,0.1-0.6
			c0.1-0.1,2.2-1.8,7.6-3.2c0-2-0.1-4-0.3-6.1c0-0.2,0.1-0.4,0.3-0.5c0.9-0.5,9.4-4.5,11.9-2.7c0.4,0.3,0.9,0.8,0.8,1.9
			c-0.2,2.1,0,4.8,0.3,6.8l8.6,2.5c0.1,0,0.3,0.1,0.3,0.3c0.1,0.1,0.1,0.3,0,0.4C321.9,161.4,316.7,171.8,307.6,171.8L307.6,171.8z
			 M293.5,162.3c0.7,1.5,4,7,12.4,8.4c8.3,1.4,13.7-7.1,15-9.3l-8.3-2.4c-0.2-0.1-0.3-0.2-0.4-0.4c-0.3-2.1-0.5-5-0.3-7.4
			c0.1-0.6-0.2-0.9-0.3-1c-1.5-1-7.2,1-10.6,2.6c0.2,2.1,0.2,4.2,0.2,6.2c0,0.2-0.2,0.4-0.4,0.5
			C296.5,160.5,294.3,161.8,293.5,162.3L293.5,162.3z"/>
		<path class="st4" d="M300.7,108.6c-7.3-1.2-12.7,3.8-13.1,8.3c0,0-4.7,3.4-4.9,6.8c-0.1,3.4-6.3,7.2,0.1,13.8
			c6.4,6.6,42.5-1.4,42.5-1.4s2.8-8.3-0.2-11.3c0,0-1.2-8.6-6.8-10.1S313.6,104.6,300.7,108.6L300.7,108.6z"/>
		<path class="st2" d="M294.5,140.7c-5.5,0-10.1-0.7-12.1-2.8c-4.8-5-2.9-8.6-1.4-11.3c0.6-1,1.1-2,1.1-2.9c0.1-3.2,4-6.4,4.9-7.1
			c0.3-2.3,1.6-4.5,3.8-6.2c2.7-2.1,6.1-2.9,9.8-2.4c8.8-2.7,11.5,0.4,13.9,3.2c1.2,1.3,2.3,2.6,4,3.1c5.5,1.5,7,9.1,7.2,10.3
			c3,3.3,0.3,11.4,0.2,11.7c-0.1,0.2-0.2,0.3-0.4,0.3C324.5,136.9,307.2,140.7,294.5,140.7L294.5,140.7z M298.5,108.9
			c-2.6,0-5.1,0.8-7.1,2.4c-1.9,1.5-3.2,3.7-3.4,5.7c0,0.1-0.1,0.3-0.2,0.4c0,0-4.5,3.3-4.6,6.4c-0.1,1.1-0.6,2.2-1.2,3.3
			c-1.5,2.7-3.1,5.7,1.2,10.2c5.9,6,38.4-0.8,41.8-1.5c0.4-1.4,2.3-8.1-0.1-10.5c-0.1-0.1-0.1-0.2-0.1-0.3c0-0.1-1.2-8.3-6.5-9.7
			c-2-0.6-3.3-2-4.5-3.4c-2.3-2.7-4.7-5.4-13-2.8c-0.1,0-0.1,0-0.2,0C299.9,109,299.2,108.9,298.5,108.9L298.5,108.9z"/>
		<path class="st4" d="M321.7,134.3c0,0,1.7-3.8,5-2.1s1.5,13.6-5.3,10.2c0,0,0,11.2-13.6,13.1c-13.6,1.9-18.9-12.6-18.9-12.6
			s-3.8,2.4-5.8,0s-1.7-9.8,5-6.6l0.7,1.9c0,0,1.8-2.6,2-6.9c0,0,1.7-1.4,3.4-5.7c0,0,3.9,0.4,9-6.2c0,0,4.4,7.1,16.2,8.6
			C319.4,128.2,320.9,135.5,321.7,134.3L321.7,134.3z"/>
		<path class="st2" d="M305.4,156.3c-10.6,0-15.6-10.1-16.7-12.6c-1.2,0.6-4.2,1.8-6-0.4c-1.3-1.6-1.7-5.1-0.3-6.9
			c0.7-0.9,2.4-2.1,5.9-0.4c0.1,0.1,0.2,0.2,0.3,0.3l0.3,0.9c0.5-1.1,1.3-3.1,1.4-5.7c0-0.1,0.1-0.3,0.2-0.4c0,0,1.7-1.4,3.2-5.5
			c0.1-0.2,0.3-0.3,0.5-0.3c0,0,3.8,0.2,8.6-6c0.1-0.1,0.3-0.2,0.4-0.2s0.3,0.1,0.4,0.2c0,0.1,4.5,6.9,15.8,8.4
			c0.2,0,0.4,0.2,0.4,0.4c0.5,2.2,1.1,4.7,1.6,5.6c0.4-0.6,1.2-1.7,2.4-2.2c1-0.3,2-0.2,3,0.3c2.3,1.2,2.4,5.8,0.9,8.8
			c-1.3,2.6-3.5,3.5-6,2.6c-0.3,2.6-2.2,11.2-13.9,12.9C307,156.3,306.2,156.4,305.4,156.3L305.4,156.3z M288.9,142.5
			c0.1,0,0.1,0,0.2,0c0.1,0.1,0.2,0.2,0.3,0.3c0.1,0.1,5.4,14.2,18.4,12.3s13.1-12.2,13.1-12.6c0-0.2,0.1-0.3,0.2-0.4s0.3-0.1,0.5,0
			c3.1,1.5,4.6-0.5,5.3-1.9c1.4-2.7,1.1-6.7-0.5-7.5c-0.8-0.4-1.6-0.5-2.2-0.2c-1.4,0.5-2.1,2.1-2.1,2.1v0.1
			c-0.2,0.3-0.4,0.4-0.7,0.3c-0.3-0.1-1.1-0.2-2.4-6.3c-9.8-1.3-14.5-6.5-15.8-8.2c-4.2,5.1-7.5,5.8-8.7,5.8c-1.3,3.4-2.7,5-3.2,5.4
			c-0.3,4.2-2,6.8-2.1,6.9c-0.1,0.2-0.3,0.2-0.5,0.2s-0.3-0.1-0.4-0.3l-0.6-1.7c-1.5-0.7-3.4-1.1-4.4,0.2c-1.1,1.5-0.8,4.4,0.2,5.7
			c1.7,2.1,5.1-0.1,5.2-0.1C288.7,142.5,288.8,142.5,288.9,142.5L288.9,142.5z M321.7,134.3L321.7,134.3L321.7,134.3z"/>
		<path class="st2" d="M316.5,129.3c-2.6-0.1-4.9,0.1-7.4,0.5c-0.1,0-0.3-0.1-0.3-0.2c1.6-2.2,5.7-2.2,7.9-0.8
			C316.8,129,316.7,129.4,316.5,129.3L316.5,129.3L316.5,129.3z"/>
		<path class="st2" d="M295.4,130.1c2.1-1.7,5.5-2.1,7.8-0.5c0.1,0.1,0.1,0.2,0.1,0.4c-0.1,0.1-0.1,0.1-0.2,0.1
			c-1.3,0-2.4-0.1-3.7,0c-1.2,0.1-2.4,0.3-3.7,0.4C295.4,130.6,295.2,130.3,295.4,130.1L295.4,130.1z"/>
		<path class="st2" d="M310.5,143.1c-1.4,0-2.9-0.9-3.2-2.5c-0.1-0.3,0.1-0.5,0.4-0.6s0.5,0.1,0.6,0.4c0.2,1.1,1.4,1.7,2.4,1.6
			c0.5,0,1.3-0.3,1.3-1.5c0-0.4-0.1-0.8-0.4-1c-0.7-0.6-2.1-0.5-2.6-0.4c-0.3,0-0.5-0.1-0.6-0.4c0-0.1-0.3-1.3-0.6-3.3
			c0-0.3,0.2-0.5,0.4-0.6c0.3,0,0.5,0.2,0.6,0.4c0.2,1.3,0.3,2.3,0.5,2.8c0.7-0.1,2.1,0,3,0.7c0.5,0.4,0.8,1,0.8,1.7
			c0,1.4-0.9,2.4-2.2,2.5C310.6,143.1,310.5,143.1,310.5,143.1L310.5,143.1z"/>
		<path class="st2" d="M308.1,134.4c-0.3,0-0.5-0.2-0.5-0.5c-0.1-0.8-0.1-1.7-0.1-2.5c0-0.3,0.2-0.5,0.5-0.5s0.5,0.2,0.5,0.5
			c0,0.8,0.1,1.6,0.1,2.4C308.6,134.1,308.4,134.4,308.1,134.4L308.1,134.4L308.1,134.4z"/>
		<path class="st2" d="M312.3,135c-0.2,1.2,0.4,2.2,1.2,2.4c0.8,0.1,1.6-0.7,1.8-1.9c0-0.3,0-0.7,0-1l-1.5,0.6l0.9-1.6
			c-0.2-0.1-0.3-0.2-0.5-0.2C313.3,132.9,312.5,133.8,312.3,135L312.3,135z"/>
		<path class="st2" d="M298,135.4c-0.2,1.2,0.4,2.2,1.2,2.4c0.8,0.1,1.6-0.7,1.8-1.9c0.1-0.4,0-0.7,0-1l-1.5,0.6l0.9-1.6
			c-0.2-0.1-0.3-0.2-0.5-0.2C299,133.4,298.2,134.3,298,135.4L298,135.4z"/>
		<path class="st2" d="M304.8,134.4c-0.3,0-0.5-0.2-0.5-0.5s0.2-0.5,0.5-0.5l6.1-0.1c0.3,0,0.5,0.2,0.5,0.5s-0.2,0.5-0.5,0.5
			L304.8,134.4L304.8,134.4L304.8,134.4z"/>
		<path class="st2" d="M297.6,141.5L297.6,141.5c-3.2,0-3.4-4.2-3.4-5.9v-0.2c-0.1-1.7-0.1-3.4,2.6-3.8c1.8-0.2,5.3-0.4,6.7-0.4
			c0.8,0,1.4,0.6,1.5,1.3c0.1,1.3,0.3,3.8,0,5.4C304.4,140.4,300.8,141.5,297.6,141.5L297.6,141.5z M303.5,132.2L303.5,132.2
			c-1.4,0-4.9,0.1-6.6,0.4c-1.9,0.3-1.8,1-1.8,2.6v0.3c0.1,2.6,0.4,4.9,2.4,5c2.9,0,6.1-1,6.5-2.7c0.3-1.5,0.1-3.8,0-5.1
			C304,132.4,303.8,132.2,303.5,132.2L303.5,132.2z M303.5,131.7L303.5,131.7L303.5,131.7z"/>
		<path class="st2" d="M312.5,141.1c-0.3,0-0.5-0.2-0.5-0.5s0.2-0.5,0.5-0.5c2.6-0.2,5-0.7,5.3-1.1c0.2-0.4,0.2-2.1-0.3-6
			c0-0.4-0.4-0.8-0.9-0.7l-5.9,0.4c-0.1,0-0.2,0.1-0.3,0.2c-0.1,0.1-0.1,0.2-0.1,0.3l0.5,5.5c0,0.3-0.2,0.5-0.5,0.5
			s-0.5-0.2-0.5-0.4l-0.5-5.5c0-0.4,0.1-0.8,0.3-1.1c0.3-0.3,0.6-0.5,1-0.5l5.9-0.4c1-0.1,1.8,0.6,1.9,1.6c0.6,5.5,0.3,6.3,0.2,6.5
			C318.1,140.6,314.2,140.9,312.5,141.1L312.5,141.1L312.5,141.1z"/>
		<path class="st2" d="M307.9,146.6L307.9,146.6c-4.3-0.3-5.9-2.4-5.9-2.5c-0.2-0.2-0.1-0.5,0.1-0.7s0.5-0.1,0.7,0.1
			c0,0,1.3,1.8,5.1,2.1c0.3,0,0.5,0.3,0.5,0.5C308.4,146.4,308.2,146.6,307.9,146.6L307.9,146.6z"/>
		<path class="st4" d="M287.2,138.3c-1.8-1.4-3.4-0.6-3.8,1.2"/>
		<path class="st2" d="M283.4,140h-0.1c-0.3-0.1-0.4-0.3-0.4-0.6c0.2-1.1,0.9-1.9,1.7-2.2c0.9-0.3,1.9-0.1,2.9,0.7
			c0.2,0.2,0.2,0.5,0.1,0.7c-0.2,0.2-0.5,0.2-0.7,0.1c-0.7-0.6-1.4-0.8-1.9-0.5c-0.5,0.2-0.9,0.7-1.1,1.5
			C283.8,139.8,283.6,140,283.4,140L283.4,140z"/>
		<path class="st4" d="M285.7,141.7c-1.7-0.9-1.2-3.9-1.2-3.9"/>
		<path class="st2" d="M285.7,142.2c-0.1,0-0.1,0-0.2-0.1c-2-1-1.5-4.3-1.5-4.4c0-0.3,0.3-0.4,0.6-0.4c0.3,0.1,0.5,0.3,0.4,0.6
			c-0.1,0.8-0.2,2.8,1,3.4c0.2,0.1,0.4,0.4,0.2,0.7C286,142.1,285.8,142.2,285.7,142.2L285.7,142.2z"/>
		<path class="st4" d="M322.8,136c1-2.4,3.6-2.1,4.4-0.9"/>
		<path class="st2" d="M322.8,136.5c-0.1,0-0.1,0-0.2,0c-0.3-0.1-0.4-0.4-0.3-0.7c0.5-1.2,1.5-2,2.7-2.1c1.1-0.1,2.1,0.4,2.6,1.2
			c0.1,0.2,0.1,0.5-0.1,0.7c-0.2,0.1-0.5,0.1-0.7-0.2c-0.3-0.5-1-0.8-1.7-0.7c-0.5,0-1.3,0.3-1.8,1.5
			C323.2,136.4,323,136.5,322.8,136.5z"/>
		<path class="st4" d="M324.3,140.7c1.9-0.5,2.4-4.4,1.3-6.4"/>
		<path class="st2" d="M324.3,141.2c-0.2,0-0.4-0.1-0.5-0.4c-0.1-0.3,0.1-0.5,0.4-0.6c0.6-0.2,0.9-0.7,1.1-1.2
			c0.6-1.4,0.5-3.3-0.1-4.5c-0.1-0.2,0-0.5,0.2-0.7c0.2-0.1,0.5-0.1,0.7,0.2c0.8,1.4,0.9,3.7,0.2,5.4c-0.4,1-1,1.6-1.8,1.8
			C324.4,141.1,324.3,141.1,324.3,141.2L324.3,141.2z"/>
		<path class="st2" d="M294,175.3c-0.1,0-0.1,0-0.2,0c-4.7-1.8-9.2-8.1-9.4-8.4c-0.2-0.2-0.1-0.5,0.1-0.7s0.5-0.1,0.7,0.1
			c0,0.1,4.5,6.3,8.9,8c0.3,0.1,0.4,0.4,0.3,0.6C294.4,175.2,294.2,175.3,294,175.3z"/>
		<path class="st2" d="M300.3,172.9c-0.1,0-0.1,0-0.2-0.1c-3.1-1.5-7.4-5.2-9.3-10.5c-0.1-0.3,0-0.6,0.3-0.6c0.3-0.1,0.5,0,0.6,0.3
			c1.8,5,5.9,8.5,8.8,9.9c0.2,0.1,0.4,0.4,0.2,0.7C300.6,172.8,300.5,172.9,300.3,172.9L300.3,172.9z"/>
		<path class="st2" d="M310.5,176.6c-0.2,0-0.4-0.2-0.5-0.4c-0.1-0.3,0.1-0.5,0.4-0.6c6.8-1.4,15.3-6.8,16.8-12
			c0.1-0.3,0.4-0.4,0.6-0.4c0.3,0.1,0.4,0.4,0.4,0.6C326.4,170.1,316.8,175.3,310.5,176.6L310.5,176.6L310.5,176.6z"/>
		<path class="st2" d="M343.7,193.5c-0.1,0-0.2-0.1-0.4-0.1c-4.7-4.5-8-11.5-7.8-16.4c0.1-1.7,0.6-3,1.6-3.8
			c0.2-0.2,0.5-0.1,0.7,0.1s0.1,0.5-0.1,0.7c-0.7,0.6-1.1,1.6-1.2,3c-0.2,4,2.6,10.9,7.5,15.6c0.2,0.2,0.2,0.5,0,0.7
			C344,193.4,343.9,193.4,343.7,193.5L343.7,193.5z"/>
		<path class="st2" d="M275,195c-0.1,0-0.3-0.1-0.4-0.2c-0.2-0.2-0.1-0.5,0.1-0.7c4.1-3.4,6.8-13,5.1-15.6c-0.1-0.2-0.1-0.5,0.1-0.7
			c0.2-0.1,0.5-0.1,0.7,0.1c2,3-0.8,13.1-5.3,16.9C275.3,195,275.1,195,275,195L275,195z"/>
		<path class="st2" d="M277.9,234.4h-3.7c-0.3,0-0.5-0.2-0.5-0.5s0.2-0.5,0.5-0.5h3.6c6.8-3.6,2.6-17.4,2-19.3
			c-0.9-0.4-4.6-2.1-6-4.1c-0.1-0.2-0.1-0.5,0.1-0.7s0.5-0.1,0.7,0.1c1.4,2,5.7,3.8,5.8,3.8c0.1,0.1,0.2,0.2,0.3,0.3
			c0.2,0.7,5.6,16.6-2.6,20.8C278.1,234.4,278,234.4,277.9,234.4L277.9,234.4z"/>
		<path class="st2" d="M342.9,228.9c-2.2,0-3.2-0.5-3.2-0.6l-0.1-0.1c-5.2-5.4-4.6-17.2-4.5-17.7c0-0.2,0.1-0.4,0.3-0.4
			c0,0,4.7-1.7,8.7-4.4c0.2-0.2,0.5-0.1,0.7,0.1c0.1,0.2,0.1,0.5-0.1,0.7c-3.5,2.4-7.5,4-8.6,4.4c-0.1,1.9-0.1,12,4.2,16.6
			c0.3,0.1,2.1,0.8,5.9,0.1c0.3-0.1,0.5,0.1,0.6,0.4c0,0.3-0.1,0.5-0.4,0.6C344.9,228.8,343.8,228.9,342.9,228.9L342.9,228.9z"/>
		<path class="st2" d="M284.9,210.2c-0.1,0-0.2-0.1-0.3-0.1c-0.2-0.2-0.2-0.5,0-0.7c2.1-2.2,7.1-1.9,14.7-1.5
			c3,0.2,6.4,0.3,10.2,0.4c5.3,0.1,9.5-0.5,12.9-0.9c5-0.6,8-1,9.8,1.2c0.2,0.2,0.1,0.5-0.1,0.7s-0.5,0.1-0.7-0.1
			c-1.5-1.8-4.3-1.4-8.9-0.9c-3.4,0.4-7.6,1-13,0.9c-3.8-0.1-7.2-0.2-10.3-0.4c-7.1-0.4-12.2-0.6-14,1.2
			C285.2,210.1,285.1,210.2,284.9,210.2L284.9,210.2z"/>
		<path class="st2" d="M300.7,239.4c-6.8,0-13.4-0.5-18.9-1.7c-0.3-0.1-0.4-0.3-0.4-0.6s0.3-0.4,0.6-0.4c18.5,4.1,50.5-0.2,56.5-3.3
			c0.2-0.1,0.5,0,0.7,0.2c0.1,0.2,0,0.6-0.2,0.7C334.7,236.5,317.1,239.4,300.7,239.4L300.7,239.4z"/>
		<path class="st3" d="M333.5,367.6c4.9,4.2,18.7-0.1,20.7-5.6c0,0,12.2,10.7,14.9,16.8c2.7,6.1-5.1,15.3-17.6,8.6
			c-9.8-5.3-15.1-9.5-16.9-11c-0.5-0.4-0.8-1-0.8-1.6L333.5,367.6z"/>
		<path class="st2" d="M359.3,386.3c-8.8,0-21.2-10.2-24.9-13.5c-0.2-0.2-0.2-0.5,0-0.7s0.5-0.2,0.7,0c3.7,3.2,16.3,13.6,24.8,13.2
			c5-0.3,7.3-1.8,8.3-3c0.2-0.2,0.5-0.2,0.7-0.1c0.2,0.2,0.2,0.5,0.1,0.7c-1.1,1.4-3.6,3.1-9,3.4
			C359.7,386.2,359.5,386.2,359.3,386.3L359.3,386.3z"/>
		<path class="st2" d="M338,375.6c-0.1,0-0.2,0-0.2-0.1c-0.2-0.1-0.3-0.4-0.2-0.7c0.9-1.7,0.3-4.1,0.3-4.1c-0.1-0.3,0.1-0.5,0.4-0.6
			s0.5,0.1,0.6,0.4c0,0.1,0.8,2.8-0.4,4.9C338.3,375.5,338.1,375.6,338,375.6L338,375.6z"/>
		<path class="st2" d="M350.9,371.8c-0.1,0-0.3,0-0.4-0.2c-0.2-0.2-0.2-0.5,0-0.7c4.4-4.1,11.3-5.7,11.6-5.8
			c0.3-0.1,0.5,0.1,0.6,0.4s-0.1,0.5-0.4,0.6c-0.1,0-6.9,1.7-11.1,5.6C351.1,371.8,351,371.8,350.9,371.8L350.9,371.8z"/>
		<path class="st2" d="M354.2,375c-0.1,0-0.3,0-0.4-0.2c-0.2-0.2-0.2-0.5,0-0.7c4.4-4.1,11.3-5.7,11.6-5.8c0.3-0.1,0.5,0.1,0.6,0.4
			s-0.1,0.5-0.4,0.6c-0.1,0-6.9,1.7-11.1,5.6C354.5,375,354.4,375,354.2,375L354.2,375z"/>
		<path class="st3" d="M290.2,367.6c-4.9,4.2-18.7-0.1-20.7-5.6c0,0-12.2,10.7-14.9,16.8s5.1,15.3,17.6,8.6
			c9.8-5.3,15.1-9.5,16.9-11c0.5-0.4,0.8-1,0.8-1.6L290.2,367.6z"/>
		<path class="st2" d="M264.4,386.3c-0.2,0-0.4,0-0.6,0c-5.4-0.3-7.8-2-9-3.4c-0.2-0.2-0.1-0.5,0.1-0.7c0.2-0.2,0.5-0.1,0.7,0.1
			c1,1.2,3.3,2.7,8.3,3c8.4,0.4,21.1-10,24.8-13.2c0.2-0.2,0.5-0.2,0.7,0s0.2,0.5,0,0.7C285.6,376,273.1,386.3,264.4,386.3
			L264.4,386.3z"/>
		<path class="st2" d="M285.8,375.6c-0.2,0-0.4-0.1-0.4-0.3c-1.1-2.1-0.4-4.8-0.4-4.9c0.1-0.3,0.4-0.4,0.6-0.4
			c0.3,0.1,0.4,0.4,0.4,0.6c0,0-0.6,2.4,0.3,4.1c0.1,0.2,0,0.5-0.2,0.7C285.9,375.6,285.8,375.6,285.8,375.6L285.8,375.6z"/>
		<path class="st2" d="M272.8,371.8c-0.1,0-0.2,0-0.3-0.1c-4.2-3.9-11.1-5.5-11.1-5.6c-0.3-0.1-0.4-0.3-0.4-0.6
			c0.1-0.3,0.3-0.4,0.6-0.4c0.3,0.1,7.2,1.7,11.6,5.8c0.2,0.2,0.2,0.5,0,0.7C273.1,371.8,272.9,371.9,272.8,371.8L272.8,371.8z"/>
		<path class="st2" d="M269.5,375c-0.1,0-0.2,0-0.3-0.1c-4.2-3.9-11-5.5-11.1-5.6c-0.3-0.1-0.4-0.3-0.4-0.6c0.1-0.3,0.3-0.4,0.6-0.4
			c0.3,0.1,7.2,1.7,11.6,5.8c0.2,0.2,0.2,0.5,0,0.7S269.6,375,269.5,375L269.5,375z"/>
		<path class="st2" d="M306.9,271.1c-0.1,0-0.3-0.1-0.4-0.2l-9.2-10.5c-0.2-0.2-0.2-0.5,0-0.7s0.5-0.2,0.7,0l9.2,10.5
			c0.2,0.2,0.2,0.5,0,0.7C307.2,271.1,307.1,271.1,306.9,271.1L306.9,271.1z"/>
		<path class="st4" d="M278.1,172.6c0,0.8-0.5,1.6-1.1,1.9h-0.1c0,0.2,0.1,0.3,0.1,0.5c0,0.7-0.4,1.4-1,1.9c0.3,0.4,0.6,1,0.7,1.5
			c0.2,0.8,0,1.7-0.7,2c-0.8,0.3-1.6-0.3-2.3-0.8c-1.7-1.2-3.8-1.8-5.8-1.7l-7.6,7.1c0,0-1.9,0.4-4.4-2.6
			c-2.5-2.9,2.2-10.4,5.2-12.2c3-1.9,8.9-3.2,8.9-3.2c1.1-0.3,2.3-0.5,3.5-0.5s2.4,0.2,3.4,0.9c0.2,0.1,0.4,0.3,0.5,0.5
			s0.2,0.4,0.2,0.6c0.1,0.7-0.2,1.4-0.7,1.9c0.1,0.1,0.3,0.3,0.4,0.4C277.7,171.4,278.1,172,278.1,172.6L278.1,172.6z"/>
		<path class="st2" d="M260.1,185.7c-0.7,0-2.4-0.3-4.5-2.8c-0.7-0.9-1-2-0.7-3.5c0.5-3.5,3.7-8,6-9.5c3-1.9,8.8-3.2,9-3.2
			c1.2-0.3,2.4-0.5,3.6-0.5c1.4,0,2.7,0.3,3.7,1c0.2,0.1,0.5,0.4,0.6,0.6c0.1,0.2,0.2,0.5,0.2,0.9c0,0.6-0.1,1.3-0.5,1.9l0.1,0.1
			c0.6,0.6,0.9,1.3,0.9,2c0,0.9-0.4,1.7-1.2,2.2c0,0.1,0,0.1,0,0.2c0,0.7-0.3,1.5-0.8,2c0.2,0.4,0.4,0.9,0.5,1.3
			c0.2,1-0.1,2.2-1,2.6c-1,0.4-1.9-0.3-2.6-0.8l-0.1-0.1c-1.5-1.1-3.4-1.7-5.3-1.6l-7.4,7c-0.1,0.1-0.1,0.1-0.2,0.1
			C260.3,185.6,260.2,185.7,260.1,185.7L260.1,185.7z M273.6,167.1L273.6,167.1c-1.2,0-2.4,0.3-3.5,0.5c-0.1,0-5.9,1.3-8.7,3.1
			c-2.1,1.3-5.1,5.6-5.6,8.8c-0.2,1.2,0,2.1,0.5,2.7c1.9,2.2,3.3,2.4,3.8,2.4l7.4-7c0.1-0.1,0.2-0.1,0.3-0.1
			c2.2-0.1,4.4,0.6,6.1,1.8l0.1,0.1c0.6,0.4,1.2,0.9,1.7,0.6c0.5-0.2,0.6-0.9,0.5-1.5c-0.1-0.5-0.3-0.9-0.6-1.3
			c-0.1-0.1-0.1-0.2-0.1-0.4c0-0.1,0.1-0.2,0.2-0.3c0.5-0.4,0.8-0.9,0.8-1.4c0-0.1,0-0.3-0.1-0.4c-0.1-0.3,0.1-0.5,0.3-0.6
			c0.6-0.3,0.9-0.9,0.9-1.4l0,0c0-0.4-0.2-0.9-0.7-1.3c-0.1-0.1-0.2-0.2-0.3-0.3l-0.1-0.1c-0.2-0.2-0.2-0.5,0-0.7
			c0.4-0.4,0.6-1,0.6-1.5c0-0.2,0-0.3-0.1-0.4c-0.1-0.1-0.2-0.2-0.4-0.3C275.6,167.3,274.4,167.2,273.6,167.1L273.6,167.1z"/>
		<path class="st2" d="M267.8,177.5c-1.9,0-3.7,0.5-5.3,1.5c-0.5,0.3,0,1.2,0.5,0.9c1.4-0.9,3.1-1.4,4.8-1.4
			C268.5,178.5,268.5,177.5,267.8,177.5L267.8,177.5L267.8,177.5z"/>
		<path class="st2" d="M263.5,177.2c3.4-1.7,9.3-3.5,12.1,0.1c0.4,0.5,1.1-0.2,0.7-0.7c-3.1-4-9.5-2.2-13.3-0.3
			C262.4,176.6,262.9,177.4,263.5,177.2L263.5,177.2L263.5,177.2z"/>
		<path class="st2" d="M265.8,173.3c2-0.6,4-1.1,6-1.2c1-0.1,1.9-0.1,2.8,0.5c0.8,0.5,1.5,1.2,1.8,2.1c0.2,0.6,1.1,0.4,1-0.3
			c-0.6-2-2.6-3.4-4.7-3.4c-2.4,0.1-4.8,0.6-7.1,1.3C264.9,172.6,265.2,173.5,265.8,173.3L265.8,173.3L265.8,173.3z"/>
		<path class="st2" d="M276.8,170.1L276.8,170.1l0.3,0.1c-2.6-2.1-6-1.5-9-0.8c-0.6,0.1-0.4,1.1,0.3,1c1.6-0.4,3.1-0.7,4.8-0.6
			c0.7,0,1.3,0.2,2,0.4c0.3,0.1,0.6,0.3,0.9,0.4c0.2,0.1,0.5,0.5,0.8,0.5C277.5,171.1,277.5,170.1,276.8,170.1L276.8,170.1
			L276.8,170.1z"/>
	</g>
	<g id="character-4_00000024688126653978231300000008336423674044189607_">
		<path class="st2" d="M205.1,382.4L205.1,382.4c-0.8,0-1.4-0.6-1.4-1.4l-2.1-75.1h7.2l-2.1,75C206.5,381.8,205.9,382.4,205.1,382.4
			L205.1,382.4z"/>
		<path class="st2" d="M205.1,382.9c-1.1,0-1.9-0.8-1.9-1.9l-2.2-75c0-0.1,0.1-0.3,0.1-0.4s0.2-0.1,0.4-0.1h7.2c0.1,0,0.3,0,0.4,0.1
			s0.1,0.2,0.1,0.4l-2.1,75C207,382.1,206.2,382.9,205.1,382.9L205.1,382.9z M202,306.4l2.1,74.5c0,0.5,0.4,0.9,0.9,0.9
			s0.9-0.4,0.9-0.9l2.1-74.5H202L202,306.4z"/>
		<path class="st2" d="M164.7,375.6L164.7,375.6c-0.8,0-1.4-0.6-1.4-1.4l-2.1-75h7.2l-2.1,75C166.1,375,165.5,375.6,164.7,375.6
			L164.7,375.6z"/>
		<path class="st2" d="M164.7,376.1c-1.1,0-1.9-0.8-1.9-1.9l-2.1-75c0-0.1,0.1-0.3,0.1-0.4s0.2-0.1,0.4-0.1h7.2c0.1,0,0.3,0,0.4,0.1
			c0.1,0.1,0.2,0.2,0.1,0.4l-2.1,75C166.6,375.3,165.7,376.1,164.7,376.1L164.7,376.1z M161.6,299.7l2.1,74.5c0,0.5,0.4,0.9,0.9,0.9
			s0.9-0.4,0.9-0.9l2.1-74.5H161.6z"/>
		<path class="st2" d="M188.7,363.6L188.7,363.6c-0.8,0-1.4-0.6-1.4-1.4l-2.1-75h7.2l-2.1,75C190.1,362.9,189.5,363.6,188.7,363.6
			L188.7,363.6z"/>
		<path class="st2" d="M188.7,364.1c-1.1,0-1.9-0.8-1.9-1.9l-2.1-75c0-0.1,0.1-0.3,0.1-0.4s0.2-0.1,0.4-0.1h7.2c0.1,0,0.3,0,0.4,0.1
			s0.1,0.2,0.1,0.4l-2.1,75C190.6,363.2,189.8,364.1,188.7,364.1L188.7,364.1z M185.6,287.6l2.1,74.5c0,0.5,0.4,0.9,0.9,0.9
			s0.9-0.4,0.9-0.9l2.1-74.5H185.6L185.6,287.6z"/>
		<path class="st4" d="M218.1,308.5c0,0-20.2,1.5-40.1,0s-25.4-13.4-27.8-38.6c-2.4-25.2-3.9-62.7,12.3-70.7s39.2-15.6,44.4,3.7
			S218.1,308.5,218.1,308.5z"/>
		<path class="st2" d="M197.2,309.7c-5.9,0-12.6-0.2-19.2-0.7c-20.8-1.6-26-15-28.3-39c-3.9-41.8,0.2-65.1,12.6-71.2
			c16.5-8.1,28.8-10.4,36.6-6.9c4.2,1.9,7.1,5.6,8.5,10.9c5.1,19.2,11.1,104.8,11.2,105.7c0,0.3-0.2,0.5-0.5,0.5
			C218,309,209,309.7,197.2,309.7z M190.7,191.3c-7.2,0-16.7,2.8-27.9,8.4c-12,5.9-15.9,28.9-12,70.2c2.3,24.1,7.1,36.6,27.4,38.1
			c17.9,1.4,36.2,0.2,39.5,0c-0.5-7.1-6.2-86.7-11.1-105c-1.3-5-4-8.5-8-10.3C196.3,191.8,193.7,191.3,190.7,191.3L190.7,191.3z"/>
		<path class="st2" d="M215.1,301.1c0,0-27.6,0-39.8-10.5c-12.3-10.5-17.7-68.1-8.2-76.3s43.8,16.8,43.8,16.8L215.1,301.1
			L215.1,301.1z"/>
		<path class="st2" d="M215.1,301.6L215.1,301.6c-0.1,0-7,0-15.4-1.3c-11.3-1.8-19.6-4.9-24.8-9.3c-8.1-6.9-13.2-33.1-13.2-53.5
			c0-7.1,0.6-19.7,5-23.5c9.7-8.4,43,15.8,44.4,16.8c0.1,0.1,0.2,0.2,0.2,0.4l4.2,70c0,0.1,0,0.3-0.1,0.4
			C215.4,301.6,215.3,301.6,215.1,301.6z M172.4,213.1c-2,0-3.8,0.5-5,1.6c-3,2.6-4.7,10.9-4.7,22.8c0.1,20.2,5.2,46.2,12.8,52.8
			c11.1,9.5,35.1,10.3,39,10.4l-4.2-69.2C208,229.7,184.6,213.1,172.4,213.1L172.4,213.1z"/>
		<path class="st3" d="M227.5,351.1c3.8,4.5,16.9,2.7,19.5-1.9c0,0,9.3,11.5,10.8,17.4s-6.9,13-17.1,5c-8-6.2-12.1-10.8-13.5-12.5
			c-0.4-0.5-0.5-1-0.5-1.6L227.5,351.1L227.5,351.1z"/>
		<path class="st2" d="M250.8,372.1c-0.7,0-1.6,0-2.4-0.1c-7.8-0.9-17.2-11.5-20.8-16c-0.2-0.2-0.1-0.5,0.1-0.7s0.5-0.1,0.7,0.1
			c2.8,3.5,12.6,14.8,20.2,15.6c4.8,0.5,7-0.6,7.9-1.4c0.2-0.2,0.5-0.2,0.7,0.1c0.2,0.2,0.1,0.5-0.1,0.7
			C256,371.1,254.2,372.1,250.8,372.1L250.8,372.1z"/>
		<path class="st2" d="M230.4,359c-0.1,0-0.2,0-0.3-0.1c-0.2-0.2-0.3-0.5-0.1-0.7c1.1-1.4,0.9-3.6,0.9-3.6c0-0.3,0.2-0.5,0.4-0.5
			s0.5,0.2,0.6,0.5c0,0.1,0.2,2.6-1.1,4.4C230.7,358.9,230.6,359,230.4,359z"/>
		<path class="st2" d="M242.6,357.6c-0.2,0-0.3-0.1-0.4-0.2c-0.1-0.2-0.1-0.5,0.1-0.7c4.6-3,11-3.4,11.3-3.5c0.3,0,0.5,0.2,0.5,0.5
			s-0.2,0.5-0.5,0.5c-0.1,0-6.5,0.4-10.8,3.3C242.8,357.6,242.7,357.6,242.6,357.6L242.6,357.6z"/>
		<path class="st2" d="M245.1,361c-0.2,0-0.3-0.1-0.4-0.2c-0.1-0.2-0.1-0.5,0.1-0.7c4.6-3,11-3.4,11.3-3.5c0.3,0,0.5,0.2,0.5,0.5
			s-0.2,0.5-0.5,0.5c-0.1,0-6.5,0.4-10.8,3.3C245.3,360.9,245.2,361,245.1,361L245.1,361z"/>
		<path class="st4" d="M173,264.5c1.2,17.6,5.5,32.7,42.2,36.6l3,73c0,0,11.1,3.3,28.1,0l1.2-28c0,0,11.4-18.4,15.7-39.5
			c4.3-21.1-1.2-29.5-13.7-37.6c-12.5-8.2-20.4-10.8-20.4-10.8L173,264.5L173,264.5z"/>
		<path class="st2" d="M231.5,376.1c-8.4,0-13.4-1.5-13.5-1.5c-0.2-0.1-0.4-0.2-0.4-0.5l-3-72.6c-36.8-4.1-41-19.8-42.2-37
			c0-0.3,0.2-0.5,0.4-0.5l56-6.4c0.1,0,0.1,0,0.2,0c0.1,0,8.1,2.8,20.5,10.9s18.3,16.6,13.9,38.2c-4.1,20.1-14.7,38-15.7,39.6
			l-1.2,27.9c0,0.2-0.2,0.4-0.4,0.5C240.7,375.7,235.6,376.1,231.5,376.1L231.5,376.1z M218.6,373.8c2,0.5,12.3,2.8,27.2,0l1.2-27.6
			c0-0.1,0-0.2,0.1-0.2c0.1-0.2,11.4-18.6,15.6-39.4c4.3-21.1-1.2-29.1-13.5-37.1c-11.6-7.5-19.2-10.4-20.2-10.7l-55.4,6.3
			c1.3,17.3,5.5,31.8,41.7,35.7c0.2,0,0.4,0.2,0.4,0.5L218.6,373.8L218.6,373.8z"/>
		<path class="st6" d="M198.8,278c0,0-3.4,2.9-8.3,1.2s-23.6-12.2-29.2-24.6c-5.5-12.4-2.9-45.9,11.7-56.7
			c14.6-10.8,37.7-12.3,48-3.3c10.4,9,14.9,35.1,15.7,45.8s-2.4,20-2.4,20l-3.3-0.8c0,0-13.2,7.9-25.4,9.3L198.8,278L198.8,278z"/>
		<path class="st4" d="M189.3,152.6c-6.6-3.8-16.3-2.4-20.9,7.5s-1.7,23-3.6,29.6c-1.9,6.6-9.2,9.6-9.5,12.4s8.8-3,12.6-3.5
			s21.1-9.2,24.1-19.5S189.3,152.6,189.3,152.6L189.3,152.6z"/>
		<path class="st2" d="M156,203.4c-0.4,0-0.6-0.1-0.9-0.2c-0.2-0.2-0.5-0.5-0.4-1.1c0.1-1.4,1.5-2.6,3.3-4.2
			c2.3-2.1,5.2-4.6,6.2-8.3c0.7-2.5,0.7-5.9,0.7-9.9c0-6.4,0-13.6,2.9-19.7c2.1-4.6,5.4-7.7,9.6-9c3.9-1.3,8.3-0.8,12,1.3
			c0.1,0.1,0.2,0.2,0.2,0.3c0.2,0.7,5.6,16.6,2.6,26.9c-3.1,10.6-20.6,19.4-24.5,19.9c-1.4,0.2-3.7,1.2-5.9,2.2
			C159.1,202.6,157.2,203.4,156,203.4L156,203.4z M182,151.2c-1.4,0-2.8,0.2-4.2,0.6c-3.9,1.2-7,4.2-9,8.5c-2.8,6-2.8,13.1-2.8,19.3
			c0,4.1,0,7.6-0.8,10.2c-1.1,4-4.1,6.6-6.5,8.8c-1.6,1.4-2.9,2.6-3,3.6c0,0.1,0,0.2,0,0.2c0.5,0.4,3.8-1.1,5.8-1.9
			c2.3-1,4.7-2.1,6.2-2.3c3.6-0.5,20.7-9.1,23.7-19.1c2.8-9.4-1.9-24.3-2.5-26.1C186.7,151.8,184.3,151.2,182,151.2L182,151.2z"/>
		<path class="st4" d="M192.5,185.8c-25.7-6.9-13.8-25.8-6.4-34s21.4-5.9,21.4-5.9c3.2-2.9,9.5-2.4,12.4,5.2s0,14.2,0,14.2
			L192.5,185.8L192.5,185.8z"/>
		<path class="st2" d="M192.5,186.3h-0.1c-8.7-2.3-14-6.3-15.6-11.7c-2.7-9.3,6.2-20,9-23.1c7.1-7.8,19.7-6.4,21.6-6.1
			c1.7-1.4,4-1.9,6.2-1.4c3,0.7,5.4,3.2,6.9,7c3,7.7,0.1,14.3,0,14.6c0,0.1-0.1,0.1-0.2,0.2l-27.5,20.4
			C192.7,186.2,192.6,186.3,192.5,186.3L192.5,186.3z M203.2,146.1c-4.6,0-12,0.9-16.7,6c-2.7,3-11.3,13.3-8.7,22.1
			c1.5,5,6.4,8.7,14.6,11l27.2-20.2c0.4-0.9,2.5-7-0.1-13.7c-1.3-3.5-3.5-5.7-6.2-6.4c-2-0.5-4,0-5.4,1.3c-0.1,0.1-0.3,0.1-0.4,0.1
			C207.4,146.4,205.7,146.1,203.2,146.1L203.2,146.1z"/>
		<path class="st4" d="M191.9,177.7c-0.2,6.4-0.9,13.9-0.9,13.9s1.7,6,8.1,6.4c6.4,0.4,6.4-5,6.4-6.1s-1-4.7-1.2-5.9
			S191.9,177.7,191.9,177.7L191.9,177.7z"/>
		<path class="st2" d="M199.6,198.5c-0.2,0-0.4,0-0.6,0c-6.6-0.4-8.5-6.7-8.5-6.8s0-0.1,0-0.2c0-0.1,0.8-7.6,0.9-13.9
			c0-0.2,0.1-0.3,0.3-0.4c0.1-0.1,0.3-0.1,0.5,0c4.6,2.7,12.3,7.4,12.5,8.6c0.1,0.5,0.3,1.3,0.5,2.3c0.4,1.5,0.7,3,0.7,3.7
			c0,1-0.1,3.4-1.8,5.1C203.1,198,201.5,198.5,199.6,198.5L199.6,198.5z M191.5,191.6c0.2,0.8,2,5.6,7.6,6c1.9,0.1,3.4-0.3,4.4-1.3
			c1.5-1.4,1.5-3.7,1.5-4.4c0-0.6-0.4-2.2-0.7-3.5c-0.2-0.9-0.4-1.8-0.5-2.4c-0.4-0.7-5.9-4.3-11.3-7.5
			C192.2,184.3,191.6,190.7,191.5,191.6L191.5,191.6z"/>
		<path class="st4" d="M217.7,158.3c0,0,6.9,16.3,0.6,23.5c-6.3,7.3-23.4,7.2-29.1-3.6c0,0-3.2,4.1-6.3,0.2s0.2-8.6,5-6.8
			c0,0,1.4-4.6,9.6-8.1c8.2-3.4,12.2-9.1,12.2-9.1S211.5,157.3,217.7,158.3L217.7,158.3z"/>
		<path class="st2" d="M205.4,187.3c-0.9,0-1.7-0.1-2.6-0.1c-6.1-0.7-11-3.6-13.6-8.1c-0.6,0.6-1.8,1.5-3.2,1.5
			c-1.2,0-2.4-0.6-3.4-1.9c-1.6-1.9-1.8-4.3-0.5-6.1c1.2-1.7,3.4-2.3,5.6-1.7c0.6-1.3,2.8-5,9.7-7.9c8-3.3,12-8.9,12-8.9
			c0.1-0.1,0.3-0.2,0.4-0.2s0.3,0.1,0.4,0.2c0,0,1.7,2.6,7.6,3.6c0.2,0,0.3,0.1,0.4,0.3c0.3,0.7,6.9,16.6,0.5,24.1
			C215.9,185.4,210.8,187.3,205.4,187.3L205.4,187.3z M189.2,177.7L189.2,177.7c0.2,0,0.4,0.1,0.4,0.3c2.4,4.6,7.2,7.6,13.2,8.2
			c6.1,0.7,12-1.2,15.1-4.7c5.6-6.5,0.2-20.7-0.6-22.8c-4.6-0.8-6.8-2.6-7.6-3.5c-1.2,1.5-5.1,5.8-12,8.7c-7.9,3.3-9.4,7.7-9.4,7.8
			s-0.1,0.2-0.3,0.3c-0.1,0.1-0.3,0.1-0.4,0c-2-0.7-3.9-0.3-5,1.2c-0.8,1.1-1.1,3,0.5,4.9c0.8,1,1.7,1.5,2.6,1.5
			c1.6,0,2.9-1.7,2.9-1.7C188.9,177.8,189.1,177.7,189.2,177.7L189.2,177.7z"/>
		<path class="st2" d="M203.1,167.4c-0.8,0.1-2,0.1-2.8,0.2c-0.9,0.1-1.8,0.3-2.8,0.4c-0.3,0-0.5-0.2-0.6-0.5c0-0.2,0.1-0.3,0.2-0.4
			c1.3-1.1,3.1-1.4,4.7-1.2c0.6,0.1,2.2,0.3,1.8,1.2C203.5,167.3,203.3,167.4,203.1,167.4L203.1,167.4L203.1,167.4z"/>
		<path class="st2" d="M217.5,163.8l-3.2,0.8c-1.1,0.3-2.1,0.6-3.3,0.7c-0.3,0-0.5-0.1-0.6-0.4c0-0.2,0.1-0.4,0.2-0.5
			c2-1.4,4.5-2,6.9-1.6C218.1,162.9,218.1,163.8,217.5,163.8L217.5,163.8L217.5,163.8z"/>
		<path class="st2" d="M212.6,175c-1.2,0-2.6-0.9-2.8-2.4c0-0.3,0.2-0.5,0.4-0.6s0.5,0.2,0.6,0.4c0.1,0.9,1,1.5,1.8,1.5l0,0
			c0.4,0,1.1-0.2,1.1-1.2c0-0.4-0.1-0.6-0.3-0.8c-0.5-0.5-1.8-0.5-2.2-0.5c-0.3,0-0.5-0.2-0.5-0.4c0-0.1-0.5-2.8-0.4-6.3
			c0-0.3,0.3-0.5,0.5-0.5c0.3,0,0.5,0.2,0.5,0.5c-0.1,2.6,0.2,4.8,0.3,5.7l0,0c0.6,0,1.8,0.1,2.5,0.8c0.4,0.4,0.6,0.9,0.6,1.6
			C214.7,174.2,213.8,175,212.6,175L212.6,175L212.6,175z"/>
		<path class="st2" d="M200.3,171.4c0.2,1,1,1.7,1.7,1.5s1.1-1.1,0.8-2.1c-0.1-0.3-0.2-0.6-0.3-0.8l-1,0.9l0.2-1.6
			c-0.2-0.1-0.3-0.1-0.5,0C200.4,169.5,200.1,170.4,200.3,171.4L200.3,171.4z"/>
		<path class="st2" d="M214,168.2c0.2,1,1,1.7,1.7,1.5s1.1-1.1,0.8-2.1c-0.1-0.3-0.2-0.6-0.3-0.8l-1,0.9l0.2-1.6
			c-0.2-0.1-0.3-0.1-0.5,0C214.2,166.3,213.8,167.2,214,168.2L214,168.2z"/>
		<path class="st2" d="M208.3,180.6c-0.1,0-0.2,0-0.4,0c-1.1-0.1-2-0.9-2.5-2c-0.1-0.2,0-0.6,0.2-0.7s0.6,0,0.7,0.2
			c0.4,0.8,1,1.4,1.7,1.4c0.8,0.1,1.7-0.4,2.6-1.3c0.2-0.2,0.5-0.2,0.7-0.1c0.2,0.2,0.2,0.5,0.1,0.7
			C210.5,180,209.4,180.6,208.3,180.6L208.3,180.6z"/>
		<path class="st2" d="M183.5,176.1h-0.1c-0.3-0.1-0.4-0.3-0.4-0.6c0.2-0.9,0.6-1.6,1.3-2c1.3-0.8,2.9-0.3,3-0.3
			c0.3,0.1,0.4,0.4,0.3,0.6s-0.4,0.4-0.6,0.3c0,0-1.3-0.4-2.2,0.2c-0.4,0.3-0.7,0.7-0.9,1.4C183.9,175.9,183.7,176.1,183.5,176.1z"
			/>
		<path class="st2" d="M186.3,178.3C186.3,178.3,186.2,178.3,186.3,178.3c-0.8-0.1-1.4-0.5-1.8-1.2c-0.7-1.1-0.7-2.7-0.5-3.4
			c0.1-0.3,0.4-0.4,0.6-0.3c0.3,0.1,0.4,0.4,0.3,0.6c-0.1,0.4-0.1,1.7,0.4,2.5c0.3,0.4,0.6,0.7,1,0.7c0.3,0,0.5,0.3,0.4,0.6
			C186.7,178.1,186.5,178.3,186.3,178.3L186.3,178.3z"/>
		<path class="st4" d="M222.8,283.1c-0.7,0.5-1.7,0-2.4-0.5c-2.7-1.8-5.6-3.4-8.6-4.6c3.1,1.3,5.7,3.6,7.4,6.5
			c0.3,0.5,0.5,1.1,0.2,1.6c-0.2,0.3-0.7,0.4-1.1,0.4c-1.4,0-2.8-0.7-4-1.5s-2.2-1.8-3.5-2.6c-1-0.6-2.1-1-3.3-1.2
			c1.9,1.5,3.4,3.3,4.6,5.4c0.3,0.6,0.7,1.3,0.4,1.9s-1,0.8-1.6,0.7c-0.6-0.1-1.2-0.5-1.7-0.9c-1.9-1.4-3.8-3-5.6-4.6
			c0.8,1.3,1.5,2.7,2.1,4.1c0.2,0.5,0.4,1.1,0.3,1.7c-0.1,0.6-0.5,1.1-1.1,1.2c-0.3,0-0.7-0.1-1-0.3c-2.1-1.1-3.1-3.5-3.9-5.7
			c-0.8-2.2-1.5-4.6-3.1-6.3c-0.9-0.9-2.1-1.6-2.9-2.6c5.9-6.8,11.5-6.8,11.6-6.8c4.1,1.6,12,1.4,12.7,4.1c0.4,1.6,0.2,2.6-0.1,3.2
			c1.9,1,3.6,2.4,4.7,4.2C223.4,281.3,223.7,282.6,222.8,283.1L222.8,283.1z"/>
		<path class="st2" d="M204.9,291.1c-0.4,0-0.8-0.2-1.1-0.3c-2.3-1.2-3.4-3.7-4.2-6l-0.3-0.8c-0.7-1.9-1.4-3.9-2.7-5.3
			c-0.4-0.4-0.8-0.8-1.3-1.1c-0.6-0.5-1.1-0.9-1.6-1.5c-0.2-0.2-0.2-0.5,0-0.7c6-6.9,11.7-7,11.9-7c0.1,0,0.1,0,0.2,0
			c1.5,0.6,3.6,1,5.6,1.3c3.5,0.6,6.9,1.1,7.4,3.1c0.4,1.4,0.3,2.4,0,3.1c1.9,1.1,3.5,2.5,4.5,4.1c0.7,1.1,0.9,2.7-0.2,3.4l0,0
			c-1.1,0.7-2.5-0.2-3-0.6c-0.9-0.6-1.8-1.2-2.7-1.7c0.9,0.9,1.6,1.9,2.2,3c0.5,0.9,0.6,1.6,0.1,2.1c-0.3,0.4-0.8,0.6-1.5,0.6
			c-1.3,0-2.7-0.5-4.2-1.6c-0.5-0.3-0.9-0.7-1.3-1c-0.7-0.5-1.4-1.1-2.1-1.5c-0.3-0.2-0.7-0.4-1.1-0.5c1.2,1.2,2.2,2.5,3.1,4
			c0.4,0.6,0.8,1.5,0.4,2.4c-0.4,0.8-1.4,1.1-2.2,0.9c-0.8-0.1-1.4-0.6-1.9-1c-1.1-0.9-2.3-1.8-3.5-2.7c0.3,0.5,0.5,1.1,0.7,1.7
			s0.4,1.2,0.3,1.9c-0.1,0.7-0.6,1.5-1.5,1.6C205,291.1,204.9,291.1,204.9,291.1L204.9,291.1z M194.7,275.8c0.4,0.4,0.8,0.7,1.2,1
			c0.5,0.4,1,0.8,1.4,1.2c1.5,1.5,2.2,3.6,2.9,5.6l0.3,0.8c0.7,2.1,1.8,4.3,3.7,5.4c0.2,0.1,0.4,0.2,0.7,0.2s0.6-0.4,0.6-0.8
			c0.1-0.5-0.1-1-0.3-1.4c-0.6-1.4-1.2-2.8-2-4c-0.1-0.2-0.1-0.5,0.1-0.6s0.5-0.2,0.7,0c1.8,1.7,3.7,3.2,5.6,4.6
			c0.4,0.3,0.9,0.7,1.5,0.8c0.4,0.1,0.9,0,1.1-0.4c0.2-0.3,0.1-0.8-0.3-1.5c-1.1-2-2.7-3.8-4.5-5.2c-0.2-0.1-0.2-0.4-0.1-0.6
			s0.3-0.3,0.6-0.3c1.3,0.2,2.4,0.7,3.5,1.3c0.8,0.5,1.5,1,2.2,1.6c0.4,0.3,0.9,0.7,1.3,1c1.4,1,2.5,1.4,3.7,1.4
			c0.2,0,0.5,0,0.7-0.2s0.1-0.5-0.2-1c-1.6-2.8-4.1-5-7.1-6.3c-0.2-0.1-0.4-0.4-0.3-0.6c0.1-0.2,0.4-0.4,0.6-0.3
			c3.1,1.2,6,2.8,8.7,4.6c0.9,0.6,1.5,0.8,1.9,0.5c0.6-0.4,0.2-1.5-0.1-2c-1-1.6-2.6-3-4.5-4c-0.1-0.1-0.2-0.2-0.2-0.3
			c0-0.1,0-0.3,0-0.4c0.3-0.5,0.5-1.4,0.1-2.8s-3.6-1.9-6.6-2.4c-2-0.3-4.1-0.7-5.7-1.3C204.8,269.5,199.9,270,194.7,275.8
			L194.7,275.8z M222.8,283.1L222.8,283.1L222.8,283.1z"/>
		<path class="st2" d="M218.4,275.8c-1-0.5-2-1-3.1-1.3c-1-0.3-2-0.5-3.1-0.7c-0.3,0-0.5,0.1-0.6,0.4c-0.1,0.2,0.1,0.6,0.4,0.6
			c1,0.2,2,0.4,3,0.7s2,0.8,2.9,1.2C218.4,276.9,219,276.1,218.4,275.8L218.4,275.8L218.4,275.8z"/>
		<path class="st2" d="M210.9,278.2c0.2,0.1,0.5,0.2,0.8,0.3c0.1,0,0.1,0,0.2,0c0.1,0,0.1,0,0.2-0.1c0.1-0.1,0.2-0.2,0.2-0.3
			c0-0.1,0-0.3-0.1-0.4l-0.1-0.1c-0.1-0.1-0.1-0.1-0.2-0.1c-0.2-0.1-0.5-0.2-0.8-0.3c-0.1,0-0.1,0-0.2,0c-0.1,0-0.1,0-0.2,0.1
			c-0.1,0.1-0.2,0.2-0.2,0.3c0,0.1,0,0.3,0.1,0.4l0.1,0.1C210.8,278.1,210.8,278.2,210.9,278.2L210.9,278.2z"/>
		<path class="st2" d="M204.3,266.2c-0.1,0-0.2,0-0.3-0.1l-24.2-19c-0.1-0.1-0.2-0.2-0.2-0.4s0.4-21.5-3.1-37.5
			c-0.1-0.3,0.1-0.5,0.4-0.6c0.3-0.1,0.5,0.1,0.6,0.4c3.3,15.2,3.2,35,3.2,37.5l24.1,18.8c0.2,0.2,0.3,0.5,0.1,0.7
			C204.6,266.1,204.5,266.2,204.3,266.2z"/>
		<path class="st2" d="M231,260.1c-0.2,0-0.5-0.2-0.5-0.5c0-0.4-3.9-37-7.4-54.5c-0.1-0.3,0.1-0.5,0.4-0.6c0.3-0.1,0.5,0.1,0.6,0.4
			c3.4,17.6,7.3,54.2,7.4,54.6C231.5,259.8,231.3,260.1,231,260.1L231,260.1L231,260.1z"/>
		<path class="st2" d="M247.4,346.7L247.4,346.7c-0.3,0-0.5-0.3-0.5-0.5c0-0.3,3-33.2,3.1-45.2c0.1-12.1-7.4-16.7-23-25.2
			c-0.2-0.1-0.3-0.4-0.2-0.7s0.4-0.3,0.7-0.2c16,8.7,23.7,13.5,23.5,26.1c-0.1,12.1-3.1,45-3.1,45.3
			C247.9,346.5,247.7,346.7,247.4,346.7L247.4,346.7z"/>
		<path class="st3" d="M219.3,376.3l-0.4,22.2c0,1.5,1.2,2.8,2.8,2.9l41,0.9c1.7,0,3.1-1.5,2.9-3.2l-0.1-1c0,0-1.9-19.3-22.2-21.1
			C243.3,377.2,233.2,379.7,219.3,376.3L219.3,376.3z"/>
		<path class="st2" d="M265,398.3L265,398.3l-45.5-1c-0.3,0-0.5-0.2-0.5-0.5s0.2-0.5,0.5-0.5l45.5,1c0.3,0,0.5,0.2,0.5,0.5
			C265.5,398.1,265.3,398.3,265,398.3z"/>
		<path class="st2" d="M230.5,397.5c-0.3,0-0.5-0.2-0.5-0.5c0-0.4-0.6-9.4-10.8-10.1c-0.3,0-0.5-0.3-0.5-0.5c0-0.3,0.3-0.5,0.5-0.5
			c11.1,0.8,11.8,11,11.8,11.1C231,397.3,230.8,397.5,230.5,397.5L230.5,397.5L230.5,397.5z"/>
		<path class="st2" d="M242.6,384.2c-0.1,0-0.3-0.1-0.4-0.2c-0.2-0.2-0.1-0.5,0.1-0.7l9.6-8c0.2-0.2,0.5-0.1,0.7,0.1
			s0.1,0.5-0.1,0.7l-9.6,8C242.8,384.1,242.7,384.2,242.6,384.2L242.6,384.2z"/>
		<path class="st2" d="M247.3,386c-0.1,0-0.3-0.1-0.4-0.2c-0.2-0.2-0.1-0.5,0.1-0.7l9.6-8c0.2-0.2,0.5-0.1,0.7,0.1s0.1,0.5-0.1,0.7
			l-9.6,8C247.5,386,247.4,386,247.3,386L247.3,386z"/>
		<path class="st4" d="M177.6,261.1c-0.2,0.8-0.9,1.5-1.7,1.5l-1.1-0.3c0.3,1.1,0.4,2.3,0,3.4c-0.4,1.2-1.7,2.3-3,2h-0.1
			c0,0,0,0,0,0.1c-0.4,1-1.4,1.8-2.5,1.6c0,0-1.2-0.2-2-1.7c-0.1,0.2-0.1,0.3-0.2,0.5c-0.2,0.3-0.4,0.6-0.7,0.7
			c-0.7,0.2-1.3-0.6-1.6-1.3c-0.6-1.4-1.2-2.8-1.8-4.2c-0.3-0.8-0.7-1.5-1.2-2.2c-0.6-0.7-1.5-1.2-2.3-1.7c-2.3-1.5-4.5-3.2-6.4-5.1
			c-0.8-0.8-1.6-1.7-1.7-2.8c0,0,7.4-4.6,11.6-10.2c3.5,0.8,7,1.7,10.2,3.3c0.6,0.3,1.3,0.7,1.7,1.3c0.5,0.8,0.6,1.8,0.2,2.7
			c-0.4,0.8-1.2,1.4-2.1,1.6l-0.2,0.1c2.2,2.5,3.8,5.4,4.8,8.6C177.6,259.4,177.8,260.3,177.6,261.1L177.6,261.1z"/>
		<path class="st2" d="M169.5,269.8c-0.1,0-0.3,0-0.4,0c0,0-1-0.2-1.8-1.2c-0.2,0.3-0.5,0.6-0.8,0.7c-0.9,0.3-1.7-0.3-2.2-1.6
			c-0.6-1.3-1.2-2.7-1.7-4l-0.1-0.1c-0.3-0.8-0.7-1.5-1.1-2s-1.1-1-1.8-1.4l-0.3-0.2c-2.4-1.5-4.5-3.2-6.5-5.2
			c-0.9-0.9-1.7-1.9-1.8-3.1c0-0.2,0.1-0.4,0.2-0.5c0.1,0,7.3-4.6,11.5-10.1c0.1-0.2,0.3-0.2,0.5-0.2c3.5,0.8,7.1,1.7,10.3,3.3
			c0.7,0.4,1.4,0.8,1.9,1.4c0.6,0.9,0.7,2.1,0.2,3.2c-0.4,0.8-1.1,1.4-1.9,1.8c2,2.4,3.5,5.2,4.4,8.1c0.3,0.8,0.5,1.7,0.3,2.6l0,0
			c-0.2,0.9-1.1,1.9-2.2,1.9h-0.1l-0.4-0.1c0.1,0.9,0.2,1.9-0.2,2.9c-0.5,1.3-1.8,2.5-3.3,2.4C171.5,269,170.6,269.8,169.5,269.8
			L169.5,269.8z M167.2,267.1c0.2,0,0.4,0.1,0.4,0.3c0.6,1.2,1.6,1.4,1.6,1.5c0.8,0.1,1.6-0.6,1.9-1.3v-0.1c0.1-0.2,0.4-0.3,0.6-0.2
			h0.1c1,0.2,2-0.7,2.3-1.7c0.3-0.8,0.3-1.8,0-3.1c0-0.2,0-0.4,0.1-0.5s0.3-0.2,0.5-0.1l1.1,0.3c0.5,0,1-0.6,1.1-1.1
			c0.2-0.7,0-1.4-0.2-2.1c-0.9-3-2.6-5.9-4.7-8.4c-0.1-0.1-0.2-0.3-0.1-0.5s0.2-0.3,0.4-0.3l0.2-0.1c0.8-0.2,1.5-0.7,1.8-1.4
			s0.3-1.6-0.1-2.1c-0.3-0.5-0.9-0.8-1.5-1.1c-3.1-1.6-6.5-2.4-9.8-3.2c-3.8,5-9.9,9-11.2,9.9c0.2,0.9,0.9,1.6,1.5,2.2
			c1.9,1.9,4.1,3.6,6.3,5.1l0.3,0.2c0.7,0.4,1.5,0.9,2.1,1.6s0.9,1.5,1.3,2.2l0.1,0.2c0.6,1.3,1.2,2.7,1.7,4c0.3,0.6,0.7,1.1,1,1
			c0.1,0,0.3-0.2,0.4-0.5c0.1-0.1,0.1-0.2,0.2-0.4l0.1-0.1C166.8,267.2,167,267.1,167.2,267.1L167.2,267.1L167.2,267.1z
			 M177.6,261.1L177.6,261.1L177.6,261.1z"/>
		<path class="st2" d="M172.9,249.8c-1.5-1.6-3.1-3.1-5-4.3c-0.5-0.4-1,0.5-0.5,0.9c1.8,1.1,3.4,2.6,4.8,4.1
			C172.6,251,173.3,250.3,172.9,249.8L172.9,249.8L172.9,249.8z"/>
		<path class="st2" d="M169.5,252.5c2.3,2.9,4,6.3,4.8,9.8c0.1,0.6,1.1,0.4,1-0.3c-0.9-3.8-2.6-7.3-5-10.3
			C169.8,251.3,169.1,252,169.5,252.5L169.5,252.5z"/>
		<path class="st2" d="M167.8,255.7c1.1,1.8,2,3.7,2.6,5.7c0.3,1,0.6,1.9,0.8,2.9c0.2,1.1,0.4,2.1,0.1,3.2c-0.2,0.6,0.8,0.9,1,0.3
			c0.6-2-0.1-4.5-0.8-6.4c-0.7-2.1-1.6-4.2-2.8-6.1C168.3,254.6,167.4,255.1,167.8,255.7L167.8,255.7L167.8,255.7z"/>
		<path class="st2" d="M164.4,258.1c1.2,1.1,1.8,2.7,2.3,4.3c0.5,1.7,0.7,3.5,0.1,5.1c-0.2,0.6,0.7,0.9,1,0.3
			c0.7-1.8,0.5-3.8-0.1-5.6c-0.5-1.7-1.2-3.5-2.5-4.7C164.6,256.9,163.9,257.6,164.4,258.1L164.4,258.1L164.4,258.1z"/>
		<path class="st6" d="M139.1,244c4.5,9.9,10,10,12.6,8.8c0,0,12-7.1,13-11.1c0,0-10.4-14.5-11.8-34.6"/>
		<path class="st2" d="M149.2,253.8c-0.8,0-1.7-0.1-2.5-0.4c-3.1-1.1-5.9-4.2-8.1-9.1c-0.1-0.2,0-0.6,0.2-0.7c0.2-0.1,0.6,0,0.7,0.2
			c2.7,5.8,5.6,7.9,7.6,8.6c2.2,0.8,3.8,0.2,4.4-0.1c3.2-1.9,11.6-7.4,12.7-10.6c-1.3-1.9-10.4-15.9-11.8-34.6
			c0-0.3,0.2-0.5,0.5-0.5s0.5,0.2,0.5,0.5c1.4,19.7,11.6,34.1,11.8,34.3c0.1,0.1,0.1,0.3,0.1,0.4c-1.1,4.1-12.8,11.1-13.3,11.4
			C151.1,253.6,150.2,253.8,149.2,253.8L149.2,253.8z"/>
	</g>
	<g id="character-5_00000127010653285285356340000012776636500014953879_">
		<path class="st4" d="M529.1,378.5l-0.5,0.3l0,0c0.5,0.6,0.8,1.5,0.4,2.2c-0.4,0.6-1.2,0.8-1.9,0.8l-0.3,0.1c0,0,0,0.1,0.1,0.1
			c0.2,0.5,0.4,1.1,0.2,1.6s-0.7,1-1.2,1l-0.8,0.2c0.2,0.2,0.2,0.5,0.3,0.8c0.1,0.7-0.4,1.3-1,1.6c-0.6,0.3-1.3,0.3-2,0.3
			c-1.3,0-2.6-0.3-3.8-0.5c-3.5-0.7-6.9-1.3-10.4-2c1.1,1.7,2.4,3.2,4,4.5c0.7,0.6,1.5,1.4,1,2.2c-0.1,0.3-0.4,0.5-0.6,0.6
			c-2.6,1.6-6,0.5-8.2-1.6c-1-0.9-1.7-2-2.4-3.2c-2.1-3.3-4.8-5.7-7.3-8.7c0,0,8.8-6.8,13.6-6.1c6.3-0.7,12.9-1.2,18.9,1
			c1.1,0.4,2.2,0.9,2.7,1.9C530.4,376.6,530.1,378.1,529.1,378.5L529.1,378.5z"/>
		<path class="st2" d="M509.7,393.6c-2.1,0-4.3-1.1-5.8-2.5c-1-0.9-1.6-2-2.3-3l-0.1-0.2c-1.4-2.3-3.1-4.1-4.9-6
			c-0.8-0.9-1.6-1.7-2.4-2.7c-0.1-0.1-0.1-0.2-0.1-0.4s0.1-0.3,0.2-0.3c0.4-0.3,9-6.8,13.9-6.2c7-0.7,13.2-1.2,19.1,1
			c1,0.4,2.3,1,3,2.1c0.4,0.7,0.5,1.6,0.2,2.3c-0.2,0.6-0.6,1.1-1.1,1.3h-0.1c0.5,0.8,0.5,1.7,0.1,2.3c-0.3,0.6-1,0.9-1.9,1
			c0.2,0.5,0.2,1,0.1,1.5c-0.2,0.8-0.9,1.3-1.6,1.3h-0.2c0,0.1,0.1,0.3,0.1,0.4c0.1,0.8-0.5,1.7-1.3,2.1c-0.7,0.4-1.5,0.4-2.2,0.4
			c-1.3,0-2.5-0.3-3.8-0.5l-9.4-1.8c0.9,1.3,2,2.4,3.2,3.5c0.5,0.4,1.8,1.6,1.2,2.8c-0.2,0.4-0.5,0.6-0.8,0.8
			C511.7,393.4,510.7,393.6,509.7,393.6L509.7,393.6z M495.2,378.9c0.7,0.8,1.4,1.5,2,2.2c1.8,2,3.5,3.8,5,6.1l0.1,0.2
			c0.6,1,1.3,2,2.1,2.8c2,1.8,5.2,3.1,7.6,1.5c0.2-0.1,0.4-0.2,0.5-0.4c0.2-0.4-0.1-0.9-0.9-1.6c-1.6-1.4-2.9-2.9-4-4.6
			c-0.1-0.2-0.1-0.4,0-0.5c0.1-0.2,0.3-0.2,0.5-0.2l10.6,2c1.2,0.2,2.4,0.5,3.6,0.5c0.6,0,1.2,0,1.8-0.3c0.4-0.2,0.8-0.6,0.8-1.1
			c0-0.2-0.1-0.3-0.2-0.5c-0.1-0.1-0.1-0.3,0-0.5c0.1-0.1,0.2-0.3,0.3-0.3l0.8-0.2c0,0,0.1,0,0.2,0c0.3,0,0.6-0.2,0.7-0.6
			c0.1-0.5,0-0.9-0.2-1.3c-0.1-0.1-0.2-0.3-0.1-0.5c0.1-0.2,0.2-0.3,0.4-0.3l0.3-0.1c0.9,0,1.4-0.2,1.6-0.5c0.3-0.5,0-1.1-0.4-1.6
			c-0.1-0.1-0.2-0.3-0.1-0.4c0-0.2,0.1-0.3,0.3-0.4l0.5-0.3l0,0c0.4-0.1,0.5-0.5,0.6-0.7c0.2-0.5,0.1-1.1-0.2-1.5
			c-0.5-0.9-1.5-1.4-2.5-1.7c-5.6-2.1-11.8-1.7-18.7-1h-0.1C504.1,372.7,497,377.6,495.2,378.9L495.2,378.9z"/>
		<path class="st2" d="M516,376.2c1.1-0.3,2.3-0.3,3.4-0.2s2.3,0.2,3.5,0.4c2,0.4,4,1.1,5.3,2.8c0.4,0.5,1.1-0.2,0.7-0.7
			c-1.4-1.8-3.6-2.7-5.8-3c-1.2-0.2-2.5-0.3-3.8-0.4s-2.5-0.1-3.7,0.2C515.1,375.4,515.3,376.4,516,376.2L516,376.2L516,376.2z"/>
		<path class="st2" d="M515.3,379.2c2.1,0.1,4.2,0.2,6.3,0.5c1.8,0.2,3.8,0.8,4.7,2.5c0.3,0.6,1.2,0.1,0.9-0.5
			c-1-1.8-2.9-2.6-4.8-2.9c-2.3-0.4-4.7-0.4-7.1-0.6C514.7,378.1,514.7,379.1,515.3,379.2L515.3,379.2L515.3,379.2z"/>
		<path class="st2" d="M514.4,381.9c2,0.1,4,0.4,5.9,0.9c1.5,0.4,3.6,0.9,4.4,2.3c0.3,0.6,1.2,0,0.9-0.5c-0.9-1.6-3-2.2-4.6-2.7
			c-2.1-0.6-4.4-0.9-6.6-1C513.7,380.9,513.7,381.9,514.4,381.9L514.4,381.9L514.4,381.9z"/>
		<path class="st4" d="M375.3,362c0,0-11.9-52,2.3-59c14.2-7,53.2,43.2,53.2,43.2l-2.9,24.8l-19.3,8.2l-7.9-12.2l-0.7-6
			C400.1,360.9,383.8,363.7,375.3,362L375.3,362z"/>
		<path class="st2" d="M408.7,379.6c-0.2,0-0.3-0.1-0.4-0.2l-7.9-12.2c0-0.1-0.1-0.1-0.1-0.2l-0.6-5.5c-2.9,0.5-16.7,2.6-24.4,1
			c-0.2,0-0.3-0.2-0.4-0.4c-0.5-2.1-11.9-52.5,2.6-59.6c14.4-7.1,52.3,41.3,53.9,43.3c0.1,0.1,0.1,0.2,0.1,0.4l-2.9,24.8
			c0,0.2-0.1,0.3-0.3,0.4l-19.3,8.2C408.8,379.6,408.7,379.6,408.7,379.6L408.7,379.6z M401.2,366.8l7.6,11.7l18.7-7.9l2.8-24.3
			c-1.2-1.5-10.4-13.2-21.1-24c-14.9-15.1-25.8-21.6-31.4-18.9c-13.2,6.5-3.1,53.8-2.1,58.1c8.4,1.6,24.1-1.1,24.2-1.2
			c0.1,0,0.3,0,0.4,0.1s0.2,0.2,0.2,0.3L401.2,366.8L401.2,366.8z"/>
		<path class="st3" d="M400.1,360.9l2.5,22.1c0.2,1.5-0.9,2.9-2.5,3.1l-40.7,4.9c-1.7,0.2-3.2-1.1-3.2-2.9v-1c0,0,0-19.4,20.1-23.1
			C376.3,364.1,386.7,365.7,400.1,360.9L400.1,360.9z"/>
		<path class="st2" d="M356.7,387.2c-0.2,0-0.5-0.2-0.5-0.4c0-0.3,0.2-0.5,0.4-0.6l45.2-5.4c0.3,0,0.5,0.2,0.6,0.4
			c0,0.3-0.2,0.5-0.4,0.6L356.7,387.2C356.8,387.2,356.7,387.2,356.7,387.2L356.7,387.2z"/>
		<path class="st2" d="M391,383.1c-0.3,0-0.5-0.2-0.5-0.5c0-0.1-0.4-10.3,10.6-12.2c0.3,0,0.5,0.1,0.6,0.4s-0.1,0.5-0.4,0.6
			c-10.1,1.7-9.8,10.8-9.8,11.1C391.5,382.8,391.3,383.1,391,383.1L391,383.1L391,383.1z"/>
		<path class="st2" d="M377.6,371c-0.1,0-0.2,0-0.3-0.1l-10.4-7c-0.2-0.2-0.3-0.5-0.1-0.7c0.2-0.2,0.5-0.3,0.7-0.1l10.4,7
			c0.2,0.2,0.3,0.5,0.1,0.7C377.9,370.9,377.8,371,377.6,371z"/>
		<path class="st2" d="M373.2,373.3c-0.1,0-0.2,0-0.3-0.1l-10.4-7c-0.2-0.2-0.3-0.5-0.1-0.7c0.2-0.2,0.5-0.3,0.7-0.1l10.4,7
			c0.2,0.2,0.3,0.5,0.1,0.7C373.5,373.2,373.4,373.3,373.2,373.3z"/>
		<path class="st4" d="M422.2,359.5l-101.9,31.1c-2.5,0.8-4.3,2.7-4.9,5.2c-1.2,5.2-2.1,14.1,3.6,19.4c1.5,1.5,3.7,2.1,5.8,1.8
			c18.1-2.6,120.5-17.4,135.1-22.7c15.9-5.8,8.7-35.6,8.7-35.6l-20.3-7.7L422.2,359.5L422.2,359.5z"/>
		<path class="st2" d="M323.7,417.6c-1.9,0-3.7-0.7-5.1-2c-5.9-5.6-4.9-14.9-3.7-19.9c0.6-2.7,2.6-4.8,5.2-5.6l102-31.1l26-8.4
			c0.1,0,0.2,0,0.3,0l20.3,7.7c0.1,0.1,0.3,0.2,0.3,0.4c0.3,1.2,7.2,30.3-9,36.1c-14.5,5.2-115.1,19.8-135.1,22.7
			C324.5,417.5,324.1,417.6,323.7,417.6L323.7,417.6z M448.2,351.6l-25.8,8.3l0,0L320.5,391c-2.3,0.7-4,2.5-4.5,4.9
			c-1.1,4.8-2.1,13.7,3.4,18.9c1.4,1.3,3.4,1.9,5.4,1.6c20-2.9,120.6-17.4,134.9-22.6c14.6-5.3,9.1-31.8,8.4-34.7L448.2,351.6
			L448.2,351.6z M422.2,359.5L422.2,359.5L422.2,359.5z"/>
		<path class="st6" d="M422.2,359.5l-13.5-34.6c0,0-33.2-9.6-35.1-19.8s8.1-21.7,27.8-23.5c19.7-1.8,49.9-1.1,64.5,1.5
			c14.5,2.6,21.5,21.5,27.4,40.5c5.1,16.4,13.5,39.6,15.6,45.7c0.4,1,0.2,2.1-0.4,2.9c-2,2.8-7.2,8.6-15,9.4
			c-1.5,0.1-2.8-0.7-3.3-2.1l-19.4-54.1l-2.3,33.5C468.5,358.8,441,364.6,422.2,359.5L422.2,359.5z"/>
		<path class="st4" d="M414.3,309.7c8.3,0.7,10.8,1.2,14.3,0.3c3.5-0.9,4.9-1,5.2,0.7s-5.8,3-5.8,3s3.6,2.9,5.5,7.1
			c1.9,4.3,4.3,10.4,3.7,11s-1.4,1.6-3.6-2.3c-2.2-4-4.4-7.9-4.4-7.9s0.9,4.1,1.2,7.3c0.3,3.1-0.1,3.5-1.2,4s-1.5-0.3-2.1-4
			s-1.3-5-1.9-6.5s-2.1-3-2.1-3s1.4,4.9,0.9,8s-1.8,5.6-3,4.3s-0.6-4.7-0.8-6s-1.5-3.6-1.5-3.6s-0.7,4.1-1.7,5.5s-3.2,2.3-2.6-0.9
			l0.5-3.2c0,0-6.1-1-7.7-4.8C407.2,318.7,406,311.4,414.3,309.7L414.3,309.7z"/>
		<path class="st2" d="M428.8,333.5c-0.2,0-0.4,0-0.6-0.1c-0.7-0.4-1-1.4-1.5-4.4c-0.5-3.1-1.1-4.4-1.6-5.6
			c-0.1-0.2-0.2-0.5-0.3-0.7c-0.2-0.4-0.4-0.8-0.7-1.2c0.4,1.7,0.7,4.2,0.5,6.1c-0.3,2.1-1.1,4.6-2.4,5c-0.3,0.1-0.9,0.2-1.4-0.4
			c-1-1-1-3-0.9-4.7c0-0.6,0-1.3,0-1.6c-0.1-0.6-0.5-1.5-0.8-2.2c-0.3,1.4-0.8,3.4-1.5,4.3c-0.7,1-2,1.8-2.8,1.4
			c-0.7-0.3-1-1.2-0.7-2.6l0.4-2.7c-1.5-0.3-6.2-1.6-7.6-5V319c0-0.1-1.1-7.8,7.5-9.5h0.1c1.5,0.1,2.8,0.2,3.9,0.4
			c5.2,0.5,7.4,0.7,10.2,0c2.7-0.7,4.1-0.9,5-0.3c0.4,0.3,0.7,0.7,0.8,1.4c0.3,1.6-3,2.8-5.2,3.4c1.2,1.1,3.5,3.5,4.9,6.7
			c4.6,10.5,3.9,11.3,3.6,11.6c-0.3,0.4-0.8,0.8-1.5,0.8c-0.9-0.1-1.8-1.1-2.9-3.2c-1-1.9-2.1-3.8-2.9-5.2c0.2,1.4,0.5,3,0.6,4.4
			c0.3,3.1,0,3.9-1.5,4.5C429.3,333.5,429,333.6,428.8,333.5L428.8,333.5z M423.1,318.9c0.1,0,0.2,0,0.4,0.1
			c0.1,0.1,1.6,1.6,2.2,3.2c0.1,0.2,0.2,0.5,0.3,0.7c0.5,1.3,1.1,2.7,1.6,5.9c0.2,1.1,0.6,3.5,1,3.7c0.1,0,0.2,0,0.4,0
			c0.8-0.3,1.1-0.4,0.9-3.5c-0.3-3.1-1.2-7.2-1.2-7.2c0-0.2,0.1-0.5,0.3-0.6s0.5,0,0.6,0.2c0,0,2.3,4,4.4,7.9
			c1.3,2.3,1.9,2.6,2.2,2.7c0.2,0,0.3-0.1,0.6-0.4c0.1-0.5-1.1-4.4-3.8-10.5c-1.8-4.1-5.3-6.9-5.4-7s-0.2-0.3-0.2-0.5
			s0.2-0.3,0.4-0.4c3-0.7,5.6-1.8,5.4-2.4c-0.1-0.5-0.3-0.6-0.4-0.7c-0.6-0.4-2.3,0-4.2,0.4c-3,0.7-5.2,0.5-10.6,0
			c-1.1-0.1-2.4-0.2-3.9-0.4c-7.4,1.5-6.8,7.6-6.7,8.3c1.5,3.5,7.3,4.4,7.3,4.5c0.1,0,0.2,0.1,0.3,0.2c0.1,0.1,0.1,0.2,0.1,0.4
			l-0.5,3.2c-0.2,1.1,0,1.5,0.1,1.5c0.2,0.1,1-0.3,1.6-1.1c0.8-1,1.4-4.1,1.6-5.2c0-0.2,0.2-0.4,0.4-0.4c0.2,0,0.4,0.1,0.5,0.2
			c0,0.1,1.3,2.3,1.6,3.8c0.1,0.5,0.1,1.1,0,1.8c0,1.4-0.1,3.2,0.6,4c0.2,0.2,0.4,0.2,0.4,0.2c0.6-0.2,1.4-1.8,1.8-4.2
			c0.4-3-0.9-7.7-0.9-7.8c-0.1-0.2,0-0.5,0.2-0.6C422.9,318.9,423,318.9,423.1,318.9L423.1,318.9z"/>
		<path class="st2" d="M429.2,322.2c-0.2,0-0.4-0.1-0.5-0.3c0,0-1.4-3.3-3.2-4.8c-0.2-0.2-0.2-0.5-0.1-0.7c0.2-0.2,0.5-0.2,0.7-0.1
			c2,1.7,3.4,5,3.5,5.2s0,0.5-0.3,0.7C429.4,322.2,429.3,322.2,429.2,322.2L429.2,322.2z"/>
		<path class="st2" d="M423.1,319.9c-0.2,0-0.3-0.1-0.4-0.2l-0.9-1.5c-0.1-0.2-0.1-0.5,0.2-0.7c0.2-0.1,0.5-0.1,0.7,0.2l0.9,1.5
			c0.1,0.2,0.1,0.5-0.2,0.7C423.3,319.9,423.2,319.9,423.1,319.9L423.1,319.9z"/>
		<path class="st2" d="M418.7,322.6c-0.2,0-0.4-0.1-0.4-0.3c-1.2-2.3-2.4-3.4-2.4-3.4c-0.2-0.2-0.2-0.5,0-0.7s0.5-0.2,0.7,0
			c0,0,1.3,1.2,2.6,3.6c0.1,0.2,0,0.5-0.2,0.7C418.9,322.5,418.8,322.6,418.7,322.6z"/>
		<path class="st2" d="M414.9,323.9c-0.2,0-0.5-0.2-0.5-0.5c-0.1-1.5-0.3-3-0.3-3c0-0.3,0.2-0.5,0.4-0.5c0.3,0,0.5,0.2,0.6,0.4
			c0,0,0.2,1.6,0.3,3.1C415.4,323.7,415.2,323.9,414.9,323.9L414.9,323.9z"/>
		<path class="st2" d="M428,314.2c-0.1,0-0.2,0-0.3-0.1c-2-1.4-3-1.8-3-1.8c-0.3-0.1-0.4-0.4-0.3-0.6c0.1-0.3,0.4-0.4,0.6-0.3
			c0,0,1.1,0.5,3.2,2c0.2,0.2,0.3,0.5,0.1,0.7C428.3,314.2,428.2,314.2,428,314.2L428,314.2z"/>
		<path class="st2" d="M417.5,310.5L417.5,310.5c-0.3,0-0.5-0.2-0.5-0.5c0.1-3.2-14.9-10.7-25.9-16.2l0.4-0.9l-0.2,0.5l0.2-0.4
			c15.6,7.8,26.6,13.6,26.5,17.2C418,310.3,417.8,310.5,417.5,310.5L417.5,310.5z"/>
		<path class="st2" d="M408.8,325.3c0,0-0.1,0-0.2,0c-0.3,0-0.5-0.2-0.5-0.5s0.2-0.5,0.5-0.5c2,0.1,3-1.8,3-1.8
			c0.1-0.2,0.4-0.3,0.7-0.2c0.2,0.1,0.3,0.4,0.2,0.7C412.6,323,411.4,325.3,408.8,325.3L408.8,325.3z"/>
		<path class="st2" d="M469.8,323.2c-0.2,0-0.4-0.1-0.5-0.3c-1.4-3.6-7.8-22.3-1.7-31c0.2-0.2,0.5-0.3,0.7-0.1s0.3,0.5,0.1,0.7
			c-4.5,6.4-1.8,20.2,1.8,30.1c0.1,0.3,0,0.5-0.3,0.6C469.9,323.2,469.9,323.2,469.8,323.2L469.8,323.2z"/>
		<path class="st2" d="M403.1,299.8C403.1,299.8,403,299.8,403.1,299.8c-0.3,0-0.5-0.3-0.5-0.5s0.8-6.5,2.1-10.5
			c0.1-0.3,0.4-0.4,0.6-0.3s0.4,0.4,0.3,0.6c-1.4,3.9-2.1,10.3-2.1,10.3C403.5,299.6,403.3,299.8,403.1,299.8L403.1,299.8z"/>
		<path class="st4" d="M445.5,268.5c0,8.6-0.6,14.9-1,18.1c-0.2,1.4-1.3,2.6-2.8,2.7c-2.4,0.2-6.1,0.2-9.2-1.9
			c-1-0.7-1.6-1.9-1.4-3.2l1.2-7L445.5,268.5L445.5,268.5z"/>
		<path class="st2" d="M439.8,289.9c-2.3,0-5.1-0.5-7.6-2.1c-1.2-0.8-1.9-2.2-1.6-3.7l1.2-7c0-0.1,0.1-0.3,0.2-0.3l13.3-8.8
			c0.1-0.1,0.4-0.1,0.5,0s0.3,0.3,0.3,0.4c0,8.7-0.6,15.1-1,18.1c-0.2,1.7-1.5,3-3.2,3.2C441.2,289.8,440.5,289.9,439.8,289.9
			L439.8,289.9z M432.7,277.5l-1.1,6.8c-0.2,1,0.3,2.1,1.2,2.7c3,2,6.5,2.1,8.9,1.8c1.2-0.1,2.2-1.1,2.3-2.3c0.4-2.9,1-8.9,1-17.1
			L432.7,277.5L432.7,277.5z"/>
		<path class="st4" d="M457.3,269.2c-3.1,1.5-6.5-0.3-6.5-0.3c-1.6,2.5-3.4,4.6-5.4,6.3c-4.3,3.8-9.2,5.7-13.8,5.9
			c-5.9,0.4-11.2-1.9-14.4-5.8c-5-6.3-2.7-17.7-0.5-25v-0.1V250c-0.1-0.4-0.1-1.2-0.1-2.4c0-2.3,0.5-6,2.8-10.2
			c0.4-0.7,0.8-1.4,1.3-2.1c2.3-3,5.7-4.9,9.4-5.5c1.1-0.2,2.3-0.3,3.4-0.3c12.8,0.2,16.5,4,16.5,4s14.7,5,8.3,26.1
			C460.3,262.2,459.7,268.1,457.3,269.2L457.3,269.2z"/>
		<path class="st2" d="M430.4,281.7c-5.5,0-10.5-2.2-13.5-6.1c-4.9-6.3-3.1-17.2-0.6-25.4V250c-0.1-0.4-0.1-1.3-0.1-2.4
			c0-2.4,0.5-6.1,2.8-10.4c0.4-0.7,0.8-1.4,1.4-2.1c2.3-3,5.8-5,9.7-5.7c1.1-0.2,2.3-0.3,3.5-0.3c12,0.2,16.1,3.5,16.8,4.1
			c1.4,0.5,14.6,6.3,8.6,26.4c1.2,1.6,1.4,4.3,1,6.3c-0.4,1.9-1.2,3.2-2.3,3.7l0,0c-2.7,1.3-5.5,0.3-6.6-0.1c-1.5,2.3-3.3,4.3-5.2,6
			c-4.1,3.7-9,5.8-14.1,6.1C431.2,281.7,430.8,281.7,430.4,281.7L430.4,281.7z M433.2,230.2c-1,0-2.1,0.1-3.1,0.3
			c-3.7,0.6-6.9,2.5-9,5.3c-0.5,0.7-0.9,1.3-1.3,2c-2.2,4.1-2.7,7.7-2.7,9.9c0,1.1,0.1,1.9,0.1,2.3v0.2c0,0.1,0,0.2,0,0.3
			c-2,6.5-4.5,18.3,0.5,24.6c3,3.9,8.3,6,14,5.6c4.9-0.3,9.5-2.3,13.5-5.8c2-1.7,3.8-3.8,5.3-6.2c0.1-0.2,0.4-0.3,0.7-0.2
			c0,0,3.2,1.7,6.1,0.3c0.8-0.4,1.5-1.5,1.8-3c0.4-2.2,0-4.5-1-5.6c-0.1-0.1-0.1-0.3-0.1-0.5c2.6-8.5,2-15.6-1.7-20.5
			c-2.8-3.7-6.3-4.9-6.3-4.9c-0.1,0-0.1-0.1-0.2-0.1c0,0-3.8-3.6-16.2-3.8C433.3,230.2,433.2,230.2,433.2,230.2L433.2,230.2z
			 M457.3,269.2L457.3,269.2L457.3,269.2z"/>
		<path class="st2" d="M434.4,256.8c2.3-2,7.1-2.2,7.8,1.4c0.1,0.3-0.1,0.5-0.4,0.6c-0.2,0-0.4-0.1-0.5-0.2c-0.7-1-1.5-1.4-2.7-1.5
			c-1.1,0-2.5,0.3-3.7,0.6C434.3,257.8,433.9,257.1,434.4,256.8L434.4,256.8L434.4,256.8z"/>
		<path class="st2" d="M418.9,252.1c2-1.6,5.2-1,6.5,1.1c0.2,0.5,0.9,1.2,0.2,1.6c-0.2,0.1-0.4,0.1-0.5-0.1
			c-0.9-0.7-1.7-1.4-2.7-1.7s-2.1-0.2-3.1,0C418.8,253.1,418.5,252.4,418.9,252.1L418.9,252.1L418.9,252.1z"/>
		<path class="st2" d="M423,266.4c-0.1,0-0.1,0-0.2,0c-1.4-0.1-2.3-1.1-2.3-2.6c0-0.8,0.2-1.4,0.8-1.8c0.9-0.8,2.3-0.8,3.1-0.8
			c0.2-1,0.6-3.7,0.7-6.9c0-0.3,0.2-0.5,0.5-0.5s0.5,0.2,0.5,0.5c-0.1,4.2-0.8,7.4-0.8,7.6c-0.1,0.3-0.3,0.4-0.6,0.4
			c-0.5-0.1-2-0.1-2.7,0.5c-0.3,0.2-0.4,0.6-0.4,1c0,1.3,1,1.5,1.4,1.6c1,0.1,2.2-0.6,2.4-1.8c0-0.3,0.3-0.5,0.6-0.4
			c0.3,0,0.5,0.3,0.4,0.6C426,265.4,424.4,266.4,423,266.4L423,266.4z"/>
		<path class="st2" d="M438.1,261.5c-0.3,1.2-1.3,2-2.1,1.7c-0.8-0.2-1.2-1.4-0.9-2.6c0.1-0.4,0.3-0.7,0.5-1l1.2,1.2l-0.2-1.9
			c0.2-0.1,0.4-0.1,0.6,0C438,259.2,438.4,260.3,438.1,261.5z"/>
		<path class="st2" d="M421.5,258.2c-0.3,1.2-1.3,2-2.1,1.7c-0.8-0.2-1.2-1.4-0.9-2.6c0.1-0.4,0.3-0.7,0.5-1l1.2,1.2l-0.2-1.9
			c0.2-0.1,0.4-0.1,0.6,0C421.5,255.8,421.9,257,421.5,258.2z"/>
		<path class="st2" d="M427.7,272.8c-0.8,0-1.7-0.5-2.4-1.4c-0.2-0.2-0.1-0.5,0.1-0.7s0.5-0.1,0.7,0.1c0.5,0.7,1.1,1.1,1.7,1
			c0.5,0,0.9-0.4,1.2-0.9c0.1-0.2,0.4-0.3,0.7-0.2c0.2,0.1,0.3,0.4,0.2,0.7c-0.5,0.8-1.2,1.4-2,1.4
			C427.8,272.8,427.7,272.8,427.7,272.8L427.7,272.8z"/>
		<path class="st2" d="M457,267c-0.1,0-0.1,0-0.2,0c-0.3-0.1-0.4-0.4-0.3-0.6c0.5-1.3,0.9-3.6-0.8-4.5c-0.2-0.1-0.4-0.4-0.2-0.7
			s0.4-0.4,0.7-0.2c2.4,1.1,2,4.1,1.3,5.7C457.4,266.9,457.2,267,457,267L457,267z"/>
		<path class="st4" d="M458.2,259.8c-3-2.2-6.7,0.6-6.7,0.6s-2.6,7-3.6,6s-0.2-10.2-0.2-10.2c-3.9-2.3-8.9-6.9-9.3-11.9
			c-11-5.4-21.6,6.1-21.6,6.1v-0.1v-0.2c0,0-3.4,0.7-3.2-3.1c0.1-3,4-12.6,13.1-16c2.2-0.8,4.6-1.3,7.4-1.2c0.2,0,0.5,0,0.8,0
			c11.8,0.4,15.2,4,15.2,4S464.6,238.7,458.2,259.8L458.2,259.8z"/>
		<path class="st2" d="M448.1,266.9c-0.2,0-0.4-0.1-0.6-0.3c-1.1-1.1-0.6-7.8-0.4-10.3c-4-2.4-8.7-6.9-9.3-11.8
			c-10.5-4.9-20.7,6-20.8,6.1c-0.1,0.1-0.3,0.2-0.5,0.1c-0.1,0-0.2-0.1-0.3-0.2c-0.6,0-1.6,0-2.4-0.7c-0.7-0.6-1.1-1.6-1-2.9
			c0.1-3.4,4.2-13,13.5-16.4c2.4-0.9,4.9-1.3,7.6-1.3c0.2,0,0.5,0,0.8,0c11,0.4,14.9,3.5,15.5,4c1.4,0.5,14.7,6.3,8.5,26.7
			c0,0.2-0.2,0.3-0.3,0.3c-0.1,0-0.3,0-0.5-0.1c-2.4-1.8-5.4,0-6,0.5c-0.7,1.9-2.4,6-3.6,6.2C448.2,266.9,448.2,266.9,448.1,266.9
			L448.1,266.9z M432.1,242.3c2.2,0,4.4,0.5,6.4,1.5c0.2,0.1,0.3,0.2,0.3,0.4c0.3,4.4,4.8,9,9.1,11.5c0.2,0.1,0.3,0.3,0.2,0.5
			c-0.4,4.1-0.4,8.9,0,9.7c0.6-0.4,1.9-2.9,2.9-5.7c0-0.1,0.1-0.2,0.2-0.2c0.1-0.1,3.6-2.6,6.7-0.9c2.4-8.2,1.7-15.1-1.9-19.9
			c-2.8-3.7-6.3-4.9-6.3-4.9c-0.1,0-0.1-0.1-0.2-0.1c0,0-3.5-3.4-14.9-3.8c-0.2,0-0.5,0-0.7,0c-2.6,0-5,0.4-7.2,1.2
			c-8.6,3.2-12.7,12.4-12.8,15.6c0,1,0.2,1.7,0.7,2.1c0.8,0.6,2,0.4,2,0.4c0.1,0,0.1,0,0.2,0c0.9-0.9,3.2-3,6.4-4.8
			C426.2,243.1,429.2,242.3,432.1,242.3L432.1,242.3z"/>
		<path class="st2" d="M426.5,231.5c-0.2,0-0.4-0.1-0.5-0.3s0-0.5,0.3-0.6c1.1-0.5,2.3-0.8,3.6-1c1.1-0.2,2.3-0.3,3.5-0.3
			c0.2,0,0.4,0,0.6,0c0.3,0,0.5,0.2,0.5,0.5s-0.2,0.5-0.5,0.5c-2.5,0-5,0.4-7.2,1.2C426.6,231.4,426.6,231.5,426.5,231.5z"/>
		<path class="st6" d="M294.3,380.1c0.6-1.6,2.2-2.8,3.9-3c5.9-0.8,10.5,0.6,13.8,6.3c3.8,6.5,7.8,15.4,7.8,15.4s-1.2,13.4,5.6,15.1
			c0,0-14.3,6.2-17.5,6.4c0,0-10.1-2.2-13.8-19.5C291.7,389.7,293,383.3,294.3,380.1L294.3,380.1z"/>
		<path class="st2" d="M307.3,418.3c-0.1,0-0.1,0-0.2,0c-0.3-0.1-0.4-0.4-0.3-0.6c1.8-4.7-3.7-24.5-7.9-33.4
			c-1.7-3.5-2.5-4.1-2.8-4.1c-0.3-0.1-0.4-0.4-0.3-0.6s0.4-0.4,0.6-0.3c0.3,0.1,1.4,0.5,3.3,4.7c4.4,9.2,9.8,29.2,7.9,34.2
			C307.7,418.2,307.5,418.3,307.3,418.3L307.3,418.3z"/>
		<path class="st2" d="M316.1,417.1c-0.2,0-0.4-0.1-0.5-0.3c-1.9-5.3-8.6-6.9-8.6-6.9c-0.3-0.1-0.4-0.3-0.4-0.6
			c0.1-0.3,0.3-0.4,0.6-0.4c0.3,0.1,7.2,1.7,9.4,7.5c0.1,0.3,0,0.5-0.3,0.6C316.2,417,316.2,417.1,316.1,417.1L316.1,417.1z"/>
		<path class="st2" d="M314.5,395.7c-0.2,0-0.4-0.1-0.5-0.3c-0.1-0.2,0-0.5,0.2-0.7c4.4-2.3,3.5-5.2,3.5-5.3c-0.1-0.3,0-0.5,0.3-0.6
			s0.5,0,0.6,0.3c0,0,1.3,3.8-3.9,6.5C314.7,395.7,314.6,395.7,314.5,395.7L314.5,395.7z"/>
		<path class="st2" d="M312.8,391.6c-0.2,0-0.3-0.1-0.4-0.2c-0.1-0.2-0.1-0.5,0.2-0.7c0.1-0.1,2.8-1.7,2.8-4.9
			c0-0.3,0.2-0.5,0.5-0.5s0.5,0.2,0.5,0.5c0.1,3.8-3.1,5.7-3.2,5.8C312.9,391.6,312.9,391.6,312.8,391.6L312.8,391.6z"/>
		<path class="st2" d="M401.2,357.6c-0.2,0-0.5-0.2-0.5-0.4c0-0.2-2.3-18.3-5.1-33.6c0-0.3,0.1-0.5,0.4-0.6s0.5,0.1,0.6,0.4
			c2.8,15.3,5.1,33.5,5.1,33.7C401.7,357.3,401.5,357.6,401.2,357.6L401.2,357.6z"/>
	</g>
	<g id="plant-2_00000170269968308828873310000010707597629903491758_">
		<path class="st3" d="M109.7,291.1c0,0-8.2-6.7-11.1-17c-2.9-10.4,9.9-23.2,10.4-25.5c0,0,9.7,12.5,9.6,23.4
			S109.7,291.1,109.7,291.1L109.7,291.1z"/>
		<path class="st2" d="M109.7,291.6c-0.1,0-0.2,0-0.3-0.1c-0.1-0.1-8.4-6.9-11.2-17.3c-2.2-7.9,4.5-17.3,8.2-22.3
			c1.1-1.5,2.1-2.9,2.2-3.4c0-0.2,0.2-0.3,0.4-0.4s0.4,0,0.5,0.2c0.4,0.5,9.8,12.8,9.7,23.8c-0.1,11-8.7,19.1-9.1,19.5
			C109.9,291.5,109.8,291.6,109.7,291.6L109.7,291.6z M109.1,249.5c-0.4,0.7-1,1.6-2,2.9c-3.5,4.9-10.1,14-8,21.5
			c2.5,8.9,9,15.1,10.6,16.5c1.6-1.6,8.4-9,8.4-18.5C118.2,262.7,111.1,252.2,109.1,249.5L109.1,249.5z"/>
		<path class="st3" d="M135.3,294.7c-5.9,1-8.9,8.9-1.1,13.2s14,12.8,14,12.8s5.2-11.6,0.4-20.2
			C143.8,291.9,137.1,292.8,135.3,294.7L135.3,294.7z"/>
		<path class="st2" d="M148.2,321.2c-0.2,0-0.3-0.1-0.4-0.2c-0.1-0.1-6.2-8.4-13.8-12.6c-3.6-2-5.4-5.1-4.9-8.3
			c0.5-3,2.9-5.3,5.9-5.9c1.1-1,3-1.5,4.9-1.3c2,0.2,5.9,1.5,9.1,7.3c4.8,8.7-0.2,20.2-0.4,20.7
			C148.6,321.1,148.5,321.2,148.2,321.2C148.3,321.2,148.3,321.2,148.2,321.2L148.2,321.2z M139,293.9c-1.6,0-2.8,0.5-3.3,1.1
			c-0.1,0.1-0.2,0.1-0.3,0.1c-2.7,0.4-4.8,2.5-5.3,5.1c-0.5,2.8,1.1,5.4,4.4,7.2c6.5,3.6,11.9,10,13.6,12.2c1-2.7,4-12,0.1-19
			c-3-5.4-6.5-6.5-8.3-6.8C139.6,293.9,139.3,293.9,139,293.9z M135.3,294.7L135.3,294.7L135.3,294.7z"/>
		<path class="st3" d="M85.6,300.9c5.9,3.8,3.8,10.5-1.3,16.9c-5.1,6.4-9.9,18-9.9,18s-6-16.9-4.1-25.4S79.2,298.7,85.6,300.9
			L85.6,300.9z"/>
		<path class="st2" d="M74.4,336.2L74.4,336.2c-0.2,0-0.4-0.1-0.5-0.3c-0.2-0.7-6.1-17.1-4.1-25.6c0.9-4.1,3.2-7.4,6.3-9.1
			c2.9-1.6,6.4-1.9,9.7-0.7h0.1c2.1,1.4,3.3,3.1,3.7,5.3c0.5,3.4-1.2,7.6-4.9,12.4c-5,6.3-9.8,17.7-9.8,17.8
			C74.8,336.1,74.6,336.2,74.4,336.2L74.4,336.2z M81.7,300.7c-1.8,0-3.5,0.4-5.1,1.3c-2.9,1.6-4.9,4.5-5.8,8.5
			c-1.6,6.9,2.4,19.8,3.7,23.9c1.4-3.1,5.3-11.7,9.4-16.9c3.6-4.5,5.2-8.5,4.7-11.6c-0.3-1.8-1.4-3.4-3.2-4.5
			C84.2,300.9,82.9,300.7,81.7,300.7L81.7,300.7z"/>
		<path class="st2" d="M110.1,332.4c-0.3,0-0.5-0.2-0.5-0.5l-0.4-67c0-0.3,0.2-0.5,0.5-0.5l0,0c0.3,0,0.5,0.2,0.5,0.5l0.3,52.4
			c1.4-11.8,4.8-26.5,13.4-26.7c0.2,0,0.3,0,0.5,0c13.6,0,20.1,14.9,20.2,15.1s0,0.5-0.3,0.7c-0.2,0.1-0.6,0-0.7-0.3
			c-0.1-0.1-6.3-14.5-19.3-14.5c-0.2,0-0.3,0-0.5,0c-13.2,0.4-13.4,40-13.4,40.4C110.6,332.2,110.3,332.4,110.1,332.4L110.1,332.4
			L110.1,332.4z"/>
		<path class="st2" d="M110.1,332.4c-0.2,0-0.4-0.2-0.5-0.4c-0.1-0.3-7.4-32.2-16.4-33.2c-9-0.9-15.4,13.1-15.4,13.3
			c-0.1,0.2-0.4,0.4-0.7,0.2c-0.2-0.1-0.4-0.4-0.2-0.7c0.3-0.6,6.7-14.9,16.4-13.9s16.9,32.6,17.2,34c0.1,0.3-0.1,0.5-0.4,0.6
			C110.1,332.4,110.1,332.4,110.1,332.4L110.1,332.4z"/>
		<path class="st4" d="M94.6,330H130c1.8,0,3.2,1.6,3,3.4l-3.8,28.7c-0.4,2.7-2.7,4.8-5.4,4.8h-21.1c-2.6,0-4.9-1.9-5.4-4.4
			l-5.7-28.9C91.3,331.8,92.7,330,94.6,330z"/>
		<path class="st2" d="M123.8,367.4h-21.1c-2.9,0-5.3-2-5.9-4.8l-5.7-28.9c-0.2-1,0.1-2.1,0.7-2.9c0.7-0.8,1.7-1.3,2.7-1.3H130
			c1,0,2,0.4,2.7,1.2c0.7,0.8,1,1.8,0.9,2.8l-3.8,28.7C129.4,365.2,126.8,367.4,123.8,367.4L123.8,367.4z M94.6,330.5
			c-0.8,0-1.5,0.3-2,0.9s-0.7,1.4-0.5,2.1l5.7,28.9c0.5,2.3,2.5,4,4.9,4h21.1c2.5,0,4.6-1.9,4.9-4.4l3.8-28.7c0.1-0.7-0.1-1.5-0.6-2
			s-1.2-0.9-1.9-0.9L94.6,330.5L94.6,330.5z"/>
		<path class="st2" d="M131.9,342.4h-27.8c-0.3,0-0.5-0.2-0.5-0.5s0.2-0.5,0.5-0.5h27.8c0.3,0,0.5,0.2,0.5,0.5
			S132.2,342.4,131.9,342.4z"/>
	</g>
</g>
</svg>
