<?xml version="1.0" encoding="utf-8"?>
<!-- Generator: Adobe Illustrator 27.2.0, SVG Export Plug-In . SVG Version: 6.00 Build 0)  -->
<svg version="1.1" id="Capa_1" xmlns="http://www.w3.org/2000/svg" xmlns:xlink="http://www.w3.org/1999/xlink" x="0px" y="0px"
	 viewBox="0 0 5775 2912.3" style="enable-background:new 0 0 5775 2912.3;" xml:space="preserve">
<style type="text/css">
	.st0{fill:#FEF4F2;}
	.st1{fill:#48AF94;}
	.st2{fill:#51BFA6;}
	.st3{fill:#58CCAA;}
	.st4{fill:#777777;}
	.st5{fill:#00847F;}
	.st6{fill:#FFFFFF;}
	.st7{fill:#732A09;}
	.st8{fill:#D13F3F;}
	.st9{fill:#F35454;}
	.st10{fill:#F05454;}
	.st11{fill:#DDDDDD;}
	.st12{fill:#F2F2F2;}
	.st13{fill:#FCEDB1;}
	.st14{fill:#EF7B41;}
	.st15{fill:#DD6C3A;}
	.st16{fill:#56C0EF;}
	.st17{fill:#F4E5A6;}
	.st18{fill:#A7ECF2;}
	.st19{fill:#EFEFEF;}
	.st20{fill:#F4E7B0;}
	.st21{fill:#EDDFA4;}
</style>
<g id="character_00000062909267913390954640000011281688878488720784_">
	<path class="st6" d="M893.7,1502.1c-40.3,88-73.3,185-18.2,215.4c0,0-26.8,59.2-37.7,107.6c-9.1,40.3-27.2,105.7-32.9,126.4
		c-1.1,4.1,0.6,8.5,4.3,10.6c11.2,6.7,38.1,18.5,81.6,11.5c3.3-0.6,6.2-2.8,7.4-5.9c9.9-25.7,56-143.6,85.6-188.6
		c0,0,52,61.1,95.3,82.9v-119.8l-26.2-38c0,0,41.4-42.6,47.2-96.8c5.7-54.2-5.1-85.3-5.1-85.3L893.7,1502.1L893.7,1502.1z"/>
	<path class="st7" d="M864.7,1977.3c-28.3,0-46.9-8.1-56.5-13.9c-4.3-2.6-6.3-7.7-5-12.5c5.4-19.4,23.8-85.8,32.9-126.3
		c9.9-44,33.2-97.4,37.2-106.6c-56.9-33.3-16.6-139.5,18.8-216.8c0.3-0.6,0.9-1,1.6-0.9l201.1,19.9c0.6,0.1,1.2,0.5,1.4,1.1
		c0.1,0.3,10.9,32.2,5.2,86c-5.2,49.6-40.5,90-46.7,96.7l25.5,36.9c0.2,0.3,0.3,0.6,0.3,0.9v119.8c0,0.6-0.3,1.1-0.8,1.4
		c-0.5,0.3-1.1,0.3-1.6,0.1c-39.1-19.8-85.7-71.8-94.4-81.7c-29.7,46.4-75.3,163.3-84.2,186.5c-1.4,3.7-4.7,6.3-8.7,7
		C881.4,1976.7,872.6,1977.3,864.7,1977.3L864.7,1977.3z M894.7,1503.8c-72.8,159.1-45.4,197.4-18.4,212.3c0.7,0.4,1,1.3,0.7,2.1
		c-0.3,0.6-26.9,59.6-37.6,107.3c-9.1,40.5-27.5,107-32.9,126.4c-0.9,3.4,0.5,7,3.5,8.8c11.9,7.1,38.2,18.1,80.5,11.3
		c2.8-0.5,5.1-2.3,6.1-4.9c9.1-23.6,55.9-143.6,85.7-188.9c0.3-0.4,0.7-0.7,1.3-0.7c0.5,0,1,0.2,1.3,0.6
		c0.5,0.6,50.5,58.8,92.5,81.3v-116.6l-26-37.6c-0.5-0.6-0.4-1.5,0.2-2c0.4-0.4,41.1-42.9,46.7-95.8c5.1-47.9-3-78-4.7-83.7
		L894.7,1503.8L894.7,1503.8z"/>
	<path class="st7" d="M875.4,1719.1c0,0-0.3,0-0.5-0.1c-0.9-0.3-1.4-1.1-1.1-2c0.3-0.9,26.5-91.7,70.2-154c0.5-0.7,1.5-0.9,2.3-0.4
		c0.7,0.5,0.9,1.5,0.4,2.3c-43.4,61.9-69.4,152.1-69.7,153C876.8,1718.6,876.2,1719.1,875.4,1719.1L875.4,1719.1z"/>
	<path class="st7" d="M983.6,1780.6c-0.3,0-0.6-0.1-0.9-0.3c-0.7-0.5-0.9-1.5-0.4-2.3c12.2-17.1,29.6-34.4,44.9-49.6
		c10-9.9,18.6-18.4,24.2-25.4c0.6-0.7,1.6-0.8,2.3-0.2c0.7,0.6,0.8,1.6,0.2,2.3c-5.7,7.1-14.4,15.7-24.5,25.6
		c-15.3,15.1-32.6,32.3-44.6,49.2C984.6,1780.4,984.1,1780.6,983.6,1780.6L983.6,1780.6z"/>
	<path class="st6" d="M881.3,1294c23.1,40,171,19.8,200.1,0.9c29-18.9,18-54.5,5.7-80.2c-10.7-22.5-30.1-39.7-54.4-76.3
		c-3.5-5.2-7-10.8-10.6-16.8c-8.3-13.9-15.9-25.3-23.4-34.5c-18.9-23.1-37.9-32.4-69.7-32.2c-22-7.8-37,2.9-48.3,20.4
		c-3.2,4.9-6.1,10.3-8.7,16c-6.6,14.2-5.5,23.7-4.3,33.3c1,8.1,2.1,16.2-0.9,27.1c-6.7,24,3.9,36,9.1,60.8
		C881.1,1237.2,858.2,1253.9,881.3,1294L881.3,1294z"/>
	<path class="st7" d="M959.7,1318.6c-17.2,0-33.5-1.4-46.9-4.6c-16.7-4-27.7-10.5-32.8-19.3c-15-25.8-11.1-42.4-7.6-57
		c2-8.3,3.8-16.2,2-25c-1.6-7.6-3.7-13.9-5.7-20c-4.4-13.2-8.1-24.5-3.4-41.5c2.9-10.3,1.9-18.1,1-25.8l-0.1-0.7
		c-1.1-9-2.4-19.3,4.5-34.2c2.9-6.3,5.8-11.6,8.8-16.2c13.7-21.2,30-28.1,49.9-21.1c0.3,0,0.7,0,1,0c30.9,0,50.5,9.3,69.7,32.8
		c7.1,8.7,14.3,19.4,23.6,34.7c3.6,6,7,11.4,10.6,16.8c10.9,16.4,20.7,28.8,29.4,39.8c10.7,13.5,19.2,24.2,25.1,36.7
		c18.9,39.6,16.8,67.2-6.3,82.2C1065,1307.6,1008.7,1318.7,959.7,1318.6L959.7,1318.6z M915,1053.9c-12.5,0-23.2,7.3-32.8,22.3
		c-2.9,4.5-5.7,9.6-8.6,15.8c-6.5,14-5.3,23.4-4.2,32.4l0.1,0.7c1,7.9,2,16.1-1.1,27c-4.5,16.1-1,26.5,3.3,39.7
		c1.9,5.9,4.2,12.5,5.8,20.4c2,9.5,0.1,17.7-2,26.4c-3.5,14.7-7.1,29.9,7.3,54.6l0,0c4.7,8,15,14,30.8,17.8
		c50.8,12.2,143.9-2.4,167-17.4c21.8-14.2,23.5-39.7,5.2-78.1c-5.8-12.2-14.2-22.7-24.7-36.1c-8.7-11-18.6-23.5-29.6-40
		c-3.5-5.3-7-10.9-10.6-16.9c-9-15-16.4-26-23.3-34.4c-19-23.3-37.6-31.9-68.5-31.6c-0.1-0.1-0.4,0-0.6-0.1
		C923.8,1054.7,919.3,1053.9,915,1053.9L915,1053.9z"/>
	<path class="st8" d="M847,1280.8c0,0,22.6-47.2,64.1-65s135-11.6,157.8,28.8c22.7,40.4,57.6,207.6,60.3,232.4
		c2.8,24.9-22.1,34.3-22.1,34.3l-1.1,22.1c0,0-79.1,23.8-143.4,9.4c-64.2-14.4-95.2-26.6-95.2-26.6l14.4-167.2L847,1280.8
		L847,1280.8z"/>
	<path class="st6" d="M802,1236.6l29.9-6.5l10,50.2c0,0,32.8-12.9,58.6-18.7c25.9-5.8,64.8-4,64.8-4l28.3,148.9l-12.5,6.9l-142.4-89
		l-27.8-48.4L802,1236.6L802,1236.6z"/>
	<path class="st7" d="M981.2,1415c-0.3,0-0.6-0.1-0.9-0.3l-142.4-89c-0.2-0.1-0.4-0.3-0.6-0.6l-27.8-48.4c0,0-0.1-0.3-0.2-0.5
		l-9-39.4c-0.1-0.4,0-0.9,0.2-1.2c0.2-0.4,0.6-0.6,1-0.7l29.9-6.5c0.4-0.1,0.9,0,1.2,0.2c0.4,0.2,0.6,0.6,0.7,1l9.7,48.3
		c7.2-2.8,34.8-13.1,57.1-18.1c25.8-5.8,64.9-4.1,65.3-4.1c0.7,0,1.4,0.6,1.5,1.3l28.3,148.9c0.1,0.7-0.2,1.4-0.8,1.7l-12.5,6.9
		C981.7,1414.9,981.5,1415,981.2,1415L981.2,1415z M840,1323.3l141.2,88.2l10.7-5.9L964,1259.1c-6.9-0.2-40.4-1.1-63.2,4
		c-25.4,5.7-58,18.5-58.4,18.6c-0.5,0.2-0.9,0.1-1.4-0.1c-0.4-0.2-0.7-0.6-0.8-1.1l-9.7-48.5l-26.7,5.8l8.6,37.6L840,1323.3
		L840,1323.3z"/>
	<path class="st8" d="M797.7,1236.6l26.2,56.7l15.3,7.6c0,0,65.9-24.8,117.1-21.9l27.3,153c0,0-71.5,19.5-116.3,9l-15-9.5l-36-121.1
		L797.7,1236.6L797.7,1236.6z"/>
	<path class="st7" d="M898.2,1445.7c-11,0-21.7-0.9-31.2-3.1c-0.2,0-0.4-0.1-0.5-0.2l-15-9.5c-0.3-0.2-0.6-0.5-0.7-0.9l-36-121.1
		l-18.6-74c-0.2-0.8,0.2-1.7,1-1.9c0.8-0.3,1.7,0.1,2,0.8l26,56.2l14.1,7.1c7.1-2.6,68.9-24.5,117.1-21.8c0.7,0,1.4,0.6,1.5,1.3
		l27.3,153c0.2,0.8-0.4,1.6-1.2,1.8C983.5,1433.7,938.9,1445.7,898.2,1445.7L898.2,1445.7z M868,1439.6
		c40.4,9.3,103.5-6.1,113.8-8.7l-26.8-150.2c-50-2.4-114.5,21.6-115.1,21.9c-0.4,0.2-0.9,0.1-1.3-0.1l-15.3-7.6
		c-0.3-0.2-0.6-0.4-0.7-0.8l-18.9-41l14.4,57.1l35.8,120.4L868,1439.6L868,1439.6z"/>
	<path class="st6" d="M811.6,1312.8c-5.8-3.2-6.2-8.8-3.4-10.8c2.8-2,13.3-2.8,15.7,0c2.4,2.8,0.3,8.2-3,8.7
		C817.7,1311.2,811.6,1312.8,811.6,1312.8L811.6,1312.8z"/>
	<path class="st7" d="M811.6,1314.4c-0.3,0-0.6-0.1-0.8-0.2c-3.5-2-5.7-5.1-5.9-8.3c-0.1-2.2,0.7-4.1,2.3-5.2
		c3.1-2.2,14.7-3.4,17.9,0.3c1.5,1.7,1.9,4.4,0.9,6.9c-0.9,2.5-2.8,4.2-4.9,4.5c-3.1,0.5-9.1,2-9.1,2
		C811.9,1314.4,811.7,1314.4,811.6,1314.4L811.6,1314.4z M817,1301.8c-3.1,0-6.6,0.6-7.9,1.5c-0.7,0.5-1,1.4-1,2.5
		c0.1,1.9,1.5,3.9,3.7,5.3c1.7-0.5,6.1-1.6,8.8-1.9c0.9-0.1,1.8-1.1,2.3-2.4c0.4-1.1,0.6-2.7-0.3-3.6
		C821.9,1302.2,819.6,1301.8,817,1301.8L817,1301.8z"/>
	<path class="st6" d="M815.2,1321c0,0-9.1-4.3-6.6-9.2c2.5-4.9,16.3-4.8,17.6-2.6c1.3,2.2-1,8.2-5.3,8.7
		C816.6,1318.5,815.2,1321,815.2,1321z"/>
	<path class="st7" d="M815.2,1322.6c-0.2,0-0.5,0-0.7-0.2c-0.6-0.3-6.3-3.1-7.7-7.1c-0.5-1.5-0.4-2.9,0.3-4.3
		c2.2-4.3,9.9-4.8,12.2-4.9c2.1,0,7.1,0.1,8.3,2.3c0.9,1.6,0.7,4.1-0.5,6.5c-1.4,2.7-3.6,4.3-6.1,4.6c-3.3,0.4-4.4,2.1-4.5,2.2
		C816.3,1322.3,815.7,1322.6,815.2,1322.6L815.2,1322.6z M820,1309.4c-1.4,0-3,0.1-4.7,0.5c-2.7,0.6-4.7,1.5-5.2,2.7
		c-0.3,0.6-0.3,1.1-0.1,1.8c0.6,1.8,3.2,3.7,4.9,4.6c1-1,2.9-2.3,5.9-2.6c1.9-0.2,3.1-2.1,3.5-2.9c0.8-1.5,0.8-3,0.6-3.4
		C824.5,1309.9,822.6,1309.5,820,1309.4L820,1309.4z"/>
	<path class="st6" d="M816.8,1331.3c0,0-10.3-3.8-7.8-9.9s17.8-6.6,19.4-3.4c1.6,3.3,1.9,6.9-4.8,10.1L816.8,1331.3L816.8,1331.3z"
		/>
	<path class="st7" d="M816.8,1332.9c-0.2,0-0.4,0-0.6-0.1c-0.3-0.1-6.7-2.5-8.7-6.9c-0.7-1.7-0.8-3.4-0.1-5.1
		c1.7-4.4,8.3-6.2,13.3-6.4c2.3-0.1,7.7,0,9.1,2.9c0.7,1.6,1.7,3.9,0.7,6.4c-0.8,2.3-2.9,4.2-6.4,5.8l-6.7,3.2
		C817.3,1332.8,817,1332.9,816.8,1332.9z M821.7,1317.6c-0.7,0-1.6,0-2.4,0.1c-4.5,0.5-8,2.1-8.8,4.2c-0.4,0.9-0.4,1.7,0,2.6
		c1,2.3,4.4,4.1,6.3,4.9l6.1-2.9c2.6-1.2,4.2-2.6,4.7-4c0.4-1.1,0.2-2.3-0.6-3.9C826.6,1318.3,824.7,1317.6,821.7,1317.6z"/>
	<path class="st6" d="M826.5,1344.9c0,0-13.3-5.8-14-12c-0.7-6.2,8.5-9.8,14-8c5.5,1.8,2.2,6.7-3.8,7.3L826.5,1344.9L826.5,1344.9z"
		/>
	<path class="st7" d="M826.5,1346.5c-0.2,0-0.5,0-0.6-0.1c-1.5-0.6-14.2-6.4-15-13.3c-0.3-2.7,0.8-5.2,3.1-7.1c3.4-2.8,9-3.9,13-2.6
		c3.9,1.3,4,3.7,3.9,4.7c-0.3,2.4-2.8,4.5-6.1,5.4l3.2,10.9c0.2,0.6,0,1.3-0.5,1.7C827.3,1346.3,826.9,1346.4,826.5,1346.5
		L826.5,1346.5z M823.4,1326c-2.5,0-5.3,0.9-7.2,2.4c-1,0.8-2.2,2.3-2,4.2c0.4,3,5.3,6.6,9.8,9.1l-2.7-9.1c-0.1-0.5-0.1-1,0.2-1.4
		c0.3-0.4,0.7-0.6,1.2-0.7c3.2-0.4,5-2,5.1-2.9c0.1-0.5-0.8-1-1.7-1.3C825.3,1326.2,824.4,1326,823.4,1326L823.4,1326z"/>
	<polygon class="st9" points="823.9,1293.3 852.3,1431.5 867.3,1441.1 839.2,1301 	"/>
	<path class="st7" d="M867.3,1442.7c-0.3,0-0.6-0.1-0.9-0.3l-15-9.5c-0.4-0.2-0.6-0.6-0.7-1l-28.3-138.2c-0.1-0.6,0.1-1.2,0.6-1.6
		c0.5-0.4,1.2-0.5,1.7-0.2l15.3,7.6c0.5,0.2,0.8,0.6,0.9,1.1l28.1,140.1c0.1,0.6-0.1,1.3-0.7,1.7
		C868,1442.6,867.7,1442.7,867.3,1442.7L867.3,1442.7z M853.7,1430.5l11.2,7.1l-27.2-135.6l-11.6-5.8L853.7,1430.5L853.7,1430.5z"/>
	<path class="st6" d="M956.3,1409.3c0,0-27.4-9.8-37.6-17.9s-19.3-38.6-27.1-37.6c-7.8,1,1.4,38.6,1.4,38.6s-15.9-2-25.8-9.1
		c-9.8-7.1-27.1-22.4-33.5-21.7c-6.4,0.7,20.7,29.1,20.7,29.1s-16.6-6.4-20-4.4c-3.4,2,15.3,14.2,15.3,14.2s-7.3-1.5-8.7,2.9
		c-1.4,4.4,11.4,10,11.4,10s-9.2,3.9,0.6,10.7c9.9,6.8,22.5,16.3,37.4,16.9s35.9-1.5,35.9-1.5l24.1,17.3
		C950.3,1456.8,951.9,1426.5,956.3,1409.3L956.3,1409.3z"/>
	<path class="st7" d="M950.2,1458.4c-0.3,0-0.7-0.1-0.9-0.3l-23.6-16.9c-3.6,0.4-22.1,2.1-35.5,1.5c-14.4-0.6-26.4-9-36.2-15.8
		l-2-1.4c-3.7-2.6-5.5-5.2-5.2-7.8c0.2-1.7,1.2-3,2.2-4c-4.3-2.2-10.9-6.4-9.6-10.7c0.7-2.4,2.7-3.6,4.9-4.1c-5.7-4-12.1-9.1-12-12
		c0-0.8,0.5-1.6,1.2-2c2.6-1.5,9.6,0.2,15.1,2c-8.6-9.3-18.8-21.6-17.4-25.3c0.4-0.9,1.2-1.6,2.3-1.7c5.2-0.6,14.3,6.3,26.7,15.9
		c2.9,2.3,5.6,4.4,7.9,6.1c7.2,5.2,18,7.6,22.7,8.5c-1.8-7.8-6.4-30.4-2.3-36.4c0.9-1.3,2.1-1.8,2.9-1.8c5.3-0.7,9.8,7.8,15.5,18.5
		c4.1,7.8,8.5,16,12.8,19.5c9.9,7.9,36.8,17.5,37.1,17.6c0.8,0.3,1.2,1.1,1,1.9c-4.3,16.9-6,46.9-6,47.2c0,0.6-0.4,1.1-0.9,1.4
		C950.8,1458.4,950.6,1458.4,950.2,1458.4L950.2,1458.4z M926.2,1437.8c0.3,0,0.7,0.1,0.9,0.3l21.7,15.6c0.5-7.8,2.1-29.2,5.6-43.5
		c-5.8-2.1-27.6-10.4-36.7-17.7c-4.9-3.9-9.4-12.3-13.7-20.5c-4.1-7.6-9.1-17.3-12.2-16.8c-0.1,0-0.3,0-0.6,0.5
		c-2.9,4.3,0.5,24.5,3.3,36.2c0.1,0.5,0,1.1-0.4,1.5c-0.4,0.4-0.9,0.6-1.4,0.5c-0.7-0.1-16.5-2.2-26.5-9.4c-2.3-1.7-5.1-3.9-8-6.2
		c-8.2-6.4-19.2-15-23.9-15.3c0.9,3.6,11.3,16.1,21.2,26.4c0.5,0.6,0.6,1.4,0.2,2s-1.2,0.9-1.9,0.6c-7.7-3-15.4-5-17.9-4.7
		c1.5,2.2,8.4,7.6,14.6,11.7c0.6,0.4,0.9,1.3,0.6,2c-0.3,0.7-1.1,1.1-1.8,1c-0.1,0-5.9-1.1-6.8,1.8c-0.5,1.7,5.1,5.7,10.5,8
		c0.6,0.3,1,0.8,1,1.5c0,0.6-0.4,1.2-1,1.5c-0.7,0.3-2.8,1.5-2.9,3c-0.1,1.3,1.2,3,3.8,4.8l2.1,1.4c9.4,6.5,21,14.6,34.4,15.2
		C905,1440,925.8,1437.8,926.2,1437.8C926.1,1437.8,926.2,1437.8,926.2,1437.8L926.2,1437.8z"/>
	<path class="st7" d="M875.4,1405.7c0,0-0.3,0-0.4-0.1c-8-2-21.2-13.3-21.8-13.8c-0.7-0.6-0.7-1.6-0.2-2.3c0.6-0.7,1.6-0.8,2.3-0.2
		c0.1,0.1,13.2,11.2,20.4,13.1c0.9,0.2,1.4,1.1,1.2,2C876.8,1405.2,876.1,1405.7,875.4,1405.7L875.4,1405.7z"/>
	<path class="st7" d="M877,1415.4c0,0-0.3,0-0.5-0.1c-0.7-0.2-16.7-5.3-27.8-13.5c-0.7-0.5-0.9-1.6-0.4-2.3c0.5-0.7,1.6-0.9,2.3-0.4
		c10.7,7.8,26.7,13,26.9,13c0.8,0.3,1.3,1.2,1.1,2C878.3,1414.9,877.7,1415.4,877,1415.4L877,1415.4z"/>
	<path class="st7" d="M877,1427c-0.2,0-0.4,0-0.6-0.1c-0.6-0.3-14.9-6.1-24.9-12.2c-0.8-0.5-1-1.5-0.6-2.2c0.5-0.8,1.5-1,2.2-0.6
		c9.8,5.9,24.3,11.9,24.4,11.9c0.8,0.4,1.2,1.3,0.9,2.1C878.2,1426.6,877.6,1427,877,1427L877,1427z"/>
	<path class="st8" d="M1050.7,1413.8c0,0-90-16.6-94.4-4.5c0,0-6.2,34-6.1,47.5c0,0,0.5,12.8,8.4,17.4c7.8,4.6,72.6,33.3,136.2,37.2
		"/>
	<path class="st7" d="M1094.8,1513C1094.8,1513,1094.7,1513,1094.8,1513c-64.8-3.9-130.5-33.6-137-37.5c-8.5-5-9.1-18.1-9.1-18.7
		c-0.2-13.5,5.8-46.5,6.1-47.9c4.7-13,81,0.4,96.3,3.2c0.9,0.2,1.5,1,1.3,1.9c-0.2,0.9-1,1.5-1.9,1.3c-43.6-8-90.1-12.3-92.6-5.5
		c0,0.1-6.1,33.8-6,46.9c0,0.1,0.6,11.9,7.6,16c6.4,3.8,71.4,33.1,135.5,37c0.9,0.1,1.6,0.8,1.5,1.7
		C1096.4,1512.3,1095.7,1513,1094.8,1513L1094.8,1513z"/>
	<path class="st7" d="M989.9,1407.6c-0.7,0-1.4-0.5-1.6-1.3l-29-141.6c-4.9-0.4-24.3-1.4-49.2,1.9c-28.7,3.8-71.4,20.9-71.8,21.1
		c-0.8,0.3-1.8-0.1-2.1-0.9c-0.3-0.8,0.1-1.8,0.9-2.1c0.4-0.2,43.5-17.4,72.6-21.3c29.1-3.9,50.9-1.8,51.1-1.8
		c0.7,0.1,1.3,0.6,1.4,1.3l29.2,142.8c0.2,0.9-0.4,1.7-1.3,1.9C990.1,1407.5,990,1407.5,989.9,1407.6L989.9,1407.6z"/>
	<path class="st7" d="M835,1294.9c-0.7,0-1.4-0.5-1.6-1.2c-0.2-0.9,0.3-1.7,1.2-2c0.1,0,9.4-2.5,29.7-10.4
		c21.4-8.4,64.9-12.9,88.1-11.1c0.9,0.1,1.6,0.8,1.5,1.7c-0.1,0.9-0.8,1.6-1.7,1.5c-22.8-1.7-65.7,2.7-86.7,10.9
		c-20.4,8-29.7,10.4-30,10.5C835.3,1294.9,835.2,1295,835,1294.9L835,1294.9z"/>
	<path class="st7" d="M826.6,1289c-0.7,0-1.3-0.5-1.6-1.1l-14.1-45.7c-0.3-0.8,0.2-1.8,1.1-2c0.8-0.3,1.7,0.2,2,1.1l14.1,45.7
		c0.3,0.8-0.2,1.7-1.1,2C826.9,1289,826.7,1289,826.6,1289L826.6,1289z"/>
	<path class="st7" d="M831.3,1287.1c-0.8,0-1.5-0.6-1.6-1.4c-0.3-1.7-7.2-28.6-11.7-46.5c-0.2-0.9,0.3-1.7,1.2-2
		c0.9-0.2,1.7,0.3,2,1.2c11.8,46.3,11.8,46.8,11.8,47.1C832.9,1286.4,832.2,1287.1,831.3,1287.1z"/>
	<path class="st7" d="M835.9,1281c-0.7,0-1.4-0.5-1.6-1.3L825,1237c-0.2-0.9,0.4-1.7,1.2-1.9c0.9-0.2,1.7,0.4,1.9,1.2l9.3,42.8
		c0.2,0.9-0.4,1.7-1.2,1.9C836.1,1281,836,1281,835.9,1281L835.9,1281z"/>
	<path class="st7" d="M1052.7,1421c-0.6,0-1.3-0.4-1.5-1.1c-0.1-0.2-6.7-18.5-15-42.5c-7.1-20.8-33.2-123.4-13.4-139.9
		c0.7-0.6,1.7-0.5,2.3,0.2c0.6,0.7,0.5,1.7-0.2,2.3c-16.5,13.7,4.2,106.7,14.3,136.4c8.2,23.9,14.9,42.2,14.9,42.4
		c0.3,0.8-0.1,1.8-1,2.1C1053,1421,1052.9,1421,1052.7,1421L1052.7,1421z"/>
	<path class="st9" d="M897.8,1230.1c-4.2,12.4-7.1,33.9-7.1,33.9"/>
	<path class="st7" d="M890.7,1265.6c0,0-0.1,0-0.2,0c-0.9-0.1-1.5-0.9-1.4-1.8s2.9-21.8,7.2-34.2c0.3-0.8,1.2-1.3,2.1-1
		c0.8,0.3,1.3,1.2,1,2.1c-4.1,12.1-7,33.3-7.1,33.5C892.2,1265,891.5,1265.6,890.7,1265.6L890.7,1265.6z"/>
	<path class="st6" d="M971.4,1169.8c4.4,22,11.6,47.3,11.6,47.3s-2.3,21.8-23.9,26.8c-21.6,5.1-25-13.5-25.6-17.3
		c-0.5-3.9,0.8-16.8,0.7-21C934.1,1201.3,971.4,1169.8,971.4,1169.8L971.4,1169.8z"/>
	<path class="st7" d="M952.1,1246.4c-4.3,0-8-1.1-11.1-3.2c-6.8-4.7-8.6-13-9-16.4c-0.3-2.5,0-7.9,0.3-13.1c0.2-3.3,0.4-6.4,0.4-8.1
		c-0.1-4.4,23.7-25.1,37.8-37.1c0.5-0.4,1-0.5,1.6-0.3c0.6,0.2,0.9,0.6,1.1,1.2c4.3,21.7,11.5,47,11.5,47.2c0.1,0.2,0.1,0.4,0.1,0.6
		c0,0.2-2.7,23-25.2,28.3C956.9,1246.2,954.4,1246.4,952.1,1246.4L952.1,1246.4z M970.4,1172.8c-16.8,14.3-33.9,30.1-34.6,32.9
		c0.1,1.6-0.1,4.8-0.4,8.2c-0.3,4.9-0.6,10.3-0.3,12.5c0.4,2.9,1.9,10.2,7.7,14.2c4,2.8,9.3,3.4,15.9,1.8
		c19.1-4.5,22.3-22.5,22.7-25.1C980.5,1214.3,974.5,1192.6,970.4,1172.8L970.4,1172.8z"/>
	<path class="st6" d="M875.4,1117.1c0,0-13.9,60,12,81.2c25.9,21.2,84.6,10.8,97.9-29.7c0,0,13.3,12.2,21.9-3
		c8.6-15.3-6-29.3-21.4-20.4c0,0-7.7-15.1-38-22.1c-30.3-6.9-47.3-23.9-47.3-23.9S896.2,1109.9,875.4,1117.1L875.4,1117.1z"/>
	<path class="st7" d="M921.9,1210.7c-13.8,0-26.6-3.8-35.5-11.1c-26.4-21.6-13.1-80.3-12.5-82.8c0.1-0.6,0.5-1,1-1.2
		c19.7-6.8,24-16.9,24.1-16.9c0.2-0.5,0.6-0.9,1.2-1c0.5-0.1,1.1,0.1,1.5,0.4c0.2,0.2,17.1,16.7,46.6,23.5
		c25.6,5.9,35.5,17.4,38.2,21.5c7.4-3.6,15.2-2.8,20.4,2.3c5.3,5.3,6.1,13.5,1.8,21.1c-2.8,4.9-6.3,7.7-10.4,8.4
		c-5,0.8-9.6-1.7-12.1-3.4c-6.4,17.1-21.6,30.2-42,36.2C936.6,1209.7,929.1,1210.8,921.9,1210.7L921.9,1210.7z M876.8,1118.4
		c-1.6,7.4-11.5,59.8,11.6,78.7c12.7,10.4,34.2,13.3,54.7,7.3c20.2-5.9,35-19.1,40.6-36.2c0.2-0.5,0.6-0.9,1.1-1.1
		c0.6-0.1,1.1,0,1.5,0.4c0.1,0,5.6,5.1,11.2,4.1c3.1-0.5,5.9-2.8,8.1-6.7c4.2-7.6,2.1-13.8-1.3-17.2c-4.4-4.3-11.4-4.8-17.9-1
		c-0.4,0.2-0.8,0.3-1.3,0.2c-0.4-0.1-0.8-0.4-1-0.8c-0.1-0.1-7.8-14.6-36.9-21.2c-25.6-5.9-41.7-18.6-46.6-22.9
		C898.6,1105.5,892.3,1112.9,876.8,1118.4L876.8,1118.4z"/>
	<path class="st7" d="M925.3,1138c6.3-4.4,15.1-5,21.9-1.4c0.8,0.5,1.1,1.5,0.6,2.3c-0.3,0.5-0.8,0.8-1.4,0.8
		c-3.5,0.2-6.7,0.1-10,0.3c-2.8,0.1-6.9,0.6-9.8,0.9C925,1141.4,923.9,1139.1,925.3,1138L925.3,1138L925.3,1138z"/>
	<path class="st7" d="M874.5,1134.3c7.9-2.8,16.9-2.1,24.5,1.4c1.6,0.7,0.9,3.2-0.7,3.1c-5.8,0-11.7-0.7-17.4-1l-5.7-0.3H875
		C873.3,1137.4,872.9,1134.8,874.5,1134.3L874.5,1134.3L874.5,1134.3z"/>
	<path class="st7" d="M897.3,1173c-3.5,0-6.2-2.2-7.1-6c-0.5-2.1-0.1-4.1,1-5.7c2-2.8,5.9-3.8,8.1-4.1c-0.1-3.1-0.6-10.8-2.4-19.7
		c-0.2-0.9,0.4-1.8,1.3-1.9c0.9-0.2,1.7,0.4,1.9,1.3c2.5,12,2.5,21.4,2.5,21.8c0,0.8-0.6,1.6-1.5,1.6c-1.5,0.1-5.7,0.9-7.3,3
		c-0.6,0.8-0.8,1.8-0.5,3c0.8,3.5,3.3,3.6,4.7,3.4c2.9-0.4,5.8-3,5.6-6.3c-0.1-0.9,0.6-1.7,1.5-1.7c0.9,0,1.7,0.6,1.7,1.5
		c0.4,5.2-4.1,9-8.3,9.7C898.2,1173,897.7,1173.1,897.3,1173L897.3,1173z"/>
	<path class="st7" d="M938.9,1153.2c-0.2,3.6-2.4,6.4-4.9,6.2c-2.5-0.1-4.3-3.1-4.1-6.7c0.1-1.1,0.3-2.1,0.7-3l4.1,2.5l-1.7-5.3
		c0.6-0.3,1.1-0.5,1.7-0.4C937.2,1146.6,939.1,1149.6,938.9,1153.2L938.9,1153.2z"/>
	<path class="st7" d="M889.8,1150.4c-0.2,3.6-2.4,6.4-4.9,6.2c-2.5-0.1-4.3-3.1-4.1-6.7c0.1-1.1,0.3-2.1,0.7-3l4.1,2.5l-1.7-5.3
		c0.6-0.3,1.1-0.5,1.7-0.4C888.1,1143.8,890,1146.8,889.8,1150.4L889.8,1150.4z"/>
	<path class="st7" d="M914.9,1189.5c-3.1,0-6.5-1.4-9.8-4.1c-0.7-0.6-0.8-1.6-0.2-2.3s1.6-0.8,2.3-0.2c3.4,2.9,6.9,4,9.7,3.1
		c2.4-0.7,4.3-2.9,5.2-6.1c0.3-0.9,1.1-1.4,2-1.1c0.9,0.3,1.4,1.1,1.1,2c-1.2,4.2-3.9,7.2-7.4,8.3
		C916.9,1189.5,915.9,1189.6,914.9,1189.5L914.9,1189.5z"/>
	<path class="st7" d="M999.1,1159.2c-0.6,0-1.3-0.4-1.5-1c-0.8-2.2-2.1-3.6-3.8-4.2c-3.5-1.3-7.7,0.7-7.7,0.7
		c-0.8,0.4-1.8,0.1-2.2-0.7c-0.4-0.8-0.1-1.8,0.7-2.2c0.2-0.1,5.5-2.7,10.3-0.9c2.6,1,4.5,3,5.7,6.1c0.3,0.8-0.1,1.8-0.9,2.1
		C999.5,1159.2,999.3,1159.2,999.1,1159.2L999.1,1159.2z"/>
	<path class="st7" d="M990.8,1168.6c-0.7,0-1.3-0.4-1.5-1.1c-0.3-0.8,0.2-1.8,1-2c1.4-0.5,2.4-1.5,3.1-3.1c1.3-3.2,0.6-7.7-0.2-9
		c-0.4-0.8-0.1-1.8,0.7-2.2c0.8-0.4,1.8-0.1,2.2,0.7c1.2,2.2,1.9,7.6,0.3,11.8c-1,2.5-2.7,4.2-5,5
		C991.2,1168.6,991,1168.7,990.8,1168.6L990.8,1168.6z"/>
	<path class="st8" d="M893.8,1983l-9.2,70.2c-0.6,4.9-5.1,8.4-10,7.8l-129.7-16c-5.4-0.7-9-6-7.6-11.3l0.8-3c0,0,14.9-60,79.8-56
		C818,1974.7,848.7,1987.5,893.8,1983L893.8,1983z"/>
	<path class="st7" d="M883.8,2049c0,0-0.1,0-0.2,0l-143.8-17.8c-0.9-0.1-1.5-0.9-1.4-1.8c0.1-0.9,0.9-1.5,1.8-1.4l143.8,17.8
		c0.9,0.1,1.5,0.9,1.4,1.8C885.4,2048.4,884.6,2049,883.8,2049L883.8,2049z"/>
	<path class="st7" d="M849.1,2044.7c0,0-0.2,0-0.3,0c-0.9-0.2-1.5-1-1.3-1.9c0.1-0.3,6.8-32,42.2-29.5c0.9,0.1,1.6,0.8,1.5,1.8
		s-0.8,1.6-1.7,1.5c-32.6-2.4-38.8,26.6-38.8,26.9C850.6,2044.2,849.9,2044.7,849.1,2044.7L849.1,2044.7z"/>
	<path class="st7" d="M817.1,1997c-0.5,0-0.9-0.2-1.2-0.6l-26.6-29.7c-0.6-0.7-0.6-1.7,0.1-2.3c0.6-0.6,1.7-0.6,2.3,0.1l26.6,29.7
		c0.6,0.7,0.6,1.7-0.1,2.3C817.9,1996.9,817.5,1997,817.1,1997L817.1,1997z"/>
	<path class="st7" d="M801.6,2000.8c-0.5,0-0.9-0.2-1.2-0.6l-26.6-29.7c-0.6-0.7-0.6-1.7,0.1-2.3c0.7-0.6,1.7-0.6,2.3,0.1l26.6,29.7
		c0.6,0.7,0.6,1.7-0.1,2.3C802.4,2000.7,802,2000.8,801.6,2000.8L801.6,2000.8z"/>
</g>
</svg>
