<?xml version="1.0" encoding="utf-8"?>
<!-- Generator: Adobe Illustrator 27.2.0, SVG Export Plug-In . SVG Version: 6.00 Build 0)  -->
<svg version="1.1" id="Capa_1" xmlns="http://www.w3.org/2000/svg" xmlns:xlink="http://www.w3.org/1999/xlink" x="0px" y="0px"
	 viewBox="0 0 5775 2912.3" style="enable-background:new 0 0 5775 2912.3;" xml:space="preserve">
<style type="text/css">
	.st0{fill:#FEF4F2;}
	.st1{fill:#48AF94;}
	.st2{fill:#51BFA6;}
	.st3{fill:#58CCAA;}
	.st4{fill:#777777;}
	.st5{fill:#00847F;}
	.st6{fill:#FFFFFF;}
	.st7{fill:#732A09;}
	.st8{fill:#D13F3F;}
	.st9{fill:#F35454;}
	.st10{fill:#F05454;}
	.st11{fill:#DDDDDD;}
	.st12{fill:#F2F2F2;}
	.st13{fill:#FCEDB1;}
	.st14{fill:#EF7B41;}
	.st15{fill:#DD6C3A;}
	.st16{fill:#56C0EF;}
	.st17{fill:#F4E5A6;}
	.st18{fill:#A7ECF2;}
	.st19{fill:#EFEFEF;}
	.st20{fill:#F4E7B0;}
	.st21{fill:#EDDFA4;}
</style>
<g>
	<g id="character_00000128460267014171376820000015208241790045408393_">
		<path class="st6" d="M4867.7,1976.6l7.5,20.6l-39-2.2l-38-16.7l-11.7-27.5l19.3-208l63.4,17.4c0,0-24.9,183.8-21.4,194
			C4851.3,1964.5,4867.7,1976.6,4867.7,1976.6L4867.7,1976.6z"/>
		<path class="st7" d="M4836.1,1996.4c-0.2,0-0.4-0.1-0.5-0.1l-38-16.7c-0.3-0.1-0.6-0.4-0.7-0.7l-11.7-27.5
			c-0.1-0.2-0.1-0.4-0.1-0.6l19.3-208c0-0.4,0.3-0.7,0.6-1c0.4-0.2,0.8-0.3,1.2-0.2l63.4,17.4c0.6,0.2,1.1,0.8,1,1.4
			c-6.9,51-24.3,185.3-21.5,193.5c3.3,9.7,19.2,21.6,19.4,21.7c0.2,0.1,0.3,0.4,0.4,0.6l7.5,20.6c0.1,0.4,0.1,0.8-0.2,1.2
			c-0.3,0.4-0.7,0.5-1.2,0.5L4836.1,1996.4L4836.1,1996.4z M4873.2,1995.8l-6.7-18.4c-2.4-1.8-16.7-12.9-20-22.7
			c-3.4-10.1,18.9-176.7,21.2-193.4l-60.6-16.6l-19.1,206.1l11.3,26.7l37.2,16.4L4873.2,1995.8L4873.2,1995.8z"/>
		<path class="st6" d="M5224.1,1017.7c4.1-1.7,8.8-4.6,13.2-9.3c3.1-3.4,4.6-7.3,5.1-11.1c1.1-8.9-3.1-17.2-3.4-17.8
			c1.4,1.2,47.8,39.5,65.7,54.3c18.4,15.2,69,52.8,85.1,64.7c3.3,2.4,4.8,6.4,3.8,10.1c-4.5,16.9-18.5,20.6-26.7,21.3
			c-3.6,0.3-7.1-1.2-9.4-3.8c-11.5-13.3-25-23.8-25-23.8s-32.1-14.1-33.3-14.8c-1.2-0.6-16.9-23.6-16.9-23.6l-69-43.6
			C5213.3,1020.3,5218,1020.2,5224.1,1017.7z"/>
		<path class="st7" d="M5365.2,1131.1c-3.4-0.2-6.6-1.7-8.9-4.3c-10.7-12.3-23.2-22.3-24.7-23.5c-4-1.8-32-14.1-33.1-14.7
			c-0.4-0.2-1.5-0.8-17.3-23.8l-68.7-43.4c-0.5-0.3-0.7-0.9-0.6-1.4s0.7-0.9,1.3-0.9c0,0,4.5-0.1,10.2-2.5c4.8-2,9.1-5,12.7-9
			c2.6-2.9,4.2-6.4,4.7-10.4c1.1-8.6-3.1-16.8-3.3-17.1c-0.3-0.6-0.1-1.2,0.4-1.6c0.5-0.4,1.3-0.3,1.8,0.1
			c1.4,1.1,47.3,39.1,65.7,54.3c19.4,16,74.2,56.7,85.1,64.6c3.7,2.8,5.4,7.3,4.3,11.5c-4.8,17.8-19.6,21.6-28,22.2
			C5366.3,1131.1,5365.8,1131.2,5365.2,1131.1L5365.2,1131.1z M5242.3,983.9c1.1,3.5,2.1,8.4,1.5,13.5c-0.6,4.5-2.4,8.5-5.4,11.8
			c-3.9,4.3-8.5,7.5-13.7,9.7c-2.9,1.2-5.5,1.9-7.5,2.3l65.9,41.6c0.2,0.1,0.3,0.2,0.4,0.4c5.8,8.4,15.3,22.1,16.4,23.1
			c1,0.5,20.4,9.1,33.2,14.7c0.1,0,0.2,0.1,0.3,0.2c0.1,0.1,13.7,10.7,25.2,24c2,2.3,5.1,3.6,8.1,3.3c7.7-0.6,21.1-4.1,25.5-20.3
			c0.9-3.2-0.5-6.7-3.3-8.8c-10.8-8-65.7-48.7-85.2-64.7C5288.4,1022.1,5254.3,993.9,5242.3,983.9L5242.3,983.9z"/>
		<path class="st7" d="M5216.5,989.7c11.2-14.3,22.4-10.3,22.4-10.3l0,0c0.3,0.6,4.5,8.9,3.4,17.8l-13.4-8.5c0,0-14.2,16.6-4.9,29
			c-6.1,2.6-10.8,2.6-10.8,2.6S5205.3,1004,5216.5,989.7z"/>
		<path class="st7" d="M5213.2,1021.6c-0.5,0-1-0.3-1.2-0.8c-0.4-0.7-8.2-17.1,3.4-31.9c11.7-15,23.5-11,24-10.8
			c0.2,0.1,0.4,0.2,0.6,0.4c0.1,0.1,0.2,0.2,0.2,0.3c0.5,0.9,4.7,9.4,3.5,18.6c-0.1,0.4-0.4,0.8-0.8,1c-0.4,0.2-1,0.1-1.4-0.1
			l-12.2-7.8c-2.7,3.6-11.4,16.6-4.1,26.4c0.2,0.3,0.3,0.7,0.2,1.1c-0.1,0.4-0.4,0.7-0.8,0.8
			C5218.4,1021.5,5213.5,1021.6,5213.2,1021.6C5213.3,1021.6,5213.2,1021.6,5213.2,1021.6L5213.2,1021.6z M5222,1017
			c-7.9-12.8,5.3-28.5,5.9-29.2c0.5-0.5,1.3-0.7,1.9-0.3l11.3,7.2c0.2-6.7-2.4-12.7-3.2-14.4c-2.2-0.5-11-1.7-20.2,10
			c-9.2,11.7-4.8,25-3.5,28.4C5215.7,1018.8,5218.5,1018.3,5222,1017L5222,1017z"/>
		<path class="st6" d="M5220.6,1130l44.3,25.4l33.1-40.6c22.1-1.3,34.4-12.7,34.4-12.7c-6.7-9.8-50.2-38.4-50.2-38.4
			c3.7-25.7-3.7-28.3-9.2-24.6c-5.5,3.8-9,37.1-13.9,44.3C5254.3,1090.7,5220.6,1130,5220.6,1130L5220.6,1130z"/>
		<path class="st7" d="M5264.9,1156.8c-0.2,0-0.5-0.1-0.7-0.2l-44.3-25.4c-0.4-0.2-0.6-0.5-0.7-0.9c-0.1-0.4,0-0.7,0.3-1
			c0.3-0.4,33.7-39.4,38.4-46.4c2.1-3,4-11.9,5.9-20.4c3-13.6,5.1-22,8.3-24.2c2.6-1.8,5.3-2.1,7.5-0.9c4.7,2.6,6.1,11.3,4.1,26
			c5.8,3.9,43.5,28.9,49.9,38.3c0.3,0.5,0.2,1.2-0.2,1.6c-0.5,0.5-12.7,11.5-34.6,13l-32.8,40.1
			C5265.8,1156.6,5265.3,1156.8,5264.9,1156.8L5264.9,1156.8z M5330.6,1102c-8.3-10.3-48.7-36.8-49.1-37.1c-0.4-0.3-0.6-0.8-0.6-1.2
			c2.8-19.6-1.3-23.4-2.6-24.1c-1.6-0.8-3.4,0.2-4.4,0.8c-2.6,1.8-5.2,13.4-7.2,22.7c-2,9.1-3.9,17.8-6.3,21.2
			c-4.4,6.5-32,38.8-37.7,45.5l41.8,24l32.4-39.6c0.2-0.3,0.6-0.5,1-0.5C5316,1112.5,5327.4,1104.5,5330.6,1102L5330.6,1102z"/>
		<path class="st7" d="M4986.8,1136l-151.3,31.8c0,0-74-18.1-75.4-29.7c-1.4-11.6,43.9-105.4,56.7-116.3s61.4-9.2,109.8,6.1
			c48.5,15.3,94.7,33.7,100.1,47.1C5032,1088.3,4986.8,1136,4986.8,1136L4986.8,1136z"/>
		<path class="st7" d="M4835.4,1169c-0.1,0-0.2,0-0.3,0c-0.2,0-18.8-4.6-37.3-10.5c-38.2-12.2-38.9-18.3-39.2-20.3
			c-1.5-12.2,44.5-106.6,57.1-117.4c13.8-11.8,63.7-9.1,111.3,5.9c35,11,94.6,31.9,101,47.9c5.5,13.7-35.5,57.4-40.2,62.3
			c-0.2,0.2-0.4,0.3-0.7,0.4l-151.3,31.8C4835.7,1169.1,4835.4,1169.1,4835.4,1169L4835.4,1169z M4986.1,1134.8
			c12.6-13.4,43.5-49.1,39.3-59.4c-4.4-10.9-40.5-27.8-99.2-46.3c-50.7-16-97-16.2-108.4-6.4c-11.9,10.2-57.6,103.9-56.2,115.3
			c0.9,7.7,45.7,21.5,74,28.5L4986.1,1134.8L4986.1,1134.8z"/>
		<path class="st6" d="M4940.7,1084.1c13.1,11.9,33.2,18.7,44.9,33.2c11.7,14.5,25.1,51.3,19.6,75.9c-5.6,24.6,2.1,44.6,2.1,44.6
			s-198.7,25.3-197.6-3s11.3-37.3,10.4-59.3c-0.9-21.9,1.9-42.5,5.5-61.5C4866.3,1070.3,4940.7,1084.1,4940.7,1084.1z"/>
		<path class="st7" d="M4847.2,1249c-17.2-1-30.4-3.3-36-8c-2.2-1.8-3.2-3.9-3.1-6.3c0.6-14.3,3.5-23.8,6-32.2
			c2.6-8.6,4.9-16.1,4.4-26.9c-0.9-23.6,2.5-45.4,5.6-61.7c0-0.2,0.2-0.5,0.3-0.6c40.9-43.8,115.8-30.6,116.5-30.4
			c0.3,0,0.5,0.2,0.7,0.4c5.4,4.9,12,8.9,18.9,13.1c9.4,5.8,19.2,11.7,26.1,20.3c11.9,14.7,25.4,51.9,19.8,77c-5.4,24,2,43.8,2,43.9
			c0.1,0.4,0.1,0.8-0.1,1.1s-0.6,0.5-1,0.6C5002,1239.8,4903.6,1252.2,4847.2,1249L4847.2,1249z M5005.3,1236.7
			c-1.6-5.1-6.4-22.7-1.6-43.8c5.5-24.4-7.8-60.6-19.3-74.9c-6.6-8.2-16.2-14-25.4-19.6c-6.6-4-13.4-8.2-19-13.1
			c-6-1-74.8-11.3-113.2,29.4c-3,16.2-6.4,37.6-5.4,60.9c0.5,11.2-2,19.2-4.5,27.7c-2.5,8.3-5.3,17.7-5.9,31.7
			c-0.1,1.6,0.7,3,2.2,4.3C4834.7,1257.1,4987.6,1238.9,5005.3,1236.7L5005.3,1236.7z"/>
		<path class="st7" d="M4719.3,1403.5c4.7-8.7,9.2-17.3,13.2-25.7c-0.5,0.4-5,4.5-12.4,10.2l6.1-109.1c11.5-6.6,24-14.2,37.1-23.3
			c13.4-9.3,27.4-16.3,41.3-21.6c50-18.9,98.5-15.2,113.5-13.5c53.3,5,94,15.1,128.4,15.3c21.4,0.1,40.4-3.6,58.4-14.8
			c32.6-20.2,73.2-62.5,95.1-86.4c9.6-10.6,15.6-17.6,15.6-17.6l82.1,57.6c0,0-5,6.9-13.8,17.8c-24.9,31-80.2,94.2-139.1,124.2
			c-79.6,40.5-119.8,44-119.8,44s-55.6,207.1-87.9,396.3c-1.9,11.3-3.8,22.6-5.5,33.7c0,0-104.2-6.9-229.7-78.7L4719.3,1403.5z"/>
		<path class="st7" d="M4731.5,1376.8c0.5-0.4,1.2-0.5,1.8-0.1c0.6,0.3,0.8,1,0.5,1.6c-4.5,9.3-9.4,18.8-14.7,28.4l0.4-6.5
			c3.1-5.7,6.1-11.4,8.8-17c-2.2,1.8-5,4.1-8.3,6.6l0.2-3.7C4726.7,1381.1,4730.7,1377.5,4731.5,1376.8z"/>
		<path class="st7" d="M4702.2,1710.1c116.9,66.9,215.9,77.8,228.4,79c2-12.3,3.7-22.7,5.3-32.5c31.9-187,87.4-394.3,87.9-396.4
			c0.1-0.5,0.6-0.9,1.2-1c0.4,0,40.9-4,119.2-43.8c57.6-29.3,111.6-90.2,138.6-123.8c6.7-8.4,11.2-14.4,13-16.7l-79.9-56.1
			c-2,2.3-7.4,8.5-14.8,16.7c-21.6,23.7-62.6,66.4-95.4,86.7c-16.8,10.4-35.6,15.2-59.2,15c-19.4-0.1-40.7-3.3-65.3-7.1
			c-18.7-2.9-39.9-6-63.2-8.3c-18-2-65-4.6-112.8,13.4c-14.8,5.6-28.6,12.8-41,21.4c-13.4,9.3-26.2,17.2-38,23.8l0.2-3.2
			c11.3-6.4,23.4-13.9,36.1-22.8c12.6-8.7,26.6-16,41.6-21.7c48.4-18.3,96-15.6,114.2-13.6c23.4,2.2,44.6,5.4,63.4,8.3
			c24.5,3.7,45.6,6.9,64.8,7c23.3,0.1,41.1-4.4,57.6-14.6c32.5-20.2,73.3-62.7,94.8-86.2c9.5-10.5,15.5-17.5,15.6-17.6
			c0.5-0.6,1.3-0.7,2-0.2l82.1,57.6c0.6,0.4,0.7,1.2,0.3,1.8c0,0.1-5.1,7.1-13.8,17.9c-27.2,33.8-81.4,95-139.5,124.5
			c-72.2,36.7-112.6,43.2-119.3,44c-3.9,14.8-56.8,214.5-87.6,395.3c-1.7,10.1-3.5,20.8-5.5,33.7c-0.1,0.6-0.7,1.1-1.5,1.1l0,0
			c-0.5,0-47.5-3.3-115.3-26.6c-31.7-10.9-71.3-27.4-114.4-52L4702.2,1710.1z"/>
		<path class="st8" d="M4918.2,1220.5c53.3,5,94,15.1,128.4,15.3c-8.8,21.4-42.2,81.8-133.2,71.8c-81.6-9-103-51.8-108.7-73.6
			C4854.6,1215.1,4903.2,1218.8,4918.2,1220.5z"/>
		<path class="st7" d="M4923.2,1309.7c-3.3-0.2-6.6-0.5-10-0.8c-81.1-8.9-103.7-50.6-109.9-74.6c-0.2-0.6,0.2-1.2,0.8-1.5
			c48.4-18.3,96-15.6,114.2-13.6c23.4,2.2,44.6,5.4,63.4,8.3c24.5,3.7,45.6,6.9,64.8,7c0.5,0,0.9,0.2,1.2,0.6s0.3,0.8,0.2,1.2
			C5040.1,1255.1,5008.6,1314.4,4923.2,1309.7L4923.2,1309.7z M4981.3,1230c-18.7-2.9-39.9-6-63.2-8.3c-17.9-2-64.3-4.6-111.7,13
			c6.4,23.5,29,62.9,107.2,71.5c88.3,9.7,121.9-48.3,131-69.2C5025.6,1236.8,5005,1233.6,4981.3,1230z"/>
		<path class="st10" d="M5215.6,1116.9l82.1,57.6c0,0-5,6.9-13.8,17.8c-15.4-13-50.4-42-84-57.8
			C5209.6,1123.9,5215.6,1116.9,5215.6,1116.9z"/>
		<path class="st8" d="M5283.9,1193.7c-0.3,0-0.6-0.1-0.9-0.3c-12.1-10.2-49-41.3-83.6-57.6c-0.4-0.2-0.7-0.5-0.7-0.9
			c-0.1-0.4,0-0.8,0.3-1.1c9.5-10.5,15.5-17.5,15.6-17.6c0.5-0.6,1.3-0.7,2-0.2l82.1,57.6c0.6,0.4,0.7,1.2,0.3,1.8
			c0,0.1-5.1,7.1-13.8,17.9c-0.2,0.3-0.6,0.5-1,0.5C5284,1193.6,5283.9,1193.6,5283.9,1193.7L5283.9,1193.7z M5215.9,1118.7
			c-1.9,2.2-6.8,7.8-13.7,15.4c33.4,16.1,68.5,45.3,81.5,56.3c6.2-7.8,10.4-13.4,12-15.6L5215.9,1118.7z"/>
		<path class="st6" d="M4739.8,1369.3c-0.1,0-0.3,0-0.4-0.1c-0.7-0.3-1.1-1.1-0.8-1.7c0.2-0.4,15.8-35.8,27.1-58.8
			c0.3-0.6,1.2-0.9,1.9-0.6c0.7,0.3,1,1.1,0.7,1.7c-11.2,22.9-26.9,58.3-27,58.7C4741,1369.1,4740.4,1369.4,4739.8,1369.3
			L4739.8,1369.3z"/>
		<path class="st6" d="M5025.1,1361.8c-0.1,0-0.2,0-0.3,0c-0.8-0.2-1.2-0.9-1-1.6c16.5-51,20.9-74.9,20.9-75.2
			c0.1-0.7,0.8-1.2,1.6-1.1c0.8,0.1,1.3,0.8,1.2,1.5c0,0.2-4.4,24.3-21,75.5C5026.3,1361.5,5025.7,1361.8,5025.1,1361.8
			L5025.1,1361.8z"/>
		<path class="st10" d="M4704.4,1670.1c17.8,11.8,37.1,23.2,57.6,33.3c62.8,30.8,132.5,46.2,175.2,53.4c-1.9,11.3-3.8,22.6-5.5,33.7
			c0,0-104.2-6.9-229.7-78.7L4704.4,1670.1z"/>
		<path class="st8" d="M4702.2,1710.1c116.9,66.9,215.9,77.8,228.4,79c1.9-11.8,3.5-21.8,5.1-31.3l0,0
			c-46.1-7.8-113.4-23.4-174.3-53.3c-20.3-10-39.5-21.3-57.1-32.9l0.2-3.1c17.9,11.9,37.4,23.5,58.2,33.7
			c61.2,30.1,128.9,45.6,174.8,53.3c0.8,0.1,1.3,0.8,1.2,1.5c-1.7,10.1-3.5,20.8-5.5,33.7c-0.1,0.6-0.7,1.1-1.5,1.1l0,0
			c-1.4-0.1-105.3-8-229.6-78.7L4702.2,1710.1z"/>
		<path class="st8" d="M4940.7,1084.1l-14.5,0.9c-32.6,2.1-64.3,10.7-92.9,25.1l-7.8,4c0,0-17.9-17.7-15.3-23.7s20.4-23.8,58.3-32.6
			c37.9-8.9,70.4-6.8,74.7-1.1C4947.4,1062.4,4940.7,1084.1,4940.7,1084.1L4940.7,1084.1z"/>
		<path class="st7" d="M4825.5,1115.4c-0.4,0-0.7-0.2-1-0.4c-3.1-3-18.4-18.7-15.6-25.1c3.1-7.1,21.7-24.6,59.2-33.4
			c36.7-8.6,71.1-7.4,76.2-0.6c4.5,6.1-1.6,26.2-2.3,28.5c-0.1,0.5-0.6,0.9-1.2,0.9l-14.5,0.9c-32.2,2.1-64.1,10.7-92.3,25l-7.8,4
			C4826,1115.4,4825.7,1115.4,4825.5,1115.4L4825.5,1115.4z M4939.6,1082.8c1.9-6.5,5.5-21.4,2.4-25.5c-3.4-4.6-33.8-7.5-73.1,1.6
			c-36.1,8.4-54.5,25.4-57.3,31.9c-1.5,3.5,7.2,14.4,14.3,21.6l6.8-3.5c28.5-14.5,60.8-23.2,93.4-25.3L4939.6,1082.8L4939.6,1082.8z
			"/>
		<path class="st6" d="M4898.8,1181.9l36.3,22.7l3.7,28.8c0.6,3.1-1,6.2-3.9,8c-8.7,5.1-18.9,5.2-25.4,4.5c-4-0.4-7.1-3.3-7.6-7
			C4900.9,1230.8,4898.7,1203.7,4898.8,1181.9L4898.8,1181.9z"/>
		<path class="st7" d="M4909.4,1247.1c-4.6-0.5-8.3-3.9-8.8-8.2c-1-7.5-3.3-34.7-3.2-57c0-0.5,0.3-0.9,0.7-1.1
			c0.5-0.2,1-0.2,1.4,0.1l36.3,22.7c0.4,0.2,0.6,0.6,0.6,0.9l3.7,28.7c0.6,3.6-1.1,7.3-4.5,9.3c-7.7,4.6-16.4,5.3-23.2,4.9
			C4911.4,1247.3,4910.4,1247.2,4909.4,1247.1z M4933.8,1205.3l-33.6-20.9c0,21.8,2.2,47,3.2,54.3c0.4,3.1,3,5.5,6.4,5.8
			c6.7,0.8,16.3,0.6,24.5-4.3c2.4-1.4,3.7-4.1,3.2-6.7L4933.8,1205.3L4933.8,1205.3z"/>
		<path class="st6" d="M4914.7,1096.2c0,0-5.7,29.1-30.4,43.5s-29.6,32.3-29.6,32.3c3.3,13.8,34.8,48.2,73,35.1
			c38.2-13.1,29.5-55,29.5-55c10.7-3.4,16.5-25,5-31.8c-11.5-6.8-17.4,4.5-17.4,4.5C4927.5,1116.1,4914.7,1096.2,4914.7,1096.2z"/>
		<path class="st7" d="M4907.4,1211.2c-7.8-0.4-15.6-2.6-23.1-6.4c-16.4-8.3-28.9-23.4-31.1-32.6c0-0.2,0-0.4,0-0.6
			c0.2-0.7,5.4-18.6,30.2-33.1c23.9-13.9,29.8-42.3,29.8-42.6c0.1-0.5,0.6-0.9,1.1-1c0.6-0.1,1.2,0.2,1.5,0.6
			c0.1,0.2,12.2,18.8,28.3,27.4c1.2-1.7,3.8-4.8,7.9-5.8c3.4-0.9,7-0.2,10.8,2c5.2,3.1,7.7,9.1,6.8,16.5c-1,7.9-5.4,14.8-11,17.2
			c1,6.7,4.9,43.3-30.6,55.4C4921.4,1210.6,4914.4,1211.6,4907.4,1211.2L4907.4,1211.2z M4955.6,1119.4c-0.9-0.1-1.8,0-2.7,0.2
			c-4.5,1.1-6.9,5.6-6.9,5.7c-0.2,0.3-0.5,0.5-0.8,0.7c-0.3,0.1-0.8,0.1-1.1-0.1c-13.8-6.9-24.6-20.5-28.8-26.3
			c-2.2,8-9.9,29.3-30.3,41.2c-22.2,12.9-28.2,28.9-28.9,31.2c2,7.6,13.3,22.3,29.6,30.5c9.4,4.8,24.3,9.2,41.5,3.3
			c15.3-5.3,24.8-15.8,28.2-31.4c2.5-11.7,0.4-22.1,0.4-22.2c-0.1-0.6,0.2-1.3,0.9-1.5c5-1.6,9.3-8.1,10.2-15.5
			c0.8-6.4-1.2-11.5-5.5-14C4959.4,1120.2,4957.4,1119.5,4955.6,1119.4L4955.6,1119.4z"/>
		<path class="st7" d="M4894,1146.4L4894,1146.4c1.3,0.6,0.7,2.6-0.8,2.4c-1.8-0.2-3.8-0.2-5.6,0c-5.6,0.4-9.3,3.9-12.2,8
			c-0.3,0.4-0.9,0.6-1.4,0.5c-0.8-0.2-1.3-0.9-1.1-1.6c0.5-2,1.2-4,2.5-5.6C4879.2,1144.6,4887.9,1143,4894,1146.4L4894,1146.4z"/>
		<path class="st7" d="M4930.4,1125.3L4930.4,1125.3c1.1,0.7,0.3,2.5-1,2.2l-0.6-0.1c-3.6-0.5-7.7,1.1-10.6,3.1
			c-3.4,2.3-5.8,5.5-8.2,8.7c-0.3,0.4-0.9,0.7-1.5,0.5c-0.8-0.2-1.2-0.9-1-1.6C4909.2,1129.3,4920.7,1120.2,4930.4,1125.3
			L4930.4,1125.3z"/>
		<path class="st7" d="M4923.1,1168.9c-3.2-0.2-6.4-1.6-8-4.6c-0.3-0.6,0-1.4,0.7-1.7c0.7-0.3,1.6,0,1.9,0.6c1.6,3,5.7,3.8,8.6,2.8
			c1.2-0.4,3.9-1.8,2.7-5.4c-0.4-1.2-1.1-2-2.2-2.4c-2.6-1.1-7,0.3-8.4,0.9c-0.7,0.3-1.5,0-1.8-0.5c-0.2-0.3-5.1-8.3-9.1-19.4
			c-0.2-0.7,0.2-1.4,0.9-1.6s1.6,0.2,1.8,0.9c3.1,8.6,6.8,15.4,8.2,17.9c2.1-0.7,6.3-1.8,9.5-0.5c1.9,0.8,3.1,2.1,3.8,4.1
			c1.2,3.8-0.5,7.2-4.4,8.5C4926,1168.8,4924.6,1169,4923.1,1168.9L4923.1,1168.9z"/>
		<path class="st7" d="M4887.8,1163.6c-1.7-3-1.2-6.3,1.1-7.4c0.6-0.3,1.2-0.3,1.8-0.3l0.6,5.3l2.9-3.7c0.7,0.6,1.4,1.4,1.9,2.3
			c1.7,3,1.2,6.3-1.1,7.4C4892.8,1168.3,4889.6,1166.7,4887.8,1163.6L4887.8,1163.6z"/>
		<path class="st7" d="M4922.8,1143.1c-1.4-3.1-0.6-6.4,1.8-7.2c0.6-0.2,1.2-0.3,1.8-0.2l0.1,5.3l3.2-3.5c0.7,0.7,1.3,1.5,1.7,2.5
			c1.4,3.2,0.6,6.4-1.8,7.3S4924.2,1146.3,4922.8,1143.1L4922.8,1143.1z"/>
		<path class="st7" d="M4912.4,1189.4c-5.5-0.3-10.1-6.1-10.3-6.4c-0.5-0.6-0.3-1.4,0.3-1.8c0.6-0.4,1.5-0.3,2,0.3
			c1.1,1.4,4.7,5.1,8.2,5.3l0.1,0c1.6,0.1,2.9-0.6,4.2-1.9c0.5-0.5,1.4-0.6,2-0.1c0.6,0.5,0.7,1.3,0.2,1.8
			C4917,1188.5,4914.9,1189.5,4912.4,1189.4C4912.4,1189.4,4912.4,1189.3,4912.4,1189.4L4912.4,1189.4z"/>
		<path class="st6" d="M4791.5,1063c3.3,7.5,10.1,15.3,24.4,27.6c14.3,12.4,21.9,19.9,21.9,19.9l4.4-3.1
			c-4.3-8.8-50.1-40.2-46.5-52.3C4789.9,1053.6,4791.5,1063,4791.5,1063z"/>
		<path class="st7" d="M4837.7,1111.9c-0.3,0-0.7-0.2-0.9-0.4c-0.1-0.1-7.8-7.6-21.8-19.8c-14.4-12.5-21.3-20.4-24.7-28.1
			c-0.1-0.1-0.1-0.2-0.1-0.3c-0.2-1.1-0.9-6.5,1.8-8.7c0.7-0.6,2.1-1.2,4.2-0.6c0.7,0.2,1.2,0.9,1,1.6c-2,6.9,16.1,22.8,29.3,34.4
			c8.6,7.6,15.4,13.6,17.1,17c0.3,0.6,0.1,1.2-0.4,1.6l-4.3,3.1C4838.3,1111.8,4838,1111.9,4837.7,1111.9L4837.7,1111.9z
			 M4840.2,1107.2c-2.2-3.2-8.9-9.1-15.9-15.3c-14.4-12.6-30.6-26.8-30.3-35.5c-0.1,0-0.2,0.1-0.3,0.1c-1.1,0.9-1.1,4.1-0.8,6.2
			c3.2,7.3,10,14.9,23.9,27c11.4,9.9,18.7,16.8,21.1,19.1L4840.2,1107.2L4840.2,1107.2z"/>
		<path class="st10" d="M4840.1,1101.6c0,0,8.1,7.4,10.8,11.6s-2.4,11.5-6.4,7.7c-4.1-3.8-9.6-10-10.9-11.9
			C4832.2,1107.2,4834.9,1106.1,4840.1,1101.6L4840.1,1101.6z"/>
		<path class="st7" d="M4846.7,1123.3c-1.1-0.1-2.2-0.5-3.2-1.4c-4.1-3.8-9.7-10.1-11.1-12.1c-1.7-2.4,0.4-4,3.3-6.3
			c1-0.8,2.2-1.7,3.5-2.9c0.5-0.5,1.4-0.5,2,0c0.3,0.3,8.2,7.6,11,11.9c2.1,3.2,0.5,7.8-2.3,9.8
			C4848.8,1123.1,4847.7,1123.4,4846.7,1123.3L4846.7,1123.3z M4840.1,1103.4c-1,0.8-1.9,1.5-2.6,2.1c-2.6,2.1-3,2.5-2.8,2.9
			c1.3,1.9,6.8,8,10.8,11.7c0.5,0.5,1.4,1.1,2.6,0.2c1.8-1.2,2.9-4.4,1.6-6.4C4847.6,1110.7,4842.3,1105.5,4840.1,1103.4
			L4840.1,1103.4z"/>
		<path class="st6" d="M5340,1063.7c-13.4,10.8-20.2,25.7-12.6,28.2c7.6,2.5,28.7-15.9,24.9-27.1c-3.8-11.2-18.2-7.3-18.2-7.3
			L5340,1063.7z"/>
		<path class="st7" d="M5328.6,1093.4c-0.6,0-1.1-0.1-1.6-0.3c-2.2-0.7-3.5-2.2-4-4.3c-1.3-6.1,5.1-16.8,15.1-25.2l-4.9-5.2
			c-0.4-0.3-0.4-0.8-0.3-1.2c0.1-0.4,0.5-0.8,1-0.9c5.4-1.4,16.6-1.6,19.9,8.2c2.4,7.1-4,16-10.2,21.5
			C5339,1089.9,5333,1093.6,5328.6,1093.4L5328.6,1093.4z M5340.7,1058.1c-1.5-0.1-2.9,0-4,0.2l4.3,4.5c0.5,0.5,0.5,1.4-0.1,1.8
			c-10.7,8.6-16.2,19-15.2,23.6c0.2,1.2,0.9,2,2.1,2.3c2.7,0.9,8.4-1.9,13.6-6.5c6.1-5.4,11.4-13.4,9.5-18.9
			C5349.2,1059.8,5344.6,1058.4,5340.7,1058.1L5340.7,1058.1z"/>
		<path class="st6" d="M5331.3,1055.1c-13.4,10.8-20.2,25.7-12.6,28.2c7.6,2.5,28.7-15.9,24.9-27.1c-3.8-11.2-18.2-7.3-18.2-7.3
			L5331.3,1055.1z"/>
		<path class="st7" d="M5318.1,1084.5c-2.1-0.7-3.5-2.2-3.9-4.3c-1.3-6.1,5.1-16.8,15.1-25.2l-4.9-5.2c-0.4-0.3-0.4-0.8-0.3-1.2
			s0.5-0.8,1-0.9c5.4-1.4,16.6-1.6,19.9,8.2c2.4,7.1-4,16-10.2,21.5c-4.4,3.9-10.4,7.7-14.9,7.4
			C5319.2,1084.7,5318.6,1084.6,5318.1,1084.5z M5331.9,1049.5c-1.5-0.1-2.9,0-4,0.2l4.3,4.5c0.5,0.5,0.5,1.4-0.1,1.8
			c-10.7,8.6-16.2,19-15.2,23.6c0.2,1.2,0.9,2,2.1,2.3c2.7,0.9,8.4-1.9,13.6-6.5c6.1-5.4,11.4-13.4,9.5-18.9
			C5340.4,1051.2,5335.8,1049.8,5331.9,1049.5L5331.9,1049.5z"/>
		<path class="st6" d="M5321.6,1046.4c-13.4,10.8-20.2,25.7-12.6,28.2c7.6,2.5,28.7-15.9,24.9-27.1c-3.8-11.2-18.2-7.3-18.2-7.3
			L5321.6,1046.4z"/>
		<path class="st7" d="M5308.5,1075.8c-2.1-0.7-3.5-2.2-3.9-4.3c-1.3-6.1,5.1-16.8,15.1-25.2l-4.9-5.2c-0.4-0.3-0.4-0.8-0.3-1.2
			s0.5-0.8,1-0.9c5.4-1.4,16.6-1.6,19.9,8.2c2.4,7.1-4,16-10.2,21.5c-4.4,3.9-10.4,7.7-14.9,7.4
			C5309.6,1076.1,5309,1076,5308.5,1075.8z M5322.3,1040.9c-1.5-0.1-2.9,0-4,0.2l4.3,4.5c0.5,0.5,0.5,1.4-0.1,1.8
			c-10.7,8.6-16.2,19-15.2,23.6c0.2,1.2,0.9,2,2.1,2.3c2.7,0.9,8.4-1.9,13.6-6.5c6.1-5.4,11.4-13.4,9.5-18.9
			C5330.8,1042.6,5326.3,1041.1,5322.3,1040.9L5322.3,1040.9z"/>
		<path class="st6" d="M5310.4,1039.9c-13.4,10.8-20.2,25.7-12.6,28.2s28.7-15.9,24.9-27.1c-3.8-11.2-18.2-7.3-18.2-7.3
			L5310.4,1039.9z"/>
		<path class="st7" d="M5298.9,1069.6c-0.6,0-1.1-0.1-1.6-0.3c-2.1-0.7-3.5-2.2-3.9-4.3c-1.3-6.1,5.1-16.8,15.1-25.2l-4.9-5.2
			c-0.4-0.3-0.4-0.8-0.3-1.2c0.1-0.4,0.5-0.8,1-0.9c5.4-1.4,16.6-1.6,19.9,8.2c2.4,7.1-4,16-10.2,21.5
			C5309.4,1066.1,5303.4,1069.9,5298.9,1069.6L5298.9,1069.6z M5311.1,1034.3c-1.5-0.1-2.9,0-4,0.2l4.3,4.6c0.5,0.5,0.5,1.4-0.1,1.8
			c-10.7,8.6-16.2,19-15.2,23.6c0.2,1.2,0.9,2,2.1,2.3c2.7,0.9,8.4-1.9,13.6-6.5c6.1-5.4,11.4-13.4,9.5-18.9
			C5319.6,1036.1,5315.1,1034.6,5311.1,1034.3L5311.1,1034.3z"/>
		<path class="st10" d="M5229,988.7l13.4,8.5c-0.5,3.8-1.9,7.7-5.1,11.1c-4.4,4.8-9.1,7.6-13.2,9.3
			C5214.8,1005.3,5229,988.7,5229,988.7z"/>
		<path class="st7" d="M5224,1019c-0.4,0-0.8-0.2-1.1-0.6c-9.8-13,4.3-29.8,4.9-30.5c0.5-0.5,1.3-0.7,1.9-0.3l13.4,8.5
			c0.4,0.3,0.7,0.8,0.6,1.2c-0.6,4.5-2.4,8.5-5.4,11.8c-3.9,4.3-8.5,7.5-13.7,9.7C5224.5,1019,5224.2,1019,5224,1019L5224,1019z
			 M5229.3,990.5c-2.7,3.5-10.9,15.8-4.7,25.5c4.3-2,8.3-4.8,11.6-8.5c2.5-2.7,4-5.9,4.6-9.7L5229.3,990.5z"/>
		<path class="st7" d="M5241.6,998.3L5241.6,998.3c-0.7-0.5-0.8-1.3-0.3-1.8c0.5-0.5,1.4-0.6,2-0.2c0.6,0.4,0.7,1.2,0.3,1.8
			c-0.3,0.4-0.7,0.5-1.2,0.5C5242.1,998.6,5241.8,998.5,5241.6,998.3z"/>
		<path class="st10" d="M4907.9,2033.1c-51.4-5.2-126.5-28.7-131.1-42c-6.5-18.6,9.8-40.3,9.8-40.3s40.6,28.7,54.8,29.3
			c14.1,0.7,14-14.2,30.2-7.4c8.6,3.5,30.8,13.2,49.7,24.4S4930.2,2035.4,4907.9,2033.1L4907.9,2033.1z"/>
		<path class="st8" d="M4909,2034.5c-0.4,0-0.8-0.1-1.2-0.1l0,0c-49.2-5-127.3-28.4-132.4-42.9c-6.6-19,9.3-40.5,9.9-41.4
			c0.2-0.3,0.6-0.5,0.9-0.5c0.4,0,0.8,0,1.1,0.3c0.4,0.3,40.2,28.3,53.9,29.1l0.1,0c5.6,0.3,8.7-2.1,11.9-4.6
			c4.4-3.4,8.9-6.8,18.9-2.7c8.7,3.6,30.8,13.2,49.9,24.5c10.5,6.2,12.2,16.9,9.3,24.7C4927.9,2029.8,4919.2,2035.1,4909,2034.5
			L4909,2034.5z M4907.9,2033.1L4907.9,2033.1L4907.9,2033.1z M4864.6,1972.3c-4.1-0.2-6.6,1.7-9.5,4c-3.4,2.6-7.2,5.5-13.9,5.2
			l-0.1,0c-13.3-0.7-47.2-23.8-54.2-28.7c-3.1,4.6-14.1,22.6-8.8,38c4.3,12.4,78.4,35.8,129.9,41.1l0,0c11.5,1.2,18.2-5.7,20.6-11.9
			c2.4-6.3,1.7-15.8-8.1-21.6c-18.9-11.3-40.9-20.8-49.5-24.3C4868.4,1972.9,4866.4,1972.4,4864.6,1972.3L4864.6,1972.3z"/>
	</g>
</g>
</svg>
