<?xml version="1.0" encoding="utf-8"?>
<!-- Generator: Adobe Illustrator 27.2.0, SVG Export Plug-In . SVG Version: 6.00 Build 0)  -->
<svg version="1.1" id="Capa_1" xmlns="http://www.w3.org/2000/svg" xmlns:xlink="http://www.w3.org/1999/xlink" x="0px" y="0px"
	 viewBox="0 0 5775 2912.3" style="enable-background:new 0 0 5775 2912.3;" xml:space="preserve">
<style type="text/css">
	.st0{fill:#FEF4F2;}
	.st1{fill:#48AF94;}
	.st2{fill:#51BFA6;}
	.st3{fill:#58CCAA;}
	.st4{fill:#777777;}
	.st5{fill:#00847F;}
	.st6{fill:#FFFFFF;}
	.st7{fill:#732A09;}
	.st8{fill:#D13F3F;}
	.st9{fill:#F35454;}
	.st10{fill:#F05454;}
	.st11{fill:#DDDDDD;}
	.st12{fill:#F2F2F2;}
	.st13{fill:#FCEDB1;}
	.st14{fill:#EF7B41;}
	.st15{fill:#DD6C3A;}
	.st16{fill:#56C0EF;}
	.st17{fill:#F4E5A6;}
	.st18{fill:#A7ECF2;}
	.st19{fill:#EFEFEF;}
	.st20{fill:#F4E7B0;}
	.st21{fill:#EDDFA4;}
</style>
<g>
	<g>
		<rect x="2273.6" y="1349" class="st13" width="1227.8" height="523.4"/>
		<rect x="998.2" y="1244.4" class="st14" width="3778.5" height="104.7"/>
		<rect x="998.2" y="1453.7" class="st14" width="3778.5" height="104.7"/>
		<rect x="998.2" y="1663.1" class="st14" width="3778.5" height="104.7"/>
		<g>
			<rect x="1785.3" y="1244.4" class="st15" width="488.3" height="104.7"/>
			<rect x="3501.4" y="1244.4" class="st15" width="488.3" height="104.7"/>
		</g>
		<rect x="2714.7" y="1778.1" class="st16" width="345.5" height="94.4"/>
		<rect x="2487.9" y="1778.1" class="st16" width="172.8" height="94.4"/>
		<rect x="3113.5" y="1778.1" class="st16" width="172.8" height="94.4"/>
		<g>
			<rect x="1785.3" y="1349" class="st17" width="488.3" height="523.4"/>
			<g>
				<g>
					<rect x="1819.5" y="1364.7" class="st18" width="191.2" height="191.2"/>
					<rect x="2048.2" y="1364.7" class="st18" width="191.2" height="191.2"/>
				</g>
				<g>
					<rect x="1819.5" y="1648.8" class="st18" width="191.2" height="133.2"/>
					<rect x="2048.2" y="1648.8" class="st18" width="191.2" height="133.2"/>
				</g>
				<g>
					<rect x="1819.5" y="1820.1" class="st19" width="191.2" height="52.3"/>
					<rect x="2048.2" y="1820.1" class="st19" width="191.2" height="52.3"/>
				</g>
			</g>
		</g>
		<g>
			<rect x="3501.4" y="1349" class="st17" width="488.3" height="523.4"/>
			<g>
				<g>
					<rect x="3535.6" y="1364.7" class="st18" width="191.2" height="191.2"/>
					<rect x="3764.2" y="1364.7" class="st18" width="191.2" height="191.2"/>
				</g>
				<g>
					<rect x="3535.6" y="1648.8" class="st18" width="191.2" height="133.2"/>
					<rect x="3764.2" y="1648.8" class="st18" width="191.2" height="133.2"/>
				</g>
				<g>
					<rect x="3535.6" y="1820.1" class="st19" width="191.2" height="52.3"/>
					<rect x="3764.2" y="1820.1" class="st19" width="191.2" height="52.3"/>
				</g>
			</g>
		</g>
		<g>
			<g>
				<rect x="1049.6" y="1558.4" class="st13" width="735.7" height="104.7"/>
				<g>
					<rect x="1142" y="1576.5" class="st18" width="252.6" height="68.4"/>
					<rect x="1440.3" y="1576.5" class="st18" width="252.6" height="68.4"/>
				</g>
			</g>
			<g>
				<rect x="1049.6" y="1767.8" class="st13" width="735.7" height="104.7"/>
				<g>
					<rect x="1142" y="1785.9" class="st18" width="252.6" height="68.4"/>
					<rect x="1440.3" y="1785.9" class="st18" width="252.6" height="68.4"/>
				</g>
			</g>
			<g>
				<rect x="1049.6" y="1349" class="st13" width="735.7" height="104.7"/>
				<g>
					<rect x="1142" y="1367.2" class="st18" width="252.6" height="68.4"/>
					<rect x="1440.3" y="1367.2" class="st18" width="252.6" height="68.4"/>
				</g>
			</g>
		</g>
		<g>
			<rect x="3989.6" y="1558.4" class="st13" width="735.7" height="104.7"/>
			<g>
				<rect x="4082" y="1576.5" class="st18" width="252.6" height="68.4"/>
				<rect x="4380.3" y="1576.5" class="st18" width="252.6" height="68.4"/>
			</g>
		</g>
		<g>
			<rect x="3989.6" y="1767.8" class="st13" width="735.7" height="104.7"/>
			<g>
				<rect x="4082" y="1785.9" class="st18" width="252.6" height="68.4"/>
				<rect x="4380.3" y="1785.9" class="st18" width="252.6" height="68.4"/>
			</g>
		</g>
		<g>
			<rect x="3989.6" y="1349" class="st13" width="735.7" height="104.7"/>
			<g>
				<rect x="4082" y="1367.2" class="st18" width="252.6" height="68.4"/>
				<rect x="4380.3" y="1367.2" class="st18" width="252.6" height="68.4"/>
			</g>
		</g>
		<g>
			<g>
				<g>
					<rect x="2317.4" y="1576.5" class="st18" width="252.6" height="68.4"/>
					<rect x="2615.7" y="1576.5" class="st18" width="252.6" height="68.4"/>
				</g>
				<g>
					<rect x="2317.4" y="1367.2" class="st18" width="252.6" height="68.4"/>
					<rect x="2615.7" y="1367.2" class="st18" width="252.6" height="68.4"/>
				</g>
			</g>
			<g>
				<g>
					<rect x="2906.7" y="1576.5" class="st18" width="252.6" height="68.4"/>
					<rect x="3204.9" y="1576.5" class="st18" width="252.6" height="68.4"/>
				</g>
				<g>
					<rect x="2906.7" y="1367.2" class="st18" width="252.6" height="68.4"/>
					<rect x="3204.9" y="1367.2" class="st18" width="252.6" height="68.4"/>
				</g>
			</g>
		</g>
		<g>
			<g>
				<g>
					<rect x="2322.8" y="1610.7" class="st20" width="165.1" height="282.1"/>
					
						<rect x="2543.1" y="1552.3" transform="matrix(4.490814e-11 -1 1 4.490814e-11 932.356 4318.9683)" class="st20" width="165.1" height="282.1"/>
				</g>
			</g>
			<g>
				<g>
					
						<rect x="3287" y="1610.7" transform="matrix(-1 -4.485846e-11 4.485846e-11 -1 6739.1226 3503.5991)" class="st20" width="165.1" height="282.1"/>
					
						<rect x="3066.7" y="1552.3" transform="matrix(6.123234e-17 -1 1 6.123234e-17 1455.9821 4842.5942)" class="st20" width="165.1" height="282.1"/>
				</g>
			</g>
		</g>
		<rect x="2029.4" y="1872.4" class="st21" width="1716.1" height="35.8"/>
	</g>
	<g>
		<rect x="3745.5" y="1874.2" class="st5" width="979.8" height="34.1"/>
		<rect x="1049.6" y="1874.2" class="st5" width="979.8" height="34.1"/>
	</g>
</g>
</svg>
