<?xml version="1.0" encoding="utf-8"?>
<!-- Generator: Adobe Illustrator 27.2.0, SVG Export Plug-In . SVG Version: 6.00 Build 0)  -->
<svg version="1.1" xmlns="http://www.w3.org/2000/svg" xmlns:xlink="http://www.w3.org/1999/xlink" x="0px" y="0px"
	 viewBox="0 0 500 500" style="enable-background:new 0 0 500 500;" xml:space="preserve">
<style type="text/css">
	.st0{fill:#FFFFF5;}
	.st1{fill:#DC3545;}
	.st2{fill:#FFFFFF;}
	.st3{fill:#732A09;}
	.st4{fill:#F35454;}
	.st5{fill:#F75454;}
	.st6{fill:#1B2E32;}
	.st7{clip-path:url(#SVGID_00000131336984265052302140000006599429014341867915_);fill:#F35454;}
	.st8{clip-path:url(#SVGID_00000131336984265052302140000006599429014341867915_);}
	.st9{clip-path:url(#SVGID_00000006706298962024890010000013411679431226300319_);fill:#F35454;}
	.st10{clip-path:url(#SVGID_00000006706298962024890010000013411679431226300319_);}
</style>
<g id="Layer_1">
</g>
<g id="Layer_2">
	<g>
		<g>
			<path class="st0" d="M394.1,343H105.9c-5.7,0-10.4-4.7-10.4-10.4V142.8c0-5.7,4.7-10.4,10.4-10.4h288.1c5.7,0,10.4,4.7,10.4,10.4
				v189.8C404.4,338.4,399.8,343,394.1,343z"/>
			<path class="st1" d="M394.1,132.5H105.9c-5.7,0-10.4,4.7-10.4,10.4v39.3h308.9v-39.3C404.4,137.1,399.8,132.5,394.1,132.5z"/>
			<g>
				<path class="st2" d="M120.1,151.5v8.7c0,0.9,0.2,1.5,0.6,2c0.4,0.5,1.1,0.7,1.9,0.7s1.5-0.2,1.9-0.7c0.4-0.5,0.7-1.1,0.7-2v-8.7
					h3.5v8.7c0,1.3-0.3,2.4-0.8,3.3c-0.6,0.9-1.3,1.6-2.2,2c-0.9,0.5-2,0.7-3.1,0.7c-1.1,0-2.2-0.2-3.1-0.7c-0.9-0.4-1.6-1.1-2.1-2
					c-0.5-0.9-0.8-2-0.8-3.3v-8.7H120.1z"/>
				<path class="st2" d="M144.2,166.1h-3.5l-5.9-9v9h-3.5v-14.6h3.5l5.9,9v-9h3.5V166.1z"/>
				<path class="st2" d="M150.4,151.5v14.6h-3.5v-14.6H150.4z"/>
				<path class="st2" d="M162.6,156.1c-0.3-0.5-0.6-0.9-1.1-1.1s-1.1-0.4-1.7-0.4c-1.1,0-2.1,0.4-2.8,1.1c-0.7,0.8-1,1.8-1,3
					c0,1.3,0.4,2.4,1.1,3.1c0.7,0.8,1.7,1.1,3,1.1c0.9,0,1.6-0.2,2.2-0.7c0.6-0.4,1-1.1,1.3-1.9h-4.5v-2.6h7.7v3.3
					c-0.3,0.9-0.7,1.7-1.3,2.5c-0.6,0.8-1.4,1.4-2.4,1.8c-1,0.5-2.1,0.7-3.3,0.7c-1.4,0-2.7-0.3-3.8-0.9c-1.1-0.6-2-1.5-2.6-2.6
					c-0.6-1.1-0.9-2.4-0.9-3.8s0.3-2.7,0.9-3.8c0.6-1.1,1.5-2,2.6-2.6c1.1-0.6,2.4-0.9,3.8-0.9c1.7,0,3.2,0.4,4.4,1.3
					c1.2,0.8,2,2,2.4,3.5H162.6z"/>
				<path class="st2" d="M182.4,151.5l-5.2,14.6h-4.4l-5.2-14.6h3.8l3.6,11l3.6-11H182.4z"/>
			</g>
			<g>
				<g>
					<path class="st1" d="M174.9,259.1v-10.7l24.6-35.1h14.9v34.4h6.4v11.5h-6.4v10.1H201v-10.1H174.9z M202,227.9l-13.1,19.8H202
						V227.9z"/>
					<path class="st1" d="M232.4,219c3.4-5.1,9-7.7,16.7-7.7c7.7,0,13.2,2.6,16.7,7.7c3.4,5.1,5.2,12.2,5.2,21.1
						c0,9-1.7,16.1-5.2,21.2c-3.4,5.1-9,7.7-16.7,7.7c-7.7,0-13.2-2.6-16.7-7.7c-3.4-5.1-5.2-12.2-5.2-21.2
						C227.2,231.1,229,224.1,232.4,219z M256.2,228c-1.1-2.8-3.5-4.2-7.1-4.2s-5.9,1.4-7.1,4.2c-1.1,2.8-1.7,6.9-1.7,12.1
						c0,3.5,0.2,6.4,0.6,8.7c0.4,2.3,1.3,4.2,2.5,5.6c1.3,1.4,3.1,2.1,5.6,2.1s4.4-0.7,5.6-2.1c1.3-1.4,2.1-3.3,2.5-5.6
						c0.4-2.3,0.6-5.2,0.6-8.7C257.9,234.8,257.3,230.8,256.2,228z"/>
					<path class="st1" d="M278.3,259.1v-10.7l24.6-35.1h14.9v34.4h6.4v11.5h-6.4v10.1h-13.3v-10.1H278.3z M305.3,227.9l-13.1,19.8
						h13.1V227.9z"/>
				</g>
				<g>
					<path class="st1" d="M177.6,287.5c-0.2,0.4-0.6,0.7-1,1c-0.5,0.3-1,0.4-1.7,0.4h-1.3v3h-2.1v-8.5h3.4c0.7,0,1.2,0.1,1.7,0.4
						c0.5,0.2,0.8,0.6,1.1,1c0.2,0.4,0.4,0.9,0.4,1.4C177.9,286.6,177.8,287,177.6,287.5z M175.5,286.9c0.2-0.2,0.3-0.4,0.3-0.8
						s-0.1-0.6-0.3-0.8c-0.2-0.2-0.5-0.3-0.9-0.3h-1.1v2.1h1.1C175,287.2,175.3,287.1,175.5,286.9z"/>
					<path class="st1" d="M179,286.7c0.3-0.5,0.6-0.9,1.1-1.2s1-0.4,1.5-0.4c0.5,0,0.9,0.1,1.3,0.3s0.6,0.4,0.8,0.8v-1h2.1v6.8h-2.1
						v-1c-0.2,0.3-0.5,0.6-0.8,0.8s-0.8,0.3-1.3,0.3c-0.5,0-1-0.1-1.5-0.4c-0.5-0.3-0.8-0.7-1.1-1.2c-0.3-0.5-0.4-1.1-0.4-1.8
						S178.7,287.2,179,286.7z M183.2,287.3c-0.3-0.3-0.6-0.4-1-0.4c-0.4,0-0.8,0.1-1,0.4c-0.3,0.3-0.4,0.7-0.4,1.2
						c0,0.5,0.1,0.9,0.4,1.2c0.3,0.3,0.6,0.5,1,0.5c0.4,0,0.8-0.1,1-0.4c0.3-0.3,0.4-0.7,0.4-1.2C183.6,288,183.5,287.6,183.2,287.3
						z M183.8,283.4l-2.9,1.2v-1.4l2.9-1.4V283.4z"/>
					<path class="st1" d="M191,285.3c0.4,0.2,0.6,0.4,0.8,0.8v-1h2.1v6.7c0,0.6-0.1,1.2-0.4,1.7c-0.2,0.5-0.6,0.9-1.1,1.2
						s-1.1,0.4-1.9,0.4c-1,0-1.8-0.2-2.4-0.7s-1-1.1-1.1-1.9h2c0.1,0.3,0.2,0.5,0.5,0.6c0.2,0.1,0.5,0.2,0.9,0.2
						c0.4,0,0.8-0.1,1-0.4s0.4-0.6,0.4-1.2v-1c-0.2,0.3-0.5,0.6-0.8,0.8c-0.4,0.2-0.8,0.3-1.2,0.3c-0.6,0-1.1-0.1-1.5-0.4
						c-0.5-0.3-0.8-0.7-1.1-1.2c-0.3-0.5-0.4-1.1-0.4-1.8s0.1-1.3,0.4-1.8c0.3-0.5,0.6-0.9,1.1-1.2s1-0.4,1.5-0.4
						C190.2,285,190.6,285.1,191,285.3z M191.4,287.3c-0.3-0.3-0.6-0.4-1-0.4c-0.4,0-0.8,0.1-1,0.4c-0.3,0.3-0.4,0.7-0.4,1.2
						c0,0.5,0.1,0.9,0.4,1.2c0.3,0.3,0.6,0.5,1,0.5c0.4,0,0.8-0.1,1-0.4c0.3-0.3,0.4-0.7,0.4-1.2C191.8,288,191.7,287.6,191.4,287.3
						z"/>
					<path class="st1" d="M195.6,284.1c-0.2-0.2-0.3-0.5-0.3-0.8c0-0.3,0.1-0.6,0.3-0.8c0.2-0.2,0.5-0.3,0.9-0.3
						c0.4,0,0.6,0.1,0.9,0.3c0.2,0.2,0.3,0.5,0.3,0.8c0,0.3-0.1,0.6-0.3,0.8c-0.2,0.2-0.5,0.3-0.9,0.3
						C196.1,284.4,195.8,284.3,195.6,284.1z M197.5,285.1v6.8h-2.1v-6.8H197.5z"/>
					<path class="st1" d="M205,285.8c0.5,0.5,0.7,1.2,0.7,2.1v3.9h-2.1v-3.7c0-0.5-0.1-0.8-0.4-1.1s-0.5-0.4-0.9-0.4
						s-0.7,0.1-0.9,0.4s-0.4,0.6-0.4,1.1v3.7H199v-6.8h2.1v0.9c0.2-0.3,0.5-0.5,0.8-0.7c0.4-0.2,0.8-0.3,1.2-0.3
						C203.9,285,204.5,285.3,205,285.8z"/>
					<path class="st1" d="M207.1,286.7c0.3-0.5,0.6-0.9,1.1-1.2s1-0.4,1.5-0.4c0.5,0,0.9,0.1,1.3,0.3s0.6,0.4,0.8,0.8v-1h2.1v6.8
						h-2.1v-1c-0.2,0.3-0.5,0.6-0.8,0.8s-0.8,0.3-1.3,0.3c-0.5,0-1-0.1-1.5-0.4c-0.5-0.3-0.8-0.7-1.1-1.2c-0.3-0.5-0.4-1.1-0.4-1.8
						S206.8,287.2,207.1,286.7z M211.3,287.3c-0.3-0.3-0.6-0.4-1-0.4c-0.4,0-0.8,0.1-1,0.4c-0.3,0.3-0.4,0.7-0.4,1.2
						c0,0.5,0.1,0.9,0.4,1.2c0.3,0.3,0.6,0.5,1,0.5c0.4,0,0.8-0.1,1-0.4c0.3-0.3,0.4-0.7,0.4-1.2C211.8,288,211.6,287.6,211.3,287.3
						z"/>
					<path class="st1" d="M224.2,289h-4.7c0,0.4,0.2,0.7,0.4,1s0.5,0.3,0.9,0.3c0.5,0,0.9-0.2,1.1-0.7h2.2c-0.1,0.4-0.3,0.8-0.6,1.2
						c-0.3,0.4-0.7,0.6-1.1,0.8c-0.4,0.2-0.9,0.3-1.5,0.3c-0.7,0-1.2-0.1-1.8-0.4s-0.9-0.7-1.2-1.2c-0.3-0.5-0.4-1.1-0.4-1.8
						s0.1-1.3,0.4-1.8c0.3-0.5,0.7-0.9,1.2-1.2s1.1-0.4,1.8-0.4c0.7,0,1.2,0.1,1.7,0.4c0.5,0.3,0.9,0.7,1.2,1.2
						c0.3,0.5,0.4,1.1,0.4,1.8C224.3,288.6,224.3,288.8,224.2,289z M222.1,287.8c0-0.4-0.1-0.6-0.4-0.8c-0.2-0.2-0.5-0.3-0.9-0.3
						c-0.3,0-0.6,0.1-0.9,0.3c-0.2,0.2-0.4,0.5-0.4,0.9H222.1z"/>
					<path class="st1" d="M231.4,285.8c0.5,0.5,0.7,1.2,0.7,2.1v3.9H230v-3.7c0-0.5-0.1-0.8-0.4-1.1s-0.5-0.4-0.9-0.4
						s-0.7,0.1-0.9,0.4s-0.4,0.6-0.4,1.1v3.7h-2.1v-6.8h2.1v0.9c0.2-0.3,0.5-0.5,0.8-0.7c0.4-0.2,0.8-0.3,1.2-0.3
						C230.3,285,230.9,285.3,231.4,285.8z"/>
					<path class="st1" d="M236.1,286.7c0.3-0.5,0.7-0.9,1.2-1.2c0.5-0.3,1.1-0.4,1.8-0.4c0.8,0,1.6,0.2,2.1,0.7
						c0.6,0.4,0.9,1.1,1.1,1.9h-2.2c-0.2-0.5-0.5-0.8-1.1-0.8c-0.4,0-0.7,0.1-0.9,0.4c-0.2,0.3-0.3,0.7-0.3,1.3c0,0.5,0.1,1,0.3,1.3
						c0.2,0.3,0.5,0.4,0.9,0.4c0.5,0,0.9-0.3,1.1-0.8h2.2c-0.2,0.8-0.6,1.4-1.1,1.9c-0.6,0.5-1.3,0.7-2.1,0.7
						c-0.7,0-1.2-0.1-1.8-0.4c-0.5-0.3-0.9-0.7-1.2-1.2s-0.4-1.1-0.4-1.8S235.8,287.2,236.1,286.7z"/>
					<path class="st1" d="M244.7,291.5c-0.5-0.3-0.9-0.7-1.2-1.2c-0.3-0.5-0.5-1.1-0.5-1.8c0-0.7,0.2-1.3,0.5-1.8
						c0.3-0.5,0.7-0.9,1.3-1.2s1.1-0.4,1.8-0.4s1.3,0.1,1.8,0.4s1,0.7,1.3,1.2c0.3,0.5,0.5,1.1,0.5,1.8s-0.2,1.3-0.5,1.8
						c-0.3,0.5-0.7,0.9-1.3,1.2c-0.5,0.3-1.1,0.4-1.8,0.4C245.8,292,245.2,291.8,244.7,291.5z M247.5,289.7c0.3-0.3,0.4-0.7,0.4-1.2
						s-0.1-1-0.4-1.2c-0.3-0.3-0.6-0.4-1-0.4c-0.4,0-0.7,0.1-1,0.4s-0.4,0.7-0.4,1.3c0,0.5,0.1,1,0.4,1.2c0.3,0.3,0.6,0.4,1,0.4
						C246.9,290.2,247.2,290,247.5,289.7z"/>
					<path class="st1" d="M257.1,285.8c0.5,0.5,0.7,1.2,0.7,2.1v3.9h-2.1v-3.7c0-0.5-0.1-0.8-0.4-1.1c-0.2-0.2-0.5-0.4-0.9-0.4
						c-0.4,0-0.7,0.1-0.9,0.4c-0.2,0.2-0.4,0.6-0.4,1.1v3.7h-2.1v-6.8h2.1v0.9c0.2-0.3,0.5-0.5,0.8-0.7c0.4-0.2,0.8-0.3,1.2-0.3
						C256,285,256.6,285.3,257.1,285.8z"/>
					<path class="st1" d="M260.4,291.7c-0.5-0.2-0.8-0.5-1.1-0.8c-0.3-0.4-0.4-0.7-0.4-1.2h2c0,0.2,0.1,0.4,0.3,0.6
						c0.2,0.1,0.4,0.2,0.7,0.2c0.3,0,0.5,0,0.6-0.2c0.1-0.1,0.2-0.2,0.2-0.4c0-0.2-0.1-0.3-0.3-0.4c-0.2-0.1-0.5-0.2-1-0.3
						c-0.5-0.1-0.9-0.2-1.2-0.4s-0.6-0.3-0.8-0.6c-0.2-0.3-0.4-0.6-0.4-1.1c0-0.4,0.1-0.7,0.3-1.1c0.2-0.3,0.5-0.6,0.9-0.8
						c0.4-0.2,0.9-0.3,1.5-0.3c0.8,0,1.5,0.2,2,0.6c0.5,0.4,0.8,1,0.8,1.7h-1.9c0-0.2-0.1-0.4-0.3-0.6c-0.2-0.1-0.4-0.2-0.7-0.2
						c-0.2,0-0.4,0-0.6,0.1s-0.2,0.2-0.2,0.4c0,0.2,0.1,0.3,0.3,0.4c0.2,0.1,0.5,0.2,1,0.3c0.5,0.1,0.9,0.3,1.2,0.4s0.6,0.3,0.8,0.6
						c0.2,0.3,0.4,0.7,0.4,1.1c0,0.4-0.1,0.7-0.3,1.1c-0.2,0.3-0.5,0.6-1,0.7c-0.4,0.2-0.9,0.3-1.4,0.3
						C261.4,292,260.9,291.9,260.4,291.7z"/>
					<path class="st1" d="M269.8,290.1v1.8h-1.1c-0.8,0-1.3-0.2-1.8-0.6c-0.4-0.4-0.6-1-0.6-1.8v-2.7h-0.8v-1.7h0.8v-1.6h2.1v1.6
						h1.4v1.7h-1.4v2.7c0,0.2,0,0.3,0.1,0.4s0.3,0.1,0.5,0.1H269.8z"/>
					<path class="st1" d="M273.9,285.4c0.4-0.2,0.8-0.3,1.2-0.3v2.2h-0.6c-0.5,0-0.9,0.1-1.2,0.3c-0.3,0.2-0.4,0.6-0.4,1.2v3.1h-2.1
						v-6.8h2.1v1.1C273.2,285.9,273.5,285.6,273.9,285.4z"/>
					<path class="st1" d="M282.8,285.1v6.8h-2.1v-0.9c-0.2,0.3-0.5,0.5-0.9,0.7c-0.4,0.2-0.8,0.3-1.2,0.3c-0.5,0-1-0.1-1.4-0.3
						c-0.4-0.2-0.7-0.6-0.9-1c-0.2-0.4-0.3-0.9-0.3-1.5v-3.9h2.1v3.7c0,0.5,0.1,0.8,0.4,1.1c0.2,0.2,0.5,0.4,0.9,0.4
						c0.4,0,0.7-0.1,1-0.4c0.2-0.2,0.4-0.6,0.4-1.1v-3.7H282.8z"/>
					<path class="st1" d="M284.3,286.7c0.3-0.5,0.7-0.9,1.2-1.2c0.5-0.3,1.1-0.4,1.8-0.4c0.8,0,1.6,0.2,2.1,0.7
						c0.6,0.4,0.9,1.1,1.1,1.9h-2.2c-0.2-0.5-0.5-0.8-1.1-0.8c-0.4,0-0.7,0.1-0.9,0.4c-0.2,0.3-0.3,0.7-0.3,1.3c0,0.5,0.1,1,0.3,1.3
						c0.2,0.3,0.5,0.4,0.9,0.4c0.5,0,0.9-0.3,1.1-0.8h2.2c-0.2,0.8-0.6,1.4-1.1,1.9c-0.6,0.5-1.3,0.7-2.1,0.7
						c-0.7,0-1.2-0.1-1.8-0.4c-0.5-0.3-0.9-0.7-1.2-1.2c-0.3-0.5-0.4-1.1-0.4-1.8S284,287.2,284.3,286.7z"/>
					<path class="st1" d="M291.6,286.7c0.3-0.5,0.7-0.9,1.2-1.2c0.5-0.3,1.1-0.4,1.8-0.4c0.8,0,1.6,0.2,2.1,0.7
						c0.6,0.4,0.9,1.1,1.1,1.9h-2.2c-0.2-0.5-0.5-0.8-1.1-0.8c-0.4,0-0.7,0.1-0.9,0.4c-0.2,0.3-0.3,0.7-0.3,1.3c0,0.5,0.1,1,0.3,1.3
						c0.2,0.3,0.5,0.4,0.9,0.4c0.5,0,0.9-0.3,1.1-0.8h2.2c-0.2,0.8-0.6,1.4-1.1,1.9c-0.6,0.5-1.3,0.7-2.1,0.7
						c-0.7,0-1.2-0.1-1.8-0.4c-0.5-0.3-0.9-0.7-1.2-1.2c-0.3-0.5-0.4-1.1-0.4-1.8S291.3,287.2,291.6,286.7z"/>
					<path class="st1" d="M299,284.1c-0.2-0.2-0.3-0.5-0.3-0.8c0-0.3,0.1-0.6,0.3-0.8c0.2-0.2,0.5-0.3,0.9-0.3
						c0.4,0,0.6,0.1,0.9,0.3c0.2,0.2,0.3,0.5,0.3,0.8c0,0.3-0.1,0.6-0.3,0.8c-0.2,0.2-0.5,0.3-0.9,0.3
						C299.6,284.4,299.3,284.3,299,284.1z M300.9,285.1v6.8h-2.1v-6.8H300.9z"/>
					<path class="st1" d="M303.7,291.5c-0.5-0.3-0.9-0.7-1.2-1.2c-0.3-0.5-0.5-1.1-0.5-1.8c0-0.7,0.2-1.3,0.5-1.8
						c0.3-0.5,0.7-0.9,1.3-1.2s1.1-0.4,1.8-0.4s1.3,0.1,1.8,0.4s1,0.7,1.3,1.2c0.3,0.5,0.5,1.1,0.5,1.8s-0.2,1.3-0.5,1.8
						s-0.7,0.9-1.3,1.2c-0.5,0.3-1.1,0.4-1.8,0.4S304.3,291.8,303.7,291.5z M306.5,289.7c0.3-0.3,0.4-0.7,0.4-1.2s-0.1-1-0.4-1.2
						s-0.6-0.4-1-0.4c-0.4,0-0.7,0.1-1,0.4c-0.3,0.3-0.4,0.7-0.4,1.3c0,0.5,0.1,1,0.4,1.2c0.3,0.3,0.6,0.4,1,0.4
						C305.9,290.2,306.2,290,306.5,289.7z M307.1,283.4l-2.9,1.2v-1.4l2.9-1.4V283.4z"/>
					<path class="st1" d="M316.2,285.8c0.5,0.5,0.7,1.2,0.7,2.1v3.9h-2.1v-3.7c0-0.5-0.1-0.8-0.4-1.1c-0.2-0.2-0.5-0.4-0.9-0.4
						c-0.4,0-0.7,0.1-0.9,0.4c-0.2,0.2-0.4,0.6-0.4,1.1v3.7h-2.1v-6.8h2.1v0.9c0.2-0.3,0.5-0.5,0.8-0.7c0.4-0.2,0.8-0.3,1.2-0.3
						C315.1,285,315.7,285.3,316.2,285.8z"/>
					<path class="st1" d="M320.9,286.7c-0.2-0.2-0.3-0.5-0.3-0.8c0-0.3,0.1-0.6,0.3-0.8c0.2-0.2,0.5-0.3,0.9-0.3
						c0.4,0,0.6,0.1,0.9,0.3s0.3,0.5,0.3,0.8c0,0.3-0.1,0.6-0.3,0.8c-0.2,0.2-0.5,0.3-0.9,0.3C321.5,287,321.2,286.9,320.9,286.7z
						 M320.9,291.6c-0.2-0.2-0.3-0.5-0.3-0.8c0-0.3,0.1-0.6,0.3-0.8c0.2-0.2,0.5-0.3,0.9-0.3c0.4,0,0.6,0.1,0.9,0.3s0.3,0.5,0.3,0.8
						c0,0.3-0.1,0.6-0.3,0.8s-0.5,0.3-0.9,0.3C321.5,292,321.2,291.9,320.9,291.6z"/>
					<path class="st1" d="M325.3,291.5c-0.4-1.2-0.7-2.5-0.7-3.8c0-1.4,0.2-2.7,0.7-3.9c0.5-1.2,1.1-2.2,1.9-2.9h2v0.2
						c-0.8,0.8-1.5,1.8-2,3c-0.5,1.2-0.7,2.4-0.7,3.6c0,1.2,0.2,2.4,0.7,3.6c0.4,1.1,1.1,2.1,1.9,3v0.2h-2
						C326.3,293.6,325.7,292.7,325.3,291.5z"/>
				</g>
			</g>
		</g>
		<g id="character">
			<path class="st3" d="M111.2,280.4l13.2,96.6c0.1,0.7-0.2,1.3-0.8,1.7c-2.8,1.7-11.5,6.4-20.7,5c-0.7-0.1-1.3-0.6-1.4-1.3
				L85.4,310c0,0-9.3,22.4-16.9,34.3c-6.5,10.2-21.3,32.8-25.4,39c-0.6,1-1.8,1.4-2.9,1c-4.2-1.4-14.4-5.3-19.1-10.5
				c-0.7-0.8-0.8-2-0.3-2.9c3.4-6,16.5-29,23.3-44.7c7.9-18.3,11.9-44.9,11.9-44.9L111.2,280.4L111.2,280.4z"/>
			<path class="st3" d="M41,384.8c-0.3,0-0.6,0-0.9-0.2c-4.2-1.5-14.5-5.4-19.2-10.6c-0.8-0.9-1-2.2-0.4-3.3
				c3.8-6.5,16.5-29.1,23.2-44.7c7.7-18,11.8-44.6,11.8-44.8c0-0.2,0.2-0.3,0.3-0.3l55.3-0.9c0.2,0,0.3,0.1,0.3,0.3l13.2,96.6
				c0.1,0.8-0.3,1.6-1,2c-3.2,2-11.7,6.4-20.9,5c-0.9-0.1-1.5-0.8-1.7-1.6l-15.9-71.3c-1.9,4.5-9.9,23-16.5,33.3
				c-6.5,10.1-21.1,32.4-25.4,39C42.8,384.3,41.9,384.8,41,384.8L41,384.8z M56.2,281.6c-0.5,3-4.5,27.6-11.8,44.7
				c-6.7,15.6-19.5,38.2-23.3,44.8c-0.5,0.8-0.4,1.8,0.3,2.5c4.7,5.1,14.8,8.9,18.9,10.4c0.9,0.3,2,0,2.5-0.9
				c4.3-6.6,18.9-29,25.4-39c7.5-11.7,16.8-34,16.9-34.2c0.1-0.1,0.2-0.2,0.4-0.2c0.2,0,0.3,0.1,0.3,0.3l16.1,72.3
				c0.1,0.6,0.6,1,1.1,1.1c9.2,1.4,18-3.4,20.5-4.9c0.5-0.3,0.7-0.8,0.6-1.3l-13.2-96.3L56.2,281.6L56.2,281.6z"/>
			<path class="st4" d="M114.3,217.3c-11.1-8.1-20-10.8-35-10.6c-7.8,1.4-19.2,7.4-24.7,13.1c-5.5,5.6-10.5,21.9-12.3,35.5
				c-1.9,13.6-4.6,37.2-4.6,37.2s1.2,1.2,3.2,1.9c2,0.6,8.7,4.1,8.7,4.1l5.3-2.8l2.7-12c0,0,34.4,2.2,53.6-3.3l-1.7-10.9
				c0,0,22.3-20.8,23.4-29.2C134,231.8,125.4,225.4,114.3,217.3L114.3,217.3z M108.5,250.2v-17.1l6.8,5.8L108.5,250.2z"/>
			<path class="st3" d="M60.7,257.7c0,0,33.4,2.4,47.8-1.2l2.1,19.9l-52.3,1.9L60.7,257.7L60.7,257.7z"/>
			<path class="st3" d="M58.3,278.6c-0.1,0-0.2,0-0.3-0.1c-0.1-0.1-0.1-0.2-0.1-0.3l2.4-20.6c0-0.2,0.2-0.3,0.4-0.3
				c0.3,0,33.6,2.3,47.7-1.2c0.1,0,0.2,0,0.3,0.1c0.1,0.1,0.1,0.1,0.1,0.3l2.1,19.9c0,0.1,0,0.2-0.1,0.3c-0.1,0.1-0.2,0.1-0.3,0.1
				L58.3,278.6L58.3,278.6L58.3,278.6z M61,258l-2.3,19.9l51.5-1.9l-2-19.2C94.5,260.1,64.5,258.3,61,258L61,258z"/>
			<path class="st3" d="M57.6,302.9c0,0,4,0.4,4.3,2.2s0.9,9.8,0.9,9.8l-3.5,0c0,0,0-6.9-0.9-7.8s-20.8-2-23-1.2
				c-2.2,0.8-3.1,8.9-3.1,8.9l-3.4,0.2c0,0,0.9-8.7,2.5-10.4c1.6-1.7,4.9-2.8,8.6-2.9C43.8,301.5,57.6,302.9,57.6,302.9z"/>
			<path class="st3" d="M62.9,315.2L62.9,315.2l-3.5,0c-0.2,0-0.3-0.2-0.3-0.3c0-3.3-0.3-7-0.7-7.5c-0.9-0.6-20.3-1.9-22.7-1.1
				c-1.5,0.5-2.5,5.5-2.8,8.6c0,0.2-0.2,0.3-0.3,0.3l-3.4,0.2c-0.1,0-0.2,0-0.3-0.1c-0.1-0.1-0.1-0.2-0.1-0.3c0-0.4,1-8.9,2.6-10.6
				c1.7-1.8,5.1-3,8.8-3c3.7,0,17,1.3,17.5,1.3c0.4,0,4.2,0.5,4.7,2.5c0.4,1.8,0.9,9.5,0.9,9.8c0,0.1,0,0.2-0.1,0.3
				C63.1,315.2,63,315.2,62.9,315.2L62.9,315.2z M59.7,314.5l2.7,0c-0.1-1.6-0.6-7.8-0.9-9.4c-0.3-1.3-3-1.8-4-1.9l0-0.3l0,0.3
				c-0.1,0-13.5-1.3-17.3-1.3c0,0-0.1,0-0.1,0c-3.6,0-6.7,1.1-8.3,2.8c-1.2,1.3-2.1,7.2-2.4,9.8l2.7-0.1c0.2-1.6,1-8.1,3.3-8.8
				c1.8-0.6,22.2,0.1,23.4,1.3C59.7,307.6,59.7,312.8,59.7,314.5L59.7,314.5z"/>
			<path class="st2" d="M54.9,295.6l2.7,7.3l-3-0.2c-0.6,0-1.1,0.5-1,1.1c0.2,1.6,0.6,4.4,0.5,5.1c-0.1,1-2.9,1.5-4.6,0.4
				c0,0-1.5,0.9-2.8,0.7c-1.3-0.2-1.6-0.9-1.6-0.9s-1.8,0.9-3,0.4c-1.2-0.5-1.6-1.4-1.6-1.4s-1.4,0.3-2.4-0.3s-0.2-3,0.3-5
				c0.4-1.9,2.5-8.5,2.5-8.5S47.7,297,54.9,295.6L54.9,295.6z"/>
			<path class="st3" d="M47.2,310.3c-0.2,0-0.3,0-0.5,0c-0.9-0.2-1.4-0.5-1.6-0.8c-0.6,0.2-2,0.7-3,0.3c-1-0.4-1.4-1-1.6-1.3
				c-0.5,0.1-1.6,0.1-2.4-0.4c-1-0.6-0.6-2.6-0.1-4.4c0.1-0.3,0.1-0.6,0.2-0.9c0.4-1.9,2.4-8.2,2.5-8.5c0-0.1,0.1-0.2,0.2-0.2
				c0.1,0,0.2,0,0.3,0c0.1,0,6.8,2.7,13.8,1.3c0.2,0,0.3,0.1,0.4,0.2l2.7,7.3c0,0.1,0,0.2,0,0.3c-0.1,0.1-0.2,0.2-0.3,0.1l-3-0.2
				c-0.2,0-0.4,0.1-0.5,0.2s-0.2,0.3-0.2,0.5c0.3,2,0.6,4.4,0.5,5.1c0,0.3-0.2,0.7-0.8,1c-1,0.5-2.8,0.5-4.2-0.2
				C49.1,309.9,48.2,310.3,47.2,310.3L47.2,310.3z M45.5,308.9c0,0,0.3,0.5,1.3,0.7c1.1,0.2,2.5-0.6,2.5-0.6c0.1-0.1,0.3-0.1,0.4,0
				c1.1,0.7,2.8,0.7,3.7,0.3c0.3-0.1,0.4-0.3,0.4-0.4c0-0.5-0.2-2.3-0.5-5c-0.1-0.4,0.1-0.8,0.3-1.1c0.3-0.3,0.7-0.4,1.1-0.4
				l2.4,0.2l-2.4-6.5c-6.2,1.1-12.1-0.7-13.5-1.2c-0.4,1.4-2,6.5-2.4,8.1c-0.1,0.3-0.1,0.6-0.2,0.9c-0.4,1.5-0.8,3.3-0.2,3.7
				c0.8,0.5,2.1,0.3,2.1,0.3c0.2,0,0.3,0.1,0.4,0.2c0,0,0.3,0.8,1.4,1.2c1.1,0.4,2.7-0.4,2.8-0.4c0.1,0,0.2,0,0.3,0
				S45.4,308.8,45.5,308.9L45.5,308.9L45.5,308.9z"/>
			<path class="st3" d="M53.6,304.1c-0.2,0-0.3-0.1-0.3-0.3c-0.2-1.8-0.1-3.9,0-4c0-0.2,0.2-0.3,0.4-0.3c0.2,0,0.3,0.2,0.3,0.4
				c0,0-0.2,2.1,0,3.8C54,303.9,53.8,304.1,53.6,304.1C53.6,304.1,53.6,304.1,53.6,304.1L53.6,304.1z"/>
			<path class="st4" d="M18.6,313.4H75c1.2,0,2.3,0.8,2.7,1.9l4.1,11.3H11.9l4.1-11.3C16.3,314.1,17.4,313.4,18.6,313.4z"/>
			<path class="st3" d="M81.7,326.9H11.9c-0.1,0-0.2-0.1-0.3-0.1c-0.1-0.1-0.1-0.2,0-0.3l4.1-11.3c0.5-1.3,1.7-2.1,3-2.1H75
				c1.3,0,2.5,0.8,3,2.1l4.1,11.3c0,0.1,0,0.2,0,0.3C81.9,326.9,81.8,326.9,81.7,326.9L81.7,326.9z M12.4,326.2h68.9l-3.9-10.9
				c-0.4-1-1.3-1.6-2.3-1.6H18.6c-1,0-2,0.7-2.3,1.6C16.3,315.4,12.4,326.2,12.4,326.2z"/>
			<path class="st2" d="M11.9,326.6h69.9v23.6c0,1.1-0.9,2-2,2H13.9c-1.1,0-2-0.9-2-2L11.9,326.6C11.9,326.6,11.9,326.6,11.9,326.6z
				"/>
			<path class="st3" d="M79.7,352.6H13.9c-1.3,0-2.4-1.1-2.4-2.4v-23.6c0-0.2,0.2-0.3,0.3-0.3h69.9c0.2,0,0.3,0.2,0.3,0.3v23.6
				C82.1,351.5,81,352.6,79.7,352.6z M12.2,326.9v23.2c0,0.9,0.8,1.7,1.7,1.7h65.8c0.9,0,1.7-0.8,1.7-1.7v-23.2H12.2z"/>
			<path class="st2" d="M25.3,323.6H29c0.7,0,1.2,0.5,1.2,1.2v3.7c0,0.7-0.5,1.2-1.2,1.2h-3.7c-0.7,0-1.2-0.5-1.2-1.2v-3.7
				C24.1,324.1,24.7,323.6,25.3,323.6z"/>
			<path class="st3" d="M29,330h-3.7c-0.8,0-1.5-0.7-1.5-1.5v-3.7c0-0.8,0.7-1.5,1.5-1.5H29c0.8,0,1.5,0.7,1.5,1.5v3.7
				C30.5,329.3,29.9,330,29,330z M25.3,323.9c-0.5,0-0.8,0.4-0.8,0.8v3.7c0,0.5,0.4,0.8,0.8,0.8H29c0.5,0,0.8-0.4,0.8-0.8v-3.7
				c0-0.5-0.4-0.8-0.8-0.8H25.3z"/>
			<path class="st2" d="M66.6,323.6h3.7c0.7,0,1.2,0.5,1.2,1.2v3.7c0,0.7-0.5,1.2-1.2,1.2h-3.7c-0.7,0-1.2-0.5-1.2-1.2v-3.7
				C65.4,324.1,66,323.6,66.6,323.6z"/>
			<path class="st3" d="M70.3,330h-3.7c-0.8,0-1.5-0.7-1.5-1.5v-3.7c0-0.8,0.7-1.5,1.5-1.5h3.7c0.8,0,1.5,0.7,1.5,1.5v3.7
				C71.8,329.3,71.2,330,70.3,330z M66.6,323.9c-0.5,0-0.8,0.4-0.8,0.8v3.7c0,0.5,0.4,0.8,0.8,0.8h3.7c0.5,0,0.8-0.4,0.8-0.8v-3.7
				c0-0.5-0.4-0.8-0.8-0.8H66.6z"/>
			<path class="st2" d="M76.7,194.7c-0.8,7.9-0.8,13.7-0.7,16.7c0,1.3,1,2.5,2.3,2.8c2.2,0.4,5.6,0.7,8.6-0.9c1-0.5,1.7-1.6,1.6-2.8
				l-0.4-6.5C88.1,204,76.7,194.7,76.7,194.7z"/>
			<path class="st3" d="M81.6,214.8c-1.2,0-2.4-0.2-3.4-0.4c-1.5-0.3-2.5-1.6-2.6-3.1c-0.1-2.8-0.1-8.7,0.7-16.7
				c0-0.1,0.1-0.2,0.2-0.3c0.1,0,0.3,0,0.4,0l11.3,9.3c0.1,0.1,0.1,0.2,0.1,0.2l0.4,6.5c0.1,1.3-0.6,2.5-1.8,3.1
				C85.2,214.5,83.3,214.8,81.6,214.8L81.6,214.8z M77,195.4c-0.7,7.6-0.7,13.2-0.7,16c0,1.2,0.9,2.2,2,2.4c2.2,0.5,5.5,0.7,8.4-0.9
				c0.9-0.5,1.5-1.4,1.4-2.4l-0.4-6.3C87.7,204.2,77,195.4,77,195.4z"/>
			<path class="st3" d="M85.5,164.2c-10.2-1.7-17.4,4.2-19.6,11.7s1.3,15.1,1.3,15.1l9.3,6.7l26-14.6c0,0,3.9-1.8,1.7-7.4
				C101.9,170.1,91.6,156.6,85.5,164.2L85.5,164.2z"/>
			<path class="st3" d="M76.4,198.1c-0.1,0-0.1,0-0.2-0.1l-9.3-6.7c0,0-0.1-0.1-0.1-0.1c-0.1-0.3-3.5-7.8-1.3-15.4
				c2.1-7.2,9-13.7,19.8-12c1.5-1.8,3.3-2.5,5.4-2.2c5.8,0.9,12,9.5,13.7,13.9c2.3,5.9-1.8,7.9-1.9,7.9L76.6,198
				C76.6,198.1,76.5,198.1,76.4,198.1L76.4,198.1z M67.5,190.9l9,6.5l25.8-14.5c0.2-0.1,3.6-1.8,1.6-7c-1.6-4.2-7.8-12.7-13.2-13.5
				c-1.9-0.3-3.5,0.4-4.9,2.1c-0.1,0.1-0.2,0.1-0.3,0.1c-10.4-1.7-17.1,4.5-19.2,11.5C64.2,182.9,67.1,190,67.5,190.9L67.5,190.9z"
				/>
			<path class="st2" d="M65.6,191.6c0.4,5.5,6.2,4.4,6.2,4.4s9.8,13.6,22.3,10.1c10.8-3,11.3-13.9,7.5-25.6
				c-4.1-2.9-11.2-6.8-11.2-6.8s-4.2,9.7-9.6,12c-5.4,2.2-7.7,2.7-7.8,3.8c-0.1,1.2,1.6,4.1,1.6,4.1l-2.4,0.4l-3.5-6.8
				C68.7,187.4,65.3,187.8,65.6,191.6L65.6,191.6z"/>
			<path class="st3" d="M90.1,207.1c-9.8,0-17.3-9.3-18.4-10.7c-0.7,0.1-2.9,0.3-4.6-1c-1.1-0.8-1.7-2.1-1.8-3.8l0,0
				c-0.3-4.1,3.3-4.6,3.4-4.6c0.1,0,0.3,0.1,0.3,0.2l3.4,6.5l1.6-0.3c-0.5-0.9-1.5-2.9-1.4-3.9c0.1-1.1,1.3-1.5,4.2-2.6
				c1-0.4,2.3-0.9,3.8-1.5c5.2-2.2,9.4-11.7,9.5-11.8c0-0.1,0.1-0.2,0.2-0.2c0.1,0,0.2,0,0.3,0c0.1,0,7.1,3.9,11.2,6.8
				c0.1,0,0.1,0.1,0.1,0.2c2.8,8.4,2.9,15.3,0.4,19.9c-1.6,3-4.4,5.1-8.2,6.1C92.8,206.9,91.5,207.1,90.1,207.1L90.1,207.1z
				 M71.9,195.7c0.1,0,0.2,0.1,0.3,0.1c0.1,0.1,9.8,13.4,21.9,10c3.6-1,6.2-2.9,7.7-5.8c2.4-4.4,2.2-11-0.5-19.2
				c-3.6-2.5-9.3-5.7-10.7-6.5c-0.8,1.8-4.7,9.8-9.7,11.8c-1.5,0.6-2.8,1.1-3.8,1.5c-2.4,0.9-3.7,1.4-3.7,2
				c-0.1,0.9,1.1,3.1,1.5,3.9c0.1,0.1,0.1,0.2,0,0.3c0,0.1-0.1,0.2-0.3,0.2l-2.4,0.4c-0.2,0-0.3,0-0.4-0.2l-3.4-6.5
				c-0.7,0.2-2.8,0.9-2.5,3.8l0,0c0.1,1.5,0.6,2.6,1.6,3.3C69.3,196.2,71.8,195.7,71.9,195.7C71.8,195.7,71.9,195.7,71.9,195.7
				L71.9,195.7z"/>
			<path class="st3" d="M87.7,187.4c-2.2-0.6-3.9,0.2-5.2,2c-0.2,0.3-0.8,0.1-0.6-0.3c0.5-1.9,2.4-3.3,4.4-3
				c0.5,0.1,2.2,0.5,1.9,1.1C88,187.4,87.9,187.5,87.7,187.4L87.7,187.4L87.7,187.4z"/>
			<path class="st3" d="M98.5,181.8c-2.3-0.5-4.4,1.4-5.7,3.1c-0.2,0.3-0.8,0.1-0.6-0.3c0.8-2.6,4.2-5.1,6.8-3.4
				C99.2,181.6,98.8,182,98.5,181.8L98.5,181.8L98.5,181.8z"/>
			<path class="st3" d="M96,194.4c-1,0-2.1-0.5-2.5-1.6c-0.1-0.2,0-0.4,0.2-0.4c0.2-0.1,0.4,0,0.4,0.2c0.4,1,1.5,1.3,2.4,1.1
				c0.4-0.1,1.2-0.5,0.9-1.6c-0.1-0.4-0.3-0.7-0.6-0.8c-0.7-0.4-2-0.1-2.4,0.1c-0.2,0.1-0.4,0-0.4-0.2c0,0-1.2-2.6-2-6.1
				c0-0.2,0.1-0.4,0.3-0.4c0.2,0,0.4,0.1,0.4,0.3c0.6,2.8,1.5,5,1.8,5.7c0.6-0.2,1.8-0.4,2.7,0.1c0.5,0.3,0.8,0.7,0.9,1.3
				c0.2,1.2-0.3,2.1-1.4,2.4C96.5,194.4,96.3,194.4,96,194.4L96,194.4z"/>
			<path class="st3" d="M85.8,191.9c0.4,1,1.2,1.5,1.9,1.3c0.7-0.3,0.9-1.3,0.5-2.2c-0.1-0.3-0.3-0.6-0.5-0.8l-0.9,1.1v-1.6
				c-0.2,0-0.4,0-0.5,0C85.7,189.9,85.4,190.9,85.8,191.9L85.8,191.9z"/>
			<path class="st3" d="M96.2,186.5c0.3,1,1.1,1.6,1.8,1.4c0.7-0.2,1-1.2,0.7-2.2c-0.1-0.3-0.2-0.6-0.4-0.8l-1,1l0.1-1.6
				c-0.2,0-0.3,0-0.5,0C96.3,184.5,95.9,185.5,96.2,186.5L96.2,186.5z"/>
			<path class="st3" d="M89.3,200.8c-0.3,0-0.7,0-0.9-0.1c-1.3-0.3-2.1-1.3-2.2-2.7c0-0.1,0-0.2,0.1-0.3c0.1-0.1,0.2-0.1,0.3-0.1
				l7,0.1c0.1,0,0.2,0.1,0.3,0.2c0.1,0.1,0,0.3,0,0.4C92.4,200.1,90.7,200.8,89.3,200.8L89.3,200.8z M86.8,198.3
				c0.2,0.9,0.8,1.5,1.6,1.7c1.1,0.3,2.9-0.1,4.2-1.6L86.8,198.3L86.8,198.3z"/>
			<path class="st4" d="M81.9,179.4c0,0,26.8-0.7,26.6-3.2c-0.2-2.5-5.2-3.8-5.2-3.8l-10.2-1.8l-9.7,3.3L81.9,179.4L81.9,179.4z"/>
			<path class="st3" d="M81.9,179.7c-0.1,0-0.2,0-0.3-0.1c-0.1-0.1-0.1-0.2-0.1-0.3l1.5-5.5c0-0.1,0.1-0.2,0.2-0.2l9.7-3.3
				c0.1,0,0.1,0,0.2,0l10.2,1.8c0.2,0.1,5.2,1.4,5.4,4.1c0,0.1,0,0.4-0.2,0.6C106.6,179,84.4,179.6,81.9,179.7L81.9,179.7
				L81.9,179.7z M83.6,174.2l-1.3,4.8c12.3-0.3,25.6-1.5,25.7-2.8c-0.2-1.8-3.6-3.1-4.9-3.5L93.1,171L83.6,174.2L83.6,174.2z"/>
			<path class="st2" d="M65.2,185.8c7-1.6,20.8-7.9,22.7-9.3c0,0,9.2-5,15.7-4c0,0-2.5-16.2-16.6-14.6c-14,1.6-20.9,7.2-22.7,12.4
				C62.6,175.4,65.2,185.8,65.2,185.8z"/>
			<path class="st3" d="M65.2,186.1c-0.2,0-0.3-0.1-0.3-0.3c-0.1-0.4-2.6-10.6-0.8-15.8c2.3-6.5,10.9-11.2,23-12.6
				c14.2-1.6,16.9,14.7,17,14.9c0,0.1,0,0.2-0.1,0.3c-0.1,0.1-0.2,0.1-0.3,0.1c-6.3-0.9-15.4,3.9-15.5,4
				C86,178.3,72,184.5,65.2,186.1C65.2,186.1,65.2,186.1,65.2,186.1L65.2,186.1z M89,158c-0.6,0-1.2,0-1.9,0.1
				c-11.8,1.3-20.2,5.9-22.4,12.1c-1.6,4.6,0.3,13.3,0.7,15.1c7.2-1.8,20.5-7.8,22.2-9.2c0.4-0.2,9-4.8,15.5-4.2
				c-0.2-1.2-1-4.3-2.9-7.3C97.5,160.2,93.7,158,89,158L89,158z"/>
			<path class="st3" d="M108.5,233.5c-0.2,0-0.3-0.1-0.3-0.3c0-0.1-0.5-9.2-1.2-14.2c0-0.2,0.1-0.4,0.3-0.4c0.2,0,0.4,0.1,0.4,0.3
				c0.8,5.1,1.2,14.2,1.2,14.3C108.8,233.3,108.7,233.4,108.5,233.5L108.5,233.5L108.5,233.5z"/>
			<path class="st2" d="M70.7,209.4c0,0,6.8,11.8,7.6,26.5c0.9,14.7,0,44.4,0,44.4l-9-0.8c0,0,2.1-19.1,1.2-34.7s-6.9-31.9-6.9-31.9
				L70.7,209.4L70.7,209.4z"/>
			<path class="st3" d="M78.3,280.6C78.3,280.6,78.3,280.6,78.3,280.6l-9-0.8c-0.1,0-0.2-0.1-0.2-0.1c-0.1-0.1-0.1-0.2-0.1-0.3
				c0-0.2,2.1-19.3,1.2-34.6c-0.9-15.3-6.8-31.6-6.8-31.8c-0.1-0.2,0-0.3,0.2-0.4l7-3.5c0.2-0.1,0.4,0,0.5,0.1
				c0.1,0.1,6.8,12,7.7,26.6c0.9,14.5,0,44.1,0,44.4c0,0.1,0,0.2-0.1,0.3C78.5,280.6,78.4,280.6,78.3,280.6L78.3,280.6z M69.8,279.2
				l8.2,0.7c0.1-3.5,0.8-30.4,0-44c-0.8-13.1-6.4-24.1-7.4-26l-6.4,3.2c0.8,2.3,6,17.4,6.8,31.7C71.7,259,70,276.5,69.8,279.2
				L69.8,279.2z"/>
			<path class="st2" d="M92.5,207.6c0,0,1.6,19.3,2.7,32.1c1.1,12.8,3.5,37.4,3.5,37.4l6.1-1.4c0,0-1.4-29-2.4-40.9
				c-1-11.9-1.9-25.1-1.9-25.1L92.5,207.6L92.5,207.6z"/>
			<path class="st3" d="M98.7,277.4c-0.1,0-0.1,0-0.2-0.1c-0.1-0.1-0.1-0.1-0.1-0.3c0-0.2-2.4-24.8-3.5-37.4
				c-1.1-12.8-2.7-32.1-2.7-32.1c0-0.1,0-0.2,0.1-0.3c0.1-0.1,0.2-0.1,0.3-0.1l8.1,2.1c0.1,0,0.3,0.2,0.3,0.3
				c0,0.1,0.9,13.4,1.9,25.1c1,11.8,2.3,40.6,2.4,40.9c0,0.2-0.1,0.3-0.3,0.4L98.7,277.4C98.8,277.4,98.7,277.4,98.7,277.4
				L98.7,277.4z M92.8,208.1c0.3,3.1,1.7,20,2.7,31.6c1,11.7,3.1,33.8,3.5,37l5.4-1.2c-0.1-3.1-1.4-29.5-2.3-40.6
				c-0.9-10.9-1.7-23-1.8-24.9L92.8,208.1L92.8,208.1z"/>
			<path class="st2" d="M111.2,280.4c0,0-6.9,2.5-22.7,3.3s-30.9,0-30.9,0l0.9-7.3c13.4,3.3,51.5-3.8,51.5-3.8L111.2,280.4
				L111.2,280.4z"/>
			<path class="st3" d="M73.5,284.3c-9.1,0-15.9-0.3-16-0.3c-0.1,0-0.2,0-0.3-0.1c-0.1-0.1-0.1-0.2-0.1-0.3l0.9-7.3
				c0-0.1,0.1-0.2,0.1-0.2c0.1-0.1,0.2-0.1,0.3,0c13.1,3.3,50.9-3.7,51.3-3.8c0.1,0,0.2,0,0.3,0.1s0.1,0.1,0.1,0.2l1.2,7.8
				c0,0.2-0.1,0.3-0.2,0.4c-0.1,0-7.2,2.5-22.8,3.3C83.3,284.2,78.1,284.3,73.5,284.3L73.5,284.3z M58,283.3
				c2.4,0.1,16.3,0.7,30.5,0c13.8-0.7,20.9-2.7,22.3-3.2l-1.1-7.1c-4.1,0.8-37.8,6.8-50.9,3.8L58,283.3z"/>
			<path class="st3" d="M109.5,269.8c-0.2,0-0.3-0.1-0.3-0.3c-1.2-7.5-1-19.2-1-19.4c0-0.2,0.2-0.3,0.3-0.3l0,0
				c0.2,0,0.3,0.2,0.3,0.4c0,0.1-0.2,11.8,1,19.2C109.8,269.6,109.7,269.8,109.5,269.8C109.5,269.8,109.5,269.8,109.5,269.8
				L109.5,269.8z"/>
			<path class="st4" d="M78.2,275.3l9.6-1c1-0.1,1.9,0.6,2,1.6l0.8,7.4c0.1,1-0.6,1.9-1.6,2l-9.6,1c-1,0.1-1.9-0.6-2-1.6l-0.8-7.4
				C76.4,276.3,77.2,275.4,78.2,275.3z"/>
			<path class="st3" d="M79.2,286.6c-0.5,0-1-0.2-1.4-0.5c-0.5-0.4-0.7-0.9-0.8-1.5l-0.8-7.4c-0.1-1.2,0.7-2.3,1.9-2.4l9.6-1
				c1.2-0.1,2.3,0.7,2.4,1.9l0.8,7.4c0.1,1.2-0.7,2.3-1.9,2.4l0,0l-9.6,1C79.3,286.6,79.2,286.7,79.2,286.6L79.2,286.6z M88,274.6
				c-0.1,0-0.1,0-0.2,0l-9.6,1c-0.8,0.1-1.4,0.8-1.3,1.6l0.8,7.4c0,0.4,0.2,0.7,0.5,1c0.3,0.3,0.7,0.4,1.1,0.3l9.6-1
				c0.8-0.1,1.4-0.8,1.3-1.6l-0.8-7.4C89.3,275.1,88.7,274.6,88,274.6L88,274.6z M89,285.3L89,285.3L89,285.3z"/>
			<path class="st4" d="M97,273.3l9.6-1c1-0.1,1.9,0.6,2,1.6l0.8,7.4c0.1,1-0.6,1.9-1.6,2l-9.6,1c-1,0.1-1.9-0.6-2-1.6l-0.8-7.4
				C95.3,274.3,96,273.4,97,273.3z"/>
			<path class="st3" d="M98,284.7c-1.1,0-2.1-0.8-2.2-1.9l-0.8-7.4c-0.1-0.6,0.1-1.2,0.5-1.6c0.4-0.5,0.9-0.7,1.5-0.8l9.6-1
				c0.6-0.1,1.2,0.1,1.6,0.5c0.5,0.4,0.7,0.9,0.8,1.5l0.8,7.4c0.1,0.6-0.1,1.2-0.5,1.6c-0.4,0.5-0.9,0.7-1.5,0.8l-9.6,1
				C98.2,284.7,98.1,284.7,98,284.7L98,284.7z M106.8,272.6c-0.1,0-0.1,0-0.2,0l-9.6,1c-0.4,0-0.7,0.2-1,0.5
				c-0.3,0.3-0.4,0.7-0.3,1.1l0.8,7.4c0.1,0.8,0.8,1.4,1.6,1.3l9.6-1l0,0c0.4,0,0.7-0.2,1-0.5s0.4-0.7,0.3-1.1l-0.8-7.4
				c0-0.4-0.2-0.7-0.5-1C107.5,272.7,107.2,272.6,106.8,272.6L106.8,272.6z"/>
			<path class="st4" d="M61.5,274.5l9.6,0.6c1,0.1,1.8,0.9,1.7,1.9l-0.4,7.4c-0.1,1-0.9,1.8-1.9,1.7l-9.6-0.6
				c-1-0.1-1.8-0.9-1.7-1.9l0.4-7.4C59.6,275.2,60.4,274.4,61.5,274.5z"/>
			<path class="st3" d="M70.6,286.4c0,0-0.1,0-0.1,0l-9.6-0.6c-0.6,0-1.1-0.3-1.5-0.7c-0.4-0.4-0.6-1-0.6-1.6l0.4-7.4
				c0-0.6,0.3-1.1,0.7-1.5c0.4-0.4,1-0.6,1.6-0.6l9.6,0.6c1.2,0.1,2.1,1.1,2.1,2.3l-0.4,7.4c0,0.6-0.3,1.1-0.7,1.5
				C71.6,286.2,71.1,286.4,70.6,286.4L70.6,286.4z M61.4,274.8c-0.4,0-0.7,0.1-1,0.4c-0.3,0.3-0.5,0.6-0.5,1l-0.4,7.4
				c0,0.8,0.6,1.5,1.4,1.6l9.6,0.6l0,0c0.4,0,0.8-0.1,1.1-0.4c0.3-0.3,0.5-0.6,0.5-1l0.4-7.4c0-0.8-0.6-1.5-1.4-1.6L61.4,274.8
				C61.4,274.8,61.4,274.8,61.4,274.8L61.4,274.8z"/>
			<path class="st3" d="M58.5,276.7C58.5,276.7,58.5,276.7,58.5,276.7c-0.2,0-0.4-0.2-0.3-0.4l3.3-28.4c0,0,0-0.1,0-0.1
				c0-0.1,3.3-7.6,3.4-14.7c0-0.2,0.2-0.3,0.3-0.3l0,0c0.2,0,0.3,0.2,0.3,0.3c-0.1,6.9-3.1,14.3-3.4,14.9l-3.3,28.4
				C58.8,276.6,58.7,276.7,58.5,276.7L58.5,276.7z"/>
			<path class="st5" d="M104.7,386.8l3.9,18.5c0.3,1.3,1.5,2.1,2.8,1.9l34.2-6.9c1.4-0.3,2.3-1.8,1.8-3.2l-0.3-0.8
				c0,0-5.2-15.7-22.4-13.3C124.7,383.1,116.8,387.1,104.7,386.8L104.7,386.8z"/>
			<path class="st3" d="M108.6,404.1c-0.2,0-0.3-0.1-0.3-0.3c0-0.2,0.1-0.4,0.3-0.4l37.9-7.6c0.2,0,0.4,0.1,0.4,0.3
				c0,0.2-0.1,0.4-0.3,0.4L108.6,404.1C108.7,404.1,108.7,404.1,108.6,404.1L108.6,404.1z"/>
			<path class="st3" d="M117.8,402.2c-0.2,0-0.3-0.1-0.3-0.3c-0.1-0.3-2.3-7.7-11-6.4c-0.2,0-0.4-0.1-0.4-0.3s0.1-0.4,0.3-0.4
				c9.3-1.4,11.7,6.9,11.7,7C118.2,402,118.1,402.2,117.8,402.2C117.8,402.2,117.8,402.2,117.8,402.2L117.8,402.2z"/>
			<path class="st3" d="M125.4,388.9c-0.1,0-0.1,0-0.2-0.1c-0.2-0.1-0.2-0.3-0.1-0.5l6.5-8.4c0.1-0.2,0.3-0.2,0.5-0.1
				c0.2,0.1,0.2,0.3,0.1,0.5l-6.5,8.4C125.6,388.9,125.5,388.9,125.4,388.9L125.4,388.9z"/>
			<path class="st3" d="M129.5,389.6c-0.1,0-0.1,0-0.2-0.1c-0.2-0.1-0.2-0.3-0.1-0.5l6.5-8.4c0.1-0.2,0.3-0.2,0.5-0.1
				s0.2,0.3,0.1,0.5l-6.5,8.4C129.8,389.6,129.7,389.6,129.5,389.6L129.5,389.6z"/>
			<path class="st5" d="M20.7,377.6l-7.6,17.3c-0.5,1.2,0,2.6,1.2,3.2l31.8,14.3c1.3,0.6,2.9-0.1,3.3-1.5l0.2-0.8
				c0,0,4.9-15.8-10.5-23.8C39.1,386.1,30.4,384.8,20.7,377.6L20.7,377.6z"/>
			<path class="st3" d="M49.3,409.8c0,0-0.1,0-0.1,0L13.9,394c-0.2-0.1-0.3-0.3-0.2-0.5c0.1-0.2,0.3-0.3,0.5-0.2l35.3,15.8
				c0.2,0.1,0.3,0.3,0.2,0.5C49.6,409.7,49.5,409.8,49.3,409.8L49.3,409.8z"/>
			<path class="st3" d="M22.6,397.8c0,0-0.1,0-0.1,0c-0.2-0.1-0.3-0.3-0.2-0.4c0.1-0.3,2.6-7.6-5.2-11.6c-0.2-0.1-0.2-0.3-0.2-0.5
				c0.1-0.2,0.3-0.2,0.5-0.2c8.4,4.3,5.5,12.4,5.5,12.5C22.8,397.7,22.7,397.8,22.6,397.8L22.6,397.8z"/>
			<path class="st3" d="M36.5,391.3c-0.1,0-0.3-0.1-0.3-0.2c-0.1-0.2,0-0.4,0.2-0.4l10.2-3.1c0.2-0.1,0.4,0,0.4,0.2s0,0.4-0.2,0.4
				L36.5,391.3C36.6,391.3,36.5,391.3,36.5,391.3L36.5,391.3z"/>
			<path class="st3" d="M39.5,394.4c-0.1,0-0.3-0.1-0.3-0.2c-0.1-0.2,0-0.4,0.2-0.4l10.2-3.1c0.2-0.1,0.4,0,0.4,0.2
				c0.1,0.2,0,0.4-0.2,0.4L39.5,394.4C39.6,394.3,39.5,394.4,39.5,394.4L39.5,394.4z"/>
		</g>
		<g>
			<g>
				<rect x="322.6" y="321.3" class="st6" width="13.6" height="91.5"/>
				<rect x="439.3" y="321.3" class="st6" width="13.6" height="91.5"/>
			</g>
			<g>
				<g>
					<circle class="st6" cx="329.4" cy="310.2" r="10.4"/>
					<circle class="st4" cx="329.4" cy="310.2" r="6.5"/>
				</g>
				<g>
					<circle class="st6" cx="446.1" cy="310.2" r="10.4"/>
					<circle class="st4" cx="446.1" cy="310.2" r="6.5"/>
				</g>
			</g>
			<g>
				<g>
					<defs>
						<path id="SVGID_1_" d="M471.3,349.2H304.1c-2.5,0-4.6-2.1-4.6-4.6v-19c0-2.5,2.1-4.6,4.6-4.6h167.2c2.5,0,4.6,2.1,4.6,4.6v19
							C476,347.1,473.9,349.2,471.3,349.2z"/>
					</defs>
					<clipPath id="SVGID_00000031895559138930165850000018179569052018279327_">
						<use xlink:href="#SVGID_1_"  style="overflow:visible;"/>
					</clipPath>
					<path style="clip-path:url(#SVGID_00000031895559138930165850000018179569052018279327_);fill:#F35454;" d="M471.3,349.2H304.1
						c-2.5,0-4.6-2.1-4.6-4.6v-19c0-2.5,2.1-4.6,4.6-4.6h167.2c2.5,0,4.6,2.1,4.6,4.6v19C476,347.1,473.9,349.2,471.3,349.2z"/>
					<g style="clip-path:url(#SVGID_00000031895559138930165850000018179569052018279327_);">
						
							<rect x="313.8" y="308.9" transform="matrix(0.866 0.5 -0.5 0.866 210.3566 -115.033)" class="st2" width="12.1" height="52.3"/>
						
							<rect x="347.7" y="308.9" transform="matrix(0.866 0.5 -0.5 0.866 214.9052 -132.0089)" class="st2" width="12.1" height="52.3"/>
						
							<rect x="381.7" y="308.9" transform="matrix(0.866 0.5 -0.5 0.866 219.4539 -148.9848)" class="st2" width="12.1" height="52.3"/>
						
							<rect x="415.7" y="308.9" transform="matrix(0.866 0.5 -0.5 0.866 224.0026 -165.9607)" class="st2" width="12.1" height="52.3"/>
						
							<rect x="449.6" y="308.9" transform="matrix(0.866 0.5 -0.5 0.866 228.5513 -182.9367)" class="st2" width="12.1" height="52.3"/>
					</g>
				</g>
				<g>
					<defs>
						<path id="SVGID_00000112621700779172563090000008403407341708497576_" d="M471.3,384.8H304.1c-2.5,0-4.6-2.1-4.6-4.6v-19
							c0-2.5,2.1-4.6,4.6-4.6h167.2c2.5,0,4.6,2.1,4.6,4.6v19C476,382.7,473.9,384.8,471.3,384.8z"/>
					</defs>
					<clipPath id="SVGID_00000047762460555617725280000017433242923040813201_">
						<use xlink:href="#SVGID_00000112621700779172563090000008403407341708497576_"  style="overflow:visible;"/>
					</clipPath>
					<path style="clip-path:url(#SVGID_00000047762460555617725280000017433242923040813201_);fill:#F35454;" d="M471.3,384.8H304.1
						c-2.5,0-4.6-2.1-4.6-4.6v-19c0-2.5,2.1-4.6,4.6-4.6h167.2c2.5,0,4.6,2.1,4.6,4.6v19C476,382.7,473.9,384.8,471.3,384.8z"/>
					<g style="clip-path:url(#SVGID_00000047762460555617725280000017433242923040813201_);">
						
							<rect x="313.8" y="344.5" transform="matrix(0.866 0.5 -0.5 0.866 228.1901 -110.2545)" class="st2" width="12.1" height="52.3"/>
						
							<rect x="347.7" y="344.5" transform="matrix(0.866 0.5 -0.5 0.866 232.7388 -127.2304)" class="st2" width="12.1" height="52.3"/>
						
							<rect x="381.7" y="344.5" transform="matrix(0.866 0.5 -0.5 0.866 237.2875 -144.2063)" class="st2" width="12.1" height="52.3"/>
						
							<rect x="415.7" y="344.5" transform="matrix(0.866 0.5 -0.5 0.866 241.8362 -161.1823)" class="st2" width="12.1" height="52.3"/>
						
							<rect x="449.6" y="344.5" transform="matrix(0.866 0.5 -0.5 0.866 246.3849 -178.1582)" class="st2" width="12.1" height="52.3"/>
					</g>
				</g>
			</g>
		</g>
		<g>
			<g>
				<path class="st1" d="M7.8,413.9c4.3,0,8.7,0,13,0c11.7,0,23.5,0,35.2,0c17.4,0,34.8,0,52.2,0c21.2,0,42.4,0,63.6,0
					c23.2,0,46.3,0,69.5,0c23.5,0,47.1,0,70.6,0c21.8,0,43.6,0,65.4,0c18.5,0,37,0,55.4,0c13.3,0,26.6,0,39.9,0
					c6.3,0,12.6,0.1,18.8,0c0.3,0,0.5,0,0.8,0c1.1,0,1.1-1.7,0-1.7c-4.3,0-8.7,0-13,0c-11.7,0-23.5,0-35.2,0c-17.4,0-34.8,0-52.2,0
					c-21.2,0-42.4,0-63.6,0c-23.2,0-46.3,0-69.5,0c-23.5,0-47.1,0-70.6,0c-21.8,0-43.6,0-65.4,0c-18.5,0-37,0-55.4,0
					c-13.3,0-26.6,0-39.9,0c-6.3,0-12.6-0.1-18.8,0c-0.3,0-0.5,0-0.8,0C6.7,412.2,6.7,413.9,7.8,413.9L7.8,413.9z"/>
			</g>
		</g>
	</g>
</g>
</svg>
