<?xml version="1.0" encoding="utf-8"?>
<!-- Generator: Adobe Illustrator 27.2.0, SVG Export Plug-In . SVG Version: 6.00 Build 0)  -->
<svg version="1.1" xmlns="http://www.w3.org/2000/svg" xmlns:xlink="http://www.w3.org/1999/xlink" x="0px" y="0px"
	 viewBox="0 0 700 500" style="enable-background:new 0 0 700 500;" xml:space="preserve">
<style type="text/css">
	.st0{clip-path:url(#SVGID_00000077297114314161417540000018274288798081844122_);fill:#FFFAFA;}
	.st1{clip-path:url(#SVGID_00000077297114314161417540000018274288798081844122_);}
	.st2{fill:#DC3545;}
	.st3{fill:#FFFFFF;}
	.st4{fill:#732A09;}
	.st5{fill:#F15454;}
	.st6{fill:#F75454;}
	
		.st7{clip-path:url(#SVGID_00000077297114314161417540000018274288798081844122_);fill:none;stroke:#DC3545;stroke-width:2;stroke-miterlimit:10;}
	.st8{fill:#FFC200;}
</style>
<g id="Capa_2">
	<g>
		<defs>
			<rect id="SVGID_1_" width="700" height="500"/>
		</defs>
		<clipPath id="SVGID_00000139291734418481231780000018406172346867651506_">
			<use xlink:href="#SVGID_1_"  style="overflow:visible;"/>
		</clipPath>
		
			<rect style="clip-path:url(#SVGID_00000139291734418481231780000018406172346867651506_);fill:#FFFAFA;" width="700" height="500"/>
		<g style="clip-path:url(#SVGID_00000139291734418481231780000018406172346867651506_);">
			<path class="st2" d="M202.08,142.9l-7.3-13.25h-2.05v13.25h-8.55v-35.1h14.35c2.77,0,5.12,0.48,7.07,1.45
				c1.95,0.97,3.41,2.29,4.38,3.98c0.97,1.68,1.45,3.56,1.45,5.62c0,2.33-0.66,4.42-1.98,6.25c-1.32,1.83-3.26,3.13-5.83,3.9
				l8.1,13.9H202.08z M192.73,123.6h5.3c1.57,0,2.74-0.38,3.52-1.15c0.78-0.77,1.17-1.85,1.17-3.25c0-1.33-0.39-2.38-1.17-3.15
				c-0.78-0.77-1.96-1.15-3.52-1.15h-5.3V123.6z"/>
			<path class="st2" d="M225.33,114.65v7.1h11.45v6.6h-11.45v7.7h12.95v6.85h-21.5v-35.1h21.5v6.85H225.33z"/>
			<path class="st2" d="M267.13,118.9c-0.63-1.17-1.54-2.06-2.73-2.67c-1.18-0.62-2.57-0.93-4.17-0.93c-2.77,0-4.98,0.91-6.65,2.73
				c-1.67,1.82-2.5,4.24-2.5,7.27c0,3.23,0.88,5.76,2.62,7.58c1.75,1.82,4.16,2.73,7.23,2.73c2.1,0,3.88-0.53,5.32-1.6
				c1.45-1.07,2.51-2.6,3.18-4.6h-10.85v-6.3h18.6v7.95c-0.63,2.13-1.71,4.12-3.23,5.95c-1.52,1.83-3.44,3.32-5.77,4.45
				c-2.33,1.13-4.97,1.7-7.9,1.7c-3.47,0-6.56-0.76-9.27-2.27c-2.72-1.52-4.83-3.62-6.35-6.33c-1.52-2.7-2.27-5.78-2.27-9.25
				c0-3.47,0.76-6.56,2.27-9.27c1.52-2.72,3.62-4.83,6.33-6.35c2.7-1.52,5.78-2.27,9.25-2.27c4.2,0,7.74,1.02,10.62,3.05
				c2.88,2.03,4.79,4.85,5.73,8.45H267.13z"/>
			<path class="st2" d="M290.48,136.3h11.2v6.6h-19.75v-35.1h8.55V136.3z"/>
			<path class="st2" d="M327.62,136.7h-13.1l-2.1,6.2h-8.95l12.7-35.1h9.9l12.7,35.1h-9.05L327.62,136.7z M325.42,130.1l-4.35-12.85
				l-4.3,12.85H325.42z"/>
			<path class="st2" d="M382.38,107.8v35.1h-8.55v-21.05l-7.85,21.05h-6.9l-7.9-21.1v21.1h-8.55v-35.1h10.1l9.85,24.3l9.75-24.3
				H382.38z"/>
			<path class="st2" d="M397.07,114.65v7.1h11.45v6.6h-11.45v7.7h12.95v6.85h-21.5v-35.1h21.5v6.85H397.07z"/>
			<path class="st2" d="M446.97,142.9h-8.55l-14.3-21.65v21.65h-8.55v-35.1h8.55l14.3,21.75V107.8h8.55V142.9z"/>
			<path class="st2" d="M478.42,107.8v6.85h-9.3v28.25h-8.55v-28.25h-9.3v-6.85H478.42z"/>
			<path class="st2" d="M490.25,140.95c-2.75-1.53-4.93-3.67-6.55-6.42c-1.62-2.75-2.42-5.84-2.42-9.27c0-3.43,0.81-6.52,2.42-9.25
				c1.62-2.73,3.8-4.87,6.55-6.4s5.78-2.3,9.08-2.3s6.33,0.77,9.08,2.3s4.92,3.67,6.5,6.4c1.58,2.73,2.38,5.82,2.38,9.25
				c0,3.43-0.8,6.52-2.4,9.27c-1.6,2.75-3.77,4.89-6.5,6.42c-2.73,1.53-5.75,2.3-9.05,2.3S493,142.48,490.25,140.95z M506.05,132.65
				c1.68-1.87,2.53-4.33,2.53-7.4c0-3.1-0.84-5.58-2.53-7.43c-1.68-1.85-3.92-2.77-6.72-2.77c-2.83,0-5.09,0.92-6.78,2.75
				c-1.68,1.83-2.52,4.32-2.52,7.45c0,3.1,0.84,5.57,2.52,7.42s3.94,2.77,6.78,2.77C502.12,135.45,504.36,134.51,506.05,132.65z"/>
			<path class="st2" d="M247.4,154.65v7.1h11.45v6.6H247.4v7.7h12.95v6.85h-21.5v-35.1h21.5v6.85H247.4z"/>
			<path class="st2" d="M271.7,182c-2.03-0.83-3.66-2.07-4.88-3.7c-1.22-1.63-1.86-3.6-1.92-5.9h9.1c0.13,1.3,0.58,2.29,1.35,2.98
				c0.77,0.68,1.77,1.02,3,1.02c1.27,0,2.27-0.29,3-0.88c0.73-0.58,1.1-1.39,1.1-2.42c0-0.87-0.29-1.58-0.88-2.15
				c-0.58-0.57-1.3-1.03-2.15-1.4c-0.85-0.37-2.06-0.78-3.62-1.25c-2.27-0.7-4.12-1.4-5.55-2.1c-1.43-0.7-2.67-1.73-3.7-3.1
				c-1.03-1.37-1.55-3.15-1.55-5.35c0-3.27,1.18-5.83,3.55-7.68c2.37-1.85,5.45-2.77,9.25-2.77c3.87,0,6.98,0.93,9.35,2.77
				c2.37,1.85,3.63,4.43,3.8,7.73h-9.25c-0.07-1.13-0.48-2.02-1.25-2.67c-0.77-0.65-1.75-0.98-2.95-0.98c-1.03,0-1.87,0.27-2.5,0.83
				c-0.63,0.55-0.95,1.34-0.95,2.38c0,1.13,0.53,2.02,1.6,2.65c1.07,0.63,2.73,1.32,5,2.05c2.27,0.77,4.11,1.5,5.52,2.2
				c1.42,0.7,2.64,1.72,3.67,3.05c1.03,1.33,1.55,3.05,1.55,5.15c0,2-0.51,3.82-1.52,5.45c-1.02,1.63-2.49,2.93-4.43,3.9
				c-1.93,0.97-4.22,1.45-6.85,1.45C276.03,183.25,273.73,182.83,271.7,182z"/>
			<path class="st2" d="M297.45,156.02c1.5-2.72,3.59-4.83,6.27-6.35c2.68-1.52,5.73-2.27,9.12-2.27c4.17,0,7.73,1.1,10.7,3.3
				c2.97,2.2,4.95,5.2,5.95,9h-9.4c-0.7-1.47-1.69-2.58-2.97-3.35c-1.28-0.77-2.74-1.15-4.38-1.15c-2.63,0-4.77,0.92-6.4,2.75
				c-1.63,1.83-2.45,4.28-2.45,7.35c0,3.07,0.82,5.52,2.45,7.35c1.63,1.83,3.77,2.75,6.4,2.75c1.63,0,3.09-0.38,4.38-1.15
				c1.28-0.77,2.27-1.88,2.97-3.35h9.4c-1,3.8-2.98,6.79-5.95,8.98c-2.97,2.18-6.53,3.27-10.7,3.27c-3.4,0-6.44-0.76-9.12-2.27
				c-2.68-1.52-4.77-3.62-6.27-6.33c-1.5-2.7-2.25-5.78-2.25-9.25C295.2,161.83,295.95,158.74,297.45,156.02z"/>
			<path class="st2" d="M342.27,180.95c-2.75-1.53-4.93-3.67-6.55-6.42c-1.62-2.75-2.43-5.84-2.43-9.27c0-3.43,0.81-6.52,2.43-9.25
				c1.62-2.73,3.8-4.87,6.55-6.4s5.77-2.3,9.08-2.3c3.3,0,6.32,0.77,9.07,2.3s4.92,3.67,6.5,6.4c1.58,2.73,2.38,5.82,2.38,9.25
				c0,3.43-0.8,6.52-2.4,9.27c-1.6,2.75-3.77,4.89-6.5,6.42c-2.73,1.53-5.75,2.3-9.05,2.3
				C348.05,183.25,345.02,182.48,342.27,180.95z M358.07,172.65c1.68-1.87,2.53-4.33,2.53-7.4c0-3.1-0.84-5.58-2.53-7.43
				c-1.68-1.85-3.92-2.77-6.72-2.77c-2.83,0-5.09,0.92-6.78,2.75c-1.68,1.83-2.52,4.32-2.52,7.45c0,3.1,0.84,5.57,2.52,7.42
				c1.68,1.85,3.94,2.77,6.78,2.77C354.15,175.45,356.39,174.51,358.07,172.65z"/>
			<path class="st2" d="M382.6,176.3h11.2v6.6h-19.75v-35.1h8.55V176.3z"/>
			<path class="st2" d="M419.75,176.7h-13.1l-2.1,6.2h-8.95l12.7-35.1h9.9l12.7,35.1h-9.05L419.75,176.7z M417.55,170.1l-4.35-12.85
				l-4.3,12.85H417.55z"/>
			<path class="st2" d="M452.65,182.9l-7.3-13.25h-2.05v13.25h-8.55v-35.1h14.35c2.77,0,5.12,0.48,7.08,1.45
				c1.95,0.97,3.41,2.29,4.38,3.98c0.97,1.68,1.45,3.56,1.45,5.62c0,2.33-0.66,4.42-1.98,6.25c-1.32,1.83-3.26,3.13-5.83,3.9
				l8.1,13.9H452.65z M443.3,163.6h5.3c1.57,0,2.74-0.38,3.53-1.15c0.78-0.77,1.17-1.85,1.17-3.25c0-1.33-0.39-2.38-1.17-3.15
				c-0.78-0.77-1.96-1.15-3.53-1.15h-5.3V163.6z"/>
		</g>
		<g style="clip-path:url(#SVGID_00000139291734418481231780000018406172346867651506_);">
			<path id="carpet" class="st3" d="M343.74,392.5c-4.19,0.02-8.38,0.27-12.54,0.79c-24.22,3.01-45.56,9.06-52.37,18.3
				c-7.42,10.06,26.66,26.38,81.61,26.36c54.95-0.03,79.08-18.04,74.67-28.81C428.59,393.24,364.18,392.43,343.74,392.5
				L343.74,392.5z"/>
			<path class="st4" d="M360.28,438.21c-26.58,0-45.26-3.72-56.25-6.85c-13.82-3.93-23.21-9.11-25.79-14.21
				c-1.02-2.02-0.89-4,0.37-5.73c3.6-4.88,15.2-13.76,52.55-18.41c4.1-0.51,8.33-0.78,12.57-0.79l0,0
				c25.44-0.09,85.29,1.39,91.61,16.8c1.04,2.53,0.55,5.41-1.4,8.33c-6.44,9.6-29.55,20.82-73.51,20.85h-0.16L360.28,438.21z
				 M345.77,392.77c-0.69,0-1.37,0-2.03,0c-4.22,0.02-8.43,0.28-12.51,0.79c-27.53,3.43-46.07,9.89-52.19,18.19
				c-1.16,1.57-1.26,3.31-0.33,5.16c5.06,10,37.67,20.77,81.57,20.77h0.15c29.5-0.02,63.54-6.39,73.06-20.61
				c1.85-2.77,2.32-5.47,1.35-7.83c-2.75-6.7-16.29-11.46-40.25-14.14C377.6,393.19,359.01,392.77,345.77,392.77L345.77,392.77z
				 M343.74,392.51L343.74,392.51L343.74,392.51z"/>
			<g id="shelves">
				<rect x="240.34" y="213.89" class="st3" width="108.75" height="168.81"/>
				<path class="st4" d="M349.09,382.97H240.34c-0.15,0-0.27-0.12-0.27-0.27V213.89c0-0.15,0.12-0.27,0.27-0.27h108.75
					c0.15,0,0.27,0.12,0.27,0.27V382.7C349.36,382.85,349.24,382.97,349.09,382.97L349.09,382.97z M240.61,382.43h108.21V214.16
					H240.61V382.43L240.61,382.43z"/>
				<path class="st4" d="M341.62,375.61h-93.79c-0.15,0-0.27-0.12-0.27-0.27V221.25c0-0.15,0.12-0.27,0.27-0.27h93.8
					c0.15,0,0.27,0.12,0.27,0.27v154.09C341.89,375.49,341.77,375.61,341.62,375.61L341.62,375.61z M248.09,375.08h93.26V221.52
					h-93.26V375.08z"/>
				<rect x="247.82" y="331.68" class="st5" width="93.8" height="43.66"/>
				<path class="st4" d="M341.62,375.61h-93.79c-0.15,0-0.27-0.12-0.27-0.27v-43.66c0-0.15,0.12-0.27,0.27-0.27h93.8
					c0.15,0,0.27,0.12,0.27,0.27v43.66C341.89,375.49,341.77,375.61,341.62,375.61L341.62,375.61z M248.09,375.08h93.26v-43.13
					h-93.26V375.08z"/>
				<rect x="247.82" y="324.8" class="st4" width="93.8" height="6.89"/>
				<path class="st4" d="M341.62,331.95h-93.79c-0.15,0-0.27-0.12-0.27-0.27v-6.89c0-0.15,0.12-0.27,0.27-0.27h93.8
					c0.15,0,0.27,0.12,0.27,0.27v6.89C341.89,331.83,341.77,331.95,341.62,331.95L341.62,331.95z M248.09,331.41h93.26v-6.35h-93.26
					V331.41z"/>
				
					<rect x="250.22" y="299.46" transform="matrix(0.9832 -0.1826 0.1826 0.9832 -52.7206 51.6065)" class="st4" width="7.41" height="25.34"/>
				<path class="st4" d="M252.59,325.53c-0.13,0-0.24-0.09-0.26-0.22l-4.63-24.91c-0.01-0.07,0-0.14,0.04-0.2s0.1-0.1,0.17-0.11
					l7.28-1.35c0.14-0.03,0.28,0.07,0.31,0.21l4.63,24.91c0.01,0.07,0,0.14-0.04,0.2c-0.04,0.06-0.1,0.1-0.17,0.11l-7.28,1.35
					C252.64,325.52,252.61,325.52,252.59,325.53L252.59,325.53z M248.28,300.56l4.53,24.39l6.75-1.25l-4.53-24.39
					C255.03,299.31,248.28,300.56,248.28,300.56z"/>
				<rect x="270.85" y="299.46" class="st3" width="7.41" height="25.34"/>
				<path class="st4" d="M278.25,325.06h-7.41c-0.15,0-0.27-0.12-0.27-0.27v-25.34c0-0.15,0.12-0.27,0.27-0.27h7.41
					c0.15,0,0.27,0.12,0.27,0.27v25.34C278.52,324.95,278.4,325.06,278.25,325.06z M271.11,324.53h6.87v-24.81h-6.87V324.53z"/>
				<rect x="278.25" y="299.46" class="st5" width="7.41" height="25.34"/>
				<path class="st4" d="M285.65,325.06h-7.4c-0.15,0-0.27-0.12-0.27-0.27v-25.34c0-0.15,0.12-0.27,0.27-0.27h7.4
					c0.15,0,0.27,0.12,0.27,0.27v25.34C285.92,324.95,285.8,325.06,285.65,325.06z M278.52,324.53h6.86v-24.81h-6.86V324.53z"/>
				<rect x="285.65" y="299.46" class="st3" width="7.41" height="25.34"/>
				<path class="st4" d="M293.06,325.06h-7.4c-0.15,0-0.27-0.12-0.27-0.27v-25.34c0-0.15,0.12-0.27,0.27-0.27h7.4
					c0.15,0,0.27,0.12,0.27,0.27v25.34C293.33,324.95,293.21,325.06,293.06,325.06z M285.92,324.53h6.86v-24.81h-6.86V324.53z"/>
				<rect x="293.06" y="299.46" class="st4" width="7.41" height="25.34"/>
				<path class="st4" d="M300.46,325.06h-7.4c-0.15,0-0.27-0.12-0.27-0.27v-25.34c0-0.15,0.12-0.27,0.27-0.27h7.4
					c0.15,0,0.27,0.12,0.27,0.27v25.34C300.73,324.95,300.61,325.06,300.46,325.06z M293.33,324.53h6.86v-24.81h-6.86V324.53z"/>
				<rect x="302.53" y="299.46" class="st5" width="7.41" height="25.34"/>
				<path class="st4" d="M309.93,325.06h-7.4c-0.15,0-0.27-0.12-0.27-0.27v-25.34c0-0.15,0.12-0.27,0.27-0.27h7.4
					c0.15,0,0.27,0.12,0.27,0.27v25.34C310.2,324.95,310.08,325.06,309.93,325.06z M302.8,324.53h6.86v-24.81h-6.86V324.53z"/>
				<rect x="312.01" y="299.46" class="st3" width="7.41" height="25.34"/>
				<path class="st4" d="M319.41,325.06h-7.4c-0.15,0-0.27-0.12-0.27-0.27v-25.34c0-0.15,0.12-0.27,0.27-0.27h7.4
					c0.15,0,0.27,0.12,0.27,0.27v25.34C319.68,324.95,319.56,325.06,319.41,325.06z M312.28,324.53h6.86v-24.81h-6.86V324.53z"/>
				<rect x="321.49" y="299.46" class="st5" width="7.41" height="25.34"/>
				<path class="st4" d="M328.89,325.06h-7.4c-0.15,0-0.27-0.12-0.27-0.27v-25.34c0-0.15,0.12-0.27,0.27-0.27h7.4
					c0.15,0,0.27,0.12,0.27,0.27v25.34C329.15,324.95,329.04,325.06,328.89,325.06z M321.75,324.53h6.86v-24.81h-6.86V324.53z"/>
				
					<rect x="322" y="308.42" transform="matrix(0.2588 -0.9659 0.9659 0.2588 -53.4421 554.6077)" class="st5" width="25.34" height="7.41"/>
				<path class="st4" d="M334.95,325.59c0,0-0.05,0-0.07-0.01l-7.15-1.92c-0.14-0.04-0.22-0.19-0.19-0.33l6.56-24.47
					c0.02-0.07,0.06-0.13,0.12-0.16c0.06-0.04,0.13-0.04,0.2-0.03l7.15,1.92c0.14,0.04,0.22,0.19,0.19,0.33l-6.56,24.47
					c-0.02,0.07-0.06,0.13-0.12,0.16C335.04,325.58,335,325.59,334.95,325.59z M328.13,323.22l6.63,1.78l6.42-23.96l-6.63-1.78
					L328.13,323.22z"/>
				<rect x="247.82" y="287.61" class="st4" width="93.8" height="6.89"/>
				<path class="st4" d="M341.62,294.77h-93.79c-0.15,0-0.27-0.12-0.27-0.27v-6.89c0-0.15,0.12-0.27,0.27-0.27h93.8
					c0.15,0,0.27,0.12,0.27,0.27v6.89C341.89,294.65,341.77,294.77,341.62,294.77L341.62,294.77z M248.09,294.23h93.26v-6.35h-93.26
					V294.23z"/>
				<rect x="250.22" y="262.28" class="st3" width="7.41" height="25.34"/>
				<path class="st4" d="M257.62,287.88h-7.4c-0.15,0-0.27-0.12-0.27-0.27v-25.34c0-0.15,0.12-0.27,0.27-0.27h7.4
					c0.15,0,0.27,0.12,0.27,0.27v25.34C257.89,287.76,257.77,287.88,257.62,287.88z M250.49,287.35h6.86v-24.81h-6.86
					C250.49,262.54,250.49,287.35,250.49,287.35z"/>
				<rect x="257.62" y="262.28" class="st5" width="7.41" height="25.34"/>
				<path class="st4" d="M265.03,287.88h-7.4c-0.15,0-0.27-0.12-0.27-0.27v-25.34c0-0.15,0.12-0.27,0.27-0.27h7.4
					c0.15,0,0.27,0.12,0.27,0.27v25.34C265.29,287.76,265.18,287.88,265.03,287.88z M257.89,287.35h6.86v-24.81h-6.86V287.35z"/>
				<rect x="267.91" y="262.28" class="st4" width="7.41" height="25.34"/>
				<path class="st4" d="M275.31,287.88h-7.4c-0.15,0-0.27-0.12-0.27-0.27v-25.34c0-0.15,0.12-0.27,0.27-0.27h7.4
					c0.15,0,0.27,0.12,0.27,0.27v25.34C275.58,287.76,275.46,287.88,275.31,287.88z M268.18,287.35h6.86v-24.81h-6.86V287.35z"/>
				
					<rect x="275.31" y="262.28" transform="matrix(0.9751 -0.2217 0.2217 0.9751 -54.0165 68.7067)" class="st3" width="7.41" height="25.34"/>
				<path class="st4" d="M278.21,288.39c-0.05,0-0.1-0.02-0.14-0.04c-0.06-0.04-0.1-0.1-0.12-0.17l-5.62-24.71
					c-0.03-0.14,0.06-0.29,0.2-0.32l7.22-1.64c0.15-0.04,0.29,0.06,0.32,0.2l5.62,24.71c0.03,0.14-0.06,0.29-0.2,0.32l-7.22,1.64
					C278.27,288.38,278.24,288.39,278.21,288.39L278.21,288.39z M272.92,263.62l5.5,24.19l6.7-1.52l-5.5-24.19L272.92,263.62
					L272.92,263.62z"/>
				<rect x="285.6" y="262.28" class="st5" width="7.41" height="25.34"/>
				<path class="st4" d="M293,287.88h-7.4c-0.15,0-0.27-0.12-0.27-0.27v-25.34c0-0.15,0.12-0.27,0.27-0.27h7.4
					c0.15,0,0.27,0.12,0.27,0.27v25.34C293.27,287.76,293.15,287.88,293,287.88z M285.87,287.35h6.86v-24.81h-6.86V287.35z"/>
				<rect x="293" y="262.28" class="st3" width="7.41" height="25.34"/>
				<path class="st4" d="M300.41,287.88h-7.4c-0.15,0-0.27-0.12-0.27-0.27v-25.34c0-0.15,0.12-0.27,0.27-0.27h7.4
					c0.15,0,0.27,0.12,0.27,0.27v25.34C300.68,287.76,300.56,287.88,300.41,287.88z M293.27,287.35h6.86v-24.81h-6.86V287.35z"/>
				<rect x="302.48" y="262.28" class="st4" width="7.41" height="25.34"/>
				<path class="st4" d="M309.89,287.88h-7.4c-0.15,0-0.27-0.12-0.27-0.27v-25.34c0-0.15,0.12-0.27,0.27-0.27h7.4
					c0.15,0,0.27,0.12,0.27,0.27v25.34C310.15,287.76,310.04,287.88,309.89,287.88z M302.75,287.35h6.86v-24.81h-6.86V287.35z"/>
				
					<rect x="311.96" y="262.28" transform="matrix(0.9891 -0.1469 0.1469 0.9891 -36.9761 49.3694)" class="st5" width="7.41" height="25.34"/>
				<path class="st4" d="M313.86,288.29c-0.13,0-0.25-0.1-0.26-0.23L309.87,263c-0.01-0.07,0.01-0.14,0.05-0.2
					c0.04-0.06,0.11-0.1,0.18-0.11l7.33-1.09c0.07-0.01,0.14,0.01,0.2,0.05c0.06,0.04,0.1,0.11,0.11,0.18l3.72,25.06
					c0.02,0.14-0.08,0.28-0.22,0.3l-7.32,1.09c0,0-0.03,0-0.04,0L313.86,288.29z M310.44,263.18l3.64,24.53l6.8-1.01l-3.64-24.53
					L310.44,263.18z"/>
				<rect x="321.43" y="262.28" class="st5" width="7.41" height="25.34"/>
				<path class="st4" d="M328.83,287.88h-7.4c-0.15,0-0.27-0.12-0.27-0.27v-25.34c0-0.15,0.12-0.27,0.27-0.27h7.4
					c0.15,0,0.27,0.12,0.27,0.27v25.34C329.1,287.76,328.98,287.88,328.83,287.88z M321.7,287.35h6.86v-24.81h-6.86V287.35z"/>
				<rect x="330.91" y="262.28" class="st3" width="7.41" height="25.34"/>
				<path class="st4" d="M338.31,287.88h-7.4c-0.15,0-0.27-0.12-0.27-0.27v-25.34c0-0.15,0.12-0.27,0.27-0.27h7.4
					c0.15,0,0.27,0.12,0.27,0.27v25.34C338.58,287.76,338.46,287.88,338.31,287.88z M331.18,287.35h6.86v-24.81h-6.86V287.35z"/>
				<rect x="247.82" y="250.43" class="st4" width="93.8" height="6.89"/>
				<path class="st4" d="M341.62,257.59h-93.79c-0.15,0-0.27-0.12-0.27-0.27v-6.89c0-0.15,0.12-0.27,0.27-0.27h93.8
					c0.15,0,0.27,0.12,0.27,0.27v6.89C341.89,257.47,341.77,257.59,341.62,257.59L341.62,257.59z M248.09,257.05h93.26v-6.35h-93.26
					V257.05z"/>
				<rect x="250.22" y="225.1" class="st5" width="7.41" height="25.34"/>
				<path class="st4" d="M257.62,250.7h-7.4c-0.15,0-0.27-0.12-0.27-0.27v-25.34c0-0.15,0.12-0.27,0.27-0.27h7.4
					c0.15,0,0.27,0.12,0.27,0.27v25.34C257.89,250.58,257.77,250.7,257.62,250.7z M250.49,250.16h6.86v-24.81h-6.86
					C250.49,225.36,250.49,250.16,250.49,250.16z"/>
				<rect x="257.62" y="225.1" class="st5" width="7.41" height="25.34"/>
				<path class="st4" d="M265.03,250.7h-7.4c-0.15,0-0.27-0.12-0.27-0.27v-25.34c0-0.15,0.12-0.27,0.27-0.27h7.4
					c0.15,0,0.27,0.12,0.27,0.27v25.34C265.29,250.58,265.18,250.7,265.03,250.7z M257.89,250.16h6.86v-24.81h-6.86V250.16z"/>
				<rect x="265.03" y="225.1" class="st4" width="7.41" height="25.34"/>
				<path class="st4" d="M272.43,250.7h-7.4c-0.15,0-0.27-0.12-0.27-0.27v-25.34c0-0.15,0.12-0.27,0.27-0.27h7.4
					c0.15,0,0.27,0.12,0.27,0.27v25.34C272.69,250.58,272.58,250.7,272.43,250.7z M265.29,250.16h6.86v-24.81h-6.86V250.16z"/>
				<rect x="272.43" y="225.1" class="st4" width="7.41" height="25.34"/>
				<path class="st4" d="M279.83,250.7h-7.4c-0.15,0-0.27-0.12-0.27-0.27v-25.34c0-0.15,0.12-0.27,0.27-0.27h7.4
					c0.15,0,0.27,0.12,0.27,0.27v25.34C280.1,250.58,279.98,250.7,279.83,250.7z M272.69,250.16h6.86v-24.81h-6.86V250.16z"/>
				<rect x="279.83" y="225.1" class="st5" width="7.41" height="25.34"/>
				<path class="st4" d="M287.23,250.7h-7.4c-0.15,0-0.27-0.12-0.27-0.27v-25.34c0-0.15,0.12-0.27,0.27-0.27h7.4
					c0.15,0,0.27,0.12,0.27,0.27v25.34C287.5,250.58,287.38,250.7,287.23,250.7z M280.1,250.16h6.86v-24.81h-6.86
					C280.1,225.36,280.1,250.16,280.1,250.16z"/>
				<rect x="289.3" y="225.1" class="st4" width="7.41" height="25.34"/>
				<path class="st4" d="M296.71,250.7h-7.4c-0.15,0-0.27-0.12-0.27-0.27v-25.34c0-0.15,0.12-0.27,0.27-0.27h7.4
					c0.15,0,0.27,0.12,0.27,0.27v25.34C296.97,250.58,296.86,250.7,296.71,250.7z M289.57,250.16h6.86v-24.81h-6.86V250.16z"/>
				<rect x="298.78" y="225.1" class="st5" width="7.41" height="25.34"/>
				<path class="st4" d="M306.18,250.7h-7.4c-0.15,0-0.27-0.12-0.27-0.27v-25.34c0-0.15,0.12-0.27,0.27-0.27h7.4
					c0.15,0,0.27,0.12,0.27,0.27v25.34C306.45,250.58,306.33,250.7,306.18,250.7z M299.05,250.16h6.86v-24.81h-6.86V250.16z"/>
				<rect x="308.25" y="225.1" class="st4" width="7.41" height="25.34"/>
				<path class="st4" d="M315.66,250.7h-7.4c-0.15,0-0.27-0.12-0.27-0.27v-25.34c0-0.15,0.12-0.27,0.27-0.27h7.4
					c0.15,0,0.27,0.12,0.27,0.27v25.34C315.93,250.58,315.81,250.7,315.66,250.7z M308.52,250.16h6.86v-24.81h-6.86V250.16z"/>
				<rect x="317.73" y="225.1" class="st5" width="7.41" height="25.34"/>
				<path class="st4" d="M325.14,250.7h-7.4c-0.15,0-0.27-0.12-0.27-0.27v-25.34c0-0.15,0.12-0.27,0.27-0.27h7.4
					c0.15,0,0.27,0.12,0.27,0.27v25.34C325.4,250.58,325.29,250.7,325.14,250.7z M318,250.16h6.86v-24.81H318V250.16z"/>
			</g>
			<g id="window">
				<rect x="376.58" y="225.48" class="st3" width="83.08" height="70.75"/>
				<path class="st4" d="M459.66,296.5h-83.08c-0.15,0-0.27-0.12-0.27-0.27v-70.75c0-0.15,0.12-0.27,0.27-0.27h83.08
					c0.15,0,0.27,0.12,0.27,0.27v70.75C459.92,296.38,459.81,296.5,459.66,296.5L459.66,296.5z M376.84,295.96h82.55v-70.21h-82.55
					V295.96z"/>
				<rect x="382.58" y="229.6" class="st3" width="71.08" height="62.5"/>
				<path class="st4" d="M453.66,292.37h-71.08c-0.15,0-0.27-0.12-0.27-0.27v-62.5c0-0.15,0.12-0.27,0.27-0.27h71.08
					c0.15,0,0.27,0.12,0.27,0.27v62.5C453.93,292.25,453.81,292.37,453.66,292.37z M382.85,291.84h70.54v-61.97h-70.54V291.84z"/>
				<path class="st6" d="M428.46,229.6c1.39,19.12,12.51,34.47,18.97,38.93c0,0-3.89,14.47-2.5,23.57h8.74v-62.5L428.46,229.6
					L428.46,229.6z"/>
				<path class="st4" d="M453.66,292.37h-8.74c-0.13,0-0.25-0.1-0.26-0.22c-1.29-8.5,2.02-21.79,2.47-23.49
					c-6.91-4.89-17.59-20.52-18.93-39.03c0-0.07,0.02-0.15,0.07-0.2c0.05-0.05,0.12-0.09,0.2-0.09h25.2c0.15,0,0.27,0.12,0.27,0.27
					v62.5C453.93,292.25,453.81,292.37,453.66,292.37L453.66,292.37z M445.15,291.84h8.23v-61.97h-24.65
					c1.43,18.34,12.06,33.77,18.83,38.44c0.09,0.06,0.13,0.18,0.11,0.29C447.64,268.75,443.88,282.88,445.15,291.84L445.15,291.84z"
					/>
				<path class="st4" d="M447.43,268.53c2.32,0.48,6.23-0.97,6.23-0.97v2.51C453.66,270.07,443.84,271.99,447.43,268.53
					L447.43,268.53z"/>
				<path class="st4" d="M448.99,270.88c-1.21,0-2.24-0.18-2.53-0.73c-0.25-0.47,0.01-1.06,0.79-1.8c0.06-0.06,0.16-0.09,0.24-0.07
					c2.22,0.46,6.04-0.94,6.08-0.96c0.08-0.03,0.17-0.02,0.25,0.03c0.07,0.05,0.11,0.13,0.11,0.22v2.51c0,0.13-0.09,0.24-0.21,0.26
					C453.06,270.47,450.82,270.88,448.99,270.88L448.99,270.88z M447.52,268.82c-0.48,0.48-0.69,0.87-0.58,1.08
					c0.39,0.74,3.93,0.43,6.46-0.04v-1.92C452.38,268.28,449.49,269.16,447.52,268.82L447.52,268.82z"/>
				<path class="st4" d="M449.21,268.87c-0.06,0-0.13-0.02-0.18-0.07c-7.91-7.29-14.59-25.58-16.36-35.98
					c-0.03-0.14,0.07-0.28,0.22-0.31c0.14-0.03,0.28,0.07,0.31,0.22c1.77,10.33,8.38,28.47,16.2,35.68c0.11,0.1,0.12,0.27,0.02,0.38
					C449.36,268.84,449.29,268.87,449.21,268.87L449.21,268.87z"/>
				<path class="st4" d="M450.68,268.87c-0.1,0-0.2-0.06-0.24-0.16c-0.09-0.2-9.22-19.96-11.66-35.9c-0.02-0.14,0.08-0.28,0.22-0.3
					c0.15-0.02,0.28,0.08,0.3,0.22c2.43,15.86,11.53,35.56,11.62,35.76c0.06,0.13,0,0.29-0.13,0.35
					C450.76,268.86,450.73,268.87,450.68,268.87L450.68,268.87z"/>
				<path class="st4" d="M452.42,268.23c-0.1,0-0.19-0.05-0.24-0.14c-2.39-4.52-6.04-25.61-6.8-35.3c-0.01-0.14,0.1-0.28,0.25-0.29
					c0.13-0.01,0.28,0.1,0.29,0.25c0.77,9.64,4.38,30.62,6.74,35.09c0.07,0.13,0.02,0.29-0.11,0.36
					C452.51,268.22,452.47,268.23,452.42,268.23L452.42,268.23z"/>
				<path class="st4" d="M447.03,292.37c-0.13,0-0.25-0.1-0.27-0.24c-1.27-10.26,1.35-21.49,1.38-21.6c0.03-0.14,0.18-0.24,0.32-0.2
					c0.14,0.03,0.23,0.18,0.2,0.32c-0.03,0.11-2.63,11.25-1.37,21.41c0.02,0.14-0.09,0.28-0.23,0.3
					C447.06,292.37,447.05,292.37,447.03,292.37L447.03,292.37z"/>
				<path class="st4" d="M450.15,292.37c-0.14,0-0.26-0.11-0.27-0.25c-0.01-0.14-0.83-13.76,0-21.59c0.02-0.15,0.16-0.25,0.29-0.24
					c0.14,0.02,0.25,0.15,0.24,0.29c-0.83,7.79-0.01,21.37,0,21.5c0.01,0.15-0.1,0.27-0.25,0.28
					C450.15,292.37,450.15,292.37,450.15,292.37L450.15,292.37z"/>
				<path class="st6" d="M407.78,229.6c-1.39,19.12-12.51,34.47-18.97,38.93c0,0,3.89,14.47,2.5,23.57h-8.74v-62.5L407.78,229.6
					L407.78,229.6z"/>
				<path class="st4" d="M391.31,292.37h-8.74c-0.15,0-0.27-0.12-0.27-0.27v-62.5c0-0.15,0.12-0.27,0.27-0.27h25.2
					c0.07,0,0.14,0.03,0.2,0.09c0.05,0.05,0.07,0.13,0.07,0.2c-1.34,18.5-12.03,34.14-18.93,39.03c0.44,1.71,3.76,15,2.47,23.49
					C391.56,292.27,391.45,292.37,391.31,292.37L391.31,292.37z M382.85,291.84h8.23c1.26-8.95-2.49-23.09-2.54-23.23
					c-0.03-0.11,0.01-0.22,0.11-0.29c6.78-4.68,17.41-20.1,18.83-38.44h-24.65L382.85,291.84L382.85,291.84z"/>
				<path class="st4" d="M388.81,268.53c-2.32,0.48-6.23-0.97-6.23-0.97v2.51C382.58,270.07,392.4,271.99,388.81,268.53
					L388.81,268.53z"/>
				<path class="st4" d="M387.25,270.88c-1.83,0-4.07-0.41-4.72-0.54c-0.13-0.02-0.21-0.13-0.21-0.26v-2.51
					c0-0.09,0.04-0.17,0.11-0.22c0.07-0.05,0.16-0.06,0.25-0.03c0.04,0.02,3.87,1.41,6.08,0.96c0.09-0.02,0.18,0.01,0.24,0.07
					c0.77,0.74,1.03,1.34,0.79,1.8C389.49,270.71,388.46,270.89,387.25,270.88L387.25,270.88z M382.85,269.86
					c2.52,0.47,6.07,0.78,6.46,0.04c0.11-0.2-0.11-0.59-0.58-1.08c-1.97,0.34-4.86-0.54-5.88-0.88V269.86L382.85,269.86z"/>
				<path class="st4" d="M387.03,268.87c-0.07,0-0.14-0.03-0.2-0.09c-0.1-0.11-0.09-0.28,0.02-0.38
					c7.82-7.21,14.43-25.35,16.2-35.68c0.03-0.14,0.17-0.25,0.31-0.22c0.14,0.03,0.25,0.17,0.22,0.31
					c-1.78,10.4-8.46,28.69-16.36,35.98C387.17,268.85,387.1,268.87,387.03,268.87L387.03,268.87z"/>
				<path class="st4" d="M385.55,268.87c-0.04,0-0.07-0.01-0.11-0.03c-0.13-0.06-0.19-0.22-0.13-0.35
					c0.09-0.2,9.19-19.89,11.62-35.76c0.02-0.14,0.16-0.25,0.3-0.22c0.14,0.02,0.25,0.16,0.22,0.3
					c-2.45,15.94-11.57,35.71-11.66,35.9C385.75,268.81,385.66,268.87,385.55,268.87L385.55,268.87z"/>
				<path class="st4" d="M383.81,268.23c-0.04,0-0.09-0.01-0.12-0.03c-0.13-0.07-0.18-0.23-0.11-0.36
					c2.36-4.47,5.98-25.45,6.74-35.09c0.01-0.15,0.16-0.26,0.29-0.25c0.15,0.01,0.26,0.14,0.25,0.29c-0.77,9.68-4.41,30.78-6.8,35.3
					C384,268.18,383.91,268.23,383.81,268.23L383.81,268.23z"/>
				<path class="st4" d="M389.2,292.37c0,0-0.02,0-0.03,0c-0.14-0.02-0.25-0.15-0.23-0.3c1.26-10.17-1.34-21.3-1.37-21.41
					c-0.03-0.14,0.05-0.29,0.2-0.32c0.14-0.04,0.29,0.05,0.32,0.2c0.03,0.11,2.65,11.34,1.38,21.6
					C389.45,292.27,389.33,292.38,389.2,292.37L389.2,292.37z"/>
				<path class="st4" d="M386.09,292.37c0,0-0.01,0-0.02,0c-0.15-0.01-0.26-0.13-0.25-0.28c0.01-0.13,0.83-13.71,0-21.5
					c-0.02-0.14,0.09-0.28,0.24-0.29c0.14-0.02,0.28,0.09,0.29,0.24c0.83,7.83,0.01,21.46,0,21.59
					C386.34,292.26,386.22,292.37,386.09,292.37L386.09,292.37z"/>
			</g>
			<g id="character">
				<path class="st3" d="M347.82,366.57h2.48v54.48c0,0.66-0.53,1.19-1.19,1.19H349c-0.66,0-1.19-0.53-1.19-1.19V366.57
					L347.82,366.57z"/>
				<path class="st4" d="M349.11,422.5H349c-0.8,0-1.46-0.65-1.46-1.46v-54.48c0-0.15,0.12-0.27,0.27-0.27h2.48
					c0.15,0,0.27,0.12,0.27,0.27v54.48C350.57,421.85,349.91,422.5,349.11,422.5z M348.08,366.84v54.21c0,0.51,0.41,0.92,0.92,0.92
					h0.11c0.51,0,0.92-0.41,0.92-0.92v-54.21H348.08z"/>
				<path class="st3" d="M325.26,357.42h2.48v54.48c0,0.66-0.53,1.19-1.19,1.19h-0.11c-0.66,0-1.19-0.53-1.19-1.19V357.42
					L325.26,357.42z"/>
				<path class="st4" d="M326.55,413.35h-0.11c-0.8,0-1.46-0.65-1.46-1.46v-54.48c0-0.15,0.12-0.27,0.27-0.27h2.48
					c0.15,0,0.27,0.12,0.27,0.27v54.48C328.01,412.7,327.36,413.35,326.55,413.35z M325.53,357.69v54.21c0,0.51,0.41,0.92,0.92,0.92
					h0.11c0.51,0,0.92-0.41,0.92-0.92v-54.21H325.53z"/>
				<path class="st3" d="M379.68,358.02h2.48v54.48c0,0.66-0.53,1.19-1.19,1.19h-0.11c-0.66,0-1.19-0.53-1.19-1.19V358.02
					L379.68,358.02z"/>
				<path class="st4" d="M380.98,413.95h-0.11c-0.8,0-1.46-0.65-1.46-1.46v-54.48c0-0.15,0.12-0.27,0.27-0.27h2.48
					c0.15,0,0.27,0.12,0.27,0.27v54.48C382.43,413.3,381.78,413.95,380.98,413.95z M379.95,358.29v54.21c0,0.51,0.41,0.92,0.92,0.92
					h0.11c0.51,0,0.92-0.41,0.92-0.92v-54.21H379.95z"/>
				<path class="st3" d="M357.12,348.86h2.48v54.48c0,0.66-0.53,1.19-1.19,1.19h-0.11c-0.66,0-1.19-0.53-1.19-1.19V348.86
					L357.12,348.86z"/>
				<path class="st4" d="M358.42,404.79h-0.11c-0.8,0-1.46-0.65-1.46-1.46v-54.48c0-0.15,0.12-0.27,0.27-0.27h2.48
					c0.15,0,0.27,0.12,0.27,0.27v54.48C359.87,404.14,359.22,404.79,358.42,404.79z M357.38,349.13v54.21
					c0,0.51,0.41,0.92,0.92,0.92h0.11c0.51,0,0.92-0.41,0.92-0.92v-54.21H357.38z"/>
				<path class="st3" d="M347.4,289.88c-1.68-4.75-25.13-3.15-28.34,9.88c-3.21,13.03-9.22,53.72,3.61,64.74
					c12.83,11.02,44.18,1.61,44.18,1.61L347.4,289.88L347.4,289.88z"/>
				<path class="st4" d="M341.93,370.07c-7.34,0-14.67-1.29-19.43-5.38c-7-6.01-8.17-20.63-7.91-31.83
					c0.32-13.96,2.8-27.42,4.22-33.18c1.97-8,11.75-12.08,20.01-12.49c4.72-0.24,8.2,0.78,8.84,2.59c0,0.01,0,0.02,0.01,0.02
					l19.46,76.22c0.04,0.14-0.04,0.28-0.18,0.32C366.74,366.41,354.32,370.07,341.93,370.07L341.93,370.07z M340.13,287.7
					c-0.42,0-0.86,0.01-1.3,0.03c-8.06,0.4-17.61,4.36-19.51,12.09c-3.91,15.89-8.45,54.18,3.52,64.47
					c3.62,3.11,11.18,6.47,26.69,4.87c8.39-0.87,15.59-2.85,16.99-3.25l-19.39-75.96C346.63,288.56,343.88,287.7,340.13,287.7
					L340.13,287.7z"/>
				<path class="st6" d="M385.37,301.13c1.63-1.06,3.34,0.39,5.3,4.15c1.96,3.76,4.08,13.06,3.34,18.44
					c-0.73,5.38-7.5,6.52-11.58,3.18v9.86c0,0-29.3,8.58-36.07,9.93c-6.77,1.35-9.57-1.5-9.57-1.5s-1.82,0.37-2.05-0.64
					c-0.22-1.01-0.45-6.43-0.45-6.43s-7.56,2.26-8.91-6.89c-1.35-9.14,9.71-34.87,12.64-38.59c2.93-3.72,11.09-5.82,17.11-7.08
					s14.26-0.48,18.32,2.34C377.51,290.72,385.37,301.13,385.37,301.13L385.37,301.13z"/>
				<path class="st3" d="M374.44,296.96c0,0-0.99-2.84,0-6.59c0.99-3.75,5.57-7.57,5.57-7.57v10.61L374.44,296.96L374.44,296.96z"/>
				<path class="st4" d="M374.44,297.22c-0.03,0-0.06,0-0.09-0.02c-0.07-0.03-0.14-0.09-0.17-0.17c-0.04-0.12-1.01-2.95-0.01-6.74
					s5.47-7.55,5.66-7.71c0.08-0.06,0.19-0.08,0.28-0.04c0.1,0.04,0.16,0.14,0.16,0.24v10.61c0,0.09-0.05,0.18-0.12,0.22l-5.57,3.56
					C374.54,297.21,374.48,297.22,374.44,297.22L374.44,297.22z M379.74,283.39c-1.16,1.06-4.26,4.1-5.05,7.05
					c-0.77,2.9-0.32,5.26-0.1,6.1l5.14-3.29L379.74,283.39L379.74,283.39z"/>
				<path class="st3" d="M374.44,296.96c0,0,1.68-5.64,3.62-8.75c1.94-3.1,3.64-4.11,3.64-4.11l-0.74,9.95L374.44,296.96
					L374.44,296.96z"/>
				<path class="st4" d="M374.44,297.22c-0.06,0-0.13-0.02-0.18-0.06c-0.08-0.07-0.11-0.18-0.08-0.28c0.07-0.23,1.71-5.72,3.65-8.81
					c1.96-3.12,3.66-4.16,3.73-4.2c0.09-0.05,0.19-0.05,0.28,0c0.09,0.05,0.13,0.15,0.13,0.25l-0.74,9.95
					c-0.01,0.1-0.07,0.18-0.16,0.22l-6.52,2.92c-0.04,0.02-0.07,0.02-0.11,0.02H374.44z M381.39,284.65
					c-0.62,0.5-1.81,1.63-3.1,3.69c-1.55,2.47-2.94,6.62-3.42,8.12l5.84-2.61L381.39,284.65L381.39,284.65z"/>
				<path class="st3" d="M343.42,273.48c0,0-4.56,2.58-8.45-0.63c-3.88-3.2-4.94-13.02,3.42-18.58c8.36-5.55,12.72,2.83,11.22,6.53
					C348.11,264.52,343.42,273.48,343.42,273.48L343.42,273.48z"/>
				<path class="st4" d="M339.43,274.72c-1.44,0-3.09-0.39-4.63-1.65c-2-1.65-3.18-4.88-3.01-8.23c0.13-2.51,1.14-7.25,6.45-10.78
					c4.75-3.15,7.84-1.68,9.26-0.52c2.41,1.96,3.16,5.4,2.36,7.38c-1.49,3.68-6.16,12.6-6.2,12.69c-0.02,0.05-0.06,0.09-0.11,0.11
					C343.53,273.74,341.73,274.73,339.43,274.72L339.43,274.72z M343.62,252.71c-1.37,0-3.06,0.46-5.08,1.8
					c-5.12,3.4-6.09,7.95-6.21,10.36c-0.17,3.19,0.94,6.24,2.81,7.79c3.45,2.84,7.51,0.93,8.08,0.63c0.45-0.87,4.73-9.09,6.14-12.57
					c0.72-1.77-0.02-4.98-2.2-6.76C346.45,253.37,345.27,252.71,343.62,252.71L343.62,252.71z M343.42,273.48L343.42,273.48
					L343.42,273.48z"/>
				<path class="st3" d="M345.32,277.99c-2.66-1.93-4.44-7.95-0.51-14.48c3.92-6.54,13.62-6.92,13.62-6.92
					c1.78-2.37,6.06-2.89,9.09,1.84c3.03,4.73,1.97,9.59,1.97,9.59L345.32,277.99L345.32,277.99z"/>
				<path class="st4" d="M345.32,278.26c-0.05,0-0.11-0.02-0.16-0.05c-2.67-1.93-4.7-7.98-0.59-14.84
					c3.71-6.18,12.55-6.97,13.71-7.05c0.93-1.17,2.4-1.83,3.93-1.77c2.07,0.08,4.03,1.4,5.52,3.72c3.06,4.77,2.05,9.59,2.01,9.8
					c-0.02,0.09-0.08,0.16-0.16,0.19l-24.17,9.98C345.38,278.26,345.34,278.27,345.32,278.26L345.32,278.26z M362.03,255.08
					c-1.35,0-2.61,0.61-3.39,1.66c-0.05,0.06-0.12,0.1-0.2,0.11c-0.1,0-9.6,0.46-13.4,6.8c-2.4,4-3.6,11.05,0.32,14.05l23.9-9.86
					c0.13-0.81,0.7-5.12-1.96-9.26c-1.39-2.17-3.2-3.41-5.09-3.48C362.15,255.09,362.1,255.09,362.03,255.08L362.03,255.08z"/>
				<path class="st3" d="M351.69,278.06c-0.07,2.7-0.25,6.34-0.37,8.76c-0.13,2.52,1.66,4.74,4.15,5.14c0.34,0.05,0.71,0.1,1.1,0.12
					c4.37,0.27,4.42-3.46,4.39-4.23s-0.71-3.24-0.83-4.07C360,282.95,351.69,278.06,351.69,278.06L351.69,278.06z"/>
				<path class="st4" d="M357,292.35c-0.14,0-0.3,0-0.45-0.02c-0.38-0.02-0.76-0.06-1.12-0.12c-2.63-0.42-4.52-2.75-4.38-5.41
					c0.13-2.51,0.3-6.08,0.37-8.75c0-0.1,0.05-0.18,0.14-0.22c0.09-0.04,0.18-0.04,0.27,0c2.53,1.49,8.44,5.05,8.57,5.91
					c0.05,0.33,0.19,0.93,0.34,1.57c0.24,1.01,0.48,2.04,0.5,2.53c0.02,0.66-0.04,2.32-1.2,3.45
					C359.31,292,358.29,292.35,357,292.35L357,292.35z M351.94,278.52c-0.08,2.62-0.24,5.93-0.36,8.31
					c-0.12,2.39,1.57,4.48,3.93,4.86c0.35,0.05,0.71,0.1,1.07,0.12c1.34,0.09,2.38-0.22,3.07-0.9c1.03-1.01,1.05-2.59,1.04-3.05
					c-0.02-0.43-0.26-1.49-0.48-2.43c-0.15-0.65-0.29-1.26-0.35-1.61C359.66,283.32,355.74,280.78,351.94,278.52L351.94,278.52z"/>
				<path class="st3" d="M367,263.53c0,0,6.86,10.03,3.62,15.79c-3.24,5.76-14.78,8.05-20.12,1.57c0,0-1.57,3.21-4.24,1.01
					c-2.68-2.2-1.01-5.82,2.46-5.29c0,0,0.33-3.33,5.4-6.78c5.07-3.45,6.99-7.79,6.99-7.79S362.65,263.7,367,263.53L367,263.53z"/>
				<path class="st4" d="M359.51,285.07c-3.63,0-6.82-1.32-8.96-3.72c-0.31,0.48-0.98,1.32-1.97,1.54c-0.8,0.18-1.64-0.09-2.48-0.78
					c-1.3-1.07-1.76-2.62-1.16-3.95c0.58-1.29,1.97-2.01,3.57-1.85c0.19-0.88,1.12-3.75,5.47-6.7c4.95-3.37,6.88-7.64,6.9-7.68
					c0.04-0.08,0.11-0.14,0.2-0.16c0.09-0.02,0.18,0.02,0.24,0.08c0.02,0.02,1.54,1.57,5.68,1.41c0.11,0,0.18,0.04,0.23,0.12
					c0.02,0.03,1.74,2.57,3.05,5.79c1.77,4.36,1.96,7.82,0.58,10.28c-1.68,2.99-5.6,5.17-9.98,5.56
					C360.41,285.06,359.95,285.07,359.51,285.07L359.51,285.07z M350.51,280.62c0.08,0,0.16,0.04,0.21,0.1
					c2.27,2.76,5.96,4.13,10.11,3.76c4.21-0.37,7.97-2.45,9.57-5.29c2.93-5.21-2.77-14.23-3.53-15.39c-3.35,0.1-5.04-0.87-5.66-1.33
					c-0.55,1.08-2.59,4.63-6.93,7.58c-4.89,3.32-5.28,6.55-5.28,6.59c-0.01,0.07-0.04,0.14-0.1,0.18c-0.06,0.04-0.13,0.06-0.2,0.05
					c-1.48-0.22-2.76,0.36-3.26,1.5c-0.39,0.88-0.33,2.21,1.02,3.32c0.71,0.58,1.39,0.8,2.02,0.67c1.13-0.25,1.8-1.58,1.81-1.59
					c0.04-0.08,0.12-0.14,0.21-0.15c0.01,0,0.02,0,0.03,0L350.51,280.62z"/>
				<path class="st4" d="M358.4,271.59c-1.31,0.25-2.5,0.7-3.75,1.21c-0.14,0.05-0.3-0.02-0.35-0.16c-0.04-0.1-0.02-0.21,0.05-0.28
					c0.25-0.27,0.54-0.52,0.86-0.7c0.96-0.57,2.12-0.85,3.23-0.6C358.73,271.12,358.69,271.57,358.4,271.59L358.4,271.59
					L358.4,271.59z"/>
				<path class="st4" d="M367.29,268.04c-1.39,0.55-2.73,1.28-4.1,1.88c-0.26,0.12-0.51-0.25-0.3-0.44c1.15-1.12,2.7-1.88,4.32-1.97
					C367.51,267.5,367.58,267.96,367.29,268.04L367.29,268.04L367.29,268.04z"/>
				<path class="st4" d="M365.15,276.17c-0.71,0-1.49-0.4-1.73-1.18c-0.04-0.14,0.03-0.29,0.18-0.34c0.14-0.04,0.29,0.03,0.34,0.18
					c0.2,0.64,0.94,0.9,1.5,0.78c0.23-0.05,0.76-0.26,0.65-1.01c-0.04-0.25-0.14-0.43-0.32-0.55c-0.45-0.29-1.29-0.12-1.57-0.04
					c-0.13,0.04-0.28-0.03-0.33-0.16c-0.03-0.07-0.69-1.78-1.09-4.11c-0.03-0.14,0.07-0.28,0.22-0.31c0.14-0.03,0.28,0.07,0.31,0.22
					c0.3,1.8,0.79,3.26,0.97,3.79c0.4-0.09,1.21-0.19,1.77,0.16c0.32,0.2,0.51,0.51,0.57,0.92c0.12,0.8-0.3,1.43-1.06,1.6
					c-0.13,0.03-0.26,0.04-0.4,0.04V276.17z"/>
				<path class="st4" d="M357.04,274.78c0.29,0.65,0.89,1,1.34,0.8c0.45-0.2,0.57-0.89,0.27-1.53c-0.09-0.19-0.21-0.36-0.34-0.5
					l-0.58,0.77l-0.07-1.11c-0.12-0.02-0.24,0-0.35,0.05C356.87,273.46,356.75,274.14,357.04,274.78L357.04,274.78z"/>
				<path class="st4" d="M364.5,271.74c0.26,0.58,0.8,0.89,1.2,0.71c0.4-0.18,0.51-0.79,0.25-1.37c-0.08-0.17-0.19-0.32-0.3-0.44
					l-0.51,0.68l-0.06-0.99c-0.11-0.02-0.21,0-0.31,0.04c-0.4,0.18-0.51,0.79-0.25,1.36H364.5z"/>
				<path class="st4" d="M363.34,279.82c-0.65,0-1.29-0.35-1.77-0.98c-0.09-0.12-0.06-0.28,0.05-0.37c0.12-0.09,0.28-0.06,0.37,0.05
					c0.4,0.52,0.93,0.8,1.43,0.77c0.59-0.04,1.17-0.5,1.6-1.29c0.07-0.13,0.24-0.18,0.36-0.11c0.13,0.07,0.18,0.24,0.11,0.36
					c-0.52,0.95-1.25,1.51-2.03,1.57C363.44,279.82,363.39,279.82,363.34,279.82L363.34,279.82z"/>
				<path class="st4" d="M346.27,280.17L346.27,280.17c-0.15,0-0.27-0.12-0.27-0.27c0-0.63,0.2-1.13,0.59-1.49
					c0.74-0.67,1.87-0.57,1.92-0.56c0.14,0.02,0.26,0.14,0.24,0.29c-0.02,0.15-0.16,0.25-0.29,0.24c-0.01,0-0.95-0.08-1.51,0.43
					c-0.28,0.25-0.42,0.62-0.42,1.09C346.54,280.05,346.42,280.17,346.27,280.17L346.27,280.17z"/>
				<path class="st4" d="M348.42,281.3c-0.44,0-0.85-0.19-1.18-0.55c-0.59-0.63-0.83-1.67-0.77-2.14c0.02-0.14,0.16-0.25,0.3-0.24
					s0.25,0.15,0.24,0.3c-0.04,0.32,0.14,1.19,0.63,1.71c0.24,0.26,0.52,0.38,0.83,0.37c0.17-0.03,0.27,0.11,0.28,0.26
					c0.01,0.15-0.11,0.27-0.26,0.28C348.47,281.3,348.44,281.3,348.42,281.3L348.42,281.3z"/>
				<path class="st4" d="M358.51,278.85c-0.53,0-1.06-0.09-1.57-0.27c-1.81-0.64-3.1-2.32-3.53-4.6c-0.03-0.13,0.05-0.26,0.17-0.3
					l7.26-2.62c0.12-0.04,0.27,0.01,0.33,0.13c0.1,0.19,2.41,4.74,0.12,6.69C360.54,278.52,359.53,278.86,358.51,278.85
					L358.51,278.85z M353.98,274.11c0.58,2.69,2.2,3.64,3.14,3.97c1.34,0.47,2.84,0.24,3.83-0.6c1.72-1.46,0.27-4.93-0.14-5.82
					L353.98,274.11L353.98,274.11z"/>
				<path class="st4" d="M367.39,274.98c-0.65,0-1.09-0.14-1.12-0.16c-0.14-0.05-0.21-0.2-0.17-0.34c0.05-0.14,0.2-0.21,0.34-0.17
					c0.08,0.03,1.97,0.65,3.88-1.09c1.63-1.48,0.13-4.37-0.3-5.12l-6.76,2.48c-0.14,0.05-0.29-0.02-0.34-0.16
					c-0.05-0.14,0.02-0.29,0.16-0.34l6.97-2.55c0.12-0.04,0.25,0,0.32,0.11c0.1,0.16,2.53,3.99,0.33,5.99
					c-1.21,1.11-2.44,1.36-3.29,1.36L367.39,274.98z"/>
				<path class="st4" d="M361.54,273.07c-0.09,0-0.17-0.04-0.22-0.11c-0.09-0.12-0.05-0.29,0.07-0.37c0.06-0.04,1.4-0.96,2.71-0.9
					c0.15,0.01,0.26,0.13,0.26,0.28c-0.01,0.15-0.11,0.27-0.28,0.26c-1.13-0.04-2.37,0.8-2.38,0.8
					C361.65,273.05,361.59,273.07,361.54,273.07z"/>
				<path class="st4" d="M348.73,276.87c-0.1,0-0.19-0.05-0.24-0.14c-0.07-0.13-0.02-0.29,0.11-0.36l4.94-2.66
					c0.13-0.07,0.29-0.02,0.36,0.11c0.07,0.13,0.02,0.29-0.11,0.36l-4.94,2.66C348.81,276.86,348.77,276.87,348.73,276.87
					L348.73,276.87z"/>
				<path class="st3" d="M374.44,296.96c0,0-1.81-2.16-8.02-3.29s-9.75-1.69-9.75-1.69l-0.48,12.14L374.44,296.96L374.44,296.96z"/>
				<path class="st4" d="M356.17,304.38c-0.05,0-0.11-0.02-0.16-0.05c-0.07-0.05-0.12-0.14-0.11-0.23l0.48-12.14
					c0-0.07,0.04-0.15,0.1-0.2c0.06-0.05,0.14-0.07,0.21-0.06c0.04,0.01,3.62,0.58,9.77,1.7c6.23,1.13,8.1,3.29,8.18,3.38
					c0.05,0.06,0.07,0.16,0.05,0.24c-0.02,0.09-0.08,0.15-0.16,0.18l-18.26,7.16C356.24,304.37,356.21,304.38,356.17,304.38
					L356.17,304.38z M356.91,292.29l-0.45,11.43l17.49-6.85c-0.71-0.6-2.86-2.07-7.58-2.93
					C361.23,293.01,357.89,292.45,356.91,292.29L356.91,292.29z"/>
				<path class="st3" d="M374.44,296.96c0,0-12.46-2.86-19.31-2.92v5.71L374.44,296.96z"/>
				<path class="st4" d="M355.13,300.02c-0.06,0-0.13-0.02-0.18-0.06c-0.06-0.05-0.09-0.12-0.09-0.2v-5.71
					c0-0.07,0.03-0.14,0.08-0.19c0.05-0.05,0.12-0.08,0.19-0.08l0,0c6.8,0.05,19.24,2.89,19.37,2.92c0.12,0.03,0.21,0.14,0.21,0.27
					c-0.01,0.13-0.1,0.24-0.23,0.25l-19.31,2.8C355.16,300.02,355.14,300.02,355.13,300.02L355.13,300.02z M355.39,294.31v5.14
					l17.55-2.55C369.53,296.17,360.8,294.41,355.39,294.31L355.39,294.31z"/>
				<polygon class="st6" points="353.72,304.26 354.32,296.49 374.44,296.96 372.64,322.67 352.69,321.01 				"/>
				<path class="st4" d="M372.64,322.94c0,0-0.02,0-0.02,0l-19.96-1.66c-0.14-0.01-0.25-0.14-0.25-0.28l1.04-16.75l0,0l0.59-7.77
					c0.01-0.14,0.12-0.25,0.27-0.25l20.12,0.47c0.07,0,0.14,0.03,0.19,0.09c0.05,0.05,0.07,0.13,0.07,0.2l-1.79,25.72
					c0,0.07-0.04,0.14-0.09,0.18C372.77,322.91,372.71,322.93,372.64,322.94L372.64,322.94z M352.97,320.77l19.43,1.62l1.76-25.16
					l-19.58-0.45l-0.57,7.51L352.97,320.77L352.97,320.77z"/>
				<path class="st3" d="M386.82,363.86l-10.23,42.67c-0.28,1.16-1.24,2.03-2.42,2.17c-2.94,0.35-8.72,0.59-14.24-1.82
					c-1.19-0.52-1.88-1.78-1.67-3.07l6.24-39.95l14.65-8.59h7.19L386.82,363.86L386.82,363.86z"/>
				<path class="st4" d="M370.45,409.19c-3.03,0-6.88-0.43-10.62-2.07c-1.3-0.57-2.05-1.94-1.84-3.35l6.24-39.95
					c0.01-0.08,0.06-0.15,0.13-0.19l14.65-8.59c0.04-0.02,0.09-0.04,0.13-0.04h7.19c0.14,0,0.26,0.11,0.27,0.25l0.48,8.59
					c0,0,0,0.05-0.01,0.07l-10.23,42.67c-0.3,1.27-1.37,2.22-2.65,2.38C373.22,409.08,371.93,409.18,370.45,409.19L370.45,409.19z
					 M364.75,364.03l-6.22,39.83c-0.18,1.17,0.44,2.31,1.52,2.78c5.46,2.38,11.17,2.15,14.1,1.8c1.06-0.13,1.95-0.92,2.2-1.97
					l10.21-42.63l-0.46-8.3h-6.86L364.75,364.03L364.75,364.03z"/>
				<path class="st6" d="M400.28,390.99l4.8,11.84c0.34,0.83,1.28,1.23,2.11,0.9l21.91-8.72c0.91-0.36,1.3-1.46,0.81-2.32
					l-0.27-0.48c0,0-5.35-9.8-16.49-6.14C413.15,386.07,408.37,389.71,400.28,390.99z"/>
				<path class="st4" d="M404.96,402.03c-0.11,0-0.21-0.06-0.25-0.17c-0.05-0.14,0.01-0.29,0.15-0.35l24.29-9.66
					c0.13-0.05,0.29,0.01,0.35,0.15c0.05,0.14-0.01,0.29-0.15,0.35l-24.29,9.66C405.03,402.02,404.99,402.03,404.96,402.03
					L404.96,402.03z"/>
				<path class="st4" d="M410.82,399.7c-0.1,0-0.19-0.05-0.24-0.15c-0.1-0.2-2.45-4.85-8.04-2.94c-0.14,0.04-0.29-0.03-0.34-0.17
					c-0.05-0.14,0.03-0.29,0.17-0.34c6.05-2.05,8.66,3.16,8.69,3.22c0.06,0.13,0.01,0.29-0.12,0.36
					C410.9,399.69,410.86,399.71,410.82,399.7L410.82,399.7z"/>
				<path class="st4" d="M417.11,389.88c-0.04,0-0.09-0.01-0.12-0.03c-0.13-0.07-0.18-0.23-0.12-0.36l3.3-6.41
					c0.07-0.13,0.23-0.18,0.36-0.12c0.13,0.07,0.18,0.23,0.12,0.36l-3.3,6.41C417.3,389.82,417.2,389.87,417.11,389.88
					L417.11,389.88z"/>
				<path class="st4" d="M414.24,389.92c-0.04,0-0.09-0.01-0.12-0.03c-0.13-0.07-0.18-0.23-0.12-0.36l3.3-6.41
					c0.06-0.13,0.23-0.18,0.36-0.12c0.13,0.07,0.18,0.23,0.12,0.36l-3.3,6.41C414.42,389.86,414.33,389.91,414.24,389.92
					L414.24,389.92z"/>
				<path class="st6" d="M357.53,409.68l-1.39,12.83c-0.1,0.9,0.55,1.71,1.44,1.81l23.65,2.74c0.99,0.11,1.85-0.67,1.83-1.67
					l-0.01-0.56c0,0-0.06-11.27-11.72-13.36c0,0-5.99,0.94-13.79-1.79L357.53,409.68z"/>
				<path class="st4" d="M382.75,424.81c0,0-0.02,0-0.03,0l-26.22-3.04c-0.14-0.02-0.25-0.15-0.24-0.29
					c0.02-0.15,0.16-0.25,0.29-0.24l26.22,3.04c0.14,0.02,0.25,0.15,0.24,0.29C383,424.71,382.88,424.81,382.75,424.81
					L382.75,424.81z"/>
				<path class="st4" d="M362.86,422.5c0,0-0.01,0-0.01,0c-0.15-0.01-0.26-0.13-0.26-0.28c0.01-0.22,0.15-5.48-5.74-6.46
					c-0.14-0.03-0.25-0.16-0.22-0.31s0.16-0.25,0.31-0.22c6.36,1.06,6.19,6.96,6.18,7.01C363.12,422.39,363,422.5,362.86,422.5
					L362.86,422.5z"/>
				<path class="st4" d="M373.16,416.79c-0.09,0-0.17-0.04-0.22-0.12c-0.09-0.12-0.05-0.29,0.07-0.37l6-4.12
					c0.12-0.09,0.29-0.05,0.37,0.07c0.09,0.12,0.05,0.29-0.07,0.37l-6,4.12C373.26,416.77,373.21,416.79,373.16,416.79
					L373.16,416.79z"/>
				<path class="st4" d="M370.58,415.45c-0.09,0-0.17-0.04-0.22-0.12c-0.09-0.12-0.05-0.29,0.07-0.37l6-4.12
					c0.12-0.09,0.29-0.05,0.37,0.07s0.05,0.29-0.07,0.37l-6,4.12C370.69,415.43,370.64,415.45,370.58,415.45L370.58,415.45z"/>
				<path class="st3" d="M336.79,345.2v10.44c0,0,11.88,11.2,26.07,10.06c0,0,13.34-5.31,18.48-9.13l16.49,30.06
					c0.66,1.21,2.07,1.81,3.39,1.44c2.25-0.63,7.2-2.92,11.53-5.98c1.16-0.82,1.57-2.34,1-3.63c-3.73-8.43-18.8-37.93-26.08-43.37
					C379.19,328.77,347.87,345.28,336.79,345.2L336.79,345.2z"/>
				<path class="st4" d="M400.41,388.45c-1.16,0-2.25-0.63-2.83-1.69l-16.34-29.79c-5.27,3.78-18.15,8.93-18.29,8.98
					c-0.03,0.01-0.05,0.02-0.07,0.02c-14.14,1.15-26.16-10.02-26.28-10.13c-0.05-0.05-0.09-0.12-0.09-0.19V345.2
					c0-0.07,0.03-0.14,0.08-0.19c0.05-0.05,0.12-0.08,0.19-0.08c0.01,0,0.05,0,0.08,0c4.31,0,11.73-2.51,19.6-5.17
					c12.23-4.13,26.09-8.81,31.35-4.89c7.62,5.69,22.94,36.19,26.16,43.47c0.63,1.41,0.17,3.07-1.09,3.96
					c-4.48,3.17-9.49,5.43-11.61,6.02C400.99,388.42,400.7,388.45,400.41,388.45L400.41,388.45z M381.33,356.31
					c0,0,0.04,0,0.06,0.01c0.07,0.02,0.14,0.06,0.18,0.13l16.49,30.05c0.6,1.11,1.87,1.65,3.09,1.31c2.09-0.58,7.01-2.81,11.45-5.94
					c1.05-0.74,1.43-2.13,0.91-3.3c-3.8-8.59-18.86-37.94-26-43.26c-5.04-3.76-18.76,0.87-30.86,4.97
					c-7.79,2.63-15.16,5.13-19.58,5.2v10.06c1.09,0.98,12.47,10.96,25.74,9.92c0.79-0.32,13.46-5.43,18.37-9.08
					C381.22,356.34,381.27,356.32,381.33,356.31L381.33,356.31z"/>
				<path class="st4" d="M381.33,356.85c-0.09,0-0.18-0.04-0.22-0.12c-0.08-0.12-0.04-0.29,0.09-0.37c3.35-2.11,7.24-4.51,7.28-4.54
					c0.12-0.07,0.29-0.04,0.37,0.09c0.07,0.13,0.04,0.29-0.09,0.37c-0.04,0.02-3.93,2.42-7.28,4.53
					C381.44,356.83,381.39,356.85,381.33,356.85L381.33,356.85z"/>
				<path class="st3" d="M347.47,316.47c-0.18-0.52-0.02-1.1,0.37-1.49c2.04-2.1,2.58-6.23,3.35-7.92c0.85-1.85,2.53-2.79,2.53-2.79
					l-0.52,4.72c0,0,6.51-4.9,7.85-5.45c1.35-0.55,2.19,0.7,1.05,1.89c-1.15,1.2-5.38,4.34-5.38,4.34s5.33-2.3,6.78-2.15
					c1.44,0.15,0.55,2.04-2.04,3.14c-2.59,1.1-3.99,1.79-3.99,1.79s4.89-1.54,6.03-1.35c1.2,0.2,0.45,2.19-2.15,3.14l-3.24,1.05
					c0,0,3.09-0.2,4.14-0.35s0.25,2.24-2.84,2.69s-5.83,0.85-5.83,0.85l-0.42,0.78c-0.3,0.56-0.85,0.96-1.48,1.07
					c-0.01,0-0.02,0-0.03,0c-0.82,0.14-1.65-0.2-2.2-0.82C348.79,318.87,347.9,317.71,347.47,316.47L347.47,316.47z"/>
				<path class="st4" d="M351.28,320.73c-0.77,0-1.5-0.34-2.03-0.94c-0.68-0.77-1.59-1.95-2.03-3.24l0,0
					c-0.21-0.6-0.04-1.28,0.43-1.77c1.36-1.4,2.04-3.77,2.58-5.67c0.25-0.88,0.47-1.64,0.72-2.18c0.87-1.9,2.56-2.87,2.64-2.91
					c0.09-0.05,0.2-0.05,0.28,0.01c0.09,0.05,0.13,0.16,0.12,0.25l-0.45,4.1c1.56-1.16,6.27-4.64,7.42-5.11
					c0.72-0.29,1.41-0.16,1.76,0.35c0.28,0.42,0.34,1.18-0.42,1.97c-0.7,0.72-2.46,2.12-3.79,3.14c1.71-0.66,4.08-1.49,5.02-1.4
					c0.74,0.07,0.89,0.54,0.92,0.73c0.13,0.91-1.1,2.17-2.88,2.92c-0.29,0.12-0.57,0.24-0.82,0.35c1.16-0.28,2.3-0.5,2.81-0.41
					c0.44,0.07,0.74,0.37,0.78,0.79c0.08,0.86-0.9,2.15-2.87,2.87l-1.14,0.37c0.74-0.06,1.49-0.13,1.91-0.19
					c0.39-0.05,0.68,0.15,0.73,0.51c0.11,0.75-1,2.35-3.5,2.71l-5.7,0.83l-0.36,0.66c-0.35,0.64-0.95,1.08-1.66,1.2
					c-0.15,0.03-0.29,0.04-0.44,0.04L351.28,320.73z M347.73,316.38c0.41,1.2,1.27,2.33,1.93,3.06c0.5,0.57,1.26,0.85,1.95,0.73
					c0.58-0.1,1.05-0.44,1.32-0.94l0.42-0.78c0.04-0.07,0.11-0.12,0.2-0.14l5.83-0.85c2.3-0.33,3.1-1.72,3.04-2.11
					c-0.01-0.04-0.01-0.07-0.13-0.05c-1.04,0.15-4.03,0.34-4.16,0.35c-0.13,0.01-0.26-0.09-0.28-0.22s0.05-0.26,0.18-0.3l3.24-1.05
					c1.72-0.63,2.56-1.75,2.51-2.32c-0.01-0.11-0.05-0.26-0.33-0.3c-0.89-0.15-4.56,0.91-5.91,1.34c-0.13,0.04-0.28-0.03-0.33-0.16
					c-0.05-0.13,0-0.28,0.13-0.34c0.02-0.01,1.43-0.71,4-1.8c1.79-0.75,2.64-1.85,2.57-2.34c-0.02-0.16-0.17-0.25-0.44-0.28
					c-1.13-0.11-5.18,1.49-6.65,2.12c-0.12,0.05-0.27,0.01-0.34-0.11c-0.07-0.12-0.04-0.27,0.07-0.35c0.04-0.03,4.23-3.14,5.35-4.31
					c0.44-0.46,0.58-0.97,0.36-1.31c-0.2-0.29-0.63-0.35-1.11-0.16c-1.3,0.53-7.73,5.37-7.8,5.41c-0.09,0.06-0.2,0.07-0.29,0.02
					c-0.09-0.05-0.14-0.16-0.13-0.26l0.46-4.14c-0.54,0.41-1.42,1.2-1.95,2.35c-0.23,0.51-0.44,1.25-0.69,2.11
					c-0.56,1.96-1.26,4.39-2.71,5.89c-0.33,0.34-0.45,0.81-0.3,1.22l0,0L347.73,316.38z"/>
				<polygon class="st6" points="374.44,296.96 383.47,285.56 382.02,311.27 372.64,322.67 				"/>
				<path class="st4" d="M372.64,322.94c-0.03,0-0.06-0.01-0.1-0.02c-0.11-0.04-0.18-0.15-0.17-0.27l1.79-25.72
					c0-0.05,0.02-0.11,0.06-0.15l9.04-11.4c0.07-0.09,0.2-0.12,0.3-0.09c0.11,0.04,0.18,0.15,0.17,0.27l-1.45,25.72
					c0,0.06-0.03,0.11-0.06,0.16l-9.38,11.39c-0.05,0.06-0.13,0.1-0.21,0.1L372.64,322.94z M374.7,297.06l-1.73,24.8l8.79-10.68
					l1.4-24.78L374.7,297.06L374.7,297.06z"/>
				<path class="st3" d="M382.72,309.82h-0.62l0.09-1.56c0,0-0.83-0.29-1.61-0.26c-0.79,0.03-2.26,2.08-2.93,1.01
					c-0.64-1.03,3.08-3.59,3.29-3.73c-0.17,0.03-2.07,0.46-2.76,1.06c-0.72,0.63-2.26,1.38-1.92-0.6c0.35-1.98,4.69-3.33,4.69-3.33
					c-1.55-0.35-5,1.98-5.91,0.57c-0.69-1.08,1.81-2.54,4.01-3.1c-2.29,0.07-5.16-1.02-2.43-2.12c2.74-1.11,6.11,0.4,6.11,0.4
					l0.27-4.11c0,0,0.62,0.4,1.19,2.45c0.58,2.06,1.46,3.56,2.48,5.24c1.02,1.69-0.75,7.79-3.94,8.1L382.72,309.82z"/>
				<path class="st4" d="M382.72,310.09h-0.62c-0.07,0-0.14-0.03-0.19-0.09c-0.05-0.05-0.07-0.12-0.07-0.2l0.08-1.34
					c-0.28-0.08-0.81-0.21-1.32-0.18c-0.21,0.01-0.6,0.3-0.95,0.56c-0.55,0.41-1.13,0.84-1.65,0.74c-0.24-0.04-0.43-0.19-0.57-0.42
					c-0.52-0.85,0.89-2.22,2.17-3.22c-0.49,0.17-0.97,0.38-1.24,0.61c-0.46,0.4-1.39,0.98-1.99,0.64c-0.38-0.21-0.5-0.72-0.37-1.49
					c0.19-1.09,1.42-1.97,2.6-2.6c-0.05,0.02-0.1,0.03-0.14,0.05c-1.47,0.48-3,0.97-3.64-0.03c-0.18-0.28-0.21-0.6-0.08-0.94
					c0.32-0.8,1.56-1.59,2.9-2.13c-1.15-0.17-2.25-0.58-2.39-1.24c-0.1-0.49,0.32-0.93,1.26-1.31c2.32-0.94,5.01-0.1,5.96,0.26
					l0.25-3.75c0.01-0.1,0.06-0.18,0.14-0.22c0.09-0.04,0.18-0.04,0.27,0.02c0.07,0.05,0.72,0.51,1.3,2.61
					c0.55,1.96,1.36,3.38,2.45,5.17c0.63,1.04,0.31,3.52-0.71,5.54c-0.89,1.78-2.11,2.83-3.44,2.95c-0.01,0-0.02,0-0.03,0H382.72z
					 M382.39,309.56h0.32c1.52-0.16,2.53-1.73,3-2.66c0.93-1.85,1.26-4.15,0.73-5.02c-1.11-1.83-1.94-3.28-2.51-5.31
					c-0.25-0.9-0.51-1.47-0.71-1.81l-0.22,3.42c-0.01,0.09-0.05,0.17-0.13,0.21c-0.07,0.04-0.17,0.05-0.25,0.02
					c-0.03-0.02-3.29-1.44-5.9-0.39c-0.74,0.3-0.97,0.57-0.94,0.71c0.09,0.4,1.57,0.96,3.26,0.9c0.13-0.01,0.25,0.1,0.27,0.23
					c0.02,0.13-0.06,0.26-0.2,0.29c-1.84,0.47-3.57,1.48-3.87,2.25c-0.07,0.17-0.06,0.32,0.03,0.45c0.42,0.66,1.74,0.22,3.03-0.19
					c1.03-0.34,2.01-0.65,2.72-0.49c0.12,0.03,0.2,0.13,0.21,0.25c0,0.12-0.07,0.23-0.19,0.27c-1.17,0.36-4.24,1.63-4.51,3.12
					c-0.09,0.5-0.05,0.85,0.11,0.93c0.23,0.13,0.86-0.13,1.38-0.58c0.79-0.68,2.86-1.12,2.88-1.12c0.13-0.02,0.25,0.04,0.3,0.16
					c0.05,0.12,0.01,0.25-0.1,0.33c-1.83,1.25-3.54,2.86-3.21,3.38c0.09,0.14,0.17,0.17,0.22,0.18c0.29,0.05,0.81-0.33,1.23-0.64
					c0.44-0.33,0.87-0.65,1.25-0.67c0.82-0.03,1.67,0.26,1.71,0.27c0.11,0.04,0.19,0.15,0.18,0.27l-0.07,1.27L382.39,309.56z"/>
				<path class="st4" d="M379.1,300.15c-0.13,0-0.27-0.1-0.29-0.24s0.04-0.26,0.18-0.29c0.77-0.2,1.46-0.28,2-0.24
					c0.15,0.01,0.26,0.14,0.25,0.29c-0.01,0.15-0.14,0.26-0.29,0.25c-0.45-0.04-1.05,0.03-1.71,0.19
					C379.19,300.13,379.15,300.15,379.1,300.15L379.1,300.15z"/>
				<path class="st4" d="M380.95,305.55c-0.07,0-0.14-0.03-0.2-0.09c-0.1-0.11-0.09-0.28,0.02-0.38c0.05-0.04,0.12-0.07,0.19-0.07
					c0.15,0,0.27,0.12,0.27,0.27c0,0.11-0.06,0.2-0.16,0.25C381.03,305.54,380.99,305.55,380.95,305.55z"/>
				<path class="st4" d="M340.6,319.77c-0.05,0-0.1-0.01-0.14-0.04c-0.11-0.06-0.16-0.2-0.11-0.32c3.47-9.25,6.88-20.26,2.47-23.39
					c-0.12-0.09-0.15-0.25-0.06-0.37c0.09-0.12,0.25-0.15,0.37-0.06c4.5,3.18,1.56,13.59-1.8,22.72c1.84-1.94,5.75-5.73,7.54-4.79
					c0.13,0.07,0.18,0.23,0.11,0.36c-0.07,0.13-0.23,0.18-0.36,0.11c-1.41-0.74-5.54,3.09-7.82,5.68
					C340.75,319.73,340.68,319.77,340.6,319.77L340.6,319.77z"/>
				<path class="st4" d="M334.28,338.39c-0.12,0-0.23-0.08-0.26-0.2c-0.04-0.14,0.05-0.29,0.2-0.32
					c7.62-1.88,16.86-13.52,17.88-15.32c0.79-1.39,0.08-2.11,0.05-2.15c-0.11-0.1-0.11-0.27-0.01-0.38c0.1-0.11,0.27-0.11,0.37-0.01
					c0.04,0.04,1.05,1.02,0.05,2.79c-1.04,1.84-10.44,13.67-18.22,15.58C334.33,338.38,334.31,338.39,334.28,338.39L334.28,338.39z"
					/>
				<path class="st4" d="M382.43,327.17c-0.14,0-0.27-0.12-0.27-0.27c-0.07-8.44-0.72-13.14-0.73-13.19
					c-0.02-0.14,0.08-0.28,0.23-0.3c0.14-0.02,0.28,0.08,0.3,0.23c0.01,0.05,0.66,4.78,0.73,13.26
					C382.7,327.05,382.58,327.17,382.43,327.17L382.43,327.17z"/>
				<path class="st4" d="M336.79,355.91c-0.07,0-0.14-0.03-0.19-0.08c-5.14-5.34-7.89-16.41-7.91-16.51
					c-0.04-0.14,0.05-0.29,0.2-0.32c0.14-0.04,0.29,0.05,0.32,0.2c0.03,0.11,2.74,11.04,7.78,16.27c0.1,0.11,0.1,0.28-0.01,0.38
					c-0.05,0.05-0.12,0.07-0.19,0.07V355.91z"/>
			</g>
		</g>
		
			<rect x="50" y="50" style="clip-path:url(#SVGID_00000139291734418481231780000018406172346867651506_);fill:none;stroke:#DC3545;stroke-width:2;stroke-miterlimit:10;" width="600" height="485.22"/>
		<g style="clip-path:url(#SVGID_00000139291734418481231780000018406172346867651506_);">
			<path class="st8" d="M66.23,61.94c0.1,0,0.16,0.05,0.23,0.1c1.36,0.99,2.88,1.23,4.51,0.96c0.72-0.12,1.43-0.31,2.11-0.57
				c0.84-0.33,1.52-0.87,2.04-1.61c0.09-0.12,0.17-0.25,0.26-0.36c0.22-0.29,0.26-0.29,0.47-0.01c0.1,0.13,0.19,0.26,0.29,0.39
				c0.6,0.85,1.4,1.41,2.39,1.73c0.94,0.3,1.9,0.53,2.9,0.53c1.19,0,2.27-0.32,3.25-0.98c0.34-0.23,0.35-0.23,0.63,0.07
				c0.77,0.82,1.53,1.64,2.3,2.46c0.12,0.13,0.17,0.24-0.01,0.36c-0.73,0.47-1.15,1.17-1.43,1.96c-0.28,0.79-0.42,1.62-0.48,2.46
				c-0.18,2.4,0.22,4.74,0.72,7.07c0.17,0.77,0.36,1.53,0.57,2.28c0.39,1.44,0.38,2.86-0.22,4.25c-0.43,0.99-1.12,1.78-1.93,2.47
				c-1.25,1.06-2.7,1.79-4.19,2.44c-1.21,0.53-2.47,0.97-3.67,1.51c-0.41,0.19-0.81,0.38-1.14,0.69c-0.11,0.11-0.22,0.15-0.35,0.02
				c-0.51-0.5-1.16-0.73-1.8-0.99c-1.49-0.61-3-1.17-4.44-1.89c-1.35-0.67-2.63-1.46-3.64-2.61c-1.3-1.48-1.82-3.2-1.46-5.15
				c0.14-0.79,0.38-1.55,0.56-2.33c0.43-1.8,0.75-3.62,0.88-5.48c0.09-1.25,0.04-2.49-0.19-3.71c-0.14-0.73-0.38-1.44-0.8-2.07
				c-0.24-0.35-0.51-0.66-0.87-0.9c-0.26-0.17-0.26-0.19-0.04-0.43c0.29-0.32,0.6-0.62,0.89-0.95c0.46-0.53,0.95-1.03,1.44-1.54
				C66.05,62.04,66.12,61.96,66.23,61.94z"/>
			<g>
				<g>
					<path class="st2" d="M96.58,68.26v8.82c0,0.88,0.22,1.56,0.65,2.04c0.43,0.48,1.07,0.71,1.91,0.71c0.84,0,1.48-0.24,1.93-0.71
						c0.45-0.48,0.67-1.16,0.67-2.04v-8.82h3.59v8.8c0,1.32-0.28,2.43-0.84,3.34c-0.56,0.91-1.31,1.6-2.26,2.06
						c-0.94,0.46-2,0.69-3.16,0.69c-1.16,0-2.2-0.23-3.12-0.68c-0.92-0.45-1.64-1.14-2.17-2.06c-0.53-0.92-0.8-2.03-0.8-3.35v-8.8
						H96.58z"/>
					<path class="st2" d="M121.05,83h-3.59l-6.01-9.09V83h-3.59V68.26h3.59l6.01,9.14v-9.14h3.59V83z"/>
					<path class="st2" d="M127.24,68.26V83h-3.59V68.26H127.24z"/>
					<path class="st2" d="M139.63,72.92c-0.27-0.49-0.65-0.86-1.14-1.12c-0.5-0.26-1.08-0.39-1.75-0.39c-1.16,0-2.09,0.38-2.79,1.14
						c-0.7,0.76-1.05,1.78-1.05,3.06c0,1.36,0.37,2.42,1.1,3.18c0.73,0.76,1.75,1.14,3.03,1.14c0.88,0,1.63-0.22,2.24-0.67
						c0.61-0.45,1.05-1.09,1.33-1.93h-4.56v-2.65h7.81v3.34c-0.27,0.9-0.72,1.73-1.35,2.5c-0.64,0.77-1.45,1.39-2.43,1.87
						s-2.09,0.71-3.32,0.71c-1.46,0-2.75-0.32-3.9-0.96c-1.14-0.64-2.03-1.52-2.67-2.66c-0.64-1.13-0.96-2.43-0.96-3.89
						c0-1.46,0.32-2.75,0.96-3.9c0.64-1.14,1.52-2.03,2.66-2.67c1.13-0.64,2.43-0.96,3.88-0.96c1.76,0,3.25,0.43,4.46,1.28
						s2.01,2.04,2.4,3.55H139.63z"/>
					<path class="st2" d="M159.69,68.26L154.46,83h-4.49l-5.23-14.74h3.82l3.65,11.13l3.67-11.13H159.69z"/>
				</g>
			</g>
		</g>
	</g>
</g>
<g id="Capa_1">
</g>
</svg>
