<?xml version="1.0" encoding="utf-8"?>
<!-- Generator: Adobe Illustrator 27.2.0, SVG Export Plug-In . SVG Version: 6.00 Build 0)  -->
<svg version="1.1" id="Capa_1" xmlns="http://www.w3.org/2000/svg" xmlns:xlink="http://www.w3.org/1999/xlink" x="0px" y="0px"
	 viewBox="0 0 343.2 500" style="enable-background:new 0 0 343.2 500;" xml:space="preserve">
<style type="text/css">
	.st0{fill:#211914;}
	.st1{fill:#EECD00;}
	.st2{fill:#FFED00;}
	.st3{fill:#D20A11;}
	.st4{fill:#FFFFFF;}
	.st5{fill:#FFEC00;}
	.st6{fill:#DC2719;}
	.st7{fill:#94292D;}
	.st8{fill:#E4821E;}
	.st9{fill:#F6E944;}
	.st10{fill:#E3771A;}
	.st11{fill:#776928;}
	.st12{fill:#F7E235;}
	.st13{fill:#917C2C;}
	.st14{fill:#C52126;}
	.st15{fill:#AB1F23;}
</style>
<g>
	<path class="st0" d="M294.9,132c-1.6-1.9-4-3-6.6-3c-0.8,0-1.5,0.1-2.3,0.3c-3.9,0.9-6.8,4-8.5,6.4c-1.4-4.9-3.8-15-3.7-26.3
		c0.1-11.4,4-21.4,5.6-25.1c1.7,0.9,3.9,1.4,6.1,1.4h0c2.7,0,9.2-0.9,10.5-9c1-6-3-10.6-5.8-12.2c-1.7-1-3.6-1.4-6-1.4
		c-1.3,0-2.6,0.1-3.8,0.3c-1.1,0.1-2.2,0.2-3.3,0.2c-1.9,0-3.2-0.4-4.3-1.3c-1.5-1.2-2.2-3.4-3-6.2l0-0.1c-0.2-0.8-0.4-1.5-0.7-2.4
		c-1.7-5.2-6.4-10.5-11.5-10.5c-4.1,0-6.3,2.8-8.4,5.5c-2.6,3.2-5,6.3-10.5,6.6c-10.2,0.6-23.5-9.8-26.9-12.7l3.8-11l8.1-6.4v-9.7
		l-24.7-6.6L187,16.8V23l-1.8,0v-5.5l2.2-1.7V7.3h-31.1v8.5l2.2,1.7V23l-1.8,0v-6.2l-11.8-7.9l-24.7,6.6v9.7l8.1,6.4l3.8,11
		c-2.8,2.3-16.7,13.3-26.9,12.7c-5.6-0.3-8-3.4-10.5-6.6c-2.1-2.7-4.4-5.5-8.4-5.5c-5.1,0-9.8,5.3-11.5,10.5
		c-0.3,0.8-0.5,1.6-0.7,2.4l0,0c-0.8,2.8-1.4,4.9-3,6.2c-1.1,0.9-2.5,1.3-4.3,1.3c-1,0-2.1-0.1-3.3-0.2c-1.2-0.1-2.5-0.3-3.8-0.3
		c-2.3,0-4.2,0.5-6,1.4c-2.9,1.6-6.8,6.2-5.8,12.2c1.3,8.1,7.8,9,10.5,9h0c2.2,0,4.5-0.5,6.1-1.4c1.6,3.7,5.5,13.7,5.6,25.1
		c0.1,11.3-2.3,21.4-3.7,26.3c-1.7-2.4-4.6-5.5-8.5-6.4c-0.8-0.2-1.6-0.3-2.3-0.3c-2.6,0-5,1.1-6.6,3c-1.8,2.2-2.5,5.2-1.9,8.5
		c1.3,7.9,9.1,12,12.2,13.3c-0.2,3-0.5,11.2,2.2,18.1c1.5,3.9,3.8,6.2,5.1,7.2c-1.3,2.3-4.6,8.5-7,16.6c-2.8,9.7-4.9,24.3,1.2,38.7
		c7.6,18.1,31,37.5,40.7,41.5c1.8,0.8,3.5,1.5,5.1,2.1l0.2,0.1c6.8,2.8,13.2,5.5,23.8,10.3c12.6,5.7,19.6,19,19.7,19.2l0.8,1.5
		l5.4-4.6c0.6,1.6,1.7,3.8,4,5.1c1.8,1,3.1,1.4,4.2,1.8c1.3,0.4,2.3,0.7,3.9,1.9c1,0.7,2,3.2,2.4,4.2l1.3,3.9l1.3-3.9
		c0.3-1.1,1.4-3.5,2.3-4.2c1.6-1.2,2.6-1.5,3.9-1.9c1.1-0.4,2.4-0.8,4.2-1.8c2.2-1.3,3.4-3.4,4-5.1l5.4,4.6l0.8-1.5
		c0.1-0.1,7.1-13.4,19.7-19.2c10.6-4.8,17-7.5,23.8-10.3l0.3-0.1c1.6-0.7,3.3-1.4,5-2.1c9.7-4.1,33-23.4,40.6-41.5
		c6.1-14.5,4-29,1.2-38.7c-2.4-8.1-5.6-14.3-7-16.6c1.3-1.1,3.6-3.4,5.1-7.2c2.7-6.9,2.4-15.1,2.2-18.1c3-1.3,10.8-5.4,12.2-13.3
		C297.4,137.1,296.7,134.1,294.9,132L294.9,132z"/>
	<path class="st1" d="M280.6,171.1c-1.9,4.9-5.3,7-5.4,7l-0.6,0.3l0.4,0.6c0.2,0.3,17.5,28,6.3,54.6c-7.4,17.7-30.2,36.5-39.6,40.5
		c-1.9,0.8-3.6,1.5-5.3,2.2c-6.8,2.8-13.2,5.5-23.8,10.3c-11.5,5.3-18.6,16.4-20.2,19.3l-6.1-5.2l-0.2,1.2c0,0-0.6,4.1-3.5,5.8
		c-1.6,0.9-2.8,1.3-3.8,1.6c-1.3,0.4-2.6,0.8-4.5,2.2c-1,0.8-1.9,2.4-2.4,3.6c-0.5-1.2-1.4-2.8-2.5-3.6c-1.9-1.4-3.2-1.8-4.5-2.2
		c-1.1-0.3-2.2-0.7-3.8-1.6c-3-1.7-3.5-5.8-3.5-5.8l-0.1-1.2l-6.1,5.2c-1.7-2.9-8.7-14.1-20.2-19.3c-10.6-4.8-17-7.5-23.8-10.3
		c-1.7-0.7-3.5-1.4-5.3-2.2c-9.4-4-32.2-22.8-39.6-40.5c-11.2-26.7,6.1-54.3,6.3-54.6l0.4-0.6l-0.6-0.3c0,0-3.4-2.1-5.4-7
		c-2.7-7-2.2-15.8-2-17.7c5.9-2,10.1-7,12.8-15.3c2.5-7.8,3.7-18.3,3.5-32.2c-0.2-21-4.8-35.5-12.5-40.4c0.6,0,1.2,0.1,1.7,0.1
		c2.3,0,4.1-0.6,5.6-1.8c2-1.6,2.7-4.2,3.6-7.2c0.2-0.8,0.5-1.6,0.7-2.4c1.4-4.4,5.5-9.1,9.6-9.1c3.1,0,4.8,2.2,6.9,4.8
		c2.6,3.3,5.5,7,12,7.3c0.3,0,0.6,0,0.9,0c0,0,0,0,0,0c11.8,0,26.4-12.3,27.9-13.6c1.6-0.4,17.4-4.7,37.9-4.7
		c20.5,0,36.5,4.3,38.1,4.7c1.5,1.3,16.1,13.6,28,13.6c0.3,0,0.6,0,1,0c6.4-0.4,9.4-4.1,12-7.3c2-2.6,3.8-4.8,6.9-4.8
		c4.1,0,8.2,4.7,9.6,9.1c0.3,0.8,0.5,1.6,0.7,2.4c0.9,3,1.6,5.5,3.6,7.2c1.5,1.2,3.2,1.8,5.6,1.8c0.6,0,1.2,0,1.7-0.1
		c-7.7,4.9-12.2,19.4-12.5,40.4c-0.2,13.9,1,24.4,3.5,32.2c2.7,8.3,6.9,13.3,12.8,15.3C282.8,155.4,283.4,164.2,280.6,171.1
		L280.6,171.1z"/>
	<path class="st2" d="M261.2,68.6H82.5v145.5c0,0,3.8,68.7,87,68.7c83.2,0,91.7-68.7,91.7-68.7V68.6L261.2,68.6z"/>
	<path d="M261.2,68.6v145.5c0,0-8.5,68.7-91.7,68.7c-83.2,0-87-68.7-87-68.7V68.6H261.2L261.2,68.6z M262,67.8h-0.9H82.5h-0.9v0.9
		v145.5v0l0,0c0,0.2,1.1,17.6,12.4,34.8c6.7,10.1,15.5,18.1,26.3,23.9c13.5,7.2,30,10.8,49.1,10.8c19.1,0,35.9-3.6,49.8-10.8
		c11.2-5.8,20.6-13.8,27.9-23.9c12.5-17.2,14.8-34.6,14.8-34.8l0-0.1v-0.1V68.6V67.8L262,67.8z"/>
	<path class="st3" d="M256.3,72.9v141c-0.3,2-3,17.4-14,32.5c-6.9,9.4-15.7,16.8-26.1,22.2c-13.2,6.7-29.1,10.2-47.2,10.2
		c-18.2,0-33.8-3.4-46.5-10.1c-10-5.3-18.3-12.7-24.5-22c-10.3-15.4-11.7-31.1-11.8-32.5V72.9H256.3L256.3,72.9z"/>
	<path class="st1" d="M209.7,42.3c-3.1-0.8-18.6-4.6-38-4.6c-19.4,0-34.7,3.8-37.8,4.6l-0.5-1.6c2.3-1.4,14.5-7.9,38.3-7.9
		c23.3,0,35.9,6.3,38.7,7.8L209.7,42.3L209.7,42.3z"/>
	<polygon class="st1" points="144.5,19.7 153.5,24.1 129.5,30.1 122.9,24.9 144.5,19.7 	"/>
	<polygon class="st1" points="199.1,19.7 220.7,24.9 214.2,30.1 190.2,24.1 199.1,19.7 	"/>
	<path class="st1" d="M213.5,31.3l-2.8,8.1c-2-1.1-7.6-3.9-17.2-5.8v-7.3L213.5,31.3L213.5,31.3z"/>
	<path class="st1" d="M192.3,26v7.3c-5.4-1-12-1.7-19.8-1.8v-6.7l15.8,0.2L192.3,26L192.3,26z"/>
	<path class="st1" d="M171.2,31.5c-7.6,0-14,0.7-19.2,1.6v-7.3l3.5-0.9l15.8-0.2V31.5L171.2,31.5z"/>
	<path class="st1" d="M150.6,26.2v7.2c-10.1,2-15.8,4.9-17.7,6l-2.8-8.2L150.6,26.2L150.6,26.2z"/>
	<polygon class="st1" points="221.6,23.8 199.7,18.5 199.7,11.2 221.6,17 221.6,23.8 	"/>
	<polygon class="st1" points="198.4,11.6 198.4,18.7 189,23.3 189,17.9 198.4,11.6 	"/>
	<polygon class="st1" points="160.4,17.5 173.3,17.6 183.3,17.5 183.3,23.5 160.4,23.5 160.4,17.5 	"/>
	<polygon class="st1" points="185.4,9.3 185.4,14.8 183.7,16.2 172.5,16.2 172.5,9.3 185.4,9.3 	"/>
	<polygon class="st1" points="158.2,9.3 171.2,9.3 171.2,16.2 160,16.2 158.2,14.8 158.2,9.3 	"/>
	<polygon class="st1" points="154.7,23.3 145.3,18.7 145.3,11.6 154.7,17.9 154.7,23.3 	"/>
	<polygon class="st1" points="144,11.2 144,18.5 122.1,23.8 122.1,17 144,11.2 	"/>
	<path class="st1" d="M48.8,140.1c-0.5-2.7,0.1-5.2,1.5-6.9c1.2-1.5,3-2.3,5.1-2.3c0.6,0,1.2,0.1,1.9,0.2c5.3,1.2,8.8,7.8,8.8,7.9
		l0.7,1.3l0.5-1.4c0-0.1,4.8-13.8,4.7-29.6c-0.1-7.6-1.8-14.6-3.2-19.2c-0.8-2.6-1.6-4.7-2.2-6c-0.5-1.3-0.8-1.9-1-2.3
		c-0.1-0.1-0.1-0.3-0.2-0.5c-1.6-3.7-3.7-8.1-6-9.5c-2.2-1.4-4.4-0.8-5.8,0.2c-2,1.5-2.5,4.4-1.2,7c0.2,0.3,0.6,0.4,0.9,0.3
		c0.3-0.2,0.5-0.5,0.3-0.9c-1-2.1-0.7-4.3,0.8-5.4c0.5-0.4,2.3-1.5,4.3-0.2c2.2,1.4,4.7,7.1,5.5,9c0,0,0,0.1,0.1,0.1
		c-1.1,0.9-3.3,1.7-5.9,1.7c-2.2,0-7.5-0.7-8.5-7.4c-0.8-4.9,2.6-8.8,4.9-10.1c1.4-0.8,3-1.2,5-1.2c0.2,0,0.5,0,0.7,0c0,0,0,0,0,0
		c9.5,1.5,15.5,17.1,15.8,40.8c0.3,27.7-4.8,42.8-15.6,46.3C59,151.7,50.1,147.8,48.8,140.1L48.8,140.1z"/>
	<path class="st1" d="M294.9,140.1c-1.3,7.7-10.2,11.5-11.6,12.1c-10.8-3.5-16-18.6-15.6-46.3c0.3-23.7,6.3-39.4,15.8-40.8h0
		c0.2,0,0.5,0,0.7,0c2,0,3.6,0.4,5,1.2c2.3,1.3,5.7,5.2,4.9,10.1c-1.1,6.6-6.3,7.4-8.5,7.4c-2.5,0-4.7-0.8-5.9-1.7
		c0,0,0-0.1,0.1-0.1c0.8-1.9,3.3-7.6,5.5-9c2-1.3,3.8-0.2,4.3,0.2c1.5,1.1,1.8,3.3,0.8,5.4c-0.2,0.3,0,0.7,0.3,0.9
		c0.3,0.2,0.7,0,0.9-0.3c1.3-2.6,0.8-5.5-1.2-7c-1.4-1-3.6-1.6-5.8-0.2c-2.3,1.4-4.4,5.8-6,9.5c-0.1,0.2-0.2,0.4-0.2,0.5
		c-0.2,0.3-0.5,1-1,2.3c-0.5,1.3-1.3,3.4-2.2,6c-1.4,4.6-3.2,11.6-3.2,19.2c-0.2,15.8,4.6,29.5,4.7,29.6l0.5,1.4l0.7-1.3
		c0-0.1,3.5-6.7,8.8-7.9c0.6-0.1,1.3-0.2,1.9-0.2c2,0,3.8,0.8,5.1,2.3C294.8,135,295.3,137.4,294.9,140.1L294.9,140.1z"/>
	<path class="st3" d="M148.3,53h0.3c-0.3,1.5-0.5,3.1-0.6,4.7c-0.1,1.6-0.4,2.6-0.6,3.2c-0.3,0.5-0.7,0.8-1.1,0.8
		c-0.3,0-0.5-0.1-0.7-0.3c-0.2-0.2-0.3-0.5-0.3-0.8c0-0.2,0-0.5,0.1-0.8c0.1-0.3,0.4-1,0.9-2C147.2,55.9,147.8,54.4,148.3,53
		L148.3,53z M149.1,49.4c0.4,0,0.7,0.1,1,0.4c0.3,0.3,0.4,0.6,0.4,1c0,0.4-0.1,0.7-0.4,1c-0.3,0.3-0.6,0.4-1,0.4
		c-0.4,0-0.7-0.1-1-0.4c-0.3-0.3-0.4-0.6-0.4-1c0-0.4,0.1-0.7,0.4-1C148.4,49.6,148.7,49.4,149.1,49.4L149.1,49.4z"/>
	<path class="st3" d="M154.1,58.1l0.4-9.8c0-0.6,0-0.9,0-0.9c0-0.3-0.1-0.5-0.2-0.7c-0.2-0.1-0.4-0.2-0.8-0.3l0.1-0.3h4.9l-0.1,0.3
		c-0.4,0-0.7,0.1-1,0.4c-0.2,0.3-0.3,0.8-0.4,1.6l-0.3,6.1l4.6-5.3c0.6-0.7,1-1.2,1.1-1.4c0.1-0.3,0.2-0.5,0.2-0.7
		c0-0.1-0.1-0.3-0.2-0.4c-0.1-0.1-0.4-0.2-0.7-0.3l0.1-0.3h3.2v0.3c-0.3,0.1-0.5,0.2-0.7,0.3c-0.2,0.2-0.6,0.6-1.2,1.2l-8.8,10.2
		H154.1L154.1,58.1z"/>
	<path class="st3" d="M169.4,46.4l0.1-0.3h5.8l-0.1,0.3c-0.5,0-0.9,0.1-1.2,0.4c-0.3,0.2-0.5,0.7-0.7,1.4l-1.3,4.4
		c-0.5,1.6-0.9,2.7-1.2,3.3c-0.3,0.6-0.8,1.2-1.5,1.6c-0.6,0.4-1.4,0.6-2.4,0.6c-0.8,0-1.4-0.2-1.8-0.5c-0.4-0.3-0.6-0.8-0.6-1.3
		c0-0.4,0.1-0.8,0.4-1c0.3-0.3,0.6-0.4,0.9-0.4c0.3,0,0.5,0.1,0.8,0.3c0.2,0.2,0.3,0.4,0.3,0.7c0,0.3-0.1,0.5-0.4,0.8
		c-0.1,0.2-0.2,0.3-0.2,0.4c0,0.1,0,0.2,0.1,0.2c0.1,0.1,0.3,0.1,0.5,0.1c0.3,0,0.6-0.2,0.9-0.7c0.3-0.4,0.7-1.6,1.3-3.5l1.5-5.3
		c0.1-0.5,0.2-0.8,0.2-1c0-0.2-0.1-0.4-0.2-0.5C170.4,46.6,170,46.5,169.4,46.4L169.4,46.4z"/>
	<path class="st3" d="M183.7,46.8l-1.3,4.5h0.4c1.1,0,1.8-0.1,2.3-0.4c0.5-0.3,0.9-0.8,1.2-1.5h0.3l-1.3,4.6H185
		c0.1-0.3,0.1-0.6,0.1-0.7c0-0.3-0.1-0.6-0.3-0.8c-0.2-0.2-0.4-0.3-0.7-0.4c-0.2-0.1-0.6-0.1-1.2-0.1h-0.7l-1.1,3.9
		c-0.1,0.3-0.1,0.6-0.1,0.8c0,0.1,0.1,0.2,0.2,0.3c0.2,0.1,0.5,0.2,1.1,0.2c1,0,1.9-0.2,2.8-0.6c0.9-0.4,1.7-1,2.3-1.9h0.4l-1.2,3.2
		h-10.1l0.1-0.3c0.6,0,1-0.1,1.3-0.3c0.3-0.2,0.5-0.7,0.7-1.5l2.2-7.6c0.1-0.4,0.2-0.8,0.2-1c0-0.2-0.1-0.4-0.2-0.5
		c-0.2-0.1-0.5-0.2-1.1-0.2l0.1-0.3h9.4l-0.7,2.9H188c0-0.6-0.1-1-0.3-1.2c-0.2-0.4-0.6-0.6-1-0.8c-0.4-0.2-1.1-0.3-2-0.3H183.7
		L183.7,46.8z"/>
	<path class="st3" d="M190.7,55.3c0.4,0,0.7,0.1,1,0.4c0.3,0.3,0.4,0.6,0.4,1c0,0.4-0.1,0.7-0.4,1c-0.3,0.3-0.6,0.4-1,0.4
		c-0.4,0-0.7-0.1-1-0.4c-0.3-0.3-0.4-0.6-0.4-1c0-0.4,0.1-0.7,0.4-1C190,55.4,190.3,55.3,190.7,55.3L190.7,55.3z M191.5,54.5h-0.3
		c0.3-1.5,0.5-3.1,0.6-4.7c0.1-1.6,0.4-2.6,0.6-3.2c0.3-0.5,0.7-0.8,1.1-0.8c0.3,0,0.5,0.1,0.7,0.3c0.2,0.2,0.3,0.5,0.3,0.8
		c0,0.3-0.1,0.5-0.2,0.8c-0.1,0.3-0.4,1-0.9,2C192.7,51.6,192,53.2,191.5,54.5L191.5,54.5z"/>
	<path class="st4" d="M92.7,214.3v-6.1H93v0.3c0,0.5,0,0.8,0.1,0.9c0.1,0.2,0.2,0.3,0.4,0.4c0.2,0.1,0.6,0.1,1.2,0.1h5.8
		c1.1,0,1.7-0.1,2.1-0.2c0.3-0.2,0.6-0.4,0.9-0.8c0.2-0.4,0.3-0.8,0.3-1.4c0-0.6-0.1-1.2-0.4-1.6c-0.3-0.4-0.7-0.8-1.2-1
		c-0.5-0.2-1.4-0.3-2.6-0.3h-4.8c-0.5,0-0.9,0.1-1.1,0.2c-0.2,0.1-0.4,0.3-0.5,0.4c-0.1,0.3-0.2,0.6-0.2,1.1h-0.3v-4.1H93v0.2
		c0,0.3,0.1,0.6,0.2,0.8c0.1,0.2,0.3,0.4,0.6,0.5c0.2,0.1,0.5,0.1,1,0.1h4.5c1.4,0,2.4,0.1,3,0.3c0.6,0.2,1.2,0.6,1.7,1.3
		c0.5,0.7,0.8,1.7,0.8,2.9c0,1-0.1,1.8-0.4,2.4c-0.4,0.8-0.8,1.3-1.4,1.6c-0.6,0.3-1.4,0.5-2.3,0.5h-5.8c-0.7,0-1.1,0-1.3,0.1
		c-0.2,0.1-0.3,0.2-0.4,0.4c-0.1,0.2-0.1,0.5-0.1,1H92.7L92.7,214.3z"/>
	<path class="st4" d="M92.7,197.4l7.3-5.8h-5c-0.7,0-1.2,0.1-1.4,0.3c-0.3,0.3-0.5,0.7-0.5,1.4h-0.3v-3.9H93c0.1,0.5,0.2,0.8,0.3,1
		c0.1,0.2,0.3,0.3,0.5,0.4c0.2,0.1,0.6,0.1,1.2,0.1h9.8v0.3l-9.8,7.9h7.5c0.7,0,1.1-0.2,1.4-0.5c0.2-0.3,0.4-0.7,0.4-1.1v-0.3h0.3
		v4.2h-0.3c0-0.6-0.1-1.1-0.4-1.4c-0.3-0.3-0.7-0.4-1.3-0.4h-8.3l-0.3,0.2c-0.3,0.2-0.5,0.5-0.6,0.7c-0.1,0.2-0.2,0.5-0.2,0.8h-0.3
		V197.4L92.7,197.4z"/>
	<path class="st4" d="M104.1,182.5h0.3v6.1h-0.3v-0.4c0-0.3-0.1-0.6-0.2-0.8c-0.1-0.1-0.2-0.3-0.4-0.3c-0.1-0.1-0.5-0.1-1.1-0.1
		h-7.7c-0.6,0-1,0-1.1,0.1c-0.2,0.1-0.3,0.2-0.4,0.4c-0.1,0.2-0.2,0.5-0.2,0.8v0.4h-0.3v-6.1H93v0.4c0,0.3,0.1,0.6,0.2,0.8
		c0.1,0.1,0.2,0.3,0.4,0.4c0.1,0.1,0.5,0.1,1.1,0.1h7.7c0.6,0,1,0,1.1-0.1c0.1-0.1,0.3-0.2,0.4-0.4c0.1-0.2,0.2-0.5,0.2-0.8V182.5
		L104.1,182.5z"/>
	<path class="st4" d="M92.7,169.5H93c0.1,0.4,0.3,0.8,0.7,1.1c0.3,0.2,1,0.6,2,1.1l9,4.1v0.3l-9.3,4c-1.1,0.5-1.8,0.8-2,1
		c-0.2,0.2-0.3,0.5-0.4,0.9h-0.3v-5.6H93v0.2c0,0.5,0.1,0.8,0.2,1c0.1,0.1,0.2,0.2,0.4,0.2c0.1,0,0.2,0,0.4-0.1
		c0.1,0,0.5-0.2,1.1-0.5l5.8-2.5l-5.2-2.3c-0.6-0.3-1-0.4-1.3-0.5c-0.2-0.1-0.4-0.1-0.5-0.1c-0.2,0-0.3,0-0.5,0.1
		c-0.1,0.1-0.2,0.2-0.3,0.4c-0.1,0.2-0.1,0.6-0.1,1h-0.3V169.5L92.7,169.5z"/>
	<path class="st4" d="M93.4,164.5h4.8v-0.2c0-0.7-0.2-1.3-0.7-1.6c-0.5-0.3-1.2-0.5-2.1-0.6v-0.3h6.2v0.3c-0.7,0.1-1.2,0.2-1.6,0.4
		c-0.4,0.2-0.7,0.5-0.9,0.8c-0.1,0.3-0.2,0.7-0.2,1.3h3.3c0.6,0,1,0,1.2-0.1c0.1-0.1,0.3-0.2,0.4-0.3c0.1-0.1,0.1-0.4,0.1-0.7v-0.7
		c0-1.1-0.3-2-0.8-2.6c-0.5-0.7-1.3-1.1-2.3-1.4v-0.3l3.7,0.5V169h-0.3v-0.4c0-0.3-0.1-0.6-0.2-0.8c-0.1-0.1-0.2-0.3-0.4-0.3
		c-0.1-0.1-0.5-0.1-1.1-0.1h-7.7c-0.5,0-0.9,0-1,0c-0.2,0.1-0.4,0.2-0.5,0.3c-0.2,0.2-0.2,0.5-0.2,0.9v0.4h-0.3v-9.8h3.5v0.3
		c-0.8,0.2-1.5,0.4-1.8,0.7c-0.4,0.3-0.6,0.7-0.8,1.3c-0.1,0.3-0.2,0.9-0.2,1.8V164.5L93.4,164.5z"/>
	<path class="st4" d="M99.1,152.8h3.3c0.6,0,1,0,1.2-0.1c0.2-0.1,0.3-0.2,0.4-0.4c0.1-0.2,0.1-0.6,0.1-1.1h0.3v6h-0.3
		c0-0.5-0.1-0.9-0.2-1.1c-0.1-0.2-0.2-0.3-0.4-0.4c-0.2-0.1-0.6-0.1-1.2-0.1h-7.6c-0.6,0-1,0-1.2,0.1c-0.2,0.1-0.3,0.2-0.4,0.4
		c-0.1,0.2-0.1,0.6-0.1,1.1h-0.3v-5.5c0-1.4,0.1-2.5,0.3-3.1c0.2-0.7,0.6-1.2,1.1-1.6c0.5-0.4,1.2-0.6,1.9-0.6
		c0.9,0,1.6,0.3,2.1,0.9c0.4,0.4,0.6,1,0.8,1.7l4-2.8c0.5-0.4,0.8-0.6,1-0.8c0.2-0.2,0.3-0.5,0.3-0.8h0.3v3.7l-5.4,3.8V152.8
		L99.1,152.8z M93.3,152.8h5.1v-0.5c0-0.8-0.1-1.4-0.2-1.8c-0.1-0.4-0.4-0.7-0.8-0.9c-0.4-0.2-0.9-0.3-1.5-0.3c-0.9,0-1.5,0.2-2,0.6
		c-0.4,0.4-0.6,1.1-0.6,2V152.8L93.3,152.8z"/>
	<path class="st4" d="M92.4,136.3l3.9-0.1v0.4c-1,0.2-1.8,0.6-2.4,1.2c-0.6,0.7-0.9,1.4-0.9,2.1c0,0.6,0.2,1.1,0.5,1.4
		c0.3,0.3,0.7,0.5,1.1,0.5c0.3,0,0.5-0.1,0.7-0.2c0.3-0.2,0.5-0.4,0.8-0.8c0.2-0.3,0.5-0.9,1-1.9c0.7-1.4,1.3-2.3,1.9-2.8
		c0.6-0.5,1.3-0.7,2.1-0.7c1,0,1.8,0.4,2.5,1.1c0.7,0.8,1.1,1.7,1.1,2.9c0,0.4,0,0.7-0.1,1c-0.1,0.3-0.2,0.7-0.4,1.2
		c-0.1,0.3-0.2,0.5-0.2,0.7c0,0.1,0.1,0.3,0.2,0.5c0.1,0.2,0.3,0.3,0.5,0.4v0.3h-4.4v-0.3c1.2-0.3,2.2-0.7,2.9-1.5
		c0.7-0.7,1-1.5,1-2.3c0-0.6-0.2-1.2-0.5-1.6c-0.4-0.4-0.8-0.6-1.2-0.6c-0.3,0-0.5,0.1-0.8,0.2c-0.3,0.1-0.5,0.4-0.7,0.7
		c-0.2,0.3-0.5,0.8-0.9,1.6c-0.5,1.1-1,1.8-1.3,2.3c-0.4,0.5-0.8,0.8-1.2,1.1c-0.5,0.2-1,0.4-1.5,0.4c-0.9,0-1.7-0.3-2.4-1
		c-0.7-0.7-1-1.6-1-2.6c0-0.4,0-0.7,0.1-1.1c0.1-0.3,0.2-0.6,0.4-1c0.2-0.4,0.3-0.7,0.3-0.8c0-0.1,0-0.3-0.1-0.4
		c-0.1-0.1-0.3-0.2-0.7-0.2V136.3L92.4,136.3z"/>
	<path class="st4" d="M104.1,128.3h0.3v6.1h-0.3V134c0-0.3-0.1-0.6-0.2-0.8c-0.1-0.1-0.2-0.3-0.4-0.3c-0.1-0.1-0.5-0.1-1.1-0.1h-7.7
		c-0.6,0-1,0-1.1,0.1c-0.2,0.1-0.3,0.2-0.4,0.4c-0.1,0.2-0.2,0.5-0.2,0.8v0.4h-0.3v-6.1H93v0.4c0,0.3,0.1,0.6,0.2,0.8
		c0.1,0.2,0.2,0.3,0.4,0.4c0.1,0.1,0.5,0.1,1.1,0.1h7.7c0.6,0,1,0,1.1-0.1c0.1-0.1,0.3-0.2,0.4-0.4c0.1-0.2,0.2-0.5,0.2-0.8V128.3
		L104.1,128.3z"/>
	<path class="st4" d="M104.5,127.7h-0.3v-0.4c0-0.3-0.1-0.6-0.2-0.8c-0.1-0.2-0.2-0.3-0.4-0.4c-0.1-0.1-0.5-0.1-1.1-0.1h-7.7
		c-0.6,0-1,0-1.1,0.1c-0.2,0.1-0.3,0.2-0.4,0.4c-0.1,0.2-0.2,0.5-0.2,0.8v0.4h-0.3v-5.3c0-1.4,0.2-2.5,0.6-3.4
		c0.5-1,1.2-1.8,2.1-2.4c0.9-0.5,2-0.8,3.2-0.8c0.8,0,1.6,0.1,2.3,0.4c0.7,0.3,1.3,0.6,1.7,1c0.5,0.4,0.8,0.9,1.1,1.5
		c0.3,0.6,0.5,1.2,0.6,2c0.1,0.4,0.1,0.9,0.1,1.7V127.7L104.5,127.7z M93.4,123.2h9.2c0.5,0,0.8,0,0.9-0.1c0.1,0,0.2-0.1,0.3-0.2
		c0.1-0.2,0.1-0.4,0.1-0.7c0-1-0.3-1.7-1-2.2c-0.9-0.7-2.3-1-4.1-1c-1.5,0-2.7,0.2-3.6,0.7c-0.7,0.4-1.2,0.9-1.4,1.4
		C93.5,121.5,93.4,122.2,93.4,123.2L93.4,123.2z"/>
	<path class="st4" d="M101.1,107.7v4.1l1.1,0.5c0.4,0.2,0.7,0.2,1,0.2c0.3,0,0.6-0.1,0.7-0.4c0.1-0.1,0.2-0.5,0.2-1.1h0.3v3.9h-0.3
		c-0.1-0.4-0.2-0.8-0.5-1c-0.3-0.3-0.9-0.6-1.8-1l-9.4-4.2v-0.2l9.6-4.2c0.9-0.4,1.5-0.7,1.7-1c0.2-0.2,0.3-0.5,0.3-0.8h0.3v5.7
		h-0.3v-0.2c0-0.5-0.1-0.8-0.2-1c-0.1-0.1-0.2-0.2-0.4-0.2c-0.1,0-0.2,0-0.3,0.1c-0.1,0-0.3,0.1-0.6,0.3L101.1,107.7L101.1,107.7z
		 M100.5,108l-4,1.7l4,1.8V108L100.5,108z"/>
	<path class="st4" d="M104.5,102h-0.3v-0.4c0-0.3-0.1-0.6-0.2-0.8c-0.1-0.2-0.2-0.3-0.4-0.4c-0.1-0.1-0.5-0.1-1.1-0.1h-7.7
		c-0.6,0-1,0-1.1,0.1c-0.2,0.1-0.3,0.2-0.4,0.4c-0.1,0.2-0.2,0.5-0.2,0.8v0.4h-0.3v-5.3c0-1.4,0.2-2.5,0.6-3.4
		c0.5-1,1.2-1.8,2.1-2.4c0.9-0.5,2-0.8,3.2-0.8c0.8,0,1.6,0.1,2.3,0.4c0.7,0.3,1.3,0.6,1.7,1c0.5,0.4,0.8,0.9,1.1,1.5
		c0.3,0.6,0.5,1.2,0.6,2c0.1,0.3,0.1,0.9,0.1,1.7V102L104.5,102z M93.4,97.5h9.2c0.5,0,0.8,0,0.9-0.1c0.1,0,0.2-0.1,0.3-0.2
		c0.1-0.2,0.1-0.4,0.1-0.7c0-1-0.3-1.7-1-2.2c-0.9-0.7-2.3-1-4.1-1c-1.5,0-2.7,0.2-3.6,0.7c-0.7,0.4-1.2,0.9-1.4,1.4
		C93.5,95.9,93.4,96.6,93.4,97.5L93.4,97.5z"/>
	<path class="st4" d="M132.9,79.9V84h-0.3c-0.3-1.1-0.9-2-1.5-2.6c-0.7-0.6-1.4-0.9-2.2-0.9c-0.8,0-1.4,0.2-1.9,0.7
		c-0.5,0.5-0.9,1.2-1.1,2.1c-0.2,0.9-0.3,1.8-0.3,2.7c0,1.1,0.1,2.1,0.4,3c0.2,0.8,0.6,1.5,1.1,1.9c0.5,0.4,1.1,0.6,1.9,0.6
		c0.3,0,0.5,0,0.8-0.1c0.3-0.1,0.5-0.1,0.8-0.3v-2.4c0-0.5,0-0.8-0.1-0.9c-0.1-0.1-0.2-0.3-0.3-0.4c-0.2-0.1-0.4-0.2-0.6-0.2H129V87
		h5.1v0.3c-0.4,0-0.7,0.1-0.8,0.2c-0.2,0.1-0.3,0.2-0.3,0.4c0,0.1-0.1,0.4-0.1,0.8v2.4c-0.7,0.3-1.4,0.6-2.1,0.8
		c-0.7,0.2-1.5,0.3-2.2,0.3c-1,0-1.8-0.2-2.5-0.5c-0.7-0.3-1.2-0.7-1.7-1.2c-0.5-0.5-0.9-1-1.2-1.7c-0.4-0.8-0.5-1.7-0.5-2.7
		c0-1.8,0.6-3.3,1.7-4.5c1.1-1.2,2.5-1.8,4.2-1.8c0.5,0,1,0,1.4,0.1c0.2,0,0.6,0.2,1.1,0.4c0.5,0.2,0.8,0.3,0.9,0.3
		c0.1,0,0.3-0.1,0.4-0.2c0.1-0.1,0.2-0.3,0.3-0.7H132.9L132.9,79.9z"/>
	<path class="st4" d="M134.6,80.1h5.4v0.3h-0.3c-0.4,0-0.7,0-0.8,0.1c-0.2,0.1-0.3,0.2-0.3,0.4c-0.1,0.2-0.1,0.6-0.1,1.2V88
		c0,1.1,0.1,1.8,0.2,2.1c0.1,0.3,0.4,0.6,0.7,0.9c0.3,0.2,0.7,0.3,1.2,0.3c0.6,0,1-0.1,1.4-0.4c0.4-0.3,0.7-0.7,0.9-1.2
		c0.2-0.5,0.3-1.4,0.3-2.6v-4.8c0-0.5-0.1-0.9-0.2-1.1c-0.1-0.2-0.2-0.4-0.4-0.5c-0.2-0.1-0.6-0.2-1-0.2v-0.3h3.6v0.3h-0.2
		c-0.3,0-0.5,0.1-0.7,0.2c-0.2,0.1-0.3,0.3-0.4,0.6c-0.1,0.2-0.1,0.5-0.1,1v4.5c0,1.4-0.1,2.4-0.2,3c-0.2,0.6-0.6,1.2-1.2,1.7
		c-0.6,0.5-1.5,0.8-2.6,0.8c-0.9,0-1.6-0.1-2.1-0.4c-0.7-0.4-1.1-0.8-1.4-1.4c-0.3-0.6-0.4-1.4-0.4-2.3v-5.8c0-0.7,0-1.1-0.1-1.3
		c-0.1-0.2-0.2-0.3-0.3-0.4c-0.2-0.1-0.5-0.1-0.9-0.1V80.1L134.6,80.1z"/>
	<path class="st4" d="M152.2,88.5h-3.7l-0.4,1.1c-0.1,0.4-0.2,0.7-0.2,1c0,0.3,0.1,0.6,0.4,0.7c0.1,0.1,0.5,0.2,1,0.2v0.3h-3.5v-0.3
		c0.4-0.1,0.7-0.2,0.9-0.5c0.2-0.3,0.5-0.9,0.9-1.8l3.7-9.4h0.1l3.8,9.6c0.4,0.9,0.7,1.5,0.9,1.7c0.2,0.2,0.4,0.3,0.7,0.3v0.3h-5
		v-0.3h0.2c0.4,0,0.7-0.1,0.9-0.2c0.1-0.1,0.2-0.2,0.2-0.4c0-0.1,0-0.2,0-0.3c0-0.1-0.1-0.3-0.2-0.6L152.2,88.5L152.2,88.5z
		 M151.9,87.9l-1.5-4.1l-1.6,4.1H151.9L151.9,87.9z"/>
	<path class="st4" d="M157.2,91.9v-0.3h0.3c0.3,0,0.5-0.1,0.7-0.2c0.2-0.1,0.3-0.2,0.4-0.4c0-0.1,0.1-0.5,0.1-1.1v-7.7
		c0-0.6,0-1-0.1-1.1c-0.1-0.2-0.2-0.3-0.3-0.4c-0.2-0.1-0.4-0.2-0.7-0.2h-0.3v-0.3h4.7c1.2,0,2.2,0.2,3,0.6c0.9,0.5,1.6,1.2,2.1,2.1
		c0.5,0.9,0.7,2,0.7,3.2c0,0.8-0.1,1.6-0.4,2.3c-0.2,0.7-0.5,1.3-0.9,1.7c-0.4,0.5-0.8,0.8-1.3,1.1c-0.5,0.3-1.1,0.5-1.8,0.6
		c-0.3,0.1-0.8,0.1-1.5,0.1H157.2L157.2,91.9z M161.2,80.8V90c0,0.5,0,0.8,0.1,0.9c0,0.1,0.1,0.2,0.2,0.3c0.1,0.1,0.3,0.1,0.6,0.1
		c0.9,0,1.5-0.3,2-1c0.6-0.9,0.9-2.3,0.9-4.1c0-1.5-0.2-2.7-0.6-3.6c-0.3-0.7-0.8-1.2-1.3-1.4C162.6,80.9,162,80.8,161.2,80.8
		L161.2,80.8z"/>
	<path class="st4" d="M174.9,88.5h-3.7l-0.4,1.1c-0.1,0.4-0.2,0.7-0.2,1c0,0.3,0.1,0.6,0.4,0.7c0.1,0.1,0.5,0.2,1,0.2v0.3h-3.5v-0.3
		c0.4-0.1,0.7-0.2,0.9-0.5c0.2-0.3,0.5-0.9,0.9-1.8l3.7-9.4h0.1l3.8,9.6c0.4,0.9,0.7,1.5,0.9,1.7c0.2,0.2,0.4,0.3,0.7,0.3v0.3h-5
		v-0.3h0.2c0.4,0,0.7-0.1,0.9-0.2c0.1-0.1,0.2-0.2,0.2-0.4c0-0.1,0-0.2,0-0.3c0-0.1-0.1-0.3-0.2-0.6L174.9,88.5L174.9,88.5z
		 M174.6,87.9l-1.5-4.1l-1.6,4.1H174.6L174.6,87.9z"/>
	<path class="st4" d="M189.7,87.8l-0.4,4.1H180v-0.3h0.3c0.3,0,0.5-0.1,0.7-0.2c0.1-0.1,0.2-0.2,0.3-0.4c0.1-0.1,0.1-0.5,0.1-1.1
		v-7.7c0-0.6,0-1-0.1-1.1c-0.1-0.2-0.2-0.3-0.3-0.4c-0.2-0.1-0.4-0.2-0.7-0.2H180v-0.3h5.6v0.3h-0.5c-0.3,0-0.5,0.1-0.7,0.2
		c-0.1,0.1-0.2,0.2-0.3,0.4c-0.1,0.1-0.1,0.5-0.1,1.1v7.5c0,0.6,0,1,0.1,1.1c0.1,0.2,0.2,0.3,0.4,0.4c0.1,0.1,0.4,0.1,0.9,0.1h0.9
		c0.6,0,1-0.1,1.4-0.3c0.4-0.2,0.7-0.6,1-1c0.3-0.5,0.5-1.2,0.8-2.1H189.7L189.7,87.8z"/>
	<path class="st4" d="M190.6,80.1h5.4v0.3h-0.3c-0.4,0-0.7,0-0.8,0.1c-0.2,0.1-0.3,0.2-0.3,0.4c-0.1,0.2-0.1,0.6-0.1,1.2V88
		c0,1.1,0.1,1.8,0.2,2.1c0.1,0.3,0.4,0.6,0.7,0.9c0.3,0.2,0.7,0.3,1.2,0.3c0.6,0,1-0.1,1.4-0.4c0.4-0.3,0.7-0.7,0.9-1.2
		c0.2-0.5,0.3-1.4,0.3-2.6v-4.8c0-0.5,0-0.9-0.1-1.1c-0.1-0.2-0.2-0.4-0.4-0.5c-0.2-0.1-0.6-0.2-1-0.2v-0.3h3.6v0.3h-0.2
		c-0.3,0-0.5,0.1-0.7,0.2c-0.2,0.1-0.3,0.3-0.4,0.6c-0.1,0.2-0.1,0.5-0.1,1v4.5c0,1.4-0.1,2.4-0.2,3c-0.2,0.6-0.6,1.2-1.2,1.7
		c-0.6,0.5-1.5,0.8-2.6,0.8c-0.9,0-1.6-0.1-2.1-0.4c-0.7-0.4-1.1-0.8-1.4-1.4c-0.3-0.6-0.4-1.4-0.4-2.3v-5.8c0-0.7,0-1.1-0.1-1.3
		c-0.1-0.2-0.2-0.3-0.3-0.4c-0.2-0.1-0.5-0.1-0.9-0.1V80.1L190.6,80.1z"/>
	<path class="st4" d="M205.8,86.6v3.3c0,0.6,0,1,0.1,1.2c0.1,0.2,0.2,0.3,0.4,0.4c0.2,0.1,0.5,0.1,1,0.1v0.3H202v-0.3
		c0.5,0,0.8-0.1,1-0.2c0.2-0.1,0.3-0.2,0.4-0.4c0.1-0.2,0.1-0.6,0.1-1.2v-7.6c0-0.6,0-1-0.1-1.2c-0.1-0.2-0.2-0.3-0.4-0.4
		c-0.2-0.1-0.5-0.1-1-0.1v-0.3h4.5c1.5,0,2.6,0.3,3.2,0.9c0.6,0.6,1,1.4,1,2.3c0,0.8-0.2,1.4-0.6,2c-0.4,0.5-1,0.9-1.7,1.1
		C207.8,86.5,207,86.6,205.8,86.6L205.8,86.6z M205.8,80.8v5.1c0.2,0,0.3,0,0.4,0c0.6,0,1.1-0.2,1.4-0.6c0.3-0.4,0.5-1.1,0.5-2
		c0-0.9-0.2-1.5-0.5-1.9c-0.3-0.4-0.8-0.6-1.5-0.6H205.8L205.8,80.8z"/>
	<path class="st4" d="M215.5,80.8v4.8h0.2c0.7,0,1.1-0.2,1.4-0.7c0.3-0.5,0.5-1.2,0.6-2.1h0.3V89h-0.3c-0.1-0.7-0.2-1.2-0.4-1.6
		c-0.2-0.4-0.4-0.7-0.7-0.9c-0.3-0.2-0.6-0.2-1.1-0.2v3.3c0,0.6,0,1,0.1,1.2c0,0.1,0.1,0.3,0.3,0.4c0.1,0.1,0.3,0.1,0.6,0.1h0.6
		c1,0,1.8-0.3,2.3-0.8c0.6-0.5,1-1.3,1.3-2.3h0.3l-0.5,3.7h-9v-0.3h0.3c0.3,0,0.5-0.1,0.7-0.2c0.1-0.1,0.2-0.2,0.3-0.4
		c0.1-0.1,0.1-0.5,0.1-1.1v-7.7c0-0.5,0-0.9,0-1c-0.1-0.2-0.1-0.4-0.3-0.5c-0.2-0.2-0.5-0.2-0.8-0.2h-0.3v-0.3h8.7v3.5h-0.3
		c-0.2-0.9-0.4-1.5-0.6-1.8c-0.3-0.4-0.6-0.6-1.1-0.8c-0.3-0.1-0.8-0.2-1.6-0.2H215.5L215.5,80.8z"/>
	<path class="st4" d="M251.1,119.5h-0.3c-0.1-0.4-0.3-0.8-0.7-1.1c-0.3-0.2-1-0.6-2-1.1l-9-4.1V113l9.3-4c1.1-0.5,1.8-0.8,2-1
		c0.2-0.2,0.3-0.5,0.4-0.9h0.3v5.6h-0.3v-0.2c0-0.5-0.1-0.8-0.2-1c-0.1-0.1-0.2-0.2-0.4-0.2c-0.1,0-0.2,0-0.4,0.1
		c-0.1,0-0.5,0.2-1.1,0.5l-5.8,2.5l5.2,2.3c0.6,0.3,1,0.4,1.3,0.5c0.2,0.1,0.4,0.1,0.5,0.1c0.2,0,0.3,0,0.5-0.1
		c0.1-0.1,0.2-0.2,0.3-0.4c0.1-0.2,0.1-0.6,0.1-1h0.3V119.5L251.1,119.5z"/>
	<path class="st4" d="M239.6,126.2h-0.3v-6.1h0.3v0.4c0,0.3,0.1,0.6,0.2,0.8c0.1,0.1,0.2,0.3,0.4,0.3c0.1,0.1,0.5,0.1,1.1,0.1h7.7
		c0.6,0,1,0,1.1-0.1c0.2-0.1,0.3-0.2,0.4-0.4c0.1-0.2,0.2-0.5,0.2-0.8v-0.4h0.3v6.1h-0.3v-0.4c0-0.3-0.1-0.6-0.2-0.8
		c-0.1-0.1-0.2-0.3-0.4-0.4c-0.1-0.1-0.5-0.1-1.1-0.1h-7.7c-0.6,0-1,0-1.1,0.1c-0.1,0.1-0.3,0.2-0.4,0.4c-0.1,0.2-0.2,0.5-0.2,0.8
		V126.2L239.6,126.2z"/>
	<path class="st4" d="M251.3,138.5h-4.1v-0.3c1.1-0.3,1.9-0.7,2.4-1.4c0.6-0.7,0.8-1.5,0.8-2.4c0-0.7-0.2-1.4-0.6-2
		c-0.4-0.6-1-1.1-1.7-1.3c-0.9-0.4-1.8-0.5-2.9-0.5c-1,0-2,0.1-2.9,0.4c-0.9,0.3-1.5,0.7-2,1.2c-0.4,0.6-0.7,1.3-0.7,2.2
		c0,0.7,0.2,1.4,0.5,2c0.3,0.6,0.9,1.3,1.7,1.9h-1c-0.7-0.7-1.2-1.3-1.5-2.1c-0.3-0.7-0.5-1.5-0.5-2.5c0-1.3,0.3-2.4,0.8-3.3
		c0.5-1,1.2-1.7,2.2-2.3c0.9-0.5,1.9-0.8,3-0.8c1.1,0,2.2,0.3,3.2,0.9c1,0.6,1.8,1.4,2.3,2.4c0.6,1,0.8,2.1,0.8,3.2
		c0,0.8-0.2,1.7-0.5,2.6c-0.2,0.5-0.3,0.9-0.3,1c0,0.2,0.1,0.3,0.2,0.5c0.1,0.1,0.3,0.2,0.6,0.3V138.5L251.3,138.5z"/>
	<path class="st4" d="M251.1,150.6h-3.2v-0.3c0.7-0.2,1.3-0.4,1.6-0.6c0.3-0.2,0.6-0.5,0.8-0.9c0.1-0.2,0.2-0.6,0.2-1.2v-0.9h-9.1
		c-0.6,0-1,0-1.1,0.1c-0.1,0.1-0.3,0.2-0.4,0.4c-0.1,0.2-0.2,0.5-0.2,0.8v0.4h-0.3v-6.2h0.3v0.4c0,0.3,0.1,0.6,0.2,0.8
		c0.1,0.2,0.2,0.3,0.4,0.4c0.1,0.1,0.5,0.1,1.1,0.1h9.1v-0.8c0-0.8-0.2-1.4-0.5-1.7c-0.5-0.5-1.1-0.8-2-1v-0.3h3.2V150.6
		L251.1,150.6z"/>
	<path class="st4" d="M251.3,158.1c0,1.9-0.6,3.4-1.7,4.6c-1.2,1.2-2.6,1.8-4.4,1.8c-1.5,0-2.8-0.4-3.9-1.3
		c-1.5-1.2-2.2-2.8-2.2-4.9c0-2.1,0.7-3.7,2.1-4.9c1.1-0.9,2.5-1.4,4-1.4c1.7,0,3.2,0.6,4.4,1.8
		C250.7,154.9,251.3,156.4,251.3,158.1L251.3,158.1z M250.7,158.2c0-1.1-0.5-1.9-1.6-2.5c-0.9-0.5-2.2-0.7-3.9-0.7
		c-2,0-3.5,0.4-4.4,1.1c-0.7,0.5-1,1.2-1,2.1c0,0.6,0.1,1.1,0.4,1.5c0.4,0.5,1,0.9,1.8,1.2c0.8,0.3,1.9,0.4,3.2,0.4
		c1.6,0,2.7-0.1,3.5-0.4c0.8-0.3,1.3-0.7,1.6-1.1C250.5,159.3,250.7,158.8,250.7,158.2L250.7,158.2z"/>
	<path class="st4" d="M244.7,169.8h-3.3c-0.6,0-1,0-1.2,0.1c-0.2,0.1-0.3,0.2-0.4,0.4c-0.1,0.2-0.1,0.6-0.1,1.1h-0.3v-6h0.3
		c0,0.5,0.1,0.9,0.2,1.1c0.1,0.2,0.2,0.3,0.4,0.4c0.2,0.1,0.6,0.1,1.2,0.1h7.6c0.6,0,1,0,1.2-0.1c0.2-0.1,0.3-0.2,0.4-0.4
		c0.1-0.2,0.1-0.6,0.1-1.1h0.3v5.5c0,1.4-0.1,2.5-0.3,3.1c-0.2,0.7-0.6,1.2-1.1,1.6c-0.5,0.4-1.1,0.6-1.9,0.6
		c-0.9,0-1.6-0.3-2.1-0.9c-0.4-0.4-0.6-1-0.8-1.7l-4,2.8c-0.5,0.4-0.8,0.6-1,0.8c-0.2,0.2-0.3,0.5-0.3,0.8h-0.3v-3.7l5.4-3.8V169.8
		L244.7,169.8z M250.4,169.8h-5.1v0.5c0,0.8,0.1,1.4,0.2,1.8c0.1,0.4,0.4,0.7,0.8,0.9c0.4,0.2,0.9,0.3,1.5,0.3c0.9,0,1.5-0.2,2-0.6
		c0.4-0.4,0.6-1.1,0.6-2V169.8L250.4,169.8z"/>
	<path class="st4" d="M239.6,184.4h-0.3v-6.1h0.3v0.4c0,0.3,0.1,0.6,0.2,0.8c0.1,0.1,0.2,0.3,0.4,0.3c0.1,0.1,0.5,0.1,1.1,0.1h7.7
		c0.6,0,1,0,1.1-0.1c0.2-0.1,0.3-0.2,0.4-0.4c0.1-0.2,0.2-0.5,0.2-0.8v-0.4h0.3v6.1h-0.3V184c0-0.3-0.1-0.6-0.2-0.8
		c-0.1-0.1-0.2-0.3-0.4-0.4c-0.1-0.1-0.5-0.1-1.1-0.1h-7.7c-0.6,0-1,0-1.1,0.1c-0.1,0.1-0.3,0.2-0.4,0.4c-0.1,0.2-0.2,0.5-0.2,0.8
		V184.4L239.6,184.4z"/>
	<path class="st4" d="M242.6,192.2V188l-1.1-0.5c-0.4-0.2-0.7-0.2-1-0.2c-0.3,0-0.6,0.1-0.7,0.4c-0.1,0.1-0.2,0.5-0.2,1.1h-0.3v-3.9
		h0.3c0.1,0.4,0.2,0.8,0.5,1c0.3,0.3,0.9,0.6,1.8,1l9.4,4.2v0.2l-9.6,4.2c-0.9,0.4-1.5,0.7-1.7,1c-0.2,0.2-0.3,0.5-0.3,0.8h-0.3
		v-5.7h0.3v0.2c0,0.5,0.1,0.8,0.2,1c0.1,0.1,0.2,0.2,0.4,0.2c0.1,0,0.2,0,0.3-0.1c0.1,0,0.3-0.1,0.6-0.3L242.6,192.2L242.6,192.2z
		 M243.3,191.9l4-1.7l-4-1.8V191.9L243.3,191.9z"/>
	<path class="st4" d="M141.6,245.6h9.8v0.6h-0.5c-0.7,0-1.2,0.1-1.5,0.3c-0.3,0.2-0.5,0.4-0.6,0.7c-0.1,0.3-0.2,1-0.2,2.2v10.3
		c0,1.9,0.1,3.1,0.4,3.7c0.3,0.6,0.7,1.1,1.3,1.5c0.6,0.4,1.3,0.6,2.2,0.6c1,0,1.9-0.3,2.6-0.8c0.7-0.5,1.3-1.2,1.6-2.1
		c0.4-0.9,0.5-2.5,0.5-4.7v-8.6c0-0.9-0.1-1.6-0.3-2c-0.2-0.4-0.4-0.7-0.7-0.8c-0.4-0.2-1-0.4-1.8-0.4v-0.6h6.6v0.6h-0.4
		c-0.5,0-1,0.1-1.3,0.4c-0.4,0.2-0.6,0.6-0.8,1.1c-0.1,0.3-0.2,0.9-0.2,1.8v8c0,2.5-0.1,4.3-0.4,5.4c-0.3,1.1-1,2.1-2.1,3
		c-1.1,0.9-2.7,1.4-4.7,1.4c-1.6,0-2.9-0.2-3.8-0.7c-1.2-0.7-2.1-1.5-2.6-2.5c-0.5-1-0.8-2.4-0.8-4.2v-10.3c0-1.2-0.1-2-0.2-2.2
		c-0.1-0.3-0.3-0.5-0.6-0.7c-0.3-0.2-0.8-0.3-1.7-0.3V245.6L141.6,245.6z"/>
	<path class="st4" d="M181.4,245.1v7.4h-0.5c-0.6-2-1.6-3.6-2.8-4.6c-1.2-1.1-2.6-1.6-4.1-1.6c-1.4,0-2.6,0.4-3.5,1.3
		c-0.9,0.9-1.6,2.1-2,3.7c-0.4,1.6-0.6,3.2-0.6,4.9c0,2,0.2,3.8,0.6,5.3c0.4,1.5,1.1,2.6,2.1,3.3c1,0.7,2.1,1.1,3.4,1.1
		c0.5,0,0.9-0.1,1.4-0.2c0.5-0.1,1-0.3,1.5-0.5v-4.4c0-0.8-0.1-1.4-0.2-1.6c-0.1-0.2-0.3-0.5-0.6-0.7c-0.3-0.2-0.7-0.3-1.2-0.3h-0.5
		v-0.6h9.2v0.6c-0.7,0.1-1.2,0.2-1.5,0.3c-0.3,0.2-0.5,0.4-0.6,0.8c-0.1,0.2-0.1,0.7-0.1,1.4v4.4c-1.2,0.6-2.5,1.1-3.8,1.4
		c-1.3,0.3-2.7,0.5-4.1,0.5c-1.8,0-3.3-0.3-4.5-0.8c-1.2-0.5-2.2-1.3-3.1-2.1c-0.9-0.9-1.6-1.9-2.1-3c-0.6-1.4-1-3-1-4.8
		c0-3.2,1-5.8,3-8c2-2.2,4.5-3.3,7.6-3.3c1,0,1.8,0.1,2.5,0.2c0.4,0.1,1.1,0.3,2,0.7c0.9,0.4,1.5,0.6,1.6,0.6c0.3,0,0.5-0.1,0.7-0.3
		c0.2-0.2,0.4-0.6,0.6-1.2H181.4L181.4,245.1z"/>
	<path class="st4" d="M204.3,245.6v0.6c-0.7,0.1-1.3,0.5-1.8,1.2c-0.4,0.5-1,1.7-1.7,3.6l-6.5,16.1h-0.5l-6.5-16.7
		c-0.8-2-1.3-3.2-1.6-3.6c-0.3-0.4-0.8-0.6-1.5-0.7v-0.6h9.1v0.6h-0.3c-0.8,0-1.4,0.1-1.7,0.3c-0.2,0.2-0.3,0.4-0.3,0.7
		c0,0.2,0,0.4,0.1,0.7c0.1,0.3,0.3,0.9,0.8,2l4,10.5l3.8-9.3c0.4-1.1,0.7-1.9,0.8-2.3c0.1-0.4,0.2-0.7,0.2-1c0-0.3-0.1-0.6-0.2-0.8
		c-0.2-0.2-0.4-0.4-0.7-0.6c-0.4-0.2-0.9-0.3-1.6-0.3v-0.6H204.3L204.3,245.6z"/>
	<polygon class="st5" points="154.2,154.5 120.7,122.3 122.2,120.7 155.7,153 154.2,154.5 	"/>
	<polygon class="st5" points="157.6,138.6 143.9,107 142,107.9 155.7,139.4 157.6,138.6 	"/>
	<polygon class="st5" points="145.6,159.3 110.4,144.8 109.6,146.7 144.8,161.3 145.6,159.3 	"/>
	<polygon class="st5" points="153.2,169.5 109.4,169.5 109.4,171.6 153.2,171.6 153.2,169.5 	"/>
	<polygon class="st5" points="156.6,180.5 114.6,197.3 115.4,199.3 157.4,182.5 156.6,180.5 	"/>
	<polygon class="st5" points="187.6,139.4 201.4,107.9 199.5,107 185.7,138.6 187.6,139.4 	"/>
	<polygon class="st5" points="190.3,155.1 223.8,122.8 222.3,121.3 188.8,153.5 190.3,155.1 	"/>
	<polygon class="st5" points="198.6,161.3 233.8,146.7 233,144.8 197.8,159.3 198.6,161.3 	"/>
	<polygon class="st5" points="190.2,169.5 190.2,171.6 234,171.6 234,169.5 190.2,169.5 	"/>
	<polygon class="st5" points="186,182.5 227.9,199.3 228.7,197.3 186.7,180.5 186,182.5 	"/>
	<polygon class="st5" points="170.6,101.1 170.6,134.9 172.7,134.9 172.7,101.1 170.6,101.1 	"/>
	<path class="st4" d="M207.2,159.2c0,19.5-15.8,35.3-35.3,35.3c-19.5,0-35.3-15.8-35.3-35.3c0-19.5,15.8-35.3,35.3-35.3
		C191.3,123.9,207.2,139.7,207.2,159.2L207.2,159.2z"/>
	<path class="st6" d="M168.8,151.3c0,0,1-3-0.1-5.8c-0.7-1.7-3-3.7-3-3.7s2.9,0.1,5.5,2.1c2.6,2.1,1.6,4.7,1.6,4.7l-1,2.7H168.8
		L168.8,151.3z"/>
	<path class="st6" d="M179.5,151c0,0-2.6-5.1-5.5-7.8c-2.9-2.7-7.1-3.7-7.1-3.7s3.1,1.5,3.8,5.7c0.6,4.2-6.4,11.4-6.4,11.4l10.3,1.6
		L179.5,151L179.5,151z"/>
	<path class="st7" d="M167.6,159.1c0,0-2.8-1.8-3-6.6c-0.2-4.8,2.4-7.6,2.4-7.6s-2.9,0.9-4.9,3.9c-2,3-2,5.9-2,5.9l-1.3-1.2
		c0,0-1.3,2-1.5,6c-0.1,4,2,6.7,2,6.7L167.6,159.1L167.6,159.1z"/>
	<path class="st8" d="M175,151c0,0,2.3-4.2,1.5-7.7c-0.8-3.5-3.5-5.7-3.5-5.7s3.7,0.5,6.6,4.1c1.2,1.5,1.8,3.8,2.6,5.7
		c0.8,2,1.7,3.5,1.7,3.5l0.5,7.2l-3,0.9L175,151L175,151z"/>
	<path class="st7" d="M176.9,152.3l1.5,16.7l6-0.2c0,0,2.4-4.1,2.4-10.8c0-8.8-4.1-14.7-4.1-14.7s1.1,7.1,1,8.7
		c-0.2,1.6-0.4,4-1,4.7c-0.5-2.8,0.2-6.6-1.3-12.5c-1.5-5.9-6.4-7.3-6.4-7.3s3.3,2.3,3.4,7C178.5,148.6,176.9,152.3,176.9,152.3
		L176.9,152.3z"/>
	<path class="st9" d="M161.1,171.3c0,0-3.3-4.5-2.4-10.2c0.8-5.7,4.5-8.1,4.5-8.1s-0.5,3.1,0.6,4.9c1.1,1.8,4.2,3.6,4.2,3.6
		s0.1-1.8,1.1-4.7c0.7-1.9,2.3-4.9,2.6-6c0.8-3.1,0.6-4.9,0.6-4.9s3.5,3.3,5.3,11.3c2.1,9.3-0.8,14.6-0.8,14.6L161.1,171.3
		L161.1,171.3z"/>
	<path class="st10" d="M169.3,160.8c0,0,1.8-1.6,2.5-3.4c0.7-1.8,0.6-3.6,0.6-3.6s2.2,1.4,3.3,4.8c1.1,3.5,0.4,5.3,0.4,5.3l-4.9,0.8
		L169.3,160.8L169.3,160.8z"/>
	<path class="st6" d="M170.7,162.7c0,0,2.9-3.1,4.1-7c1.2-3.8,0.9-7.9,0.9-7.9s3.5,3.8,4.6,10.3c1.2,6.5-2.1,12.2-2.1,12.2h-8.1
		L170.7,162.7L170.7,162.7z"/>
	<path class="st9" d="M178.3,166.5c0,0,1.5-2.8,0.7-7.4c-0.7-4.6-2.5-5.8-2.5-5.8s0.1,4.5-1.6,6.6c-1.7,2.1-3.3,5.7-2.7,6.9
		C172.7,168.1,178.3,166.5,178.3,166.5L178.3,166.5z"/>
	<path class="st6" d="M176.7,165.9c0,0,2.2-1.1,1.4-5.5c-0.6-3.3-4.3-5.7-4.3-5.7l-1.5,3.6l-1.9,3.2l3.5,4.5H176.7L176.7,165.9z"/>
	<path class="st10" d="M165.8,170.8c0,0-2.9-4.9-0.5-11.7c2.3-6.8,6.8-8,6.8-8s-1.8,1.5-2.3,5.9c-0.4,3.8,5.7,9.2,5.7,9.2l-1.6,4.6
		H165.8L165.8,170.8z"/>
	<path class="st6" d="M174.3,155c0,0,3.3,2.2,3.9,5.8c1,6.2-3.9,10.5-3.9,10.5s1.6-6.4,1.3-10.7C175.2,156.4,174.3,155,174.3,155
		L174.3,155z"/>
	<path class="st9" d="M179.1,157.1c0,0-2,0.4-3.9,4.1c-2.3,4.3-0.1,9.4-0.1,9.4s4.4-1.8,4.6-3.4c0.2-1.5-2.9-2.6-2.7-5.3
		C177.2,159.1,179.1,157.1,179.1,157.1L179.1,157.1z"/>
	<path class="st9" d="M169,171c0,0,2.9,0.3,2.8-2.4c-0.1-2.7-1.5-2.9-2-4.9c-0.5-2.1,0.9-3.7,0.9-3.7s-3.8,1.5-4.2,5.4
		C166.3,169.3,169,171,169,171L169,171z"/>
	<path class="st9" d="M157.7,162.9c0,0-0.4,1.8,0.4,4.5c0.8,2.7,2.6,3.6,2.6,3.6s0.6,0.5,0.1-1.5c-0.5-2-1.5-2.6-2.3-3.8
		C157.7,164.6,157.7,162.9,157.7,162.9L157.7,162.9z"/>
	<path class="st9" d="M160.4,165.1c0,0,1.3,1.4,1.5,4.1c0.2,2.7-0.8,2.4-0.8,2.4s-1-2-0.8-3.9C160.6,165.8,160.4,165.1,160.4,165.1
		L160.4,165.1z"/>
	<path class="st9" d="M163.5,166.8c0,0-1.4,0.3-1.5,2.2c-0.1,1.8,1.2,2.6,1.2,2.6s1.4,0.3,1.2-1.5c-0.1-1.8-0.9-1.5-1.1-2.2
		C163.1,167.3,163.5,166.8,163.5,166.8L163.5,166.8z"/>
	<path class="st9" d="M167.4,163.6c0,0-1.4,0.2-1.7,1.5c-0.1,0.6,0,1.4,0.2,2.2c0.2,0.8-0.2,2.9-0.2,2.9h8.8c0,0-2.2-2.5-3.3-3.2
		c0,1.2-0.1,1.9-1.4,2c-1.3,0-1.1-1.1-1.1-1.1s-0.5,0.5-1.3,0c-0.8-0.5-0.3-1.8-0.3-1.8s-0.2,0.1-0.4-0.6
		C166.6,164.7,167.4,163.6,167.4,163.6L167.4,163.6z"/>
	<path class="st9" d="M173.1,170c0,0-0.7-3.1,0.6-4.7c1.2-1.7,2.7-0.7,2.8,0c-0.8-0.6-1.5,0.1-1.7,0.7c-0.6,1.9,2.4,3.4,2.2,4.5
		C176.7,171.6,173.1,170,173.1,170L173.1,170z"/>
	<path class="st9" d="M183.2,171.5c0,0,3.7-2.8,2.7-6c-0.6-1.8-2.4-1.1-2.4-1.1s1.4,0.3,1.2,1.9c-0.2,2-1.5,2.7-1.5,2.7
		s-0.2-0.7-0.8-0.9c-0.4,0.6-0.7,1-0.9,0.9c-0.3-0.1,0.2-1.9,0.2-1.9s-1.6,0.9-1.9,2.1c-0.8-0.2-1.5-1.5-1.5-1.5s-1.9,0.7-2.2,2.4
		C175.7,172.2,183.2,171.5,183.2,171.5L183.2,171.5z"/>
	<path class="st0" d="M172,226.5l-1.4-5l-0.2-2.3v-21.8l-0.1-0.1c-0.1-0.1-3.1-1.9-7.4-2c-2.7,0-5.9,1.1-8.4,1.9
		c-1.5,0.5-2.8,1-3.7,1.1c-0.7,0.1-1.3,0.1-1.9,0.1c-0.9,0-1.3-0.1-1.3-0.1l-0.3-0.1l-0.7,1.6l-3.5,0l-0.9,2.1h-2.6l-11.3,20
		l0.7,2.6l38.9-1.2l1.8,3.7h2.2L172,226.5L172,226.5L172,226.5z"/>
	<path class="st4" d="M170.1,222.1L170.1,222.1l0.7,2.1l-2.4-2.6h-18.9c1.6-0.3,3-0.8,4.5-1.2c2.6-0.8,5.2-1.6,7.8-1.5
		C167.2,219.1,170.1,222.1,170.1,222.1L170.1,222.1z"/>
	<path class="st4" d="M139.6,218.6c0.7,0.2,2.4,0.6,4.5,0.6c0.6,0,1.3,0,2-0.1c1.2-0.2,3-0.8,5.1-1.4c4-1.3,8.9-2.9,12-2.4
		c3.9,0.6,5.6,2.2,6.3,3.1c-1.2-0.7-3.5-1.8-7.1-1.8c-0.3,0-0.7,0-1,0c-3.3,0.2-6.2,1.2-9.1,2.2c-2.5,0.9-4.8,1.7-7.1,1.9
		c-0.7,0.1-1.5,0.1-2.1,0.1c-2.4,0-3.5-0.4-4-0.6L139.6,218.6L139.6,218.6z"/>
	<path class="st4" d="M147.7,198.9c0.2,0,0.6,0.1,1.2,0.1c0.6,0,1.2,0,2-0.1c0.9-0.1,2.3-0.6,3.8-1.1c2.5-0.9,5.6-1.9,8.2-1.9
		c3.6,0.1,6.3,1.5,6.9,1.8v20.1c-0.8-1-2.7-2.6-6.6-3.2c-3.2-0.5-8.2,1.2-12.2,2.5c-2.1,0.7-3.9,1.3-5,1.4c-2.6,0.4-5.3-0.2-6.1-0.4
		L147.7,198.9L147.7,198.9z"/>
	<path class="st4" d="M143.7,200.4l2.8,0l-8.2,19.9l0.2,0.1c0,0,1.1,0.8,4.5,0.8c0.7,0,1.4,0,2.2-0.1c2.4-0.2,4.8-1,7.3-1.9
		c2.8-1,5.7-2,8.9-2.2c0.3,0,0.7,0,1,0c4.6,0,7.1,1.9,7.5,2.3l0.1,1.7l-0.1,0l0,0.1c-1.2-0.9-3.9-2.6-8-2.8c-2.8-0.1-5.3,0.7-8,1.5
		c-2.9,0.9-5.8,1.8-9.5,1.8c-5.9,0-8.4-1.4-9-1.8L143.7,200.4L143.7,200.4z"/>
	<path class="st4" d="M140.1,202.5h2l-7.6,17.4l0.2,0.1c0.1,0.1,1,0.9,3.6,1.5h-9L140.1,202.5L140.1,202.5z"/>
	<polygon class="st4" points="168.5,222.8 129.7,223.9 129.2,222.2 168.1,222.2 171.1,225.5 171.4,226.5 170.3,226.5 168.5,222.8 	
		"/>
	<path class="st0" d="M171.6,226.5v0.6h2.2l1.8-3.7l38.9,1.2l0.7-2.6l-11.3-20h-2.6l-0.9-2.1l-3.5,0l-0.7-1.6l-0.3,0.1
		c0,0-0.4,0.1-1.3,0.1c-0.6,0-1.2,0-1.9-0.1c-0.9-0.1-2.2-0.6-3.7-1.1c-2.5-0.9-5.7-2-8.4-1.9c-4.3,0.1-7.2,1.9-7.4,2l-0.1,0.1v21.8
		l-0.2,2.3L171.6,226.5L171.6,226.5L171.6,226.5z"/>
	<path class="st4" d="M181.9,218.9c2.7-0.1,5.2,0.7,7.8,1.5c1.4,0.4,2.9,0.9,4.5,1.2h-18.9l-2.4,2.6l0.6-2l0.1-0.1
		C173.6,222.1,176.5,219.1,181.9,218.9L181.9,218.9z"/>
	<path class="st4" d="M204.7,220.1c-0.4,0.2-1.6,0.6-4,0.6c-0.7,0-1.4,0-2.1-0.1c-2.3-0.2-4.7-1-7.1-1.9c-2.9-1-5.8-2-9.1-2.2
		c-0.3,0-0.7,0-1,0c-3.6,0-5.9,1.1-7.1,1.8c0.7-0.9,2.4-2.6,6.3-3.1c3-0.5,8,1.1,12,2.4c2.1,0.7,3.9,1.3,5.1,1.4
		c0.7,0.1,1.3,0.1,2,0.1c2.1,0,3.9-0.4,4.5-0.6L204.7,220.1L204.7,220.1z"/>
	<path class="st4" d="M203.8,218c-0.9,0.2-3.5,0.8-6.1,0.4c-1.1-0.2-2.9-0.7-5-1.4c-4-1.3-9-2.9-12.2-2.5c-3.9,0.6-5.8,2.2-6.6,3.2
		v-20.1c0.6-0.4,3.3-1.8,6.9-1.8c2.6,0,5.7,1,8.2,1.9c1.6,0.5,2.9,1,3.8,1.1c0.7,0.1,1.4,0.1,2,0.1c0.6,0,0.9,0,1.2-0.1L203.8,218
		L203.8,218z"/>
	<path class="st4" d="M208.4,219.8c-0.6,0.4-3.1,1.9-9,1.8c-3.6,0-6.6-0.9-9.5-1.8c-2.7-0.8-5.2-1.6-8-1.5c-4.2,0.1-6.9,1.9-8,2.8
		l0-0.1l-0.1,0l0.1-1.7c0.5-0.4,2.9-2.3,7.5-2.3c0.3,0,0.7,0,1,0c3.2,0.2,6.1,1.2,8.9,2.2c2.5,0.9,4.9,1.7,7.3,1.9
		c0.8,0.1,1.5,0.1,2.2,0.1c3.4,0,4.5-0.8,4.5-0.8l0.2-0.1l-8.2-19.9l2.8,0L208.4,219.8L208.4,219.8z"/>
	<path class="st4" d="M214.4,221.6h-9c2.5-0.6,3.5-1.5,3.6-1.5l0.2-0.1l-7.6-17.4h2L214.4,221.6L214.4,221.6z"/>
	<polygon class="st4" points="173.4,226.5 172.3,226.5 172.6,225.5 175.6,222.2 214.5,222.2 214,223.9 175.2,222.8 173.4,226.5 	"/>
	<path class="st11" d="M187.1,170.1h-30.6c0,0-0.3,4.1,2.2,7.2c2.5,3.1,5.8,4.3,5.8,4.3l5.6,51.3c0,0-1.2,0-1.3,0.3
		c-0.4,1.1,1.8,3.5,3,3.5c1.2,0,3.3-2.4,3-3.5c-0.1-0.3-1.3-0.3-1.3-0.3l5.6-51.3c0,0,3.4-1.2,5.8-4.3
		C187.5,174.2,187.1,170.1,187.1,170.1L187.1,170.1z"/>
	<path class="st12" d="M170.2,232.9c0,0-1.2,0-1.3,0.3c-0.4,1.1,1.8,3.5,3,3.5c1.2,0,3.3-2.4,3-3.5c-0.1-0.3-1.3-0.3-1.3-0.3
		l3.6-32.5h-10.5L170.2,232.9L170.2,232.9z"/>
	<path class="st13" d="M172.2,181.4c-3.2,0-5.9,0.8-7.5,1.5l0.3,3c1.1-0.5,3.9-1.6,7.1-1.6c3.2,0,5.6,1.1,6.5,1.5l0.3-3.1
		C177.5,182.2,175.2,181.4,172.2,181.4L172.2,181.4z"/>
	<polygon class="st14" points="169.2,202.7 171,233.5 168,202.8 169.2,202.7 	"/>
	<polygon class="st14" points="171,200.5 171.6,233.6 169.8,200.5 171,200.5 	"/>
	<polygon class="st14" points="174.3,202.7 172.5,233.5 175.5,202.8 174.3,202.7 	"/>
	<polygon class="st14" points="172.5,200.5 171.9,233.6 173.7,200.5 172.5,200.5 	"/>
	<polygon class="st14" points="167,203.9 176.7,203.9 178.1,191.8 165.7,191.8 167,203.9 	"/>
	<path class="st4" d="M173.9,196.6c-0.4,0.2-1.1,0.3-1.2,0.3c0-0.1,0.1-0.9,0.3-1.4c0.4-1.1,1.1-1.8,1.1-1.8h-2.2h-2.2
		c0,0,0.6,0.7,1.1,1.8c0.2,0.5,0.3,1.3,0.3,1.4c-0.1,0-0.8-0.1-1.2-0.3c-0.9-0.4-1.5-1.2-1.5-1.2v2.4v2.4c0,0,0.6-0.7,1.5-1.2
		c0.4-0.2,1.1-0.3,1.2-0.3c0,0.2-0.1,1-0.3,1.4c-0.4,1.1-1.1,1.8-1.1,1.8h2.2h2.2c0,0-0.7-0.7-1.1-1.8c-0.2-0.5-0.2-1.3-0.3-1.4
		c0.1,0,0.8,0.1,1.2,0.3c0.9,0.5,1.5,1.2,1.5,1.2v-2.4v-2.4C175.5,195.5,174.9,196.2,173.9,196.6L173.9,196.6z"/>
	<path class="st12" d="M175,187.8c-0.6,0-1.1,0.1-1.6,0.2c0,0,0,0,0,0c0-0.7-0.3-1.3-0.8-1.6v-1.6h-1.2v1.6
		c-0.4,0.3-0.8,0.9-0.8,1.6c0,0,0,0,0,0c-0.5-0.1-1.1-0.2-1.6-0.2c-1.4,0-2.7,0.5-3.7,1.2l0.3,2.9H178l0.3-3.1
		C177.4,188.2,176.3,187.8,175,187.8L175,187.8z"/>
	<path class="st14" d="M168.4,190c0,0.6-0.4,1-0.8,1c-0.5,0-0.8-0.5-0.8-1c0-0.6,0.4-1,0.8-1C168,189,168.4,189.4,168.4,190
		L168.4,190z"/>
	<path class="st14" d="M171.2,190c0,0.6-0.4,1-0.8,1c-0.5,0-0.8-0.5-0.8-1c0-0.6,0.4-1,0.8-1C170.8,189,171.2,189.4,171.2,190
		L171.2,190z"/>
	<path class="st14" d="M174.2,190c0,0.6-0.4,1-0.8,1c-0.5,0-0.8-0.5-0.8-1c0-0.6,0.4-1,0.8-1C173.9,189,174.2,189.4,174.2,190
		L174.2,190z"/>
	<path class="st14" d="M177.1,190c0,0.6-0.4,1-0.8,1c-0.5,0-0.8-0.5-0.8-1c0-0.6,0.4-1,0.8-1C176.7,189,177.1,189.4,177.1,190
		L177.1,190z"/>
	<path class="st11" d="M169.4,225.6l0.8,7.4c0,0-1.2,0-1.3,0.3c-0.4,1.1,1.8,3.5,3,3.5c1.2,0,3.3-2.4,3-3.5
		c-0.1-0.3-1.3-0.3-1.3-0.3l0.8-7.4l-2.5,3.8L169.4,225.6L169.4,225.6z"/>
	<path class="st15" d="M146.3,212.3l0.5-0.4c0.1,0.2,0.3,0.3,0.5,0.3c0.2,0,0.3,0,0.5-0.1c0.2-0.1,0.3-0.2,0.3-0.4
		c0-0.1,0-0.3,0-0.4c0-0.1-0.1-0.1-0.2-0.2c-0.1,0-0.2,0-0.3,0c-0.1,0-0.3,0.1-0.5,0.1c-0.3,0.1-0.6,0.1-0.8,0.1
		c-0.3-0.1-0.5-0.2-0.6-0.5c-0.1-0.2-0.1-0.3-0.1-0.5c0-0.2,0.1-0.4,0.2-0.5c0.1-0.2,0.3-0.3,0.5-0.4c0.3-0.2,0.7-0.3,0.9-0.2
		c0.3,0.1,0.5,0.2,0.7,0.5l-0.5,0.3c-0.1-0.1-0.2-0.2-0.3-0.2c-0.1,0-0.3,0-0.4,0.1c-0.2,0.1-0.3,0.2-0.3,0.3c0,0.1,0,0.2,0,0.2
		c0,0.1,0.1,0.1,0.2,0.1c0.1,0,0.3,0,0.6-0.1c0.3-0.1,0.6-0.1,0.7-0.1c0.2,0,0.3,0,0.5,0.1c0.1,0.1,0.3,0.2,0.4,0.4
		c0.1,0.2,0.2,0.4,0.2,0.6c0,0.2-0.1,0.4-0.2,0.6c-0.1,0.2-0.3,0.3-0.5,0.5c-0.4,0.2-0.7,0.3-1,0.2
		C146.8,212.8,146.5,212.6,146.3,212.3L146.3,212.3z"/>
	<path class="st15" d="M150.7,209.6l0.7-0.1c0.1,0.4,0.1,0.7,0,1c-0.1,0.3-0.3,0.5-0.6,0.7c-0.4,0.2-0.8,0.2-1.1,0.1
		c-0.4-0.1-0.7-0.4-1-0.9c-0.3-0.5-0.4-1-0.3-1.4c0.1-0.4,0.3-0.7,0.7-1c0.3-0.2,0.7-0.2,1-0.1c0.2,0.1,0.4,0.2,0.6,0.4l-0.5,0.5
		c-0.1-0.1-0.3-0.2-0.4-0.3c-0.2,0-0.3,0-0.5,0.1c-0.2,0.1-0.3,0.3-0.4,0.5c0,0.2,0.1,0.5,0.3,0.9c0.2,0.4,0.4,0.6,0.7,0.7
		c0.2,0.1,0.4,0.1,0.6,0c0.1-0.1,0.2-0.2,0.3-0.4C150.8,210,150.8,209.8,150.7,209.6L150.7,209.6z"/>
	<polygon class="st15" points="152.4,210.1 150.6,207.1 151.2,206.8 152.9,209.8 152.4,210.1 	"/>
	<polygon class="st15" points="153.4,209.5 151.7,206.4 153.7,205.3 154,205.8 152.5,206.6 152.9,207.3 154.3,206.5 154.6,207 
		153.2,207.8 153.7,208.7 155.3,207.8 155.6,208.3 153.4,209.5 	"/>
	<polygon class="st15" points="156,208 154.3,205 154.8,204.6 157.1,206 155.9,204 156.5,203.7 158.2,206.7 157.7,207.1 
		155.4,205.7 156.6,207.7 156,208 	"/>
	<polygon class="st15" points="159.4,206 158,203.5 157.2,204 156.9,203.5 159.1,202.2 159.4,202.7 158.5,203.2 160,205.7 
		159.4,206 	"/>
	<polygon class="st15" points="161.2,205 159.4,202 160,201.7 161.7,204.7 161.2,205 	"/>
	<path class="st15" d="M164.8,203l-0.6,0.4l-0.6-0.6l-1.1,0.6l0.2,0.8l-0.6,0.3l-0.7-3.7l0.6-0.3L164.8,203L164.8,203z M163,202.4
		l-1-0.9l0.3,1.3L163,202.4L163,202.4z"/>
	<polygon class="st15" points="178.7,203.1 180.4,200.1 182.5,201.3 182.2,201.8 180.7,200.9 180.3,201.6 181.7,202.4 181.4,202.9 
		180,202.1 179.5,202.9 181.1,203.8 180.8,204.3 178.7,203.1 	"/>
	<polygon class="st15" points="181.9,205 183.3,202.4 182.5,202 182.8,201.5 185,202.7 184.7,203.2 183.9,202.8 182.4,205.3 
		181.9,205 	"/>
	<polygon class="st15" points="185.4,207 186.2,203.4 186.8,203.7 186.2,206.4 188.1,204.5 188.7,204.9 186,207.4 185.4,207 	"/>
	<polygon class="st15" points="187.3,208.1 189,205 189.6,205.4 187.8,208.4 187.3,208.1 	"/>
	<path class="st15" d="M188.3,208.7l1.8-3l1.2,0.7c0.3,0.2,0.5,0.3,0.6,0.5c0.1,0.1,0.2,0.3,0.2,0.5c0,0.2-0.1,0.4-0.2,0.5
		c-0.1,0.2-0.3,0.4-0.5,0.5c-0.2,0.1-0.4,0.1-0.7,0c0.1,0.1,0.1,0.3,0.2,0.4c0,0.1,0,0.4,0,0.7l0,0.8l-0.7-0.4l0-0.9
		c0-0.3,0-0.5,0-0.6c0-0.1,0-0.2-0.1-0.2c0-0.1-0.1-0.1-0.3-0.2l-0.1-0.1l-0.7,1.3L188.3,208.7L188.3,208.7z M189.9,207.3l0.4,0.2
		c0.3,0.2,0.4,0.2,0.5,0.3c0.1,0,0.2,0,0.2,0c0.1,0,0.1-0.1,0.2-0.2c0.1-0.1,0.1-0.2,0.1-0.3c0-0.1-0.1-0.2-0.1-0.2
		c0,0-0.2-0.1-0.4-0.2l-0.4-0.3L189.9,207.3L189.9,207.3z"/>
	<polygon class="st15" points="191.8,210.7 193.2,208.2 192.4,207.7 192.7,207.2 194.9,208.4 194.6,209 193.8,208.5 192.3,211 
		191.8,210.7 	"/>
	<path class="st15" d="M195.3,208.6l0.6,0.3l-1,1.6c-0.2,0.3-0.2,0.4-0.3,0.5c0,0.1,0,0.3,0,0.4c0,0.1,0.1,0.2,0.3,0.3
		c0.2,0.1,0.3,0.1,0.4,0.1c0.1,0,0.2-0.1,0.3-0.2c0.1-0.1,0.2-0.3,0.3-0.5l1-1.7l0.6,0.3l-0.9,1.6c-0.2,0.4-0.4,0.6-0.5,0.7
		c-0.1,0.1-0.2,0.2-0.4,0.3c-0.1,0.1-0.3,0.1-0.5,0.1c-0.2,0-0.4-0.1-0.6-0.2c-0.3-0.2-0.4-0.3-0.5-0.4c-0.1-0.1-0.2-0.3-0.2-0.4
		c0-0.2,0-0.3,0-0.4c0.1-0.2,0.2-0.5,0.4-0.8L195.3,208.6L195.3,208.6z"/>
	<path class="st15" d="M196.7,212.2l0.6,0.3c-0.1,0.2-0.1,0.4-0.1,0.6c0,0.2,0.2,0.3,0.3,0.4c0.2,0.1,0.3,0.1,0.5,0.1
		c0.1,0,0.2-0.1,0.3-0.2c0-0.1,0.1-0.1,0-0.2c0-0.1-0.1-0.2-0.1-0.2c-0.1-0.1-0.2-0.2-0.4-0.4c-0.3-0.3-0.4-0.5-0.5-0.7
		c-0.1-0.3,0-0.5,0.1-0.8c0.1-0.2,0.2-0.3,0.4-0.4c0.2-0.1,0.3-0.1,0.5-0.1c0.2,0,0.4,0.1,0.6,0.2c0.3,0.2,0.6,0.4,0.6,0.7
		c0.1,0.3,0,0.5-0.1,0.8L199,212c0.1-0.2,0.1-0.3,0-0.4c0-0.1-0.1-0.2-0.3-0.3c-0.2-0.1-0.3-0.1-0.4-0.1c-0.1,0-0.2,0.1-0.2,0.1
		c0,0.1,0,0.2,0,0.2c0,0.1,0.2,0.3,0.4,0.5c0.2,0.2,0.4,0.4,0.5,0.6c0.1,0.2,0.1,0.3,0.1,0.5c0,0.2-0.1,0.4-0.2,0.5
		c-0.1,0.2-0.2,0.3-0.4,0.4c-0.2,0.1-0.4,0.1-0.6,0.1c-0.2,0-0.4-0.1-0.7-0.2c-0.3-0.2-0.6-0.4-0.7-0.7
		C196.5,212.9,196.6,212.6,196.7,212.2L196.7,212.2z"/>
	<path d="M84.5,492.6l13-31.3c1-2.4,1.7-3.8,2.1-4.2c0.3-0.4,0.9-0.6,1.8-0.7c0.3,0,0.6,0,1.1-0.1l0.5,0v-2.4H92.1v2.4l0.5,0l1.5,0
		c1.1,0,1.6,0.3,1.6,1c0,0.2-0.2,0.9-0.5,1.9c-0.4,1-0.6,1.7-0.8,2.2L86,481.4l-8.6-20.2c-0.9-2.1-1.3-3.4-1.3-3.9
		c0-0.7,0.3-1,1-1.1c0.7,0,1.3,0,2-0.1l0.5,0v-2.4H63v2.4l0.5,0c1.6,0.1,2.5,0.3,2.7,0.5c0.2,0.2,0.9,1.7,2.2,4.5l13.5,31.3H84.5
		L84.5,492.6z M104.8,463.7v2.4l0.5,0c1.7,0.1,2.8,0.4,3.1,0.9c0.3,0.5,0.5,1.9,0.5,4.2v13.4c0,2.3-0.2,3.7-0.5,4.2
		c-0.3,0.5-1.4,0.8-3.1,0.9l-0.5,0v2.4h15.9v-2.4l-0.5,0c-1.7-0.1-2.8-0.4-3.1-0.9c-0.4-0.5-0.5-1.9-0.5-4.2v-20.9H104.8
		L104.8,463.7z M116.6,458.9v-7.7h-7.7v7.7H116.6L116.6,458.9z M148.3,487.9c-2.4,1-4.7,1.4-6.6,1.4c-3.2,0-5.6-1-7.2-3
		c-1.6-2-2.4-5-2.4-9.1c0-3.9,0.6-6.9,1.8-8.8c1.2-2,3-2.9,5.4-2.9c2,0,3.5,0.6,4.5,1.8c0.4,0.5,0.6,1.8,0.8,3.9l0,0.5h3.7v-7.3
		c-3.1-0.9-6.2-1.3-9.2-1.3c-4.7,0-8.4,1.3-11.1,3.9c-2.7,2.6-4,6.1-4,10.6c0,4.7,1.4,8.4,4.3,11.1c2.8,2.7,6.7,4,11.7,4
		c2.7,0,5.5-0.4,8.5-1.3V487.9L148.3,487.9z M171.2,489.1c-1,0.4-1.9,0.6-2.8,0.6c-1.6,0-2.6-0.4-3.1-1.2c-0.5-0.8-0.7-2.5-0.7-5
		v-17.2h6.3v-2.6h-6.3v-6.1l-7.7,1.3v4.8h-3.5v2.6h3.5v17c0,3.2,0.8,5.5,2.4,7.1c1.6,1.6,4,2.4,7.2,2.4c1.5,0,3.1-0.3,4.7-0.9V489.1
		L171.2,489.1z M200.8,488.8c2.6-2.6,3.9-6.3,3.9-10.9c0-4.6-1.3-8.2-3.9-10.9c-2.6-2.6-6.2-4-10.8-4c-4.6,0-8.2,1.3-10.8,4
		c-2.6,2.6-3.9,6.3-3.9,10.9c0,4.6,1.3,8.2,3.9,10.9c2.6,2.6,6.2,4,10.8,4C194.6,492.7,198.2,491.4,200.8,488.8L200.8,488.8z
		 M185.2,487c-1.1-2-1.6-5.1-1.6-9.1c0-4.1,0.5-7.1,1.6-9.1c1.1-2,2.6-3,4.7-3c2.1,0,3.7,1,4.7,3c1,2,1.6,5.1,1.6,9.1
		c0,4-0.5,7.1-1.6,9.1c-1,2-2.6,3-4.7,3C187.9,490,186.3,489,185.2,487L185.2,487z M225.3,468.2c0.7,0,1.2,0.1,1.3,0.4
		c0.1,0.2,0.2,1.3,0.4,3.2l0,0.5h3.5v-9.1c-0.6-0.1-1.1-0.2-1.5-0.2c-3.7,0-6.7,2-9.1,6v-5.4h-11.8v2.4l0.5,0
		c1.7,0.1,2.8,0.4,3.1,0.9c0.3,0.5,0.5,1.9,0.5,4.2v13.4c0,2.3-0.2,3.7-0.5,4.2c-0.3,0.5-1.4,0.8-3.1,0.9l-0.5,0v2.4h16.6v-2.4
		l-0.5,0c-2.1-0.1-3.4-0.4-3.7-0.9c-0.4-0.4-0.6-1.8-0.6-4.2v-12.8C221.3,469.4,223.1,468.2,225.3,468.2L225.3,468.2L225.3,468.2z
		 M233.7,463.7v2.4l0.5,0c1.7,0.1,2.8,0.4,3.1,0.9c0.3,0.5,0.5,1.9,0.5,4.2v13.4c0,2.3-0.2,3.7-0.5,4.2c-0.3,0.5-1.4,0.8-3.1,0.9
		l-0.5,0v2.4h15.9v-2.4l-0.5,0c-1.7-0.1-2.8-0.4-3.1-0.9c-0.4-0.5-0.5-1.9-0.5-4.2v-20.9H233.7L233.7,463.7z M245.5,458.9v-7.7h-7.7
		v7.7H245.5L245.5,458.9z M272.1,491.7c1,0.7,2.3,1,3.6,1c1.3,0,2.6-0.2,3.9-0.6l-0.3-2.4c-0.3,0.1-0.6,0.2-0.9,0.2
		c-0.9,0-1.5-0.4-1.8-1.2c-0.3-0.8-0.5-2.3-0.5-4.5v-12.5c0-2.8-1-4.9-2.9-6.4c-1.9-1.5-4.7-2.2-8.3-2.2c-3.6,0-7,0.7-10.3,2.2v5.7
		h4.2l0-0.5c0.1-2,0.3-3.1,0.7-3.5c1-1.1,2.5-1.6,4.6-1.6c1.7,0,2.8,0.4,3.4,1.3c0.6,0.9,0.9,2.5,0.9,5v3.4h-1.3
		c-3.1,0-5.6,0.2-7.3,0.6c-1.7,0.4-3.2,1.1-4.5,2.1c-2.1,1.7-3.2,3.9-3.2,6.6c0,2.4,0.8,4.3,2.5,5.9c1.7,1.6,3.7,2.3,6.3,2.3
		c1.5,0,2.9-0.3,4.4-1c1.4-0.7,2.8-1.6,4.2-2.9C270.3,490.1,271.1,491.1,272.1,491.7L272.1,491.7z M266.6,488.2
		c-0.7,0.3-1.4,0.4-2.2,0.4c-1.4,0-2.5-0.5-3.3-1.4c-0.8-0.9-1.2-2.1-1.2-3.6c0-2.1,0.6-3.6,1.9-4.6c1.3-1,3.2-1.5,5.8-1.5h1v9.4
		C267.9,487.5,267.2,487.9,266.6,488.2L266.6,488.2z"/>
	<path d="M60.4,421.9c0-2.3,0.2-3.7,0.5-4.1c0.4-0.5,1.4-0.8,3.1-0.9l0.5-0.1v-2.4H48.3v2.4l0.5,0.1c1.8,0.1,2.8,0.4,3.2,0.9
		c0.3,0.5,0.5,1.8,0.5,4.1v7.1c-1.3,0.4-2.6,0.6-3.8,0.6c-4.2,0-7.3-1.5-9.4-4.4c-2.1-2.9-3.1-7.3-3.1-13.2c0-5.8,1-10.2,2.9-13.2
		c2-2.9,4.9-4.4,8.8-4.4c3.6,0,6.3,0.7,7.9,2.3c0.6,0.5,0.9,1.9,0.9,4v0.5h3.8v-7.6c-4.3-1.1-8.5-1.7-12.5-1.7
		c-6.5,0-11.5,1.7-15,5.2c-3.5,3.5-5.3,8.4-5.3,14.8c0,6.2,1.8,11.1,5.3,14.7c3.6,3.6,8.4,5.4,14.4,5.4c3.4,0,7.8-0.6,13.1-1.7
		V421.9L60.4,421.9z M100.3,431.3v-2.4l-0.5,0c-1.7-0.1-2.8-0.4-3.1-0.9c-0.4-0.5-0.5-1.9-0.5-4.2v-20.9H84.4v2.4l0.5,0
		c1.8,0.1,2.8,0.4,3.2,0.9c0.3,0.5,0.5,1.9,0.5,4.2v12.7c-1,1.4-2.1,2.4-3.2,3.2c-1.1,0.7-2.3,1.1-3.5,1.1c-1.3,0-2.3-0.4-2.8-1.1
		c-0.5-0.7-0.8-2.1-0.8-4.1v-19.2H66.5v2.4l0.5,0c1.7,0.1,2.8,0.4,3.1,0.9c0.3,0.5,0.5,1.9,0.5,4.2V423c0,2.8,0.7,5,2.2,6.6
		c1.4,1.6,3.4,2.4,6,2.4c2.1,0,3.9-0.5,5.6-1.5c1.6-1,3-2.5,4.2-4.5v5.4H100.3L100.3,431.3z M123.1,431c1,0.7,2.3,1,3.6,1
		c1.3,0,2.6-0.2,3.9-0.6l-0.3-2.4c-0.3,0.1-0.6,0.2-0.9,0.2c-0.9,0-1.5-0.4-1.8-1.2c-0.3-0.8-0.5-2.3-0.5-4.5v-12.5
		c0-2.8-1-4.9-2.9-6.4c-1.9-1.5-4.7-2.2-8.2-2.2c-3.6,0-7,0.7-10.3,2.2v5.7h4.2l0-0.5c0.1-2,0.3-3.1,0.7-3.5c1-1.1,2.5-1.6,4.6-1.6
		c1.7,0,2.8,0.4,3.4,1.3s0.9,2.5,0.9,5v3.4h-1.3c-3.1,0-5.6,0.2-7.3,0.6c-1.7,0.4-3.2,1.1-4.5,2.1c-2.1,1.7-3.2,3.9-3.2,6.6
		c0,2.4,0.8,4.3,2.5,5.9c1.7,1.6,3.7,2.3,6.3,2.3c1.5,0,2.9-0.3,4.4-1c1.4-0.7,2.8-1.6,4.2-2.9C121.2,429.4,122.1,430.3,123.1,431
		L123.1,431z M117.5,427.5c-0.7,0.3-1.4,0.4-2.2,0.4c-1.4,0-2.5-0.5-3.3-1.4c-0.8-0.9-1.2-2.1-1.2-3.6c0-2.1,0.6-3.6,1.9-4.6
		c1.3-1,3.2-1.5,5.8-1.5h1v9.4C118.9,426.7,118.2,427.2,117.5,427.5L117.5,427.5z M166.6,431.3v-2.4l-0.5,0
		c-1.7-0.1-2.8-0.4-3.1-0.9c-0.3-0.5-0.5-1.9-0.5-4.2v-33.3h-11.8v2.4l0.5,0.1c1.8,0.1,2.8,0.4,3.1,0.9c0.3,0.5,0.5,1.9,0.5,4.2v7.8
		c-1.2-1.2-2.4-2.1-3.8-2.6c-1.4-0.6-2.9-0.9-4.4-0.9c-3.7,0-6.6,1.4-8.8,4.2c-2.2,2.8-3.3,6.6-3.3,11.3c0,4.3,1,7.8,2.9,10.3
		c1.9,2.6,4.5,3.8,7.8,3.8c2.1,0,4-0.5,5.6-1.5c1.6-1,2.9-2.5,4-4.5v5.4H166.6L166.6,431.3z M154.8,423.3c-1,1.2-2.1,2.2-3.1,2.8
		c-1.1,0.6-2.2,0.9-3.3,0.9c-1.9,0-3.3-0.8-4.3-2.5c-1-1.7-1.4-4.2-1.4-7.5c0-3.7,0.5-6.5,1.6-8.3c1.1-1.8,2.7-2.8,4.9-2.8
		c0.9,0,1.8,0.2,2.8,0.7c0.9,0.5,1.9,1.1,3,2.1V423.3L154.8,423.3z M189.2,431c1,0.7,2.3,1,3.6,1c1.3,0,2.6-0.2,3.9-0.6l-0.3-2.4
		c-0.3,0.1-0.6,0.2-0.9,0.2c-0.9,0-1.5-0.4-1.8-1.2c-0.3-0.8-0.5-2.3-0.5-4.5v-12.5c0-2.8-1-4.9-2.9-6.4c-1.9-1.5-4.7-2.2-8.2-2.2
		c-3.6,0-7,0.7-10.3,2.2v5.7h4.2l0-0.5c0.1-2,0.3-3.1,0.7-3.5c1-1.1,2.5-1.6,4.6-1.6c1.7,0,2.8,0.4,3.4,1.3c0.6,0.9,0.9,2.5,0.9,5
		v3.4h-1.3c-3.1,0-5.6,0.2-7.3,0.6c-1.7,0.4-3.2,1.1-4.5,2.1c-2.1,1.7-3.2,3.9-3.2,6.6c0,2.4,0.8,4.3,2.5,5.9
		c1.7,1.6,3.7,2.3,6.3,2.3c1.5,0,2.9-0.3,4.4-1c1.4-0.7,2.8-1.6,4.2-2.9C187.3,429.4,188.2,430.3,189.2,431L189.2,431z M183.6,427.5
		c-0.7,0.3-1.4,0.4-2.2,0.4c-1.4,0-2.5-0.5-3.3-1.4c-0.8-0.9-1.2-2.1-1.2-3.6c0-2.1,0.6-3.6,1.9-4.6c1.3-1,3.2-1.5,5.8-1.5h1v9.4
		C185,426.7,184.3,427.2,183.6,427.5L183.6,427.5z M199.6,390.5v2.4l0.5,0.1c1.7,0.1,2.8,0.4,3.1,0.9c0.3,0.5,0.5,1.9,0.5,4.2v25.8
		c0,2.3-0.2,3.7-0.5,4.2c-0.3,0.5-1.4,0.8-3.1,0.9l-0.5,0v2.4h15.9v-2.4l-0.5,0c-1.7-0.1-2.8-0.4-3.1-0.9c-0.4-0.5-0.5-1.9-0.5-4.2
		v-33.3H199.6L199.6,390.5z M250.9,431.3v-2.4l-0.5,0c-1.7-0.1-2.8-0.4-3.1-0.9c-0.4-0.5-0.5-1.9-0.5-4.2v-20.9H235v2.4l0.5,0
		c1.8,0.1,2.8,0.4,3.2,0.9c0.3,0.5,0.5,1.9,0.5,4.2v12.7c-1,1.4-2.1,2.4-3.2,3.2c-1.1,0.7-2.3,1.1-3.5,1.1c-1.3,0-2.2-0.4-2.8-1.1
		c-0.5-0.7-0.8-2.1-0.8-4.1v-19.2h-11.8v2.4l0.5,0c1.7,0.1,2.8,0.4,3.1,0.9c0.3,0.5,0.5,1.9,0.5,4.2V423c0,2.8,0.7,5,2.2,6.6
		c1.4,1.6,3.4,2.4,6,2.4c2.1,0,3.9-0.5,5.6-1.5c1.6-1,3-2.5,4.2-4.5v5.4H250.9L250.9,431.3z M269,431.1c1.4,0.6,2.8,0.9,4.3,0.9
		c3.6,0,6.5-1.4,8.6-4.2c2.2-2.8,3.2-6.6,3.2-11.3c0-4.3-1-7.8-2.9-10.3c-1.9-2.6-4.5-3.8-7.7-3.8c-2.1,0-3.9,0.5-5.5,1.5
		c-1.6,1-2.9,2.5-4,4.5v-5.4h-11.8v2.4l0.5,0c1.7,0.1,2.8,0.4,3.1,0.9c0.3,0.5,0.5,1.9,0.5,4.2v23.6c0,2.3-0.2,3.7-0.5,4.2
		c-0.3,0.5-1.4,0.8-3.1,0.9l-0.5,0v2.4h15.9v-2.4l-0.5,0c-1.7-0.1-2.8-0.4-3.1-0.9c-0.4-0.5-0.5-1.9-0.5-4.2v-5.6
		C266.4,429.6,267.7,430.5,269,431.1L269,431.1z M265.2,411c1-1.2,2-2.2,3.1-2.8c1.1-0.6,2.1-0.9,3.2-0.9c1.9,0,3.2,0.8,4.2,2.5
		c0.9,1.7,1.4,4.2,1.4,7.5c0,3.7-0.5,6.5-1.6,8.3c-1,1.9-2.6,2.8-4.7,2.8c-0.9,0-1.7-0.2-2.7-0.7s-1.9-1.1-2.9-2.1V411L265.2,411z
		 M315.6,426.3c-2.9,1.2-5.4,1.9-7.7,1.9c-3.3,0-5.9-0.9-7.5-2.7c-1.7-1.8-2.5-4.5-2.5-8.1h17.7v-0.6c0-9.7-3.9-14.5-11.8-14.5
		c-4.1,0-7.4,1.3-9.9,4c-2.5,2.7-3.8,6.2-3.8,10.5c0,4.7,1.4,8.4,4.2,11.1c2.8,2.7,6.7,4.1,11.5,4.1c3.2,0,6.5-0.6,9.9-1.8V426.3
		L315.6,426.3z M299.4,407.3c0.9-1.7,2.3-2.6,4.1-2.6c1.7,0,2.9,0.7,3.6,2.1c0.7,1.4,1,3.8,1,7.3v0.9h-10
		C298,411.6,298.5,409,299.4,407.3L299.4,407.3z"/>
	<path d="M35,366c0,6.9,3.8,10.4,11.7,10.4c7.9,0,11.7-3.5,11.7-10.4v-16.1h-3.8v16.6c0,4.7-3.1,6.6-7.9,6.6c-4.7,0-7.9-2-7.9-6.6
		v-16.6H35V366L35,366z M85.6,375.8h4.5v-25.9h-3.8v20.6h-0.1l-16.6-20.6h-4.5v25.9h3.8v-20.6H69L85.6,375.8L85.6,375.8z
		 M97.2,375.8h3.8v-25.9h-3.8V375.8L97.2,375.8z M118.5,371.8l-9.3-21.9h-4.3l11.5,25.9h4.1l11.3-25.9h-4.1L118.5,371.8L118.5,371.8
		z M135.3,375.8h21.2v-3.3h-17.3v-8.4h16.4v-3.3h-16.4v-7.5h17v-3.3h-20.8V375.8L135.3,375.8z M162,375.8h3.8v-11h10
		c3.2,0,4.7,1.4,5,6c0.2,3.1,0.2,4.2,0.8,4.9h4.1c-0.9-1-1-2.2-1.2-7c-0.1-3-1.5-5.2-3.8-5.5v-0.1c2.8-0.9,4.3-3.2,4.3-6.4
		c0-3.3-1.9-6.9-7.1-6.9h-16V375.8L162,375.8z M165.9,361.5v-8.2h10.8c3.1,0,4.6,1.7,4.6,4.1c0,1.8-0.9,4.1-4.7,4.1H165.9
		L165.9,361.5z M188.3,367.3c0,7.1,6,9.2,11.9,9.2c5.2,0,11.1-1.9,11.1-8.5c0-5.3-5.8-6.3-7.8-6.6l-6.3-1.1
		c-3.2-0.5-4.2-1.8-4.2-3.4c0-3,3.2-4.2,6-4.2c6.2,0,7.4,2.8,7.7,4.8h3.8c-0.4-6.2-5.8-8.1-11-8.1c-6.6,0-10.4,3.2-10.4,7.9
		c0,5,4.6,6.3,7.7,6.8l5.9,1c3,0.5,4.8,1.5,4.8,3.8c0,2.8-2.9,4.4-7,4.4c-3.9,0-8.3-1.2-8.3-5.8H188.3L188.3,367.3z M216.1,375.8
		h3.8v-25.9h-3.8V375.8L216.1,375.8z M226.9,375.8h13.3c7.9,0,11.1-6.1,11.1-13.3c0-7.5-3.5-12.6-11.3-12.6h-13.1V375.8L226.9,375.8
		z M230.7,372.4v-19.2h8.6c6.7,0,8.2,4.7,8.2,9.3c0,4.6-1.1,9.9-7.4,9.9H230.7L230.7,372.4z M272.6,364.9h-9.8l4.9-11.4L272.6,364.9
		L272.6,364.9z M277.3,375.8h4.4L270,349.9h-4.4l-11.7,25.9h4.1l3.3-7.5H274L277.3,375.8L277.3,375.8z M285.4,375.8h13.3
		c7.9,0,11.1-6.1,11.1-13.3c0-7.5-3.6-12.6-11.3-12.6h-13.1V375.8L285.4,375.8z M289.2,372.4v-19.2h8.6c6.7,0,8.2,4.7,8.2,9.3
		c0,4.6-1.1,9.9-7.4,9.9H289.2L289.2,372.4z"/>
</g>
</svg>
