<?xml version="1.0" encoding="utf-8"?>
<!-- Generator: Adobe Illustrator 27.2.0, SVG Export Plug-In . SVG Version: 6.00 Build 0)  -->
<svg version="1.1" id="_0785_CTO" transform="scale(1)"
	 xmlns="http://www.w3.org/2000/svg" xmlns:xlink="http://www.w3.org/1999/xlink" x="0px" y="0px" viewBox="0 0 426.7 320.1"
	 style="enable-background:new 0 0 426.7 320.1;" xml:space="preserve">
<style type="text/css">
	.st0{fill:#F25454;}
	.st1{fill:#732A09;}
	.st2{fill:#FFFFFF;}
	.st3{fill:none;stroke:#732A09;stroke-linecap:round;stroke-linejoin:round;}
</style>
<g id="sign_00000149383948708287872560000004525415912393410439_">
	<path class="st0" d="M219.6-128.7v2.6c0,1.3-0.2,2.6-0.7,3.7c-0.5,1.2-1.2,2.2-2.1,3.1c-0.9,0.9-1.9,1.6-3.1,2.2
		c-1.2,0.5-2.4,0.8-3.8,0.8c-1.1,0-2.3-0.2-3.5-0.5c-1.2-0.3-2.3-0.9-3.2-1.7s-1.7-1.8-2.4-3.1c-0.6-1.2-0.9-2.8-0.9-4.8v-23.3
		c0-1.4,0.2-2.7,0.7-3.9c0.5-1.2,1.1-2.2,2-3.1c0.9-0.9,1.9-1.6,3.1-2.1c1.2-0.5,2.6-0.7,4-0.7c2.9,0,5.2,0.9,7,2.8
		c0.9,0.9,1.6,2,2.1,3.2c0.5,1.2,0.7,2.6,0.7,4.1v2.4h-6.1v-2c0-1.2-0.3-2.2-1-3.1s-1.6-1.3-2.7-1.3c-1.5,0-2.5,0.5-3,1.4
		c-0.5,0.9-0.7,2.1-0.7,3.5v21.7c0,1.2,0.3,2.3,0.8,3.1c0.5,0.8,1.5,1.2,2.9,1.2c0.4,0,0.8-0.1,1.3-0.2c0.5-0.1,0.9-0.4,1.3-0.7
		c0.4-0.3,0.6-0.8,0.9-1.3s0.4-1.2,0.4-2.1v-2.1L219.6-128.7L219.6-128.7z"/>
	<path class="st0" d="M228.5-116.7v-36.6h-7v-5.7h20.1v5.7h-7v36.6H228.5L228.5-116.7z"/>
	<path class="st0" d="M243.2-149c0-1.7,0.3-3.2,0.9-4.5c0.6-1.3,1.4-2.4,2.4-3.3c0.9-0.8,2-1.5,3.2-1.9c1.2-0.4,2.4-0.7,3.7-0.7
		s2.4,0.2,3.7,0.7c1.2,0.4,2.3,1.1,3.3,1.9c0.9,0.9,1.7,2,2.3,3.3c0.6,1.3,0.9,2.8,0.9,4.5v22.4c0,1.8-0.3,3.3-0.9,4.6
		s-1.4,2.3-2.3,3.1c-1,0.9-2.1,1.5-3.3,2c-1.2,0.4-2.4,0.6-3.7,0.6s-2.4-0.2-3.7-0.6c-1.2-0.4-2.3-1.1-3.2-2c-1-0.8-1.8-1.9-2.4-3.1
		c-0.6-1.3-0.9-2.8-0.9-4.6V-149z M249.2-126.7c0,1.5,0.4,2.5,1.2,3.2s1.8,1,2.9,1s2.1-0.4,2.9-1c0.8-0.7,1.2-1.8,1.2-3.2V-149
		c0-1.5-0.4-2.6-1.2-3.2s-1.8-1-2.9-1s-2.1,0.3-2.9,1c-0.8,0.7-1.2,1.8-1.2,3.2V-126.7z"/>
	<path class="st0" d="M219.6-128.7v2.6c0,1.3-0.2,2.6-0.7,3.7c-0.5,1.2-1.2,2.2-2.1,3.1c-0.9,0.9-1.9,1.6-3.1,2.2
		c-1.2,0.5-2.4,0.8-3.8,0.8c-1.1,0-2.3-0.2-3.5-0.5c-1.2-0.3-2.3-0.9-3.2-1.7s-1.7-1.8-2.4-3.1c-0.6-1.2-0.9-2.8-0.9-4.8v-23.3
		c0-1.4,0.2-2.7,0.7-3.9c0.5-1.2,1.1-2.2,2-3.1c0.9-0.9,1.9-1.6,3.1-2.1c1.2-0.5,2.6-0.7,4-0.7c2.9,0,5.2,0.9,7,2.8
		c0.9,0.9,1.6,2,2.1,3.2c0.5,1.2,0.7,2.6,0.7,4.1v2.4h-6.1v-2c0-1.2-0.3-2.2-1-3.1s-1.6-1.3-2.7-1.3c-1.5,0-2.5,0.5-3,1.4
		c-0.5,0.9-0.7,2.1-0.7,3.5v21.7c0,1.2,0.3,2.3,0.8,3.1c0.5,0.8,1.5,1.2,2.9,1.2c0.4,0,0.8-0.1,1.3-0.2c0.5-0.1,0.9-0.4,1.3-0.7
		c0.4-0.3,0.6-0.8,0.9-1.3s0.4-1.2,0.4-2.1v-2.1L219.6-128.7L219.6-128.7z"/>
	<path class="st0" d="M228.5-116.7v-36.6h-7v-5.7h20.1v5.7h-7v36.6H228.5L228.5-116.7z"/>
	<path class="st0" d="M243.2-149c0-1.7,0.3-3.2,0.9-4.5c0.6-1.3,1.4-2.4,2.4-3.3c0.9-0.8,2-1.5,3.2-1.9c1.2-0.4,2.4-0.7,3.7-0.7
		s2.4,0.2,3.7,0.7c1.2,0.4,2.3,1.1,3.3,1.9c0.9,0.9,1.7,2,2.3,3.3c0.6,1.3,0.9,2.8,0.9,4.5v22.4c0,1.8-0.3,3.3-0.9,4.6
		s-1.4,2.3-2.3,3.1c-1,0.9-2.1,1.5-3.3,2c-1.2,0.4-2.4,0.6-3.7,0.6s-2.4-0.2-3.7-0.6c-1.2-0.4-2.3-1.1-3.2-2c-1-0.8-1.8-1.9-2.4-3.1
		c-0.6-1.3-0.9-2.8-0.9-4.6V-149z M249.2-126.7c0,1.5,0.4,2.5,1.2,3.2s1.8,1,2.9,1s2.1-0.4,2.9-1c0.8-0.7,1.2-1.8,1.2-3.2V-149
		c0-1.5-0.4-2.6-1.2-3.2s-1.8-1-2.9-1s-2.1,0.3-2.9,1c-0.8,0.7-1.2,1.8-1.2,3.2V-126.7z"/>
</g>
<g>
	<g id="folder">
		<path class="st0" d="M278.5,221.7v69c0,4.7-3.8,8.5-8.5,8.5h-85.1c-2,0-3.7-1.6-3.7-3.6v-65.1c0-2,1.6-3.7,3.7-3.7h3l-0.2-10.8
			h44.8l0,0h40.4C276,216.1,278.5,218.6,278.5,221.7z"/>
		<path class="st1" d="M270,299.7h-85.1c-2.3,0-4.2-1.9-4.2-4.1v-65.1c0-2.3,1.9-4.2,4.2-4.2h2.4l-0.2-10.3c0-0.1,0.1-0.3,0.1-0.4
			c0.1-0.1,0.2-0.1,0.4-0.1h44.8c0.1,0,0.1,0,0.2,0h40.2c3.4,0,6.1,2.8,6.1,6.1v69C279,295.7,275,299.7,270,299.7L270,299.7z
			 M184.9,227.4c-1.7,0-3.2,1.4-3.2,3.2v65.1c0,1.7,1.4,3.1,3.2,3.1H270c4.4,0,8-3.6,8-8v-69c0-2.8-2.3-5.1-5.1-5.1h-40.4
			c-0.1,0-0.1,0-0.2,0h-44.1l0.2,10.3c0,0.1-0.1,0.3-0.1,0.4c-0.1,0.1-0.2,0.1-0.4,0.1L184.9,227.4L184.9,227.4z"/>
		<path class="st1" d="M187.8,226.9h67.7c3.1,0,5.6,2.5,5.6,5.6v44.2c0,0-0.1,0.5,0,1.4c0.4,5.9,9.3,5.5,9.3-0.4v-55.1
			c0-3.6-2.9-6.5-6.5-6.5h-76.1L187.8,226.9L187.8,226.9z"/>
		<path class="st1" d="M265.7,282.9c-2.3,0-4.8-1.5-5-4.7c-0.1-0.9,0-1.5,0-1.5v-44.2c0-2.8-2.3-5.1-5.1-5.1h-67.7
			c-0.3,0-0.5-0.2-0.5-0.5v-10.8c0-0.3,0.2-0.5,0.5-0.5h76.1c3.9,0,7,3.1,7,7v55.1c0,3.3-2.5,5.1-5,5.1
			C265.8,282.9,265.8,282.9,265.7,282.9L265.7,282.9z M188.3,226.4h67.2c3.4,0,6.1,2.8,6.1,6.1v44.2c0,0.1-0.1,0.6,0,1.4
			c0.2,2.7,2.2,3.9,4.2,3.8c2-0.1,4.1-1.4,4.1-4.1v-55.1c0-3.3-2.7-6-6-6h-75.6L188.3,226.4L188.3,226.4z"/>
		<path class="st1" d="M232.5,216.1h-44.8l-0.1-6.7c-0.1-3.5,2.8-6.4,6.3-6.4h27.7c2.3,0,4.4,1.2,5.5,3.2L232.5,216.1z"/>
		<path class="st1" d="M232.5,216.6h-44.8c-0.3,0-0.5-0.2-0.5-0.5l-0.1-6.7c0-1.8,0.7-3.5,1.9-4.9c1.3-1.3,3-2,4.8-2h27.7
			c2.4,0,4.7,1.3,5.9,3.5l5.5,9.8c0.1,0.2,0.1,0.3,0,0.5S232.7,216.6,232.5,216.6L232.5,216.6z M188.1,215.6h43.5l-5.1-9.1
			c-1-1.8-2.9-3-5-3h-27.7c-1.6,0-3,0.6-4.1,1.7c-1.1,1.1-1.7,2.6-1.6,4.1L188.1,215.6L188.1,215.6z"/>
	</g>
	<g id="setting-2">
		<path class="st2" d="M322.1,49.3h92.7c5.1,0,9.2,4.1,9.2,9.2v181.1c0,5.1-4.1,9.2-9.2,9.2h-92.7c-5.1,0-9.2-4.1-9.2-9.2V58.6
			C312.9,53.4,317,49.3,322.1,49.3z"/>
		<path class="st1" d="M414.8,249.4h-92.7c-5.4,0-9.8-4.4-9.8-9.8V58.5c0-5.4,4.4-9.8,9.8-9.8h92.7c5.4,0,9.8,4.4,9.8,9.8v181.1
			C424.6,245.1,420.2,249.4,414.8,249.4z M322.1,49.8c-4.8,0-8.8,3.9-8.8,8.8v181.2c0,4.8,3.9,8.8,8.8,8.8h92.7
			c4.8,0,8.8-3.9,8.8-8.8V58.6c0-4.8-3.9-8.8-8.8-8.8L322.1,49.8L322.1,49.8z"/>
		<path class="st1" d="M334.1,108.9L334.1,108.9c1.9,0,3.4,1.5,3.4,3.4v115.2c0,1.9-1.5,3.4-3.4,3.4h0c-1.9,0-3.4-1.5-3.4-3.4V112.3
			C330.7,110.4,332.2,108.9,334.1,108.9z"/>
		<path class="st1" d="M334.1,231.4c-2.2,0-3.9-1.8-3.9-3.9V112.3c0-2.2,1.8-3.9,3.9-3.9s3.9,1.8,3.9,3.9v115.2
			C338,229.7,336.3,231.4,334.1,231.4z M334.1,109.4c-1.6,0-2.9,1.3-2.9,2.9v115.2c0,1.6,1.3,2.9,2.9,2.9s2.9-1.3,2.9-2.9V112.3
			C337,110.7,335.7,109.4,334.1,109.4L334.1,109.4z"/>
		<circle class="st2" cx="334.1" cy="131.7" r="8.9"/>
		<path class="st1" d="M334.1,141.1c-5.2,0-9.4-4.2-9.4-9.4c0-5.2,4.2-9.4,9.4-9.4s9.4,4.2,9.4,9.4
			C343.5,136.9,339.3,141.1,334.1,141.1z M334.1,123.3c-4.6,0-8.4,3.8-8.4,8.4c0,4.6,3.8,8.4,8.4,8.4s8.4-3.8,8.4-8.4
			C342.5,127,338.8,123.3,334.1,123.3z"/>
		<circle class="st0" cx="334.1" cy="131.7" r="5.1"/>
		<path class="st1" d="M334.1,137.2c-3.1,0-5.6-2.5-5.6-5.6s2.5-5.6,5.6-5.6s5.6,2.5,5.6,5.6S337.2,137.2,334.1,137.2z M334.1,127.1
			c-2.5,0-4.6,2.1-4.6,4.6s2,4.6,4.6,4.6s4.6-2.1,4.6-4.6S336.6,127.1,334.1,127.1z"/>
		<path class="st1" d="M357,108.9L357,108.9c1.9,0,3.4,1.5,3.4,3.4v115.2c0,1.9-1.5,3.4-3.4,3.4h0c-1.9,0-3.4-1.5-3.4-3.4V112.3
			C353.6,110.4,355.1,108.9,357,108.9z"/>
		<path class="st1" d="M357,231.4c-2.2,0-3.9-1.8-3.9-3.9V112.3c0-2.2,1.8-3.9,3.9-3.9s3.9,1.8,3.9,3.9v115.2
			C360.9,229.7,359.2,231.4,357,231.4z M357,109.4c-1.6,0-2.9,1.3-2.9,2.9v115.2c0,1.6,1.3,2.9,2.9,2.9s2.9-1.3,2.9-2.9V112.3
			C359.9,110.7,358.6,109.4,357,109.4L357,109.4z"/>
		<circle class="st2" cx="357" cy="154.5" r="8.9"/>
		<path class="st1" d="M357,163.9c-5.2,0-9.4-4.2-9.4-9.4s4.2-9.4,9.4-9.4s9.4,4.2,9.4,9.4S362.2,163.9,357,163.9z M357,146.1
			c-4.6,0-8.4,3.8-8.4,8.4s3.8,8.4,8.4,8.4s8.4-3.8,8.4-8.4S361.7,146.1,357,146.1z"/>
		<circle class="st0" cx="357" cy="154.5" r="5.1"/>
		<path class="st1" d="M357,160c-3.1,0-5.6-2.5-5.6-5.6s2.5-5.6,5.6-5.6s5.6,2.5,5.6,5.6S360.1,160,357,160z M357,149.9
			c-2.5,0-4.6,2.1-4.6,4.6s2,4.6,4.6,4.6s4.6-2.1,4.6-4.6S359.5,149.9,357,149.9z"/>
		<path class="st1" d="M379.9,108.9L379.9,108.9c1.9,0,3.4,1.5,3.4,3.4v115.2c0,1.9-1.5,3.4-3.4,3.4h0c-1.9,0-3.4-1.5-3.4-3.4V112.3
			C376.5,110.4,378,108.9,379.9,108.9z"/>
		<path class="st1" d="M379.9,231.4c-2.2,0-3.9-1.8-3.9-3.9V112.3c0-2.2,1.8-3.9,3.9-3.9s3.9,1.8,3.9,3.9v115.2
			C383.8,229.7,382.1,231.4,379.9,231.4z M379.9,109.4c-1.6,0-2.9,1.3-2.9,2.9v115.2c0,1.6,1.3,2.9,2.9,2.9s2.9-1.3,2.9-2.9V112.3
			C382.8,110.7,381.5,109.4,379.9,109.4L379.9,109.4z"/>
		<circle class="st2" cx="379.9" cy="201.1" r="8.9"/>
		<path class="st1" d="M379.9,210.5c-5.2,0-9.4-4.2-9.4-9.4s4.2-9.4,9.4-9.4s9.4,4.2,9.4,9.4S385.1,210.5,379.9,210.5z M379.9,192.7
			c-4.6,0-8.4,3.8-8.4,8.4s3.8,8.4,8.4,8.4s8.4-3.8,8.4-8.4S384.5,192.7,379.9,192.7z"/>
		<circle class="st0" cx="379.9" cy="201.1" r="5.1"/>
		<path class="st1" d="M379.9,206.7c-3.1,0-5.6-2.5-5.6-5.6s2.5-5.6,5.6-5.6s5.6,2.5,5.6,5.6S383,206.7,379.9,206.7z M379.9,196.6
			c-2.5,0-4.6,2-4.6,4.6s2,4.6,4.6,4.6s4.6-2,4.6-4.6S382.4,196.6,379.9,196.6z"/>
		<path class="st1" d="M402.8,108.9L402.8,108.9c1.9,0,3.4,1.5,3.4,3.4v115.2c0,1.9-1.5,3.4-3.4,3.4h0c-1.9,0-3.4-1.5-3.4-3.4V112.3
			C399.4,110.4,400.9,108.9,402.8,108.9z"/>
		<path class="st1" d="M402.8,231.4c-2.2,0-3.9-1.8-3.9-3.9V112.3c0-2.2,1.8-3.9,3.9-3.9s3.9,1.8,3.9,3.9v115.2
			C406.7,229.7,405,231.4,402.8,231.4z M402.8,109.4c-1.6,0-2.9,1.3-2.9,2.9v115.2c0,1.6,1.3,2.9,2.9,2.9l0,0c1.6,0,2.9-1.3,2.9-2.9
			V112.3C405.7,110.7,404.4,109.4,402.8,109.4L402.8,109.4z"/>
		<circle class="st2" cx="402.8" cy="152.3" r="8.9"/>
		<path class="st1" d="M402.8,161.7c-5.2,0-9.4-4.2-9.4-9.4s4.2-9.4,9.4-9.4s9.4,4.2,9.4,9.4S408,161.7,402.8,161.7z M402.8,143.9
			c-4.6,0-8.4,3.8-8.4,8.4s3.8,8.4,8.4,8.4s8.4-3.8,8.4-8.4S407.4,143.9,402.8,143.9z"/>
		<circle class="st0" cx="402.8" cy="152.3" r="5.1"/>
		<path class="st1" d="M402.8,157.9c-3.1,0-5.6-2.5-5.6-5.6s2.5-5.6,5.6-5.6s5.6,2.5,5.6,5.6S405.9,157.9,402.8,157.9z M402.8,147.7
			c-2.5,0-4.6,2.1-4.6,4.6s2,4.6,4.6,4.6s4.6-2.1,4.6-4.6S405.3,147.7,402.8,147.7z"/>
		<path class="st1" d="M359.1,70.7h-28.4c-0.3,0-0.5-0.2-0.5-0.5s0.2-0.5,0.5-0.5h28.4c0.3,0,0.5,0.2,0.5,0.5S359.4,70.7,359.1,70.7
			z"/>
		<path class="st1" d="M377.7,81.2h-47.1c-0.3,0-0.5-0.2-0.5-0.5s0.2-0.5,0.5-0.5h47.1c0.3,0,0.5,0.2,0.5,0.5S378,81.2,377.7,81.2z"
			/>
		<path class="st1" d="M377.7,91.6h-47.1c-0.3,0-0.5-0.2-0.5-0.5s0.2-0.5,0.5-0.5h47.1c0.3,0,0.5,0.2,0.5,0.5S378,91.6,377.7,91.6z"
			/>
	</g>
	<g>
		<path class="st0" d="M75.8,25.9c-1.2-0.5-2.2-1.2-2.9-2.2c-0.7-1-1.1-2.2-1.2-3.5h5.5c0.1,0.8,0.3,1.4,0.8,1.8
			c0.5,0.4,1.1,0.6,1.8,0.6c0.8,0,1.4-0.2,1.8-0.5s0.7-0.8,0.7-1.5c0-0.5-0.2-0.9-0.5-1.3c-0.4-0.3-0.8-0.6-1.3-0.8
			c-0.5-0.2-1.2-0.5-2.2-0.8c-1.4-0.4-2.5-0.8-3.3-1.3c-0.9-0.4-1.6-1-2.2-1.9c-0.6-0.8-0.9-1.9-0.9-3.2c0-2,0.7-3.5,2.1-4.6
			C75.3,5.6,77.2,5,79.5,5c2.3,0,4.2,0.6,5.6,1.7c1.4,1.1,2.2,2.7,2.3,4.6h-5.6c0-0.7-0.3-1.2-0.8-1.6s-1-0.6-1.8-0.6
			c-0.6,0-1.1,0.2-1.5,0.5s-0.6,0.8-0.6,1.4c0,0.7,0.3,1.2,1,1.6c0.6,0.4,1.6,0.8,3,1.2c1.4,0.5,2.5,0.9,3.3,1.3s1.6,1,2.2,1.8
			c0.6,0.8,0.9,1.8,0.9,3.1c0,1.2-0.3,2.3-0.9,3.3c-0.6,1-1.5,1.8-2.7,2.3c-1.2,0.6-2.5,0.9-4.1,0.9C78.4,26.6,77,26.4,75.8,25.9z"
			/>
		<path class="st0" d="M106.5,19.3H94.8c0.1,1,0.4,1.8,1,2.4c0.6,0.6,1.3,0.8,2.2,0.8c1.3,0,2.2-0.5,2.7-1.6h5.5
			c-0.3,1.1-0.8,2.1-1.5,3c-0.7,0.9-1.6,1.6-2.7,2.1c-1.1,0.5-2.3,0.8-3.7,0.8c-1.6,0-3.1-0.4-4.4-1.1c-1.3-0.7-2.3-1.7-3-3
			c-0.7-1.3-1.1-2.8-1.1-4.6c0-1.7,0.4-3.3,1.1-4.6c0.7-1.3,1.7-2.3,3-3c1.3-0.7,2.7-1,4.4-1c1.6,0,3.1,0.3,4.3,1
			c1.3,0.7,2.2,1.6,3,2.9c0.7,1.3,1.1,2.7,1.1,4.4C106.5,18.2,106.5,18.7,106.5,19.3z M101.3,16.4c0-0.9-0.3-1.6-0.9-2.1
			c-0.6-0.5-1.4-0.8-2.2-0.8c-0.9,0-1.6,0.3-2.2,0.8c-0.6,0.5-1,1.2-1.1,2.1H101.3z"/>
		<path class="st0" d="M116.6,10.3c0.9-0.5,1.9-0.8,3-0.8v5.4h-1.4c-1.3,0-2.2,0.3-2.9,0.8c-0.6,0.6-1,1.5-1,2.9v7.8h-5.1V9.7h5.1
			v2.8C115,11.5,115.7,10.8,116.6,10.3z"/>
		<path class="st0" d="M129.6,21.6l3.6-11.9h5.5l-5.9,16.7h-6.3l-5.9-16.7h5.5L129.6,21.6z"/>
		<path class="st0" d="M141.2,7.1c-0.6-0.5-0.9-1.2-0.9-2c0-0.8,0.3-1.5,0.9-2c0.6-0.5,1.3-0.8,2.2-0.8c0.9,0,1.6,0.3,2.2,0.8
			c0.6,0.5,0.9,1.2,0.9,2c0,0.8-0.3,1.4-0.9,2c-0.6,0.5-1.3,0.8-2.2,0.8C142.5,7.9,141.8,7.7,141.2,7.1z M146,9.7v16.7h-5.1V9.7H146
			z"/>
		<path class="st0" d="M149.8,13.5c0.7-1.3,1.7-2.3,3-3c1.3-0.7,2.7-1,4.4-1c2.1,0,3.9,0.6,5.3,1.6c1.4,1.1,2.3,2.7,2.8,4.6h-5.5
			c-0.5-1.3-1.3-1.9-2.7-1.9c-0.9,0-1.7,0.4-2.2,1.1c-0.6,0.7-0.8,1.8-0.8,3.1c0,1.4,0.3,2.4,0.8,3.1c0.6,0.7,1.3,1.1,2.2,1.1
			c1.3,0,2.2-0.6,2.7-1.9h5.5c-0.4,2-1.4,3.5-2.8,4.6c-1.4,1.1-3.2,1.7-5.2,1.7c-1.6,0-3.1-0.4-4.4-1.1c-1.3-0.7-2.3-1.7-3-3
			c-0.7-1.3-1.1-2.8-1.1-4.6C148.7,16.3,149,14.8,149.8,13.5z"/>
		<path class="st0" d="M168.2,7.1c-0.6-0.5-0.9-1.2-0.9-2c0-0.8,0.3-1.5,0.9-2c0.6-0.5,1.3-0.8,2.2-0.8c0.9,0,1.6,0.3,2.2,0.8
			c0.6,0.5,0.9,1.2,0.9,2c0,0.8-0.3,1.4-0.9,2c-0.6,0.5-1.3,0.8-2.2,0.8C169.5,7.9,168.8,7.7,168.2,7.1z M173,9.7v16.7h-5.1V9.7H173
			z"/>
		<path class="st0" d="M179.9,25.6c-1.3-0.7-2.3-1.7-3.1-3c-0.8-1.3-1.1-2.8-1.1-4.6c0-1.7,0.4-3.2,1.1-4.5c0.8-1.3,1.8-2.3,3.1-3
			c1.3-0.7,2.8-1,4.4-1c1.6,0,3.1,0.4,4.4,1c1.3,0.7,2.4,1.7,3.1,3c0.8,1.3,1.1,2.8,1.1,4.5c0,1.7-0.4,3.2-1.2,4.5
			c-0.8,1.3-1.8,2.3-3.1,3c-1.3,0.7-2.8,1.1-4.5,1.1C182.7,26.6,181.2,26.3,179.9,25.6z M186.8,21.1c0.7-0.7,1-1.8,1-3.1
			c0-1.3-0.3-2.4-1-3.1c-0.7-0.7-1.5-1.1-2.5-1.1c-1,0-1.8,0.4-2.5,1.1c-0.7,0.7-1,1.7-1,3.1c0,1.3,0.3,2.4,1,3.1
			c0.6,0.7,1.5,1.1,2.4,1.1C185.3,22.2,186.1,21.8,186.8,21.1z"/>
		<path class="st0" d="M219.3,9.7l-10.5,24.7h-5.5l3.8-8.5l-6.8-16.2h5.7l3.9,10.5l3.8-10.5H219.3z"/>
		<path class="st0" d="M88.8,41.5c-0.6,1-1.4,1.8-2.6,2.4c-1.2,0.6-2.6,0.9-4.3,0.9h-3.2v7.6h-5.1V31.3h8.3c1.7,0,3.1,0.3,4.3,0.9
			c1.2,0.6,2,1.4,2.6,2.4c0.6,1,0.9,2.2,0.9,3.5C89.6,39.3,89.3,40.5,88.8,41.5z M83.7,40.1c0.5-0.5,0.7-1.1,0.7-1.9
			c0-0.8-0.2-1.5-0.7-2c-0.5-0.5-1.2-0.7-2.2-0.7h-2.8v5.3h2.8C82.4,40.8,83.2,40.5,83.7,40.1z"/>
		<path class="st0" d="M99.6,36.3c0.9-0.5,1.9-0.8,3-0.8v5.4h-1.4c-1.3,0-2.2,0.3-2.9,0.8c-0.6,0.6-1,1.5-1,2.9v7.8h-5.1V35.7h5.1
			v2.8C98,37.5,98.7,36.8,99.6,36.3z"/>
		<path class="st0" d="M105.1,39.5c0.6-1.3,1.5-2.3,2.7-3c1.1-0.7,2.4-1,3.8-1c1.2,0,2.2,0.2,3.1,0.7c0.9,0.5,1.6,1.1,2.1,1.9v-2.4
			h5.1v16.7h-5.1V50c-0.5,0.8-1.2,1.4-2.1,1.9c-0.9,0.5-1.9,0.7-3.1,0.7c-1.4,0-2.6-0.4-3.7-1.1c-1.1-0.7-2-1.7-2.7-3
			c-0.6-1.3-1-2.8-1-4.5C104.1,42.3,104.4,40.8,105.1,39.5z M115.6,41c-0.7-0.7-1.6-1.1-2.6-1.1s-1.9,0.4-2.6,1.1
			c-0.7,0.7-1.1,1.7-1.1,3c0,1.3,0.4,2.3,1.1,3c0.7,0.8,1.6,1.1,2.6,1.1s1.9-0.4,2.6-1.1c0.7-0.7,1.1-1.8,1.1-3
			C116.6,42.8,116.3,41.7,115.6,41z M117,31.5l-7.2,3V31l7.2-3.5V31.5z"/>
		<path class="st0" d="M125.5,39.5c0.7-1.3,1.7-2.3,3-3c1.3-0.7,2.7-1,4.4-1c2.1,0,3.9,0.6,5.3,1.6c1.4,1.1,2.3,2.7,2.8,4.6h-5.5
			c-0.5-1.3-1.3-1.9-2.7-1.9c-0.9,0-1.7,0.4-2.2,1.1c-0.6,0.7-0.8,1.8-0.8,3.1c0,1.4,0.3,2.4,0.8,3.1c0.6,0.7,1.3,1.1,2.2,1.1
			c1.3,0,2.2-0.6,2.7-1.9h5.5c-0.4,2-1.4,3.5-2.8,4.6c-1.4,1.1-3.2,1.7-5.2,1.7c-1.6,0-3.1-0.4-4.4-1.1c-1.3-0.7-2.3-1.7-3-3
			c-0.7-1.3-1.1-2.8-1.1-4.6C124.5,42.3,124.8,40.8,125.5,39.5z"/>
		<path class="st0" d="M153,48.1v4.4h-2.6c-1.9,0-3.3-0.5-4.4-1.4c-1-0.9-1.6-2.4-1.6-4.5v-6.7h-2v-4.3h2v-4.1h5.1v4.1h3.4v4.3h-3.4
			v6.7c0,0.5,0.1,0.9,0.4,1.1c0.2,0.2,0.6,0.3,1.2,0.3H153z"/>
		<path class="st0" d="M156.2,33.1c-0.6-0.5-0.9-1.2-0.9-2c0-0.8,0.3-1.5,0.9-2c0.6-0.5,1.3-0.8,2.2-0.8c0.9,0,1.6,0.3,2.2,0.8
			c0.6,0.5,0.9,1.2,0.9,2c0,0.8-0.3,1.4-0.9,2c-0.6,0.5-1.3,0.8-2.2,0.8C157.5,33.9,156.8,33.7,156.2,33.1z M160.9,35.7v16.7h-5.1
			V35.7H160.9z"/>
		<path class="st0" d="M164.7,39.5c0.7-1.3,1.7-2.3,3-3c1.3-0.7,2.7-1,4.4-1c2.1,0,3.9,0.6,5.3,1.6c1.4,1.1,2.3,2.7,2.8,4.6h-5.5
			c-0.5-1.3-1.3-1.9-2.7-1.9c-0.9,0-1.7,0.4-2.2,1.1c-0.6,0.7-0.8,1.8-0.8,3.1c0,1.4,0.3,2.4,0.8,3.1c0.6,0.7,1.3,1.1,2.2,1.1
			c1.3,0,2.2-0.6,2.7-1.9h5.5c-0.4,2-1.4,3.5-2.8,4.6c-1.4,1.1-3.2,1.7-5.2,1.7c-1.6,0-3.1-0.4-4.4-1.1c-1.3-0.7-2.3-1.7-3-3
			c-0.7-1.3-1.1-2.8-1.1-4.6C163.6,42.3,164,40.8,164.7,39.5z"/>
		<path class="st0" d="M182.8,39.5c0.6-1.3,1.5-2.3,2.7-3c1.1-0.7,2.4-1,3.8-1c1.2,0,2.2,0.2,3.1,0.7c0.9,0.5,1.6,1.1,2.1,1.9v-2.4
			h5.1v16.7h-5.1V50c-0.5,0.8-1.2,1.4-2.1,1.9c-0.9,0.5-1.9,0.7-3.1,0.7c-1.4,0-2.6-0.4-3.7-1.1c-1.1-0.7-2-1.7-2.7-3
			c-0.6-1.3-1-2.8-1-4.5C181.8,42.3,182.1,40.8,182.8,39.5z M193.3,41c-0.7-0.7-1.6-1.1-2.6-1.1s-1.9,0.4-2.6,1.1
			c-0.7,0.7-1.1,1.7-1.1,3c0,1.3,0.4,2.3,1.1,3c0.7,0.8,1.6,1.1,2.6,1.1s1.9-0.4,2.6-1.1c0.7-0.7,1.1-1.8,1.1-3
			C194.3,42.8,194,41.7,193.3,41z"/>
		<path class="st0" d="M206.1,51.9c-1.1-0.5-2-1.2-2.7-2.1c-0.7-0.9-1-1.8-1.1-2.9h5.1c0.1,0.6,0.3,1.1,0.8,1.4s1.1,0.5,1.8,0.5
			c0.6,0,1.1-0.1,1.5-0.4c0.3-0.2,0.5-0.6,0.5-1c0-0.5-0.3-0.8-0.8-1.1c-0.5-0.2-1.3-0.5-2.4-0.8c-1.2-0.3-2.2-0.6-3-0.9
			c-0.8-0.3-1.5-0.8-2.1-1.5c-0.6-0.7-0.9-1.6-0.9-2.7c0-1,0.3-1.8,0.8-2.6c0.5-0.8,1.3-1.4,2.3-1.9c1-0.5,2.3-0.7,3.7-0.7
			c2.1,0,3.8,0.5,5,1.6c1.2,1,1.9,2.4,2.1,4.1h-4.7c-0.1-0.6-0.3-1-0.8-1.4c-0.4-0.3-1-0.5-1.7-0.5c-0.6,0-1.1,0.1-1.4,0.3
			c-0.3,0.2-0.5,0.5-0.5,0.9c0,0.5,0.3,0.8,0.8,1.1c0.5,0.2,1.3,0.5,2.4,0.7c1.2,0.3,2.2,0.6,3,0.9s1.5,0.8,2.1,1.5
			c0.6,0.7,0.9,1.6,0.9,2.8c0,1-0.3,1.9-0.8,2.6c-0.6,0.8-1.3,1.4-2.4,1.8c-1,0.4-2.2,0.7-3.6,0.7C208.5,52.6,207.2,52.4,206.1,51.9
			z"/>
	</g>
	<g id="character">
		<polygon class="st0" points="116.9,232.9 128.1,318.3 76.3,318.3 70.8,281.9 53.8,318.3 2.6,318.3 28,237.7 		"/>
		<path class="st1" d="M128.1,318.8H76.3c-0.2,0-0.5-0.2-0.5-0.4l-5.2-34.7l-16.3,34.9c-0.1,0.2-0.3,0.3-0.4,0.3H2.6
			c-0.2,0-0.3-0.1-0.4-0.2c-0.1-0.1-0.1-0.3-0.1-0.5l25.4-80.5c0.1-0.2,0.2-0.3,0.5-0.4l88.9-4.8c0.2,0,0.5,0.2,0.5,0.4l11.2,85.4
			c0,0.1,0,0.3-0.1,0.4C128.4,318.7,128.2,318.8,128.1,318.8L128.1,318.8z M76.7,317.8h50.8l-11.1-84.3l-88.1,4.8L3.2,317.8h50.3
			l16.9-36.1c0.1-0.2,0.3-0.3,0.5-0.3c0.2,0,0.4,0.2,0.4,0.4L76.7,317.8z"/>
		<path class="st2" d="M219.2,162.1c-3.1,2.3-4.8,3-4.8,3s4.3-1.1,7.6-2.8c3.3-1.8,4.8,1.7-6.8,7.5c0,0-5.8,5.9-17.4,7
			c0,0-9.5-2.4-13.9-8.3c1.6-4.4,3.4-7.1,6.2-10.2c3.2-3.6,9.4-6.4,10.4-5.9c1,0.6-2.9,6.4-2.9,6.4s4-2,8.5-3.8
			c2.4-0.9,6.9-11.4,10.2-11.3c3.2,0.1-2.9,11.4-5.5,13.9c0.4-0.3,3.6-2.8,5.6-5.1c2.1-2.4,2-4.8,4.2-4.4s-1.5,9.4-7.9,13.8
			c0,0,4.5-2.4,7-4.8c2.6-2.4,3.8-3.6,4.9-3C225.8,154.8,222.3,159.8,219.2,162.1L219.2,162.1z"/>
		<path class="st1" d="M197.9,177.3c0,0-0.1,0-0.1,0c-0.4-0.1-9.7-2.5-14.1-8.5c-0.1-0.1-0.1-0.3-0.1-0.5c1.5-4.1,3.2-7,6.3-10.4
			c3.2-3.5,9.6-6.8,11-5.9c0.1,0.1,0.3,0.2,0.4,0.5c0.2,1-1.1,3.4-2.2,5.1c1.6-0.8,4.2-1.9,6.9-3c0.9-0.3,2.3-2.5,3.7-4.6
			c2.2-3.3,4.5-6.8,6.6-6.8c0,0,0.1,0,0.1,0c0.6,0,1.1,0.3,1.3,0.9c0.7,1.9-1.6,6.9-3.9,10.4c0.8-0.7,1.6-1.5,2.3-2.3
			c0.7-0.8,1.2-1.7,1.6-2.4c0.7-1.3,1.4-2.5,3.1-2.2c0.3,0,0.8,0.2,1,1c0.4,1.9-1.5,6.3-4.8,10.1c0.9-0.6,1.7-1.3,2.4-1.9
			c2.7-2.6,4.1-3.9,5.5-3.1c0.2,0.1,0.4,0.3,0.5,0.8c0.1,1.7-3.2,6-5.9,8c-0.4,0.3-0.7,0.5-1,0.8c1.1-0.4,2.3-0.9,3.3-1.5
			c1.1-0.6,2-0.7,2.6-0.3c0.4,0.2,0.5,0.6,0.5,1.1c-0.1,1.9-3.6,4.7-9.4,7.6C214.9,170.8,209,176.2,197.9,177.3
			C197.9,177.2,197.9,177.2,197.9,177.3L197.9,177.3z M184.6,168.4c4.1,5.2,12.4,7.6,13.4,7.9c11.1-1.1,16.9-6.8,17-6.8
			c0,0,0.1-0.1,0.1-0.1c6.9-3.5,8.8-6,8.9-6.8c0-0.1,0-0.1-0.1-0.2c-0.2-0.1-0.7-0.1-1.6,0.3c-3.3,1.8-7.6,2.8-7.7,2.9
			c-0.3,0.1-0.5-0.1-0.6-0.3s0.1-0.5,0.3-0.6c0,0,1.7-0.6,4.6-2.9l0,0c3-2.3,5.7-6.4,5.5-7.1c-0.7-0.4-1.8,0.6-4.3,3
			c-2.6,2.5-7,4.8-7.1,4.9c-0.2,0.1-0.5,0-0.7-0.2c-0.1-0.2-0.1-0.5,0.1-0.7c5.6-3.9,8.8-10.9,8.3-12.7c-0.1-0.2-0.1-0.2-0.2-0.2
			c-1-0.1-1.3,0.3-2.1,1.7c-0.4,0.7-0.9,1.6-1.7,2.6c-1.9,2.2-5.1,4.7-5.7,5.1c-0.2,0.2-0.5,0.1-0.7-0.1c-0.2-0.2-0.2-0.5,0-0.7
			c2.3-2.2,6.9-10.8,6.2-12.8c-0.1-0.1-0.1-0.2-0.4-0.2c0,0,0,0,0,0c-1.6,0-3.9,3.5-5.8,6.3c-1.6,2.4-3,4.5-4.1,4.9
			c-4.5,1.7-8.4,3.8-8.5,3.8c-0.2,0.1-0.4,0.1-0.6-0.1c-0.1-0.2-0.2-0.4,0-0.6c1.5-2.2,3-5,3-5.8c-1-0.1-6.5,2.2-9.7,5.8
			C187.7,161.9,186,164.5,184.6,168.4L184.6,168.4z"/>
		<path class="st1" d="M214.9,167.7c-0.2,0-0.4-0.1-0.5-0.4c-2.5-8-6.8-11.4-6.8-11.4c-0.2-0.2-0.2-0.5-0.1-0.7
			c0.2-0.2,0.5-0.2,0.7-0.1c0.2,0.1,4.5,3.6,7.1,11.9c0.1,0.3-0.1,0.5-0.3,0.6C215,167.7,214.9,167.7,214.9,167.7L214.9,167.7z"/>
		<path class="st1" d="M204.6,168.5c-0.3,0-0.5-0.2-0.5-0.5c-0.6-6.9-6.3-8.6-6.5-8.7c-0.3-0.1-0.4-0.4-0.3-0.6
			c0.1-0.3,0.4-0.4,0.6-0.3c0.1,0,6.6,2,7.3,9.6C205.1,168.2,204.9,168.4,204.6,168.5C204.6,168.5,204.6,168.5,204.6,168.5z"/>
		<path class="st2" d="M199.4,178.3c-5.4,4.8-24.5,21.2-41.7,31.2c-20.2,11.9-38.1-3.4-38.1-3.4l4.6,31.5c0.4,2.5-1.2,4.9-3.7,5.5
			c-7.5,1.9-23.9,5.5-42.8,6c-20.6,0.6-45.1-0.5-54.5-1c-2.1-0.1-3.8-1.9-3.7-4.1l0.9-22.7c-17.4-7.6-9.1-54.5,1.8-81.8
			c5.1-12.8,15.3-20.3,24.7-24.6l0,0c10.5-4.9,20-5.7,20-5.7c7.8-0.7,15.8,1.5,23,5.7c6.6,3.9,12.6,9.4,17.3,16
			c9.7,13.9,37,48.3,37,48.3l41.8-20.8c0.9-0.4,2-0.4,2.9,0.1c6.6,3.7,10.2,12.4,11.5,16.4C200.7,176.1,200.3,177.4,199.4,178.3
			L199.4,178.3z"/>
		<path class="st1" d="M65.1,249.8c-17,0-34.2-0.8-41.9-1.2c-2.4-0.1-4.3-2.2-4.2-4.6l0.8-22.3c-9.8-4.6-10.7-20.9-9.7-33.9
			c1.2-15,5.6-33.5,11.5-48.4c4.3-10.9,12.7-19.2,24.8-24.9c0,0,0.1,0,0.1-0.1c10.5-4.8,20.1-5.8,20.2-5.8
			c7.6-0.7,15.7,1.3,23.3,5.8c6.7,3.9,12.8,9.5,17.4,16.2c9.1,13,33.9,44.4,36.7,47.9l41.4-20.6c1.1-0.5,2.3-0.5,3.4,0.1
			c6.9,3.9,10.5,12.9,11.8,16.7c0.5,1.4,0.1,2.9-1,3.9C194.2,183.5,175,200,158,210c-17.6,10.3-33.6,0.2-37.7-2.7l4.4,30.3
			c0.4,2.8-1.3,5.4-4,6.1c-8,2-24.1,5.5-42.9,6.1C73.6,249.8,69.3,249.8,65.1,249.8L65.1,249.8z M47.1,115.4
			C47.1,115.4,47,115.4,47.1,115.4c-12,5.6-20.2,13.8-24.5,24.4c-5.9,14.8-10.3,33.3-11.5,48.1c-1.8,23.1,4.1,30.7,9.4,33
			c0.2,0.1,0.3,0.3,0.3,0.5L20,244c-0.1,1.9,1.4,3.5,3.2,3.5c9.6,0.5,34,1.6,54.4,1c18.7-0.5,34.8-4,42.7-6c2.2-0.6,3.6-2.7,3.3-5
			l-4.6-31.5c0-0.2,0.1-0.4,0.2-0.5s0.4-0.1,0.6,0.1c0.2,0.1,17.9,14.9,37.5,3.4c16.9-10,36.1-26.4,41.6-31.2l0,0
			c0.8-0.7,1.1-1.8,0.8-2.8c-1.2-3.6-4.7-12.4-11.3-16.1c-0.7-0.4-1.6-0.4-2.4,0l-41.8,20.8c-0.2,0.1-0.5,0-0.6-0.1
			c-0.3-0.3-27.4-34.6-37-48.3c-4.6-6.6-10.5-12.1-17.1-15.9c-7.5-4.4-15.3-6.3-22.7-5.6C66.7,109.8,57.4,110.7,47.1,115.4
			L47.1,115.4z"/>
		<path class="st2" d="M167,129.3L133.7,182c-1.1,1.7-3.1,2.7-5.1,2.6l-39.8-3.2v-17.2l5.3-11.3l1-0.6l8.3-5.4l18.3-24.5
			c0.7-0.9,1.9-1.4,3-1.4l40.4,4.5c0.8,0.1,1.4,0.5,1.8,1.1C167.4,127.4,167.5,128.4,167,129.3L167,129.3z"/>
		<path class="st1" d="M129,185.1c-0.2,0-0.3,0-0.5,0l-39.8-3.2c-0.3,0-0.5-0.2-0.5-0.5v-17.2c0-0.1,0-0.1,0.1-0.2l5.3-11.3
			c0-0.1,0.1-0.2,0.2-0.2l9.2-6l18.2-24.4c0.8-1.1,2.1-1.7,3.5-1.6l40.4,4.5c0.9,0.1,1.7,0.6,2.1,1.3c0.6,1,0.6,2.2,0,3.1
			l-33.2,52.7C133,184.1,131.1,185.1,129,185.1L129,185.1z M89.3,180.9l39.3,3.2c1.9,0.1,3.7-0.8,4.7-2.3l33.2-52.7l0,0
			c0.4-0.6,0.4-1.4,0-2.1c-0.3-0.5-0.8-0.8-1.4-0.9l-40.4-4.5c-1-0.1-2,0.4-2.6,1.1l-18.3,24.5c0,0-0.1,0.1-0.1,0.1l-9.2,5.9
			l-5.2,11.1L89.3,180.9L89.3,180.9z"/>
		<path class="st1" d="M166.9,126.7c0,0-40.6-5-41.9-4.3c-1.3,0.7-26.8,36.1-26.8,36.1l-4.7,1.8l1.6-8.1l8.3-5.4l18.3-24.5
			c0.7-0.9,1.9-1.4,3-1.4l40.4,4.5C166,125.7,166.6,126.1,166.9,126.7L166.9,126.7z"/>
		<path class="st1" d="M93.6,160.8c-0.1,0-0.2,0-0.3-0.1c-0.1-0.1-0.2-0.3-0.2-0.5l1.6-8.1c0-0.1,0.1-0.2,0.2-0.3l8.2-5.3l18.2-24.4
			c0.8-1.1,2.1-1.7,3.5-1.6l40.4,4.5c0.9,0.1,1.7,0.6,2.1,1.3c0.1,0.2,0.1,0.4,0,0.5s-0.3,0.2-0.5,0.2c-15.9-2-40.2-4.7-41.7-4.3
			c-1.1,0.8-16.5,22-26.5,35.9c-0.1,0.1-0.1,0.1-0.2,0.2l-4.7,1.8C93.7,160.8,93.7,160.8,93.6,160.8L93.6,160.8z M95.6,152.5l-1.4,7
			l3.7-1.4c4.4-6.2,25.5-35.4,26.9-36.1c0.2-0.1,1.4-0.1,3.3,0l-3.4-0.4c-1-0.1-2,0.4-2.6,1.1l-18.3,24.5c0,0-0.1,0.1-0.1,0.1
			L95.6,152.5L95.6,152.5z"/>
		<path class="st0" d="M74.3,134.1c-1.1,9.8-1.2,33.9,0,44s11.2,48.3,13.1,48.8s4.8-2.9,6.2-17.5s-0.9-43.3-2.5-53.1s-9.3-25-9.3-25
			L74.3,134.1L74.3,134.1z"/>
		<path class="st1" d="M87.8,227.5c-0.2,0-0.3,0-0.5-0.1c-1.1-0.3-3.6-7.4-7.2-21.2c-2.7-10-5.7-22.6-6.3-28.1
			c-1.2-10-1.2-33.9,0-44.1c0-0.2,0.2-0.4,0.3-0.4l7.6-2.8c0.2-0.1,0.5,0,0.6,0.2c0.1,0.1,7.7,15.4,9.3,25.2
			c1.7,10.1,3.9,38.8,2.5,53.2c-1,9.9-2.7,16-5,17.5C88.7,227.4,88.2,227.5,87.8,227.5L87.8,227.5z M74.7,134.5
			c-1.1,10.2-1.1,34,0,43.6c1.2,10.3,10.9,46.9,12.8,48.4c0.2,0,0.6,0,0.9-0.2c1.2-0.8,3.3-4.1,4.6-16.8c1.4-14.4-0.8-42.9-2.5-53
			c-1.4-8.7-7.8-22-9-24.5L74.7,134.5L74.7,134.5z"/>
		<path class="st2" d="M77.7,168.2c8.4-7.2,11.9-14,16.6-18.6c4.7-4.6,9.1-2.7,9.1-2.7s-5.9,8.4-5.6,9.5s9.1-3.5,13.9-6.8
			s10.8-7.4,12.7-5.7s0.2,4.2-1.5,5.9c0,0,2.8-0.9,3.2,1.6s-3.3,4.9-3.3,4.9s2.3,0.5,1.8,3.2s-5.9,6.3-5.9,6.3s4.2-2.5,5-0.8
			c0.8,1.7-2.9,5.9-10.3,9.9s-11.7,4.7-15.8,5.7s-9,4.2-9,4.2S79.2,172.4,77.7,168.2L77.7,168.2z"/>
		<path class="st1" d="M88.5,185.4c-0.2,0-0.3-0.1-0.4-0.2c-0.4-0.5-9.4-12.6-10.9-16.8c-0.1-0.2,0-0.4,0.1-0.5
			c5.1-4.3,8.3-8.5,11.2-12.2c1.8-2.3,3.5-4.5,5.4-6.3c4.9-4.8,9.5-2.9,9.7-2.9c0.1,0.1,0.2,0.2,0.3,0.3c0,0.1,0,0.3-0.1,0.4
			c-2.5,3.6-5.1,7.7-5.5,8.9c1.6-0.2,8.3-3.6,13-6.9c5.6-3.9,11.2-7.5,13.3-5.6c0.6,0.6,1,1.3,1,2.1c0,1.3-0.8,2.6-1.6,3.6
			c0.4,0,0.9,0.1,1.4,0.4c0.6,0.4,0.9,1,1.1,1.8c0.3,2.1-1.7,4-2.8,4.9c0.8,0.5,1.6,1.6,1.3,3.4c-0.3,1.4-1.8,3.1-3.3,4.4
			c0.5-0.1,1-0.1,1.4,0c0.4,0.1,0.7,0.4,0.9,0.8c1.1,2.2-3.4,6.8-10.5,10.6c-6.6,3.6-10.9,4.5-14.6,5.4l-1.3,0.3
			c-4,0.9-8.8,4.1-8.8,4.2C88.7,185.3,88.6,185.3,88.5,185.4L88.5,185.4z M78.3,168.3c1.6,4,8.8,13.8,10.4,15.9
			c1.3-0.8,5.2-3.2,8.8-4.1c0.4-0.1,0.9-0.2,1.3-0.3c3.7-0.8,7.9-1.8,14.4-5.3c7.4-4,10.6-8,10-9.2c-0.1-0.1-0.1-0.2-0.3-0.2
			c-0.9-0.3-2.9,0.6-4,1.3c-0.2,0.1-0.5,0.1-0.7-0.2c-0.1-0.2-0.1-0.5,0.1-0.7c1.4-1,5.3-3.9,5.7-6c0.4-2.1-1.3-2.6-1.4-2.6
			c-0.2,0-0.3-0.2-0.4-0.4s0.1-0.4,0.2-0.5c0.9-0.6,3.3-2.7,3.1-4.5c-0.1-0.5-0.3-0.9-0.6-1.1c-0.7-0.5-1.9-0.1-1.9-0.1
			c-0.2,0.1-0.5,0-0.6-0.2s-0.1-0.4,0.1-0.6c1.4-1.4,2.2-2.8,2.2-3.9c0-0.5-0.2-1-0.6-1.4c-1.7-1.5-8.9,3.6-12.1,5.7
			c-3.5,2.4-12.5,7.6-14.2,7c-0.2-0.1-0.4-0.3-0.4-0.5c-0.3-1.2,3.3-6.6,5.3-9.4c-1.3-0.3-4.6-0.5-8,2.8c-1.8,1.8-3.4,3.8-5.3,6.2
			C86.5,159.9,83.3,164,78.3,168.3L78.3,168.3z"/>
		<path class="st1" d="M107.1,160.2c-0.2,0-0.3-0.1-0.4-0.2c-0.1-0.2-0.1-0.5,0.2-0.7c0.1-0.1,12.4-7.4,15.7-9.8
			c0.2-0.2,0.5-0.1,0.7,0.1c0.2,0.2,0.1,0.5-0.1,0.7c-3.3,2.5-15.3,9.5-15.8,9.8C107.3,160.2,107.2,160.2,107.1,160.2L107.1,160.2z"
			/>
		<path class="st1" d="M109.1,164.7c-0.2,0-0.3-0.1-0.4-0.2c-0.1-0.2-0.1-0.5,0.2-0.7c0.1-0.1,10.5-5.9,13.6-7.8
			c0.2-0.1,0.5-0.1,0.7,0.2c0.1,0.2,0.1,0.5-0.2,0.7c-3.1,1.9-13.5,7.8-13.6,7.8C109.3,164.7,109.2,164.7,109.1,164.7L109.1,164.7z"
			/>
		<path class="st1" d="M112.1,170.1c-0.2,0-0.4-0.1-0.5-0.3c-0.1-0.2,0-0.5,0.3-0.7c0,0,2.9-1.2,6.5-3.7c0.2-0.1,0.5-0.1,0.7,0.1
			c0.2,0.2,0.1,0.5-0.1,0.7c-3.6,2.5-6.5,3.7-6.6,3.8C112.2,170.1,112.1,170.1,112.1,170.1L112.1,170.1z"/>
		<path class="st2" d="M25.1,223.6c20.8,7,54.4-23.5,59.9-28.8s3.5-9.8,3.5-9.8s-7-9.2-10.8-16.7c0,0-2.9-2.1-8.6,1.4
			s-32.4,19-32.4,19"/>
		<path class="st1" d="M31.8,225.1c-2.4,0-4.7-0.3-6.9-1.1c-0.3-0.1-0.4-0.4-0.3-0.6s0.4-0.4,0.6-0.3c8.6,2.9,20.5-0.4,35.3-9.8
			c12.8-8.1,23-17.9,24.1-19c4.9-4.7,3.6-8.7,3.4-9.2c-0.6-0.8-7.1-9.5-10.8-16.6c-0.5-0.3-3.2-1.4-7.9,1.5
			c-5.6,3.4-32.2,18.9-32.4,19c-0.2,0.1-0.5,0.1-0.7-0.2s-0.1-0.5,0.2-0.7c0.3-0.2,26.8-15.6,32.4-19c5.8-3.6,9-1.5,9.1-1.4
			c0.1,0,0.1,0.1,0.2,0.2c3.8,7.4,10.7,16.5,10.8,16.6c0,0,0.1,0.1,0.1,0.1c0.1,0.2,2,4.9-3.6,10.4C84,196.4,54.1,225.1,31.8,225.1
			L31.8,225.1z"/>
		<path class="st1" d="M50,181.4C50,181.4,49.9,181.4,50,181.4c-0.3,0-0.5-0.3-0.5-0.6c1.3-8.3,4.8-30.1,4.8-30.9
			c0-0.3,0.2-0.5,0.5-0.5c0.3,0,0.5,0.2,0.5,0.5c0,0.7-4,26-4.8,31.1C50.4,181.2,50.2,181.4,50,181.4z"/>
		<path class="st1" d="M119.6,206.6c-0.2,0-0.5-0.2-0.5-0.4l-2.7-19.7c0-0.3,0.1-0.5,0.4-0.6c0.3,0,0.5,0.1,0.6,0.4l2.7,19.7
			C120.1,206.3,120,206.5,119.6,206.6C119.7,206.6,119.6,206.6,119.6,206.6L119.6,206.6z"/>
		<path class="st2" d="M75.9,126.2c0,0-14.6-5-22.1-14c2.8-0.9,5.4-1.6,7.5-2C61.4,106.2,62,99,62,99l14.6-1.9l1,12.9
			c0.3,0.1,0.5,0.1,0.8,0.2c0.8,0.2,1.7,0.4,2.5,0.7C80.9,111.3,81.8,120.4,75.9,126.2L75.9,126.2z"/>
		<path class="st1" d="M75.9,126.7c-0.1,0-0.1,0-0.2,0c-0.2-0.1-14.8-5.1-22.3-14.1c-0.1-0.1-0.1-0.3-0.1-0.5s0.2-0.3,0.3-0.3
			c2.3-0.8,4.7-1.4,7.2-2c0.2-4,0.6-10.7,0.6-10.8c0-0.2,0.2-0.4,0.4-0.5l14.6-1.9c0.1,0,0.3,0,0.4,0.1s0.2,0.2,0.2,0.4l0.9,12.5
			c0.2,0,0.3,0.1,0.5,0.1c0.8,0.2,1.6,0.4,2.5,0.7c0.2,0.1,0.3,0.2,0.3,0.4c0.1,0.4,1.1,9.7-5.1,15.7
			C76.2,126.6,76.1,126.7,75.9,126.7L75.9,126.7z M54.7,112.4c6.9,7.8,19.1,12.4,21.1,13.2c5-5.1,4.7-12.6,4.6-14.3
			c-0.8-0.2-1.5-0.4-2.1-0.6c-0.2-0.1-0.5-0.1-0.7-0.2c-0.2-0.1-0.4-0.2-0.5-0.5l-0.9-12.4l-13.7,1.8c-0.1,1.6-0.5,7.3-0.6,10.7
			c0,0.2-0.2,0.4-0.4,0.5C59.1,111.1,56.9,111.7,54.7,112.4L54.7,112.4z"/>
		<path class="st2" d="M75.9,126.2c0,0-4.9,9.9-10.6,8.7c-5.6-1.1-18.5-20-18.5-20l0,0c2.4-1.1,4.8-2,7-2.8
			C61.3,121.2,75.9,126.2,75.9,126.2z"/>
		<path class="st1" d="M66.3,135.5c-0.3,0-0.7,0-1-0.1c-5.8-1.2-18.3-19.4-18.9-20.2c-0.1-0.1-0.1-0.2-0.1-0.3
			c0-0.2,0.1-0.4,0.3-0.5c2.3-1.1,4.7-2,7.1-2.8c0.2-0.1,0.4,0,0.5,0.1c7.3,8.8,21.7,13.8,21.9,13.8c0.1,0.1,0.2,0.1,0.3,0.3
			c0.1,0.1,0.1,0.3,0,0.4C76.2,126.8,71.7,135.5,66.3,135.5L66.3,135.5z M47.5,115.1c2.1,2.9,13,18.3,17.9,19.3c4.5,0.9,8.7-6,9.8-8
			c-2.7-1-14.8-5.8-21.5-13.7C51.6,113.5,49.5,114.3,47.5,115.1z"/>
		<path class="st2" d="M88.8,129.5c-2.6,3.2-12.9-3.4-12.9-3.4c5.9-5.8,4.9-14.8,4.9-15.2c3.1,1,6.1,2.3,9,4
			C89.8,114.9,91.4,126.3,88.8,129.5L88.8,129.5z"/>
		<path class="st1" d="M86.5,130.9c-4,0-10-3.8-10.9-4.4c-0.1-0.1-0.2-0.2-0.2-0.4c0-0.1,0-0.3,0.2-0.4c5.8-5.6,4.8-14.4,4.8-14.8
			c0-0.2,0.1-0.3,0.2-0.4s0.3-0.1,0.5-0.1c3.1,1,6.2,2.4,9.1,4.1c0.1,0.1,0.2,0.2,0.2,0.4c0.1,0.5,1.6,11.6-1.1,15
			C88.6,130.6,87.7,130.9,86.5,130.9L86.5,130.9z M76.7,126.1c3.1,1.9,9.9,5.4,11.7,3.2l0,0c2.2-2.8,1.1-12.3,0.9-14
			c-2.6-1.5-5.3-2.7-8-3.6C81.5,114,81.4,121,76.7,126.1z"/>
		<path class="st2" d="M74,50.5c-14.6-2.4-24.8,6-27.9,16.8S47.9,89,47.9,89l13.2,9.5l37.1-20.9c0,0,5.6-2.6,2.4-10.6
			S82.8,39.7,74,50.5L74,50.5z"/>
		<path class="st1" d="M61.1,99c-0.1,0-0.2,0-0.3-0.1l-13.2-9.5c-0.1-0.1-0.1-0.1-0.2-0.2c-0.2-0.4-5-11.2-1.9-22
			c3-10.3,12.9-19.6,28.2-17.2c2.1-2.5,4.7-3.6,7.7-3.1c8.2,1.3,17.2,13.6,19.6,19.9c3.3,8.4-2.6,11.2-2.7,11.2l-37,20.8
			C61.3,98.9,61.2,99,61.1,99L61.1,99z M48.3,88.6l12.8,9.2L98,77.2c0.2-0.1,5.2-2.5,2.2-10c-2.3-5.9-11.1-18.1-18.8-19.3
			c-2.7-0.4-5,0.6-6.9,3c-0.1,0.1-0.3,0.2-0.5,0.2C59,48.6,49.4,57.5,46.5,67.5C43.7,77.3,47.8,87.4,48.3,88.6z"/>
		<path class="st2" d="M45.7,89.7c0.6,7.9,8.9,6.3,8.9,6.3s14,19.4,31.8,14.5c15.5-4.3,16.1-19.8,10.7-36.5c-5.9-4.2-16-9.6-16-9.6
			s-6,13.9-13.8,17.1c-7.7,3.2-11,3.8-11.1,5.5c-0.1,1.7,2.2,5.8,2.2,5.8l-3.4,0.6l-5-9.7C50.1,83.7,45.3,84.2,45.7,89.7L45.7,89.7z
			"/>
		<path class="st1" d="M80.6,111.8c-14,0-24.7-13.2-26.2-15.2c-1,0.1-4.2,0.4-6.6-1.4c-1.6-1.2-2.4-3-2.6-5.4l0,0
			c-0.5-5.9,4.8-6.6,4.8-6.6c0.2,0,0.4,0.1,0.5,0.3l4.8,9.3l2.3-0.4c-0.7-1.3-2.1-4.1-2-5.5c0.1-1.5,1.8-2.2,6-3.7
			c1.5-0.6,3.3-1.3,5.5-2.1c7.5-3.1,13.4-16.7,13.5-16.9c0.1-0.1,0.2-0.2,0.3-0.3c0.1-0.1,0.3,0,0.4,0c0.1,0.1,10.2,5.5,16,9.7
			c0.1,0.1,0.1,0.1,0.2,0.2c3.9,12,4.2,21.9,0.6,28.4c-2.3,4.3-6.2,7.3-11.7,8.8C84.5,111.5,82.5,111.8,80.6,111.8L80.6,111.8z
			 M54.6,95.5c0.2,0,0.3,0.1,0.4,0.2c0.1,0.2,14,19.1,31.3,14.3c5.2-1.4,8.9-4.2,11.1-8.3c3.4-6.3,3.1-15.8-0.7-27.5
			c-5.1-3.6-13.3-8.1-15.3-9.3c-1.2,2.6-6.7,14-13.8,16.9c-2.2,0.9-4,1.6-5.5,2.2c-3.4,1.3-5.2,2-5.3,2.9c-0.1,1.2,1.5,4.4,2.2,5.6
			c0.1,0.1,0.1,0.3,0,0.5c-0.1,0.1-0.2,0.2-0.4,0.3l-3.4,0.6c-0.2,0-0.4-0.1-0.5-0.3l-4.8-9.3c-1,0.2-4,1.3-3.6,5.4l0,0
			c0.2,2.1,0.9,3.7,2.2,4.7C50.9,96.2,54.5,95.5,54.6,95.5C54.6,95.5,54.6,95.5,54.6,95.5L54.6,95.5z"/>
		<path class="st1" d="M77.2,83.8c-3.1-0.8-5.6,0.3-7.5,2.9c-0.3,0.5-1.1,0.1-0.9-0.4c0.7-2.7,3.5-4.7,6.3-4.2
			c0.7,0.1,3.2,0.6,2.7,1.6C77.7,83.8,77.4,83.8,77.2,83.8L77.2,83.8L77.2,83.8z"/>
		<path class="st1" d="M92.6,75.7c-3.4-0.8-6.3,2-8.1,4.5c-0.3,0.4-1.1,0-0.9-0.5c1.1-3.7,6-7.3,9.7-4.8
			C93.6,75.4,93.1,76,92.6,75.7L92.6,75.7z"/>
		<path class="st1" d="M89.1,93.7c-1.4,0-3-0.8-3.6-2.3c-0.1-0.3,0-0.6,0.3-0.6c0.3-0.1,0.6,0,0.6,0.3c0.5,1.4,2.2,1.9,3.4,1.6
			c0.5-0.1,1.7-0.7,1.3-2.3c-0.1-0.6-0.4-0.9-0.8-1.2c-1-0.6-2.9-0.1-3.5,0.1c-0.2,0.1-0.5,0-0.6-0.3c0,0-1.7-3.8-2.8-8.8
			c-0.1-0.3,0.1-0.5,0.4-0.6c0.3-0.1,0.5,0.1,0.6,0.4c0.9,4,2.1,7.1,2.6,8.2c0.8-0.2,2.6-0.6,3.8,0.1c0.7,0.4,1.1,1,1.3,1.9
			c0.3,1.7-0.5,3-2.1,3.5C89.8,93.6,89.4,93.7,89.1,93.7L89.1,93.7z"/>
		<path class="st1" d="M74.5,90.1c0.5,1.4,1.8,2.2,2.7,1.8s1.3-1.8,0.8-3.2c-0.2-0.4-0.4-0.8-0.7-1.1L76,89.2v-2.3
			c-0.3-0.1-0.5,0-0.8,0.1C74.3,87.3,74,88.8,74.5,90.1L74.5,90.1z"/>
		<path class="st1" d="M89.4,82.4c0.4,1.4,1.6,2.3,2.6,2.1s1.4-1.7,1-3.1c-0.1-0.4-0.3-0.8-0.6-1.1L91,81.6l0.2-2.3
			c-0.2-0.1-0.5-0.1-0.7,0C89.4,79.6,89,81,89.4,82.4L89.4,82.4z"/>
		<path class="st1" d="M82.8,101.7c-1,0-1.9-0.4-2.7-1.1c-0.2-0.2-0.2-0.5,0-0.7s0.5-0.2,0.7,0c0.7,0.6,1.4,0.9,2.3,0.8
			c2.2-0.1,4.2-2.5,4.2-2.5c0.2-0.2,0.5-0.2,0.7-0.1c0.2,0.2,0.2,0.5,0.1,0.7c-0.1,0.1-2.3,2.7-4.9,2.9
			C83,101.7,82.9,101.7,82.8,101.7L82.8,101.7z"/>
		<path class="st0" d="M70.8,132.9c-0.3,3.8,4.4,4.4,8.2,3.1s6.6-3.2,4.9-6c-1.7-2.8-8.1-3.9-8.1-3.9L70.8,132.9L70.8,132.9z"/>
		<path class="st1" d="M75.4,137.1c-1.4,0-2.8-0.3-3.8-1.1c-0.9-0.7-1.4-1.8-1.3-3.1c0-0.1,0-0.2,0.1-0.2l5.1-6.8
			c0.1-0.1,0.3-0.2,0.5-0.2c0.3,0,6.7,1.1,8.4,4.1c0.6,1,0.7,1.9,0.4,2.8c-0.6,1.5-2.4,2.8-5.6,3.9C78,136.9,76.7,137.1,75.4,137.1
			L75.4,137.1z M71.3,133.1c-0.1,0.9,0.2,1.6,0.9,2.1c1.3,1.1,4.1,1.2,6.7,0.3c2.9-1,4.5-2.1,5-3.3c0.2-0.6,0.1-1.2-0.3-2
			c-1.3-2.2-6.2-3.3-7.4-3.6L71.3,133.1L71.3,133.1z"/>
		<path class="st1" d="M70.8,282.4c-0.1,0-0.2,0-0.3-0.1c-0.2-0.2-0.2-0.5,0-0.7l18.1-18.8c0.2-0.2,0.5-0.2,0.7,0
			c0.2,0.2,0.2,0.5,0,0.7l-18.1,18.8C71.1,282.3,70.9,282.4,70.8,282.4L70.8,282.4z"/>
	</g>
	<g id="setting">
		<path class="st0" d="M215.3,102.7c-0.2-0.2-0.4-0.5-0.3-0.8c0-0.1,0-0.3,0-0.4v-1.8c0-0.1,0-0.3,0-0.4c0-0.3,0.1-0.6,0.3-0.8
			l6-4.6c0.4-0.3,0.5-0.8,0.2-1.1L214.8,81c-0.2-0.4-0.7-0.5-1.1-0.4l-6.9,2.9c-0.3,0.1-0.6,0.1-0.8-0.1c-0.4-0.3-0.8-0.5-1.2-0.8
			s-0.8-0.4-1.2-0.6c-0.3-0.1-0.5-0.4-0.5-0.7l-0.9-7.5c-0.1-0.4-0.4-0.8-0.9-0.8h-13.5c-0.4,0-0.8,0.3-0.9,0.8l-0.9,7.5
			c0,0.3-0.2,0.6-0.5,0.7c-0.4,0.2-0.8,0.4-1.2,0.6c-0.4,0.2-0.8,0.5-1.2,0.8c-0.2,0.2-0.6,0.2-0.8,0.1l-7-2.9
			c-0.4-0.2-0.9,0-1.1,0.4l-6.7,11.6c-0.2,0.4-0.1,0.9,0.2,1.1l6,4.6c0.2,0.2,0.4,0.5,0.3,0.8c0,0.1,0,0.3,0,0.4v1.8
			c0,0.1,0,0.3,0,0.4c0,0.3-0.1,0.6-0.3,0.8l-6,4.6c-0.4,0.3-0.4,0.8-0.2,1.1l6.7,11.6c0.2,0.4,0.7,0.5,1.1,0.4l7-2.9
			c0.3-0.1,0.6-0.1,0.8,0.1c0.4,0.3,0.8,0.5,1.2,0.8c0.4,0.2,0.8,0.4,1.2,0.6c0.3,0.1,0.5,0.4,0.5,0.7l0.9,7.5
			c0.1,0.4,0.4,0.8,0.9,0.8h13.5c0.4,0,0.8-0.3,0.9-0.8l0.9-7.5c0-0.3,0.2-0.6,0.5-0.7c0.4-0.2,0.8-0.4,1.2-0.6
			c0.4-0.2,0.8-0.5,1.2-0.8c0.2-0.2,0.6-0.2,0.8-0.1l6.9,2.9c0.4,0.2,0.9,0,1.1-0.4l6.7-11.6c0.2-0.4,0.1-0.9-0.2-1.1L215.3,102.7
			L215.3,102.7z M194.5,112.4c-6.5,0-11.8-5.3-11.8-11.8s5.3-11.9,11.8-11.9s11.9,5.3,11.9,11.9S201,112.4,194.5,112.4z"/>
		<path class="st0" d="M201.2,128.3h-13.5c-0.7,0-1.3-0.5-1.4-1.2l-0.9-7.5c0-0.1-0.1-0.2-0.2-0.3c-0.5-0.2-0.9-0.5-1.3-0.7
			c-0.4-0.2-0.8-0.5-1.2-0.8c-0.1-0.1-0.2-0.1-0.3,0l-7,2.9c-0.6,0.3-1.4,0-1.7-0.6l-6.7-11.6c-0.3-0.6-0.2-1.3,0.4-1.8l6-4.6
			c0.1-0.1,0.2-0.2,0.1-0.3c0-0.2,0-0.3,0-0.5v-1.8c0-0.2,0-0.3,0-0.5c0-0.1,0-0.2-0.1-0.3l-6-4.6c-0.6-0.4-0.7-1.2-0.4-1.8
			l6.7-11.6c0.4-0.6,1.1-0.8,1.7-0.6l7,2.9c0.1,0.1,0.3,0,0.4,0c0.4-0.3,0.8-0.5,1.2-0.8c0.4-0.2,0.9-0.5,1.3-0.7
			c0.1-0.1,0.2-0.1,0.2-0.3l0.9-7.5c0.1-0.7,0.7-1.2,1.4-1.2h13.5c0.7,0,1.3,0.5,1.4,1.2l0.9,7.5c0,0.1,0.1,0.2,0.2,0.3
			c0.5,0.2,0.9,0.4,1.3,0.7c0.4,0.2,0.8,0.5,1.2,0.8c0.1,0.1,0.2,0.1,0.4,0l6.9-2.9c0.6-0.3,1.4,0,1.7,0.6l6.7,11.6
			c0.4,0.6,0.2,1.4-0.4,1.8l-6,4.6c-0.1,0.1-0.1,0.2-0.1,0.4c0,0.1,0,0.3,0,0.5v1.8c0,0.2,0,0.3,0,0.5c0,0.1,0,0.3,0.1,0.4l6,4.5
			c0.6,0.4,0.7,1.2,0.4,1.8l-6.7,11.6c-0.4,0.6-1.1,0.9-1.7,0.6l-6.9-2.9c-0.1-0.1-0.3,0-0.4,0c-0.4,0.3-0.8,0.5-1.2,0.8
			c-0.4,0.2-0.8,0.5-1.2,0.6c-0.1,0.1-0.2,0.2-0.2,0.3l-0.9,7.5C202.5,127.8,201.9,128.3,201.2,128.3L201.2,128.3z M182.6,116.8
			c0.3,0,0.6,0.1,0.8,0.2c0.4,0.2,0.7,0.5,1.1,0.7c0.3,0.2,0.7,0.4,1.1,0.6c0.4,0.2,0.8,0.6,0.8,1.1l0.9,7.5c0,0.2,0.2,0.3,0.4,0.3
			h13.5c0.2,0,0.4-0.1,0.4-0.3l0.9-7.5c0.1-0.5,0.4-0.9,0.8-1.1c0.4-0.2,0.8-0.4,1.1-0.6c0.4-0.2,0.8-0.5,1.2-0.7
			c0.4-0.3,0.9-0.3,1.3-0.1l6.9,2.9c0.2,0.1,0.4,0,0.5-0.2l6.7-11.6c0.1-0.2,0.1-0.4-0.1-0.5l-6-4.5l0,0c-0.4-0.3-0.6-0.8-0.5-1.3
			c0-0.1,0-0.2,0-0.4v-1.8c0-0.1,0-0.3,0-0.4c0-0.5,0.2-1,0.5-1.2l6-4.6c0.2-0.1,0.2-0.3,0.1-0.5l-6.7-11.6
			c-0.1-0.2-0.3-0.2-0.5-0.1l-6.9,2.9c-0.4,0.2-0.9,0.1-1.3-0.1c-0.4-0.2-0.8-0.5-1.1-0.7c-0.4-0.2-0.7-0.4-1.2-0.6
			c-0.4-0.2-0.8-0.6-0.8-1.1l-0.9-7.5c0-0.2-0.2-0.3-0.4-0.3h-13.5c-0.2,0-0.4,0.1-0.4,0.3l-0.9,7.5c-0.1,0.4-0.3,0.9-0.8,1.1
			c-0.4,0.2-0.8,0.4-1.2,0.6c-0.4,0.2-0.8,0.5-1.1,0.7c-0.4,0.3-0.9,0.3-1.3,0.1l-6.9-2.9c-0.2-0.1-0.4,0-0.5,0.2l-6.7,11.6
			c-0.1,0.2-0.1,0.4,0.1,0.5l6,4.6c0.4,0.3,0.6,0.7,0.5,1.2c0,0.1,0,0.3,0,0.4v1.8c0,0.1,0,0.3,0,0.4c0.1,0.5-0.2,0.9-0.6,1.2
			l-6,4.6c-0.1,0.1-0.2,0.3-0.1,0.5l6.7,11.6c0.1,0.2,0.3,0.2,0.5,0.2l7-2.9C182.3,116.9,182.4,116.9,182.6,116.8L182.6,116.8z
			 M194.5,112.9c-6.8,0-12.3-5.5-12.3-12.3s5.5-12.4,12.3-12.4s12.4,5.5,12.4,12.4S201.3,112.9,194.5,112.9z M194.5,89.2
			c-6.2,0-11.3,5.1-11.3,11.4s5.1,11.3,11.3,11.3s11.4-5.1,11.4-11.3S200.7,89.2,194.5,89.2z"/>
		<path class="st0" d="M215.3,102.7c-0.2-0.2-0.4-0.5-0.3-0.8c0-0.1,0-0.3,0-0.4v-1.8c0-0.1,0-0.3,0-0.4c0-0.3,0.1-0.6,0.3-0.8
			l6-4.6c0.4-0.3,0.5-0.8,0.2-1.1L214.8,81c-0.2-0.4-0.7-0.5-1.1-0.4l-6.9,2.9c-0.3,0.1-0.6,0.1-0.8-0.1c-0.4-0.3-0.8-0.5-1.2-0.8
			s-0.8-0.4-1.2-0.6c-0.3-0.1-0.5-0.4-0.5-0.7l-0.9-7.5c-0.1-0.4-0.4-0.8-0.9-0.8h-13.5c-0.4,0-0.8,0.3-0.9,0.8l-0.9,7.5
			c0,0.3-0.2,0.6-0.5,0.7c-0.4,0.2-0.8,0.4-1.2,0.6c-0.4,0.2-0.8,0.5-1.2,0.8c-0.2,0.2-0.6,0.2-0.8,0.1l-7-2.9
			c-0.4-0.2-0.9,0-1.1,0.4l-6.7,11.6c-0.2,0.4-0.1,0.9,0.2,1.1l6,4.6c0.2,0.2,0.4,0.5,0.3,0.8c0,0.1,0,0.3,0,0.4v1.8
			c0,0.1,0,0.3,0,0.4c0,0.3-0.1,0.6-0.3,0.8l-6,4.6c-0.4,0.3-0.4,0.8-0.2,1.1l6.7,11.6c0.2,0.4,0.7,0.5,1.1,0.4l7-2.9
			c0.3-0.1,0.6-0.1,0.8,0.1c0.4,0.3,0.8,0.5,1.2,0.8c0.4,0.2,0.8,0.4,1.2,0.6c0.3,0.1,0.5,0.4,0.5,0.7l0.9,7.5
			c0.1,0.4,0.4,0.8,0.9,0.8h13.5c0.4,0,0.8-0.3,0.9-0.8l0.9-7.5c0-0.3,0.2-0.6,0.5-0.7c0.4-0.2,0.8-0.4,1.2-0.6
			c0.4-0.2,0.8-0.5,1.2-0.8c0.2-0.2,0.6-0.2,0.8-0.1l6.9,2.9c0.4,0.2,0.9,0,1.1-0.4l6.7-11.6c0.2-0.4,0.1-0.9-0.2-1.1L215.3,102.7
			L215.3,102.7z M194.5,112.4c-6.5,0-11.8-5.3-11.8-11.8s5.3-11.9,11.8-11.9s11.9,5.3,11.9,11.9S201,112.4,194.5,112.4z"/>
		<path class="st0" d="M201.2,128.3h-13.5c-0.7,0-1.3-0.5-1.4-1.2l-0.9-7.5c0-0.1-0.1-0.2-0.2-0.3c-0.5-0.2-0.9-0.5-1.3-0.7
			c-0.4-0.2-0.8-0.5-1.2-0.8c-0.1-0.1-0.2-0.1-0.3,0l-7,2.9c-0.6,0.3-1.4,0-1.7-0.6l-6.7-11.6c-0.3-0.6-0.2-1.3,0.4-1.8l6-4.6
			c0.1-0.1,0.2-0.2,0.1-0.3c0-0.2,0-0.3,0-0.5v-1.8c0-0.2,0-0.3,0-0.5c0-0.1,0-0.2-0.1-0.3l-6-4.6c-0.6-0.4-0.7-1.2-0.4-1.8
			l6.7-11.6c0.4-0.6,1.1-0.8,1.7-0.6l7,2.9c0.1,0.1,0.3,0,0.4,0c0.4-0.3,0.8-0.5,1.2-0.8c0.4-0.2,0.9-0.5,1.3-0.7
			c0.1-0.1,0.2-0.1,0.2-0.3l0.9-7.5c0.1-0.7,0.7-1.2,1.4-1.2h13.5c0.7,0,1.3,0.5,1.4,1.2l0.9,7.5c0,0.1,0.1,0.2,0.2,0.3
			c0.5,0.2,0.9,0.4,1.3,0.7c0.4,0.2,0.8,0.5,1.2,0.8c0.1,0.1,0.2,0.1,0.4,0l6.9-2.9c0.6-0.3,1.4,0,1.7,0.6l6.7,11.6
			c0.4,0.6,0.2,1.4-0.4,1.8l-6,4.6c-0.1,0.1-0.1,0.2-0.1,0.4c0,0.1,0,0.3,0,0.5v1.8c0,0.2,0,0.3,0,0.5c0,0.1,0,0.3,0.1,0.4l6,4.5
			c0.6,0.4,0.7,1.2,0.4,1.8l-6.7,11.6c-0.4,0.6-1.1,0.9-1.7,0.6l-6.9-2.9c-0.1-0.1-0.3,0-0.4,0c-0.4,0.3-0.8,0.5-1.2,0.8
			c-0.4,0.2-0.8,0.5-1.2,0.6c-0.1,0.1-0.2,0.2-0.2,0.3l-0.9,7.5C202.5,127.8,201.9,128.3,201.2,128.3L201.2,128.3z M182.6,116.8
			c0.3,0,0.6,0.1,0.8,0.2c0.4,0.2,0.7,0.5,1.1,0.7c0.3,0.2,0.7,0.4,1.1,0.6c0.4,0.2,0.8,0.6,0.8,1.1l0.9,7.5c0,0.2,0.2,0.3,0.4,0.3
			h13.5c0.2,0,0.4-0.1,0.4-0.3l0.9-7.5c0.1-0.5,0.4-0.9,0.8-1.1c0.4-0.2,0.8-0.4,1.1-0.6c0.4-0.2,0.8-0.5,1.2-0.7
			c0.4-0.3,0.9-0.3,1.3-0.1l6.9,2.9c0.2,0.1,0.4,0,0.5-0.2l6.7-11.6c0.1-0.2,0.1-0.4-0.1-0.5l-6-4.5l0,0c-0.4-0.3-0.6-0.8-0.5-1.3
			c0-0.1,0-0.2,0-0.4v-1.8c0-0.1,0-0.3,0-0.4c0-0.5,0.2-1,0.5-1.2l6-4.6c0.2-0.1,0.2-0.3,0.1-0.5l-6.7-11.6
			c-0.1-0.2-0.3-0.2-0.5-0.1l-6.9,2.9c-0.4,0.2-0.9,0.1-1.3-0.1c-0.4-0.2-0.8-0.5-1.1-0.7c-0.4-0.2-0.7-0.4-1.2-0.6
			c-0.4-0.2-0.8-0.6-0.8-1.1l-0.9-7.5c0-0.2-0.2-0.3-0.4-0.3h-13.5c-0.2,0-0.4,0.1-0.4,0.3l-0.9,7.5c-0.1,0.4-0.3,0.9-0.8,1.1
			c-0.4,0.2-0.8,0.4-1.2,0.6c-0.4,0.2-0.8,0.5-1.1,0.7c-0.4,0.3-0.9,0.3-1.3,0.1l-6.9-2.9c-0.2-0.1-0.4,0-0.5,0.2l-6.7,11.6
			c-0.1,0.2-0.1,0.4,0.1,0.5l6,4.6c0.4,0.3,0.6,0.7,0.5,1.2c0,0.1,0,0.3,0,0.4v1.8c0,0.1,0,0.3,0,0.4c0.1,0.5-0.2,0.9-0.6,1.2
			l-6,4.6c-0.1,0.1-0.2,0.3-0.1,0.5l6.7,11.6c0.1,0.2,0.3,0.2,0.5,0.2l7-2.9C182.3,116.9,182.4,116.9,182.6,116.8L182.6,116.8z
			 M194.5,112.9c-6.8,0-12.3-5.5-12.3-12.3s5.5-12.4,12.3-12.4s12.4,5.5,12.4,12.4S201.3,112.9,194.5,112.9z M194.5,89.2
			c-6.2,0-11.3,5.1-11.3,11.4s5.1,11.3,11.3,11.3s11.4-5.1,11.4-11.3S200.7,89.2,194.5,89.2z"/>
		<path class="st0" d="M215.3,102.7c-0.2-0.2-0.4-0.5-0.3-0.8c0-0.1,0-0.3,0-0.4v-1.8c0-0.1,0-0.3,0-0.4c0-0.3,0.1-0.6,0.3-0.8
			l6-4.6c0.4-0.3,0.5-0.8,0.2-1.1L214.8,81c-0.2-0.4-0.7-0.5-1.1-0.4l-6.9,2.9c-0.3,0.1-0.6,0.1-0.8-0.1c-0.4-0.3-0.8-0.5-1.2-0.8
			s-0.8-0.4-1.2-0.6c-0.3-0.1-0.5-0.4-0.5-0.7l-0.9-7.5c-0.1-0.4-0.4-0.8-0.9-0.8h-13.5c-0.4,0-0.8,0.3-0.9,0.8l-0.9,7.5
			c0,0.3-0.2,0.6-0.5,0.7c-0.4,0.2-0.8,0.4-1.2,0.6c-0.4,0.2-0.8,0.5-1.2,0.8c-0.2,0.2-0.6,0.2-0.8,0.1l-7-2.9
			c-0.4-0.2-0.9,0-1.1,0.4l-6.7,11.6c-0.2,0.4-0.1,0.9,0.2,1.1l6,4.6c0.2,0.2,0.4,0.5,0.3,0.8c0,0.1,0,0.3,0,0.4v1.8
			c0,0.1,0,0.3,0,0.4c0,0.3-0.1,0.6-0.3,0.8l-6,4.6c-0.4,0.3-0.4,0.8-0.2,1.1l6.7,11.6c0.2,0.4,0.7,0.5,1.1,0.4l7-2.9
			c0.3-0.1,0.6-0.1,0.8,0.1c0.4,0.3,0.8,0.5,1.2,0.8c0.4,0.2,0.8,0.4,1.2,0.6c0.3,0.1,0.5,0.4,0.5,0.7l0.9,7.5
			c0.1,0.4,0.4,0.8,0.9,0.8h13.5c0.4,0,0.8-0.3,0.9-0.8l0.9-7.5c0-0.3,0.2-0.6,0.5-0.7c0.4-0.2,0.8-0.4,1.2-0.6
			c0.4-0.2,0.8-0.5,1.2-0.8c0.2-0.2,0.6-0.2,0.8-0.1l6.9,2.9c0.4,0.2,0.9,0,1.1-0.4l6.7-11.6c0.2-0.4,0.1-0.9-0.2-1.1L215.3,102.7
			L215.3,102.7z M194.5,112.4c-6.5,0-11.8-5.3-11.8-11.8s5.3-11.9,11.8-11.9s11.9,5.3,11.9,11.9S201,112.4,194.5,112.4z"/>
		<path class="st0" d="M201.2,128.3h-13.5c-0.7,0-1.3-0.5-1.4-1.2l-0.9-7.5c0-0.1-0.1-0.2-0.2-0.3c-0.5-0.2-0.9-0.5-1.3-0.7
			c-0.4-0.2-0.8-0.5-1.2-0.8c-0.1-0.1-0.2-0.1-0.3,0l-7,2.9c-0.6,0.3-1.4,0-1.7-0.6l-6.7-11.6c-0.3-0.6-0.2-1.3,0.4-1.8l6-4.6
			c0.1-0.1,0.2-0.2,0.1-0.3c0-0.2,0-0.3,0-0.5v-1.8c0-0.2,0-0.3,0-0.5c0-0.1,0-0.2-0.1-0.3l-6-4.6c-0.6-0.4-0.7-1.2-0.4-1.8
			l6.7-11.6c0.4-0.6,1.1-0.8,1.7-0.6l7,2.9c0.1,0.1,0.3,0,0.4,0c0.4-0.3,0.8-0.5,1.2-0.8c0.4-0.2,0.9-0.5,1.3-0.7
			c0.1-0.1,0.2-0.1,0.2-0.3l0.9-7.5c0.1-0.7,0.7-1.2,1.4-1.2h13.5c0.7,0,1.3,0.5,1.4,1.2l0.9,7.5c0,0.1,0.1,0.2,0.2,0.3
			c0.5,0.2,0.9,0.4,1.3,0.7c0.4,0.2,0.8,0.5,1.2,0.8c0.1,0.1,0.2,0.1,0.4,0l6.9-2.9c0.6-0.3,1.4,0,1.7,0.6l6.7,11.6
			c0.4,0.6,0.2,1.4-0.4,1.8l-6,4.6c-0.1,0.1-0.1,0.2-0.1,0.4c0,0.1,0,0.3,0,0.5v1.8c0,0.2,0,0.3,0,0.5c0,0.1,0,0.3,0.1,0.4l6,4.5
			c0.6,0.4,0.7,1.2,0.4,1.8l-6.7,11.6c-0.4,0.6-1.1,0.9-1.7,0.6l-6.9-2.9c-0.1-0.1-0.3,0-0.4,0c-0.4,0.3-0.8,0.5-1.2,0.8
			c-0.4,0.2-0.8,0.5-1.2,0.6c-0.1,0.1-0.2,0.2-0.2,0.3l-0.9,7.5C202.5,127.8,201.9,128.3,201.2,128.3L201.2,128.3z M182.6,116.8
			c0.3,0,0.6,0.1,0.8,0.2c0.4,0.2,0.7,0.5,1.1,0.7c0.3,0.2,0.7,0.4,1.1,0.6c0.4,0.2,0.8,0.6,0.8,1.1l0.9,7.5c0,0.2,0.2,0.3,0.4,0.3
			h13.5c0.2,0,0.4-0.1,0.4-0.3l0.9-7.5c0.1-0.5,0.4-0.9,0.8-1.1c0.4-0.2,0.8-0.4,1.1-0.6c0.4-0.2,0.8-0.5,1.2-0.7
			c0.4-0.3,0.9-0.3,1.3-0.1l6.9,2.9c0.2,0.1,0.4,0,0.5-0.2l6.7-11.6c0.1-0.2,0.1-0.4-0.1-0.5l-6-4.5l0,0c-0.4-0.3-0.6-0.8-0.5-1.3
			c0-0.1,0-0.2,0-0.4v-1.8c0-0.1,0-0.3,0-0.4c0-0.5,0.2-1,0.5-1.2l6-4.6c0.2-0.1,0.2-0.3,0.1-0.5l-6.7-11.6
			c-0.1-0.2-0.3-0.2-0.5-0.1l-6.9,2.9c-0.4,0.2-0.9,0.1-1.3-0.1c-0.4-0.2-0.8-0.5-1.1-0.7c-0.4-0.2-0.7-0.4-1.2-0.6
			c-0.4-0.2-0.8-0.6-0.8-1.1l-0.9-7.5c0-0.2-0.2-0.3-0.4-0.3h-13.5c-0.2,0-0.4,0.1-0.4,0.3l-0.9,7.5c-0.1,0.4-0.3,0.9-0.8,1.1
			c-0.4,0.2-0.8,0.4-1.2,0.6c-0.4,0.2-0.8,0.5-1.1,0.7c-0.4,0.3-0.9,0.3-1.3,0.1l-6.9-2.9c-0.2-0.1-0.4,0-0.5,0.2l-6.7,11.6
			c-0.1,0.2-0.1,0.4,0.1,0.5l6,4.6c0.4,0.3,0.6,0.7,0.5,1.2c0,0.1,0,0.3,0,0.4v1.8c0,0.1,0,0.3,0,0.4c0.1,0.5-0.2,0.9-0.6,1.2
			l-6,4.6c-0.1,0.1-0.2,0.3-0.1,0.5l6.7,11.6c0.1,0.2,0.3,0.2,0.5,0.2l7-2.9C182.3,116.9,182.4,116.9,182.6,116.8L182.6,116.8z
			 M194.5,112.9c-6.8,0-12.3-5.5-12.3-12.3s5.5-12.4,12.3-12.4s12.4,5.5,12.4,12.4S201.3,112.9,194.5,112.9z M194.5,89.2
			c-6.2,0-11.3,5.1-11.3,11.4s5.1,11.3,11.3,11.3s11.4-5.1,11.4-11.3S200.7,89.2,194.5,89.2z"/>
		<path class="st0" d="M215.3,102.7c-0.2-0.2-0.4-0.5-0.3-0.8c0-0.1,0-0.3,0-0.4v-1.8c0-0.1,0-0.3,0-0.4c0-0.3,0.1-0.6,0.3-0.8
			l6-4.6c0.4-0.3,0.5-0.8,0.2-1.1L214.8,81c-0.2-0.4-0.7-0.5-1.1-0.4l-6.9,2.9c-0.3,0.1-0.6,0.1-0.8-0.1c-0.4-0.3-0.8-0.5-1.2-0.8
			s-0.8-0.4-1.2-0.6c-0.3-0.1-0.5-0.4-0.5-0.7l-0.9-7.5c-0.1-0.4-0.4-0.8-0.9-0.8h-13.5c-0.4,0-0.8,0.3-0.9,0.8l-0.9,7.5
			c0,0.3-0.2,0.6-0.5,0.7c-0.4,0.2-0.8,0.4-1.2,0.6c-0.4,0.2-0.8,0.5-1.2,0.8c-0.2,0.2-0.6,0.2-0.8,0.1l-7-2.9
			c-0.4-0.2-0.9,0-1.1,0.4l-6.7,11.6c-0.2,0.4-0.1,0.9,0.2,1.1l6,4.6c0.2,0.2,0.4,0.5,0.3,0.8c0,0.1,0,0.3,0,0.4v1.8
			c0,0.1,0,0.3,0,0.4c0,0.3-0.1,0.6-0.3,0.8l-6,4.6c-0.4,0.3-0.4,0.8-0.2,1.1l6.7,11.6c0.2,0.4,0.7,0.5,1.1,0.4l7-2.9
			c0.3-0.1,0.6-0.1,0.8,0.1c0.4,0.3,0.8,0.5,1.2,0.8c0.4,0.2,0.8,0.4,1.2,0.6c0.3,0.1,0.5,0.4,0.5,0.7l0.9,7.5
			c0.1,0.4,0.4,0.8,0.9,0.8h13.5c0.4,0,0.8-0.3,0.9-0.8l0.9-7.5c0-0.3,0.2-0.6,0.5-0.7c0.4-0.2,0.8-0.4,1.2-0.6
			c0.4-0.2,0.8-0.5,1.2-0.8c0.2-0.2,0.6-0.2,0.8-0.1l6.9,2.9c0.4,0.2,0.9,0,1.1-0.4l6.7-11.6c0.2-0.4,0.1-0.9-0.2-1.1L215.3,102.7
			L215.3,102.7z M194.5,112.4c-6.5,0-11.8-5.3-11.8-11.8s5.3-11.9,11.8-11.9s11.9,5.3,11.9,11.9S201,112.4,194.5,112.4z"/>
		<path class="st0" d="M201.2,128.3h-13.5c-0.7,0-1.3-0.5-1.4-1.2l-0.9-7.5c0-0.1-0.1-0.2-0.2-0.3c-0.5-0.2-0.9-0.5-1.3-0.7
			c-0.4-0.2-0.8-0.5-1.2-0.8c-0.1-0.1-0.2-0.1-0.3,0l-7,2.9c-0.6,0.3-1.4,0-1.7-0.6l-6.7-11.6c-0.3-0.6-0.2-1.3,0.4-1.8l6-4.6
			c0.1-0.1,0.2-0.2,0.1-0.3c0-0.2,0-0.3,0-0.5v-1.8c0-0.2,0-0.3,0-0.5c0-0.1,0-0.2-0.1-0.3l-6-4.6c-0.6-0.4-0.7-1.2-0.4-1.8
			l6.7-11.6c0.4-0.6,1.1-0.8,1.7-0.6l7,2.9c0.1,0.1,0.3,0,0.4,0c0.4-0.3,0.8-0.5,1.2-0.8c0.4-0.2,0.9-0.5,1.3-0.7
			c0.1-0.1,0.2-0.1,0.2-0.3l0.9-7.5c0.1-0.7,0.7-1.2,1.4-1.2h13.5c0.7,0,1.3,0.5,1.4,1.2l0.9,7.5c0,0.1,0.1,0.2,0.2,0.3
			c0.5,0.2,0.9,0.4,1.3,0.7c0.4,0.2,0.8,0.5,1.2,0.8c0.1,0.1,0.2,0.1,0.4,0l6.9-2.9c0.6-0.3,1.4,0,1.7,0.6l6.7,11.6
			c0.4,0.6,0.2,1.4-0.4,1.8l-6,4.6c-0.1,0.1-0.1,0.2-0.1,0.4c0,0.1,0,0.3,0,0.5v1.8c0,0.2,0,0.3,0,0.5c0,0.1,0,0.3,0.1,0.4l6,4.5
			c0.6,0.4,0.7,1.2,0.4,1.8l-6.7,11.6c-0.4,0.6-1.1,0.9-1.7,0.6l-6.9-2.9c-0.1-0.1-0.3,0-0.4,0c-0.4,0.3-0.8,0.5-1.2,0.8
			c-0.4,0.2-0.8,0.5-1.2,0.6c-0.1,0.1-0.2,0.2-0.2,0.3l-0.9,7.5C202.5,127.8,201.9,128.3,201.2,128.3L201.2,128.3z M182.6,116.8
			c0.3,0,0.6,0.1,0.8,0.2c0.4,0.2,0.7,0.5,1.1,0.7c0.3,0.2,0.7,0.4,1.1,0.6c0.4,0.2,0.8,0.6,0.8,1.1l0.9,7.5c0,0.2,0.2,0.3,0.4,0.3
			h13.5c0.2,0,0.4-0.1,0.4-0.3l0.9-7.5c0.1-0.5,0.4-0.9,0.8-1.1c0.4-0.2,0.8-0.4,1.1-0.6c0.4-0.2,0.8-0.5,1.2-0.7
			c0.4-0.3,0.9-0.3,1.3-0.1l6.9,2.9c0.2,0.1,0.4,0,0.5-0.2l6.7-11.6c0.1-0.2,0.1-0.4-0.1-0.5l-6-4.5l0,0c-0.4-0.3-0.6-0.8-0.5-1.3
			c0-0.1,0-0.2,0-0.4v-1.8c0-0.1,0-0.3,0-0.4c0-0.5,0.2-1,0.5-1.2l6-4.6c0.2-0.1,0.2-0.3,0.1-0.5l-6.7-11.6
			c-0.1-0.2-0.3-0.2-0.5-0.1l-6.9,2.9c-0.4,0.2-0.9,0.1-1.3-0.1c-0.4-0.2-0.8-0.5-1.1-0.7c-0.4-0.2-0.7-0.4-1.2-0.6
			c-0.4-0.2-0.8-0.6-0.8-1.1l-0.9-7.5c0-0.2-0.2-0.3-0.4-0.3h-13.5c-0.2,0-0.4,0.1-0.4,0.3l-0.9,7.5c-0.1,0.4-0.3,0.9-0.8,1.1
			c-0.4,0.2-0.8,0.4-1.2,0.6c-0.4,0.2-0.8,0.5-1.1,0.7c-0.4,0.3-0.9,0.3-1.3,0.1l-6.9-2.9c-0.2-0.1-0.4,0-0.5,0.2l-6.7,11.6
			c-0.1,0.2-0.1,0.4,0.1,0.5l6,4.6c0.4,0.3,0.6,0.7,0.5,1.2c0,0.1,0,0.3,0,0.4v1.8c0,0.1,0,0.3,0,0.4c0.1,0.5-0.2,0.9-0.6,1.2
			l-6,4.6c-0.1,0.1-0.2,0.3-0.1,0.5l6.7,11.6c0.1,0.2,0.3,0.2,0.5,0.2l7-2.9C182.3,116.9,182.4,116.9,182.6,116.8L182.6,116.8z
			 M194.5,112.9c-6.8,0-12.3-5.5-12.3-12.3s5.5-12.4,12.3-12.4s12.4,5.5,12.4,12.4S201.3,112.9,194.5,112.9z M194.5,89.2
			c-6.2,0-11.3,5.1-11.3,11.4s5.1,11.3,11.3,11.3s11.4-5.1,11.4-11.3S200.7,89.2,194.5,89.2z"/>
		<path class="st0" d="M215.3,102.7c-0.2-0.2-0.4-0.5-0.3-0.8c0-0.1,0-0.3,0-0.4v-1.8c0-0.1,0-0.3,0-0.4c0-0.3,0.1-0.6,0.3-0.8
			l6-4.6c0.4-0.3,0.5-0.8,0.2-1.1L214.8,81c-0.2-0.4-0.7-0.5-1.1-0.4l-6.9,2.9c-0.3,0.1-0.6,0.1-0.8-0.1c-0.4-0.3-0.8-0.5-1.2-0.8
			s-0.8-0.4-1.2-0.6c-0.3-0.1-0.5-0.4-0.5-0.7l-0.9-7.5c-0.1-0.4-0.4-0.8-0.9-0.8h-13.5c-0.4,0-0.8,0.3-0.9,0.8l-0.9,7.5
			c0,0.3-0.2,0.6-0.5,0.7c-0.4,0.2-0.8,0.4-1.2,0.6c-0.4,0.2-0.8,0.5-1.2,0.8c-0.2,0.2-0.6,0.2-0.8,0.1l-7-2.9
			c-0.4-0.2-0.9,0-1.1,0.4l-6.7,11.6c-0.2,0.4-0.1,0.9,0.2,1.1l6,4.6c0.2,0.2,0.4,0.5,0.3,0.8c0,0.1,0,0.3,0,0.4v1.8
			c0,0.1,0,0.3,0,0.4c0,0.3-0.1,0.6-0.3,0.8l-6,4.6c-0.4,0.3-0.4,0.8-0.2,1.1l6.7,11.6c0.2,0.4,0.7,0.5,1.1,0.4l7-2.9
			c0.3-0.1,0.6-0.1,0.8,0.1c0.4,0.3,0.8,0.5,1.2,0.8c0.4,0.2,0.8,0.4,1.2,0.6c0.3,0.1,0.5,0.4,0.5,0.7l0.9,7.5
			c0.1,0.4,0.4,0.8,0.9,0.8h13.5c0.4,0,0.8-0.3,0.9-0.8l0.9-7.5c0-0.3,0.2-0.6,0.5-0.7c0.4-0.2,0.8-0.4,1.2-0.6
			c0.4-0.2,0.8-0.5,1.2-0.8c0.2-0.2,0.6-0.2,0.8-0.1l6.9,2.9c0.4,0.2,0.9,0,1.1-0.4l6.7-11.6c0.2-0.4,0.1-0.9-0.2-1.1L215.3,102.7
			L215.3,102.7z M194.5,112.4c-6.5,0-11.8-5.3-11.8-11.8s5.3-11.9,11.8-11.9s11.9,5.3,11.9,11.9S201,112.4,194.5,112.4z"/>
		<path class="st1" d="M201.2,128.3h-13.5c-0.7,0-1.3-0.5-1.4-1.2l-0.9-7.5c0-0.1-0.1-0.2-0.2-0.3c-0.5-0.2-0.9-0.5-1.3-0.7
			c-0.4-0.2-0.8-0.5-1.2-0.8c-0.1-0.1-0.2-0.1-0.3,0l-7,2.9c-0.6,0.3-1.4,0-1.7-0.6l-6.7-11.6c-0.3-0.6-0.2-1.3,0.4-1.8l6-4.6
			c0.1-0.1,0.2-0.2,0.1-0.3c0-0.2,0-0.3,0-0.5v-1.8c0-0.2,0-0.3,0-0.5c0-0.1,0-0.2-0.1-0.3l-6-4.6c-0.6-0.4-0.7-1.2-0.4-1.8
			l6.7-11.6c0.4-0.6,1.1-0.8,1.7-0.6l7,2.9c0.1,0.1,0.3,0,0.4,0c0.4-0.3,0.8-0.5,1.2-0.8c0.4-0.2,0.9-0.5,1.3-0.7
			c0.1-0.1,0.2-0.1,0.2-0.3l0.9-7.5c0.1-0.7,0.7-1.2,1.4-1.2h13.5c0.7,0,1.3,0.5,1.4,1.2l0.9,7.5c0,0.1,0.1,0.2,0.2,0.3
			c0.5,0.2,0.9,0.4,1.3,0.7c0.4,0.2,0.8,0.5,1.2,0.8c0.1,0.1,0.2,0.1,0.4,0l6.9-2.9c0.6-0.3,1.4,0,1.7,0.6l6.7,11.6
			c0.4,0.6,0.2,1.4-0.4,1.8l-6,4.6c-0.1,0.1-0.1,0.2-0.1,0.4c0,0.1,0,0.3,0,0.5v1.8c0,0.2,0,0.3,0,0.5c0,0.1,0,0.3,0.1,0.4l6,4.5
			c0.6,0.4,0.7,1.2,0.4,1.8l-6.7,11.6c-0.4,0.6-1.1,0.9-1.7,0.6l-6.9-2.9c-0.1-0.1-0.3,0-0.4,0c-0.4,0.3-0.8,0.5-1.2,0.8
			c-0.4,0.2-0.8,0.5-1.2,0.6c-0.1,0.1-0.2,0.2-0.2,0.3l-0.9,7.5C202.5,127.8,201.9,128.3,201.2,128.3L201.2,128.3z M182.6,116.8
			c0.3,0,0.6,0.1,0.8,0.2c0.4,0.2,0.7,0.5,1.1,0.7c0.3,0.2,0.7,0.4,1.1,0.6c0.4,0.2,0.8,0.6,0.8,1.1l0.9,7.5c0,0.2,0.2,0.3,0.4,0.3
			h13.5c0.2,0,0.4-0.1,0.4-0.3l0.9-7.5c0.1-0.5,0.4-0.9,0.8-1.1c0.4-0.2,0.8-0.4,1.1-0.6c0.4-0.2,0.8-0.5,1.2-0.7
			c0.4-0.3,0.9-0.3,1.3-0.1l6.9,2.9c0.2,0.1,0.4,0,0.5-0.2l6.7-11.6c0.1-0.2,0.1-0.4-0.1-0.5l-6-4.5l0,0c-0.4-0.3-0.6-0.8-0.5-1.3
			c0-0.1,0-0.2,0-0.4v-1.8c0-0.1,0-0.3,0-0.4c0-0.5,0.2-1,0.5-1.2l6-4.6c0.2-0.1,0.2-0.3,0.1-0.5l-6.7-11.6
			c-0.1-0.2-0.3-0.2-0.5-0.1l-6.9,2.9c-0.4,0.2-0.9,0.1-1.3-0.1c-0.4-0.2-0.8-0.5-1.1-0.7c-0.4-0.2-0.7-0.4-1.2-0.6
			c-0.4-0.2-0.8-0.6-0.8-1.1l-0.9-7.5c0-0.2-0.2-0.3-0.4-0.3h-13.5c-0.2,0-0.4,0.1-0.4,0.3l-0.9,7.5c-0.1,0.4-0.3,0.9-0.8,1.1
			c-0.4,0.2-0.8,0.4-1.2,0.6c-0.4,0.2-0.8,0.5-1.1,0.7c-0.4,0.3-0.9,0.3-1.3,0.1l-6.9-2.9c-0.2-0.1-0.4,0-0.5,0.2l-6.7,11.6
			c-0.1,0.2-0.1,0.4,0.1,0.5l6,4.6c0.4,0.3,0.6,0.7,0.5,1.2c0,0.1,0,0.3,0,0.4v1.8c0,0.1,0,0.3,0,0.4c0.1,0.5-0.2,0.9-0.6,1.2
			l-6,4.6c-0.1,0.1-0.2,0.3-0.1,0.5l6.7,11.6c0.1,0.2,0.3,0.2,0.5,0.2l7-2.9C182.3,116.9,182.4,116.9,182.6,116.8L182.6,116.8z
			 M194.5,112.9c-6.8,0-12.3-5.5-12.3-12.3s5.5-12.4,12.3-12.4s12.4,5.5,12.4,12.4S201.3,112.9,194.5,112.9z M194.5,89.2
			c-6.2,0-11.3,5.1-11.3,11.4s5.1,11.3,11.3,11.3s11.4-5.1,11.4-11.3S200.7,89.2,194.5,89.2z"/>
		<path class="st3" d="M215.3,102.7c-0.2-0.2-0.4-0.5-0.3-0.8c0-0.1,0-0.3,0-0.4v-1.8c0-0.1,0-0.3,0-0.4c0-0.3,0.1-0.6,0.3-0.8
			l6-4.6c0.4-0.3,0.5-0.8,0.2-1.1L214.8,81c-0.2-0.4-0.7-0.5-1.1-0.4l-6.9,2.9c-0.3,0.1-0.6,0.1-0.8-0.1c-0.4-0.3-0.8-0.5-1.2-0.8
			s-0.8-0.4-1.2-0.6c-0.3-0.1-0.5-0.4-0.5-0.7l-0.9-7.5c-0.1-0.4-0.4-0.8-0.9-0.8h-13.5c-0.4,0-0.8,0.3-0.9,0.8l-0.9,7.5
			c0,0.3-0.2,0.6-0.5,0.7c-0.4,0.2-0.8,0.4-1.2,0.6c-0.4,0.2-0.8,0.5-1.2,0.8c-0.2,0.2-0.6,0.2-0.8,0.1l-7-2.9
			c-0.4-0.2-0.9,0-1.1,0.4l-6.7,11.6c-0.2,0.4-0.1,0.9,0.2,1.1l6,4.6c0.2,0.2,0.4,0.5,0.3,0.8c0,0.1,0,0.3,0,0.4v1.8
			c0,0.1,0,0.3,0,0.4c0,0.3-0.1,0.6-0.3,0.8l-6,4.6c-0.4,0.3-0.4,0.8-0.2,1.1l6.7,11.6c0.2,0.4,0.7,0.5,1.1,0.4l7-2.9
			c0.3-0.1,0.6-0.1,0.8,0.1c0.4,0.3,0.8,0.5,1.2,0.8c0.4,0.2,0.8,0.4,1.2,0.6c0.3,0.1,0.5,0.4,0.5,0.7l0.9,7.5
			c0.1,0.4,0.4,0.8,0.9,0.8h13.5c0.4,0,0.8-0.3,0.9-0.8l0.9-7.5c0-0.3,0.2-0.6,0.5-0.7c0.4-0.2,0.8-0.4,1.2-0.6
			c0.4-0.2,0.8-0.5,1.2-0.8c0.2-0.2,0.6-0.2,0.8-0.1l6.9,2.9c0.4,0.2,0.9,0,1.1-0.4l6.7-11.6c0.2-0.4,0.1-0.9-0.2-1.1L215.3,102.7
			L215.3,102.7z M194.5,112.4c-6.5,0-11.8-5.3-11.8-11.8s5.3-11.9,11.8-11.9s11.9,5.3,11.9,11.9S201,112.4,194.5,112.4z"/>
		<path class="st3" d="M201.2,128.3h-13.5c-0.7,0-1.3-0.5-1.4-1.2l-0.9-7.5c0-0.1-0.1-0.2-0.2-0.3c-0.5-0.2-0.9-0.5-1.3-0.7
			c-0.4-0.2-0.8-0.5-1.2-0.8c-0.1-0.1-0.2-0.1-0.3,0l-7,2.9c-0.6,0.3-1.4,0-1.7-0.6l-6.7-11.6c-0.3-0.6-0.2-1.3,0.4-1.8l6-4.6
			c0.1-0.1,0.2-0.2,0.1-0.3c0-0.2,0-0.3,0-0.5v-1.8c0-0.2,0-0.3,0-0.5c0-0.1,0-0.2-0.1-0.3l-6-4.6c-0.6-0.4-0.7-1.2-0.4-1.8
			l6.7-11.6c0.4-0.6,1.1-0.8,1.7-0.6l7,2.9c0.1,0.1,0.3,0,0.4,0c0.4-0.3,0.8-0.5,1.2-0.8c0.4-0.2,0.9-0.5,1.3-0.7
			c0.1-0.1,0.2-0.1,0.2-0.3l0.9-7.5c0.1-0.7,0.7-1.2,1.4-1.2h13.5c0.7,0,1.3,0.5,1.4,1.2l0.9,7.5c0,0.1,0.1,0.2,0.2,0.3
			c0.5,0.2,0.9,0.4,1.3,0.7c0.4,0.2,0.8,0.5,1.2,0.8c0.1,0.1,0.2,0.1,0.4,0l6.9-2.9c0.6-0.3,1.4,0,1.7,0.6l6.7,11.6
			c0.4,0.6,0.2,1.4-0.4,1.8l-6,4.6c-0.1,0.1-0.1,0.2-0.1,0.4c0,0.1,0,0.3,0,0.5v1.8c0,0.2,0,0.3,0,0.5c0,0.1,0,0.3,0.1,0.4l6,4.5
			c0.6,0.4,0.7,1.2,0.4,1.8l-6.7,11.6c-0.4,0.6-1.1,0.9-1.7,0.6l-6.9-2.9c-0.1-0.1-0.3,0-0.4,0c-0.4,0.3-0.8,0.5-1.2,0.8
			c-0.4,0.2-0.8,0.5-1.2,0.6c-0.1,0.1-0.2,0.2-0.2,0.3l-0.9,7.5C202.5,127.8,201.9,128.3,201.2,128.3L201.2,128.3z M182.6,116.8
			c0.3,0,0.6,0.1,0.8,0.2c0.4,0.2,0.7,0.5,1.1,0.7c0.3,0.2,0.7,0.4,1.1,0.6c0.4,0.2,0.8,0.6,0.8,1.1l0.9,7.5c0,0.2,0.2,0.3,0.4,0.3
			h13.5c0.2,0,0.4-0.1,0.4-0.3l0.9-7.5c0.1-0.5,0.4-0.9,0.8-1.1c0.4-0.2,0.8-0.4,1.1-0.6c0.4-0.2,0.8-0.5,1.2-0.7
			c0.4-0.3,0.9-0.3,1.3-0.1l6.9,2.9c0.2,0.1,0.4,0,0.5-0.2l6.7-11.6c0.1-0.2,0.1-0.4-0.1-0.5l-6-4.5l0,0c-0.4-0.3-0.6-0.8-0.5-1.3
			c0-0.1,0-0.2,0-0.4v-1.8c0-0.1,0-0.3,0-0.4c0-0.5,0.2-1,0.5-1.2l6-4.6c0.2-0.1,0.2-0.3,0.1-0.5l-6.7-11.6
			c-0.1-0.2-0.3-0.2-0.5-0.1l-6.9,2.9c-0.4,0.2-0.9,0.1-1.3-0.1c-0.4-0.2-0.8-0.5-1.1-0.7c-0.4-0.2-0.7-0.4-1.2-0.6
			c-0.4-0.2-0.8-0.6-0.8-1.1l-0.9-7.5c0-0.2-0.2-0.3-0.4-0.3h-13.5c-0.2,0-0.4,0.1-0.4,0.3l-0.9,7.5c-0.1,0.4-0.3,0.9-0.8,1.1
			c-0.4,0.2-0.8,0.4-1.2,0.6c-0.4,0.2-0.8,0.5-1.1,0.7c-0.4,0.3-0.9,0.3-1.3,0.1l-6.9-2.9c-0.2-0.1-0.4,0-0.5,0.2l-6.7,11.6
			c-0.1,0.2-0.1,0.4,0.1,0.5l6,4.6c0.4,0.3,0.6,0.7,0.5,1.2c0,0.1,0,0.3,0,0.4v1.8c0,0.1,0,0.3,0,0.4c0.1,0.5-0.2,0.9-0.6,1.2
			l-6,4.6c-0.1,0.1-0.2,0.3-0.1,0.5l6.7,11.6c0.1,0.2,0.3,0.2,0.5,0.2l7-2.9C182.3,116.9,182.4,116.9,182.6,116.8L182.6,116.8z
			 M194.5,112.9c-6.8,0-12.3-5.5-12.3-12.3s5.5-12.4,12.3-12.4s12.4,5.5,12.4,12.4S201.3,112.9,194.5,112.9z M194.5,89.2
			c-6.2,0-11.3,5.1-11.3,11.4s5.1,11.3,11.3,11.3s11.4-5.1,11.4-11.3S200.7,89.2,194.5,89.2z"/>
		<path class="st3" d="M215.3,102.7c-0.2-0.2-0.4-0.5-0.3-0.8c0-0.1,0-0.3,0-0.4v-1.8c0-0.1,0-0.3,0-0.4c0-0.3,0.1-0.6,0.3-0.8
			l6-4.6c0.4-0.3,0.5-0.8,0.2-1.1L214.8,81c-0.2-0.4-0.7-0.5-1.1-0.4l-6.9,2.9c-0.3,0.1-0.6,0.1-0.8-0.1c-0.4-0.3-0.8-0.5-1.2-0.8
			s-0.8-0.4-1.2-0.6c-0.3-0.1-0.5-0.4-0.5-0.7l-0.9-7.5c-0.1-0.4-0.4-0.8-0.9-0.8h-13.5c-0.4,0-0.8,0.3-0.9,0.8l-0.9,7.5
			c0,0.3-0.2,0.6-0.5,0.7c-0.4,0.2-0.8,0.4-1.2,0.6c-0.4,0.2-0.8,0.5-1.2,0.8c-0.2,0.2-0.6,0.2-0.8,0.1l-7-2.9
			c-0.4-0.2-0.9,0-1.1,0.4l-6.7,11.6c-0.2,0.4-0.1,0.9,0.2,1.1l6,4.6c0.2,0.2,0.4,0.5,0.3,0.8c0,0.1,0,0.3,0,0.4v1.8
			c0,0.1,0,0.3,0,0.4c0,0.3-0.1,0.6-0.3,0.8l-6,4.6c-0.4,0.3-0.4,0.8-0.2,1.1l6.7,11.6c0.2,0.4,0.7,0.5,1.1,0.4l7-2.9
			c0.3-0.1,0.6-0.1,0.8,0.1c0.4,0.3,0.8,0.5,1.2,0.8c0.4,0.2,0.8,0.4,1.2,0.6c0.3,0.1,0.5,0.4,0.5,0.7l0.9,7.5
			c0.1,0.4,0.4,0.8,0.9,0.8h13.5c0.4,0,0.8-0.3,0.9-0.8l0.9-7.5c0-0.3,0.2-0.6,0.5-0.7c0.4-0.2,0.8-0.4,1.2-0.6
			c0.4-0.2,0.8-0.5,1.2-0.8c0.2-0.2,0.6-0.2,0.8-0.1l6.9,2.9c0.4,0.2,0.9,0,1.1-0.4l6.7-11.6c0.2-0.4,0.1-0.9-0.2-1.1L215.3,102.7
			L215.3,102.7z M194.5,112.4c-6.5,0-11.8-5.3-11.8-11.8s5.3-11.9,11.8-11.9s11.9,5.3,11.9,11.9S201,112.4,194.5,112.4z"/>
		<path class="st3" d="M201.2,128.3h-13.5c-0.7,0-1.3-0.5-1.4-1.2l-0.9-7.5c0-0.1-0.1-0.2-0.2-0.3c-0.5-0.2-0.9-0.5-1.3-0.7
			c-0.4-0.2-0.8-0.5-1.2-0.8c-0.1-0.1-0.2-0.1-0.3,0l-7,2.9c-0.6,0.3-1.4,0-1.7-0.6l-6.7-11.6c-0.3-0.6-0.2-1.3,0.4-1.8l6-4.6
			c0.1-0.1,0.2-0.2,0.1-0.3c0-0.2,0-0.3,0-0.5v-1.8c0-0.2,0-0.3,0-0.5c0-0.1,0-0.2-0.1-0.3l-6-4.6c-0.6-0.4-0.7-1.2-0.4-1.8
			l6.7-11.6c0.4-0.6,1.1-0.8,1.7-0.6l7,2.9c0.1,0.1,0.3,0,0.4,0c0.4-0.3,0.8-0.5,1.2-0.8c0.4-0.2,0.9-0.5,1.3-0.7
			c0.1-0.1,0.2-0.1,0.2-0.3l0.9-7.5c0.1-0.7,0.7-1.2,1.4-1.2h13.5c0.7,0,1.3,0.5,1.4,1.2l0.9,7.5c0,0.1,0.1,0.2,0.2,0.3
			c0.5,0.2,0.9,0.4,1.3,0.7c0.4,0.2,0.8,0.5,1.2,0.8c0.1,0.1,0.2,0.1,0.4,0l6.9-2.9c0.6-0.3,1.4,0,1.7,0.6l6.7,11.6
			c0.4,0.6,0.2,1.4-0.4,1.8l-6,4.6c-0.1,0.1-0.1,0.2-0.1,0.4c0,0.1,0,0.3,0,0.5v1.8c0,0.2,0,0.3,0,0.5c0,0.1,0,0.3,0.1,0.4l6,4.5
			c0.6,0.4,0.7,1.2,0.4,1.8l-6.7,11.6c-0.4,0.6-1.1,0.9-1.7,0.6l-6.9-2.9c-0.1-0.1-0.3,0-0.4,0c-0.4,0.3-0.8,0.5-1.2,0.8
			c-0.4,0.2-0.8,0.5-1.2,0.6c-0.1,0.1-0.2,0.2-0.2,0.3l-0.9,7.5C202.5,127.8,201.9,128.3,201.2,128.3L201.2,128.3z M182.6,116.8
			c0.3,0,0.6,0.1,0.8,0.2c0.4,0.2,0.7,0.5,1.1,0.7c0.3,0.2,0.7,0.4,1.1,0.6c0.4,0.2,0.8,0.6,0.8,1.1l0.9,7.5c0,0.2,0.2,0.3,0.4,0.3
			h13.5c0.2,0,0.4-0.1,0.4-0.3l0.9-7.5c0.1-0.5,0.4-0.9,0.8-1.1c0.4-0.2,0.8-0.4,1.1-0.6c0.4-0.2,0.8-0.5,1.2-0.7
			c0.4-0.3,0.9-0.3,1.3-0.1l6.9,2.9c0.2,0.1,0.4,0,0.5-0.2l6.7-11.6c0.1-0.2,0.1-0.4-0.1-0.5l-6-4.5l0,0c-0.4-0.3-0.6-0.8-0.5-1.3
			c0-0.1,0-0.2,0-0.4v-1.8c0-0.1,0-0.3,0-0.4c0-0.5,0.2-1,0.5-1.2l6-4.6c0.2-0.1,0.2-0.3,0.1-0.5l-6.7-11.6
			c-0.1-0.2-0.3-0.2-0.5-0.1l-6.9,2.9c-0.4,0.2-0.9,0.1-1.3-0.1c-0.4-0.2-0.8-0.5-1.1-0.7c-0.4-0.2-0.7-0.4-1.2-0.6
			c-0.4-0.2-0.8-0.6-0.8-1.1l-0.9-7.5c0-0.2-0.2-0.3-0.4-0.3h-13.5c-0.2,0-0.4,0.1-0.4,0.3l-0.9,7.5c-0.1,0.4-0.3,0.9-0.8,1.1
			c-0.4,0.2-0.8,0.4-1.2,0.6c-0.4,0.2-0.8,0.5-1.1,0.7c-0.4,0.3-0.9,0.3-1.3,0.1l-6.9-2.9c-0.2-0.1-0.4,0-0.5,0.2l-6.7,11.6
			c-0.1,0.2-0.1,0.4,0.1,0.5l6,4.6c0.4,0.3,0.6,0.7,0.5,1.2c0,0.1,0,0.3,0,0.4v1.8c0,0.1,0,0.3,0,0.4c0.1,0.5-0.2,0.9-0.6,1.2
			l-6,4.6c-0.1,0.1-0.2,0.3-0.1,0.5l6.7,11.6c0.1,0.2,0.3,0.2,0.5,0.2l7-2.9C182.3,116.9,182.4,116.9,182.6,116.8L182.6,116.8z
			 M194.5,112.9c-6.8,0-12.3-5.5-12.3-12.3s5.5-12.4,12.3-12.4s12.4,5.5,12.4,12.4S201.3,112.9,194.5,112.9z M194.5,89.2
			c-6.2,0-11.3,5.1-11.3,11.4s5.1,11.3,11.3,11.3s11.4-5.1,11.4-11.3S200.7,89.2,194.5,89.2z"/>
		<path class="st3" d="M215.3,102.7c-0.2-0.2-0.4-0.5-0.3-0.8c0-0.1,0-0.3,0-0.4v-1.8c0-0.1,0-0.3,0-0.4c0-0.3,0.1-0.6,0.3-0.8
			l6-4.6c0.4-0.3,0.5-0.8,0.2-1.1L214.8,81c-0.2-0.4-0.7-0.5-1.1-0.4l-6.9,2.9c-0.3,0.1-0.6,0.1-0.8-0.1c-0.4-0.3-0.8-0.5-1.2-0.8
			s-0.8-0.4-1.2-0.6c-0.3-0.1-0.5-0.4-0.5-0.7l-0.9-7.5c-0.1-0.4-0.4-0.8-0.9-0.8h-13.5c-0.4,0-0.8,0.3-0.9,0.8l-0.9,7.5
			c0,0.3-0.2,0.6-0.5,0.7c-0.4,0.2-0.8,0.4-1.2,0.6c-0.4,0.2-0.8,0.5-1.2,0.8c-0.2,0.2-0.6,0.2-0.8,0.1l-7-2.9
			c-0.4-0.2-0.9,0-1.1,0.4l-6.7,11.6c-0.2,0.4-0.1,0.9,0.2,1.1l6,4.6c0.2,0.2,0.4,0.5,0.3,0.8c0,0.1,0,0.3,0,0.4v1.8
			c0,0.1,0,0.3,0,0.4c0,0.3-0.1,0.6-0.3,0.8l-6,4.6c-0.4,0.3-0.4,0.8-0.2,1.1l6.7,11.6c0.2,0.4,0.7,0.5,1.1,0.4l7-2.9
			c0.3-0.1,0.6-0.1,0.8,0.1c0.4,0.3,0.8,0.5,1.2,0.8c0.4,0.2,0.8,0.4,1.2,0.6c0.3,0.1,0.5,0.4,0.5,0.7l0.9,7.5
			c0.1,0.4,0.4,0.8,0.9,0.8h13.5c0.4,0,0.8-0.3,0.9-0.8l0.9-7.5c0-0.3,0.2-0.6,0.5-0.7c0.4-0.2,0.8-0.4,1.2-0.6
			c0.4-0.2,0.8-0.5,1.2-0.8c0.2-0.2,0.6-0.2,0.8-0.1l6.9,2.9c0.4,0.2,0.9,0,1.1-0.4l6.7-11.6c0.2-0.4,0.1-0.9-0.2-1.1L215.3,102.7
			L215.3,102.7z M194.5,112.4c-6.5,0-11.8-5.3-11.8-11.8s5.3-11.9,11.8-11.9s11.9,5.3,11.9,11.9S201,112.4,194.5,112.4z"/>
		<path class="st3" d="M201.2,128.3h-13.5c-0.7,0-1.3-0.5-1.4-1.2l-0.9-7.5c0-0.1-0.1-0.2-0.2-0.3c-0.5-0.2-0.9-0.5-1.3-0.7
			c-0.4-0.2-0.8-0.5-1.2-0.8c-0.1-0.1-0.2-0.1-0.3,0l-7,2.9c-0.6,0.3-1.4,0-1.7-0.6l-6.7-11.6c-0.3-0.6-0.2-1.3,0.4-1.8l6-4.6
			c0.1-0.1,0.2-0.2,0.1-0.3c0-0.2,0-0.3,0-0.5v-1.8c0-0.2,0-0.3,0-0.5c0-0.1,0-0.2-0.1-0.3l-6-4.6c-0.6-0.4-0.7-1.2-0.4-1.8
			l6.7-11.6c0.4-0.6,1.1-0.8,1.7-0.6l7,2.9c0.1,0.1,0.3,0,0.4,0c0.4-0.3,0.8-0.5,1.2-0.8c0.4-0.2,0.9-0.5,1.3-0.7
			c0.1-0.1,0.2-0.1,0.2-0.3l0.9-7.5c0.1-0.7,0.7-1.2,1.4-1.2h13.5c0.7,0,1.3,0.5,1.4,1.2l0.9,7.5c0,0.1,0.1,0.2,0.2,0.3
			c0.5,0.2,0.9,0.4,1.3,0.7c0.4,0.2,0.8,0.5,1.2,0.8c0.1,0.1,0.2,0.1,0.4,0l6.9-2.9c0.6-0.3,1.4,0,1.7,0.6l6.7,11.6
			c0.4,0.6,0.2,1.4-0.4,1.8l-6,4.6c-0.1,0.1-0.1,0.2-0.1,0.4c0,0.1,0,0.3,0,0.5v1.8c0,0.2,0,0.3,0,0.5c0,0.1,0,0.3,0.1,0.4l6,4.5
			c0.6,0.4,0.7,1.2,0.4,1.8l-6.7,11.6c-0.4,0.6-1.1,0.9-1.7,0.6l-6.9-2.9c-0.1-0.1-0.3,0-0.4,0c-0.4,0.3-0.8,0.5-1.2,0.8
			c-0.4,0.2-0.8,0.5-1.2,0.6c-0.1,0.1-0.2,0.2-0.2,0.3l-0.9,7.5C202.5,127.8,201.9,128.3,201.2,128.3L201.2,128.3z M182.6,116.8
			c0.3,0,0.6,0.1,0.8,0.2c0.4,0.2,0.7,0.5,1.1,0.7c0.3,0.2,0.7,0.4,1.1,0.6c0.4,0.2,0.8,0.6,0.8,1.1l0.9,7.5c0,0.2,0.2,0.3,0.4,0.3
			h13.5c0.2,0,0.4-0.1,0.4-0.3l0.9-7.5c0.1-0.5,0.4-0.9,0.8-1.1c0.4-0.2,0.8-0.4,1.1-0.6c0.4-0.2,0.8-0.5,1.2-0.7
			c0.4-0.3,0.9-0.3,1.3-0.1l6.9,2.9c0.2,0.1,0.4,0,0.5-0.2l6.7-11.6c0.1-0.2,0.1-0.4-0.1-0.5l-6-4.5l0,0c-0.4-0.3-0.6-0.8-0.5-1.3
			c0-0.1,0-0.2,0-0.4v-1.8c0-0.1,0-0.3,0-0.4c0-0.5,0.2-1,0.5-1.2l6-4.6c0.2-0.1,0.2-0.3,0.1-0.5l-6.7-11.6
			c-0.1-0.2-0.3-0.2-0.5-0.1l-6.9,2.9c-0.4,0.2-0.9,0.1-1.3-0.1c-0.4-0.2-0.8-0.5-1.1-0.7c-0.4-0.2-0.7-0.4-1.2-0.6
			c-0.4-0.2-0.8-0.6-0.8-1.1l-0.9-7.5c0-0.2-0.2-0.3-0.4-0.3h-13.5c-0.2,0-0.4,0.1-0.4,0.3l-0.9,7.5c-0.1,0.4-0.3,0.9-0.8,1.1
			c-0.4,0.2-0.8,0.4-1.2,0.6c-0.4,0.2-0.8,0.5-1.1,0.7c-0.4,0.3-0.9,0.3-1.3,0.1l-6.9-2.9c-0.2-0.1-0.4,0-0.5,0.2l-6.7,11.6
			c-0.1,0.2-0.1,0.4,0.1,0.5l6,4.6c0.4,0.3,0.6,0.7,0.5,1.2c0,0.1,0,0.3,0,0.4v1.8c0,0.1,0,0.3,0,0.4c0.1,0.5-0.2,0.9-0.6,1.2
			l-6,4.6c-0.1,0.1-0.2,0.3-0.1,0.5l6.7,11.6c0.1,0.2,0.3,0.2,0.5,0.2l7-2.9C182.3,116.9,182.4,116.9,182.6,116.8L182.6,116.8z
			 M194.5,112.9c-6.8,0-12.3-5.5-12.3-12.3s5.5-12.4,12.3-12.4s12.4,5.5,12.4,12.4S201.3,112.9,194.5,112.9z M194.5,89.2
			c-6.2,0-11.3,5.1-11.3,11.4s5.1,11.3,11.3,11.3s11.4-5.1,11.4-11.3S200.7,89.2,194.5,89.2z"/>
		<path class="st3" d="M215.3,102.7c-0.2-0.2-0.4-0.5-0.3-0.8c0-0.1,0-0.3,0-0.4v-1.8c0-0.1,0-0.3,0-0.4c0-0.3,0.1-0.6,0.3-0.8
			l6-4.6c0.4-0.3,0.5-0.8,0.2-1.1L214.8,81c-0.2-0.4-0.7-0.5-1.1-0.4l-6.9,2.9c-0.3,0.1-0.6,0.1-0.8-0.1c-0.4-0.3-0.8-0.5-1.2-0.8
			s-0.8-0.4-1.2-0.6c-0.3-0.1-0.5-0.4-0.5-0.7l-0.9-7.5c-0.1-0.4-0.4-0.8-0.9-0.8h-13.5c-0.4,0-0.8,0.3-0.9,0.8l-0.9,7.5
			c0,0.3-0.2,0.6-0.5,0.7c-0.4,0.2-0.8,0.4-1.2,0.6c-0.4,0.2-0.8,0.5-1.2,0.8c-0.2,0.2-0.6,0.2-0.8,0.1l-7-2.9
			c-0.4-0.2-0.9,0-1.1,0.4l-6.7,11.6c-0.2,0.4-0.1,0.9,0.2,1.1l6,4.6c0.2,0.2,0.4,0.5,0.3,0.8c0,0.1,0,0.3,0,0.4v1.8
			c0,0.1,0,0.3,0,0.4c0,0.3-0.1,0.6-0.3,0.8l-6,4.6c-0.4,0.3-0.4,0.8-0.2,1.1l6.7,11.6c0.2,0.4,0.7,0.5,1.1,0.4l7-2.9
			c0.3-0.1,0.6-0.1,0.8,0.1c0.4,0.3,0.8,0.5,1.2,0.8c0.4,0.2,0.8,0.4,1.2,0.6c0.3,0.1,0.5,0.4,0.5,0.7l0.9,7.5
			c0.1,0.4,0.4,0.8,0.9,0.8h13.5c0.4,0,0.8-0.3,0.9-0.8l0.9-7.5c0-0.3,0.2-0.6,0.5-0.7c0.4-0.2,0.8-0.4,1.2-0.6
			c0.4-0.2,0.8-0.5,1.2-0.8c0.2-0.2,0.6-0.2,0.8-0.1l6.9,2.9c0.4,0.2,0.9,0,1.1-0.4l6.7-11.6c0.2-0.4,0.1-0.9-0.2-1.1L215.3,102.7
			L215.3,102.7z M194.5,112.4c-6.5,0-11.8-5.3-11.8-11.8s5.3-11.9,11.8-11.9s11.9,5.3,11.9,11.9S201,112.4,194.5,112.4z"/>
		<path class="st3" d="M201.2,128.3h-13.5c-0.7,0-1.3-0.5-1.4-1.2l-0.9-7.5c0-0.1-0.1-0.2-0.2-0.3c-0.5-0.2-0.9-0.5-1.3-0.7
			c-0.4-0.2-0.8-0.5-1.2-0.8c-0.1-0.1-0.2-0.1-0.3,0l-7,2.9c-0.6,0.3-1.4,0-1.7-0.6l-6.7-11.6c-0.3-0.6-0.2-1.3,0.4-1.8l6-4.6
			c0.1-0.1,0.2-0.2,0.1-0.3c0-0.2,0-0.3,0-0.5v-1.8c0-0.2,0-0.3,0-0.5c0-0.1,0-0.2-0.1-0.3l-6-4.6c-0.6-0.4-0.7-1.2-0.4-1.8
			l6.7-11.6c0.4-0.6,1.1-0.8,1.7-0.6l7,2.9c0.1,0.1,0.3,0,0.4,0c0.4-0.3,0.8-0.5,1.2-0.8c0.4-0.2,0.9-0.5,1.3-0.7
			c0.1-0.1,0.2-0.1,0.2-0.3l0.9-7.5c0.1-0.7,0.7-1.2,1.4-1.2h13.5c0.7,0,1.3,0.5,1.4,1.2l0.9,7.5c0,0.1,0.1,0.2,0.2,0.3
			c0.5,0.2,0.9,0.4,1.3,0.7c0.4,0.2,0.8,0.5,1.2,0.8c0.1,0.1,0.2,0.1,0.4,0l6.9-2.9c0.6-0.3,1.4,0,1.7,0.6l6.7,11.6
			c0.4,0.6,0.2,1.4-0.4,1.8l-6,4.6c-0.1,0.1-0.1,0.2-0.1,0.4c0,0.1,0,0.3,0,0.5v1.8c0,0.2,0,0.3,0,0.5c0,0.1,0,0.3,0.1,0.4l6,4.5
			c0.6,0.4,0.7,1.2,0.4,1.8l-6.7,11.6c-0.4,0.6-1.1,0.9-1.7,0.6l-6.9-2.9c-0.1-0.1-0.3,0-0.4,0c-0.4,0.3-0.8,0.5-1.2,0.8
			c-0.4,0.2-0.8,0.5-1.2,0.6c-0.1,0.1-0.2,0.2-0.2,0.3l-0.9,7.5C202.5,127.8,201.9,128.3,201.2,128.3L201.2,128.3z M182.6,116.8
			c0.3,0,0.6,0.1,0.8,0.2c0.4,0.2,0.7,0.5,1.1,0.7c0.3,0.2,0.7,0.4,1.1,0.6c0.4,0.2,0.8,0.6,0.8,1.1l0.9,7.5c0,0.2,0.2,0.3,0.4,0.3
			h13.5c0.2,0,0.4-0.1,0.4-0.3l0.9-7.5c0.1-0.5,0.4-0.9,0.8-1.1c0.4-0.2,0.8-0.4,1.1-0.6c0.4-0.2,0.8-0.5,1.2-0.7
			c0.4-0.3,0.9-0.3,1.3-0.1l6.9,2.9c0.2,0.1,0.4,0,0.5-0.2l6.7-11.6c0.1-0.2,0.1-0.4-0.1-0.5l-6-4.5l0,0c-0.4-0.3-0.6-0.8-0.5-1.3
			c0-0.1,0-0.2,0-0.4v-1.8c0-0.1,0-0.3,0-0.4c0-0.5,0.2-1,0.5-1.2l6-4.6c0.2-0.1,0.2-0.3,0.1-0.5l-6.7-11.6
			c-0.1-0.2-0.3-0.2-0.5-0.1l-6.9,2.9c-0.4,0.2-0.9,0.1-1.3-0.1c-0.4-0.2-0.8-0.5-1.1-0.7c-0.4-0.2-0.7-0.4-1.2-0.6
			c-0.4-0.2-0.8-0.6-0.8-1.1l-0.9-7.5c0-0.2-0.2-0.3-0.4-0.3h-13.5c-0.2,0-0.4,0.1-0.4,0.3l-0.9,7.5c-0.1,0.4-0.3,0.9-0.8,1.1
			c-0.4,0.2-0.8,0.4-1.2,0.6c-0.4,0.2-0.8,0.5-1.1,0.7c-0.4,0.3-0.9,0.3-1.3,0.1l-6.9-2.9c-0.2-0.1-0.4,0-0.5,0.2l-6.7,11.6
			c-0.1,0.2-0.1,0.4,0.1,0.5l6,4.6c0.4,0.3,0.6,0.7,0.5,1.2c0,0.1,0,0.3,0,0.4v1.8c0,0.1,0,0.3,0,0.4c0.1,0.5-0.2,0.9-0.6,1.2
			l-6,4.6c-0.1,0.1-0.2,0.3-0.1,0.5l6.7,11.6c0.1,0.2,0.3,0.2,0.5,0.2l7-2.9C182.3,116.9,182.4,116.9,182.6,116.8L182.6,116.8z
			 M194.5,112.9c-6.8,0-12.3-5.5-12.3-12.3s5.5-12.4,12.3-12.4s12.4,5.5,12.4,12.4S201.3,112.9,194.5,112.9z M194.5,89.2
			c-6.2,0-11.3,5.1-11.3,11.4s5.1,11.3,11.3,11.3s11.4-5.1,11.4-11.3S200.7,89.2,194.5,89.2z"/>
		<path class="st0" d="M282.6,71.3c-0.3-0.2-0.5-0.6-0.4-1c0-0.2,0-0.4,0-0.5v-2.2c0-0.2,0-0.4,0-0.5c0-0.4,0.1-0.7,0.4-0.9l7.2-5.5
			c0.4-0.3,0.5-0.9,0.3-1.4l-8.1-14c-0.3-0.4-0.8-0.6-1.3-0.4l-8.4,3.5c-0.3,0.1-0.7,0.1-1-0.1c-0.5-0.3-0.9-0.6-1.4-0.9
			s-1-0.5-1.5-0.8c-0.3-0.1-0.6-0.5-0.6-0.8l-1.1-9c-0.1-0.5-0.5-0.9-1-0.9h-16.2c-0.5,0-1,0.4-1,0.9l-1.1,9c0,0.4-0.2,0.7-0.6,0.8
			c-0.5,0.2-1,0.5-1.5,0.8c-0.5,0.3-1,0.6-1.4,0.9c-0.3,0.2-0.7,0.2-1,0.1l-8.4-3.5c-0.5-0.2-1.1,0-1.3,0.4l-8.1,14
			c-0.3,0.5-0.1,1,0.3,1.4l7.2,5.5c0.3,0.2,0.4,0.6,0.4,0.9c0,0.2,0,0.4,0,0.5v2.2c0,0.2,0,0.4,0,0.5c0,0.4-0.1,0.7-0.4,0.9
			l-7.2,5.5c-0.4,0.3-0.5,0.9-0.3,1.4l8.1,14c0.3,0.5,0.8,0.6,1.3,0.4l8.4-3.5c0.3-0.1,0.7-0.1,1,0.1c0.5,0.3,0.9,0.6,1.4,0.9
			c0.5,0.3,1,0.5,1.5,0.8c0.4,0.1,0.6,0.5,0.6,0.8l1.1,9c0.1,0.5,0.5,0.9,1,0.9h16.2c0.5,0,1-0.4,1-0.9l1.1-9c0-0.4,0.3-0.7,0.6-0.8
			c0.5-0.2,1-0.5,1.4-0.8c0.5-0.3,1-0.6,1.4-0.9c0.3-0.2,0.7-0.2,1-0.1l8.3,3.5c0.5,0.2,1,0,1.3-0.4l8.1-14c0.3-0.5,0.1-1-0.3-1.4
			L282.6,71.3L282.6,71.3z M257.7,83c-7.9,0-14.2-6.4-14.2-14.2s6.4-14.2,14.2-14.2c7.9,0,14.2,6.4,14.2,14.2S265.5,83,257.7,83z"/>
		<path class="st0" d="M265.7,102h-16.2c-0.8,0-1.5-0.6-1.5-1.4l-1.1-9c0-0.2-0.1-0.4-0.3-0.4c-0.6-0.2-1.1-0.6-1.5-0.8
			c-0.5-0.3-1-0.6-1.4-0.9c-0.1-0.1-0.4-0.1-0.5-0.1l-8.4,3.5c-0.7,0.3-1.5,0-2-0.7l-8.1-14c-0.4-0.7-0.2-1.5,0.4-2l7.2-5.5
			c0.1-0.1,0.2-0.3,0.2-0.5c0-0.2,0-0.4,0-0.6v-2.2c0-0.2,0-0.4,0-0.6c0-0.2-0.1-0.4-0.2-0.5l-7.2-5.5c-0.6-0.5-0.8-1.3-0.4-2
			l8.1-14c0.4-0.7,1.2-0.9,2-0.6l8.4,3.5c0.2,0.1,0.4,0.1,0.5,0c0.5-0.3,1-0.6,1.4-0.9c0.5-0.3,1-0.6,1.5-0.8
			c0.1-0.1,0.3-0.2,0.3-0.4l1.1-9c0.1-0.8,0.8-1.3,1.5-1.3h16.2c0.8,0,1.5,0.6,1.5,1.4l1.1,9c0,0.2,0.1,0.3,0.3,0.4
			c0.6,0.3,1.1,0.5,1.5,0.8c0.5,0.3,1,0.6,1.4,0.9c0.2,0.1,0.3,0.1,0.5,0.1l8.4-3.5c0.7-0.3,1.5,0,1.9,0.6l8.1,14
			c0.4,0.7,0.2,1.5-0.4,2l-7.2,5.5c-0.1,0.1-0.2,0.3-0.2,0.5c0,0.1,0,0.4,0,0.6v2.2c0,0.2,0,0.4,0,0.6c0,0.2,0,0.4,0.2,0.5l7.2,5.4
			c0.6,0.5,0.8,1.4,0.4,2l-8.1,14c-0.4,0.7-1.2,1-2,0.7l-8.3-3.5c-0.2-0.1-0.4-0.1-0.5,0c-0.5,0.3-1,0.6-1.5,0.9
			c-0.5,0.3-1,0.6-1.5,0.8c-0.2,0.1-0.3,0.2-0.3,0.4l-1.1,9C267.2,101.5,266.5,102.1,265.7,102L265.7,102z M243.3,88.5
			c0.3,0,0.6,0.1,0.9,0.3c0.4,0.3,0.9,0.6,1.4,0.9c0.4,0.2,0.9,0.5,1.4,0.7c0.5,0.2,0.9,0.7,0.9,1.2l1.1,9c0,0.3,0.3,0.5,0.5,0.5
			h16.2c0.3,0,0.5-0.2,0.5-0.5l1.1-9c0-0.5,0.4-1,0.9-1.2c0.5-0.2,0.9-0.5,1.4-0.7c0.5-0.3,1-0.6,1.4-0.9c0.4-0.3,1-0.3,1.5-0.1
			l8.3,3.5c0.2,0.1,0.5,0,0.7-0.2l8.1-14c0.1-0.2,0.1-0.6-0.2-0.7l-7.2-5.4l0,0c-0.4-0.4-0.7-0.9-0.6-1.4c0-0.1,0-0.3,0-0.4v-2.2
			c0-0.2,0-0.3,0-0.5c0-0.6,0.2-1.1,0.6-1.4l7.2-5.5c0.2-0.2,0.3-0.5,0.1-0.7l-8.1-14c-0.1-0.2-0.4-0.3-0.7-0.2l-8.4,3.5
			c-0.5,0.2-1,0.2-1.5-0.1c-0.4-0.3-0.9-0.6-1.4-0.9c-0.4-0.3-0.9-0.5-1.4-0.7c-0.5-0.2-0.9-0.7-0.9-1.2l-1.1-9
			c0-0.3-0.3-0.5-0.5-0.5h-16.2c-0.3,0-0.5,0.2-0.5,0.5l-1.1,9c0,0.5-0.4,1-0.9,1.2c-0.5,0.2-1,0.5-1.4,0.7
			c-0.5,0.3-0.9,0.6-1.4,0.9c-0.5,0.3-1,0.4-1.5,0.1l-8.4-3.5c-0.2-0.1-0.6,0-0.7,0.2l-8.1,14c-0.1,0.2-0.1,0.5,0.1,0.7l7.2,5.5
			c0.4,0.3,0.7,0.8,0.6,1.4c0,0.1,0,0.3,0,0.5v2.2c0,0.2,0,0.3,0,0.5c0,0.5-0.2,1-0.6,1.4l-7.2,5.5c-0.2,0.2-0.3,0.5-0.1,0.7l8.1,14
			c0.1,0.2,0.4,0.3,0.7,0.2l8.4-3.5C242.9,88.5,243.1,88.5,243.3,88.5L243.3,88.5z M257.7,83.5c-8.1,0-14.7-6.6-14.7-14.7
			S249.5,54,257.7,54c8.1,0,14.7,6.6,14.7,14.7S265.8,83.5,257.7,83.5z M257.7,55c-7.6,0-13.7,6.2-13.7,13.7s6.2,13.7,13.7,13.7
			c7.6,0,13.7-6.2,13.7-13.7S265.2,55,257.7,55z"/>
		<path class="st0" d="M282.6,71.3c-0.3-0.2-0.5-0.6-0.4-1c0-0.2,0-0.4,0-0.5v-2.2c0-0.2,0-0.4,0-0.5c0-0.4,0.1-0.7,0.4-0.9l7.2-5.5
			c0.4-0.3,0.5-0.9,0.3-1.4l-8.1-14c-0.3-0.4-0.8-0.6-1.3-0.4l-8.4,3.5c-0.3,0.1-0.7,0.1-1-0.1c-0.5-0.3-0.9-0.6-1.4-0.9
			s-1-0.5-1.5-0.8c-0.3-0.1-0.6-0.5-0.6-0.8l-1.1-9c-0.1-0.5-0.5-0.9-1-0.9h-16.2c-0.5,0-1,0.4-1,0.9l-1.1,9c0,0.4-0.2,0.7-0.6,0.8
			c-0.5,0.2-1,0.5-1.5,0.8c-0.5,0.3-1,0.6-1.4,0.9c-0.3,0.2-0.7,0.2-1,0.1l-8.4-3.5c-0.5-0.2-1.1,0-1.3,0.4l-8.1,14
			c-0.3,0.5-0.1,1,0.3,1.4l7.2,5.5c0.3,0.2,0.4,0.6,0.4,0.9c0,0.2,0,0.4,0,0.5v2.2c0,0.2,0,0.4,0,0.5c0,0.4-0.1,0.7-0.4,0.9
			l-7.2,5.5c-0.4,0.3-0.5,0.9-0.3,1.4l8.1,14c0.3,0.5,0.8,0.6,1.3,0.4l8.4-3.5c0.3-0.1,0.7-0.1,1,0.1c0.5,0.3,0.9,0.6,1.4,0.9
			c0.5,0.3,1,0.5,1.5,0.8c0.4,0.1,0.6,0.5,0.6,0.8l1.1,9c0.1,0.5,0.5,0.9,1,0.9h16.2c0.5,0,1-0.4,1-0.9l1.1-9c0-0.4,0.3-0.7,0.6-0.8
			c0.5-0.2,1-0.5,1.4-0.8c0.5-0.3,1-0.6,1.4-0.9c0.3-0.2,0.7-0.2,1-0.1l8.3,3.5c0.5,0.2,1,0,1.3-0.4l8.1-14c0.3-0.5,0.1-1-0.3-1.4
			L282.6,71.3L282.6,71.3z M257.7,83c-7.9,0-14.2-6.4-14.2-14.2s6.4-14.2,14.2-14.2c7.9,0,14.2,6.4,14.2,14.2S265.5,83,257.7,83z"/>
		<path class="st0" d="M265.7,102h-16.2c-0.8,0-1.5-0.6-1.5-1.4l-1.1-9c0-0.2-0.1-0.4-0.3-0.4c-0.6-0.2-1.1-0.6-1.5-0.8
			c-0.5-0.3-1-0.6-1.4-0.9c-0.1-0.1-0.4-0.1-0.5-0.1l-8.4,3.5c-0.7,0.3-1.5,0-2-0.7l-8.1-14c-0.4-0.7-0.2-1.5,0.4-2l7.2-5.5
			c0.1-0.1,0.2-0.3,0.2-0.5c0-0.2,0-0.4,0-0.6v-2.2c0-0.2,0-0.4,0-0.6c0-0.2-0.1-0.4-0.2-0.5l-7.2-5.5c-0.6-0.5-0.8-1.3-0.4-2
			l8.1-14c0.4-0.7,1.2-0.9,2-0.6l8.4,3.5c0.2,0.1,0.4,0.1,0.5,0c0.5-0.3,1-0.6,1.4-0.9c0.5-0.3,1-0.6,1.5-0.8
			c0.1-0.1,0.3-0.2,0.3-0.4l1.1-9c0.1-0.8,0.8-1.3,1.5-1.3h16.2c0.8,0,1.5,0.6,1.5,1.4l1.1,9c0,0.2,0.1,0.3,0.3,0.4
			c0.6,0.3,1.1,0.5,1.5,0.8c0.5,0.3,1,0.6,1.4,0.9c0.2,0.1,0.3,0.1,0.5,0.1l8.4-3.5c0.7-0.3,1.5,0,1.9,0.6l8.1,14
			c0.4,0.7,0.2,1.5-0.4,2l-7.2,5.5c-0.1,0.1-0.2,0.3-0.2,0.5c0,0.1,0,0.4,0,0.6v2.2c0,0.2,0,0.4,0,0.6c0,0.2,0,0.4,0.2,0.5l7.2,5.4
			c0.6,0.5,0.8,1.4,0.4,2l-8.1,14c-0.4,0.7-1.2,1-2,0.7l-8.3-3.5c-0.2-0.1-0.4-0.1-0.5,0c-0.5,0.3-1,0.6-1.5,0.9
			c-0.5,0.3-1,0.6-1.5,0.8c-0.2,0.1-0.3,0.2-0.3,0.4l-1.1,9C267.2,101.5,266.5,102.1,265.7,102L265.7,102z M243.3,88.5
			c0.3,0,0.6,0.1,0.9,0.3c0.4,0.3,0.9,0.6,1.4,0.9c0.4,0.2,0.9,0.5,1.4,0.7c0.5,0.2,0.9,0.7,0.9,1.2l1.1,9c0,0.3,0.3,0.5,0.5,0.5
			h16.2c0.3,0,0.5-0.2,0.5-0.5l1.1-9c0-0.5,0.4-1,0.9-1.2c0.5-0.2,0.9-0.5,1.4-0.7c0.5-0.3,1-0.6,1.4-0.9c0.4-0.3,1-0.3,1.5-0.1
			l8.3,3.5c0.2,0.1,0.5,0,0.7-0.2l8.1-14c0.1-0.2,0.1-0.6-0.2-0.7l-7.2-5.4l0,0c-0.4-0.4-0.7-0.9-0.6-1.4c0-0.1,0-0.3,0-0.4v-2.2
			c0-0.2,0-0.3,0-0.5c0-0.6,0.2-1.1,0.6-1.4l7.2-5.5c0.2-0.2,0.3-0.5,0.1-0.7l-8.1-14c-0.1-0.2-0.4-0.3-0.7-0.2l-8.4,3.5
			c-0.5,0.2-1,0.2-1.5-0.1c-0.4-0.3-0.9-0.6-1.4-0.9c-0.4-0.3-0.9-0.5-1.4-0.7c-0.5-0.2-0.9-0.7-0.9-1.2l-1.1-9
			c0-0.3-0.3-0.5-0.5-0.5h-16.2c-0.3,0-0.5,0.2-0.5,0.5l-1.1,9c0,0.5-0.4,1-0.9,1.2c-0.5,0.2-1,0.5-1.4,0.7
			c-0.5,0.3-0.9,0.6-1.4,0.9c-0.5,0.3-1,0.4-1.5,0.1l-8.4-3.5c-0.2-0.1-0.6,0-0.7,0.2l-8.1,14c-0.1,0.2-0.1,0.5,0.1,0.7l7.2,5.5
			c0.4,0.3,0.7,0.8,0.6,1.4c0,0.1,0,0.3,0,0.5v2.2c0,0.2,0,0.3,0,0.5c0,0.5-0.2,1-0.6,1.4l-7.2,5.5c-0.2,0.2-0.3,0.5-0.1,0.7l8.1,14
			c0.1,0.2,0.4,0.3,0.7,0.2l8.4-3.5C242.9,88.5,243.1,88.5,243.3,88.5L243.3,88.5z M257.7,83.5c-8.1,0-14.7-6.6-14.7-14.7
			S249.5,54,257.7,54c8.1,0,14.7,6.6,14.7,14.7S265.8,83.5,257.7,83.5z M257.7,55c-7.6,0-13.7,6.2-13.7,13.7s6.2,13.7,13.7,13.7
			c7.6,0,13.7-6.2,13.7-13.7S265.2,55,257.7,55z"/>
		<path class="st0" d="M282.6,71.3c-0.3-0.2-0.5-0.6-0.4-1c0-0.2,0-0.4,0-0.5v-2.2c0-0.2,0-0.4,0-0.5c0-0.4,0.1-0.7,0.4-0.9l7.2-5.5
			c0.4-0.3,0.5-0.9,0.3-1.4l-8.1-14c-0.3-0.4-0.8-0.6-1.3-0.4l-8.4,3.5c-0.3,0.1-0.7,0.1-1-0.1c-0.5-0.3-0.9-0.6-1.4-0.9
			s-1-0.5-1.5-0.8c-0.3-0.1-0.6-0.5-0.6-0.8l-1.1-9c-0.1-0.5-0.5-0.9-1-0.9h-16.2c-0.5,0-1,0.4-1,0.9l-1.1,9c0,0.4-0.2,0.7-0.6,0.8
			c-0.5,0.2-1,0.5-1.5,0.8c-0.5,0.3-1,0.6-1.4,0.9c-0.3,0.2-0.7,0.2-1,0.1l-8.4-3.5c-0.5-0.2-1.1,0-1.3,0.4l-8.1,14
			c-0.3,0.5-0.1,1,0.3,1.4l7.2,5.5c0.3,0.2,0.4,0.6,0.4,0.9c0,0.2,0,0.4,0,0.5v2.2c0,0.2,0,0.4,0,0.5c0,0.4-0.1,0.7-0.4,0.9
			l-7.2,5.5c-0.4,0.3-0.5,0.9-0.3,1.4l8.1,14c0.3,0.5,0.8,0.6,1.3,0.4l8.4-3.5c0.3-0.1,0.7-0.1,1,0.1c0.5,0.3,0.9,0.6,1.4,0.9
			c0.5,0.3,1,0.5,1.5,0.8c0.4,0.1,0.6,0.5,0.6,0.8l1.1,9c0.1,0.5,0.5,0.9,1,0.9h16.2c0.5,0,1-0.4,1-0.9l1.1-9c0-0.4,0.3-0.7,0.6-0.8
			c0.5-0.2,1-0.5,1.4-0.8c0.5-0.3,1-0.6,1.4-0.9c0.3-0.2,0.7-0.2,1-0.1l8.3,3.5c0.5,0.2,1,0,1.3-0.4l8.1-14c0.3-0.5,0.1-1-0.3-1.4
			L282.6,71.3L282.6,71.3z M257.7,83c-7.9,0-14.2-6.4-14.2-14.2s6.4-14.2,14.2-14.2c7.9,0,14.2,6.4,14.2,14.2S265.5,83,257.7,83z"/>
		<path class="st0" d="M265.7,102h-16.2c-0.8,0-1.5-0.6-1.5-1.4l-1.1-9c0-0.2-0.1-0.4-0.3-0.4c-0.6-0.2-1.1-0.6-1.5-0.8
			c-0.5-0.3-1-0.6-1.4-0.9c-0.1-0.1-0.4-0.1-0.5-0.1l-8.4,3.5c-0.7,0.3-1.5,0-2-0.7l-8.1-14c-0.4-0.7-0.2-1.5,0.4-2l7.2-5.5
			c0.1-0.1,0.2-0.3,0.2-0.5c0-0.2,0-0.4,0-0.6v-2.2c0-0.2,0-0.4,0-0.6c0-0.2-0.1-0.4-0.2-0.5l-7.2-5.5c-0.6-0.5-0.8-1.3-0.4-2
			l8.1-14c0.4-0.7,1.2-0.9,2-0.6l8.4,3.5c0.2,0.1,0.4,0.1,0.5,0c0.5-0.3,1-0.6,1.4-0.9c0.5-0.3,1-0.6,1.5-0.8
			c0.1-0.1,0.3-0.2,0.3-0.4l1.1-9c0.1-0.8,0.8-1.3,1.5-1.3h16.2c0.8,0,1.5,0.6,1.5,1.4l1.1,9c0,0.2,0.1,0.3,0.3,0.4
			c0.6,0.3,1.1,0.5,1.5,0.8c0.5,0.3,1,0.6,1.4,0.9c0.2,0.1,0.3,0.1,0.5,0.1l8.4-3.5c0.7-0.3,1.5,0,1.9,0.6l8.1,14
			c0.4,0.7,0.2,1.5-0.4,2l-7.2,5.5c-0.1,0.1-0.2,0.3-0.2,0.5c0,0.1,0,0.4,0,0.6v2.2c0,0.2,0,0.4,0,0.6c0,0.2,0,0.4,0.2,0.5l7.2,5.4
			c0.6,0.5,0.8,1.4,0.4,2l-8.1,14c-0.4,0.7-1.2,1-2,0.7l-8.3-3.5c-0.2-0.1-0.4-0.1-0.5,0c-0.5,0.3-1,0.6-1.5,0.9
			c-0.5,0.3-1,0.6-1.5,0.8c-0.2,0.1-0.3,0.2-0.3,0.4l-1.1,9C267.2,101.5,266.5,102.1,265.7,102L265.7,102z M243.3,88.5
			c0.3,0,0.6,0.1,0.9,0.3c0.4,0.3,0.9,0.6,1.4,0.9c0.4,0.2,0.9,0.5,1.4,0.7c0.5,0.2,0.9,0.7,0.9,1.2l1.1,9c0,0.3,0.3,0.5,0.5,0.5
			h16.2c0.3,0,0.5-0.2,0.5-0.5l1.1-9c0-0.5,0.4-1,0.9-1.2c0.5-0.2,0.9-0.5,1.4-0.7c0.5-0.3,1-0.6,1.4-0.9c0.4-0.3,1-0.3,1.5-0.1
			l8.3,3.5c0.2,0.1,0.5,0,0.7-0.2l8.1-14c0.1-0.2,0.1-0.6-0.2-0.7l-7.2-5.4l0,0c-0.4-0.4-0.7-0.9-0.6-1.4c0-0.1,0-0.3,0-0.4v-2.2
			c0-0.2,0-0.3,0-0.5c0-0.6,0.2-1.1,0.6-1.4l7.2-5.5c0.2-0.2,0.3-0.5,0.1-0.7l-8.1-14c-0.1-0.2-0.4-0.3-0.7-0.2l-8.4,3.5
			c-0.5,0.2-1,0.2-1.5-0.1c-0.4-0.3-0.9-0.6-1.4-0.9c-0.4-0.3-0.9-0.5-1.4-0.7c-0.5-0.2-0.9-0.7-0.9-1.2l-1.1-9
			c0-0.3-0.3-0.5-0.5-0.5h-16.2c-0.3,0-0.5,0.2-0.5,0.5l-1.1,9c0,0.5-0.4,1-0.9,1.2c-0.5,0.2-1,0.5-1.4,0.7
			c-0.5,0.3-0.9,0.6-1.4,0.9c-0.5,0.3-1,0.4-1.5,0.1l-8.4-3.5c-0.2-0.1-0.6,0-0.7,0.2l-8.1,14c-0.1,0.2-0.1,0.5,0.1,0.7l7.2,5.5
			c0.4,0.3,0.7,0.8,0.6,1.4c0,0.1,0,0.3,0,0.5v2.2c0,0.2,0,0.3,0,0.5c0,0.5-0.2,1-0.6,1.4l-7.2,5.5c-0.2,0.2-0.3,0.5-0.1,0.7l8.1,14
			c0.1,0.2,0.4,0.3,0.7,0.2l8.4-3.5C242.9,88.5,243.1,88.5,243.3,88.5L243.3,88.5z M257.7,83.5c-8.1,0-14.7-6.6-14.7-14.7
			S249.5,54,257.7,54c8.1,0,14.7,6.6,14.7,14.7S265.8,83.5,257.7,83.5z M257.7,55c-7.6,0-13.7,6.2-13.7,13.7s6.2,13.7,13.7,13.7
			c7.6,0,13.7-6.2,13.7-13.7S265.2,55,257.7,55z"/>
		<path class="st0" d="M282.6,71.3c-0.3-0.2-0.5-0.6-0.4-1c0-0.2,0-0.4,0-0.5v-2.2c0-0.2,0-0.4,0-0.5c0-0.4,0.1-0.7,0.4-0.9l7.2-5.5
			c0.4-0.3,0.5-0.9,0.3-1.4l-8.1-14c-0.3-0.4-0.8-0.6-1.3-0.4l-8.4,3.5c-0.3,0.1-0.7,0.1-1-0.1c-0.5-0.3-0.9-0.6-1.4-0.9
			s-1-0.5-1.5-0.8c-0.3-0.1-0.6-0.5-0.6-0.8l-1.1-9c-0.1-0.5-0.5-0.9-1-0.9h-16.2c-0.5,0-1,0.4-1,0.9l-1.1,9c0,0.4-0.2,0.7-0.6,0.8
			c-0.5,0.2-1,0.5-1.5,0.8c-0.5,0.3-1,0.6-1.4,0.9c-0.3,0.2-0.7,0.2-1,0.1l-8.4-3.5c-0.5-0.2-1.1,0-1.3,0.4l-8.1,14
			c-0.3,0.5-0.1,1,0.3,1.4l7.2,5.5c0.3,0.2,0.4,0.6,0.4,0.9c0,0.2,0,0.4,0,0.5v2.2c0,0.2,0,0.4,0,0.5c0,0.4-0.1,0.7-0.4,0.9
			l-7.2,5.5c-0.4,0.3-0.5,0.9-0.3,1.4l8.1,14c0.3,0.5,0.8,0.6,1.3,0.4l8.4-3.5c0.3-0.1,0.7-0.1,1,0.1c0.5,0.3,0.9,0.6,1.4,0.9
			c0.5,0.3,1,0.5,1.5,0.8c0.4,0.1,0.6,0.5,0.6,0.8l1.1,9c0.1,0.5,0.5,0.9,1,0.9h16.2c0.5,0,1-0.4,1-0.9l1.1-9c0-0.4,0.3-0.7,0.6-0.8
			c0.5-0.2,1-0.5,1.4-0.8c0.5-0.3,1-0.6,1.4-0.9c0.3-0.2,0.7-0.2,1-0.1l8.3,3.5c0.5,0.2,1,0,1.3-0.4l8.1-14c0.3-0.5,0.1-1-0.3-1.4
			L282.6,71.3L282.6,71.3z M257.7,83c-7.9,0-14.2-6.4-14.2-14.2s6.4-14.2,14.2-14.2c7.9,0,14.2,6.4,14.2,14.2S265.5,83,257.7,83z"/>
		<path class="st0" d="M265.7,102h-16.2c-0.8,0-1.5-0.6-1.5-1.4l-1.1-9c0-0.2-0.1-0.4-0.3-0.4c-0.6-0.2-1.1-0.6-1.5-0.8
			c-0.5-0.3-1-0.6-1.4-0.9c-0.1-0.1-0.4-0.1-0.5-0.1l-8.4,3.5c-0.7,0.3-1.5,0-2-0.7l-8.1-14c-0.4-0.7-0.2-1.5,0.4-2l7.2-5.5
			c0.1-0.1,0.2-0.3,0.2-0.5c0-0.2,0-0.4,0-0.6v-2.2c0-0.2,0-0.4,0-0.6c0-0.2-0.1-0.4-0.2-0.5l-7.2-5.5c-0.6-0.5-0.8-1.3-0.4-2
			l8.1-14c0.4-0.7,1.2-0.9,2-0.6l8.4,3.5c0.2,0.1,0.4,0.1,0.5,0c0.5-0.3,1-0.6,1.4-0.9c0.5-0.3,1-0.6,1.5-0.8
			c0.1-0.1,0.3-0.2,0.3-0.4l1.1-9c0.1-0.8,0.8-1.3,1.5-1.3h16.2c0.8,0,1.5,0.6,1.5,1.4l1.1,9c0,0.2,0.1,0.3,0.3,0.4
			c0.6,0.3,1.1,0.5,1.5,0.8c0.5,0.3,1,0.6,1.4,0.9c0.2,0.1,0.3,0.1,0.5,0.1l8.4-3.5c0.7-0.3,1.5,0,1.9,0.6l8.1,14
			c0.4,0.7,0.2,1.5-0.4,2l-7.2,5.5c-0.1,0.1-0.2,0.3-0.2,0.5c0,0.1,0,0.4,0,0.6v2.2c0,0.2,0,0.4,0,0.6c0,0.2,0,0.4,0.2,0.5l7.2,5.4
			c0.6,0.5,0.8,1.4,0.4,2l-8.1,14c-0.4,0.7-1.2,1-2,0.7l-8.3-3.5c-0.2-0.1-0.4-0.1-0.5,0c-0.5,0.3-1,0.6-1.5,0.9
			c-0.5,0.3-1,0.6-1.5,0.8c-0.2,0.1-0.3,0.2-0.3,0.4l-1.1,9C267.2,101.5,266.5,102.1,265.7,102L265.7,102z M243.3,88.5
			c0.3,0,0.6,0.1,0.9,0.3c0.4,0.3,0.9,0.6,1.4,0.9c0.4,0.2,0.9,0.5,1.4,0.7c0.5,0.2,0.9,0.7,0.9,1.2l1.1,9c0,0.3,0.3,0.5,0.5,0.5
			h16.2c0.3,0,0.5-0.2,0.5-0.5l1.1-9c0-0.5,0.4-1,0.9-1.2c0.5-0.2,0.9-0.5,1.4-0.7c0.5-0.3,1-0.6,1.4-0.9c0.4-0.3,1-0.3,1.5-0.1
			l8.3,3.5c0.2,0.1,0.5,0,0.7-0.2l8.1-14c0.1-0.2,0.1-0.6-0.2-0.7l-7.2-5.4l0,0c-0.4-0.4-0.7-0.9-0.6-1.4c0-0.1,0-0.3,0-0.4v-2.2
			c0-0.2,0-0.3,0-0.5c0-0.6,0.2-1.1,0.6-1.4l7.2-5.5c0.2-0.2,0.3-0.5,0.1-0.7l-8.1-14c-0.1-0.2-0.4-0.3-0.7-0.2l-8.4,3.5
			c-0.5,0.2-1,0.2-1.5-0.1c-0.4-0.3-0.9-0.6-1.4-0.9c-0.4-0.3-0.9-0.5-1.4-0.7c-0.5-0.2-0.9-0.7-0.9-1.2l-1.1-9
			c0-0.3-0.3-0.5-0.5-0.5h-16.2c-0.3,0-0.5,0.2-0.5,0.5l-1.1,9c0,0.5-0.4,1-0.9,1.2c-0.5,0.2-1,0.5-1.4,0.7
			c-0.5,0.3-0.9,0.6-1.4,0.9c-0.5,0.3-1,0.4-1.5,0.1l-8.4-3.5c-0.2-0.1-0.6,0-0.7,0.2l-8.1,14c-0.1,0.2-0.1,0.5,0.1,0.7l7.2,5.5
			c0.4,0.3,0.7,0.8,0.6,1.4c0,0.1,0,0.3,0,0.5v2.2c0,0.2,0,0.3,0,0.5c0,0.5-0.2,1-0.6,1.4l-7.2,5.5c-0.2,0.2-0.3,0.5-0.1,0.7l8.1,14
			c0.1,0.2,0.4,0.3,0.7,0.2l8.4-3.5C242.9,88.5,243.1,88.5,243.3,88.5L243.3,88.5z M257.7,83.5c-8.1,0-14.7-6.6-14.7-14.7
			S249.5,54,257.7,54c8.1,0,14.7,6.6,14.7,14.7S265.8,83.5,257.7,83.5z M257.7,55c-7.6,0-13.7,6.2-13.7,13.7s6.2,13.7,13.7,13.7
			c7.6,0,13.7-6.2,13.7-13.7S265.2,55,257.7,55z"/>
		<path class="st0" d="M282.6,71.3c-0.3-0.2-0.5-0.6-0.4-1c0-0.2,0-0.4,0-0.5v-2.2c0-0.2,0-0.4,0-0.5c0-0.4,0.1-0.7,0.4-0.9l7.2-5.5
			c0.4-0.3,0.5-0.9,0.3-1.4l-8.1-14c-0.3-0.4-0.8-0.6-1.3-0.4l-8.4,3.5c-0.3,0.1-0.7,0.1-1-0.1c-0.5-0.3-0.9-0.6-1.4-0.9
			s-1-0.5-1.5-0.8c-0.3-0.1-0.6-0.5-0.6-0.8l-1.1-9c-0.1-0.5-0.5-0.9-1-0.9h-16.2c-0.5,0-1,0.4-1,0.9l-1.1,9c0,0.4-0.2,0.7-0.6,0.8
			c-0.5,0.2-1,0.5-1.5,0.8c-0.5,0.3-1,0.6-1.4,0.9c-0.3,0.2-0.7,0.2-1,0.1l-8.4-3.5c-0.5-0.2-1.1,0-1.3,0.4l-8.1,14
			c-0.3,0.5-0.1,1,0.3,1.4l7.2,5.5c0.3,0.2,0.4,0.6,0.4,0.9c0,0.2,0,0.4,0,0.5v2.2c0,0.2,0,0.4,0,0.5c0,0.4-0.1,0.7-0.4,0.9
			l-7.2,5.5c-0.4,0.3-0.5,0.9-0.3,1.4l8.1,14c0.3,0.5,0.8,0.6,1.3,0.4l8.4-3.5c0.3-0.1,0.7-0.1,1,0.1c0.5,0.3,0.9,0.6,1.4,0.9
			c0.5,0.3,1,0.5,1.5,0.8c0.4,0.1,0.6,0.5,0.6,0.8l1.1,9c0.1,0.5,0.5,0.9,1,0.9h16.2c0.5,0,1-0.4,1-0.9l1.1-9c0-0.4,0.3-0.7,0.6-0.8
			c0.5-0.2,1-0.5,1.4-0.8c0.5-0.3,1-0.6,1.4-0.9c0.3-0.2,0.7-0.2,1-0.1l8.3,3.5c0.5,0.2,1,0,1.3-0.4l8.1-14c0.3-0.5,0.1-1-0.3-1.4
			L282.6,71.3L282.6,71.3z M257.7,83c-7.9,0-14.2-6.4-14.2-14.2s6.4-14.2,14.2-14.2c7.9,0,14.2,6.4,14.2,14.2S265.5,83,257.7,83z"/>
		<path class="st1" d="M265.7,102h-16.2c-0.8,0-1.5-0.6-1.5-1.4l-1.1-9c0-0.2-0.1-0.4-0.3-0.4c-0.6-0.2-1.1-0.6-1.5-0.8
			c-0.5-0.3-1-0.6-1.4-0.9c-0.1-0.1-0.4-0.1-0.5-0.1l-8.4,3.5c-0.7,0.3-1.5,0-2-0.7l-8.1-14c-0.4-0.7-0.2-1.5,0.4-2l7.2-5.5
			c0.1-0.1,0.2-0.3,0.2-0.5c0-0.2,0-0.4,0-0.6v-2.2c0-0.2,0-0.4,0-0.6c0-0.2-0.1-0.4-0.2-0.5l-7.2-5.5c-0.6-0.5-0.8-1.3-0.4-2
			l8.1-14c0.4-0.7,1.2-0.9,2-0.6l8.4,3.5c0.2,0.1,0.4,0.1,0.5,0c0.5-0.3,1-0.6,1.4-0.9c0.5-0.3,1-0.6,1.5-0.8
			c0.1-0.1,0.3-0.2,0.3-0.4l1.1-9c0.1-0.8,0.8-1.3,1.5-1.3h16.2c0.8,0,1.5,0.6,1.5,1.4l1.1,9c0,0.2,0.1,0.3,0.3,0.4
			c0.6,0.3,1.1,0.5,1.5,0.8c0.5,0.3,1,0.6,1.4,0.9c0.2,0.1,0.3,0.1,0.5,0.1l8.4-3.5c0.7-0.3,1.5,0,1.9,0.6l8.1,14
			c0.4,0.7,0.2,1.5-0.4,2l-7.2,5.5c-0.1,0.1-0.2,0.3-0.2,0.5c0,0.1,0,0.4,0,0.6v2.2c0,0.2,0,0.4,0,0.6c0,0.2,0,0.4,0.2,0.5l7.2,5.4
			c0.6,0.5,0.8,1.4,0.4,2l-8.1,14c-0.4,0.7-1.2,1-2,0.7l-8.3-3.5c-0.2-0.1-0.4-0.1-0.5,0c-0.5,0.3-1,0.6-1.5,0.9
			c-0.5,0.3-1,0.6-1.5,0.8c-0.2,0.1-0.3,0.2-0.3,0.4l-1.1,9C267.2,101.5,266.5,102.1,265.7,102L265.7,102z M243.3,88.5
			c0.3,0,0.6,0.1,0.9,0.3c0.4,0.3,0.9,0.6,1.4,0.9c0.4,0.2,0.9,0.5,1.4,0.7c0.5,0.2,0.9,0.7,0.9,1.2l1.1,9c0,0.3,0.3,0.5,0.5,0.5
			h16.2c0.3,0,0.5-0.2,0.5-0.5l1.1-9c0-0.5,0.4-1,0.9-1.2c0.5-0.2,0.9-0.5,1.4-0.7c0.5-0.3,1-0.6,1.4-0.9c0.4-0.3,1-0.3,1.5-0.1
			l8.3,3.5c0.2,0.1,0.5,0,0.7-0.2l8.1-14c0.1-0.2,0.1-0.6-0.2-0.7l-7.2-5.4l0,0c-0.4-0.4-0.7-0.9-0.6-1.4c0-0.1,0-0.3,0-0.4v-2.2
			c0-0.2,0-0.3,0-0.5c0-0.6,0.2-1.1,0.6-1.4l7.2-5.5c0.2-0.2,0.3-0.5,0.1-0.7l-8.1-14c-0.1-0.2-0.4-0.3-0.7-0.2l-8.4,3.5
			c-0.5,0.2-1,0.2-1.5-0.1c-0.4-0.3-0.9-0.6-1.4-0.9c-0.4-0.3-0.9-0.5-1.4-0.7c-0.5-0.2-0.9-0.7-0.9-1.2l-1.1-9
			c0-0.3-0.3-0.5-0.5-0.5h-16.2c-0.3,0-0.5,0.2-0.5,0.5l-1.1,9c0,0.5-0.4,1-0.9,1.2c-0.5,0.2-1,0.5-1.4,0.7
			c-0.5,0.3-0.9,0.6-1.4,0.9c-0.5,0.3-1,0.4-1.5,0.1l-8.4-3.5c-0.2-0.1-0.6,0-0.7,0.2l-8.1,14c-0.1,0.2-0.1,0.5,0.1,0.7l7.2,5.5
			c0.4,0.3,0.7,0.8,0.6,1.4c0,0.1,0,0.3,0,0.5v2.2c0,0.2,0,0.3,0,0.5c0,0.5-0.2,1-0.6,1.4l-7.2,5.5c-0.2,0.2-0.3,0.5-0.1,0.7l8.1,14
			c0.1,0.2,0.4,0.3,0.7,0.2l8.4-3.5C242.9,88.5,243.1,88.5,243.3,88.5L243.3,88.5z M257.7,83.5c-8.1,0-14.7-6.6-14.7-14.7
			S249.5,54,257.7,54c8.1,0,14.7,6.6,14.7,14.7S265.8,83.5,257.7,83.5z M257.7,55c-7.6,0-13.7,6.2-13.7,13.7s6.2,13.7,13.7,13.7
			c7.6,0,13.7-6.2,13.7-13.7S265.2,55,257.7,55z"/>
		<path class="st3" d="M282.6,71.3c-0.3-0.2-0.5-0.6-0.4-1c0-0.2,0-0.4,0-0.5v-2.2c0-0.2,0-0.4,0-0.5c0-0.4,0.1-0.7,0.4-0.9l7.2-5.5
			c0.4-0.3,0.5-0.9,0.3-1.4l-8.1-14c-0.3-0.4-0.8-0.6-1.3-0.4l-8.4,3.5c-0.3,0.1-0.7,0.1-1-0.1c-0.5-0.3-0.9-0.6-1.4-0.9
			s-1-0.5-1.5-0.8c-0.3-0.1-0.6-0.5-0.6-0.8l-1.1-9c-0.1-0.5-0.5-0.9-1-0.9h-16.2c-0.5,0-1,0.4-1,0.9l-1.1,9c0,0.4-0.2,0.7-0.6,0.8
			c-0.5,0.2-1,0.5-1.5,0.8c-0.5,0.3-1,0.6-1.4,0.9c-0.3,0.2-0.7,0.2-1,0.1l-8.4-3.5c-0.5-0.2-1.1,0-1.3,0.4l-8.1,14
			c-0.3,0.5-0.1,1,0.3,1.4l7.2,5.5c0.3,0.2,0.4,0.6,0.4,0.9c0,0.2,0,0.4,0,0.5v2.2c0,0.2,0,0.4,0,0.5c0,0.4-0.1,0.7-0.4,0.9
			l-7.2,5.5c-0.4,0.3-0.5,0.9-0.3,1.4l8.1,14c0.3,0.5,0.8,0.6,1.3,0.4l8.4-3.5c0.3-0.1,0.7-0.1,1,0.1c0.5,0.3,0.9,0.6,1.4,0.9
			c0.5,0.3,1,0.5,1.5,0.8c0.4,0.1,0.6,0.5,0.6,0.8l1.1,9c0.1,0.5,0.5,0.9,1,0.9h16.2c0.5,0,1-0.4,1-0.9l1.1-9c0-0.4,0.3-0.7,0.6-0.8
			c0.5-0.2,1-0.5,1.4-0.8c0.5-0.3,1-0.6,1.4-0.9c0.3-0.2,0.7-0.2,1-0.1l8.3,3.5c0.5,0.2,1,0,1.3-0.4l8.1-14c0.3-0.5,0.1-1-0.3-1.4
			L282.6,71.3L282.6,71.3z M257.7,83c-7.9,0-14.2-6.4-14.2-14.2s6.4-14.2,14.2-14.2c7.9,0,14.2,6.4,14.2,14.2S265.5,83,257.7,83z"/>
		<path class="st3" d="M265.7,102h-16.2c-0.8,0-1.5-0.6-1.5-1.4l-1.1-9c0-0.2-0.1-0.4-0.3-0.4c-0.6-0.2-1.1-0.6-1.5-0.8
			c-0.5-0.3-1-0.6-1.4-0.9c-0.1-0.1-0.4-0.1-0.5-0.1l-8.4,3.5c-0.7,0.3-1.5,0-2-0.7l-8.1-14c-0.4-0.7-0.2-1.5,0.4-2l7.2-5.5
			c0.1-0.1,0.2-0.3,0.2-0.5c0-0.2,0-0.4,0-0.6v-2.2c0-0.2,0-0.4,0-0.6c0-0.2-0.1-0.4-0.2-0.5l-7.2-5.5c-0.6-0.5-0.8-1.3-0.4-2
			l8.1-14c0.4-0.7,1.2-0.9,2-0.6l8.4,3.5c0.2,0.1,0.4,0.1,0.5,0c0.5-0.3,1-0.6,1.4-0.9c0.5-0.3,1-0.6,1.5-0.8
			c0.1-0.1,0.3-0.2,0.3-0.4l1.1-9c0.1-0.8,0.8-1.3,1.5-1.3h16.2c0.8,0,1.5,0.6,1.5,1.4l1.1,9c0,0.2,0.1,0.3,0.3,0.4
			c0.6,0.3,1.1,0.5,1.5,0.8c0.5,0.3,1,0.6,1.4,0.9c0.2,0.1,0.3,0.1,0.5,0.1l8.4-3.5c0.7-0.3,1.5,0,1.9,0.6l8.1,14
			c0.4,0.7,0.2,1.5-0.4,2l-7.2,5.5c-0.1,0.1-0.2,0.3-0.2,0.5c0,0.1,0,0.4,0,0.6v2.2c0,0.2,0,0.4,0,0.6c0,0.2,0,0.4,0.2,0.5l7.2,5.4
			c0.6,0.5,0.8,1.4,0.4,2l-8.1,14c-0.4,0.7-1.2,1-2,0.7l-8.3-3.5c-0.2-0.1-0.4-0.1-0.5,0c-0.5,0.3-1,0.6-1.5,0.9
			c-0.5,0.3-1,0.6-1.5,0.8c-0.2,0.1-0.3,0.2-0.3,0.4l-1.1,9C267.2,101.5,266.5,102.1,265.7,102L265.7,102z M243.3,88.5
			c0.3,0,0.6,0.1,0.9,0.3c0.4,0.3,0.9,0.6,1.4,0.9c0.4,0.2,0.9,0.5,1.4,0.7c0.5,0.2,0.9,0.7,0.9,1.2l1.1,9c0,0.3,0.3,0.5,0.5,0.5
			h16.2c0.3,0,0.5-0.2,0.5-0.5l1.1-9c0-0.5,0.4-1,0.9-1.2c0.5-0.2,0.9-0.5,1.4-0.7c0.5-0.3,1-0.6,1.4-0.9c0.4-0.3,1-0.3,1.5-0.1
			l8.3,3.5c0.2,0.1,0.5,0,0.7-0.2l8.1-14c0.1-0.2,0.1-0.6-0.2-0.7l-7.2-5.4l0,0c-0.4-0.4-0.7-0.9-0.6-1.4c0-0.1,0-0.3,0-0.4v-2.2
			c0-0.2,0-0.3,0-0.5c0-0.6,0.2-1.1,0.6-1.4l7.2-5.5c0.2-0.2,0.3-0.5,0.1-0.7l-8.1-14c-0.1-0.2-0.4-0.3-0.7-0.2l-8.4,3.5
			c-0.5,0.2-1,0.2-1.5-0.1c-0.4-0.3-0.9-0.6-1.4-0.9c-0.4-0.3-0.9-0.5-1.4-0.7c-0.5-0.2-0.9-0.7-0.9-1.2l-1.1-9
			c0-0.3-0.3-0.5-0.5-0.5h-16.2c-0.3,0-0.5,0.2-0.5,0.5l-1.1,9c0,0.5-0.4,1-0.9,1.2c-0.5,0.2-1,0.5-1.4,0.7
			c-0.5,0.3-0.9,0.6-1.4,0.9c-0.5,0.3-1,0.4-1.5,0.1l-8.4-3.5c-0.2-0.1-0.6,0-0.7,0.2l-8.1,14c-0.1,0.2-0.1,0.5,0.1,0.7l7.2,5.5
			c0.4,0.3,0.7,0.8,0.6,1.4c0,0.1,0,0.3,0,0.5v2.2c0,0.2,0,0.3,0,0.5c0,0.5-0.2,1-0.6,1.4l-7.2,5.5c-0.2,0.2-0.3,0.5-0.1,0.7l8.1,14
			c0.1,0.2,0.4,0.3,0.7,0.2l8.4-3.5C242.9,88.5,243.1,88.5,243.3,88.5L243.3,88.5z M257.7,83.5c-8.1,0-14.7-6.6-14.7-14.7
			S249.5,54,257.7,54c8.1,0,14.7,6.6,14.7,14.7S265.8,83.5,257.7,83.5z M257.7,55c-7.6,0-13.7,6.2-13.7,13.7s6.2,13.7,13.7,13.7
			c7.6,0,13.7-6.2,13.7-13.7S265.2,55,257.7,55z"/>
		<path class="st3" d="M282.6,71.3c-0.3-0.2-0.5-0.6-0.4-1c0-0.2,0-0.4,0-0.5v-2.2c0-0.2,0-0.4,0-0.5c0-0.4,0.1-0.7,0.4-0.9l7.2-5.5
			c0.4-0.3,0.5-0.9,0.3-1.4l-8.1-14c-0.3-0.4-0.8-0.6-1.3-0.4l-8.4,3.5c-0.3,0.1-0.7,0.1-1-0.1c-0.5-0.3-0.9-0.6-1.4-0.9
			s-1-0.5-1.5-0.8c-0.3-0.1-0.6-0.5-0.6-0.8l-1.1-9c-0.1-0.5-0.5-0.9-1-0.9h-16.2c-0.5,0-1,0.4-1,0.9l-1.1,9c0,0.4-0.2,0.7-0.6,0.8
			c-0.5,0.2-1,0.5-1.5,0.8c-0.5,0.3-1,0.6-1.4,0.9c-0.3,0.2-0.7,0.2-1,0.1l-8.4-3.5c-0.5-0.2-1.1,0-1.3,0.4l-8.1,14
			c-0.3,0.5-0.1,1,0.3,1.4l7.2,5.5c0.3,0.2,0.4,0.6,0.4,0.9c0,0.2,0,0.4,0,0.5v2.2c0,0.2,0,0.4,0,0.5c0,0.4-0.1,0.7-0.4,0.9
			l-7.2,5.5c-0.4,0.3-0.5,0.9-0.3,1.4l8.1,14c0.3,0.5,0.8,0.6,1.3,0.4l8.4-3.5c0.3-0.1,0.7-0.1,1,0.1c0.5,0.3,0.9,0.6,1.4,0.9
			c0.5,0.3,1,0.5,1.5,0.8c0.4,0.1,0.6,0.5,0.6,0.8l1.1,9c0.1,0.5,0.5,0.9,1,0.9h16.2c0.5,0,1-0.4,1-0.9l1.1-9c0-0.4,0.3-0.7,0.6-0.8
			c0.5-0.2,1-0.5,1.4-0.8c0.5-0.3,1-0.6,1.4-0.9c0.3-0.2,0.7-0.2,1-0.1l8.3,3.5c0.5,0.2,1,0,1.3-0.4l8.1-14c0.3-0.5,0.1-1-0.3-1.4
			L282.6,71.3L282.6,71.3z M257.7,83c-7.9,0-14.2-6.4-14.2-14.2s6.4-14.2,14.2-14.2c7.9,0,14.2,6.4,14.2,14.2S265.5,83,257.7,83z"/>
		<path class="st3" d="M265.7,102h-16.2c-0.8,0-1.5-0.6-1.5-1.4l-1.1-9c0-0.2-0.1-0.4-0.3-0.4c-0.6-0.2-1.1-0.6-1.5-0.8
			c-0.5-0.3-1-0.6-1.4-0.9c-0.1-0.1-0.4-0.1-0.5-0.1l-8.4,3.5c-0.7,0.3-1.5,0-2-0.7l-8.1-14c-0.4-0.7-0.2-1.5,0.4-2l7.2-5.5
			c0.1-0.1,0.2-0.3,0.2-0.5c0-0.2,0-0.4,0-0.6v-2.2c0-0.2,0-0.4,0-0.6c0-0.2-0.1-0.4-0.2-0.5l-7.2-5.5c-0.6-0.5-0.8-1.3-0.4-2
			l8.1-14c0.4-0.7,1.2-0.9,2-0.6l8.4,3.5c0.2,0.1,0.4,0.1,0.5,0c0.5-0.3,1-0.6,1.4-0.9c0.5-0.3,1-0.6,1.5-0.8
			c0.1-0.1,0.3-0.2,0.3-0.4l1.1-9c0.1-0.8,0.8-1.3,1.5-1.3h16.2c0.8,0,1.5,0.6,1.5,1.4l1.1,9c0,0.2,0.1,0.3,0.3,0.4
			c0.6,0.3,1.1,0.5,1.5,0.8c0.5,0.3,1,0.6,1.4,0.9c0.2,0.1,0.3,0.1,0.5,0.1l8.4-3.5c0.7-0.3,1.5,0,1.9,0.6l8.1,14
			c0.4,0.7,0.2,1.5-0.4,2l-7.2,5.5c-0.1,0.1-0.2,0.3-0.2,0.5c0,0.1,0,0.4,0,0.6v2.2c0,0.2,0,0.4,0,0.6c0,0.2,0,0.4,0.2,0.5l7.2,5.4
			c0.6,0.5,0.8,1.4,0.4,2l-8.1,14c-0.4,0.7-1.2,1-2,0.7l-8.3-3.5c-0.2-0.1-0.4-0.1-0.5,0c-0.5,0.3-1,0.6-1.5,0.9
			c-0.5,0.3-1,0.6-1.5,0.8c-0.2,0.1-0.3,0.2-0.3,0.4l-1.1,9C267.2,101.5,266.5,102.1,265.7,102L265.7,102z M243.3,88.5
			c0.3,0,0.6,0.1,0.9,0.3c0.4,0.3,0.9,0.6,1.4,0.9c0.4,0.2,0.9,0.5,1.4,0.7c0.5,0.2,0.9,0.7,0.9,1.2l1.1,9c0,0.3,0.3,0.5,0.5,0.5
			h16.2c0.3,0,0.5-0.2,0.5-0.5l1.1-9c0-0.5,0.4-1,0.9-1.2c0.5-0.2,0.9-0.5,1.4-0.7c0.5-0.3,1-0.6,1.4-0.9c0.4-0.3,1-0.3,1.5-0.1
			l8.3,3.5c0.2,0.1,0.5,0,0.7-0.2l8.1-14c0.1-0.2,0.1-0.6-0.2-0.7l-7.2-5.4l0,0c-0.4-0.4-0.7-0.9-0.6-1.4c0-0.1,0-0.3,0-0.4v-2.2
			c0-0.2,0-0.3,0-0.5c0-0.6,0.2-1.1,0.6-1.4l7.2-5.5c0.2-0.2,0.3-0.5,0.1-0.7l-8.1-14c-0.1-0.2-0.4-0.3-0.7-0.2l-8.4,3.5
			c-0.5,0.2-1,0.2-1.5-0.1c-0.4-0.3-0.9-0.6-1.4-0.9c-0.4-0.3-0.9-0.5-1.4-0.7c-0.5-0.2-0.9-0.7-0.9-1.2l-1.1-9
			c0-0.3-0.3-0.5-0.5-0.5h-16.2c-0.3,0-0.5,0.2-0.5,0.5l-1.1,9c0,0.5-0.4,1-0.9,1.2c-0.5,0.2-1,0.5-1.4,0.7
			c-0.5,0.3-0.9,0.6-1.4,0.9c-0.5,0.3-1,0.4-1.5,0.1l-8.4-3.5c-0.2-0.1-0.6,0-0.7,0.2l-8.1,14c-0.1,0.2-0.1,0.5,0.1,0.7l7.2,5.5
			c0.4,0.3,0.7,0.8,0.6,1.4c0,0.1,0,0.3,0,0.5v2.2c0,0.2,0,0.3,0,0.5c0,0.5-0.2,1-0.6,1.4l-7.2,5.5c-0.2,0.2-0.3,0.5-0.1,0.7l8.1,14
			c0.1,0.2,0.4,0.3,0.7,0.2l8.4-3.5C242.9,88.5,243.1,88.5,243.3,88.5L243.3,88.5z M257.7,83.5c-8.1,0-14.7-6.6-14.7-14.7
			S249.5,54,257.7,54c8.1,0,14.7,6.6,14.7,14.7S265.8,83.5,257.7,83.5z M257.7,55c-7.6,0-13.7,6.2-13.7,13.7s6.2,13.7,13.7,13.7
			c7.6,0,13.7-6.2,13.7-13.7S265.2,55,257.7,55z"/>
		<path class="st3" d="M282.6,71.3c-0.3-0.2-0.5-0.6-0.4-1c0-0.2,0-0.4,0-0.5v-2.2c0-0.2,0-0.4,0-0.5c0-0.4,0.1-0.7,0.4-0.9l7.2-5.5
			c0.4-0.3,0.5-0.9,0.3-1.4l-8.1-14c-0.3-0.4-0.8-0.6-1.3-0.4l-8.4,3.5c-0.3,0.1-0.7,0.1-1-0.1c-0.5-0.3-0.9-0.6-1.4-0.9
			s-1-0.5-1.5-0.8c-0.3-0.1-0.6-0.5-0.6-0.8l-1.1-9c-0.1-0.5-0.5-0.9-1-0.9h-16.2c-0.5,0-1,0.4-1,0.9l-1.1,9c0,0.4-0.2,0.7-0.6,0.8
			c-0.5,0.2-1,0.5-1.5,0.8c-0.5,0.3-1,0.6-1.4,0.9c-0.3,0.2-0.7,0.2-1,0.1l-8.4-3.5c-0.5-0.2-1.1,0-1.3,0.4l-8.1,14
			c-0.3,0.5-0.1,1,0.3,1.4l7.2,5.5c0.3,0.2,0.4,0.6,0.4,0.9c0,0.2,0,0.4,0,0.5v2.2c0,0.2,0,0.4,0,0.5c0,0.4-0.1,0.7-0.4,0.9
			l-7.2,5.5c-0.4,0.3-0.5,0.9-0.3,1.4l8.1,14c0.3,0.5,0.8,0.6,1.3,0.4l8.4-3.5c0.3-0.1,0.7-0.1,1,0.1c0.5,0.3,0.9,0.6,1.4,0.9
			c0.5,0.3,1,0.5,1.5,0.8c0.4,0.1,0.6,0.5,0.6,0.8l1.1,9c0.1,0.5,0.5,0.9,1,0.9h16.2c0.5,0,1-0.4,1-0.9l1.1-9c0-0.4,0.3-0.7,0.6-0.8
			c0.5-0.2,1-0.5,1.4-0.8c0.5-0.3,1-0.6,1.4-0.9c0.3-0.2,0.7-0.2,1-0.1l8.3,3.5c0.5,0.2,1,0,1.3-0.4l8.1-14c0.3-0.5,0.1-1-0.3-1.4
			L282.6,71.3L282.6,71.3z M257.7,83c-7.9,0-14.2-6.4-14.2-14.2s6.4-14.2,14.2-14.2c7.9,0,14.2,6.4,14.2,14.2S265.5,83,257.7,83z"/>
		<path class="st3" d="M265.7,102h-16.2c-0.8,0-1.5-0.6-1.5-1.4l-1.1-9c0-0.2-0.1-0.4-0.3-0.4c-0.6-0.2-1.1-0.6-1.5-0.8
			c-0.5-0.3-1-0.6-1.4-0.9c-0.1-0.1-0.4-0.1-0.5-0.1l-8.4,3.5c-0.7,0.3-1.5,0-2-0.7l-8.1-14c-0.4-0.7-0.2-1.5,0.4-2l7.2-5.5
			c0.1-0.1,0.2-0.3,0.2-0.5c0-0.2,0-0.4,0-0.6v-2.2c0-0.2,0-0.4,0-0.6c0-0.2-0.1-0.4-0.2-0.5l-7.2-5.5c-0.6-0.5-0.8-1.3-0.4-2
			l8.1-14c0.4-0.7,1.2-0.9,2-0.6l8.4,3.5c0.2,0.1,0.4,0.1,0.5,0c0.5-0.3,1-0.6,1.4-0.9c0.5-0.3,1-0.6,1.5-0.8
			c0.1-0.1,0.3-0.2,0.3-0.4l1.1-9c0.1-0.8,0.8-1.3,1.5-1.3h16.2c0.8,0,1.5,0.6,1.5,1.4l1.1,9c0,0.2,0.1,0.3,0.3,0.4
			c0.6,0.3,1.1,0.5,1.5,0.8c0.5,0.3,1,0.6,1.4,0.9c0.2,0.1,0.3,0.1,0.5,0.1l8.4-3.5c0.7-0.3,1.5,0,1.9,0.6l8.1,14
			c0.4,0.7,0.2,1.5-0.4,2l-7.2,5.5c-0.1,0.1-0.2,0.3-0.2,0.5c0,0.1,0,0.4,0,0.6v2.2c0,0.2,0,0.4,0,0.6c0,0.2,0,0.4,0.2,0.5l7.2,5.4
			c0.6,0.5,0.8,1.4,0.4,2l-8.1,14c-0.4,0.7-1.2,1-2,0.7l-8.3-3.5c-0.2-0.1-0.4-0.1-0.5,0c-0.5,0.3-1,0.6-1.5,0.9
			c-0.5,0.3-1,0.6-1.5,0.8c-0.2,0.1-0.3,0.2-0.3,0.4l-1.1,9C267.2,101.5,266.5,102.1,265.7,102L265.7,102z M243.3,88.5
			c0.3,0,0.6,0.1,0.9,0.3c0.4,0.3,0.9,0.6,1.4,0.9c0.4,0.2,0.9,0.5,1.4,0.7c0.5,0.2,0.9,0.7,0.9,1.2l1.1,9c0,0.3,0.3,0.5,0.5,0.5
			h16.2c0.3,0,0.5-0.2,0.5-0.5l1.1-9c0-0.5,0.4-1,0.9-1.2c0.5-0.2,0.9-0.5,1.4-0.7c0.5-0.3,1-0.6,1.4-0.9c0.4-0.3,1-0.3,1.5-0.1
			l8.3,3.5c0.2,0.1,0.5,0,0.7-0.2l8.1-14c0.1-0.2,0.1-0.6-0.2-0.7l-7.2-5.4l0,0c-0.4-0.4-0.7-0.9-0.6-1.4c0-0.1,0-0.3,0-0.4v-2.2
			c0-0.2,0-0.3,0-0.5c0-0.6,0.2-1.1,0.6-1.4l7.2-5.5c0.2-0.2,0.3-0.5,0.1-0.7l-8.1-14c-0.1-0.2-0.4-0.3-0.7-0.2l-8.4,3.5
			c-0.5,0.2-1,0.2-1.5-0.1c-0.4-0.3-0.9-0.6-1.4-0.9c-0.4-0.3-0.9-0.5-1.4-0.7c-0.5-0.2-0.9-0.7-0.9-1.2l-1.1-9
			c0-0.3-0.3-0.5-0.5-0.5h-16.2c-0.3,0-0.5,0.2-0.5,0.5l-1.1,9c0,0.5-0.4,1-0.9,1.2c-0.5,0.2-1,0.5-1.4,0.7
			c-0.5,0.3-0.9,0.6-1.4,0.9c-0.5,0.3-1,0.4-1.5,0.1l-8.4-3.5c-0.2-0.1-0.6,0-0.7,0.2l-8.1,14c-0.1,0.2-0.1,0.5,0.1,0.7l7.2,5.5
			c0.4,0.3,0.7,0.8,0.6,1.4c0,0.1,0,0.3,0,0.5v2.2c0,0.2,0,0.3,0,0.5c0,0.5-0.2,1-0.6,1.4l-7.2,5.5c-0.2,0.2-0.3,0.5-0.1,0.7l8.1,14
			c0.1,0.2,0.4,0.3,0.7,0.2l8.4-3.5C242.9,88.5,243.1,88.5,243.3,88.5L243.3,88.5z M257.7,83.5c-8.1,0-14.7-6.6-14.7-14.7
			S249.5,54,257.7,54c8.1,0,14.7,6.6,14.7,14.7S265.8,83.5,257.7,83.5z M257.7,55c-7.6,0-13.7,6.2-13.7,13.7s6.2,13.7,13.7,13.7
			c7.6,0,13.7-6.2,13.7-13.7S265.2,55,257.7,55z"/>
		<path class="st3" d="M282.6,71.3c-0.3-0.2-0.5-0.6-0.4-1c0-0.2,0-0.4,0-0.5v-2.2c0-0.2,0-0.4,0-0.5c0-0.4,0.1-0.7,0.4-0.9l7.2-5.5
			c0.4-0.3,0.5-0.9,0.3-1.4l-8.1-14c-0.3-0.4-0.8-0.6-1.3-0.4l-8.4,3.5c-0.3,0.1-0.7,0.1-1-0.1c-0.5-0.3-0.9-0.6-1.4-0.9
			s-1-0.5-1.5-0.8c-0.3-0.1-0.6-0.5-0.6-0.8l-1.1-9c-0.1-0.5-0.5-0.9-1-0.9h-16.2c-0.5,0-1,0.4-1,0.9l-1.1,9c0,0.4-0.2,0.7-0.6,0.8
			c-0.5,0.2-1,0.5-1.5,0.8c-0.5,0.3-1,0.6-1.4,0.9c-0.3,0.2-0.7,0.2-1,0.1l-8.4-3.5c-0.5-0.2-1.1,0-1.3,0.4l-8.1,14
			c-0.3,0.5-0.1,1,0.3,1.4l7.2,5.5c0.3,0.2,0.4,0.6,0.4,0.9c0,0.2,0,0.4,0,0.5v2.2c0,0.2,0,0.4,0,0.5c0,0.4-0.1,0.7-0.4,0.9
			l-7.2,5.5c-0.4,0.3-0.5,0.9-0.3,1.4l8.1,14c0.3,0.5,0.8,0.6,1.3,0.4l8.4-3.5c0.3-0.1,0.7-0.1,1,0.1c0.5,0.3,0.9,0.6,1.4,0.9
			c0.5,0.3,1,0.5,1.5,0.8c0.4,0.1,0.6,0.5,0.6,0.8l1.1,9c0.1,0.5,0.5,0.9,1,0.9h16.2c0.5,0,1-0.4,1-0.9l1.1-9c0-0.4,0.3-0.7,0.6-0.8
			c0.5-0.2,1-0.5,1.4-0.8c0.5-0.3,1-0.6,1.4-0.9c0.3-0.2,0.7-0.2,1-0.1l8.3,3.5c0.5,0.2,1,0,1.3-0.4l8.1-14c0.3-0.5,0.1-1-0.3-1.4
			L282.6,71.3L282.6,71.3z M257.7,83c-7.9,0-14.2-6.4-14.2-14.2s6.4-14.2,14.2-14.2c7.9,0,14.2,6.4,14.2,14.2S265.5,83,257.7,83z"/>
		<path class="st3" d="M265.7,102h-16.2c-0.8,0-1.5-0.6-1.5-1.4l-1.1-9c0-0.2-0.1-0.4-0.3-0.4c-0.6-0.2-1.1-0.6-1.5-0.8
			c-0.5-0.3-1-0.6-1.4-0.9c-0.1-0.1-0.4-0.1-0.5-0.1l-8.4,3.5c-0.7,0.3-1.5,0-2-0.7l-8.1-14c-0.4-0.7-0.2-1.5,0.4-2l7.2-5.5
			c0.1-0.1,0.2-0.3,0.2-0.5c0-0.2,0-0.4,0-0.6v-2.2c0-0.2,0-0.4,0-0.6c0-0.2-0.1-0.4-0.2-0.5l-7.2-5.5c-0.6-0.5-0.8-1.3-0.4-2
			l8.1-14c0.4-0.7,1.2-0.9,2-0.6l8.4,3.5c0.2,0.1,0.4,0.1,0.5,0c0.5-0.3,1-0.6,1.4-0.9c0.5-0.3,1-0.6,1.5-0.8
			c0.1-0.1,0.3-0.2,0.3-0.4l1.1-9c0.1-0.8,0.8-1.3,1.5-1.3h16.2c0.8,0,1.5,0.6,1.5,1.4l1.1,9c0,0.2,0.1,0.3,0.3,0.4
			c0.6,0.3,1.1,0.5,1.5,0.8c0.5,0.3,1,0.6,1.4,0.9c0.2,0.1,0.3,0.1,0.5,0.1l8.4-3.5c0.7-0.3,1.5,0,1.9,0.6l8.1,14
			c0.4,0.7,0.2,1.5-0.4,2l-7.2,5.5c-0.1,0.1-0.2,0.3-0.2,0.5c0,0.1,0,0.4,0,0.6v2.2c0,0.2,0,0.4,0,0.6c0,0.2,0,0.4,0.2,0.5l7.2,5.4
			c0.6,0.5,0.8,1.4,0.4,2l-8.1,14c-0.4,0.7-1.2,1-2,0.7l-8.3-3.5c-0.2-0.1-0.4-0.1-0.5,0c-0.5,0.3-1,0.6-1.5,0.9
			c-0.5,0.3-1,0.6-1.5,0.8c-0.2,0.1-0.3,0.2-0.3,0.4l-1.1,9C267.2,101.5,266.5,102.1,265.7,102L265.7,102z M243.3,88.5
			c0.3,0,0.6,0.1,0.9,0.3c0.4,0.3,0.9,0.6,1.4,0.9c0.4,0.2,0.9,0.5,1.4,0.7c0.5,0.2,0.9,0.7,0.9,1.2l1.1,9c0,0.3,0.3,0.5,0.5,0.5
			h16.2c0.3,0,0.5-0.2,0.5-0.5l1.1-9c0-0.5,0.4-1,0.9-1.2c0.5-0.2,0.9-0.5,1.4-0.7c0.5-0.3,1-0.6,1.4-0.9c0.4-0.3,1-0.3,1.5-0.1
			l8.3,3.5c0.2,0.1,0.5,0,0.7-0.2l8.1-14c0.1-0.2,0.1-0.6-0.2-0.7l-7.2-5.4l0,0c-0.4-0.4-0.7-0.9-0.6-1.4c0-0.1,0-0.3,0-0.4v-2.2
			c0-0.2,0-0.3,0-0.5c0-0.6,0.2-1.1,0.6-1.4l7.2-5.5c0.2-0.2,0.3-0.5,0.1-0.7l-8.1-14c-0.1-0.2-0.4-0.3-0.7-0.2l-8.4,3.5
			c-0.5,0.2-1,0.2-1.5-0.1c-0.4-0.3-0.9-0.6-1.4-0.9c-0.4-0.3-0.9-0.5-1.4-0.7c-0.5-0.2-0.9-0.7-0.9-1.2l-1.1-9
			c0-0.3-0.3-0.5-0.5-0.5h-16.2c-0.3,0-0.5,0.2-0.5,0.5l-1.1,9c0,0.5-0.4,1-0.9,1.2c-0.5,0.2-1,0.5-1.4,0.7
			c-0.5,0.3-0.9,0.6-1.4,0.9c-0.5,0.3-1,0.4-1.5,0.1l-8.4-3.5c-0.2-0.1-0.6,0-0.7,0.2l-8.1,14c-0.1,0.2-0.1,0.5,0.1,0.7l7.2,5.5
			c0.4,0.3,0.7,0.8,0.6,1.4c0,0.1,0,0.3,0,0.5v2.2c0,0.2,0,0.3,0,0.5c0,0.5-0.2,1-0.6,1.4l-7.2,5.5c-0.2,0.2-0.3,0.5-0.1,0.7l8.1,14
			c0.1,0.2,0.4,0.3,0.7,0.2l8.4-3.5C242.9,88.5,243.1,88.5,243.3,88.5L243.3,88.5z M257.7,83.5c-8.1,0-14.7-6.6-14.7-14.7
			S249.5,54,257.7,54c8.1,0,14.7,6.6,14.7,14.7S265.8,83.5,257.7,83.5z M257.7,55c-7.6,0-13.7,6.2-13.7,13.7s6.2,13.7,13.7,13.7
			c7.6,0,13.7-6.2,13.7-13.7S265.2,55,257.7,55z"/>
	</g>
</g>
</svg>
