<svg transform="scale(1)" version="1.1" id="_x30_006_x5F_approval_x5F_5" xmlns="http://www.w3.org/2000/svg" xmlns:xlink="http://www.w3.org/1999/xlink" x="0px" y="0px" viewBox="0 0 500 500" xml:space="preserve" class="show_show__wrapper__graphic__5Waiy "><title>React</title><style type="text/css">
	.st0{fill:#F75454;}
	.st1{fill:#FFFFFF;}
	.st2{fill:#732A09;}
</style><g id="Form"><path class="st0" d="M178.3,118.2c-14.9,6.4-75.9,34.7-122.8,89c-1.8,2.1-1.9,5.1-0.2,7.3c18.1,22.4,115.1,141.7,158,170.8
		c2,1.4,4.7,1.3,6.6-0.2c14.6-11.3,76.2-59.5,108-92.6c2-2.1,2.1-5.3,0.3-7.5C310.6,263,222.2,154.2,184.4,119.2
		C182.8,117.7,180.4,117.3,178.3,118.2z"></path><path class="st1" d="M197,121.1c-14.9,6.4-75.9,34.7-122.8,89c-1.8,2.1-1.9,5.1-0.2,7.3c18.1,22.4,115,141.6,158,170.7
		c2,1.4,4.7,1.3,6.6-0.2c14.6-11.3,76.2-59.5,108-92.6c2-2.1,2.1-5.3,0.3-7.5c-17.7-21.9-106.1-130.6-143.9-165.6
		C201.4,120.6,199.1,120.2,197,121.1z"></path><path class="st2" d="M235.1,389.5c-1.2,0-2.4-0.4-3.4-1.1c-42.8-29-139.2-147.4-158.1-170.9c-1.9-2.3-1.8-5.7,0.2-7.9
		c46.4-53.7,105.9-81.8,123-89.1c2.2-1,4.8-0.5,6.6,1.2c37.9,35.1,126.6,144.1,143.9,165.6c1.9,2.4,1.8,5.9-0.4,8.2
		c-32.2,33.5-95.7,83.1-108.1,92.7C237.8,389.1,236.5,389.5,235.1,389.5z M199.2,121.1c-0.7,0-1.4,0.1-2,0.4l0,0
		c-17.1,7.3-76.4,35.3-122.6,88.8c-1.6,1.9-1.7,4.7-0.2,6.6c18.9,23.4,115.2,141.8,157.9,170.6c1.8,1.2,4.3,1.1,6-0.2
		c12.4-9.6,75.8-59.1,108-92.6c1.8-1.9,1.9-4.8,0.3-6.8c-17.4-21.5-106-130.5-143.8-165.5C201.8,121.6,200.5,121.1,199.2,121.1z
		 M197,121.1L197,121.1z"></path><ellipse class="st1" transform="matrix(0.7678 -0.6406 0.6406 0.7678 -149.7419 225.8936)" cx="236.8" cy="319.6" rx="26" ry="32.2"></ellipse><path class="st2" d="M242.9,349.9c-1.9,0-3.8-0.2-5.7-0.6c-16.7-3.9-28.7-18.4-29.6-35.5c-0.1-8,2.8-14.9,8.2-19.4
		s12.8-6.2,20.6-4.6c8.2,1.8,15.5,6.3,20.7,12.8c11.6,13.9,11.9,32.7,0.6,42.1C253.6,348.2,248.3,350,242.9,349.9z M230.7,290.2
		c-5.2-0.1-10.2,1.7-14.3,5l0,0c-5.2,4.3-8,11-7.9,18.6c0.9,16.6,12.6,30.7,28.8,34.5c7.5,1.5,14.5-0.1,19.7-4.4
		c10.8-9,10.4-27.2-0.8-40.7c-5.1-6.3-12.2-10.8-20.2-12.5C234.4,290.4,232.6,290.3,230.7,290.2z M216.1,294.8L216.1,294.8z"></path><path class="st0" d="M246,326.6h-0.1l-22.2-6.6c-0.3-0.1-0.4-0.4-0.4-0.6c0.1-0.3,0.4-0.4,0.6-0.4l21.6,6.4l6.4-47.2
		c0-0.3,0.3-0.5,0.6-0.4c0.3,0,0.5,0.3,0.4,0.6l-6.5,47.8c0,0.1-0.1,0.3-0.2,0.4C246.2,326.5,246.1,326.6,246,326.6z"></path><path class="st1" d="M209.9,201.4c0,0.9,0,1.9-0.1,2.8c0,0.3,0,0.5-0.1,0.8c-1.6,15-13.2,27.2-28.5,30.6c-4.6,1-9.3,1.2-13.9,0.5
		c-3.9-0.5-7.6-1.7-11.1-3.4c-12.1-5.8-20.3-17.6-20.3-31.3c0-2.7,0.3-5.3,0.9-7.9c2.5-9.7,8.9-17.8,17.7-22.5
		c5.7-3.1,12-4.6,18.4-4.6c0.7,0,1.5,0,2.2,0.1c1.1,0.1,2.3,0.2,3.4,0.3c12.5,1.6,23.3,9.6,28.6,21
		C208.9,192.1,209.9,196.7,209.9,201.4z"></path><path class="st2" d="M172.8,236.9c-1.9,0-3.8-0.1-5.6-0.4c-3.9-0.6-7.7-1.7-11.3-3.4c-12.7-6.1-20.6-18.2-20.6-31.7
		c0-2.7,0.3-5.4,1-8c2.5-9.8,9-18.1,17.9-22.8c5.7-3.1,12.1-4.7,18.6-4.7c0.7,0,1.5,0,2.2,0.1c1.2,0.1,2.3,0.2,3.4,0.4
		c12.8,1.8,23.9,9.9,29,21.2c2,4.3,3,9.1,3,13.8c0,1.1,0,2-0.1,2.8c0,0.3,0,0.5-0.1,0.8c-1.6,15.1-13.2,27.6-28.9,31
		C178.6,236.7,175.7,236.9,172.8,236.9z M172.8,166.9c-6.3,0-12.6,1.6-18.2,4.6c-8.7,4.6-15,12.7-17.4,22.2
		c-0.6,2.5-0.9,5.2-0.9,7.8c0,13.1,7.7,24.9,20.1,30.8c3.5,1.7,7.2,2.8,11,3.3c4.6,0.6,9.2,0.5,13.8-0.5
		c15.2-3.3,26.5-15.4,28.1-30.1c0-0.2,0.1-0.5,0.1-0.8c0.1-0.8,0.1-1.7,0.1-2.8c0-4.6-1-9.2-2.9-13.4c-4.9-11-15.7-18.9-28.2-20.7
		c-1-0.2-2.2-0.3-3.3-0.3C174.3,167,173.6,166.9,172.8,166.9L172.8,166.9z"></path><path class="st1" d="M155,199.3c0,0-5.4,5.2-11.9,2.2s-11.6-16.3-1.9-27s18.7-0.7,17.9,5S155,199.3,155,199.3z"></path><path class="st2" d="M147.3,202.9c-1.5,0-3-0.3-4.4-1c-3.4-1.6-6.2-5.7-7.2-10.4c-0.7-3.6-1-10.5,5.1-17.4
		c5.5-6.1,10.4-5.2,12.8-4.1c4.1,1.9,6.4,6.4,6,9.5c-0.8,5.6-4,19.7-4.1,19.9c0,0.1-0.1,0.2-0.1,0.2
		C153.1,201.6,150.3,202.8,147.3,202.9z M149.9,170.2c-2.8,0-5.7,1.6-8.4,4.6c-5.8,6.5-5.6,13.1-4.9,16.5c0.9,4.4,3.5,8.3,6.6,9.7
		c5.7,2.6,10.5-1.3,11.3-2c0.4-1.6,3.3-14.3,4-19.6c0.4-2.7-1.8-6.8-5.4-8.5C152.2,170.4,151,170.2,149.9,170.2z M155,199.3
		L155,199.3z"></path><path class="st1" d="M156.1,232.7c0.1-0.4,0-0.8-0.1-1.2c-0.6-1-1.9-1.6-3.8-6.9s2.2-9.2,2.6-9.9s-0.2-1.3-1.1-5.3
		c-0.6-2.6,1.2-5.3,2.4-6.7c0.4-0.4,0.8-0.8,1.2-1.2l6.6-3.2l12.1-6l6.5-3.2l2.8-1.4l2.2-1.1l2.9-1.4l0.6-0.2c4.1-1.3,7,2,8.1,2.4
		c0.8,0.3,4.5-1.1,7.7,0.6c1.1,0.6,2,1.4,2.6,2.4c2.6,3.9,3.9,9.2,0.2,14c-0.2,0.3-0.5,0.6-0.7,0.9c-1.1,1.2-2.3,2.2-3.6,3
		l-24.2,27.5"></path><path class="st2" d="M181.2,236c-0.1,0-0.2,0-0.3-0.1c-0.2-0.2-0.2-0.5,0-0.7l24.2-27.5c0,0,0.1-0.1,0.1-0.1
		c1.3-0.8,2.5-1.8,3.5-2.9c0.2-0.3,0.5-0.5,0.7-0.8c4.3-5.5,1.3-11.2-0.2-13.4c-0.6-1-1.5-1.7-2.5-2.2c-2.1-1.1-4.4-0.8-5.9-0.6
		c-0.6,0.1-1.1,0.1-1.7,0c-0.4-0.2-0.8-0.4-1.1-0.6c-1.4-1-3.7-2.6-6.7-1.7l-0.6,0.2l-33,16.3c-0.4,0.4-0.8,0.7-1.1,1.1
		c-1.1,1.3-2.9,3.8-2.3,6.3c0.4,1.6,0.7,2.6,0.9,3.4c0.4,1.1,0.5,1.7,0.1,2.3c-0.1,0.1-0.2,0.2-0.4,0.4c-1.1,1.3-3.8,4.6-2.2,9
		c1.4,3.8,2.4,5.1,3.2,6c0.2,0.3,0.5,0.6,0.6,0.9c0.2,0.5,0.2,1,0.1,1.5c0,0.3-0.2,0.5-0.5,0.5c0,0,0,0,0,0c-0.3,0-0.5-0.2-0.5-0.5
		c0,0,0,0,0,0c0-0.3,0-0.7,0-1c-0.2-0.3-0.3-0.5-0.5-0.7c-0.8-0.9-1.9-2.3-3.3-6.3c-1.8-4.9,1.4-8.7,2.4-10l0.3-0.4
		c0.1-0.2,0.1-0.4-0.2-1.4c-0.2-0.7-0.6-1.8-0.9-3.5c-0.6-2.9,1.3-5.7,2.5-7.2c0.4-0.5,0.8-0.9,1.2-1.3l0.1-0.1l33.1-16.3
		c0.3-0.1,0.5-0.2,0.7-0.3c3.4-1.1,6.1,0.8,7.6,1.8c0.3,0.2,0.5,0.4,0.9,0.5c0.4,0,0.8,0,1.2-0.1c1.6-0.2,4.2-0.5,6.5,0.7
		c1.1,0.6,2.1,1.5,2.7,2.6c1.6,2.4,4.8,8.6,0.1,14.6c-0.2,0.3-0.5,0.6-0.8,0.9c-1.1,1.2-2.3,2.2-3.6,3l-24.2,27.5
		C181.5,235.9,181.3,236,181.2,236z"></path><path class="st1" d="M159.3,204.8c-4.4-1.7-9-9.4-5.9-19.9s16.4-14.5,16.4-14.5c1.6-3.9,7.4-6.2,13.3-0.7c3.5,3.3,5.7,7.8,6.2,12.6
		L159.3,204.8z"></path><path class="st2" d="M159.3,205.3h-0.2c-4.4-1.7-9.5-9.4-6.2-20.5c3-10,14.7-14.2,16.5-14.8c0.9-2,2.7-3.4,4.9-3.9
		c3-0.6,6.2,0.5,9.1,3.2c3.7,3.4,5.9,8,6.4,13c0,0.2-0.1,0.3-0.2,0.4l-30,22.6C159.5,205.3,159.4,205.3,159.3,205.3z M175.9,166.9
		c-0.5,0-1,0-1.4,0.1c-1.9,0.4-3.5,1.7-4.3,3.5c-0.1,0.1-0.2,0.3-0.3,0.3c-0.1,0-13.1,4.1-16.1,14.2c-2.9,9.8,1.2,17.4,5.4,19.2
		l29.5-22.3c-0.5-4.6-2.6-8.8-6-12C180.9,168.2,178.5,167.1,175.9,166.9L175.9,166.9z"></path><path class="st0" d="M209.7,205c-1.6,15-13.2,27.2-28.5,30.6c-4.6,1-9.3,1.2-13.9,0.5c2-6.8,5.8-12.9,10.9-17.9
		c0.4-0.4,0.8-0.7,1.2-1l9.5-7.8c6.5-2.2,13.3-3.6,20.2-4.4L209.7,205z"></path><path class="st1" d="M170.9,208.1c3.9,5,8,11.2,8,11.2s5.1,3.5,10.2-0.2s1.7-7.9,1-8.7s-3.8-2.9-4.6-3.7S170.9,208.1,170.9,208.1z"></path><path class="st2" d="M184.1,221.3c-1.9,0-3.8-0.6-5.4-1.6c-0.1,0-0.1-0.1-0.1-0.1c0-0.1-4.1-6.2-8-11.2c-0.1-0.1-0.1-0.3-0.1-0.5
		c0.1-0.2,0.2-0.3,0.4-0.3c5.2-0.9,14-2.1,15-1.3c0.3,0.3,1.1,0.9,1.8,1.4c1,0.7,2,1.5,2.9,2.3c1.3,1.4,1.9,3.2,1.9,5
		c-0.3,1.8-1.4,3.5-2.9,4.4C187.9,220.7,186,221.3,184.1,221.3z M179.3,219c2.9,1.9,6.7,1.8,9.5-0.2c1.3-0.8,2.3-2.2,2.5-3.7
		c0-1.6-0.5-3.1-1.6-4.2c-0.9-0.8-1.8-1.5-2.7-2.2c-0.8-0.6-1.5-1.1-1.9-1.5c-0.7-0.3-7.2,0.4-13.3,1.4
		C175.3,213,178.8,218.2,179.3,219z"></path><path class="st1" d="M184.2,177c0,0,13.1,11.5,10.7,20.6s-17.6,16.5-27.4,9.4c0,0-1,5-5.5,2.9s-3.5-7.7,1.5-8.2
		c0,0-0.8-4.7,5.1-11.4c3.4-3.8,5.8-8.4,6.9-13.3C175.5,177,178.2,178.8,184.2,177z"></path><path class="st2" d="M164.1,210.9c-0.8,0-1.5-0.2-2.2-0.6c-2.1-0.8-3.4-2.9-3.1-5.2c0.4-2.1,2.2-3.7,4.3-3.9
		c0-1.4,0.3-5.7,5.2-11.2c3.3-3.7,5.7-8.2,6.8-13.1c0-0.2,0.1-0.3,0.3-0.4c0.1-0.1,0.3-0.1,0.5,0c0,0,2.6,1.6,8.3-0.1
		c0.2,0,0.3,0,0.5,0.1c0.5,0.5,13.3,11.8,10.9,21.1c-1.3,4.8-5.9,9.3-11.9,11.4c-5.6,2-11.3,1.5-15.6-1.3c-0.4,1.2-1.1,2.2-2.2,2.8
		C165.2,210.8,164.6,210.9,164.1,210.9z M175.8,177.7c-1.2,4.8-3.6,9.2-6.8,12.9c-5.6,6.3-5,10.9-5,10.9c0,0.1,0,0.3-0.1,0.4
		c-0.1,0.1-0.2,0.2-0.4,0.2c-1.9,0-3.5,1.3-3.9,3.2c-0.2,1.8,0.8,3.5,2.5,4.1c0.9,0.5,2,0.6,2.9,0.2c1-0.6,1.6-1.6,1.9-2.8
		c0-0.2,0.2-0.3,0.3-0.4c0.2-0.1,0.3,0,0.5,0.1c4.1,3,9.7,3.6,15.3,1.6s10.1-6.2,11.3-10.7c2.1-8.1-8.7-18.4-10.4-19.9
		C179.7,178.8,177,178.2,175.8,177.7L175.8,177.7z"></path><path class="st2" d="M175.2,191.4c-0.7,0.4-1.7,1-2.4,1.4s-1.5,1-2.3,1.6c-0.2,0.1-0.6,0.1-0.7-0.2c-0.1-0.1-0.1-0.3,0-0.5
		c1-2,3-3.3,5.3-3.3c0.3,0,0.5,0.2,0.5,0.5C175.6,191.1,175.4,191.3,175.2,191.4L175.2,191.4z"></path><path class="st2" d="M186.4,182c-1.5,1.2-3.4,3-5,4.1c-0.2,0.2-0.6,0.1-0.7-0.1c-0.1-0.2-0.1-0.4,0-0.5c0.6-1,1.3-2,2.2-2.7
		c0.6-0.5,3.4-2.5,3.8-1.3C186.7,181.7,186.6,181.9,186.4,182L186.4,182z"></path><path class="st2" d="M185.6,194.4c-0.9,0-1.8-0.4-2.2-1.2c-0.1-0.2-0.1-0.5,0.2-0.7c0.2-0.1,0.5-0.1,0.7,0.2
		c0.5,0.7,1.5,0.9,2.3,0.5c0.5-0.2,0.8-0.9,0.5-1.4c0,0,0-0.1,0-0.1c-0.1-0.3-0.3-0.5-0.6-0.6c-0.7-0.1-1.5,0.1-2.1,0.5
		c-0.2,0.1-0.5,0.1-0.7-0.1c-1.2-1.7-2.2-3.5-3-5.4c-0.1-0.3,0-0.5,0.3-0.7c0.3-0.1,0.5,0,0.7,0.3c0.8,1.7,1.7,3.3,2.7,4.9
		c0.8-0.4,1.7-0.6,2.5-0.4c0.5,0.2,1,0.6,1.2,1.2c0.5,1,0.1,2.3-1,2.8c0,0,0,0,0,0C186.5,194.2,186,194.4,185.6,194.4z"></path><path class="st2" d="M174.4,196.1c0.6,0.8,1.6,1.1,2.1,0.6s0.5-1.4-0.2-2.2c-0.2-0.2-0.4-0.4-0.6-0.6l-0.5,1.3l-0.5-1.5
		c-0.2,0-0.3,0.1-0.5,0.2C173.7,194.6,173.8,195.6,174.4,196.1z"></path><path class="st2" d="M185.2,187.4c0.6,0.8,1.6,1.1,2.1,0.6s0.5-1.4-0.2-2.2c-0.2-0.2-0.4-0.4-0.6-0.6l-0.5,1.3l-0.5-1.5
		c-0.2,0-0.3,0.1-0.5,0.2C184.5,185.8,184.6,186.8,185.2,187.4z"></path><path class="st2" d="M184.3,201.1c-0.8,0-1.6-0.3-2.2-0.8c-0.2-0.2-0.3-0.5-0.1-0.7c0.2-0.2,0.5-0.3,0.7-0.1c0,0,0,0,0.1,0.1
		c0.6,0.5,1.4,0.7,2.1,0.5c0.9-0.4,1.5-1.3,1.7-2.3c0.1-0.3,0.3-0.4,0.6-0.4c0.3,0.1,0.4,0.3,0.4,0.6c-0.2,1.3-1.1,2.5-2.3,3
		C184.9,201,184.6,201.1,184.3,201.1z"></path><path class="st2" d="M161.3,207.6c-0.2,0-0.4-0.2-0.5-0.4c-0.3-0.8-0.1-1.7,0.3-2.4c0.6-0.8,1.5-1.4,2.5-1.5c0.3,0,0.5,0.1,0.6,0.4
		s-0.1,0.5-0.4,0.6c-0.7,0.1-1.4,0.5-1.9,1.1c-0.3,0.5-0.3,1-0.2,1.6c0.1,0.3-0.1,0.5-0.4,0.6H161.3z"></path><path class="st2" d="M164.2,208.5c-0.5,0-1-0.2-1.4-0.4c-1-0.7-1.6-1.7-1.9-2.8c0-0.3,0.2-0.5,0.4-0.6c0.3,0,0.5,0.2,0.6,0.4
		c0.2,0.8,0.7,1.6,1.4,2.1c0.3,0.3,0.8,0.3,1.2,0.2c0.3-0.1,0.6,0.1,0.6,0.4c0.1,0.3-0.1,0.6-0.3,0.6
		C164.7,208.5,164.5,208.5,164.2,208.5z"></path><path class="st2" d="M172.8,236.9c-1.9,0-3.8-0.1-5.6-0.4c-3.9-0.6-7.7-1.7-11.3-3.4c-2-0.9-3.9-2.1-5.7-3.3
		c-0.2-0.2-0.3-0.5-0.1-0.7c0.2-0.2,0.5-0.3,0.7-0.1c0,0,0,0,0,0c4.9,3.5,10.5,5.7,16.5,6.6c4.6,0.6,9.2,0.5,13.8-0.5
		c15.2-3.3,26.5-15.4,28.1-30.1c0-0.3,0.3-0.5,0.6-0.4c0.3,0,0.5,0.3,0.5,0.5c0,0,0,0,0,0c-1.6,15.1-13.2,27.6-28.9,31
		C178.5,236.6,175.7,236.9,172.8,236.9z"></path><path class="st0" d="M155.3,271.5c-0.2,0-0.3-0.1-0.4-0.2c-0.2-0.2-0.1-0.5,0.1-0.7l92-73.2c0.2-0.2,0.5-0.1,0.7,0.1
		c0.1,0.2,0.1,0.5-0.1,0.6l-92,73.2C155.6,271.5,155.4,271.5,155.3,271.5z"></path><path class="st0" d="M172.6,289c-0.2,0-0.3-0.1-0.4-0.2c-0.2-0.2-0.1-0.5,0.1-0.7l92-73.2c0.2-0.2,0.5-0.2,0.7,0
		c0.2,0.2,0.2,0.5,0,0.7c0,0,0,0-0.1,0.1l-92,73.2C172.8,289,172.7,289,172.6,289z"></path></g><g id="hand-stamp"><path class="st0" d="M379.7,262.1l44.1,41.1c0,0-18.2,44.8-62.7,53.6l-37.2-47.4L379.7,262.1z"></path><path class="st0" d="M329.1,296.4c-9.4,8.3-7.5,14.8,0,14.3c3.7-0.2,7.4-0.6,11.1-1.4l2.1-11.9L329.1,296.4z"></path><path class="st2" d="M328.3,311.3c-2.8,0-4.9-1-5.7-3c-1.3-3.1,1-7.7,6.2-12.3c0.1-0.1,0.2-0.1,0.4-0.1l13.2,1
		c0.3,0,0.5,0.2,0.5,0.5c0,0,0,0,0,0.1l-2.1,11.9c0,0.2-0.2,0.3-0.4,0.4c-3.7,0.7-7.4,1.2-11.2,1.4L328.3,311.3z M329.3,297
		c-5.5,5-6.6,8.9-5.8,11c0.7,1.7,2.7,2.5,5.6,2.3c3.6-0.2,7.2-0.6,10.7-1.3l1.9-11L329.3,297z"></path><path class="st0" d="M361.1,268.6c16.1-9.9,25.8-10.8,18.6,8.3S361.1,268.6,361.1,268.6z"></path><path class="st2" d="M373.6,284.1c-6.4,0-12.7-14.7-12.9-15.3c-0.1-0.2,0-0.5,0.2-0.6c10.5-6.5,17.1-8.4,20.1-6
		c2.5,2,2.2,6.9-0.8,14.8C378.4,281.7,376.2,284,373.6,284.1L373.6,284.1z M361.8,268.8c1,2.3,6.6,14.3,11.8,14.3h0.1
		c2.1,0,4-2.2,5.6-6.4c2.8-7.4,3.1-12,1-13.7C378.6,261.5,373.9,261.4,361.8,268.8z"></path><path class="st0" d="M245.6,253.7c0,0-15,8.9-15,14.7s0,23.2,18.9,38.7s34,9.9,41.5,5s10.1-14.9,9.4-23.2S245.6,253.7,245.6,253.7z
		"></path><path class="st2" d="M274.2,317.7c-7.1,0-15.6-2.5-25.1-10.2c-19.1-15.7-19.1-33.3-19.1-39.1c0-6.1,14.6-14.8,15.2-15.1
		c0.1-0.1,0.3-0.1,0.5,0c2.2,1.1,54.3,27.2,55.1,35.7c0.7,7.6-1.5,18.3-9.6,23.6C286.2,315.9,280.3,317.6,274.2,317.7z M245.6,254.2
		c-1.9,1.1-14.5,9-14.5,14.1c0,5.7,0,22.9,18.8,38.3s33.7,9.7,40.9,5c7.8-5,9.8-15.4,9.1-22.7C299.3,282.5,260.7,261.8,245.6,254.2
		L245.6,254.2z"></path><path class="st1" d="M274,256.1c0,0-14.2-10.3-26.7-3.6c-12.5,6.6-1.1,33.8,19.1,46.1s37.8-2.7,33.2-13.8S274,256.1,274,256.1z"></path><path class="st2" d="M281.5,303.7c-5.4-0.1-10.8-1.7-15.3-4.7c-13.9-8.5-24.9-25.1-24.5-37.1c0.1-4.6,2-8,5.5-9.9
		c5.2-2.8,11.6-3,18.4-0.7c3.1,1,6.1,2.5,8.8,4.4l0,0c0.9,0.7,21.1,17.9,25.7,28.9c1.9,4.6,0.2,10.1-4.5,14.1
		C291.6,302,286.6,303.7,281.5,303.7z M256.5,250.7c-3.1,0-6.2,0.7-9,2.2c-3.1,1.6-4.8,4.8-5,9c-0.3,10.2,8.8,26.9,24.1,36.2
		c12.1,7.4,22.8,4.5,28.3-0.2c4.3-3.7,5.9-8.8,4.2-12.9c-4.5-10.6-24.8-28-25.4-28.5C273.3,256.2,265.5,250.7,256.5,250.7
		L256.5,250.7z"></path><path class="st0" d="M327.6,203.8c-2-6.2-2.6-10.3,0-13.7s9.9-7,9.9-7l25.5,35.8c0,0-3.4,5.6-5.9,6.6s-6.4,0-6.4,0l-9.2,0.4
		l-10.5-7.7L327.6,203.8z"></path><path class="st2" d="M341.5,226.4c-0.1,0-0.2,0-0.3-0.1l-10.5-7.7c-0.1-0.1-0.2-0.2-0.2-0.3l-3.4-14.3c-2-6.4-2.6-10.6,0.1-14.1
		s9.8-7,10.1-7.2c0.2-0.1,0.5,0,0.6,0.2l25.5,35.8c0.1,0.2,0.1,0.4,0,0.5c-0.1,0.2-3.5,5.8-6.2,6.8c-2.5,0.9-6.1,0.2-6.6,0
		L341.5,226.4L341.5,226.4z M350.7,225h0.1c0,0,3.7,0.9,6.1,0c1.9-0.7,4.5-4.4,5.5-6.1l-25.1-35.2c-1.5,0.8-7.2,3.8-9.4,6.7
		c-2.4,3.2-1.9,7.2,0.1,13.3l0,0l3.4,14.2l10.2,7.5L350.7,225L350.7,225z"></path><path class="st1" d="M342.3,233.7l8.4-8.3c0,0-17.5-4.2-23.1-21.7L310.2,223l-42.1,38c-2,1.8-3.2,4.3-3.4,7
		c-0.1,3.2,0.8,7.3,5.4,11.2c4.1,3.6,9.5,5.1,14.9,4.3c1.9-0.3,3.7-1.2,5.2-2.5L342.3,233.7z"></path><path class="st2" d="M282.3,284.3c-4.5,0-8.9-1.7-12.4-4.6c-4.9-4-5.8-8.5-5.6-11.6c0.1-2.8,1.4-5.5,3.5-7.4l42.1-38l17.3-19.2
		c0.1-0.1,0.3-0.2,0.5-0.1c0.2,0,0.3,0.2,0.4,0.3c5.5,17.1,22.6,21.3,22.8,21.4c0.2,0,0.3,0.2,0.4,0.4c0,0.2,0,0.4-0.1,0.5l-8.4,8.3
		l0,0l-52,47.3c-1.5,1.4-3.4,2.3-5.4,2.6C284.2,284.2,283.2,284.3,282.3,284.3z M327.4,204.8l-16.8,18.6l-42.1,38
		c-1.9,1.7-3.1,4.1-3.2,6.7c-0.2,4.1,1.6,7.7,5.3,10.8c4,3.5,9.3,5,14.5,4.2c1.8-0.3,3.6-1.1,4.9-2.4l52-47.2l7.8-7.7
		C346.2,224.6,332.6,219.5,327.4,204.8L327.4,204.8z M342.3,233.8L342.3,233.8z"></path><path class="st1" d="M276.8,240.5c-7.2,0-6.6,9.2-2.8,15.5c3.8,6.3,14.2,13,22,9.9s-0.7-11.3-0.7-11.3L276.8,240.5z"></path><path class="st2" d="M291.8,267.3c-7.2,0-15-5.7-18.2-11c-2.5-4.1-3.9-10-1.9-13.6c1.1-1.8,3-2.9,5.1-2.7c0.1,0,0.2,0,0.3,0.1
		l18.4,14.1c0.2,0.2,4.8,4.8,4.1,8.6c-0.3,1.6-1.5,2.8-3.5,3.6C294.8,267,293.3,267.3,291.8,267.3z M276.7,241
		c-1.7-0.1-3.3,0.8-4.1,2.2c-1.6,2.8-0.8,8.1,1.9,12.6c3.6,6,13.7,12.8,21.4,9.7c1.7-0.7,2.6-1.6,2.9-2.9c0.6-3.3-3.7-7.6-3.8-7.6
		L276.7,241z"></path><path class="st1" d="M284,231c-6.8-0.9-11,2.5-7.7,13s17.6,20.2,24.2,16.9s1.9-10.7,1.9-10.7L284,231z"></path><path class="st2" d="M297.3,262.1c-2-0.1-3.9-0.5-5.7-1.3c-6.1-2.6-13.5-9.1-15.9-16.6c-1.7-5.3-1.5-9.2,0.4-11.5
		c1.6-1.9,4.3-2.6,7.9-2.1c0.1,0,0.2,0.1,0.3,0.1l18.3,19.2c0.2,0.2,2.5,4,1.5,7.5c-0.5,1.8-1.9,3.3-3.6,4
		C299.6,261.8,298.5,262.1,297.3,262.1z M282,231.4c-1.9-0.1-3.8,0.6-5.1,1.9c-1.7,2-1.8,5.6-0.2,10.6c2.3,7.2,9.4,13.5,15.3,16
		c3.3,1.4,6.2,1.6,8.2,0.6c1.5-0.6,2.6-1.9,3-3.4c0.9-3.1-1.4-6.6-1.4-6.6l-18.1-19C283.2,231.4,282.6,231.4,282,231.4z"></path><path class="st1" d="M291.1,221.6c-8.7-0.1-10.6,4.6-9.1,11.1s12.1,21,20.3,21.9s7.5-10,5.5-14.1S291.1,221.6,291.1,221.6z"></path><path class="st2" d="M303.3,255.2c-0.3,0-0.7,0-1-0.1c-8.5-1-19.3-15.8-20.8-22.3c-0.9-3.9-0.5-6.8,1.1-8.8s4.5-3,8.6-3
		c0.1,0,0.3,0.1,0.4,0.1c0.6,0.6,14.7,15,16.8,19.1c1.5,3,2.2,9.2-0.1,12.5C307,254.4,305.2,255.3,303.3,255.2z M290.8,222.1
		c-3.6,0-6.1,0.9-7.5,2.6s-1.7,4.4-0.9,7.9c1.5,6.3,11.8,20.6,19.9,21.5c1.9,0.4,3.8-0.3,4.9-1.9c2.1-2.9,1.4-8.7,0-11.5
		C305.5,237,292.4,223.6,290.8,222.1L290.8,222.1z"></path><path class="st1" d="M311.8,221.8c0,0-12.8-14.3-19.7-9.8s0.1,21.7,6.6,26.8c8.4,6.5,18.8,4.5,16.4-2.4s-5.7-5.8-9.5-9.7
		L311.8,221.8z"></path><path class="st2" d="M309.2,243.2c-4-0.1-7.8-1.6-10.8-4.1c-4.7-3.7-10-13.7-9.7-21.1c0.1-3,1.2-5.2,3.1-6.5
		c7.2-4.8,19.8,9.3,20.4,9.9c0.1,0.1,0.1,0.2,0.1,0.4c0,0.1-0.1,0.3-0.2,0.4l-5.7,4.6c1,0.9,2.1,1.7,3.3,2.3
		c2.2,1.3,4.3,2.5,5.9,7.1c0.8,2.4,0.3,4.4-1.5,5.7C312.6,242.9,310.9,243.3,309.2,243.2z M295.2,211.6c-1,0-2,0.3-2.9,0.8
		c-1.6,1.1-2.5,3-2.6,5.7c-0.3,7,4.9,16.8,9.3,20.3c5.5,4.3,11.6,4.7,14.5,2.7c1.4-1,1.8-2.6,1.2-4.6c-1.5-4.3-3.3-5.4-5.4-6.6
		c-1.4-0.8-2.8-1.7-3.9-2.9c-0.1-0.1-0.1-0.2-0.1-0.4c0-0.1,0.1-0.3,0.2-0.4l5.7-4.6C309.2,219.9,301.2,211.6,295.2,211.6
		L295.2,211.6z"></path><path class="st2" d="M305.6,227.2c-0.1,0-0.2,0-0.3-0.1c-2.4-2.2-4.5-4.7-6.1-7.6c-0.2-0.2-0.1-0.5,0.1-0.7s0.5-0.1,0.7,0.1
		c0,0,0,0.1,0.1,0.1c1.5,2.7,3.5,5.2,5.9,7.3c0.2,0.2,0.2,0.5,0.1,0.7C305.9,227.2,305.8,227.3,305.6,227.2L305.6,227.2z"></path><path class="st1" d="M379.7,276.9c-14.8-7.6-23-21.6-29.2-30.7s-8.2-12.5-8.2-12.5l-5.8,5.1c0,0-13-40.3-22-38.9
		s-3.9,28.6,3.5,55.1l-24.5,23c0,0,7.6,11.3,20.8,15s25.9,16.3,25.9,16.3S372.9,301.6,379.7,276.9z"></path><path class="st2" d="M340.2,309.9c-0.1,0-0.3,0-0.4-0.1c-0.1-0.1-12.8-12.5-25.7-16.1c-13.2-3.7-21-15.1-21.1-15.2
		c-0.1-0.2-0.1-0.5,0.1-0.6l24.3-22.8c-8.1-29.2-10.3-47.1-6.4-53.2c0.7-1.2,2-2.1,3.4-2.3c8.8-1.4,20.5,32.9,22.3,38.5l5.3-4.6
		c0.1-0.1,0.3-0.1,0.4-0.1c0.1,0,0.3,0.1,0.4,0.2c0,0,2.1,3.5,8.1,12.4c0.7,0.9,1.3,1.9,2,2.9c5.9,8.8,13.9,20.8,27.1,27.6
		c0.2,0.1,0.3,0.3,0.2,0.6c-6.8,24.7-39.5,32.8-39.9,32.9L340.2,309.9z M294.2,278.2c1.4,1.9,8.7,11.2,20.3,14.5
		c12.2,3.4,24.2,14.6,25.9,16.2c3.1-0.8,32.2-9,38.8-31.7c-13.2-6.9-21.2-18.9-27.1-27.7l-2-2.9c-4.8-7-7.1-10.7-7.9-12l-5.4,4.7
		c-0.2,0.2-0.5,0.2-0.7,0c-0.1-0.1-0.1-0.1-0.1-0.2c-3.6-11.1-14.4-39.6-21.5-38.6c-1.1,0.2-2.1,0.9-2.7,1.9
		c-3.7,5.8-1.4,24,6.6,52.7c0.1,0.2,0,0.4-0.1,0.5L294.2,278.2z"></path><path class="st2" d="M339.7,249.6c-0.2,0-0.4-0.1-0.5-0.4L336,239c-0.1-0.3,0.1-0.6,0.4-0.6c0.3-0.1,0.6,0.1,0.6,0.3l0,0l3.2,10.3
		c0.1,0.3-0.1,0.5-0.3,0.6L339.7,249.6z"></path><path class="st1" d="M338.8,182.3c-7.4,3.3-2.5,15.6,5.9,25.2s21,18.8,20.2,4.6S351,177.8,338.8,182.3z"></path><path class="st2" d="M361.2,220c-4.6,0-11.7-6.2-16.8-12.1c-6.9-7.9-10.6-16.3-9.4-21.4c0.4-2,1.8-3.8,3.7-4.6l0,0
		c3.6-1.3,7.5-0.7,11.3,1.8c7.9,5.1,14.8,17.9,15.5,28.4c0.2,4.2-0.6,6.8-2.7,7.6C362.2,219.9,361.7,220,361.2,220z M339,182.8
		c-1.6,0.7-2.8,2.1-3.1,3.9c-1,4.8,2.6,13.1,9.2,20.6c5.8,6.6,13.6,13,17.2,11.5c1.6-0.7,2.3-2.9,2.1-6.6
		c-0.6-10.3-7.4-22.7-15-27.6C345.8,182.1,342.3,181.6,339,182.8z"></path></g><g id="clip"><path class="st2" d="M156.2,159.5c-1,0-2-0.2-2.9-0.6c-1.7-0.8-3.1-2.2-3.7-4l-7.4-20.4c-0.6-1.8,0.2-3.7,1.8-4.6
		c1.8-1,4.1-0.3,5,1.5c0.1,0.1,0.1,0.3,0.2,0.5l6.6,18.1c0.1,0.3-0.1,0.5-0.3,0.6c-0.3,0.1-0.5,0-0.6-0.3l-6.6-18.1
		c-0.5-1.4-2.1-2.1-3.5-1.6c-0.1,0-0.2,0.1-0.3,0.2c-1.2,0.6-1.7,2.1-1.3,3.4l7.4,20.4c1.1,3.1,4.6,4.7,7.7,3.6c0.1,0,0.1,0,0.2-0.1
		c1.5-0.6,2.7-1.8,3.3-3.3c0.6-1.5,0.6-3.2,0-4.6l-10.6-24.8c-2.1-4.8-7.7-7.1-12.6-5c-4.6,2-6.9,7.3-5.2,12l2.9,7.8
		c0.1,0.3,0,0.5-0.3,0.6c-0.3,0.1-0.5,0-0.6-0.3c0,0,0,0,0,0l-2.9-7.8c-2-5.5,0.8-11.6,6.3-13.6c5.3-1.9,11.1,0.6,13.3,5.8
		l10.6,24.9c0.7,1.7,0.7,3.7,0,5.4c-0.7,1.7-2.1,3.1-3.9,3.8C158,159.4,157.1,159.5,156.2,159.5z"></path></g></svg>