<svg transform="scale(1)" id="_0790_Designer" xmlns="http://www.w3.org/2000/svg" viewBox="0 0 500 500" class="show_show__wrapper__graphic__5Waiy "><title>React</title><g id="table"><rect x="63.88" y="238.44" width="85.72" height="201.11" transform="translate(213.48 678) rotate(180)" fill="#732a09" stroke-width="0"></rect><path d="M149.6,440.05H63.88c-.28,0-.5-.22-.5-.5v-201.11c0-.28.22-.5.5-.5h85.72c.28,0,.5.22.5.5v201.11c0,.28-.22.5-.5.5ZM64.38,439.05h84.72v-200.11h-84.72v200.11Z" fill="#732a09" stroke-width="0"></path><polygon points="382.8 238.44 382.8 439.55 367.22 439.55 367.22 250 78.61 250 78.61 439.55 63.03 439.55 63.03 238.44 382.8 238.44" fill="#fff" stroke-width="0"></polygon><path d="M382.8,440.05h-15.58c-.28,0-.5-.22-.5-.5v-189.05H79.11v189.05c0,.28-.22.5-.5.5h-15.58c-.28,0-.5-.22-.5-.5v-201.11c0-.28.22-.5.5-.5h319.77c.28,0,.5.22.5.5v201.11c0,.28-.22.5-.5.5ZM367.72,439.05h14.58v-200.11H63.53v200.11h14.58v-189.05c0-.28.22-.5.5-.5h288.61c.28,0,.5.22.5.5v189.05Z" fill="#732a09" stroke-width="0"></path><rect x="382.8" y="238.44" width="85.72" height="201.11" transform="translate(851.33 678) rotate(180)" fill="#732a09" stroke-width="0"></rect><path d="M468.53,440.05h-85.72c-.28,0-.5-.22-.5-.5v-201.11c0-.28.22-.5.5-.5h85.72c.28,0,.5.22.5.5v201.11c0,.28-.22.5-.5.5ZM383.3,439.05h84.72v-200.11h-84.72v200.11Z" fill="#732a09" stroke-width="0"></path></g><g id="tablet"><polygon points="396.16 149.34 322.67 230.91 129.13 230.91 224.55 147.41 396.16 149.34" fill="#732a09" stroke-width="0"></polygon><path d="M322.67,231.41h-193.54c-.21,0-.4-.13-.47-.32s-.02-.42.14-.55l95.42-83.5c.09-.08.24-.11.33-.12l171.61,1.93c.2,0,.37.12.45.3.08.18.04.39-.09.54l-73.49,81.57c-.09.1-.23.17-.37.17ZM130.46,230.41h191.99l72.6-80.58-170.31-1.92-94.27,82.5Z" fill="#732a09" stroke-width="0"></path><polygon points="139.77 226.91 226.03 151.43 387.26 153.24 320.89 226.91 139.77 226.91" fill="#fff" stroke-width="0"></polygon><path d="M320.89,227.41h-181.11c-.21,0-.4-.13-.47-.32s-.02-.42.14-.55l86.26-75.48c.09-.08.23-.13.33-.12l161.23,1.81c.2,0,.37.12.45.3.08.18.04.39-.09.54l-66.37,73.67c-.09.1-.23.17-.37.17ZM141.11,226.41h179.56l65.48-72.68-159.93-1.8-85.11,74.48Z" fill="#732a09" stroke-width="0"></path><polygon points="306.81 181.4 347.99 181.4 315.67 213.81 272.46 213.81 306.81 181.4" fill="#fff" stroke-width="0"></polygon><path d="M315.67,214.31h-43.22c-.21,0-.39-.12-.46-.32s-.03-.41.12-.55l34.36-32.41c.09-.09.22-.14.34-.14h41.17c.2,0,.38.12.46.31.08.19.03.4-.11.54l-32.32,32.41c-.09.09-.22.15-.35.15ZM273.71,213.31h41.75l31.32-31.41h-39.77l-33.3,31.41Z" fill="#732a09" stroke-width="0"></path><polygon points="237.51 159.98 282.91 159.98 247.28 195.72 199.63 195.72 237.51 159.98" fill="#fff" stroke-width="0"></polygon><path d="M247.28,196.22h-47.65c-.21,0-.39-.12-.46-.32s-.03-.41.12-.55l37.88-35.74c.09-.09.22-.14.34-.14h45.4c.2,0,.38.12.46.31.08.19.03.4-.11.54l-35.63,35.74c-.09.09-.22.15-.35.15ZM200.89,195.22h46.18l34.63-34.74h-43.99l-36.82,34.74Z" fill="#732a09" stroke-width="0"></path><polygon points="396.16 149.34 396.16 156.84 322.67 238.44 322.67 230.91 396.16 149.34" fill="#f25454" stroke-width="0"></polygon><path d="M322.67,238.94c-.06,0-.12-.01-.18-.03-.19-.07-.32-.26-.32-.47v-7.53c0-.12.05-.24.13-.33l73.49-81.57c.14-.15.36-.21.55-.13.19.07.32.26.32.47v7.5c0,.12-.05.24-.13.33l-73.49,81.6c-.1.11-.23.17-.37.17ZM323.17,231.1v6.04l72.49-80.49v-6.01l-72.49,80.46Z" fill="#732a09" stroke-width="0"></path><path d="M331.4,178.59c-.74,0-1.47-.02-2.19-.07-5.42-.35-9.02-1.97-9.89-4.44-.42-1.18-.38-3.08,2.15-5.4,4.87-4.45,16.14-7.61,25.14-7.03,5.42.35,9.02,1.97,9.89,4.44.42,1.18.38,3.08-2.15,5.4-4.48,4.1-14.39,7.1-22.95,7.1ZM344.4,162.58c-8.33,0-17.93,2.88-22.25,6.83-1.18,1.08-2.46,2.7-1.89,4.33.72,2.05,4.09,3.46,9.02,3.77,8.77.56,19.71-2.47,24.4-6.77,1.18-1.08,2.46-2.7,1.89-4.33-.72-2.05-4.09-3.46-9.02-3.77-.7-.04-1.42-.07-2.15-.07Z" fill="#732a09" stroke-width="0"></path><path d="M329.84,168.07l16.75-2.62s-12.75,9.12-13.12,8.87-3.62-6.25-3.62-6.25Z" fill="#f25454" stroke-width="0"></path><path d="M333.4,174.81c-.1,0-.15-.04-.21-.07-.12-.08-.48-.32-3.79-6.43-.08-.14-.08-.31,0-.46.07-.15.21-.25.37-.27l16.75-2.62c.23-.04.45.09.54.3.09.21.02.46-.17.6-11.02,7.88-12.94,8.96-13.48,8.96ZM330.62,168.46c1.23,2.25,2.53,4.54,3.01,5.27,1.33-.71,6.75-4.48,10.94-7.46l-13.96,2.19Z" fill="#732a09" stroke-width="0"></path><polygon points="387.26 166.72 406.8 238.44 395.2 238.44 378.74 176.19 387.26 166.72" fill="#fff" stroke-width="0"></polygon><path d="M406.8,238.94h-11.61c-.23,0-.43-.15-.48-.37l-16.46-62.25c-.04-.16,0-.34.11-.46l8.53-9.47c.12-.14.31-.19.49-.15.18.04.32.18.37.35l19.54,71.72c.04.15,0,.31-.08.44-.09.12-.24.2-.4.2ZM395.58,237.94h10.57l-19.13-70.21-7.73,8.59,16.29,61.62Z" fill="#732a09" stroke-width="0"></path><polygon points="395.2 238.44 322.67 238.44 378.74 176.19 395.2 238.44" fill="#732a09" stroke-width="0"></polygon><path d="M395.2,238.94h-72.53c-.2,0-.38-.12-.46-.3-.08-.18-.05-.39.09-.54l56.06-62.25c.12-.14.31-.19.49-.15.18.04.32.18.37.36l16.46,62.25c.04.15,0,.31-.09.43-.09.12-.24.2-.4.2ZM323.79,237.94h70.75l-16.06-60.73-54.69,60.73Z" fill="#732a09" stroke-width="0"></path><polygon points="322.67 230.91 322.67 238.44 203.37 238.44 203.33 230.91 322.67 230.91" fill="#732a09" stroke-width="0"></polygon><path d="M322.67,238.94h-119.3c-.27,0-.5-.22-.5-.5l-.04-7.53c0-.13.05-.26.15-.36s.22-.15.35-.15h119.34c.28,0,.5.22.5.5v7.53c0,.28-.22.5-.5.5ZM203.87,237.94h118.3v-6.53h-118.34l.04,6.53Z" fill="#732a09" stroke-width="0"></path></g><g id="character"><path d="M129.34,369.24l-23.24,16.54c-1.63,1.16-2.01,3.41-.87,5.04l30.22,43.11c1.27,1.81,3.84,2.08,5.45.57l.91-.84s18.54-16.66,4.86-38.99c0,0-10.37-8.52-17.32-25.43Z" fill="#f75454" stroke-width="0"></path><path d="M141.84,433.26c-.16,0-.31-.07-.41-.21l-33.51-47.8c-.16-.23-.1-.54.12-.7.23-.16.54-.1.7.12l33.51,47.8c.16.23.1.54-.12.7-.09.06-.19.09-.29.09Z" fill="#732a09" stroke-width="0"></path><path d="M116.42,397c-.14,0-.29-.06-.39-.18-.17-.21-.14-.53.07-.7.38-.32,9.34-7.85,2.28-19.1-.15-.23-.08-.54.16-.69.23-.15.54-.08.69.16,7.54,12-2.39,20.32-2.49,20.41-.09.08-.2.11-.32.11Z" fill="#732a09" stroke-width="0"></path><path d="M155.06,403.24s-.08,0-.12-.01l-15.62-3.86c-.27-.07-.43-.34-.37-.61.07-.27.34-.43.61-.37l15.62,3.86c.27.07.43.34.37.61-.06.23-.26.38-.48.38Z" fill="#732a09" stroke-width="0"></path><path d="M156.63,409.47s-.08,0-.12-.01l-15.62-3.86c-.27-.07-.43-.34-.37-.61.07-.27.34-.43.61-.37l15.62,3.86c.27.07.43.34.37.61-.06.23-.26.38-.48.38Z" fill="#732a09" stroke-width="0"></path><path d="M231.28,333.12l-74.05,61.04s-23.05-16.1-22.49-36.09l46.37-46.35,57.47-2.51-7.3,23.92Z" fill="#fff" stroke-width="0"></path><path d="M157.23,394.66c-.1,0-.2-.03-.29-.09-.23-.16-23.26-16.49-22.7-36.52,0-.13.06-.25.15-.34l46.37-46.35c.09-.09.21-.14.33-.15l57.47-2.51c.16.01.32.07.42.19.1.13.13.3.08.45l-7.3,23.92c-.03.09-.08.18-.16.24l-74.05,61.04c-.09.08-.2.11-.32.11ZM135.23,358.28c-.36,18.15,19.27,33.26,21.98,35.25l73.63-60.7,7.05-23.1-56.57,2.48-46.09,46.07ZM231.27,333.12h0,0Z" fill="#732a09" stroke-width="0"></path><rect x="147.21" y="337.02" width="12.43" height="90.12" fill="#732a09" stroke-width="0"></rect><path d="M159.64,427.64h-12.43c-.28,0-.5-.22-.5-.5v-90.12c0-.28.22-.5.5-.5h12.43c.28,0,.5.22.5.5v90.12c0,.28-.22.5-.5.5ZM147.71,426.64h11.43v-89.12h-11.43v89.12Z" fill="#732a09" stroke-width="0"></path><path d="M207.59,94.03c1.63-5.31,4.9-15.04.68-19.16s-27.6-21.92-43.25,4.16c0,0-25.12,7.02-19.08,29.35,6.03,22.33,24.78,26.84,24.78,26.84l36.87-41.18Z" fill="#732a09" stroke-width="0"></path><path d="M170.72,135.71s-.08,0-.12-.01c-.19-.05-19.11-4.84-25.14-27.2-5.81-21.49,16.88-29.17,19.24-29.9,4.98-8.22,11.2-12.87,18.51-13.82,13.48-1.75,25.29,9.61,25.41,9.72,4.25,4.15,1.39,13.4-.32,18.93l-.23.74c-.02.07-.06.13-.11.19l-36.87,41.18c-.1.11-.23.17-.37.17ZM186.08,65.61c-.9,0-1.82.06-2.74.18-7.04.91-13.05,5.45-17.88,13.5-.07.11-.17.19-.29.22-.06.02-6.27,1.79-11.64,6.22-7.15,5.89-9.54,13.47-7.09,22.51,5.48,20.28,21.78,25.72,24.13,26.41l36.59-40.87.2-.63c1.64-5.31,4.4-14.19.58-17.92-.11-.1-10.01-9.62-21.84-9.62ZM207.59,94.03h0,0Z" fill="#732a09" stroke-width="0"></path><path d="M189.81,128.47l-5.4,25.91s-11.03-6.38-21.54-5.07l7.59-26.49,19.35,5.66Z" fill="#fff" stroke-width="0"></path><path d="M184.41,154.87c-.09,0-.17-.02-.25-.07-.11-.06-11.01-6.29-21.23-5.01-.17.02-.33-.04-.44-.17-.11-.13-.15-.3-.1-.46l7.59-26.49c.04-.13.12-.24.24-.3.12-.06.25-.08.38-.04l19.35,5.66c.25.07.4.33.35.58l-5.4,25.91c-.03.16-.14.29-.29.35-.06.03-.13.04-.2.04ZM165.85,148.62c8.23,0,16.01,3.81,18.21,4.99l5.16-24.79-18.42-5.39-7.24,25.29c.76-.07,1.53-.1,2.29-.1Z" fill="#732a09" stroke-width="0"></path><path d="M212.67,117.72s0,.03.02.07c.15,1.12,1.98,15.29-4.04,21.89-1.58,1.72-3.95,2.79-6.63,3.43-9.88,2.34-20.13-2.19-25.54-10.78l-1.08-1.73c-16.57-1.83-5.52-23.28,1.66-17.11.19,1.49.67,3.24.99,4.9.35,1.8,2.08,2.96,3.89,2.64l1.38-11.45c2.26-1.59,4.43-3.26,6.53-5.02,3.98-3.34,7.69-6.99,11.1-10.94l5.54-6.42s4.6,14.52,6.05,22.83c0,0,4.71-.13,5.35,3.26.65,3.38-5.21,4.42-5.21,4.42Z" fill="#fff" stroke-width="0"></path><path d="M196.75,144.23c-8.19,0-16.08-4.29-20.7-11.62l-.96-1.53c-6.44-.8-8.19-4.49-8.65-6.63-1.01-4.63,1.77-9.8,4.99-11.72,2.09-1.25,4.21-1.11,5.95.39.09.08.16.19.17.32.12.94.35,1.97.6,3.06.14.6.27,1.21.39,1.81.27,1.42,1.53,2.38,2.95,2.29l1.33-11.06c.02-.14.09-.27.21-.35,2.23-1.57,4.41-3.25,6.5-5,3.97-3.33,7.68-6.99,11.04-10.88l5.54-6.42c.12-.14.3-.2.48-.16.18.04.32.17.38.34.05.14,4.48,14.18,6,22.49,1.26.06,4.82.5,5.42,3.66.16.83,0,1.61-.49,2.31-1.1,1.6-3.6,2.34-4.65,2.59.4,3.36,1.41,15.75-4.21,21.91-1.51,1.64-3.82,2.85-6.88,3.58-1.79.42-3.59.63-5.38.63ZM174.23,112.88c-.87,0-1.67.32-2.3.7-2.86,1.71-5.42,6.5-4.52,10.65.51,2.33,2.31,5.25,8.03,5.88.15.02.29.1.37.23l1.08,1.73c5.4,8.57,15.46,12.82,25,10.56,2.86-.69,5.01-1.79,6.38-3.28,5.58-6.11,4.24-18.97,3.91-21.48-.04-.14-.02-.28.05-.4.07-.12.2-.2.34-.23.03,0,3.33-.61,4.48-2.28.33-.48.44-.99.33-1.56-.56-2.93-4.8-2.85-4.85-2.86-.25,0-.46-.17-.51-.41-1.23-7.03-4.77-18.68-5.77-21.91l-4.95,5.74c-3.39,3.93-7.15,7.63-11.15,11-2.05,1.72-4.2,3.38-6.38,4.92l-1.35,11.23c-.03.22-.19.39-.41.43-2.1.38-4.06-.97-4.46-3.04-.12-.58-.25-1.18-.39-1.78-.23-1-.46-2.02-.59-2.96-.8-.64-1.6-.87-2.34-.87Z" fill="#732a09" stroke-width="0"></path><path d="M208.42,101.19c-3.39-1.87-7.45.25-10.13,2.55-.43.41-1.1-.2-.75-.66,2.11-3.22,6.52-5.23,10.23-3.62.48.23,2.1,1.1,1.32,1.83-.23.15-.49.07-.67-.1h0Z" fill="#732a09" stroke-width="0"></path><path d="M203.37,108.13c.24,1.67,1.38,2.88,2.53,2.72,1.16-.17,1.9-1.65,1.65-3.32-.07-.5-.23-.97-.45-1.36l-1.83,1.36.59-2.58c-.27-.12-.54-.16-.83-.12-1.15.17-1.9,1.65-1.66,3.31Z" fill="#732a09" stroke-width="0"></path><path d="M169.93,122.3s-.05,0-.08,0c-.27-.04-.46-.3-.42-.57.35-2.26,1.52-4.07,3.04-4.74.9-.4,2.39-.59,4.32.71.23.15.29.46.14.69-.15.23-.46.29-.69.14-1.25-.84-2.38-1.05-3.36-.62-1.21.53-2.15,2.05-2.45,3.97-.04.25-.25.42-.49.42Z" fill="#732a09" stroke-width="0"></path><path d="M173.62,125.62c-.13,0-.25-.05-.35-.14-2.42-2.36-2.65-6.5-2.66-6.68-.01-.28.2-.51.48-.52.27-.04.51.2.52.47,0,.04.22,3.93,2.36,6.01.2.19.2.51,0,.71-.1.1-.23.15-.36.15Z" fill="#732a09" stroke-width="0"></path><path d="M208.64,139.69c-1.58,1.72-3.95,2.79-6.63,3.43-9.88,2.34-20.13-2.19-25.54-10.78l-1.08-1.73,4.62-3.2c2.75-1.34,7.12,8.1,14.2,6.66,4.12-.84,4.61-4.85,5.2-8.49.41-2.64.88-5.1,2.78-6.01,4.53-2.21,10.49-1.84,10.49-1.84,0,0,0,.03.02.07.15,1.12,1.98,15.29-4.04,21.89Z" fill="#732a09" stroke-width="0"></path><path d="M196.75,144.23c-8.19,0-16.08-4.29-20.7-11.62l-1.08-1.73c-.14-.23-.08-.52.14-.68l4.61-3.2c1.5-.73,3.01.62,4.91,2.35,2.47,2.24,5.55,5.03,9.47,4.23,3.62-.74,4.16-4.09,4.74-7.65l.07-.43c.37-2.36.83-5.31,3.06-6.38,4.59-2.24,10.48-1.9,10.73-1.89.21.01.39.15.45.35,0,.02.03.11.03.14.34,2.61,1.71,15.87-4.16,22.31,0,0,0,0,0,0-1.51,1.64-3.82,2.85-6.88,3.58-1.79.42-3.59.63-5.38.63ZM176.06,130.75l.83,1.33c5.4,8.57,15.46,12.82,25,10.56,2.86-.69,5.01-1.79,6.38-3.28,5.36-5.87,4.33-17.96,3.96-21.14-1.41-.02-6.14,0-9.83,1.8-1.63.79-2.08,2.92-2.5,5.64l-.07.44c-.58,3.56-1.23,7.6-5.53,8.47-4.41.89-7.84-2.21-10.34-4.47-1.56-1.41-2.91-2.63-3.74-2.23l-4.16,2.89ZM208.64,139.69h0,0Z" fill="#732a09" stroke-width="0"></path><ellipse cx="206.64" cy="127.3" rx="3.22" ry="2.39" transform="translate(-16.08 30.87) rotate(-8.22)" fill="#fff" stroke-width="0"></ellipse><path d="M206.38,130.21c-1.75,0-3.21-.98-3.42-2.38-.11-.79.18-1.59.83-2.24.61-.61,1.48-1.02,2.44-1.16,2.03-.3,3.87.75,4.1,2.33h0c.23,1.58-1.24,3.1-3.27,3.4-.23.03-.46.05-.68.05ZM206.93,125.38c-.18,0-.37.01-.56.04-.75.11-1.41.42-1.88.88-.42.42-.62.91-.55,1.38.15,1.03,1.48,1.7,2.97,1.48,1.49-.21,2.57-1.23,2.43-2.26-.13-.9-1.16-1.52-2.41-1.52Z" fill="#732a09" stroke-width="0"></path><path d="M279.57,173.77s-17.63-11.98-20.16-14.17.35-5.53,5.07-3,19.35,13.02,19.35,13.02c0,0,21.77,14.06,23.96,17.05s-.58,3.8-10.71-1.38-17.51-11.52-17.51-11.52Z" fill="#f25454" stroke-width="0"></path><path d="M307.22,189.55c-1.93,0-5.4-1.27-10.36-3.81-9.8-5.01-17.13-11.18-17.59-11.57-.99-.68-17.68-12.03-20.18-14.19-1.18-1.02-1.45-2.38-.7-3.47.9-1.32,3.27-1.99,6.34-.34,4.7,2.52,18.81,12.62,19.41,13.05.87.56,21.86,14.13,24.08,17.16.85,1.17,1.03,2.06.52,2.65-.29.34-.79.51-1.5.51ZM261.28,156.2c-.98,0-1.71.34-2.08.88-.45.65-.24,1.48.53,2.15,2.48,2.14,19.94,14.01,20.12,14.13.02,0,.03.02.04.03.07.06,7.45,6.36,17.41,11.46,9.41,4.81,10.64,3.55,10.65,3.54.09-.1.08-.53-.56-1.42-1.69-2.31-16.33-12.08-23.83-16.93-.17-.12-14.68-10.51-19.32-13-1.11-.6-2.12-.85-2.96-.85Z" fill="#732a09" stroke-width="0"></path><path d="M270.12,190.02s5.88-9.56,7.49-12.44,1.96-3.8,1.96-3.8c0,0,2.53,2.88,4.26,1.27s1.96-4.38,0-5.41c0,0,.69-2.76,4.84-4.61s6.22,3.23,5.99,5.07c0,0,5.3,1.5,4.72,6.11,0,0,3.57,1.04,2.76,5.3,0,0,3.46,2.65.12,7.6s-19.36,13.94-19.36,13.94l-12.79-13.02Z" fill="#fff" stroke-width="0"></path><path d="M282.91,203.53c-.13,0-.26-.05-.36-.15l-12.79-13.02c-.16-.16-.19-.42-.07-.61.06-.1,5.89-9.59,7.48-12.42,1.56-2.79,1.92-3.73,1.93-3.73.06-.16.21-.28.38-.31.17-.03.35.03.46.16.38.42,1.57,1.54,2.6,1.59.35,0,.67-.1.94-.35.87-.81,1.34-1.99,1.2-3.01-.07-.5-.31-1.18-1.09-1.6-.2-.11-.31-.34-.25-.56.03-.12.8-3.02,5.12-4.94,1.96-.87,3.4-.29,4.27.35,1.64,1.21,2.42,3.45,2.44,4.82,1.23.46,4.98,2.19,4.74,6.13.96.44,3.31,1.88,2.77,5.44.77.77,3.02,3.58,0,8.07-3.37,4.99-18.87,13.73-19.53,14.1-.08.04-.16.06-.24.06ZM270.75,189.94l12.25,12.46c2.31-1.32,15.88-9.18,18.86-13.59,3.05-4.51.12-6.83,0-6.93-.15-.12-.22-.3-.19-.49.71-3.77-2.28-4.69-2.41-4.73-.24-.07-.39-.3-.36-.54.51-4.12-4.16-5.51-4.36-5.56-.24-.07-.39-.3-.36-.54.13-1.02-.62-3.26-2.03-4.31-.95-.7-2.05-.78-3.27-.24-3.02,1.34-4.1,3.19-4.43,3.94.69.5,1.12,1.23,1.24,2.12.18,1.35-.4,2.83-1.51,3.87-.48.45-1.04.67-1.68.62-1.1-.05-2.15-.84-2.77-1.39-.28.58-.79,1.59-1.68,3.18-1.43,2.55-6.24,10.41-7.29,12.13Z" fill="#732a09" stroke-width="0"></path><path d="M293.24,172.87c-.09,0-.18-.02-.26-.08-.23-.15-.31-.45-.16-.69l1.42-2.29c.15-.24.45-.31.69-.16.23.15.31.45.16.69l-1.42,2.29c-.09.15-.26.24-.43.24Z" fill="#732a09" stroke-width="0"></path><path d="M297.89,179.44c-.14,0-.28-.06-.38-.17-.18-.21-.16-.53.05-.71,0,0,.97-.86,1.34-2.48.06-.27.33-.44.6-.38.27.06.44.33.38.6-.45,1.96-1.61,2.98-1.66,3.02-.09.08-.21.12-.33.12Z" fill="#732a09" stroke-width="0"></path><path d="M300.52,184.6c-.16,0-.31-.07-.41-.21-.16-.23-.1-.54.12-.7,0,0,.78-.59,1.45-2.38.1-.26.39-.38.64-.29.26.1.39.39.29.65-.79,2.08-1.71,2.77-1.81,2.84-.09.06-.19.09-.29.09Z" fill="#732a09" stroke-width="0"></path><path d="M111.43,268.66s-15.43,25.01,0,44.41,115.22,8.88,115.22,8.88l5.61,90.68s17.06,7.25,40.2-7.48c0,0,6.56-101.23-7.4-115.95s-51.23-18.86-51.23-18.86l-102.4-1.69Z" fill="#fff" stroke-width="0"></path><path d="M243.52,414.91c-7.07,0-11.27-1.75-11.45-1.82-.17-.07-.29-.24-.3-.43l-5.58-90.16c-8.63.88-100.14,9.75-115.15-9.12-8.09-10.18-7.66-21.88-5.88-29.9,1.92-8.66,5.81-15.02,5.85-15.08.09-.15.26-.25.43-.24l102.4,1.69c.14.01,9.52,1.07,20.49,3.92,14.77,3.84,25.23,8.91,31.09,15.09,13.96,14.71,7.81,112.18,7.54,116.32-.01.16-.1.3-.23.39-12.05,7.67-22.45,9.31-29.04,9.34-.06,0-.12,0-.17,0ZM232.74,412.28c1.06.39,5.04,1.62,11,1.63,6.41-.04,16.5-1.64,28.24-9.05.35-5.66,6.03-101.28-7.28-115.32-13.68-14.42-50.55-18.66-50.92-18.7l-102.07-1.68c-.71,1.23-3.91,7-5.58,14.56-1.73,7.8-2.14,19.17,5.69,29.03,6.21,7.81,27.98,11.82,63,11.53,26.55-.2,51.54-2.8,51.79-2.83.13-.02.27.03.38.12s.17.21.18.35l5.59,90.36Z" fill="#732a09" stroke-width="0"></path><path d="M106.74,270.35s10.98-102.21,31.73-118.69,42.72-11.29,57.06-3.05,25.02,28.68,28.07,37.22,7.63,23.8,7.63,23.8l36.66-22.63c1.47-.91,3.35-.76,4.67.35,4.47,3.8,13.92,12.87,12.98,21.05-1.22,10.68-50.65,35.7-59.5,39.66s-14.34.31-14.34.31l2.14,21.97s-28.38,12.2-58.58,10.37-48.51-10.37-48.51-10.37Z" fill="#f25454" stroke-width="0"></path><path d="M207.15,245.12c-.15,0-.3-.07-.4-.2-11.98-16.23-16.16-52.04-11.05-68.88.08-.26.36-.41.62-.33.26.08.41.36.33.62-5,16.47-.61,52.4,10.9,67.99.16.22.12.54-.11.7-.09.07-.19.1-.3.1Z" fill="#732a09" stroke-width="0"></path><path d="M130.43,235.7c-3.27,12.68,2.11,83.41,2.11,83.41l-14.18,1.64s-5.54-37.86-.55-72.6c.17-1.18.35-2.36.55-3.53l12.06-8.92Z" fill="#732a09" stroke-width="0"></path><path d="M118.36,321.25c-.25,0-.46-.18-.49-.43-.06-.38-5.5-38.33-.55-72.74.17-1.18.35-2.36.55-3.54.02-.13.09-.24.2-.32l12.06-8.92c.17-.12.4-.13.58-.01.18.12.26.33.21.54-3.21,12.45,2.07,82.54,2.13,83.25.02.27-.17.5-.44.54l-14.18,1.64s-.04,0-.06,0ZM118.82,244.91c-.18,1.1-.35,2.21-.51,3.32-4.63,32.17-.13,67.46.48,71.97l13.21-1.52c-.49-6.54-4.92-66.9-2.34-81.79l-10.84,8.02Z" fill="#732a09" stroke-width="0"></path><path d="M167.73,242.91c-4.08,3.26-10.77,4.67-16.76,5.24,5.84-2.38,14.65-5.96,17.93-15.17,4.21-11.81,2.34-41.84-1.17-58.19-1.84-8.61-6.49-14.4-10.47-17.95,4.8,1.85,8.5,4.14,10.67,6.66,6.03,7.01,8.76,23.97,8.95,36.8.2,12.83-.39,35.6-9.15,42.61Z" fill="#732a09" stroke-width="0"></path><path d="M150.97,248.65c-.23,0-.43-.16-.48-.38-.06-.24.07-.49.3-.58,5.77-2.35,14.45-5.89,17.65-14.88,4.28-12.02,2.16-42.33-1.19-57.92-1.85-8.66-6.63-14.4-10.31-17.68-.18-.16-.22-.43-.09-.63.13-.21.38-.29.61-.21,4.91,1.89,8.67,4.24,10.87,6.8,5.99,6.96,8.87,23.66,9.07,37.12.36,23.29-2.78,37.76-9.34,43.01h0c-3.51,2.81-9.24,4.61-17.02,5.35-.02,0-.03,0-.05,0ZM159.53,158.33c3.39,3.53,7.1,8.89,8.69,16.35,3.37,15.7,5.49,46.28,1.15,58.46-2.77,7.77-9.34,11.61-14.88,14.06,5.73-.88,10.16-2.49,12.92-4.69,6.3-5.05,9.32-19.25,8.96-42.21-.2-13.28-3-29.71-8.83-36.48-1.72-2-4.47-3.87-8.02-5.49ZM167.73,242.91h0,0Z" fill="#732a09" stroke-width="0"></path><path d="M168.9,232.98c-3.28,9.21-12.09,12.79-17.93,15.17-6.88.66-12.82.21-12.82.21,0,0-28.61-3.7-37.56-10.7-8.95-7.01-7.2-37.96-5.26-49.44,1.95-11.48,8.18-34.64,28.42-35.81,12.96-.75,24.97,1.14,33.51,4.43,3.98,3.55,8.63,9.34,10.47,17.95,3.51,16.35,5.38,46.38,1.17,58.19Z" fill="#f25454" stroke-width="0"></path><path d="M143.13,249.01c-2.99,0-4.98-.15-5.02-.15-1.2-.16-28.88-3.8-37.83-10.81-9.35-7.33-7.26-39.15-5.44-49.92,2.21-13.03,8.91-35.07,28.88-36.23,12.23-.71,24.52.92,33.72,4.46.06.02.11.05.15.09,3.79,3.39,8.72,9.29,10.63,18.22,3.37,15.7,5.49,46.28,1.15,58.46h0c-3.35,9.41-12.28,13.05-18.19,15.46-.05.02-.11.04-.16.04-2.91.28-5.67.36-7.89.36ZM150.97,248.15h0,0ZM129.36,152.75c-1.85,0-3.72.05-5.58.16-19.28,1.11-25.79,22.65-27.96,35.39-2.27,13.42-3.15,42.52,5.07,48.96,8.74,6.83,37.03,10.56,37.32,10.6.03,0,5.91.43,12.64-.21,5.77-2.35,14.39-5.89,17.58-14.85h0c4.28-12.02,2.16-42.33-1.19-57.92-1.84-8.61-6.57-14.32-10.25-17.62-7.66-2.93-17.49-4.53-27.63-4.53Z" fill="#732a09" stroke-width="0"></path><path d="M180.44,344.35c-22.3,2.51-61.54,6.08-73.7-2.82s-9.65-21.72-5.47-25.62,41.97-5.02,49.7-3.62,20.27,9.48,28.08,9.2,20.08-1.53,23.98,2.3-2.23,20.56-22.59,20.56Z" fill="#f25454" stroke-width="0"></path><path d="M138.25,347.7c-16.04,0-26.54-1.92-31.8-5.76-7.06-5.16-8.84-11.2-9.09-15.35-.3-5.04,1.58-9.17,3.57-11.04,4.56-4.26,43.09-5.02,50.13-3.75,3.32.6,7.41,2.37,11.74,4.24,5.81,2.51,11.82,5.13,16.23,4.95,1.08-.04,2.24-.1,3.45-.15,7.74-.38,17.38-.85,20.89,2.6,1.57,1.54,1.68,4.77.27,8.22-2.61,6.38-10.06,13.19-23.17,13.2-16.88,1.9-30.93,2.85-42.22,2.85ZM139.15,312.22c-4.39,0-9.42.13-14.33.4-12.82.69-21.49,2.06-23.21,3.66-1.82,1.7-3.54,5.53-3.26,10.25.24,3.94,1.93,9.67,8.68,14.61,13.01,9.51,58.42,4.4,73.35,2.72.02,0,.04,0,.06,0,12.63,0,19.79-6.5,22.28-12.57,1.24-3.02,1.22-5.89-.04-7.13-3.2-3.15-12.6-2.69-20.15-2.32-1.22.06-2.38.12-3.47.16-4.65.16-10.74-2.48-16.66-5.04-4.28-1.85-8.32-3.59-11.52-4.17-2.06-.37-6.43-.56-11.73-.56Z" fill="#732a09" stroke-width="0"></path><path d="M120.8,449.28h68.49s-.13-26.03-35.86-26.03-32.63,26.03-32.63,26.03Z" fill="#f25454" stroke-width="0"></path><path d="M189.29,449.78h-68.49c-.25,0-.47-.19-.5-.44-.05-.38-1.05-9.51,5.65-17.05,5.61-6.32,14.86-9.53,27.48-9.53,35.82,0,36.36,26.26,36.36,26.52,0,.13-.05.26-.15.35-.09.09-.22.15-.35.15ZM121.26,448.78h67.5c-.28-3.58-3.28-25.03-35.33-25.03-12.31,0-21.3,3.09-26.72,9.18-5.59,6.29-5.55,13.94-5.45,15.84Z" fill="#732a09" stroke-width="0"></path><path d="M234.58,416.3l1.62,28.48c.11,1.99,1.81,3.52,3.81,3.42l52.58-2.61c2.2-.11,3.8-2.14,3.39-4.31l-.23-1.22s-4.22-24.56-30.42-24.88c0,0-12.74,4.23-30.74,1.11Z" fill="#f75454" stroke-width="0"></path><path d="M236.68,442.95c-.26,0-.49-.21-.5-.48-.01-.28.2-.51.47-.52l58.3-2.9c.26-.05.51.2.52.47.01.28-.2.51-.47.52l-58.3,2.9s-.02,0-.03,0Z" fill="#732a09" stroke-width="0"></path><path d="M250.76,442.25c-.25,0-.46-.19-.5-.44-.06-.49-1.67-12.09-14.95-12.1-.28,0-.5-.22-.5-.5s.22-.5.5-.5h0c14.18.01,15.93,12.85,15.94,12.98.03.27-.16.52-.43.56-.02,0-.04,0-.06,0Z" fill="#732a09" stroke-width="0"></path><path d="M265.04,424.05c-.13,0-.26-.05-.36-.15-.19-.2-.19-.51.01-.71l11.58-11.17c.2-.19.52-.19.71.01.19.2.19.51-.01.71l-11.58,11.17c-.1.09-.22.14-.35.14Z" fill="#732a09" stroke-width="0"></path><path d="M271.15,426.03c-.13,0-.26-.05-.36-.15-.19-.2-.19-.51.01-.71l11.58-11.17c.2-.19.52-.19.71.01.19.2.19.51-.01.71l-11.58,11.17c-.1.09-.22.14-.35.14Z" fill="#732a09" stroke-width="0"></path></g></svg>