<svg transform="scale(1)" version="1.1" id="_x30_328_x5F_Discussion" xmlns="http://www.w3.org/2000/svg" xmlns:xlink="http://www.w3.org/1999/xlink" x="0px" y="0px" viewBox="0 0 500 500" xml:space="preserve" class="show_show__wrapper__graphic__5Waiy "><title>React</title><style type="text/css">
	.st0{fill:#FFFFFF;}
	.st1{fill:#732A09;}
	.st2{fill:#F75454;}
</style><g id="character-4"><polyline class="st0" points="305.9,254.3 318.9,265.6 320.5,341.3 353.2,335 353.2,243.1 276.7,239.3 276.7,354 311.8,354 
		313.2,260.7 	"></polyline><path class="st1" d="M311.8,354.5h-35.1c-0.3,0-0.5-0.2-0.5-0.5V239.3c0-0.1,0.1-0.3,0.2-0.4c0.1-0.1,0.2-0.1,0.4-0.1l76.5,3.8
		c0.3,0,0.5,0.2,0.5,0.5v92c0,0.2-0.2,0.5-0.4,0.5l-32.7,6.3c-0.3,0.1-0.5-0.1-0.6-0.4c0,0,0-0.1,0-0.1l-1.6-75.4l-4.7-4.1
		l-1.4,92.2C312.3,354.3,312,354.5,311.8,354.5z M277.2,353.5h34.1l1.4-92.6l-7.1-6.3c-0.2-0.2-0.2-0.5-0.1-0.7c0,0,0,0,0,0
		c0.2-0.2,0.5-0.2,0.7-0.1l12.9,11.4c0.1,0.1,0.2,0.2,0.2,0.4l1.6,75.1l31.7-6.1v-91.1l-75.5-3.7L277.2,353.5z"></path><path class="st0" d="M287.4,146.1c0.9-2.1,0.7-4.4-0.5-6.3c-4.7-7.8-6.3-13.5,0.7-19.7c14.5-12.6,27.3,2,27.3,2
		c17.2-2.4,13.6,29.4,15.5,42.8c0.6,4.4-3.8,7-8.2,6.7l-34.1-3.1c-3.9-0.3-6.8-3.6-6.5-7.4c0.1-0.8,0.2-1.5,0.5-2.2L287.4,146.1z"></path><path class="st1" d="M322.9,172.2c-0.2,0-0.5,0-0.7,0l-34.1-3.2c-4.1-0.3-7.3-3.8-7-8c0.1-0.8,0.2-1.6,0.6-2.4l5.3-12.7
		c0.8-1.9,0.6-4.1-0.5-5.9c-4.9-8.1-6.4-14,0.8-20.3c13.8-12,26.1,0.1,27.8,1.8c2.8-0.5,5.6,0.3,7.8,2.1c6.2,5.2,6.8,19,7.2,30.2
		c0.2,4.2,0.3,8.1,0.8,11.1c0.3,1.7-0.2,3.5-1.4,4.8C327.7,171.3,325.3,172.3,322.9,172.2z M300,115.5c-4.1,0-8.1,1.7-12,5
		c-6.7,5.8-5.4,11.2-0.6,19c1.2,2,1.4,4.6,0.5,6.8l0,0l-5.3,12.8c-1.4,3.3,0.2,7.1,3.5,8.5c0.7,0.3,1.4,0.4,2.1,0.5l34.1,3.1
		c2.4,0.2,4.8-0.6,6.5-2.2c1-1,1.4-2.5,1.2-3.9c-0.4-3-0.6-7-0.8-11.2c-0.4-10.9-1-24.5-6.9-29.4c-2-1.7-4.7-2.3-7.3-1.8
		c-0.2,0-0.3,0-0.5-0.2c-2.3-2.4-5-4.3-8-5.6C304.5,115.9,302.2,115.5,300,115.5z M287.4,146.1L287.4,146.1z"></path><path class="st2" d="M273,237.6c-0.4-6.2-0.3-12.4,0.2-18.6c0,0-7.7-8.8-5.5-20.6s10.9-39.4,41.1-42.2s46.6,19.9,49.9,33.7
		s4.6,24.7-3.3,31.1l0.6,21.1c0.1,3.1-2.3,5.6-5.4,5.7c-0.2,0-0.4,0-0.6,0l-72-5.1C275.4,242.4,273.2,240.3,273,237.6z"></path><path class="st0" d="M292.8,199.6l-6.4,2.6c0,0,2.7-4.1,1.4-3.4s-4.7,5.5-5.9,4.3s2.2-5.5,2.2-5.5c-3.8,2.1-5,1.6-3.2-1.2
		s8.6-4.9,8.6-4.9c-2.6-1.4-2.1-3.5-1.3-3.9s7.3,0.2,12.1,3.3C300.3,190.9,294.3,192.3,292.8,199.6"></path><path class="st1" d="M282.3,203.8c-0.3,0-0.6-0.1-0.8-0.3c-1-1-0.1-3,0.9-4.5c-1.4,0.6-2.2,0.6-2.7,0.1c-0.6-0.7,0-2,0.6-2.9
		c1.5-2.2,6-4.1,8-4.8c-0.8-0.6-1.3-1.5-1.4-2.5c0-0.7,0.3-1.4,0.9-1.7c1.1-0.6,7.8,0.3,12.6,3.3c0.2,0.1,0.3,0.3,0.2,0.5
		c0,0.2-0.2,0.4-0.4,0.4c-0.2,0.1-5.7,1.5-7.1,8.3c0,0.2-0.1,0.3-0.3,0.4l-6.4,2.6c-0.3,0.1-0.5,0-0.7-0.3c-0.1-0.2,0-0.3,0-0.5
		c0.4-0.6,0.8-1.2,1.1-1.8l-0.6,0.6C285,202.2,283.5,203.8,282.3,203.8z M284,197.1c0.3,0,0.5,0.2,0.5,0.5c0,0.1,0,0.2-0.1,0.3
		c-1.5,1.9-2.7,4.3-2.2,4.8s2.6-1.7,3.5-2.6c0.6-0.6,1.2-1.2,1.9-1.7c0.5-0.3,0.8-0.1,0.9,0s0.5,0.5-0.8,2.8l4.8-1.9
		c0.7-3.8,3.2-6.9,6.8-8.5c-4.6-2.5-10.1-3.1-10.8-2.8c-0.3,0.2-0.4,0.5-0.4,0.9c0.1,1,0.8,1.8,1.7,2.2c0.2,0.1,0.3,0.3,0.3,0.5
		c0,0.2-0.1,0.4-0.3,0.4c-0.1,0-6.7,2.2-8.4,4.8c-0.8,1.3-0.7,1.6-0.7,1.7h0.1c1.1-0.2,2.2-0.6,3.1-1.2
		C283.8,197.1,283.9,197.1,284,197.1z M292.8,199.6L292.8,199.6z"></path><path class="st1" d="M292.8,200.1L292.8,200.1c-0.3,0-0.5-0.3-0.5-0.5c0.4-5.4,6.2-9,7.9-9.2s7.2,2,7.9,2.2
		c0.3,0.1,0.4,0.4,0.3,0.6c0,0,0,0,0,0c-0.1,0.3-0.4,0.4-0.6,0.3c0,0,0,0,0,0c-2.3-0.9-6.3-2.3-7.4-2.2c-1.3,0.1-6.7,3.5-7,8.3
		C293.3,199.9,293.1,200.1,292.8,200.1C292.8,200.1,292.8,200.1,292.8,200.1z"></path><path class="st1" d="M284,198.1c-0.3,0-0.5-0.2-0.5-0.5c0-0.2,0.1-0.3,0.2-0.4c1.5-1.2,3.2-2,5-2.4c0.3-0.1,0.5,0.1,0.6,0.4
		c0,0,0,0,0,0c0.1,0.3-0.1,0.5-0.4,0.6c-1.6,0.3-3.2,1.1-4.5,2.1C284.3,198.1,284.1,198.1,284,198.1z"></path><path class="st1" d="M287.7,199.3c-0.1,0-0.3-0.1-0.4-0.1c-0.2-0.2-0.2-0.5,0-0.7c0.9-0.8,1.9-1.4,3-1.8c0.3-0.1,0.5,0,0.6,0.3
		c0,0,0,0,0,0c0.1,0.3-0.1,0.5-0.3,0.6c-1,0.3-1.9,0.8-2.6,1.5C288,199.2,287.9,199.3,287.7,199.3z"></path><path class="st1" d="M285.2,221.9c-3.2,0-6.4-0.5-9.5-1.5c-0.3-0.1-0.4-0.4-0.3-0.6c0.1-0.3,0.4-0.4,0.6-0.3
		c13.9,4.8,33.5-3.4,41.7-10.9c5-4.7,11.8-7,18.6-6.3c1.9-3.4,0.2-8.7-0.1-9.8c-6.1-2.7-16-1.9-29.6,2.5c-9.7,3.1-22.4,8.7-22.5,8.7
		c-0.3,0.1-0.5,0-0.6-0.3c-0.1-0.2,0-0.5,0.2-0.6c0.1-0.1,12.9-5.6,22.6-8.8c14-4.5,24.2-5.3,30.5-2.3c0.1,0.1,0.2,0.1,0.3,0.3
		c0.1,0.3,2.6,7,0,11.2c-0.1,0.2-0.3,0.3-0.5,0.2c-6.6-0.7-13.2,1.5-18.1,6C311.8,215.4,297.8,221.9,285.2,221.9z"></path><path class="st0" d="M337,193.1c3.4-2.6,5.6-2.8,6.5-2.2s0.4,1.6-1.8,3.7c4.3,1.6,7,5.8,6.9,10.4l-11.9-2.1
		C336.7,202.9,338.3,197,337,193.1z"></path><path class="st1" d="M348.6,205.4L348.6,205.4l-12-2.1c-0.1,0-0.3-0.1-0.3-0.2c-0.1-0.1-0.1-0.3-0.1-0.4c0-0.1,1.6-5.8,0.3-9.4
		c-0.1-0.2,0-0.4,0.2-0.6c4.2-3.2,6.4-2.7,7-2.3c0.4,0.2,0.7,0.6,0.7,1c0.1,0.7-0.4,1.6-1.8,3c4.1,1.9,6.7,6.1,6.5,10.6
		c0,0.1-0.1,0.3-0.2,0.4C348.8,205.4,348.7,205.5,348.6,205.4z M337.3,202.4l10.8,1.9c-0.1-4.1-2.6-7.8-6.5-9.3
		c-0.3-0.1-0.4-0.4-0.3-0.6c0-0.1,0.1-0.1,0.1-0.2c1.9-1.8,2.1-2.5,2-2.7c0,0,0-0.1-0.2-0.2c-0.8-0.5-2.8-0.2-5.7,2
		C338.5,196.6,337.6,200.9,337.3,202.4z"></path><path class="st0" d="M341.7,197.4c1.7,1.9,2.8,4.3,3.1,6.9"></path><path class="st1" d="M344.9,204.8c-0.3,0-0.5-0.2-0.5-0.5c-0.3-2.5-1.3-4.8-3-6.6c-0.2-0.2-0.2-0.5,0-0.7c0.2-0.2,0.5-0.2,0.7,0
		c0,0,0,0,0,0c1.8,2,3,4.5,3.3,7.2C345.3,204.5,345.1,204.8,344.9,204.8C344.9,204.8,344.9,204.8,344.9,204.8L344.9,204.8z"></path><path class="st0" d="M339.8,199c1.5,1.6,1.5,4.7,1.5,4.7"></path><path class="st1" d="M341.4,204.2L341.4,204.2c-0.3,0-0.5-0.2-0.5-0.5c0,0,0-2.9-1.4-4.4c-0.2-0.2-0.2-0.5,0-0.7
		c0.2-0.2,0.5-0.2,0.7,0c1.6,1.7,1.6,4.9,1.6,5.1C341.8,204,341.6,204.2,341.4,204.2z"></path><path class="st1" d="M336.7,192.6c-0.3,0-0.5-0.2-0.5-0.5c0-0.1-0.6-11.4-2.6-17.3c-0.1-0.3,0.1-0.5,0.3-0.6
		c0.3-0.1,0.5,0.1,0.6,0.3c2,6,2.7,17.1,2.7,17.5C337.2,192.4,337,192.6,336.7,192.6L336.7,192.6z"></path><path class="st1" d="M344.1,224.2c-9.8,0-22.8-3.7-33.1-9.9c-0.2-0.1-0.3-0.5-0.2-0.7c0.1-0.2,0.4-0.3,0.7-0.2c0,0,0,0,0,0
		c13.9,8.3,32.4,12,41.4,8.3c0.3-0.1,0.5,0,0.7,0.3c0,0,0,0,0,0c0.1,0.3,0,0.5-0.3,0.6C350.4,223.8,347.3,224.3,344.1,224.2z"></path><path class="st1" d="M289.5,187.9L289.5,187.9c-0.3,0-0.5-0.2-0.5-0.5c0-0.1,0.2-9.5,1-15.6c0-0.3,0.3-0.5,0.6-0.4s0.5,0.3,0.4,0.6
		c-0.8,6.1-1,15.4-1,15.5C290,187.7,289.8,187.9,289.5,187.9C289.5,187.9,289.5,187.9,289.5,187.9z"></path><path class="st0" d="M315.7,145.9c-0.3,4.5,0.1,9.1,1.1,13.5c0,0-8.6,2.1-11.7,0l-0.1-8.2L315.7,145.9z"></path><path class="st1" d="M309.5,160.8c-1.6,0.1-3.3-0.2-4.7-1c-0.1-0.1-0.2-0.2-0.2-0.4l-0.1-8.2c0-0.2,0.1-0.4,0.3-0.5l10.7-5.2
		c0.2-0.1,0.3-0.1,0.5,0c0.1,0.1,0.2,0.3,0.2,0.4c-0.3,4.5,0.1,8.9,1,13.3c0,0.1,0,0.3-0.1,0.4c-0.1,0.1-0.2,0.2-0.3,0.2
		C314.5,160.4,312,160.7,309.5,160.8z M305.6,159.1c2.6,1.4,8.8,0.3,10.6-0.1c-0.8-4-1.2-8.2-1-12.3l-9.7,4.7L305.6,159.1z"></path><path class="st0" d="M289.8,129.2c0,0-8.5,23.4,5.2,26.3s22.4-7.1,22.4-7.1c4.6,2,8.2-2.2,5.7-4s-5,1.6-5,1.6s-5.1-3.2-3.7-11.2
		c0,0-6.5,1.9-9.5-3.4c0,0-13.8,1.5-17.5-4.7"></path><path class="st1" d="M300,156.5c-1.7,0-3.4-0.2-5-0.5c-2.7-0.5-5.1-2.2-6.5-4.7c-4.1-7.4,0.3-20.6,0.8-22.2
		c-0.9-0.6-1.6-1.4-2.1-2.3c-0.2-0.2-0.1-0.5,0.1-0.7c0.2-0.2,0.5-0.1,0.7,0.1c0,0,0,0.1,0.1,0.1c3.4,5.8,16.8,4.5,17,4.4
		c0.2,0,0.4,0.1,0.5,0.2c2.7,4.8,8.6,3.2,8.9,3.1c0.2-0.1,0.3,0,0.5,0.1c0.1,0.1,0.2,0.3,0.2,0.5c-1.1,6.4,2,9.6,3.1,10.5
		c0.8-0.9,1.8-1.6,3-1.9c0.8-0.1,1.7,0.1,2.3,0.6c1.1,0.8,1.3,2.2,0.6,3.3c-1,1.7-3.6,2.8-6.5,1.7
		C316.2,150.3,309.7,156.5,300,156.5z M290.2,129.7c-0.7,2.2-4.5,14.4-0.8,21.1c1.2,2.2,3.3,3.7,5.8,4.2c13.2,2.8,21.8-6.9,21.9-6.9
		c0.1-0.2,0.4-0.2,0.6-0.1c2.7,1.2,4.9,0,5.6-1.2c0.5-0.6,0.3-1.5-0.4-2c-0.4-0.4-1-0.5-1.6-0.4c-1.1,0.3-2,1-2.7,1.9
		c-0.2,0.2-0.4,0.3-0.7,0.1c-0.2-0.1-5-3.3-4-11c-1.8,0.3-6.6,0.7-9.1-3.5C303,132,295.1,132.5,290.2,129.7L290.2,129.7z"></path><path class="st1" d="M319,147.4c-0.1,0-0.1,0-0.2,0c-0.2-0.1-0.2-0.3-0.1-0.5c0.5-0.9,2-2.4,3.7-1.6c0.2,0.1,0.3,0.3,0.2,0.5
		c0,0,0,0,0,0c-0.1,0.2-0.3,0.3-0.5,0.2c0,0,0,0,0,0c-1.5-0.7-2.7,1.2-2.7,1.3C319.2,147.4,319.1,147.4,319,147.4z"></path><path class="st1" d="M303.5,137.7c0.9-0.4,1.8-0.7,2.8-0.7c0.5,0,1,0.1,1.4,0.2c0.5,0.1,0.9,0.3,1.3,0.5c0.1,0.1,0.2,0.2,0.1,0.4
		c-0.1,0.1-0.2,0.2-0.3,0.1l0,0c-0.5,0-0.9-0.1-1.3-0.1c-0.4,0-0.8-0.1-1.3-0.1c-0.9,0-1.7,0.1-2.6,0.2l0,0c-0.2,0-0.3-0.1-0.3-0.2
		C303.4,137.9,303.4,137.8,303.5,137.7z"></path><path class="st1" d="M290.5,136c1-0.2,2.1-0.3,3.2-0.1c0.5,0.1,1,0.2,1.5,0.3c0.5,0.1,1,0.3,1.5,0.6c0.1,0.1,0.2,0.3,0.1,0.4
		c-0.1,0.1-0.2,0.2-0.3,0.2c-1-0.1-2-0.3-3-0.4s-2-0.2-3-0.3l0,0c-0.2,0-0.3-0.1-0.3-0.3C290.3,136.1,290.4,136,290.5,136z"></path><path class="st1" d="M295.9,146.2c-1,0-1.8-0.7-1.9-1.7c-0.1-0.5,0-1.1,0.4-1.5c0.6-0.6,1.3-0.9,2.1-0.9c0-1.7-0.1-3.3-0.3-5
		c0-0.3,0.2-0.5,0.4-0.6c0.3,0,0.5,0.2,0.6,0.4c0.3,1.9,0.4,3.7,0.3,5.6c0,0.3-0.2,0.5-0.5,0.5c-0.7,0-1.3,0.2-1.8,0.6
		c-0.2,0.2-0.2,0.4-0.2,0.7c0,0.5,0.5,0.9,1,0.9c0,0,0.1,0,0.1,0c0.8-0.1,1.4-0.7,1.4-1.4c0-0.3,0.2-0.5,0.5-0.5l0,0
		c0.3,0,0.5,0.2,0.5,0.5c-0.1,1.3-1.1,2.3-2.4,2.4L295.9,146.2z M296.9,142.5L296.9,142.5z"></path><path class="st1" d="M306.7,141.7c-0.1,0.9-0.7,1.6-1.3,1.5s-1-0.9-1-1.8c0-0.3,0.1-0.5,0.2-0.8l1,0.7l-0.3-1.4
		c0.1-0.1,0.3-0.1,0.5-0.1C306.4,140,306.8,140.8,306.7,141.7z"></path><path class="st1" d="M294.2,140.3c-0.1,0.9-0.7,1.6-1.3,1.5s-1-0.9-1-1.8c0-0.3,0.1-0.5,0.2-0.8l1,0.7l-0.4-1.4
		c0.1-0.1,0.3-0.1,0.5-0.1C293.9,138.6,294.3,139.4,294.2,140.3z"></path><path class="st1" d="M301.6,151.6c-1.6,0-3.2-1.2-4-2.1c-0.1-0.1-0.2-0.3-0.1-0.5c0.1-0.2,0.2-0.3,0.4-0.4l6.5-1
		c0.2,0,0.3,0,0.5,0.2c0.1,0.1,0.2,0.3,0.1,0.5c-0.5,1.8-1.4,2.9-2.6,3.2C302.1,151.5,301.8,151.6,301.6,151.6z M299,149.5
		c0.8,0.8,1.9,1.1,3,1c0.8-0.3,1.4-0.9,1.6-1.7L299,149.5z"></path></g><g id="character-3"><polyline class="st0" points="199.9,257 190.1,264.8 180.5,318.9 139,310.6 148.9,279.9 160.3,240.1 225.4,237.5 251.2,353.8 
		220.3,354.2 193.9,261.7 	"></polyline><path class="st1" d="M220.3,354.7c-0.2,0-0.4-0.1-0.5-0.4l-26.2-91.8l-3.1,2.4l-9.6,54c-0.1,0.3-0.3,0.4-0.6,0.4l-41.5-8.4
		c-0.1,0-0.3-0.1-0.3-0.2c-0.1-0.1-0.1-0.3,0-0.4l9.9-30.6l11.3-39.8c0.1-0.2,0.2-0.4,0.5-0.4l65-2.6c0.2,0,0.5,0.1,0.5,0.4
		l25.8,116.3c0,0.1,0,0.3-0.1,0.4c-0.1,0.1-0.2,0.2-0.4,0.2L220.3,354.7L220.3,354.7z M194.5,261.9l26.2,91.8l29.9-0.3L225,238
		l-64.3,2.6L149.4,280l-9.8,30.1l40.4,8.1l9.5-53.7c0-0.1,0.1-0.2,0.2-0.3l3.8-3l0,0l6-4.7c0.2-0.2,0.5-0.2,0.7,0s0.2,0.5,0,0.7
		c0,0,0,0-0.1,0.1L194.5,261.9z"></path><path class="st2" d="M190.8,163.1c17.8-1.5,24.2,8,27.5,12s9.9,13.2,9.9,13.2s-1.8-14.8-1.1-16s17-1.1,18.2,1.6s6.5,34.8,5.9,41.2
		s-16.9,13.7-27.3,5.1l5.1,16.4c0.7,2.3-0.5,4.7-2.7,5.5c-10.4,3.8-39.6,12.4-67,2.6c-1.9-0.7-3.1-2.6-2.9-4.6l2.7-30.9
		c0,0-11.8,11.7-26.6-1.9s-22.9-33.4-22.6-36.2s10.3-9.2,13.5-8s22.8,24.2,22.8,24.2s14.5-12.9,19.4-17
		C174.5,163.1,190.8,163.1,190.8,163.1z"></path><path class="st0" d="M231.9,175.2c-3.2-2.1-2.9-3.3-6.1-6c-1.3-1.2-3-1.9-4.8-2.1c-0.6,0-1.1-0.6-1-1.2c0-0.1,0-0.2,0-0.3
		c0.4-1.5,1.9-2.4,3.5-2c0,0,0,0,0.1,0c2.2,0.4,4.2,1.2,6.1,2.4c0,0-2.1-9.2-2.2-13.2s2-4.9,3.3-1.1c1,3.2,1.9,6.4,2.5,9.7
		c0,0,1.1-7.8,1.9-10.9s3.4-3.9,2.9,0.1s-0.5,10.3-0.5,10.3l1.4-0.2c0.9-3.1,2.2-6.1,3.6-9c1.9-3.2,3.8-0.5,2.4,3.6
		c-0.9,2.4-1.6,4.8-2.2,7.3c1.9-1.5,4.1-2.7,6.4-3.6c2.9-0.9,1.7,2.7-0.7,4.1c-1.4,0.8-2.6,1.9-3.5,3.2c0,0,1.8,6.1-3,8.9
		C241.8,175.3,234.3,177.1,231.9,175.2z"></path><path class="st1" d="M235.7,176.6c-1.4,0.1-2.9-0.2-4.1-1c-1.3-0.8-2.4-1.9-3.3-3.1c-0.8-1.1-1.8-2.1-2.9-2.9
		c-1.2-1.1-2.8-1.8-4.5-2c-0.5,0-1-0.3-1.3-0.7c-0.3-0.4-0.4-0.9-0.2-1.4c0.5-1.8,2.3-2.8,4-2.4c0,0,0,0,0,0
		c1.8,0.3,3.6,0.9,5.2,1.8c-0.9-4-1.6-8-2-12.1c-0.1-2.3,0.5-3.8,1.6-4c0.5-0.1,1.7,0,2.6,2.7c0.8,2.3,1.4,4.6,1.9,7
		c0.4-2.6,1-6.2,1.5-8.2s1.7-3.2,2.7-3c0.4,0.1,1.5,0.6,1.2,3.3c-0.4,3.2-0.5,8.1-0.5,9.7l0.5-0.1c0.9-3,2.1-6,3.6-8.8
		c1.2-2,2.2-1.7,2.6-1.5c1.3,0.6,1.5,3,0.6,5.5s-1.5,4.6-1.9,5.9c1.7-1.2,3.5-2.2,5.4-2.8c1.6-0.5,2.1,0.3,2.2,0.6
		c0.5,1.2-0.8,3.4-2.6,4.4c-1.3,0.7-2.4,1.7-3.2,2.9c0.3,1.2,1.2,6.6-3.3,9.3c0,0-0.1,0-0.1,0.1
		C239.9,176.2,237.8,176.5,235.7,176.6z M222.7,164.1c-1.1,0-2,0.7-2.2,1.8c-0.1,0.2,0,0.4,0.1,0.5c0.1,0.2,0.3,0.3,0.5,0.3
		c1.9,0.2,3.6,0.9,5.1,2.2c1.1,0.9,2.1,1.9,3,3.1c0.8,1.1,1.9,2.1,3.1,2.9l0,0c1.8,1.4,7.3,0.5,9.4,0c4.3-2.6,2.8-8.1,2.8-8.3
		c0-0.1,0-0.3,0-0.4c0.9-1.4,2.2-2.6,3.7-3.4c1.5-0.9,2.4-2.6,2.1-3.2c-0.1-0.2-0.6-0.2-1-0.1c-2.2,0.9-4.3,2-6.2,3.5
		c-0.2,0.1-0.4,0.1-0.6,0c-0.2-0.1-0.3-0.3-0.2-0.5c0.6-2.5,1.4-4.9,2.2-7.3c0.9-2.4,0.4-4-0.1-4.3c-0.3-0.1-0.8,0.2-1.4,1.1
		c-1.5,2.9-2.7,5.8-3.6,8.9c-0.1,0.2-0.2,0.3-0.4,0.4l-1.4,0.2c-0.1,0-0.3,0-0.4-0.1c-0.1-0.1-0.2-0.2-0.2-0.4
		c0-0.1,0.1-6.4,0.5-10.4c0.2-1.5-0.1-2.1-0.4-2.2s-1.2,0.7-1.6,2.2c-0.8,3.1-1.9,10.8-1.9,10.9c0,0.2-0.2,0.4-0.5,0.4
		c-0.2,0-0.4-0.2-0.5-0.4c-0.6-3.3-1.4-6.5-2.5-9.6c-0.6-1.6-1.2-2.1-1.5-2s-0.9,1-0.8,3c0.1,3.9,2.2,13,2.2,13.1
		c0,0.2,0,0.4-0.2,0.5c-0.2,0.1-0.4,0.1-0.6,0c-1.8-1.2-3.8-1.9-5.9-2.3C223.1,164.1,222.9,164.1,222.7,164.1L222.7,164.1z"></path><path class="st1" d="M243.3,163.8c-0.1,0-0.2,0-0.3-0.1c-4.2-2.8-8.1-3-12.1-0.6c-0.2,0.1-0.5,0.1-0.7-0.2c0,0,0,0,0,0
		c-0.1-0.2-0.1-0.5,0.2-0.7c0,0,0,0,0,0c4.3-2.6,8.7-2.4,13.2,0.6c0.2,0.1,0.3,0.4,0.2,0.7C243.6,163.7,243.5,163.8,243.3,163.8
		L243.3,163.8z"></path><path class="st1" d="M229.5,166.5c-0.2,0-0.3-0.1-0.4-0.2c-0.1-0.2-0.1-0.5,0.1-0.7c0,0,0,0,0,0c1.7-0.9,3.6-1.2,5.5-0.9
		c0.3,0,0.5,0.3,0.4,0.6c0,0.3-0.3,0.5-0.6,0.4c-1.6-0.3-3.3,0-4.8,0.7C229.7,166.5,229.6,166.5,229.5,166.5z"></path><path class="st1" d="M161,208.1c-0.2,0-0.3-0.1-0.4-0.2c-0.2-0.2-0.1-0.5,0.1-0.7c15.1-12.6,16.1-26.5,13.1-32.8
		c-0.1-0.2,0-0.5,0.2-0.7c0.2-0.1,0.5,0,0.7,0.2c0,0,0,0,0,0c3.2,6.6,2.3,21-13.3,34C161.2,208.1,161.1,208.1,161,208.1z"></path><path class="st1" d="M223.3,218.6c-0.2,0-0.4-0.2-0.5-0.4c0-0.2-4.7-19.1-11.5-38.3c-0.1-0.3,0-0.5,0.3-0.6s0.5,0,0.6,0.3l0,0
		c6.8,19.2,11.5,38.2,11.6,38.4c0.1,0.3-0.1,0.5-0.3,0.6c0,0,0,0,0,0L223.3,218.6z"></path><path class="st1" d="M232.4,207.8c-0.2,0-0.4-0.1-0.5-0.3c-3.8-11.2-4.3-16.5-4.3-16.7c0-0.3,0.2-0.5,0.4-0.6
		c0.3,0,0.5,0.2,0.6,0.5c0,0,0.5,5.4,4.3,16.5c0.1,0.3,0,0.5-0.3,0.6c0,0,0,0,0,0C232.5,207.8,232.5,207.8,232.4,207.8z"></path><path class="st0" d="M209.5,141.3c0,0,4.9-4.5,5.2-7.4c0-2-0.4-4.1-1.4-5.9c0,0-3.1-12.8-14.9-10c0,0-9.7-1.8-14.2,1.4
		c-2.2,1.5-4.2,3.2-6.1,5.1c0,0-7.1,1.6-7.9,6s-2.7,3.7-2.9,6.7s1.3,3.9,0.7,5.9s-1.3,3.6,0,5.2s3.2,2.6,2.2,4.1
		c-0.9,1.6-0.3,3.5,1.3,4.4c0.2,0.1,0.5,0.2,0.7,0.3c2.1,0.4,2.1,2.3,5.4,2.4s7.5-2.4,7.5-2.4L209.5,141.3z"></path><path class="st1" d="M177.8,160.1h-0.3c-1.4,0-2.8-0.5-3.8-1.5c-0.4-0.5-1-0.8-1.7-0.9c-1.1-0.2-2.1-1-2.5-2.1
		c-0.5-1.1-0.5-2.3,0.1-3.4c0.5-0.7,0.1-1.2-1-2.4c-0.4-0.4-0.7-0.8-1.1-1.2c-1.4-1.7-0.8-3.5-0.2-5.4l0.1-0.4
		c0.2-0.8,0.1-1.6-0.2-2.4c-0.4-1.1-0.6-2.3-0.5-3.5c0-1.1,0.5-2.1,1.2-2.9c0.9-1.1,1.5-2.4,1.6-3.8c0.8-4.4,7-6.1,8.1-6.4
		c1.9-1.8,3.9-3.5,6.1-5c4.4-3.2,13.3-1.8,14.5-1.6c11.6-2.7,15.2,9.4,15.4,10.4c0.9,1.9,1.4,4,1.4,6.1c-0.2,3.1-5.1,7.5-5.3,7.7
		l-0.1,0.1l-24.4,15.8C185.2,157.6,181.2,160.1,177.8,160.1z M192.4,117.9c-2.8,0-6,0.4-7.9,1.8c-2.1,1.5-4.2,3.2-6,5
		c-0.1,0.1-0.2,0.1-0.3,0.2c-0.1,0-6.8,1.6-7.5,5.6c-0.2,1.6-0.8,3-1.9,4.2c-0.6,0.6-1,1.5-1,2.4c-0.1,1.1,0.1,2.1,0.5,3.1
		c0.4,0.9,0.5,2,0.2,3l-0.1,0.4c-0.6,1.8-1,3.1,0,4.4c0.3,0.4,0.6,0.8,1,1.1c1,1,2.1,2.2,1.2,3.6c-0.4,0.7-0.4,1.6-0.1,2.4
		c0.3,0.8,0.9,1.3,1.7,1.5c0.8,0.2,1.6,0.6,2.1,1.1c0.8,0.8,2,1.3,3.2,1.3c3.1,0.1,7.2-2.3,7.2-2.4l24.4-15.8c1.4-1.2,4.8-4.8,5-7
		c0-2-0.4-3.9-1.3-5.6c0,0,0-0.1,0-0.1c-0.1-0.5-3.1-12.3-14.4-9.7c-0.1,0-0.1,0-0.2,0C196.4,118.1,194.4,118,192.4,117.9
		L192.4,117.9z M209.5,141.3L209.5,141.3z"></path><path class="st0" d="M180.9,156.1c0.4,5.4,0.3,11.8,0.3,11.8s1.9,5,7.3,4.8s5-4.8,4.9-5.7s-1.2-3.9-1.5-4.9
		S180.9,156.1,180.9,156.1z"></path><path class="st1" d="M188.3,173.2c-5.4,0-7.5-5-7.5-5.1c0-0.1,0-0.1,0-0.2c0-0.1,0.1-6.4-0.3-11.8c0-0.2,0.1-0.3,0.2-0.4
		c0.2-0.1,0.3-0.1,0.5,0c5,2.3,11,5.3,11.3,6.3c0.1,0.4,0.3,1.1,0.6,1.9c0.4,1,0.7,2,0.9,3.1c0.3,1.6-0.1,3.2-1.1,4.5
		c-1.1,1.2-2.7,1.8-4.3,1.8L188.3,173.2z M181.8,167.9c1.2,2.7,3.9,4.4,6.8,4.4c1.3,0.1,2.6-0.4,3.5-1.4c0.8-1.1,1.1-2.4,0.9-3.7
		c-0.2-1-0.5-1.9-0.9-2.9c-0.3-0.8-0.5-1.5-0.6-1.9c-0.4-0.6-5.2-3.1-10-5.3C181.8,161.8,181.8,167.1,181.8,167.9z"></path><path class="st0" d="M198.7,165c-13.5,1.9-21.9-13.6-21.9-13.6s-6.2,0.4-5.9-5.4c-0.1-2.1,1.6-3.9,3.7-4c0,0,0.1,0,0.1,0l2.7,7.5
		l2.5-0.1c0,0-1.4-3.3-1.1-4.5s2.6-5.4,10.8-6.2c2.7-0.3,4.8-2.1,6.3-4.2c2.5-0.1,4.7-1.2,6.3-3.1c2.2,2.2,4.8,3.9,7.7,5
		C212.4,149.2,210.4,163.4,198.7,165z"></path><path class="st1" d="M196.4,165.7c-11.3,0-18.7-11.8-19.9-13.7c-1.7,0-3.4-0.6-4.7-1.7c-1.1-1.1-1.6-2.7-1.5-4.3
		c-0.1-2.4,1.8-4.4,4.2-4.5c0,0,0,0,0.1,0l0,0c0.2,0,0.4,0.1,0.5,0.3l2.6,7.2l1.5-0.1c-0.4-1.1-1.1-3.1-0.9-4.1
		c0.3-1.6,3-5.8,11.2-6.6c2.2-0.2,4.2-1.6,6-4c0.1-0.2,0.2-0.3,0.4-0.3c2.3-0.1,4.5-1.1,6-2.9c0.1-0.1,0.2-0.2,0.4-0.2
		c0.1,0,0.3,0,0.4,0.1c2.1,2.1,4.7,3.8,7.5,4.9c0.2,0.1,0.3,0.2,0.3,0.4c1.9,10,0.9,18.7-2.8,23.9c-2.1,2.9-5.3,4.9-8.8,5.3l0,0
		C198.1,165.6,197.3,165.7,196.4,165.7z M198.7,165L198.7,165z M176.9,150.9c0.2,0,0.4,0.1,0.4,0.3c0.1,0.1,8.4,15.2,21.4,13.3l0,0
		c3.3-0.4,6.3-2.2,8.2-4.9c3.5-4.9,4.5-13.4,2.7-22.8c-2.7-1-5.1-2.6-7.2-4.7c-1.6,1.7-3.8,2.7-6.1,2.9c-1.9,2.6-4.1,4-6.5,4.2
		c-7.6,0.7-10,4.5-10.3,5.8c-0.2,0.8,0.6,3,1.1,4.2c0.1,0.1,0.1,0.3,0,0.5c-0.1,0.1-0.2,0.2-0.4,0.2l-2.5,0.1
		c-0.2,0-0.4-0.1-0.5-0.3l-2.6-7.2c-1.8,0.2-3,1.7-2.9,3.5c-0.1,1.3,0.3,2.6,1.1,3.5C173.8,150.5,175.3,151,176.9,150.9L176.9,150.9
		z"></path><path class="st1" d="M194.2,143.6c-0.5-0.2-1-0.4-1.5-0.5c-0.5-0.1-0.9-0.1-1.4-0.1c-0.5,0.1-0.9,0.2-1.4,0.4
		c-0.5,0.2-1,0.5-1.4,0.8l0,0c-0.2,0.1-0.6,0.1-0.7-0.2c-0.1-0.2-0.1-0.4,0-0.5c0.2-0.3,0.3-0.6,0.6-0.8c0.2-0.3,0.5-0.5,0.8-0.7
		c0.6-0.4,1.3-0.7,2-0.8c0.7-0.1,1.4,0,2.1,0.3c0.6,0.3,1.2,0.7,1.6,1.2c0.2,0.2,0.2,0.5,0,0.7c-0.1,0.1-0.3,0.2-0.5,0.1
		L194.2,143.6z"></path><path class="st1" d="M206.6,140.6c-0.2-0.1-0.4-0.2-0.7-0.2c-0.3,0-0.6-0.1-0.8-0.1c-0.6,0-1.1,0.1-1.7,0.3c-1.2,0.4-2.2,1-3.2,1.8
		l0,0c-0.2,0.2-0.5,0.1-0.7-0.1c0,0,0,0,0,0c-0.1-0.2-0.1-0.4,0-0.6c0.4-0.6,0.9-1.2,1.4-1.7c0.6-0.5,1.3-0.8,2-1.1
		c0.8-0.2,1.6-0.3,2.3-0.2c0.4,0.1,0.8,0.2,1.1,0.4c0.4,0.2,0.8,0.5,1,0.9c0.1,0.2,0.1,0.5-0.1,0.6c0,0,0,0,0,0
		c-0.1,0.1-0.3,0.1-0.4,0L206.6,140.6z"></path><path class="st1" d="M201.6,152.9c-1.5,0-2.8-1-3-2.5c0-0.3,0.2-0.5,0.4-0.5c0,0,0,0,0,0c0.3,0,0.5,0.2,0.6,0.4c0.2,1,1,1.6,2,1.6
		c0.7,0,1.2-0.5,1.3-1.2c0,0,0-0.1,0-0.1c0-0.3-0.1-0.7-0.3-0.9c-0.7-0.5-1.6-0.6-2.4-0.5c-0.3,0-0.5-0.1-0.6-0.4
		c-0.4-2.2-0.5-4.5-0.4-6.8c0-0.3,0.2-0.5,0.5-0.5l0,0c0.3,0,0.5,0.2,0.5,0.5c0,0,0,0,0,0c-0.1,2.1,0.1,4.1,0.4,6.2
		c1-0.1,1.9,0.2,2.7,0.8c0.5,0.4,0.7,1.1,0.6,1.7C203.9,151.9,202.9,152.9,201.6,152.9C201.7,152.9,201.7,152.9,201.6,152.9
		L201.6,152.9z"></path><path class="st1" d="M191.2,147.6c0.1,1.1,0.9,1.9,1.6,1.8s1.2-1.1,1.1-2.1c0-0.3-0.1-0.6-0.3-0.9l-1.2,0.9l0.4-1.7
		c-0.2-0.1-0.3-0.1-0.5-0.1C191.5,145.5,191,146.5,191.2,147.6z"></path><path class="st1" d="M203.2,144.7c0,1.1,0.7,1.9,1.5,1.9s1.3-0.9,1.3-2c0-0.3-0.1-0.6-0.2-0.9l-1.3,0.8l0.6-1.6
		c-0.2-0.1-0.3-0.1-0.5-0.1C203.7,142.7,203.1,143.6,203.2,144.7z"></path><path class="st1" d="M195.4,157.6h-0.2c-1.7-0.1-2.6-2-2.7-2.1c-0.1-0.2,0-0.5,0.2-0.7c0.2-0.1,0.5,0,0.7,0.2c0,0,0.8,1.5,1.9,1.6
		c0.7,0,1.5-0.4,2.3-1.5c0.2-0.2,0.5-0.3,0.7-0.1c0.2,0.2,0.3,0.5,0.1,0.7C197.7,156.8,196.6,157.5,195.4,157.6z"></path><path class="st0" d="M175.6,144.4c-1.3-0.3-2.7,0.5-3,1.8c0,0.1-0.1,0.3-0.1,0.5"></path><path class="st1" d="M172.5,147.2L172.5,147.2c-0.3,0-0.5-0.3-0.5-0.5c0,0,0,0,0,0c0.1-0.9,0.6-1.8,1.3-2.3
		c0.7-0.5,1.5-0.6,2.4-0.4c0.3,0.1,0.4,0.3,0.4,0.6c-0.1,0.3-0.3,0.4-0.6,0.4c0,0,0,0,0,0c-0.5-0.2-1.1-0.1-1.5,0.2
		c-0.5,0.4-0.8,1-0.9,1.6C173,147,172.8,147.2,172.5,147.2z"></path><path class="st2" d="M191.1,151.7h-0.2c-2.8,0-4.3-3.1-4.9-5c-0.2-0.5-0.1-1,0.1-1.4c0.3-0.4,0.7-0.7,1.2-0.8l8.9-1.7l0,0
		c1-0.2,1.9,0.5,2,1.4c0,0.1,0,0.1,0,0.2c0.1,1.3,0.1,2.7-0.2,4C197.5,150.4,194.7,151.7,191.1,151.7z M196.3,143.7l-8.9,1.7
		c-0.2,0-0.4,0.2-0.5,0.4c-0.1,0.2-0.1,0.4-0.1,0.6c0.5,1.6,1.8,4.3,4,4.3c3.2,0,5.8-1,6.2-2.6c0.2-1.2,0.3-2.5,0.1-3.7
		c0-0.2-0.1-0.4-0.3-0.5C196.8,143.7,196.5,143.7,196.3,143.7L196.3,143.7z"></path><path class="st2" d="M204.6,149.5h-0.2c-0.3,0-0.5-0.2-0.5-0.5c0,0,0,0,0,0c0-0.3,0.2-0.5,0.5-0.5c3.1,0.1,5.4-1,5.9-2.6
		c0.2-1.2,0.3-2.5,0.1-3.7c0-0.2-0.1-0.4-0.3-0.6c-0.1-0.1-0.3-0.2-0.5-0.1l-7.6,1.6c-0.3,0.1-0.5-0.1-0.6-0.4c0,0,0,0,0,0
		c-0.1-0.3,0.1-0.5,0.4-0.6c0,0,0,0,0,0l7.6-1.6c0.5-0.1,0.9,0,1.3,0.3c0.4,0.3,0.7,0.8,0.7,1.3c0.1,1.3,0.1,2.7-0.1,4
		C210.6,148.1,208,149.5,204.6,149.5z"></path><path class="st2" d="M197,146c-0.2,0-0.3-0.1-0.4-0.3c-0.1-0.2,0-0.5,0.2-0.7c0,0,0,0,0,0c0.1-0.1,3.1-1.6,5.1-0.2
		c0.2,0.2,0.3,0.5,0.1,0.7c0,0,0,0,0,0c-0.2,0.2-0.5,0.3-0.7,0.1c-1.5-1.1-4,0.2-4,0.3C197.2,146,197.1,146,197,146z"></path><path class="st2" d="M186.4,147.1L186.4,147.1l-6.9-1.1c-0.3,0-0.5-0.3-0.4-0.6c0,0,0,0,0,0c0-0.3,0.3-0.5,0.6-0.4c0,0,0,0,0,0
		l6.8,1.1c0.3,0.1,0.5,0.3,0.4,0.6C186.9,146.9,186.7,147.1,186.4,147.1z"></path><path class="st0" d="M124.9,166.9c-1.3-5.7,0.2-7.4-1.1-10.1s-5.2-5.1-6.3-5.6s-0.6,1.7-0.6,1.7l-4.8-9.1c-1.7-3.2-2.7-5.3-4-4.7
		s-0.4,4.7,4.3,14.4c0,0-3.1-1.7-3.6,1.6c0,0-4.1-1.1-3.2,3.5c0,0-3.7,0.7-3.2,3.3s4.1,6.5,6.1,7.2s4.3,4.7,4.3,4.7
		S120.5,172.2,124.9,166.9z"></path><path class="st1" d="M112.9,174.4c-0.2,0-0.3-0.1-0.4-0.2c-0.6-1.1-2.5-3.9-4.1-4.5c-2.2-0.8-6-4.9-6.5-7.6
		c-0.4-2.2,1.6-3.4,3.1-3.8c-0.3-1.1,0-2.2,0.7-3c0.7-0.6,1.7-0.8,2.6-0.6c0.1-0.7,0.6-1.3,1.2-1.7c0.6-0.2,1.2-0.3,1.8-0.2
		c-4.6-9.6-4.7-12.1-4.3-13.2c0.1-0.4,0.4-0.7,0.7-0.8c1.7-0.8,2.7,1.2,4.3,4.2l4.4,8.2c0.1-0.1,0.1-0.2,0.2-0.3
		c0.3-0.2,0.7-0.3,1-0.1c1.3,0.5,5.2,3,6.6,5.8c0.6,1.3,0.8,2.7,0.6,4.1c-0.1,2,0.1,4.1,0.5,6.1c0,0.2,0,0.3-0.1,0.4
		c-4.5,5.4-12,7.1-12.3,7.2L112.9,174.4z M107.8,155.6c-0.5,0-0.9,0.1-1.3,0.4c-0.5,0.4-0.6,1.3-0.4,2.6c0,0.3-0.1,0.5-0.4,0.6
		c-0.1,0-3.2,0.7-2.8,2.7c0.4,2.4,3.9,6.1,5.8,6.8s3.8,3.6,4.4,4.6c1.5-0.4,7.5-2.2,11.3-6.6c-0.4-2-0.6-4-0.5-6.1
		c0.2-1.2,0-2.5-0.5-3.6c-1.2-2.5-5-4.9-6-5.3c-0.1,0.4-0.1,0.8,0,1.1c0.1,0.3-0.1,0.5-0.4,0.6c-0.2,0-0.4-0.1-0.5-0.3l-5.2-9.8
		c-1.4-2.6-2.2-4.1-3-3.8c0,0-0.1,0.1-0.2,0.3c-0.3,1,0.2,4.2,4.8,13.5c0.1,0.2,0.1,0.4-0.1,0.6c-0.2,0.1-0.4,0.2-0.6,0.1
		c-0.6-0.4-1.4-0.4-2.1-0.2c-0.5,0.3-0.8,0.9-0.8,1.4c0,0.1-0.1,0.3-0.2,0.3c-0.1,0.1-0.3,0.1-0.4,0.1
		C108.3,155.6,108,155.6,107.8,155.6L107.8,155.6z"></path><path class="st1" d="M120.6,160.8c-0.2,0-0.4-0.1-0.4-0.3c-2.5-4.5-3.7-7.3-3.8-7.3c-0.1-0.2,0-0.5,0.2-0.7c0,0,0,0,0,0
		c0.3-0.1,0.6,0,0.7,0.2c0,0,1.3,2.8,3.7,7.2c0.1,0.2,0,0.5-0.2,0.7c0,0,0,0,0,0C120.8,160.7,120.7,160.8,120.6,160.8z"></path><path class="st1" d="M113.8,162.4c-0.7-0.1-1.4-0.3-2-0.7c-0.2-0.2-0.3-0.5-0.1-0.7c0.2-0.2,0.5-0.3,0.7-0.1l0,0
		c0.5,0.4,1,0.5,1.6,0.5c0.2,0,0.3-0.1,0.4-0.3c0.6-0.9-0.3-3.8-2-6.6c-0.1-0.2-0.1-0.5,0.1-0.7c0,0,0,0,0,0
		c0.2-0.1,0.5-0.1,0.7,0.2c1.2,2.1,3.1,6.1,1.9,7.7c-0.2,0.4-0.6,0.6-1.1,0.7C114,162.4,113.9,162.4,113.8,162.4z"></path><path class="st1" d="M110.2,163.9h-0.3c-0.3,0-0.5-0.3-0.4-0.6c0-0.3,0.3-0.5,0.6-0.4c0,0,1.2,0.1,1.5-0.8c0.3-1.1-0.7-4.2-2.8-6.1
		c-0.2-0.2-0.2-0.5,0-0.7c0,0,0,0,0,0c0.2-0.2,0.5-0.2,0.7,0c2.1,1.9,3.6,5.4,3,7.1C112.1,163.4,111.1,164,110.2,163.9z"></path><path class="st1" d="M109,166c-1.3,0-3.2-1.3-4.4-3.1c-0.2-0.2-0.1-0.5,0.1-0.7c0.2-0.2,0.5-0.1,0.7,0.1c1.3,1.9,3,2.8,3.7,2.7
		c0.1,0,0.2-0.1,0.3-0.2c0.3-1.2-1-4.2-3.4-5.2c-0.3-0.1-0.4-0.4-0.3-0.7c0.1-0.3,0.4-0.4,0.7-0.3c3,1.2,4.3,4.9,4,6.4
		c-0.1,0.5-0.5,0.9-1.1,1H109z"></path><path class="st1" d="M106.3,165.8c-0.1,0-0.3,0-0.3-0.1c-0.7-0.6-1.1-1.6-1-2.6c0-0.3,0.3-0.5,0.6-0.4c0,0,0,0,0,0
		c0.3,0,0.4,0.3,0.4,0.5c0,0,0,0,0,0c0,0.6,0.2,1.3,0.7,1.7c0.2,0.2,0.2,0.5,0,0.7c0,0,0,0,0,0C106.5,165.8,106.4,165.8,106.3,165.8
		z"></path><path class="st1" d="M115.5,158.8c-0.3,0-0.5-0.2-0.5-0.5c0-0.1,0.1-0.3,0.2-0.4c1-0.9,2.3-1.5,3.7-1.6l0,0c0.3,0,0.5,0.2,0.5,0.5
		s-0.2,0.5-0.5,0.5c-1.1,0.1-2.2,0.6-3,1.3C115.7,158.8,115.6,158.8,115.5,158.8z"></path></g><g id="character-2"><polyline class="st0" points="359.9,364 358.4,395.5 321.7,395.5 321.7,343.7 401.6,342.3 401.6,393.7 367.5,395.5 365.8,369 
		352.3,357.6 	"></polyline><path class="st1" d="M367.5,396c-0.3,0-0.5-0.2-0.5-0.5l-1.7-26.4l-5-4.2l-1.5,30.5c0,0.3-0.2,0.5-0.5,0.5h-36.6
		c-0.3,0-0.5-0.2-0.5-0.5v-51.8c0-0.3,0.2-0.5,0.5-0.5c0,0,0,0,0,0l79.8-1.4c0.1,0,0.3,0,0.4,0.1c0.1,0.1,0.2,0.2,0.1,0.4v51.4
		c0,0.3-0.2,0.5-0.5,0.5L367.5,396L367.5,396z M322.2,395h35.7l1.5-30.8L352,358c-0.2-0.2-0.2-0.5-0.1-0.7c0.2-0.2,0.5-0.2,0.7-0.1
		c0,0,0,0,0,0l7.6,6.4l0,0l5.9,5c0.1,0.1,0.2,0.2,0.2,0.4l1.7,26l33.1-1.8v-50.4l-78.8,1.4L322.2,395z"></path><path class="st2" d="M323.6,346.6h77.2c3.1,0,5.7-2.5,5.7-5.7c0-0.1,0-0.1,0-0.2c-0.5-13-2.2-43.9-8.4-59.8
		c-7.9-20.4-18.8-28.2-35.6-31.7s-36,2.6-43,22.4c-5.6,16.1-2.9,55.5-1.7,69.7C318.1,344.4,320.6,346.6,323.6,346.6z"></path><path class="st2" d="M330.4,256c0,0-15.4,11.6-26.8,45.4c-8.1,23.9,46.9,11.6,46.9,11.6l-4.1-13.4L330.4,256z"></path><path class="st0" d="M350.5,283.8c-2.9-4.6-4-7.1-4.3-9.7s-0.2-3.5-1.4-3.7s-1.7,3-1.7,3s-1.8-3.5-4-5.1s-10.1-4.9-10.1-4.9
		s-1.2,0.7,0.1,1.9s5.5,4.2,5.5,4.2s-6.9-1.4-8-1.4s-1.4,2.1,0.8,2.5c2.3,0.7,4.5,1.6,6.7,2.6c0,0-5.4-0.3-7-0.2s-2.2,2-0.1,2.3
		s5.3,1,5.3,1l-6.3,2.2c0,0-0.4,1.8,2.3,1.4s4.5-0.5,4.5-0.5c0.7,2.2,2.4,4,4.5,4.9c2.3,1.1,4.4,2.6,6.3,4.3c1.6,0,3.1-0.5,4.3-1.5
		C348.9,286.3,349.9,285.2,350.5,283.8z"></path><path class="st1" d="M343.7,289.2c-0.1,0-0.2,0-0.4,0c-0.1,0-0.2-0.1-0.3-0.2c-1.9-1.7-3.9-3.1-6.2-4.2c-2.1-1-3.7-2.7-4.6-4.9
		c-0.6,0.1-2.1,0.2-4.1,0.5c-0.9,0.2-1.8,0-2.5-0.6c-0.3-0.4-0.5-0.9-0.3-1.4c0-0.2,0.2-0.3,0.3-0.3l4.7-1.7
		c-1.1-0.2-2.4-0.5-3.5-0.6c-1.4-0.2-1.8-1-1.8-1.6c0.1-1,1-1.7,1.9-1.6c0.9,0,2.8,0,4.4,0.1c-1.3-0.6-2.7-1.1-4.2-1.5
		c-1.5-0.3-2.1-1.3-2-2.2c0-0.7,0.6-1.3,1.3-1.3l0,0c0.7,0,3.7,0.6,5.9,1c-1.3-1-2.9-2.2-3.7-2.9c-0.5-0.4-0.8-1-0.8-1.6
		c0.1-0.5,0.3-0.9,0.7-1.1c0.1-0.1,0.3-0.1,0.4,0c0.3,0.1,8,3.4,10.2,5c1.4,1.2,2.6,2.6,3.5,4.2c0.3-1,0.9-2.3,2-2.1
		c1.4,0.2,1.5,1.2,1.8,3c0,0.3,0.1,0.7,0.1,1.1c0.3,2.5,1.4,5,4.3,9.5c0.1,0.1,0.1,0.3,0.1,0.4c-0.6,1.5-1.7,2.7-3,3.6
		C346.7,288.5,345.2,289.1,343.7,289.2z M343.6,288.2c1.4,0,2.7-0.5,3.7-1.4c1.1-0.7,2-1.7,2.6-2.9c-2.8-4.5-4-7.1-4.3-9.7
		c0-0.4-0.1-0.8-0.1-1.1c-0.2-1.9-0.3-2.1-0.9-2.2c-0.4-0.1-1,1.3-1.1,2.6c0,0.3-0.3,0.5-0.6,0.4c-0.2,0-0.3-0.1-0.4-0.3
		c0,0-1.8-3.4-3.9-4.9c-1.9-1.4-8.3-4.1-9.7-4.8c0,0.1-0.1,0.1-0.1,0.2c0,0.2,0.1,0.5,0.5,0.8c1.3,1.2,5.4,4.1,5.4,4.2
		c0.2,0.1,0.3,0.4,0.2,0.6c-0.1,0.2-0.3,0.3-0.6,0.3c-2.8-0.6-7.1-1.4-7.9-1.4l0,0c-0.2,0-0.3,0.2-0.3,0.4c0,0.4,0.2,0.9,1.2,1.1
		c2.3,0.7,4.6,1.6,6.8,2.7c0.2,0.1,0.3,0.3,0.3,0.6c-0.1,0.2-0.3,0.4-0.5,0.4c-0.1,0-5.4-0.3-7-0.2c-0.5,0-0.9,0.3-1,0.7
		c0,0.3,0.3,0.5,0.9,0.6c2.1,0.3,5.3,1,5.3,1c0.2,0,0.4,0.2,0.4,0.5c0,0.2-0.1,0.4-0.3,0.5l-6,2.1c0,0.1,0.1,0.2,0.1,0.3
		c0.1,0.1,0.5,0.4,1.6,0.2c2.8-0.4,4.5-0.5,4.5-0.5c0.2,0,0.4,0.1,0.5,0.4c0.7,2,2.2,3.7,4.2,4.6C339.6,285,341.7,286.5,343.6,288.2
		z"></path><path class="st1" d="M336.9,270.5h-0.1l-2.4-0.5c-0.3-0.1-0.5-0.3-0.4-0.6c0.1-0.3,0.3-0.5,0.6-0.4l2.4,0.5c0.3,0,0.5,0.3,0.4,0.6
		S337.1,270.5,336.9,270.5L336.9,270.5z"></path><path class="st1" d="M335.5,273.8L335.5,273.8l-1.6-0.1c-0.3,0-0.5-0.2-0.5-0.5c0,0,0,0,0,0c0-0.3,0.2-0.5,0.5-0.5c0,0,0,0,0,0
		l1.6,0.1c0.3,0,0.5,0.2,0.5,0.5S335.9,273.8,335.5,273.8L335.5,273.8z"></path><path class="st1" d="M332.1,276.8c-0.2,0-0.4-0.1-0.5-0.4c-0.1-0.3,0.1-0.5,0.4-0.6l1.7-0.5c0.3-0.1,0.6,0.1,0.6,0.4
		s-0.1,0.6-0.4,0.6l-1.7,0.5L332.1,276.8z"></path><path class="st1" d="M345.5,277.7c-0.1,0-0.3-0.1-0.4-0.2c-0.9-1.2-1.8-2.5-2.5-3.9c-0.2-0.2-0.1-0.5,0.1-0.7
		c0.2-0.2,0.5-0.1,0.7,0.1c0,0,0,0,0,0.1c0.7,1.3,1.5,2.5,2.4,3.7c0.2,0.2,0.1,0.5-0.1,0.7C345.7,277.7,345.6,277.7,345.5,277.7z"></path><path class="st1" d="M375.3,310.5c-0.1,0-0.3-0.1-0.4-0.2c-4.7-5.5-8.9-11.4-12.5-17.6c-4.9-8.4-9-12-12.5-11.2
		c-0.3,0.1-0.5-0.1-0.6-0.4c-0.1-0.3,0.1-0.5,0.4-0.6c0,0,0,0,0,0c4-1,8.3,2.7,13.6,11.6c3.6,6.2,7.7,12,12.4,17.4
		c0.2,0.2,0.2,0.5,0,0.7C375.5,310.5,375.4,310.5,375.3,310.5L375.3,310.5z"></path><path class="st1" d="M372.1,306.7c-0.3,0-0.5-0.2-0.5-0.5c-0.1-1.4-1.5-34.8,3.4-39c0.2-0.2,0.5-0.2,0.7,0c0,0,0,0,0,0
		c0.2,0.2,0.2,0.5,0,0.7c0,0,0,0,0,0c-3.7,3.2-3.4,28.6-3,38.2C372.6,306.4,372.4,306.6,372.1,306.7
		C372.2,306.6,372.2,306.6,372.1,306.7L372.1,306.7z"></path><path class="st1" d="M375.5,337.8c-12.3,0-20.8-11.3-28.2-23.6c-4.4-7.2-11.2-20.2-8.1-25.8c0.1-0.2,0.4-0.3,0.7-0.2c0,0,0,0,0,0
		c0.2,0.1,0.3,0.4,0.2,0.7c-2.1,3.7,0.8,12.8,8.1,24.8c7.5,12.5,16.2,24,28.8,23c13.4-1,21.8-11.8,21.9-11.9
		c0.2-0.2,0.5-0.3,0.7-0.1s0.3,0.5,0.1,0.7c-0.1,0.1-8.7,11.2-22.6,12.3C376.5,337.7,376,337.8,375.5,337.8z"></path><path class="st0" d="M360.6,236c1.1,6,1.9,12.1,2.3,18.3c0.1,1.5-0.9,2.8-2.3,3.2c-3.1,1-6.5,0.9-9.6-0.2c-1.2-0.5-2-1.6-2-2.9
		l-0.1-7.2L360.6,236z"></path><path class="st1" d="M355.8,258.7c-1.7,0-3.4-0.3-5-1c-1.4-0.6-2.3-1.9-2.3-3.4l-0.1-7.2c0-0.1,0-0.3,0.1-0.4l11.7-11.2
		c0.1-0.1,0.3-0.2,0.5-0.1c0.2,0.1,0.3,0.2,0.3,0.4c1.1,6.1,1.9,12.2,2.3,18.3c0.1,1.7-1,3.3-2.6,3.8
		C359.1,258.4,357.5,258.7,355.8,258.7z M349.4,247.4l0.1,7c0,1.1,0.7,2,1.7,2.5c3,1.1,6.2,1.2,9.3,0.2c1.2-0.4,2-1.5,1.9-2.7
		c-0.4-5.8-1.1-11.6-2.1-17.3L349.4,247.4z"></path><path class="st0" d="M348.2,203.1c11.1-2.8,19.5,3.1,22.6,11.2s-0.1,16.8-0.1,16.8l-9.6,8.2l-29.9-13.8c0,0-4.5-1.6-2.5-8
		S340.8,195.3,348.2,203.1z"></path><path class="st1" d="M361.1,239.8c-0.1,0-0.1,0-0.2-0.1L331,225.9c0,0-4.9-1.9-2.8-8.6c1.5-5,7.7-15.2,14-16.6
		c2.3-0.6,4.6,0.2,6.2,1.9c11.7-2.8,19.9,3.8,22.9,11.6c3.1,8.2,0,16.8-0.1,17.1c0,0.1-0.1,0.2-0.1,0.2l-9.6,8.2
		C361.3,239.7,361.2,239.8,361.1,239.8z M343.7,201.5c-0.4,0-0.9,0.1-1.3,0.1c-5.9,1.4-11.8,11.3-13.2,16c-1.8,5.8,2.1,7.4,2.2,7.4
		l29.6,13.6l9.3-7.9c0.4-1.1,2.8-9,0-16.3s-10.7-13.7-22-10.9c-0.2,0-0.4,0-0.5-0.1C346.8,202.3,345.3,201.5,343.7,201.5
		L343.7,201.5z"></path><path class="st0" d="M372.5,231.6c0,6.1-6.5,5.4-6.5,5.4s-9.6,15.8-23.6,13.1c-12.2-2.3-13.7-14.3-10.5-27.5
		c4.3-3.6,11.7-8.4,11.7-8.4s5.5,10.4,11.7,12.4s8.7,2.3,8.9,3.5s-1.4,4.6-1.4,4.6l2.6,0.3l3.3-7.8c2.2,0.1,3.9,2,3.8,4.2
		C372.5,231.4,372.5,231.5,372.5,231.6z"></path><path class="st1" d="M345.5,250.9c-1.1,0-2.2-0.1-3.3-0.3c-3.9-0.6-7.4-2.8-9.6-6.1c-3.1-4.9-3.6-12.5-1.3-22
		c0-0.1,0.1-0.2,0.2-0.3c4.3-3.6,11.7-8.4,11.8-8.5c0.1-0.1,0.3-0.1,0.4-0.1c0.1,0,0.2,0.1,0.3,0.2c0,0.1,5.5,10.2,11.4,12.1
		c1.7,0.6,3.2,1,4.4,1.3c3.3,1,4.7,1.4,4.9,2.6c0.2,1.1-0.7,3.2-1.1,4.3l1.6,0.2l3.1-7.4c0.1-0.2,0.3-0.3,0.5-0.3
		c2.5,0.2,4.4,2.3,4.3,4.8c0,0,0,0,0,0.1c0.1,1.7-0.5,3.3-1.7,4.4c-1.4,1.1-3.2,1.7-5,1.5C365,239.4,357,250.9,345.5,250.9z
		 M332.3,222.9c-2.2,9.2-1.8,16.5,1.2,21.1c2,3.1,5.3,5.1,9,5.6c13.5,2.6,23-12.8,23.1-12.9c0.1-0.2,0.3-0.3,0.5-0.2
		c1.6,0.2,3.2-0.3,4.5-1.2c1-1,1.5-2.3,1.4-3.6c0-3-2.1-3.7-3-3.9l-3.1,7.4c-0.1,0.2-0.3,0.3-0.5,0.3l-2.6-0.3
		c-0.2,0-0.3-0.1-0.4-0.2c-0.1-0.1-0.1-0.3,0-0.5c0.6-1.2,1.5-3.5,1.3-4.3c-0.1-0.6-1.6-1.1-4.2-1.8c-1.2-0.4-2.6-0.8-4.4-1.3
		c-5.6-1.8-10.5-10-11.7-12.1C341.8,216,335.9,219.9,332.3,222.9L332.3,222.9z"></path><path class="st1" d="M347.3,228.2c1.1-1,2.7-1.3,4.1-0.9c0.7,0.2,1.4,0.6,1.9,1.1c0.2,0.3,0.5,0.5,0.7,0.9c0.2,0.3,0.3,0.6,0.4,0.9
		c0.1,0.3,0,0.6-0.3,0.7c-0.2,0.1-0.4,0-0.5-0.1l0,0c-0.4-0.4-0.8-0.8-1.3-1.1c-0.4-0.3-0.9-0.5-1.4-0.7c-0.5-0.1-1-0.2-1.5-0.2
		c-0.5,0-1.1,0.1-1.6,0.2h-0.1c-0.3,0.1-0.5-0.1-0.6-0.4c0,0,0,0,0,0C347.1,228.5,347.2,228.3,347.3,228.2z"></path><path class="st1" d="M334.9,223c0.3-0.3,0.7-0.6,1.2-0.7c0.4-0.1,0.8-0.2,1.2-0.2c0.8,0,1.6,0.2,2.4,0.6c0.7,0.3,1.4,0.8,1.9,1.4
		c0.5,0.6,0.9,1.3,1.2,2c0.1,0.3,0,0.5-0.3,0.7c0,0,0,0,0,0c-0.2,0.1-0.4,0-0.6-0.1l0,0c-0.9-1-1.9-1.8-3-2.4
		c-0.5-0.3-1.1-0.5-1.7-0.6c-0.3-0.1-0.6-0.1-0.9-0.1c-0.3,0-0.5,0-0.7,0.1h-0.2c-0.3,0.1-0.5-0.1-0.6-0.4
		C334.7,223.3,334.8,223.1,334.9,223z"></path><path class="st1" d="M339,237.4c-0.2,0-0.4,0-0.6-0.1c-1.3-0.2-2.1-1.4-1.9-2.6c0,0,0,0,0-0.1c0.1-0.6,0.4-1.2,0.9-1.6
		c0.9-0.5,2-0.6,3-0.4c0.7-2.1,1.1-4.2,1.5-6.3c0-0.3,0.3-0.5,0.6-0.4c0.3,0,0.5,0.3,0.4,0.6l0,0c-0.3,2.4-0.9,4.7-1.6,7
		c-0.1,0.2-0.3,0.4-0.6,0.3c-0.9-0.3-1.8-0.2-2.6,0.1c-0.3,0.2-0.5,0.5-0.5,0.9c-0.2,0.7,0.3,1.4,1,1.6c0,0,0.1,0,0.1,0
		c1,0.2,2.1-0.4,2.4-1.4c0.1-0.3,0.4-0.4,0.6-0.3c0.3,0.1,0.4,0.3,0.3,0.6c0,0,0,0,0,0C341.6,236.6,340.4,237.4,339,237.4z"></path><path class="st1" d="M350.3,233.7c-0.3,1.1-1.2,1.8-2,1.6s-1.1-1.3-0.8-2.4c0.1-0.3,0.3-0.6,0.5-0.8l1.1,1.1l-0.1-1.8
		c0.2-0.1,0.4-0.1,0.6,0C350.3,231.5,350.6,232.6,350.3,233.7z"></path><path class="st1" d="M338.3,228.6c-0.2,1.1-1.1,1.9-1.9,1.7s-1.2-1.2-1-2.3c0.1-0.3,0.2-0.6,0.4-0.9l1.2,1l-0.3-1.8
		c0.2-0.1,0.4-0.1,0.6,0C338.1,226.5,338.6,227.5,338.3,228.6z"></path><path class="st1" d="M346.9,243.9c-1.9-0.1-3.6-1-4.8-2.5c-0.1-0.1-0.1-0.3-0.1-0.5c0.1-0.2,0.2-0.3,0.4-0.3l7.6-0.7
		c0.1,0,0.3,0,0.4,0.1c0.1,0.1,0.2,0.2,0.2,0.4c0,1.5-0.9,2.8-2.3,3.3C347.9,243.8,347.4,243.9,346.9,243.9z M343.6,241.5
		c1.2,1.2,2.9,1.6,4.5,1.2c0.8-0.3,1.4-0.9,1.6-1.8L343.6,241.5z"></path><path class="st1" d="M339.7,316.6c-7.5,0-15-0.5-22.4-1.3c-0.3,0-0.5-0.3-0.4-0.6s0.3-0.5,0.6-0.4c0.2,0,17.1,2.1,31.4,1
		c0.3,0,0.5,0.2,0.5,0.4c0,0,0,0,0,0c0,0.3-0.2,0.5-0.5,0.5C345.9,316.5,342.8,316.6,339.7,316.6z"></path><path class="st1" d="M339.4,296L339.4,296l-13.9-1.4c-0.1,0-0.3-0.1-0.4-0.2c-0.1-0.1-0.2-0.2-0.1-0.4l4.1-14.4
		c0.1-0.3,0.4-0.4,0.6-0.4c0.3,0.1,0.4,0.4,0.4,0.6l-3.9,13.8l13.3,1.3c0.3,0,0.5,0.2,0.5,0.5S339.7,296.1,339.4,296L339.4,296z"></path></g><g id="character-1"><polyline class="st0" points="140.5,363.6 127.9,375 126.3,401.6 94.4,401.8 94.4,352 166.6,352 169.1,401.6 134.8,401.6 
		133.4,370 	"></polyline><path class="st1" d="M94.4,402.3c-0.1,0-0.3,0-0.3-0.1c-0.1-0.1-0.2-0.2-0.2-0.4V352c0-0.3,0.2-0.5,0.5-0.5h72.2
		c0.3,0,0.5,0.2,0.5,0.5l2.4,49.6c0,0.1,0,0.3-0.1,0.4c-0.1,0.1-0.2,0.2-0.4,0.2h-34.2c-0.3,0-0.5-0.2-0.5-0.5l-1.3-30.5l-4.6,4.1
		l-1.6,26.4c0,0.3-0.2,0.5-0.5,0.5L94.4,402.3L94.4,402.3z M94.9,352.5v48.8l30.9-0.2l1.6-26.1c0-0.1,0.1-0.3,0.2-0.3l12.6-11.4
		c0.2-0.2,0.5-0.2,0.7,0c0.2,0.2,0.2,0.5,0,0.7c0,0,0,0,0,0l-6.9,6.2l1.4,30.8h33.2l-2.4-48.6L94.9,352.5z"></path><path class="st0" d="M138.4,278.5c9-3.1,13.7-13,10.5-21.9c-0.2-0.5-0.4-1.1-0.7-1.6l-6.4-13.6l0.3-0.1c1.6-4.8,1.4-10.1-0.6-14.8
		c-3.4-7.8-9.9-8.1-13.1-5c0,0-14.6-1.8-22.1,7s-6.8,20.2-7.2,29.6l-0.2,34.4L138.4,278.5z"></path><path class="st1" d="M99.1,292.9c-0.1,0-0.2,0-0.3-0.1c-0.1-0.1-0.2-0.2-0.2-0.4l0.2-34.4c0.1-1.2,0.1-2.4,0.1-3.7
		c0.2-8.6,0.5-18.4,7.2-26.2c7.2-8.4,20.3-7.4,22.3-7.2c1.7-1.5,4.1-2.1,6.4-1.7c3.1,0.6,5.7,3.1,7.4,7c2.1,4.8,2.3,10.2,0.6,15.2
		c0,0.1-0.1,0.1-0.1,0.2l6.1,13.1c4.1,8.9,0.3,19.4-8.5,23.5c-0.5,0.2-1.1,0.5-1.6,0.7l-39.3,13.8L99.1,292.9z M125.4,221.8
		c-4.6,0-13.4,0.9-18.6,6.9c-6.4,7.5-6.7,17.1-6.9,25.6c0,1.2-0.1,2.5-0.1,3.7l-0.2,33.7l38.6-13.6l0.2,0.5l-0.2-0.5
		c8.7-3,13.3-12.6,10.2-21.3c-0.2-0.5-0.4-1.1-0.6-1.6l-6.4-13.6c-0.1-0.1-0.1-0.3,0-0.4c0.1-0.1,0.2-0.2,0.3-0.3h0.1
		c1.5-4.7,1.3-9.7-0.6-14.3c-1.5-3.6-3.9-5.8-6.7-6.4c-2-0.4-4.1,0.1-5.6,1.6c-0.1,0.1-0.3,0.1-0.4,0.1
		C128.5,222,127.2,221.8,125.4,221.8z"></path><path class="st2" d="M196.4,306.8c-0.5,0.1-12.6,4.8-17.4,6.3c0,0-10.9-23.2-23.7-34.9S112,262,96.3,277.3S72.9,323.6,73.8,334
		s10.4,14.8,19,12.7v7.2H169l-0.4-16.7c0,0,8.4,3.3,21.8-4.8c7.7-4.6,11.7-7.2,13.6-8.7c1.1-0.8,1.6-2.3,1.1-3.6
		C203.7,316.1,200.2,307.6,196.4,306.8z"></path><path class="st0" d="M117.1,305.4c3.1-4.9,4.3-7.6,4.6-10.4s0.2-3.8,1.5-3.9s1.8,3.2,1.8,3.2s1.9-3.8,4.3-5.5
		c2.4-1.7,10.8-5.3,10.8-5.3s1.3,0.8-0.1,2s-5.8,4.5-5.8,4.5s7.4-1.5,8.5-1.5s1.5,2.2-0.8,2.7c-2.5,0.7-4.8,1.7-7.1,2.8
		c0,0,5.8-0.3,7.5-0.3s2.4,2.1,0.1,2.5s-5.6,1.1-5.6,1.1l6.8,2.4c0,0,0.5,1.9-2.5,1.5s-4.8-0.5-4.8-0.5c-0.8,2.3-2.5,4.2-4.8,5.3
		c-2.5,1.2-4.7,2.8-6.8,4.6c-1.7,0.1-3.3-0.5-4.5-1.6C117.6,307,117.1,305.4,117.1,305.4z"></path><path class="st1" d="M124.3,311.1c-1.7-0.1-3.2-0.7-4.5-1.7c-2.7-2-3.2-3.8-3.2-3.8c-0.1-0.1-0.1-0.3,0-0.4c3-4.8,4.2-7.5,4.6-10.2
		c0.1-0.4,0.1-0.8,0.1-1.1c0.2-2,0.3-3,1.8-3.2c1.2-0.1,1.8,1.2,2.1,2.3c1-1.7,2.3-3.2,3.8-4.5c2.4-1.7,10.5-5.2,10.9-5.3
		c0.1-0.1,0.3-0.1,0.4,0c0.4,0.3,0.7,0.7,0.8,1.2c0,0.7-0.3,1.3-0.9,1.7c-0.9,0.8-2.7,2.1-4.1,3.2c2.3-0.5,5.6-1.1,6.4-1.1l0,0
		c0.7,0,1.3,0.6,1.4,1.4c0.1,0.9-0.5,2-2.1,2.3c-1.6,0.4-3.1,1-4.6,1.7c1.8-0.1,3.9-0.2,4.9-0.1c1,0,1.9,0.7,2,1.7
		c0,0.7-0.4,1.5-1.9,1.7c-1.2,0.2-2.7,0.5-3.9,0.7l5.1,1.8c0.2,0.1,0.3,0.2,0.3,0.4c0.1,0.5,0,1.1-0.4,1.5c-0.7,0.6-1.7,0.8-2.7,0.6
		c-2.1-0.3-3.7-0.4-4.4-0.5c-0.9,2.3-2.7,4.2-4.9,5.2c-2.4,1.2-4.6,2.7-6.6,4.5c-0.1,0.1-0.2,0.1-0.3,0.1
		C124.7,311,124.6,311.1,124.3,311.1z M117.7,305.4c0.7,1.2,1.6,2.3,2.8,3.1c1.1,0.9,2.5,1.5,4,1.5c2-1.8,4.3-3.4,6.8-4.6
		c2.1-1,3.7-2.8,4.5-5c0.1-0.2,0.3-0.4,0.5-0.4c0,0,1.9,0.1,4.9,0.5c0.9,0.1,1.5,0,1.8-0.3c0.1-0.1,0.1-0.2,0.1-0.4l-6.5-2.3
		c-0.2-0.1-0.3-0.3-0.3-0.5c0-0.2,0.2-0.4,0.4-0.5c0,0,3.4-0.8,5.6-1.1c0.6-0.1,1-0.4,1-0.7c-0.1-0.5-0.6-0.8-1.1-0.8
		c-1.6-0.1-7.4,0.3-7.4,0.3c-0.2,0-0.5-0.1-0.5-0.4c-0.1-0.2,0.1-0.5,0.3-0.6c2.3-1.1,4.8-2.1,7.3-2.9c1-0.2,1.3-0.8,1.3-1.2
		c0-0.2-0.2-0.5-0.4-0.5c-0.9,0-6.4,1.1-8.4,1.5c-0.3,0.1-0.5-0.1-0.6-0.4c0-0.2,0-0.4,0.2-0.5c0,0,4.4-3.2,5.8-4.5
		c0.4-0.3,0.5-0.6,0.5-0.8c0-0.1-0.1-0.2-0.1-0.3c-1.5,0.6-8.3,3.6-10.4,5.1c-2.3,1.6-4.1,5.3-4.1,5.3c-0.1,0.3-0.4,0.4-0.6,0.3
		c-0.2-0.1-0.4-0.3-0.4-0.5c-0.2-1.3-0.8-2.8-1.2-2.8l0,0c-0.7,0.1-0.8,0.3-1,2.3c0,0.3-0.1,0.7-0.1,1.1
		C121.9,297.9,120.7,300.6,117.7,305.4z M117.1,305.4L117.1,305.4z"></path><path class="st1" d="M131.6,291.1c-0.3,0-0.5-0.2-0.6-0.4c0-0.3,0.2-0.5,0.4-0.6l2.6-0.6c0.3-0.1,0.5,0.1,0.6,0.4c0,0,0,0,0,0
		c0.1,0.3-0.1,0.5-0.4,0.6c0,0,0,0,0,0l-2.6,0.6L131.6,291.1z"></path><path class="st1" d="M133.1,294.7c-0.3,0-0.5-0.2-0.5-0.5s0.2-0.5,0.5-0.5l1.7-0.1c0.3,0,0.5,0.2,0.5,0.5s-0.2,0.5-0.5,0.5
		L133.1,294.7L133.1,294.7z"></path><path class="st1" d="M136.7,297.8h-0.1l-1.8-0.5c-0.3-0.1-0.4-0.3-0.4-0.6c0,0,0,0,0,0c0.1-0.3,0.3-0.4,0.6-0.4c0,0,0,0,0,0
		l1.8,0.5c0.3,0.1,0.4,0.4,0.4,0.6C137.2,297.7,137,297.8,136.7,297.8z"></path><path class="st1" d="M122.4,298.8c-0.1,0-0.2,0-0.3-0.1c-0.2-0.2-0.2-0.5-0.1-0.7c0,0,0,0,0,0c0.9-1.3,1.8-2.6,2.6-4
		c0.1-0.2,0.5-0.3,0.7-0.2c0.2,0.1,0.3,0.5,0.2,0.7c-0.8,1.4-1.7,2.8-2.7,4.1C122.7,298.8,122.6,298.8,122.4,298.8z"></path><path class="st1" d="M91.9,323.7c-0.1,0-0.3-0.1-0.3-0.1c-0.2-0.2-0.2-0.5,0-0.7c0,0,0,0,0,0c0.1-0.1,10.8-10.6,15.2-15
		c4.6-4.6,8.4-6.5,10.6-5.1c0.2,0.1,0.3,0.5,0.2,0.7c-0.1,0.2-0.5,0.3-0.7,0.2c-1.7-1-5.2,0.8-9.4,5c-4.4,4.5-15.1,15-15.2,15
		C92.1,323.6,92,323.7,91.9,323.7z"></path><path class="st1" d="M99.2,316.4c-0.3,0-0.5-0.2-0.5-0.5l-1.3-16c0-0.3,0.2-0.5,0.4-0.5c0,0,0,0,0,0c0.3,0,0.5,0.2,0.5,0.4
		c0,0,0,0,0,0l1.3,16C99.7,316.2,99.5,316.4,99.2,316.4C99.2,316.4,99.2,316.4,99.2,316.4L99.2,316.4z"></path><path class="st1" d="M94.4,346.8c-0.3,0-0.5-0.2-0.5-0.5c0-0.2,0.1-0.4,0.3-0.5c6.8-3.6,15.7-11.8,23.3-21.4
		c6.9-8.7,8.2-11.4,6.7-13.6c-0.2-0.2-0.1-0.5,0.1-0.7c0,0,0,0,0,0c0.2-0.2,0.5-0.1,0.7,0.1c1.9,2.9,0.1,6.1-6.8,14.8
		c-7.8,9.9-16.6,18-23.6,21.7C94.6,346.8,94.5,346.8,94.4,346.8z"></path><path class="st1" d="M167.9,334.4c-0.3,0-0.5-0.2-0.5-0.5c-2.1-23.2-2.5-26.3-7.5-43.5c-0.1-0.3,0.1-0.5,0.3-0.6
		c0.3-0.1,0.5,0.1,0.6,0.3c5.1,17.2,5.5,20.4,7.6,43.6C168.4,334.1,168.2,334.4,167.9,334.4C167.9,334.4,167.9,334.4,167.9,334.4
		L167.9,334.4z"></path><path class="st0" d="M197.8,308.9c0.8-4,2.1-4.2,3.4-8.6c0.6-1.8,0.6-3.8,0.1-5.6c-0.2-0.6,0.1-1.3,0.8-1.6c0.1,0,0.2,0,0.3-0.1
		c1.6-0.3,3.2,0.9,3.4,2.5c0,0.1,0,0.1,0,0.2c0.5,2.3,0.6,4.7,0.1,7c0,0,8.3-5.8,12.2-7.6s5.6-0.1,2.5,2.8c-2.7,2.3-5.6,4.5-8.6,6.5
		c0,0,8.2-2.1,11.7-2.6s5.2,1.8,1.1,3s-10.5,3.7-10.5,3.7l0.7,1.3c3.5-0.3,7-0.4,10.5,0c4,0.6,2.1,3.6-2.6,3.8
		c-2.7,0.1-5.4,0.4-8.1,0.8c2.3,1.3,4.4,3,6.2,4.9c2,2.5-2,2.8-4.4,1c-1.3-1.1-2.9-1.8-4.6-2.1c0,0-5.3,4.2-10.1,0.6
		C201.8,318.8,197,313.8,197.8,308.9z"></path><path class="st1" d="M219.9,322c-1.3,0-2.6-0.5-3.7-1.3c-1.2-1-2.7-1.7-4.2-2c-1,0.7-6,3.9-10.6,0.5c-0.3-0.3-5-5.3-4.2-10.4l0,0
		c0.3-1.6,0.9-3.2,1.7-4.6c0.7-1.3,1.3-2.6,1.8-4.1c0.6-1.7,0.6-3.6,0.1-5.3c-0.2-0.5-0.1-1.1,0.2-1.5c0.3-0.4,0.8-0.7,1.3-0.8
		c1.9-0.3,3.7,1.1,4,3c0,0,0,0.1,0,0.1c0.4,2,0.5,4,0.3,6c2.3-1.6,8.1-5.5,11.3-7c2.2-1,4-1,4.6,0s0,2.2-1.6,3.7
		c-2,1.8-4.2,3.4-6.4,4.9c2.7-0.7,6.8-1.6,9-1.9s3.8,0.3,4,1.5c0.1,0.5,0,1.7-2.8,2.5c-3.4,1-8.3,2.9-9.9,3.5l0.3,0.5
		c3.4-0.3,6.8-0.3,10.3,0c2.4,0.4,2.6,1.5,2.6,2c-0.1,1.5-2.3,2.7-5.2,2.9s-5.3,0.4-6.7,0.6c1.9,1.2,3.6,2.6,5.1,4.3
		c1.1,1.4,0.6,2.1,0.3,2.4C221.1,321.9,220.5,322.1,219.9,322z M211.9,317.7L211.9,317.7c1.9,0.3,3.5,1.1,5,2.2
		c1.5,1.1,3.6,1.3,4.1,0.8c0.3-0.3-0.2-0.9-0.4-1.1c-1.8-1.9-3.8-3.5-6-4.8c-0.2-0.1-0.3-0.3-0.2-0.5c0-0.2,0.2-0.4,0.4-0.4
		c2.7-0.4,5.4-0.7,8.2-0.8c2.8-0.1,4.2-1.3,4.3-1.9c0-0.4-0.7-0.8-1.7-0.9c-3.4-0.3-6.9-0.3-10.3,0.1c-0.2,0-0.4-0.1-0.5-0.2
		l-0.7-1.3c-0.1-0.1-0.1-0.3,0-0.4c0-0.1,0.1-0.3,0.3-0.3c0.1,0,6.4-2.6,10.5-3.7c1.6-0.5,2.1-1,2-1.3s-1.1-0.9-2.9-0.7
		c-3.4,0.4-11.5,2.5-11.6,2.5c-0.2,0.1-0.5-0.1-0.6-0.3c-0.1-0.2,0-0.5,0.2-0.6c3-2,5.9-4.1,8.6-6.4c1.5-1.4,1.6-2.2,1.4-2.4
		s-1.3-0.5-3.4,0.4c-3.9,1.7-12.1,7.5-12.1,7.6c-0.2,0.1-0.4,0.1-0.6,0c-0.2-0.1-0.2-0.3-0.2-0.5c0.4-2.2,0.4-4.6-0.1-6.8
		c-0.1-1.4-1.4-2.4-2.8-2.3c0,0-0.1,0-0.1,0c-0.2,0-0.4,0.1-0.5,0.3c-0.1,0.2-0.2,0.4-0.1,0.6c0.6,1.9,0.6,4-0.1,5.9
		c-0.4,1.5-1.1,2.9-1.8,4.2c-0.8,1.3-1.3,2.8-1.6,4.3c-0.8,4.6,3.8,9.4,3.9,9.5c4.4,3.3,9.3-0.5,9.5-0.7
		C211.7,317.7,211.8,317.7,211.9,317.7L211.9,317.7z"></path><path class="st1" d="M214.3,315.9h-0.1c-0.3-0.1-0.4-0.3-0.4-0.6c0,0,0,0,0,0c1.1-5.3-0.3-9.4-4.4-12.3c-0.2-0.2-0.3-0.5-0.1-0.7
		c0.2-0.2,0.5-0.3,0.7-0.1l0,0c4.4,3.2,6,7.7,4.8,13.4C214.7,315.7,214.5,315.9,214.3,315.9z"></path><path class="st1" d="M208.9,308.1c-0.2,0-0.4-0.2-0.5-0.4c-0.4-1.8-1.3-3.4-2.7-4.5c-0.2-0.2-0.3-0.5-0.1-0.7
		c0.2-0.2,0.5-0.3,0.7-0.1c1.6,1.3,2.7,3.1,3.1,5.1c0.1,0.3-0.1,0.5-0.4,0.6c0,0,0,0,0,0L208.9,308.1z"></path><path class="st0" d="M112.4,257c0,6.7-0.7,14.6-0.7,14.6s1.9,6.2,8.6,6.5s6.6-5.4,6.5-6.6s-1.2-4.9-1.4-6.1S112.4,257,112.4,257z"></path><path class="st1" d="M120.7,278.5h-0.4c-6.9-0.2-9-6.8-9-6.8c0-0.1,0-0.1,0-0.2c0-0.1,0.6-7.9,0.7-14.5c0-0.2,0.1-0.3,0.2-0.4
		c0.2-0.1,0.3-0.1,0.5,0c4.8,2.7,13,7.4,13.2,8.7c0.1,0.5,0.3,1.4,0.6,2.4c0.4,1.3,0.6,2.5,0.8,3.8c0.2,1.9-0.4,3.9-1.7,5.4
		C124.3,278,122.5,278.6,120.7,278.5z M112.2,271.5c1.2,3.5,4.4,5.9,8.1,6c1.7,0.2,3.3-0.3,4.6-1.5c1.1-1.3,1.6-2.9,1.4-4.6
		c-0.2-1.2-0.5-2.4-0.8-3.6c-0.2-1-0.5-1.9-0.6-2.4c-0.4-0.8-6.3-4.4-12-7.6C112.8,263.9,112.3,270.5,112.2,271.5z"></path><path class="st0" d="M138.9,234.1c0,0,8.3,16.5,2.2,24.5s-23.8,9.1-30.5-1.7c0,0-3,4.5-6.6,0.7s-0.3-8.9,4.8-7.4
		c0,0,1.2-4.9,9.5-9.1c4.8-2.3,9-5.9,12.1-10.3C130.3,230.7,132.3,233.5,138.9,234.1z"></path><path class="st1" d="M126.4,265.2h-1.1c-6.3-0.3-11.7-3-14.8-7.5c-0.8,1-2,1.7-3.3,1.8c-1.4,0-2.8-0.6-3.6-1.7
		c-1.7-1.6-2.2-4.2-1-6.3c1.3-1.9,3.6-2.7,5.8-2.1c0.5-1.4,2.6-5.4,9.6-8.9c4.7-2.3,8.8-5.8,11.9-10.1c0.1-0.1,0.2-0.2,0.4-0.2
		c0.2,0,0.3,0.1,0.4,0.2c0,0,2,2.6,8.2,3.2c0.2,0,0.3,0.1,0.4,0.3c0.3,0.7,8.3,16.8,2.2,25C138.6,262.8,132.7,265.2,126.4,265.2z
		 M110.6,256.3L110.6,256.3c0.2,0,0.3,0.1,0.4,0.2c2.8,4.6,8.1,7.4,14.3,7.6s12.4-2,15.3-6c5.4-7.1-1.2-21.6-2.2-23.7
		c-4.9-0.5-7.2-2.2-8.1-3.1c-3.1,4.2-7.2,7.6-11.9,9.9c-8,4-9.2,8.7-9.2,8.8c0,0.1-0.1,0.2-0.2,0.3c-0.1,0.1-0.3,0.1-0.4,0
		c-1.9-0.7-4-0.1-5.1,1.6c-0.8,1.2-0.9,3.2,0.8,5.1c0.7,0.9,1.7,1.4,2.8,1.4c1.2-0.2,2.3-1,3-2C110.3,256.4,110.4,256.3,110.6,256.3
		z"></path><path class="st1" d="M124.1,244.5c-0.5-0.2-1-0.3-1.5-0.4c-0.5-0.1-0.9-0.1-1.4,0c-0.4,0.1-0.9,0.3-1.3,0.5
		c-0.4,0.3-0.9,0.5-1.3,0.9l0,0c-0.2,0.2-0.5,0.1-0.7-0.1c0,0,0,0,0,0c-0.1-0.1-0.1-0.3-0.1-0.5c0.1-0.3,0.3-0.6,0.5-0.8
		c0.2-0.3,0.4-0.5,0.7-0.7c0.5-0.5,1.2-0.8,1.9-0.9c1.4-0.2,2.8,0.2,3.8,1.3c0.2,0.2,0.2,0.5,0,0.7c0,0,0,0,0,0
		c-0.1,0.1-0.3,0.2-0.5,0.1L124.1,244.5z"></path><path class="st1" d="M138.6,239.7c-0.2-0.1-0.4-0.1-0.6-0.1c-0.3,0-0.5,0-0.8,0c-0.5,0-1.1,0.2-1.6,0.4c-1.1,0.5-2.1,1.1-3,1.9l0,0
		c-0.2,0.2-0.5,0.2-0.7,0c-0.1-0.2-0.2-0.4-0.1-0.6c0.3-0.6,0.7-1.2,1.3-1.7c0.5-0.5,1.2-0.9,1.9-1.1c0.7-0.3,1.5-0.4,2.2-0.3
		c0.4,0,0.8,0.1,1.1,0.3c0.4,0.2,0.8,0.4,1,0.8c0.1,0.2,0.1,0.5-0.1,0.6c0,0,0,0,0,0c-0.1,0.1-0.2,0.1-0.4,0.1L138.6,239.7z"></path><path class="st1" d="M134.5,251.9c-1.4,0-2.6-0.9-2.9-2.2c0-0.3,0.1-0.5,0.4-0.6c0.3,0,0.5,0.1,0.6,0.4c0.2,0.9,1.1,1.5,2,1.4
		c0.6,0,1.1-0.5,1.1-1.2c0,0,0-0.1,0-0.1c0-0.3-0.1-0.6-0.4-0.8c-0.7-0.4-1.5-0.5-2.3-0.4c-0.3,0-0.5-0.1-0.6-0.4
		c-0.5-2.1-0.7-4.3-0.8-6.5c0-0.3,0.2-0.5,0.5-0.5c0,0,0,0,0,0c0.3,0,0.5,0.2,0.5,0.5c0,0,0,0,0,0c0.1,2,0.3,3.9,0.7,5.9
		c0.9-0.1,1.9,0.1,2.6,0.6c0.5,0.4,0.7,1,0.7,1.6c0.1,1.2-0.8,2.2-2,2.3c0,0,0,0,0,0L134.5,251.9z"></path><path class="st1" d="M121.9,249.3c-0.1,1.1,0.4,2,1.1,2.1s1.4-0.7,1.6-1.8c0-0.3,0-0.6-0.1-0.9l-1.3,0.5l0.8-1.5
		c-0.1-0.1-0.3-0.2-0.5-0.2C122.8,247.5,122.1,248.3,121.9,249.3z"></path><path class="st1" d="M135.6,244.9c-0.2,1.1,0.2,2,0.9,2.2s1.5-0.6,1.7-1.6c0-0.3,0-0.6,0-0.9l-1.4,0.4l0.9-1.4
		c-0.1-0.1-0.3-0.2-0.5-0.3C136.6,243.1,135.8,243.8,135.6,244.9z"></path><path class="st1" d="M104.4,255L104.4,255c-0.3,0-0.5-0.3-0.5-0.6c0,0,0,0,0,0c0.1-0.9,0.5-1.7,1.2-2.2c0.9-0.5,2-0.7,3.1-0.5
		c0.3,0.1,0.5,0.3,0.4,0.6s-0.3,0.5-0.6,0.4c-0.8-0.2-1.6,0-2.3,0.3c-0.5,0.4-0.8,0.9-0.8,1.5C104.9,254.8,104.7,255,104.4,255z"></path><path class="st1" d="M107.5,257.1L107.5,257.1c-0.7-0.1-1.4-0.5-1.8-1.1c-0.7-1-0.9-2.2-0.7-3.4c0.1-0.3,0.3-0.4,0.6-0.4
		c0,0,0,0,0,0c0.3,0.1,0.4,0.3,0.4,0.6c-0.1,0.9,0.1,1.8,0.6,2.6c0.2,0.4,0.6,0.6,1.1,0.7c0.3,0,0.5,0.2,0.5,0.5
		S107.9,257.2,107.5,257.1L107.5,257.1z"></path><path class="st1" d="M127.5,258.5c-0.2,0-0.4,0-0.6,0c-1.4-0.3-2.5-1.5-2.5-3c0-0.3,0.2-0.5,0.4-0.6c0.3,0,0.5,0.2,0.6,0.4
		c0,1,0.8,1.9,1.7,2.1c1.1,0.1,2.2-0.5,2.7-1.6c0.1-0.2,0.4-0.3,0.7-0.2c0.2,0.1,0.3,0.4,0.2,0.7c0,0,0,0,0,0
		C130.1,257.6,128.9,258.4,127.5,258.5z"></path><path class="st2" d="M139.1,233.9c-5.3-6.8-9.3-7.2-9.3-7.2s-1.8-1.2,0.6-2.1s10,1.2,12,7.8c0,0,0.1,6.2-0.7,8.2L139.1,233.9z"></path><path class="st2" d="M108.3,248.6c5.1-13.8,19.6-21.6,19.6-21.6s-0.2-1.5-2.6-1.2s-13.9,8.1-17.2,14.4s-3,9-3,9
		C106.1,248.7,107.2,248.5,108.3,248.6z"></path><path class="st2" d="M125.6,225.1c-1.7-1.3-4-1.5-5.9-0.6c-1.1,0.5-1.3,0.3-1.3,0.3s3,2.7,4.9,2.6S125.6,225.1,125.6,225.1z"></path><path class="st2" d="M128.4,224.4c0.7-1.2,2-2.1,3.4-2.4c0.5-0.1,1-0.3,1.5-0.6c0,0-1,4-3,4.4c-0.7,0.3-1.5,0-1.8-0.7
		C128.4,224.8,128.3,224.6,128.4,224.4z"></path><path class="st2" d="M127.4,223.9c-2.5-0.2-3.8,2-3.2,3.2s3.7,1.5,5.2,1c1.1-0.3,2-1.2,2.4-2.3C132.1,225,129.4,223.4,127.4,223.9z
		"></path><path class="st1" d="M131.1,227.1c-0.1,0-0.2,0-0.3-0.1c-0.2-0.2-0.3-0.5-0.1-0.7c0.2-0.4,0.2-0.9-0.1-1.2
		c-0.2-0.2-0.1-0.5,0.1-0.7s0.5-0.1,0.7,0.1c0.6,0.7,0.6,1.7,0.1,2.4C131.4,227,131.3,227.1,131.1,227.1z"></path><path class="st1" d="M124.4,228.2c-0.2,0-0.3,0-0.4-0.2c-0.9-1-0.7-2.5,0.2-3.3c0,0,0,0,0,0c0.2-0.2,0.5-0.2,0.7,0
		c0.2,0.2,0.2,0.5,0,0.7c0,0,0,0,0,0c-0.6,0.5-0.7,1.4-0.2,1.9c0,0,0,0,0.1,0.1c0.2,0.2,0.1,0.5-0.1,0.7
		C124.6,228.1,124.5,228.2,124.4,228.2z"></path><path class="st1" d="M124,226.4L124,226.4c-1.4-0.2-2.8-0.5-4.1-1.1c-0.2-0.1-0.3-0.4-0.2-0.7c0,0,0,0,0,0c0.1-0.2,0.4-0.3,0.7-0.2
		c1.2,0.5,2.5,0.8,3.8,1c0.3,0,0.5,0.3,0.5,0.5S124.3,226.5,124,226.4L124,226.4z"></path><path class="st1" d="M130.2,224.7c-0.3,0-0.5-0.2-0.5-0.5c0-0.2,0.1-0.3,0.2-0.4c0.7-0.5,1.4-1.1,2-1.8c0.2-0.2,0.5-0.3,0.7-0.1
		c0.2,0.2,0.3,0.5,0.1,0.7c-0.7,0.7-1.4,1.4-2.2,1.9C130.5,224.6,130.3,224.7,130.2,224.7z"></path></g><g id="emoji-box"><path class="st0" d="M374.3,142.5H327c-0.4,0-0.7-0.3-0.7-0.7c0-0.1,0-0.3,0.1-0.4l3.5-4.4c0.3-0.4,0.5-0.8,0.5-1.3v-35.2
		c0-1.2,0.9-2.1,2.1-2.1h41.7c1.2,0,2.1,0.9,2.1,2.1v40C376.4,141.5,375.4,142.4,374.3,142.5z"></path><path class="st1" d="M374.3,143H327c-0.6,0-1.2-0.5-1.2-1.2c0-0.3,0.1-0.5,0.3-0.7l3.5-4.4c0.2-0.3,0.3-0.6,0.4-1v-35.2
		c0-1.4,1.2-2.6,2.6-2.6h41.7c1.4,0,2.6,1.2,2.6,2.6v40C376.9,141.8,375.7,143,374.3,143z M332.6,98.8c-0.9,0-1.6,0.7-1.6,1.6v35.2
		c0,0.6-0.2,1.2-0.6,1.6l-3.5,4.4c0,0.1,0,0.1,0,0.2c0,0.1,0.1,0.1,0.1,0.1h47.3c0.9,0,1.6-0.7,1.6-1.6v-39.9c0-0.9-0.7-1.6-1.6-1.6
		H332.6z"></path><circle class="st0" cx="353.8" cy="120.5" r="14.6"></circle><path class="st1" d="M353.8,135.6c-8.3,0-15.1-6.7-15.1-15.1s6.7-15.1,15.1-15.1s15.1,6.7,15.1,15.1c0,0,0,0,0,0
		C368.9,128.8,362.1,135.6,353.8,135.6z M353.8,106.4c-7.8,0-14.1,6.3-14.1,14.1s6.3,14.1,14.1,14.1c7.8,0,14.1-6.3,14.1-14.1
		c0,0,0,0,0,0C367.9,112.7,361.6,106.4,353.8,106.4z"></path><circle class="st1" cx="360.1" cy="117.4" r="2.4"></circle><circle class="st1" cx="347.6" cy="117.4" r="2.4"></circle><path class="st1" d="M346,123.6h15.6c0.4,0,0.7,0.3,0.7,0.7c0,0.1,0,0.1,0,0.2c-0.5,1.7-2.3,5.1-8.5,5.1s-8-3.4-8.5-5.1
		c-0.1-0.4,0.1-0.8,0.5-0.9C345.9,123.6,345.9,123.5,346,123.6z"></path></g><g id="text-box"><path class="st0" d="M168.6,135.5h-15.7c0.3,2.4,1.4,4.6,3.1,6.4c0.4,0.3,0.4,0.9,0.1,1.3c-0.2,0.2-0.5,0.3-0.7,0.3
		c-4.1-0.2-11.2-1.4-15.1-7.9h-29.1c-1.6,0-2.9-1.3-2.9-2.9V94.4c0-1.6,1.3-2.9,2.9-2.9h57.5c1.6,0,2.9,1.3,2.9,2.9v38.1
		C171.5,134.1,170.2,135.5,168.6,135.5z"></path><path class="st1" d="M155.3,143.9L155.3,143.9c-4.1-0.2-11.3-1.4-15.4-7.9h-28.9c-1.9,0-3.4-1.5-3.4-3.4V94.4
		c0-1.9,1.5-3.4,3.4-3.4h57.5c1.9,0,3.4,1.5,3.4,3.4v38.1c0,1.9-1.5,3.4-3.4,3.4h-15.2c0.4,2.1,1.3,4,2.8,5.5c0.4,0.4,0.6,1,0.3,1.6
		C156.4,143.6,155.8,143.9,155.3,143.9z M111.1,92c-1.3,0-2.4,1.1-2.4,2.4v38.1c0,1.3,1.1,2.4,2.4,2.4h29.1c0.2,0,0.3,0.1,0.4,0.2
		c3.8,6.3,10.8,7.5,14.6,7.7c0.2,0,0.3-0.1,0.4-0.2c0.1-0.2,0-0.3-0.1-0.4c-1.8-1.8-2.9-4.1-3.2-6.7c0-0.1,0-0.3,0.1-0.4
		c0.1-0.1,0.2-0.2,0.4-0.2h15.7c1.3,0,2.4-1.1,2.4-2.4V94.4c0-1.3-1.1-2.4-2.4-2.4H111.1z"></path><circle class="st2" cx="154.1" cy="112.9" r="3.1"></circle><path class="st1" d="M154.1,116.5c-2,0-3.6-1.6-3.6-3.6c0-2,1.6-3.6,3.6-3.6c2,0,3.6,1.6,3.6,3.6
		C157.8,114.9,156.1,116.5,154.1,116.5C154.1,116.5,154.1,116.5,154.1,116.5z M154.1,110.3c-1.4,0-2.6,1.2-2.6,2.6
		c0,1.4,1.2,2.6,2.6,2.6c1.4,0,2.6-1.2,2.6-2.6C156.7,111.5,155.6,110.3,154.1,110.3z"></path><circle class="st2" cx="139.8" cy="112.9" r="3.1"></circle><path class="st1" d="M139.8,116.5c-2,0-3.6-1.6-3.6-3.6c0-2,1.6-3.6,3.6-3.6c2,0,3.6,1.6,3.6,3.6l0,0
		C143.4,114.9,141.8,116.5,139.8,116.5z M139.8,110.3c-1.4,0-2.6,1.2-2.6,2.6c0,1.4,1.2,2.6,2.6,2.6c1.4,0,2.6-1.2,2.6-2.6l0,0
		C142.4,111.5,141.3,110.3,139.8,110.3z"></path><circle class="st2" cx="125.5" cy="112.9" r="3.1"></circle><path class="st1" d="M125.5,116.5c-2,0-3.6-1.6-3.6-3.6s1.6-3.6,3.6-3.6c2,0,3.6,1.6,3.6,3.6S127.5,116.5,125.5,116.5L125.5,116.5z
		 M125.5,110.3c-1.4,0-2.6,1.2-2.6,2.6s1.2,2.6,2.6,2.6c1.4,0,2.6-1.2,2.6-2.6S126.9,110.3,125.5,110.3
		C125.5,110.3,125.5,110.3,125.5,110.3z"></path></g><g id="text-box-2"><path class="st0" d="M99.4,252.1H85.3c0.3,2.2,1.3,4.2,2.8,5.7c0.3,0.3,0.3,0.8,0,1.1c-0.2,0.2-0.4,0.3-0.6,0.3
		c-3.7-0.1-10-1.3-13.5-7.1H47.9c-1.5,0-2.6-1.2-2.6-2.6l0,0v-34.1c0-1.5,1.2-2.6,2.6-2.6h0h51.5c1.5,0,2.6,1.2,2.6,2.6l0,0v34.2
		C102.1,251,100.9,252.1,99.4,252.1z"></path><path class="st1" d="M87.5,259.8L87.5,259.8c-3.6-0.1-10.1-1.3-13.8-7.1H47.9c-1.7,0-3.1-1.4-3.1-3.1v-34.1c0-1.7,1.4-3.1,3.1-3.1
		h0h51.5c1.7,0,3.1,1.4,3.1,3.1l0,0v34.2c0,1.7-1.4,3.1-3.1,3.1H85.9c0.3,1.8,1.2,3.5,2.5,4.8c0.5,0.5,0.5,1.3,0,1.9
		C88.2,259.6,87.9,259.7,87.5,259.8z M47.9,213.2c-1.2,0-2.1,1-2.1,2.1l0,0v34.2c0,1.2,1,2.1,2.1,2.1H74c0.2,0,0.3,0.1,0.4,0.2
		c3.4,5.7,9.6,6.7,13.1,6.9c0.1,0,0.3-0.1,0.3-0.2c0-0.1,0-0.3-0.1-0.3c-1.6-1.6-2.6-3.7-2.9-6c0-0.3,0.1-0.5,0.4-0.6
		c0,0,0.1,0,0.1,0h14.1c1.2,0,2.1-1,2.1-2.1v-34.1c0-1.2-1-2.1-2.1-2.1l0,0H47.9z"></path><path class="st1" d="M68.5,222.8h-15c-0.3,0-0.5-0.2-0.5-0.5c0-0.3,0.2-0.5,0.5-0.5h15c0.3,0,0.5,0.2,0.5,0.5
		S68.7,222.8,68.5,222.8z"></path><path class="st1" d="M92.7,229.5H53.5c-0.3,0-0.5-0.2-0.5-0.5c0-0.3,0.2-0.5,0.5-0.5h39.2c0.3,0,0.5,0.2,0.5,0.5
		S93,229.5,92.7,229.5z"></path><path class="st1" d="M92.7,236.1H53.5c-0.3,0-0.5-0.2-0.5-0.5c0-0.3,0.2-0.5,0.5-0.5h39.2c0.3,0,0.5,0.2,0.5,0.5
		S93,236.1,92.7,236.1z"></path><path class="st1" d="M92.7,242.8H53.5c-0.3,0-0.5-0.2-0.5-0.5s0.2-0.5,0.5-0.5h39.2c0.3,0,0.5,0.2,0.5,0.5S93,242.8,92.7,242.8z"></path></g><g id="dialog-box-2"><path class="st2" d="M434.2,201.9c0,16.8-11.9,31.2-28.4,34.4c-4.1,6.2-16.4,6.9-16.4,6.9c3-1.2,5.5-3.5,7-6.3
		c-19.3-1.5-33.7-18.4-32.1-37.7c1.5-19.3,18.4-33.7,37.7-32.1C420.3,168.4,434.3,183.6,434.2,201.9L434.2,201.9z"></path><path class="st1" d="M389.5,243.6c-0.3,0-0.5-0.1-0.6-0.4c0-0.3,0.1-0.5,0.4-0.6l0,0c2.6-1.1,4.8-3,6.3-5.4
		c-19.5-2-33.6-19.4-31.6-38.9s19.4-33.6,38.9-31.6c19.5,2,33.6,19.4,31.6,38.9c-1.6,15.5-13.1,28.1-28.4,31.2
		C401.9,242.8,390.1,243.5,389.5,243.6L389.5,243.6z M399.3,167.4c-19,0-34.5,15.4-34.5,34.5c0,18,13.8,32.9,31.7,34.4
		c0.2,0,0.3,0.1,0.4,0.2c0.1,0.1,0.1,0.3,0,0.5c-1.1,2.2-2.8,4-4.8,5.3c3.8-0.6,10.6-2.1,13.4-6.3c0.1-0.1,0.2-0.2,0.3-0.2
		c18.7-3.6,30.9-21.7,27.4-40.4C430,179.1,415.8,167.3,399.3,167.4L399.3,167.4z"></path><circle class="st0" cx="384.5" cy="201.9" r="3.7"></circle><path class="st1" d="M384.5,206c-2.3,0-4.2-1.9-4.2-4.2s1.9-4.2,4.2-4.2c2.3,0,4.2,1.9,4.2,4.2S386.8,206,384.5,206L384.5,206z
		 M384.5,198.7c-1.8,0-3.2,1.4-3.2,3.2s1.4,3.2,3.2,3.2c1.8,0,3.2-1.4,3.2-3.2C387.7,200.1,386.2,198.7,384.5,198.7L384.5,198.7z"></path><circle class="st0" cx="399.3" cy="201.9" r="3.7"></circle><path class="st1" d="M399.3,206c-2.3,0-4.2-1.9-4.2-4.2s1.9-4.2,4.2-4.2c2.3,0,4.2,1.9,4.2,4.2S401.6,206,399.3,206L399.3,206z
		 M399.3,198.7c-1.8,0-3.2,1.4-3.2,3.2s1.4,3.2,3.2,3.2c1.8,0,3.2-1.4,3.2-3.2C402.4,200.1,401,198.7,399.3,198.7L399.3,198.7z"></path><circle class="st0" cx="414" cy="201.9" r="3.7"></circle><path class="st1" d="M414,206c-2.3,0-4.2-1.9-4.2-4.2s1.9-4.2,4.2-4.2c2.3,0,4.2,1.9,4.2,4.2S416.3,206,414,206L414,206z
		 M414,198.7c-1.8,0-3.2,1.4-3.2,3.2s1.4,3.2,3.2,3.2c1.8,0,3.2-1.4,3.2-3.2C417.2,200.1,415.7,198.7,414,198.7L414,198.7z"></path></g></svg>