<?xml version="1.0" encoding="utf-8"?>
<!-- Generator: Adobe Illustrator 27.2.0, SVG Export Plug-In . SVG Version: 6.00 Build 0)  -->
<svg version="1.1" id="Layer_1" xmlns="http://www.w3.org/2000/svg" xmlns:xlink="http://www.w3.org/1999/xlink" x="0px" y="0px"
	 viewBox="0 0 1280 396" style="enable-background:new 0 0 1280 396;" xml:space="preserve">
<style type="text/css">
	.st0{fill:#FFFFFF;}
	.st1{fill:#732A09;}
	.st2{fill:#D13F3F;}
	.st3{fill:#F05454;}
	.st4{fill:#F35454;}
</style>
<g>
	<g>
		<g id="character_00000121247136012853302480000004674931350209797540_">
			<path class="st0" d="M1113.9,302.4l2.1,5.8l-11-0.6l-10.7-4.7l-3.3-7.7l5.4-58.6l17.9,4.9c0,0-7,51.8-6,54.7
				C1109.3,299,1113.9,302.4,1113.9,302.4L1113.9,302.4z"/>
			<path class="st1" d="M1105,308c-0.1,0-0.1,0-0.2,0l-10.7-4.7c-0.1,0-0.2-0.1-0.2-0.2l-3.3-7.7c0-0.1,0-0.1,0-0.2l5.4-58.6
				c0-0.1,0.1-0.2,0.2-0.3s0.2-0.1,0.3,0l17.9,4.9c0.2,0,0.3,0.2,0.3,0.4c-2,14.4-6.8,52.2-6.1,54.5c0.9,2.7,5.4,6.1,5.5,6.1
				c0.1,0,0.1,0.1,0.1,0.2l2.1,5.8c0,0.1,0,0.2-0.1,0.3c-0.1,0.1-0.2,0.2-0.3,0.1L1105,308L1105,308z M1115.4,307.9l-1.9-5.2
				c-0.7-0.5-4.7-3.6-5.6-6.4c-1-2.8,5.3-49.8,6-54.5l-17.1-4.7l-5.4,58.1l3.2,7.5l10.5,4.6L1115.4,307.9L1115.4,307.9z"/>
			<path class="st0" d="M1214.4,32.1c1.2-0.5,2.5-1.3,3.7-2.6c0.9-1,1.3-2.1,1.4-3.1c0.3-2.5-0.9-4.9-1-5
				c0.4,0.3,13.5,11.1,18.5,15.3c5.2,4.3,19.5,14.9,24,18.2c0.9,0.7,1.4,1.8,1.1,2.9c-1.3,4.8-5.2,5.8-7.5,6c-1,0.1-2-0.3-2.6-1.1
				c-3.2-3.8-7-6.7-7-6.7s-9-4-9.4-4.2c-0.3-0.2-4.8-6.7-4.8-6.7l-19.4-12.3C1211.3,32.8,1212.6,32.8,1214.4,32.1z"/>
			<path class="st1" d="M1254.1,64.1c-1-0.1-1.9-0.5-2.5-1.2c-3-3.5-6.5-6.3-7-6.6c-1.1-0.5-9-4-9.3-4.2c-0.1-0.1-0.4-0.2-4.9-6.7
				l-19.4-12.2c-0.1-0.1-0.2-0.3-0.2-0.4s0.2-0.3,0.4-0.3c0,0,1.3,0,2.9-0.7c1.4-0.6,2.6-1.4,3.6-2.5c0.7-0.8,1.2-1.8,1.3-2.9
				c0.3-2.4-0.9-4.7-0.9-4.8c-0.1-0.2,0-0.3,0.1-0.5c0.2-0.1,0.4-0.1,0.5,0c0.4,0.3,13.3,11,18.5,15.3c5.5,4.5,20.9,16,24,18.2
				c1.1,0.8,1.5,2.1,1.2,3.2c-1.3,5-5.5,6.1-7.9,6.3C1254.5,64.1,1254.3,64.1,1254.1,64.1L1254.1,64.1z M1219.5,22.6
				c0.3,1,0.6,2.4,0.4,3.8c-0.2,1.3-0.7,2.4-1.5,3.3c-1.1,1.2-2.4,2.1-3.9,2.7c-0.8,0.3-1.6,0.5-2.1,0.6l18.6,11.7
				c0,0,0.1,0.1,0.1,0.1c1.6,2.4,4.3,6.2,4.6,6.5c0.3,0.1,5.7,2.6,9.3,4.1c0,0,0.1,0,0.1,0c0,0,3.9,3,7.1,6.8c0.6,0.7,1.4,1,2.3,0.9
				c2.2-0.2,6-1.1,7.2-5.7c0.2-0.9-0.1-1.9-0.9-2.5c-3-2.3-18.5-13.7-24-18.3C1232.5,33.3,1222.9,25.4,1219.5,22.6L1219.5,22.6z"/>
			<path class="st1" d="M1212.2,24.2c3.2-4,6.3-2.9,6.3-2.9l0,0c0.1,0.2,1.3,2.5,1,5l-3.8-2.4c0,0-4,4.7-1.4,8.2
				c-1.7,0.7-3,0.7-3,0.7S1209.1,28.2,1212.2,24.2z"/>
			<path class="st1" d="M1211.3,33.2c-0.1,0-0.3-0.1-0.3-0.2c-0.1-0.2-2.3-4.8,1-9c3.3-4.2,6.6-3.1,6.8-3c0.1,0,0.1,0.1,0.2,0.1
				c0,0,0,0.1,0.1,0.1c0.1,0.3,1.3,2.6,1,5.2c0,0.1-0.1,0.2-0.2,0.3c-0.1,0.1-0.3,0-0.4,0l-3.4-2.2c-0.8,1-3.2,4.7-1.1,7.4
				c0.1,0.1,0.1,0.2,0.1,0.3c0,0.1-0.1,0.2-0.2,0.2C1212.8,33.2,1211.4,33.2,1211.3,33.2C1211.3,33.2,1211.3,33.2,1211.3,33.2
				L1211.3,33.2z M1213.8,31.9c-2.2-3.6,1.5-8,1.7-8.2c0.1-0.2,0.4-0.2,0.5-0.1l3.2,2c0.1-1.9-0.7-3.6-0.9-4.1
				c-0.6-0.1-3.1-0.5-5.7,2.8c-2.6,3.3-1.4,7.1-1,8C1212,32.4,1212.8,32.3,1213.8,31.9L1213.8,31.9z"/>
			<path class="st0" d="M1213.4,63.8l12.5,7.2l9.3-11.4c6.2-0.4,9.7-3.6,9.7-3.6c-1.9-2.8-14.1-10.8-14.1-10.8c1-7.2-1-8-2.6-6.9
				c-1.6,1.1-2.5,10.5-3.9,12.5C1222.9,52.7,1213.4,63.8,1213.4,63.8L1213.4,63.8z"/>
			<path class="st1" d="M1225.9,71.3c-0.1,0-0.1,0-0.2-0.1l-12.5-7.2c-0.1-0.1-0.2-0.1-0.2-0.3c0-0.1,0-0.2,0.1-0.3
				c0.1-0.1,9.5-11.1,10.8-13.1c0.6-0.9,1.1-3.3,1.7-5.7c0.9-3.8,1.4-6.2,2.3-6.8c0.7-0.5,1.5-0.6,2.1-0.3c1.3,0.7,1.7,3.2,1.1,7.3
				c1.6,1.1,12.3,8.2,14.1,10.8c0.1,0.1,0.1,0.3-0.1,0.5c-0.1,0.1-3.6,3.2-9.8,3.7l-9.2,11.3C1226.1,71.3,1226,71.3,1225.9,71.3
				L1225.9,71.3z M1244.4,55.9c-2.3-2.9-13.7-10.4-13.8-10.5c-0.1-0.1-0.2-0.2-0.2-0.3c0.8-5.5-0.4-6.6-0.7-6.8
				c-0.4-0.2-1,0-1.2,0.2c-0.7,0.5-1.5,3.8-2,6.4c-0.6,2.6-1.1,5-1.8,6c-1.2,1.8-9,10.9-10.6,12.8l11.8,6.8l9.1-11.2
				c0.1-0.1,0.2-0.1,0.3-0.1C1240.3,58.8,1243.5,56.6,1244.4,55.9L1244.4,55.9z"/>
			<path class="st1" d="M1147.5,65.4l-42.7,9c0,0-20.9-5.1-21.3-8.4c-0.4-3.3,12.4-29.7,16-32.8s17.3-2.6,31,1.7s26.7,9.5,28.2,13.3
				S1147.5,65.4,1147.5,65.4L1147.5,65.4z"/>
			<path class="st1" d="M1104.8,74.8C1104.8,74.8,1104.7,74.8,1104.8,74.8c-0.1,0-5.4-1.3-10.6-3c-10.8-3.4-11-5.2-11-5.7
				c-0.4-3.4,12.5-30,16.1-33.1c3.9-3.3,18-2.6,31.4,1.7c9.9,3.1,26.7,9,28.5,13.5c1.5,3.9-10,16.2-11.3,17.6
				c-0.1,0.1-0.1,0.1-0.2,0.1l-42.7,9C1104.9,74.8,1104.8,74.8,1104.8,74.8L1104.8,74.8z M1147.3,65.1c3.6-3.8,12.3-13.9,11.1-16.7
				c-1.2-3.1-11.4-7.8-28-13c-14.3-4.5-27.3-4.6-30.6-1.8c-3.4,2.9-16.2,29.3-15.9,32.5c0.3,2.2,12.9,6.1,20.9,8L1147.3,65.1
				L1147.3,65.1z"/>
			<path class="st0" d="M1134.5,50.8c3.7,3.3,9.3,5.3,12.7,9.4c3.3,4.1,7.1,14.5,5.5,21.4s0.6,12.6,0.6,12.6s-56,7.1-55.7-0.8
				s3.2-10.5,2.9-16.7c-0.2-6.2,0.5-12,1.6-17.3C1113.5,46.9,1134.5,50.8,1134.5,50.8z"/>
			<path class="st1" d="M1108.1,97.3c-4.8-0.3-8.6-0.9-10.1-2.2c-0.6-0.5-0.9-1.1-0.9-1.8c0.2-4,1-6.7,1.7-9.1
				c0.7-2.4,1.4-4.5,1.2-7.6c-0.3-6.7,0.7-12.8,1.6-17.4c0-0.1,0-0.1,0.1-0.2c11.5-12.4,32.6-8.6,32.8-8.6c0.1,0,0.1,0.1,0.2,0.1
				c1.5,1.4,3.4,2.5,5.3,3.7c2.7,1.6,5.4,3.3,7.4,5.7c3.3,4.1,7.2,14.6,5.6,21.7c-1.5,6.8,0.6,12.3,0.6,12.4c0,0.1,0,0.2,0,0.3
				c-0.1,0.1-0.2,0.2-0.3,0.2C1151.7,94.7,1124,98.2,1108.1,97.3L1108.1,97.3z M1152.7,93.8c-0.5-1.4-1.8-6.4-0.5-12.4
				c1.5-6.9-2.2-17.1-5.4-21.1c-1.9-2.3-4.6-3.9-7.2-5.5c-1.9-1.1-3.8-2.3-5.4-3.7c-1.7-0.3-21.1-3.2-31.9,8.3
				c-0.9,4.6-1.8,10.6-1.5,17.2c0.1,3.2-0.6,5.4-1.3,7.8c-0.7,2.3-1.5,5-1.7,8.9c0,0.4,0.2,0.8,0.6,1.2
				C1104.6,99.6,1147.7,94.5,1152.7,93.8L1152.7,93.8z"/>
			<path class="st1" d="M1072,140.9c1.3-2.5,2.6-4.9,3.7-7.3c-0.1,0.1-1.4,1.3-3.5,2.9l1.7-30.8c3.2-1.9,6.8-4,10.5-6.6
				c3.8-2.6,7.7-4.6,11.6-6.1c14.1-5.3,27.8-4.3,32-3.8c15,1.4,26.5,4.3,36.2,4.3c6,0,11.4-1,16.5-4.2c9.2-5.7,20.6-17.6,26.8-24.4
				c2.7-3,4.4-5,4.4-5l23.1,16.2c0,0-1.4,1.9-3.9,5c-7,8.7-22.6,26.6-39.2,35c-22.4,11.4-33.8,12.4-33.8,12.4s-15.7,58.4-24.8,111.7
				c-0.5,3.2-1.1,6.4-1.6,9.5c0,0-29.4-1.9-64.8-22.2L1072,140.9z"/>
			<path class="st1" d="M1075.5,133.3c0.1-0.1,0.3-0.1,0.5,0c0.2,0.1,0.2,0.3,0.1,0.5c-1.3,2.6-2.6,5.3-4.1,8l0.1-1.8
				c0.9-1.6,1.7-3.2,2.5-4.8c-0.6,0.5-1.4,1.1-2.3,1.9l0.1-1C1074.1,134.5,1075.3,133.5,1075.5,133.3z"/>
			<path class="st1" d="M1067.2,227.3c33,18.8,60.9,21.9,64.4,22.3c0.6-3.5,1-6.4,1.5-9.2c9-52.7,24.6-111.2,24.8-111.8
				c0-0.2,0.2-0.3,0.3-0.3c0.1,0,11.5-1.1,33.6-12.4c16.2-8.3,31.5-25.4,39.1-34.9c1.9-2.4,3.2-4.1,3.7-4.7L1212,60.6
				c-0.6,0.7-2.1,2.4-4.2,4.7c-6.1,6.7-17.7,18.7-26.9,24.4c-4.7,2.9-10,4.3-16.7,4.2c-5.5,0-11.5-0.9-18.4-2
				c-5.3-0.8-11.3-1.7-17.8-2.3c-5.1-0.6-18.3-1.3-31.8,3.8c-4.2,1.6-8.1,3.6-11.6,6c-3.8,2.6-7.4,4.8-10.7,6.7l0.1-0.9
				c3.2-1.8,6.6-3.9,10.2-6.4c3.6-2.5,7.5-4.5,11.7-6.1c13.6-5.2,27.1-4.4,32.2-3.8c6.6,0.6,12.6,1.5,17.9,2.3c6.9,1,12.9,2,18.3,2
				c6.6,0,11.6-1.2,16.2-4.1c9.2-5.7,20.7-17.7,26.7-24.3c2.7-3,4.4-4.9,4.4-5c0.1-0.2,0.4-0.2,0.6-0.1l23.1,16.2
				c0.2,0.1,0.2,0.3,0.1,0.5c0,0-1.4,2-3.9,5c-7.7,9.5-23,26.8-39.3,35.1c-20.3,10.4-31.7,12.2-33.6,12.4
				c-1.1,4.2-16,60.5-24.7,111.5c-0.5,2.8-1,5.9-1.6,9.5c0,0.2-0.2,0.3-0.4,0.3l0,0c-0.1,0-13.4-0.9-32.5-7.5
				c-8.9-3.1-20.1-7.7-32.2-14.7L1067.2,227.3z"/>
			<path class="st2" d="M1128.1,89.3c15,1.4,26.5,4.3,36.2,4.3c-2.5,6-11.9,23.1-37.6,20.2c-23-2.5-29-14.6-30.6-20.7
				C1110.2,87.7,1123.9,88.8,1128.1,89.3z"/>
			<path class="st1" d="M1129.5,114.4c-0.9-0.1-1.9-0.1-2.8-0.2c-22.9-2.5-29.2-14.3-31-21c0-0.2,0.1-0.4,0.2-0.4
				c13.6-5.2,27.1-4.4,32.2-3.8c6.6,0.6,12.6,1.5,17.9,2.3c6.9,1,12.9,2,18.3,2c0.1,0,0.3,0.1,0.3,0.2c0.1,0.1,0.1,0.2,0,0.3
				C1162.5,99,1153.6,115.8,1129.5,114.4L1129.5,114.4z M1145.9,92c-5.3-0.8-11.3-1.7-17.8-2.3c-5-0.6-18.1-1.3-31.5,3.7
				c1.8,6.6,8.2,17.7,30.2,20.2c24.9,2.7,34.4-13.6,36.9-19.5C1158.4,93.9,1152.6,93,1145.9,92z"/>
			<path class="st3" d="M1212,60.1l23.1,16.2c0,0-1.4,1.9-3.9,5c-4.3-3.7-14.2-11.8-23.7-16.3C1210.3,62,1212,60.1,1212,60.1z"/>
			<path class="st2" d="M1231.2,81.7c-0.1,0-0.2,0-0.3-0.1c-3.4-2.9-13.8-11.6-23.6-16.2c-0.1-0.1-0.2-0.1-0.2-0.3
				c0-0.1,0-0.2,0.1-0.3c2.7-3,4.4-4.9,4.4-5c0.1-0.2,0.4-0.2,0.6-0.1l23.1,16.2c0.2,0.1,0.2,0.3,0.1,0.5c0,0-1.4,2-3.9,5
				C1231.5,81.6,1231.4,81.7,1231.2,81.7C1231.3,81.7,1231.2,81.7,1231.2,81.7L1231.2,81.7z M1212.1,60.6c-0.5,0.6-1.9,2.2-3.8,4.3
				c9.4,4.5,19.3,12.8,23,15.9c1.8-2.2,2.9-3.8,3.4-4.4C1234.6,76.4,1212.1,60.6,1212.1,60.6z"/>
			<path class="st0" d="M1077.8,131.2c0,0-0.1,0-0.1,0c-0.2-0.1-0.3-0.3-0.2-0.5c0-0.1,4.5-10.1,7.6-16.6c0.1-0.2,0.3-0.3,0.5-0.2
				c0.2,0.1,0.3,0.3,0.2,0.5c-3.2,6.5-7.6,16.4-7.6,16.5C1078.2,131.2,1078,131.2,1077.8,131.2L1077.8,131.2z"/>
			<path class="st0" d="M1158.3,129.1C1158.2,129.1,1158.2,129.1,1158.3,129.1c-0.3-0.1-0.4-0.3-0.4-0.5c4.7-14.4,5.9-21.1,5.9-21.2
				c0-0.2,0.2-0.3,0.5-0.3c0.2,0,0.4,0.2,0.3,0.4c0,0.1-1.2,6.8-5.9,21.3C1158.6,129,1158.4,129.1,1158.3,129.1L1158.3,129.1z"/>
			<path class="st3" d="M1067.8,216c5,3.3,10.5,6.5,16.2,9.4c17.7,8.7,37.4,13,49.4,15.1c-0.5,3.2-1.1,6.4-1.6,9.5
				c0,0-29.4-1.9-64.8-22.2L1067.8,216z"/>
			<path class="st2" d="M1067.2,227.3c33,18.9,60.9,21.9,64.4,22.3c0.5-3.3,1-6.2,1.4-8.8l0,0c-13-2.2-32-6.6-49.1-15
				c-5.7-2.8-11.1-6-16.1-9.3l0-0.9c5.1,3.4,10.6,6.6,16.4,9.5c17.3,8.5,36.3,12.8,49.3,15c0.2,0,0.4,0.2,0.3,0.4
				c-0.5,2.8-1,5.9-1.6,9.5c0,0.2-0.2,0.3-0.4,0.3l0,0c-0.4,0-29.7-2.2-64.7-22.2L1067.2,227.3z"/>
			<path class="st2" d="M1134.5,50.8l-4.1,0.3c-9.2,0.6-18.1,3-26.2,7.1l-2.2,1.1c0,0-5.1-5-4.3-6.7s5.7-6.7,16.4-9.2
				c10.7-2.5,19.8-1.9,21-0.3C1136.4,44.7,1134.5,50.8,1134.5,50.8L1134.5,50.8z"/>
			<path class="st1" d="M1102,59.6c-0.1,0-0.2,0-0.3-0.1c-0.9-0.9-5.2-5.3-4.4-7.1c0.9-2,6.1-6.9,16.7-9.4
				c10.4-2.4,20.1-2.1,21.5-0.2c1.3,1.7-0.4,7.4-0.6,8c0,0.1-0.2,0.2-0.4,0.3l-4.1,0.3c-9.1,0.6-18.1,3-26,7l-2.2,1.1
				C1102.1,59.6,1102,59.6,1102,59.6L1102,59.6z M1134.1,50.5c0.5-1.8,1.5-6,0.7-7.2c-1-1.3-9.5-2.1-20.6,0.5
				c-10.2,2.4-15.4,7.2-16.2,9c-0.4,1,2,4.1,4,6.1l1.9-1c8-4.1,17.1-6.5,26.3-7.1L1134.1,50.5L1134.1,50.5z"/>
			<path class="st0" d="M1122.7,78.4l10.2,6.4l1.1,8.1c0.2,0.9-0.3,1.8-1.1,2.2c-2.4,1.4-5.3,1.5-7.2,1.3c-1.1-0.1-2-0.9-2.1-2
				C1123.2,92.2,1122.6,84.5,1122.7,78.4L1122.7,78.4z"/>
			<path class="st1" d="M1125.6,96.8c-1.3-0.1-2.3-1.1-2.5-2.3c-0.3-2.1-0.9-9.8-0.9-16.1c0-0.1,0.1-0.3,0.2-0.3
				c0.1-0.1,0.3-0.1,0.4,0l10.2,6.4c0.1,0.1,0.2,0.2,0.2,0.3l1.1,8.1c0.2,1-0.3,2-1.3,2.6c-2.2,1.3-4.6,1.5-6.6,1.4
				C1126.2,96.8,1125.9,96.8,1125.6,96.8z M1132.5,85l-9.5-5.9c0,6.1,0.6,13.3,0.9,15.3c0.1,0.9,0.9,1.5,1.8,1.6
				c1.9,0.2,4.6,0.2,6.9-1.2c0.7-0.4,1-1.1,0.9-1.9L1132.5,85L1132.5,85z"/>
			<path class="st0" d="M1127.1,54.2c0,0-1.6,8.2-8.6,12.3c-7,4.1-8.4,9.1-8.4,9.1c0.9,3.9,9.8,13.6,20.6,9.9
				c10.8-3.7,8.3-15.5,8.3-15.5c3-1,4.7-7.1,1.4-9c-3.3-1.9-4.9,1.3-4.9,1.3C1130.7,59.8,1127.1,54.2,1127.1,54.2z"/>
			<path class="st1" d="M1125.1,86.7c-2.2-0.1-4.4-0.7-6.5-1.8c-4.6-2.3-8.1-6.6-8.8-9.2c0-0.1,0-0.1,0-0.2c0.1-0.2,1.5-5.2,8.5-9.3
				c6.7-3.9,8.4-11.9,8.4-12c0-0.1,0.2-0.3,0.3-0.3c0.2,0,0.3,0,0.4,0.2c0,0.1,3.4,5.3,8,7.7c0.3-0.5,1.1-1.3,2.2-1.6
				c1-0.2,2-0.1,3,0.6c1.5,0.9,2.2,2.6,1.9,4.6c-0.3,2.2-1.5,4.2-3.1,4.9c0.3,1.9,1.4,12.2-8.6,15.6
				C1129,86.5,1127,86.8,1125.1,86.7L1125.1,86.7z M1138.7,60.8c-0.3,0-0.5,0-0.7,0.1c-1.3,0.3-1.9,1.6-1.9,1.6
				c0,0.1-0.1,0.2-0.2,0.2c-0.1,0-0.2,0-0.3,0c-3.9-1.9-6.9-5.8-8.1-7.4c-0.6,2.3-2.8,8.3-8.5,11.6c-6.3,3.6-7.9,8.1-8.2,8.8
				c0.6,2.2,3.7,6.3,8.3,8.6c2.7,1.3,6.8,2.6,11.7,0.9c4.3-1.5,7-4.5,7.9-8.9c0.7-3.3,0.1-6.2,0.1-6.3c0-0.2,0.1-0.4,0.3-0.4
				c1.4-0.5,2.6-2.3,2.9-4.4c0.2-1.8-0.3-3.2-1.6-3.9C1139.7,61,1139.2,60.8,1138.7,60.8L1138.7,60.8z"/>
			<path class="st1" d="M1121.3,68.4L1121.3,68.4c0.4,0.2,0.2,0.7-0.2,0.7c-0.5-0.1-1.1-0.1-1.6,0c-1.6,0.1-2.6,1.1-3.4,2.3
				c-0.1,0.1-0.2,0.2-0.4,0.1c-0.2,0-0.4-0.2-0.3-0.4c0.1-0.6,0.3-1.1,0.7-1.6C1117.1,67.9,1119.6,67.4,1121.3,68.4L1121.3,68.4z"/>
			<path class="st1" d="M1131.6,62.4L1131.6,62.4c0.3,0.2,0.1,0.7-0.3,0.6l-0.2,0c-1-0.1-2.2,0.3-3,0.9c-1,0.6-1.6,1.5-2.3,2.5
				c-0.1,0.1-0.3,0.2-0.4,0.1c-0.2,0-0.3-0.3-0.3-0.5C1125.6,63.6,1128.8,61,1131.6,62.4L1131.6,62.4z"/>
			<path class="st1" d="M1129.5,74.7c-0.9-0.1-1.8-0.5-2.3-1.3c-0.1-0.2,0-0.4,0.2-0.5c0.2-0.1,0.4,0,0.5,0.2
				c0.4,0.9,1.6,1.1,2.4,0.8c0.3-0.1,1.1-0.5,0.8-1.5c-0.1-0.3-0.3-0.6-0.6-0.7c-0.7-0.3-2,0.1-2.4,0.3c-0.2,0.1-0.4,0-0.5-0.2
				c-0.1-0.1-1.4-2.3-2.6-5.5c-0.1-0.2,0-0.4,0.3-0.5c0.2-0.1,0.4,0,0.5,0.2c0.9,2.4,1.9,4.3,2.3,5c0.6-0.2,1.8-0.5,2.7-0.1
				c0.5,0.2,0.9,0.6,1.1,1.2c0.3,1.1-0.1,2-1.2,2.4C1130.3,74.7,1129.9,74.8,1129.5,74.7L1129.5,74.7z"/>
			<path class="st1" d="M1119.6,73.2c-0.5-0.9-0.3-1.8,0.3-2.1c0.2-0.1,0.3-0.1,0.5-0.1l0.2,1.5l0.8-1.1c0.2,0.2,0.4,0.4,0.5,0.7
				c0.5,0.9,0.3,1.8-0.3,2.1C1121,74.5,1120,74.1,1119.6,73.2L1119.6,73.2z"/>
			<path class="st1" d="M1129.4,67.4c-0.4-0.9-0.2-1.8,0.5-2c0.2-0.1,0.3-0.1,0.5,0l0,1.5l0.9-1c0.2,0.2,0.4,0.4,0.5,0.7
				c0.4,0.9,0.2,1.8-0.5,2.1C1130.7,68.9,1129.8,68.3,1129.4,67.4L1129.4,67.4z"/>
			<path class="st1" d="M1126.5,80.5c-1.6-0.1-2.9-1.7-2.9-1.8c-0.1-0.2-0.1-0.4,0.1-0.5c0.2-0.1,0.4-0.1,0.6,0.1
				c0.3,0.4,1.3,1.4,2.3,1.5l0,0c0.4,0,0.8-0.2,1.2-0.5c0.1-0.2,0.4-0.2,0.6,0c0.2,0.1,0.2,0.4,0,0.5
				C1127.8,80.3,1127.2,80.5,1126.5,80.5C1126.5,80.5,1126.5,80.5,1126.5,80.5L1126.5,80.5z"/>
			<path class="st0" d="M1092.4,44.9c0.9,2.1,2.8,4.3,6.9,7.8c4,3.5,6.2,5.6,6.2,5.6l1.2-0.9c-1.2-2.5-14.1-11.3-13.1-14.7
				C1091.9,42.2,1092.4,44.9,1092.4,44.9z"/>
			<path class="st1" d="M1105.4,58.6c-0.1,0-0.2,0-0.3-0.1c0,0-2.2-2.1-6.2-5.6c-4.1-3.5-6-5.7-7-7.9c0,0,0-0.1,0-0.1
				c0-0.3-0.3-1.8,0.5-2.4c0.2-0.2,0.6-0.3,1.2-0.2c0.2,0.1,0.3,0.3,0.3,0.5c-0.6,2,4.5,6.4,8.3,9.7c2.4,2.1,4.4,3.8,4.8,4.8
				c0.1,0.2,0,0.3-0.1,0.4l-1.2,0.9C1105.6,58.6,1105.5,58.6,1105.4,58.6L1105.4,58.6z M1106.1,57.3c-0.6-0.9-2.5-2.6-4.5-4.3
				c-4.1-3.6-8.6-7.6-8.6-10c0,0-0.1,0-0.1,0c-0.3,0.2-0.3,1.2-0.2,1.7c0.9,2.1,2.8,4.2,6.7,7.6c3.2,2.8,5.3,4.7,5.9,5.4
				L1106.1,57.3L1106.1,57.3z"/>
			<path class="st3" d="M1106.1,55.7c0,0,2.3,2.1,3,3.3c0.8,1.2-0.7,3.3-1.8,2.2c-1.1-1.1-2.7-2.8-3.1-3.4S1104.6,57,1106.1,55.7
				L1106.1,55.7z"/>
			<path class="st1" d="M1108,61.9c-0.3,0-0.6-0.2-0.9-0.4c-1.2-1.1-2.7-2.8-3.1-3.4c-0.5-0.7,0.1-1.1,0.9-1.8
				c0.3-0.2,0.6-0.5,1-0.8c0.2-0.1,0.4-0.1,0.6,0c0.1,0.1,2.3,2.1,3.1,3.4c0.6,0.9,0.1,2.2-0.6,2.8
				C1108.6,61.8,1108.2,61.9,1108,61.9L1108,61.9z M1106.1,56.3c-0.3,0.2-0.5,0.4-0.7,0.6c-0.7,0.6-0.9,0.7-0.8,0.8
				c0.4,0.5,1.9,2.3,3,3.3c0.2,0.1,0.4,0.3,0.7,0.1c0.5-0.3,0.8-1.2,0.4-1.8C1108.2,58.3,1106.7,56.9,1106.1,56.3L1106.1,56.3z"/>
			<path class="st0" d="M1247,45.1c-3.8,3.1-5.7,7.2-3.6,7.9c2.1,0.7,8.1-4.5,7-7.6c-1.1-3.2-5.1-2.1-5.1-2.1L1247,45.1z"/>
			<path class="st1" d="M1243.8,53.4c-0.2,0-0.3,0-0.5-0.1c-0.6-0.2-1-0.6-1.1-1.2c-0.4-1.7,1.4-4.7,4.2-7.1l-1.4-1.5
				c-0.1-0.1-0.1-0.2-0.1-0.3c0-0.1,0.1-0.2,0.3-0.3c1.5-0.4,4.7-0.5,5.6,2.3c0.7,2-1.1,4.5-2.9,6.1
				C1246.8,52.4,1245.1,53.5,1243.8,53.4L1243.8,53.4z M1247.2,43.5c-0.4,0-0.8,0-1.1,0l1.2,1.3c0.2,0.1,0.1,0.4,0,0.5
				c-3,2.4-4.6,5.4-4.3,6.7c0.1,0.3,0.3,0.6,0.6,0.7c0.7,0.2,2.4-0.5,3.8-1.8c1.7-1.5,3.2-3.8,2.7-5.3
				C1249.6,44,1248.3,43.6,1247.2,43.5L1247.2,43.5z"/>
			<path class="st0" d="M1244.6,42.6c-3.8,3.1-5.7,7.2-3.6,7.9c2.1,0.7,8.1-4.5,7-7.6c-1.1-3.2-5.1-2.1-5.1-2.1L1244.6,42.6z"/>
			<path class="st1" d="M1240.9,50.9c-0.6-0.2-1-0.6-1.1-1.2c-0.4-1.7,1.4-4.7,4.2-7.1l-1.4-1.5c-0.1-0.1-0.1-0.2-0.1-0.3
				s0.1-0.2,0.3-0.3c1.5-0.4,4.7-0.5,5.6,2.3c0.7,2-1.1,4.5-2.9,6.1c-1.2,1.1-2.9,2.2-4.2,2.1C1241.2,51,1241,51,1240.9,50.9z
				 M1244.8,41.1c-0.4,0-0.8,0-1.1,0l1.2,1.3c0.2,0.1,0.1,0.4,0,0.5c-3,2.4-4.6,5.4-4.3,6.7c0.1,0.3,0.3,0.6,0.6,0.7
				c0.7,0.2,2.4-0.5,3.8-1.8c1.7-1.5,3.2-3.8,2.7-5.3C1247.1,41.6,1245.9,41.1,1244.8,41.1L1244.8,41.1z"/>
			<path class="st0" d="M1241.9,40.2c-3.8,3.1-5.7,7.2-3.6,7.9c2.1,0.7,8.1-4.5,7-7.6c-1.1-3.2-5.1-2.1-5.1-2.1L1241.9,40.2z"/>
			<path class="st1" d="M1238.2,48.5c-0.6-0.2-1-0.6-1.1-1.2c-0.4-1.7,1.4-4.7,4.2-7.1l-1.4-1.5c-0.1-0.1-0.1-0.2-0.1-0.3
				c0-0.1,0.1-0.2,0.3-0.3c1.5-0.4,4.7-0.5,5.6,2.3c0.7,2-1.1,4.5-2.9,6.1c-1.2,1.1-2.9,2.2-4.2,2.1
				C1238.5,48.6,1238.3,48.5,1238.2,48.5z M1242.1,38.6c-0.4,0-0.8,0-1.1,0l1.2,1.3c0.2,0.1,0.1,0.4,0,0.5c-3,2.4-4.6,5.4-4.3,6.7
				c0.1,0.3,0.3,0.6,0.6,0.7c0.7,0.2,2.4-0.5,3.8-1.8c1.7-1.5,3.2-3.8,2.7-5.3C1244.4,39.1,1243.2,38.7,1242.1,38.6L1242.1,38.6z"/>
			<path class="st0" d="M1238.7,38.4c-3.8,3.1-5.7,7.2-3.6,7.9c2.1,0.7,8.1-4.5,7-7.6s-5.1-2.1-5.1-2.1L1238.7,38.4z"/>
			<path class="st1" d="M1235.5,46.7c-0.2,0-0.3,0-0.5-0.1c-0.6-0.2-1-0.6-1.1-1.2c-0.4-1.7,1.4-4.7,4.2-7.1l-1.4-1.5
				c-0.1-0.1-0.1-0.2-0.1-0.3s0.1-0.2,0.3-0.3c1.5-0.4,4.7-0.5,5.6,2.3c0.7,2-1.1,4.5-2.9,6.1C1238.4,45.7,1236.7,46.8,1235.5,46.7
				L1235.5,46.7z M1238.9,36.8c-0.4,0-0.8,0-1.1,0l1.2,1.3c0.2,0.1,0.1,0.4,0,0.5c-3,2.4-4.6,5.3-4.3,6.7c0.1,0.3,0.3,0.6,0.6,0.7
				c0.7,0.2,2.4-0.5,3.8-1.8c1.7-1.5,3.2-3.8,2.7-5.3C1241.3,37.3,1240,36.9,1238.9,36.8L1238.9,36.8z"/>
			<path class="st3" d="M1215.7,23.9l3.8,2.4c-0.1,1.1-0.5,2.2-1.4,3.1c-1.2,1.3-2.6,2.1-3.7,2.6
				C1211.7,28.6,1215.7,23.9,1215.7,23.9z"/>
			<path class="st1" d="M1214.3,32.4c-0.1,0-0.2-0.1-0.3-0.2c-2.8-3.7,1.2-8.4,1.4-8.6c0.1-0.2,0.4-0.2,0.5-0.1l3.8,2.4
				c0.1,0.1,0.2,0.2,0.2,0.3c-0.2,1.3-0.7,2.4-1.5,3.3c-1.1,1.2-2.4,2.1-3.9,2.7C1214.5,32.4,1214.4,32.5,1214.3,32.4L1214.3,32.4z
				 M1215.8,24.4c-0.8,1-3.1,4.5-1.3,7.2c1.2-0.6,2.3-1.4,3.3-2.4c0.7-0.8,1.1-1.7,1.3-2.7C1219.1,26.5,1215.8,24.4,1215.8,24.4z"/>
			<path class="st1" d="M1219.3,26.6L1219.3,26.6c-0.2-0.1-0.2-0.4-0.1-0.5c0.1-0.2,0.4-0.2,0.6-0.1c0.2,0.1,0.2,0.4,0.1,0.5
				c-0.1,0.1-0.2,0.2-0.3,0.1C1219.4,26.7,1219.4,26.7,1219.3,26.6z"/>
			<path class="st3" d="M1125.2,318.4c-14.5-1.5-35.7-8.1-37-11.8c-1.8-5.2,2.8-11.4,2.8-11.4s11.5,8.1,15.4,8.3
				c4,0.2,3.9-4,8.5-2.1c2.4,1,8.7,3.7,14,6.9C1134.3,311.4,1131.5,319,1125.2,318.4L1125.2,318.4z"/>
			<path class="st2" d="M1125.5,318.8c-0.1,0-0.2,0-0.4,0l0,0c-13.9-1.4-35.9-8-37.3-12.1c-1.9-5.4,2.6-11.4,2.8-11.7
				c0.1-0.1,0.2-0.1,0.3-0.2c0.1,0,0.2,0,0.3,0.1c0.1,0.1,11.3,8,15.2,8.2l0,0c1.6,0.1,2.4-0.6,3.4-1.3c1.2-0.9,2.5-1.9,5.3-0.8
				c2.4,1,8.7,3.7,14.1,6.9c3,1.8,3.4,4.8,2.6,7C1130.9,317.4,1128.4,318.9,1125.5,318.8L1125.5,318.8z M1125.2,318.4L1125.2,318.4
				L1125.2,318.4z M1113,301.2c-1.2-0.1-1.9,0.5-2.7,1.1c-0.9,0.7-2,1.6-3.9,1.5l0,0c-3.7-0.2-13.3-6.7-15.3-8.1
				c-0.9,1.3-4,6.4-2.5,10.7c1.2,3.5,22.1,10.1,36.6,11.6l0,0c3.3,0.3,5.1-1.6,5.8-3.4c0.7-1.8,0.5-4.4-2.3-6.1
				c-5.3-3.2-11.5-5.9-14-6.9C1114.1,301.4,1113.5,301.3,1113,301.2L1113,301.2z"/>
		</g>
	</g>
	<g id="character_00000111880342159706315150000009491410904584738469_">
		<path class="st0" d="M140.5,156.2c-11.4,24.8-20.7,52.1-5.1,60.7c0,0-7.6,16.7-10.6,30.3c-2.6,11.4-7.7,29.8-9.3,35.6
			c-0.3,1.2,0.2,2.4,1.2,3c3.2,1.9,10.7,5.2,23,3.2c0.9-0.2,1.7-0.8,2.1-1.7c2.8-7.2,15.8-40.4,24.1-53.1c0,0,14.7,17.2,26.9,23.4
			v-33.8l-7.4-10.7c0,0,11.7-12,13.3-27.3c1.6-15.3-1.4-24-1.4-24L140.5,156.2L140.5,156.2z"/>
		<path class="st1" d="M132.4,290.1c-8,0-13.2-2.3-15.9-3.9c-1.2-0.7-1.8-2.2-1.4-3.5c1.5-5.5,6.7-24.2,9.3-35.6
			c2.8-12.4,9.3-27.5,10.5-30c-16-9.4-4.7-39.3,5.3-61.1c0.1-0.2,0.3-0.3,0.5-0.3l56.7,5.6c0.2,0,0.3,0.1,0.4,0.3
			c0,0.1,3.1,9.1,1.5,24.2c-1.5,14-11.4,25.4-13.1,27.3l7.2,10.4c0.1,0.1,0.1,0.2,0.1,0.3v33.8c0,0.2-0.1,0.3-0.2,0.4
			c-0.1,0.1-0.3,0.1-0.4,0c-11-5.6-24.2-20.2-26.6-23c-8.4,13.1-21.2,46-23.7,52.5c-0.4,1-1.3,1.8-2.4,2
			C137.1,289.9,134.6,290.1,132.4,290.1L132.4,290.1z M140.8,156.7c-20.5,44.8-12.8,55.6-5.2,59.8c0.2,0.1,0.3,0.4,0.2,0.6
			c-0.1,0.2-7.6,16.8-10.6,30.2c-2.6,11.4-7.8,30.1-9.3,35.6c-0.3,0.9,0.1,2,1,2.5c3.4,2,10.8,5.1,22.7,3.2c0.8-0.1,1.4-0.7,1.7-1.4
			c2.6-6.6,15.8-40.4,24.1-53.2c0.1-0.1,0.2-0.2,0.4-0.2c0.1,0,0.3,0.1,0.4,0.2c0.1,0.2,14.2,16.6,26.1,22.9V224l-7.3-10.6
			c-0.1-0.2-0.1-0.4,0-0.6c0.1-0.1,11.6-12.1,13.2-27c1.4-13.5-0.8-22-1.3-23.6L140.8,156.7L140.8,156.7z"/>
		<path class="st1" d="M135.4,217.4c0,0-0.1,0-0.1,0c-0.2-0.1-0.4-0.3-0.3-0.6c0.1-0.3,7.5-25.8,19.8-43.4c0.1-0.2,0.4-0.3,0.6-0.1
			c0.2,0.1,0.3,0.4,0.1,0.6c-12.2,17.4-19.6,42.9-19.6,43.1C135.8,217.3,135.6,217.4,135.4,217.4L135.4,217.4z"/>
		<path class="st1" d="M165.9,234.7c-0.1,0-0.2,0-0.3-0.1c-0.2-0.1-0.3-0.4-0.1-0.6c3.4-4.8,8.3-9.7,12.7-14
			c2.8-2.8,5.2-5.2,6.8-7.1c0.2-0.2,0.4-0.2,0.6-0.1c0.2,0.2,0.2,0.4,0.1,0.6c-1.6,2-4.1,4.4-6.9,7.2c-4.3,4.3-9.2,9.1-12.6,13.8
			C166.1,234.6,166,234.7,165.9,234.7L165.9,234.7z"/>
		<path class="st0" d="M137,97.6c6.5,11.3,48.2,5.6,56.4,0.3c8.2-5.3,5.1-15.3,1.6-22.6c-3-6.3-8.5-11.2-15.3-21.5c-1-1.5-2-3-3-4.7
			c-2.3-3.9-4.5-7.1-6.6-9.7c-5.3-6.5-10.7-9.1-19.6-9.1c-6.2-2.2-10.4,0.8-13.6,5.7c-0.9,1.4-1.7,2.9-2.4,4.5
			c-1.9,4-1.6,6.7-1.2,9.4c0.3,2.3,0.6,4.6-0.3,7.6c-1.9,6.8,1.1,10.1,2.6,17.1C137,81.6,130.5,86.3,137,97.6L137,97.6z"/>
		<path class="st1" d="M159.1,104.6c-4.8,0-9.4-0.4-13.2-1.3c-4.7-1.1-7.8-3-9.2-5.4c-4.2-7.3-3.1-11.9-2.1-16.1
			c0.6-2.3,1.1-4.6,0.6-7c-0.5-2.2-1-3.9-1.6-5.6c-1.2-3.7-2.3-6.9-0.9-11.7c0.8-2.9,0.5-5.1,0.3-7.3l0-0.2
			c-0.3-2.5-0.7-5.4,1.3-9.6c0.8-1.8,1.6-3.3,2.5-4.6c3.9-6,8.5-7.9,14.1-6c0.1,0,0.2,0,0.3,0c8.7,0,14.2,2.6,19.6,9.2
			c2,2.4,4,5.5,6.6,9.8c1,1.7,2,3.2,3,4.7c3.1,4.6,5.8,8.1,8.3,11.2c3,3.8,5.4,6.8,7.1,10.3c5.3,11.1,4.7,18.9-1.8,23.2
			C188.8,101.5,172.9,104.6,159.1,104.6L159.1,104.6z M146.5,30c-3.5,0-6.5,2.1-9.2,6.3c-0.8,1.3-1.6,2.7-2.4,4.5
			c-1.8,4-1.5,6.6-1.2,9.1l0,0.2c0.3,2.2,0.6,4.5-0.3,7.6c-1.3,4.5-0.3,7.5,0.9,11.2c0.5,1.7,1.2,3.5,1.6,5.7c0.6,2.7,0,5-0.6,7.4
			c-1,4.1-2,8.4,2,15.4l0,0c1.3,2.3,4.2,3.9,8.7,5c14.3,3.4,40.5-0.7,47.1-4.9c6.1-4,6.6-11.2,1.5-22c-1.6-3.4-4-6.4-7-10.2
			c-2.5-3.1-5.2-6.6-8.3-11.3c-1-1.5-2-3.1-3-4.8c-2.5-4.2-4.6-7.3-6.6-9.7c-5.4-6.6-10.6-9-19.3-8.9c0,0-0.1,0-0.2,0
			C149,30.2,147.7,30,146.5,30L146.5,30z"/>
		<path class="st2" d="M127.4,93.9c0,0,6.4-13.3,18.1-18.3s38-3.3,44.4,8.1c6.4,11.4,16.2,58.5,17,65.5c0.8,7-6.2,9.7-6.2,9.7
			l-0.3,6.2c0,0-22.3,6.7-40.4,2.6c-18.1-4.1-26.8-7.5-26.8-7.5l4.1-47.1L127.4,93.9L127.4,93.9z"/>
		<path class="st0" d="M114.7,81.5l8.4-1.8l2.8,14.1c0,0,9.2-3.6,16.5-5.3c7.3-1.6,18.3-1.1,18.3-1.1l8,41.9l-3.5,2l-40.1-25.1
			l-7.8-13.6L114.7,81.5L114.7,81.5z"/>
		<path class="st1" d="M165.2,131.7c-0.1,0-0.2,0-0.2-0.1l-40.1-25.1c-0.1,0-0.1-0.1-0.2-0.2l-7.8-13.6c0,0,0-0.1,0-0.1l-2.5-11.1
			c0-0.1,0-0.2,0.1-0.3c0.1-0.1,0.2-0.2,0.3-0.2l8.4-1.8c0.1,0,0.2,0,0.3,0.1c0.1,0.1,0.2,0.2,0.2,0.3l2.7,13.6
			c2-0.8,9.8-3.7,16.1-5.1c7.3-1.6,18.3-1.2,18.4-1.1c0.2,0,0.4,0.2,0.4,0.4l8,41.9c0,0.2-0.1,0.4-0.2,0.5l-3.5,2
			C165.3,131.7,165.3,131.7,165.2,131.7L165.2,131.7z M125.4,105.9l39.8,24.9l3-1.7l-7.9-41.3c-2-0.1-11.4-0.3-17.8,1.1
			c-7.2,1.6-16.4,5.2-16.4,5.2c-0.1,0.1-0.3,0-0.4,0c-0.1-0.1-0.2-0.2-0.2-0.3l-2.7-13.7l-7.5,1.6l2.4,10.6L125.4,105.9L125.4,105.9
			z"/>
		<path class="st2" d="M113.5,81.5l7.4,16l4.3,2.1c0,0,18.6-7,33-6.2l7.7,43.1c0,0-20.1,5.5-32.8,2.5l-4.2-2.7l-10.1-34.1
			L113.5,81.5L113.5,81.5z"/>
		<path class="st1" d="M141.8,140.4c-3.1,0-6.1-0.2-8.8-0.9c0,0-0.1,0-0.1-0.1l-4.2-2.7c-0.1-0.1-0.2-0.1-0.2-0.3l-10.1-34.1
			l-5.2-20.8c-0.1-0.2,0.1-0.5,0.3-0.5c0.2-0.1,0.5,0,0.6,0.2l7.3,15.8l4,2c2-0.7,19.4-6.9,33-6.1c0.2,0,0.4,0.2,0.4,0.4l7.7,43.1
			c0,0.2-0.1,0.5-0.3,0.5C165.8,137,153.3,140.4,141.8,140.4L141.8,140.4z M133.3,138.6c11.4,2.6,29.2-1.7,32.1-2.5l-7.6-42.3
			c-14.1-0.7-32.3,6.1-32.4,6.2c-0.1,0-0.2,0-0.4,0l-4.3-2.1c-0.1,0-0.2-0.1-0.2-0.2l-5.3-11.5l4,16.1l10.1,33.9L133.3,138.6
			L133.3,138.6z"/>
		<path class="st0" d="M117.4,102.9c-1.6-0.9-1.7-2.5-1-3c0.8-0.6,3.8-0.8,4.4,0c0.7,0.8,0.1,2.3-0.8,2.5
			C119.1,102.5,117.4,102.9,117.4,102.9L117.4,102.9z"/>
		<path class="st1" d="M117.4,103.4c-0.1,0-0.2,0-0.2-0.1c-1-0.6-1.6-1.4-1.7-2.3c0-0.6,0.2-1.2,0.6-1.5c0.9-0.6,4.1-1,5,0.1
			c0.4,0.5,0.5,1.2,0.3,1.9c-0.3,0.7-0.8,1.2-1.4,1.3c-0.9,0.1-2.6,0.6-2.6,0.6C117.5,103.4,117.4,103.4,117.4,103.4L117.4,103.4z
			 M118.9,99.8c-0.9,0-1.9,0.2-2.2,0.4c-0.2,0.1-0.3,0.4-0.3,0.7c0,0.5,0.4,1.1,1,1.5c0.5-0.1,1.7-0.4,2.5-0.5
			c0.3,0,0.5-0.3,0.7-0.7c0.1-0.3,0.2-0.7-0.1-1C120.3,99.9,119.6,99.8,118.9,99.8L118.9,99.8z"/>
		<path class="st0" d="M118.4,105.2c0,0-2.6-1.2-1.9-2.6s4.6-1.3,5-0.7s-0.3,2.3-1.5,2.5C118.8,104.5,118.4,105.2,118.4,105.2z"/>
		<path class="st1" d="M118.4,105.7c-0.1,0-0.1,0-0.2,0c-0.2-0.1-1.8-0.9-2.2-2c-0.1-0.4-0.1-0.8,0.1-1.2c0.6-1.2,2.8-1.4,3.4-1.4
			c0.6,0,2,0,2.3,0.6c0.3,0.4,0.2,1.2-0.1,1.8c-0.4,0.7-1,1.2-1.7,1.3c-0.9,0.1-1.3,0.6-1.3,0.6
			C118.7,105.6,118.5,105.7,118.4,105.7L118.4,105.7z M119.8,102c-0.4,0-0.9,0-1.3,0.1c-0.8,0.2-1.3,0.4-1.5,0.8
			c-0.1,0.2-0.1,0.3,0,0.5c0.2,0.5,0.9,1,1.4,1.3c0.3-0.3,0.8-0.6,1.7-0.7c0.5-0.1,0.9-0.6,1-0.8c0.2-0.4,0.2-0.8,0.2-1
			C121,102.1,120.5,102,119.8,102L119.8,102z"/>
		<path class="st0" d="M118.9,108.1c0,0-2.9-1.1-2.2-2.8c0.7-1.7,5-1.9,5.5-0.9c0.5,0.9,0.5,1.9-1.4,2.8L118.9,108.1L118.9,108.1z"
			/>
		<path class="st1" d="M118.9,108.6c-0.1,0-0.1,0-0.2,0c-0.1,0-1.9-0.7-2.5-1.9c-0.2-0.5-0.2-1,0-1.4c0.5-1.2,2.3-1.7,3.8-1.8
			c0.6,0,2.2,0,2.6,0.8c0.2,0.4,0.5,1.1,0.2,1.8c-0.2,0.6-0.8,1.2-1.8,1.6l-1.9,0.9C119,108.6,118.9,108.6,118.9,108.6z
			 M120.2,104.3c-0.2,0-0.4,0-0.7,0c-1.3,0.1-2.3,0.6-2.5,1.2c-0.1,0.3-0.1,0.5,0,0.7c0.3,0.6,1.3,1.2,1.8,1.4l1.7-0.8
			c0.7-0.3,1.2-0.7,1.3-1.1c0.1-0.3,0.1-0.6-0.2-1.1C121.6,104.5,121.1,104.3,120.2,104.3z"/>
		<path class="st0" d="M121.6,112c0,0-3.7-1.6-4-3.4c-0.2-1.7,2.4-2.8,4-2.2c1.6,0.5,0.6,1.9-1.1,2.1L121.6,112L121.6,112z"/>
		<path class="st1" d="M121.6,112.4c-0.1,0-0.1,0-0.2,0c-0.4-0.2-4-1.8-4.2-3.7c-0.1-0.7,0.2-1.5,0.9-2c1-0.8,2.5-1.1,3.7-0.7
			c1.1,0.4,1.1,1,1.1,1.3c-0.1,0.7-0.8,1.3-1.7,1.5l0.9,3.1c0.1,0.2,0,0.4-0.1,0.5C121.8,112.4,121.7,112.4,121.6,112.4L121.6,112.4
			z M120.7,106.7c-0.7,0-1.5,0.3-2,0.7c-0.3,0.2-0.6,0.6-0.6,1.2c0.1,0.8,1.5,1.9,2.8,2.6l-0.8-2.6c0-0.1,0-0.3,0.1-0.4
			c0.1-0.1,0.2-0.2,0.3-0.2c0.9-0.1,1.4-0.6,1.4-0.8c0-0.1-0.2-0.3-0.5-0.4C121.3,106.7,121,106.7,120.7,106.7L120.7,106.7z"/>
		<polygon class="st4" points="120.9,97.4 128.9,136.4 133.1,139.1 125.2,99.6 		"/>
		<path class="st1" d="M133.1,139.5c-0.1,0-0.2,0-0.2-0.1l-4.2-2.7c-0.1-0.1-0.2-0.2-0.2-0.3l-8-38.9c0-0.2,0-0.3,0.2-0.5
			c0.1-0.1,0.3-0.1,0.5,0l4.3,2.1c0.1,0.1,0.2,0.2,0.2,0.3l7.9,39.5c0,0.2,0,0.4-0.2,0.5C133.3,139.5,133.2,139.5,133.1,139.5
			L133.1,139.5z M129.3,136.1l3.2,2l-7.7-38.2l-3.3-1.6L129.3,136.1L129.3,136.1z"/>
		<path class="st0" d="M158.2,130.1c0,0-7.7-2.7-10.6-5c-2.9-2.3-5.4-10.9-7.6-10.6c-2.2,0.3,0.4,10.9,0.4,10.9s-4.5-0.6-7.3-2.6
			c-2.8-2-7.6-6.3-9.4-6.1c-1.8,0.2,5.8,8.2,5.8,8.2s-4.7-1.8-5.6-1.2c-1,0.6,4.3,4,4.3,4s-2.1-0.4-2.4,0.8
			c-0.4,1.2,3.2,2.8,3.2,2.8s-2.6,1.1,0.2,3c2.8,1.9,6.3,4.6,10.5,4.8c4.2,0.2,10.1-0.4,10.1-0.4l6.8,4.9
			C156.5,143.5,156.9,135,158.2,130.1L158.2,130.1z"/>
		<path class="st1" d="M156.5,143.9c-0.1,0-0.2,0-0.3-0.1l-6.6-4.8c-1,0.1-6.2,0.6-10,0.4c-4-0.2-7.4-2.5-10.2-4.5l-0.6-0.4
			c-1-0.7-1.5-1.5-1.5-2.2c0-0.5,0.3-0.8,0.6-1.1c-1.2-0.6-3.1-1.8-2.7-3c0.2-0.7,0.8-1,1.4-1.1c-1.6-1.1-3.4-2.6-3.4-3.4
			c0-0.2,0.1-0.4,0.3-0.6c0.7-0.4,2.7,0.1,4.3,0.6c-2.4-2.6-5.3-6.1-4.9-7.1c0.1-0.3,0.3-0.4,0.6-0.5c1.5-0.2,4,1.8,7.5,4.5
			c0.8,0.6,1.6,1.2,2.2,1.7c2,1.5,5.1,2.1,6.4,2.4c-0.5-2.2-1.8-8.6-0.6-10.3c0.3-0.4,0.6-0.5,0.8-0.5c1.5-0.2,2.8,2.2,4.4,5.2
			c1.2,2.2,2.4,4.5,3.6,5.5c2.8,2.2,10.4,4.9,10.5,5c0.2,0.1,0.3,0.3,0.3,0.5c-1.2,4.7-1.7,13.2-1.7,13.3c0,0.2-0.1,0.3-0.3,0.4
			C156.6,143.9,156.6,143.9,156.5,143.9L156.5,143.9z M149.7,138.1c0.1,0,0.2,0,0.3,0.1l6.1,4.4c0.1-2.2,0.6-8.2,1.6-12.2
			c-1.6-0.6-7.8-2.9-10.3-5c-1.4-1.1-2.6-3.5-3.9-5.8c-1.1-2.2-2.6-4.9-3.4-4.7c0,0-0.1,0-0.2,0.1c-0.8,1.2,0.1,6.9,0.9,10.2
			c0,0.1,0,0.3-0.1,0.4c-0.1,0.1-0.2,0.2-0.4,0.1c-0.2,0-4.6-0.6-7.5-2.7c-0.7-0.5-1.4-1.1-2.3-1.7c-2.3-1.8-5.4-4.2-6.7-4.3
			c0.3,1,3.2,4.5,6,7.4c0.1,0.2,0.2,0.4,0,0.6s-0.3,0.2-0.5,0.2c-2.2-0.8-4.3-1.4-5-1.3c0.4,0.6,2.4,2.1,4.1,3.3
			c0.2,0.1,0.3,0.4,0.2,0.6c-0.1,0.2-0.3,0.3-0.5,0.3c0,0-1.7-0.3-1.9,0.5c-0.1,0.5,1.4,1.6,2.9,2.3c0.2,0.1,0.3,0.2,0.3,0.4
			s-0.1,0.3-0.3,0.4c-0.2,0.1-0.8,0.4-0.8,0.8c0,0.4,0.3,0.9,1.1,1.4l0.6,0.4c2.6,1.8,5.9,4.1,9.7,4.3
			C143.7,138.7,149.6,138.1,149.7,138.1C149.7,138.1,149.7,138.1,149.7,138.1L149.7,138.1z"/>
		<path class="st1" d="M135.4,129.1c0,0-0.1,0-0.1,0c-2.2-0.6-6-3.7-6.1-3.9c-0.2-0.2-0.2-0.5-0.1-0.6c0.2-0.2,0.4-0.2,0.6,0
			c0,0,3.7,3.2,5.8,3.7c0.2,0.1,0.4,0.3,0.3,0.6C135.8,129,135.6,129.1,135.4,129.1L135.4,129.1z"/>
		<path class="st1" d="M135.8,131.8c0,0-0.1,0-0.1,0c-0.2-0.1-4.7-1.5-7.8-3.8c-0.2-0.1-0.2-0.4-0.1-0.6c0.1-0.2,0.4-0.2,0.6-0.1
			c3,2.2,7.5,3.7,7.6,3.7c0.2,0.1,0.4,0.3,0.3,0.6C136.2,131.7,136,131.8,135.8,131.8L135.8,131.8z"/>
		<path class="st1" d="M135.8,135.1c-0.1,0-0.1,0-0.2,0c-0.2-0.1-4.2-1.7-7-3.4c-0.2-0.1-0.3-0.4-0.2-0.6c0.1-0.2,0.4-0.3,0.6-0.2
			c2.7,1.7,6.8,3.3,6.9,3.4c0.2,0.1,0.3,0.4,0.2,0.6C136.2,135,136,135.1,135.8,135.1L135.8,135.1z"/>
		<path class="st2" d="M184.8,131.4c0,0-25.3-4.7-26.6-1.3c0,0-1.8,9.6-1.7,13.4c0,0,0.1,3.6,2.4,4.9s20.4,9.4,38.4,10.5"/>
		<path class="st1" d="M197.2,159.3C197.2,159.3,197.2,159.3,197.2,159.3c-18.2-1.1-36.8-9.5-38.6-10.6c-2.4-1.4-2.6-5.1-2.6-5.3
			c0-3.8,1.6-13.1,1.7-13.5c1.3-3.7,22.8,0.1,27.1,0.9c0.2,0,0.4,0.3,0.4,0.5c0,0.2-0.3,0.4-0.5,0.4c-12.3-2.3-25.4-3.5-26.1-1.6
			c0,0-1.7,9.5-1.7,13.2c0,0,0.2,3.4,2.1,4.5c1.8,1.1,20.1,9.3,38.2,10.4c0.3,0,0.4,0.2,0.4,0.5
			C197.6,159.1,197.4,159.3,197.2,159.3L197.2,159.3z"/>
		<path class="st1" d="M167.6,129.6c-0.2,0-0.4-0.1-0.4-0.4L159,89.4c-1.4-0.1-6.8-0.4-13.8,0.5c-8.1,1.1-20.1,5.9-20.2,5.9
			c-0.2,0.1-0.5,0-0.6-0.3c-0.1-0.2,0-0.5,0.3-0.6c0.1,0,12.3-4.9,20.5-6c8.2-1.1,14.3-0.5,14.4-0.5c0.2,0,0.4,0.2,0.4,0.4l8.2,40.2
			C168.1,129.3,168,129.6,167.6,129.6C167.7,129.6,167.6,129.6,167.6,129.6L167.6,129.6z"/>
		<path class="st1" d="M124,97.9c-0.2,0-0.4-0.1-0.4-0.3c-0.1-0.2,0.1-0.5,0.3-0.6c0,0,2.7-0.7,8.4-2.9c6-2.4,18.3-3.6,24.8-3.1
			c0.3,0,0.4,0.2,0.4,0.5c0,0.2-0.2,0.4-0.5,0.4c-6.4-0.5-18.5,0.8-24.4,3.1c-5.8,2.3-8.4,2.9-8.5,3C124.1,97.9,124,97.9,124,97.9
			L124,97.9z"/>
		<path class="st1" d="M121.6,96.2c-0.2,0-0.4-0.1-0.4-0.3l-4-12.9c-0.1-0.2,0.1-0.5,0.3-0.6c0.2-0.1,0.5,0.1,0.6,0.3l4,12.9
			c0.1,0.2-0.1,0.5-0.3,0.6C121.7,96.2,121.7,96.2,121.6,96.2L121.6,96.2z"/>
		<path class="st1" d="M122.9,95.7c-0.2,0-0.4-0.2-0.5-0.4c-0.1-0.5-2-8.1-3.3-13.1c-0.1-0.2,0.1-0.5,0.3-0.6
			c0.2-0.1,0.5,0.1,0.6,0.3c3.3,13,3.3,13.2,3.3,13.3C123.4,95.5,123.2,95.7,122.9,95.7z"/>
		<path class="st1" d="M124.2,94c-0.2,0-0.4-0.1-0.4-0.4l-2.6-12.1c-0.1-0.2,0.1-0.5,0.3-0.5c0.2-0.1,0.5,0.1,0.5,0.3l2.6,12.1
			C124.7,93.7,124.6,93.9,124.2,94C124.3,94,124.3,94,124.2,94L124.2,94z"/>
		<path class="st1" d="M185.3,133.4c-0.2,0-0.4-0.1-0.4-0.3c0-0.1-1.9-5.2-4.2-12c-2-5.9-9.4-34.8-3.8-39.4c0.2-0.2,0.5-0.1,0.6,0.1
			c0.2,0.2,0.1,0.5-0.1,0.6c-4.7,3.9,1.2,30.1,4,38.4c2.3,6.7,4.2,11.9,4.2,11.9c0.1,0.2,0,0.5-0.3,0.6
			C185.4,133.4,185.4,133.4,185.3,133.4L185.3,133.4z"/>
		<path class="st4" d="M141.7,79.6c-1.2,3.5-2,9.5-2,9.5"/>
		<path class="st1" d="M139.7,89.6C139.7,89.6,139.6,89.6,139.7,89.6c-0.3,0-0.5-0.3-0.5-0.5c0-0.2,0.8-6.1,2-9.6
			c0.1-0.2,0.3-0.4,0.6-0.3c0.2,0.1,0.4,0.3,0.3,0.6c-1.2,3.4-2,9.4-2,9.4C140.1,89.5,139.9,89.6,139.7,89.6L139.7,89.6z"/>
		<path class="st0" d="M162.4,62.6c1.2,6.2,3.3,13.3,3.3,13.3s-0.7,6.1-6.7,7.6c-6.1,1.4-7.1-3.8-7.2-4.9s0.2-4.7,0.2-5.9
			S162.4,62.6,162.4,62.6L162.4,62.6z"/>
		<path class="st1" d="M157,84.2c-1.2,0-2.3-0.3-3.1-0.9c-1.9-1.3-2.4-3.7-2.5-4.6c-0.1-0.7,0-2.2,0.1-3.7c0.1-0.9,0.1-1.8,0.1-2.3
			c0-1.2,6.7-7.1,10.7-10.4c0.1-0.1,0.3-0.1,0.4-0.1s0.3,0.2,0.3,0.3c1.2,6.1,3.2,13.2,3.3,13.3c0,0.1,0,0.1,0,0.2
			c0,0.1-0.8,6.5-7.1,8C158.3,84.1,157.6,84.2,157,84.2L157,84.2z M162.1,63.5c-4.7,4-9.5,8.5-9.8,9.3c0,0.5,0,1.4-0.1,2.3
			c-0.1,1.4-0.2,2.9-0.1,3.5c0.1,0.8,0.5,2.9,2.2,4c1.1,0.8,2.6,0.9,4.5,0.5c5.4-1.3,6.3-6.3,6.4-7.1
			C165,75.2,163.3,69.1,162.1,63.5L162.1,63.5z"/>
		<path class="st0" d="M135.4,47.8c0,0-3.9,16.9,3.4,22.9c7.3,6,23.8,3,27.6-8.4c0,0,3.7,3.5,6.2-0.9c2.4-4.3-1.7-8.3-6-5.8
			c0,0-2.2-4.3-10.7-6.2s-13.3-6.7-13.3-6.7S141.2,45.8,135.4,47.8L135.4,47.8z"/>
		<path class="st1" d="M148.5,74.2c-3.9,0-7.5-1.1-10-3.1c-7.4-6.1-3.7-22.6-3.5-23.3c0-0.2,0.1-0.3,0.3-0.3
			c5.6-1.9,6.8-4.7,6.8-4.8c0.1-0.1,0.2-0.2,0.3-0.3c0.1,0,0.3,0,0.4,0.1c0,0,4.8,4.7,13.1,6.6c7.2,1.7,10,4.9,10.8,6.1
			c2.1-1,4.3-0.8,5.7,0.6c1.5,1.5,1.7,3.8,0.5,5.9c-0.8,1.4-1.8,2.2-2.9,2.4c-1.4,0.2-2.7-0.5-3.4-1c-1.8,4.8-6.1,8.5-11.8,10.2
			C152.6,73.9,150.5,74.2,148.5,74.2L148.5,74.2z M135.8,48.1c-0.4,2.1-3.3,16.8,3.3,22.2c3.6,2.9,9.6,3.7,15.4,2.1
			c5.7-1.7,9.9-5.4,11.4-10.2c0-0.1,0.2-0.3,0.3-0.3c0.2,0,0.3,0,0.4,0.1c0,0,1.6,1.4,3.2,1.2c0.9-0.1,1.7-0.8,2.3-1.9
			c1.2-2.1,0.6-3.9-0.4-4.8c-1.2-1.2-3.2-1.3-5-0.3c-0.1,0.1-0.2,0.1-0.4,0c-0.1,0-0.2-0.1-0.3-0.2c0,0-2.2-4.1-10.4-6
			c-7.2-1.7-11.7-5.2-13.1-6.4C141.9,44.5,140.1,46.6,135.8,48.1L135.8,48.1z"/>
		<path class="st1" d="M149.4,53.7c1.8-1.2,4.3-1.4,6.2-0.4c0.2,0.1,0.3,0.4,0.2,0.6c-0.1,0.1-0.2,0.2-0.4,0.2c-1,0-1.9,0-2.8,0.1
			c-0.8,0-1.9,0.2-2.7,0.3C149.3,54.6,149,54,149.4,53.7L149.4,53.7L149.4,53.7z"/>
		<path class="st1" d="M135.1,52.6c2.2-0.8,4.8-0.6,6.9,0.4c0.4,0.2,0.3,0.9-0.2,0.9c-1.6,0-3.3-0.2-4.9-0.3l-1.6-0.1h-0.1
			C134.8,53.5,134.7,52.8,135.1,52.6L135.1,52.6L135.1,52.6z"/>
		<path class="st1" d="M141.5,63.5c-1,0-1.8-0.6-2-1.7c-0.1-0.6,0-1.2,0.3-1.6c0.6-0.8,1.7-1.1,2.3-1.2c0-0.9-0.2-3-0.7-5.6
			c-0.1-0.2,0.1-0.5,0.4-0.5c0.2-0.1,0.5,0.1,0.5,0.4c0.7,3.4,0.7,6,0.7,6.1c0,0.2-0.2,0.4-0.4,0.5c-0.4,0-1.6,0.2-2.1,0.8
			c-0.2,0.2-0.2,0.5-0.1,0.8c0.2,1,0.9,1,1.3,1c0.8-0.1,1.6-0.9,1.6-1.8c0-0.3,0.2-0.5,0.4-0.5c0.3,0,0.5,0.2,0.5,0.4
			c0.1,1.5-1.1,2.5-2.3,2.7C141.8,63.5,141.7,63.6,141.5,63.5L141.5,63.5z"/>
		<path class="st1" d="M153.2,58c-0.1,1-0.7,1.8-1.4,1.8c-0.7,0-1.2-0.9-1.2-1.9c0-0.3,0.1-0.6,0.2-0.8l1.2,0.7l-0.5-1.5
			c0.2-0.1,0.3-0.1,0.5-0.1C152.8,56.1,153.3,57,153.2,58L153.2,58z"/>
		<path class="st1" d="M139.4,57.2c-0.1,1-0.7,1.8-1.4,1.8c-0.7,0-1.2-0.9-1.2-1.9c0-0.3,0.1-0.6,0.2-0.8l1.2,0.7l-0.5-1.5
			c0.2-0.1,0.3-0.1,0.5-0.1C139,55.3,139.5,56.2,139.4,57.2L139.4,57.2z"/>
		<path class="st1" d="M146.5,68.2c-0.9,0-1.8-0.4-2.8-1.2c-0.2-0.2-0.2-0.4-0.1-0.6c0.2-0.2,0.4-0.2,0.6-0.1c1,0.8,1.9,1.1,2.7,0.9
			c0.7-0.2,1.2-0.8,1.5-1.7c0.1-0.2,0.3-0.4,0.6-0.3c0.2,0.1,0.4,0.3,0.3,0.6c-0.3,1.2-1.1,2-2.1,2.3
			C147.1,68.2,146.8,68.2,146.5,68.2L146.5,68.2z"/>
		<path class="st1" d="M170.2,59.7c-0.2,0-0.4-0.1-0.4-0.3c-0.2-0.6-0.6-1-1.1-1.2c-1-0.4-2.2,0.2-2.2,0.2c-0.2,0.1-0.5,0-0.6-0.2
			c-0.1-0.2,0-0.5,0.2-0.6c0.1,0,1.6-0.8,2.9-0.2c0.7,0.3,1.3,0.9,1.6,1.7c0.1,0.2,0,0.5-0.3,0.6C170.3,59.6,170.3,59.7,170.2,59.7
			L170.2,59.7z"/>
		<path class="st1" d="M167.9,62.3c-0.2,0-0.4-0.1-0.4-0.3c-0.1-0.2,0-0.5,0.3-0.6c0.4-0.1,0.7-0.4,0.9-0.9c0.4-0.9,0.2-2.2,0-2.5
			c-0.1-0.2,0-0.5,0.2-0.6c0.2-0.1,0.5,0,0.6,0.2c0.3,0.6,0.5,2.1,0.1,3.3c-0.3,0.7-0.8,1.2-1.4,1.4C168,62.3,167.9,62.3,167.9,62.3
			L167.9,62.3z"/>
		<path class="st2" d="M140.6,291.7l-2.6,19.8c-0.2,1.4-1.4,2.4-2.8,2.2l-36.5-4.5c-1.5-0.2-2.5-1.7-2.1-3.2l0.2-0.8
			c0,0,4.2-16.9,22.5-15.8C119.2,289.4,127.9,293,140.6,291.7L140.6,291.7z"/>
		<path class="st1" d="M137.7,310.3C137.7,310.3,137.7,310.3,137.7,310.3l-40.6-5c-0.2,0-0.4-0.3-0.4-0.5c0-0.2,0.3-0.4,0.5-0.4
			l40.5,5c0.2,0,0.4,0.3,0.4,0.5C138.2,310.2,138,310.3,137.7,310.3L137.7,310.3z"/>
		<path class="st1" d="M128,309.1C128,309.1,127.9,309.1,128,309.1c-0.3,0-0.5-0.3-0.4-0.5c0-0.1,1.9-9,11.9-8.3
			c0.3,0,0.4,0.2,0.4,0.5c0,0.3-0.2,0.4-0.5,0.4c-9.2-0.7-10.9,7.5-10.9,7.6C128.4,309,128.2,309.1,128,309.1L128,309.1z"/>
		<path class="st1" d="M118.9,295.7c-0.1,0-0.2-0.1-0.3-0.2l-7.5-8.4c-0.2-0.2-0.2-0.5,0-0.6c0.2-0.2,0.5-0.2,0.6,0l7.5,8.4
			c0.2,0.2,0.2,0.5,0,0.6C119.2,295.6,119.1,295.7,118.9,295.7L118.9,295.7z"/>
		<path class="st1" d="M114.6,296.8c-0.1,0-0.2-0.1-0.3-0.2l-7.5-8.4c-0.2-0.2-0.2-0.5,0-0.6c0.2-0.2,0.5-0.2,0.6,0l7.5,8.4
			c0.2,0.2,0.2,0.5,0,0.6C114.8,296.7,114.7,296.8,114.6,296.8L114.6,296.8z"/>
	</g>
	<g>
		<path class="st4" d="M240.5,103.1v118.3c0,9.7,2.1,17.3,6.4,23c4.2,5.6,11.1,8.4,20.6,8.4c9.5,0,16.5-2.8,21-8.4
			c4.5-5.6,6.8-13.3,6.8-23V103.1h65.5v118.3c0,20-4.1,37-12.4,51.1c-8.3,14.1-19.7,24.8-34.1,31.9c-14.4,7.1-30.5,10.7-48.3,10.7
			s-33.5-3.6-47.3-10.7c-13.7-7.1-24.5-17.7-32.2-31.7c-7.7-14-11.6-31.1-11.6-51.3V103.1H240.5z"/>
		<path class="st4" d="M583.2,313h-65.8l-69.7-105.5V313h-65.8V103.1h65.8l69.7,107.3V103.1h65.8V313z"/>
		<path class="st4" d="M671.2,103.1V313h-65.8V103.1H671.2z"/>
		<path class="st4" d="M822.1,174.8c-2.6-4.1-6.2-7.4-11-9.6c-4.7-2.3-10.5-3.4-17.2-3.4c-12.6,0-22.4,4.1-29.3,12.3
			c-6.9,8.2-10.4,19.4-10.4,33.6c0,16.4,3.9,28.7,11.6,36.8c7.7,8.1,19.6,12.2,35.6,12.2c15.2,0,27.5-6.1,36.8-18.4h-52.5v-46.5h107
			v65.8c-9.1,15.6-21.6,29-37.6,40.2c-16,11.2-36.3,16.7-60.8,16.7c-21.7,0-40.7-4.5-56.8-13.5c-16.1-9-28.5-21.6-37.1-37.8
			c-8.6-16.2-12.9-34.7-12.9-55.4s4.3-39.2,12.9-55.4c8.6-16.2,20.9-28.8,36.9-37.8c16-9,34.8-13.5,56.3-13.5
			c27.5,0,49.8,6.6,67.1,19.9c17.3,13.2,27.5,31.2,30.7,53.9H822.1z"/>
		<path class="st4" d="M1120.3,103.1L1049.7,313h-85.1l-70.5-209.9h70l43.3,144.4l43-144.4H1120.3z"/>
	</g>
</g>
</svg>
